<?xml version="1.0" standalone="no"?>
<!DOCTYPE svg PUBLIC "-//W3C//DTD SVG 1.1//EN" "http://www.w3.org/Graphics/SVG/1.1/DTD/svg11.dtd" >
<svg xmlns="http://www.w3.org/2000/svg" xmlns:xlink="http://www.w3.org/1999/xlink" version="1.1">
<metadata>
Created by FontForge 20170731 at Wed Jun 12 15:42:48 2019
 By Aleksey,,,
Volvo Novum is created exclusively for Volvo Trademark Holding Aktiebolag. Copyright 2019 Volvo Trademark Holding Aktiebolag. All rights reserved.
</metadata>
<defs>
<font id="VolvoNovum-Light" horiz-adv-x="650" >
  <font-face 
    font-family="Volvo Novum Light"
    font-weight="300"
    font-stretch="normal"
    units-per-em="1000"
    panose-1="2 11 3 3 4 5 2 6 2 4"
    ascent="780"
    descent="-220"
    x-height="476"
    cap-height="682"
    bbox="-111 -220 1492 980"
    underline-thickness="52"
    underline-position="-298"
    unicode-range="U+000D-FB02"
  />
<missing-glyph horiz-adv-x="1077" 
d="M980 -210h-883q-12 0 -12 11v36t0.5 90.5t0.5 120v139v133.5v140v158.5t-0.5 144t-0.5 110.5v44q0 11 12 11h883q12 0 12 -11v-44v-110.5t-0.5 -144t-0.5 -158.5v-140v-133.5t0.5 -139t0.5 -120v-90.5v-36q0 -11 -12 -11zM146 873v-1028h785v1028h-785zM575 0h-80v125h80
v-125zM505 209l-1 68q-1 36 17.5 63.5t45 46.5t53.5 39t45.5 51t18.5 71q0 50 -43 86.5t-114 36.5q-69 0 -116 -36.5t-47 -102.5q0 -36 5 -56h-61q-7 21 -7 53q0 91 64 144t164 53q98 0 160 -49t62 -126q0 -47 -19 -84t-46 -59t-54 -41.5t-46 -42.5t-20 -51l-1 -64h-60z" />
    <glyph glyph-name=".notdef" horiz-adv-x="1077" 
d="M980 -210h-883q-12 0 -12 11v36t0.5 90.5t0.5 120v139v133.5v140v158.5t-0.5 144t-0.5 110.5v44q0 11 12 11h883q12 0 12 -11v-44v-110.5t-0.5 -144t-0.5 -158.5v-140v-133.5t0.5 -139t0.5 -120v-90.5v-36q0 -11 -12 -11zM146 873v-1028h785v1028h-785zM575 0h-80v125h80
v-125zM505 209l-1 68q-1 36 17.5 63.5t45 46.5t53.5 39t45.5 51t18.5 71q0 50 -43 86.5t-114 36.5q-69 0 -116 -36.5t-47 -102.5q0 -36 5 -56h-61q-7 21 -7 53q0 91 64 144t164 53q98 0 160 -49t62 -126q0 -47 -19 -84t-46 -59t-54 -41.5t-46 -42.5t-20 -51l-1 -64h-60z" />
    <glyph glyph-name=".null" horiz-adv-x="0" 
 />
    <glyph glyph-name=".null" horiz-adv-x="0" 
 />
    <glyph glyph-name="nonmarkingreturn" horiz-adv-x="333" 
 />
    <glyph glyph-name="CR" unicode="&#xd;" horiz-adv-x="254" 
 />
    <glyph glyph-name="space" unicode=" " horiz-adv-x="254" 
 />
    <glyph glyph-name="space" unicode="&#xa0;" horiz-adv-x="254" 
 />
    <glyph glyph-name="exclam" unicode="!" horiz-adv-x="348" 
d="M214 0h-80v125h80v-125zM204 209h-60l-10 503h80z" />
    <glyph glyph-name="quotedbl" unicode="&#x22;" horiz-adv-x="427" 
d="M145 449h-53l-9 281h71zM335 449h-53l-9 281h71z" />
    <glyph glyph-name="numbersign" unicode="#" horiz-adv-x="700" 
d="M176 0h-59l35 176h-117v52h127l44 226h-117v52h127l35 176h58l-34 -176h214l35 176h58l-34 -176h117v-52h-127l-45 -226h118v-52h-128l-34 -176h-59l35 176h-215zM220 228h215l44 226h-214z" />
    <glyph glyph-name="dollar" unicode="$" horiz-adv-x="662" 
d="M355 -100h-58v114q-132 18 -219 124l45 43q87 -114 219 -114q71 0 115 33t44 88q0 39 -22 64.5t-57 39.5t-77 24t-84.5 23t-77.5 31.5t-57 54.5t-22 87q0 73 54 116.5t139 47.5v112h58v-114q55 -9 97 -29.5t89 -65.5l-43 -47q-79 89 -187 89q-67 0 -104.5 -29t-37.5 -78
q0 -38 22 -63t57 -38.5t77.5 -23.5t84.5 -23t77 -32t57 -55.5t22 -88.5q0 -77 -61 -126t-150 -53v-111z" />
    <glyph glyph-name="percent" unicode="%" horiz-adv-x="1096" 
d="M377 558q0 87 -30 133t-88 46t-88 -46t-30 -133t30 -133t88 -46t88 46t30 133zM436 559q0 -106 -47 -167.5t-131 -61.5q-86 0 -131 60.5t-45 166.5t47 167.5t131 61.5q86 0 131 -60.5t45 -166.5zM788 778h65l-545 -874h-65zM955 124q0 87 -30 133t-88 46t-88 -46
t-30 -133t30 -133t88 -46t88 46t30 133zM1014 125q0 -106 -47 -167.5t-131 -61.5q-86 0 -131 60.5t-45 166.5t47 167.5t131 61.5q86 0 131 -60.5t45 -166.5z" />
    <glyph glyph-name="ampersand" unicode="&#x26;" horiz-adv-x="759" 
d="M748 29l-38 -48q-80 56 -155 112q-102 -107 -262 -107q-107 0 -174 53.5t-67 141.5q0 73 39.5 119.5t109.5 82.5q-90 94 -90 173q0 81 52.5 125.5t140.5 44.5q90 0 138.5 -45.5t48.5 -108.5q0 -32 -12.5 -59.5t-27 -45t-46 -38t-50 -29.5t-57.5 -28q93 -83 249 -198
q60 96 60 243h63q0 -165 -77 -277zM295 41q133 0 215 85q-176 130 -270 218q-58 -31 -90 -67t-32 -90q0 -68 48 -107t129 -39zM176 562q0 -35 17 -69.5t65 -82.5q46 21 65.5 31t49 30.5t41.5 43.5t12 52q0 47 -35 76t-90 29q-60 0 -92.5 -30t-32.5 -80z" />
    <glyph glyph-name="quotesingle" unicode="'" horiz-adv-x="237" 
d="M145 449h-53l-9 281h71z" />
    <glyph glyph-name="parenleft" unicode="(" horiz-adv-x="306" 
d="M287 -170h-59q-142 218 -142 492q0 136 38 263.5t104 228.5h60q-139 -224 -139 -491q0 -261 138 -493z" />
    <glyph glyph-name="parenright" unicode=")" horiz-adv-x="306" 
d="M19 814h59q142 -218 142 -492q0 -136 -38 -263.5t-104 -228.5h-60q139 224 139 491q0 261 -138 493z" />
    <glyph glyph-name="asterisk" unicode="*" horiz-adv-x="496" 
d="M278 732l-8 -178l166 63l19 -58l-171 -47l111 -139l-49 -35l-98 148l-98 -148l-49 35l111 139l-171 47l19 58l165 -63l-7 178h60z" />
    <glyph glyph-name="plus" unicode="+" 
d="M354 62h-58v234h-231v52h231v232h58v-232h231v-52h-231v-234z" />
    <glyph glyph-name="comma" unicode="," horiz-adv-x="249" 
d="M80 137h89v-114q0 -113 -15.5 -154t-73.5 -78l-27 37q43 31 54 59t11 113h-38v137z" />
    <glyph glyph-name="hyphen" unicode="-" horiz-adv-x="358" 
d="M319 241h-280v62h280v-62z" />
    <glyph glyph-name="hyphen" unicode="&#x2010;" horiz-adv-x="358" 
d="M319 241h-280v62h280v-62z" />
    <glyph glyph-name="hyphen" unicode="&#xad;" horiz-adv-x="358" 
d="M319 241h-280v62h280v-62z" />
    <glyph glyph-name="period" unicode="." horiz-adv-x="249" 
d="M169 0h-89v137h89v-137z" />
    <glyph glyph-name="slash" unicode="/" horiz-adv-x="384" 
d="M16 -166h-61l386 944h61z" />
    <glyph glyph-name="zero" unicode="0" horiz-adv-x="674" 
d="M525 341q0 300 -188 300t-188 -300q0 -299 188 -299t188 299zM592 342q0 -165 -66 -260.5t-190 -95.5q-126 0 -190 93t-64 261q0 165 66 260.5t190 95.5q126 0 190 -93t64 -261z" />
    <glyph glyph-name="one" unicode="1" horiz-adv-x="434" 
d="M246 0v573q-61 -59 -186 -59v54q165 0 192 118h58v-686h-64z" />
    <glyph glyph-name="two" unicode="2" horiz-adv-x="620" 
d="M548 59v-59h-480v59q99 83 146.5 123t101 89t73 71t39 52t23.5 51t4 50q0 65 -40 105t-115 40q-70 0 -109.5 -40t-39.5 -96q0 -45 13 -82h-66q-14 31 -14 79q0 84 63 139.5t156 55.5q106 0 163 -55t57 -143q0 -26 -2 -46t-12.5 -43.5t-19.5 -40t-35.5 -45t-46 -48
t-67 -59.5t-83 -69.5t-107.5 -87.5v-1q85 1 225 1h173z" />
    <glyph glyph-name="three" unicode="3" horiz-adv-x="638" 
d="M52 184l62 22q14 -79 64.5 -121.5t133.5 -42.5q80 0 124 39.5t44 102.5q0 67 -46 102.5t-125 35.5h-105v53h69q111 0 158 47q31 31 31 90q0 58 -43 93.5t-112 35.5q-133 0 -165 -144l-62 15q45 184 230 184q98 0 158 -50.5t60 -131.5q0 -117 -124 -160v-1q71 -12 107 -56
t36 -108q0 -84 -64.5 -143.5t-172.5 -59.5t-173.5 51.5t-84.5 146.5z" />
    <glyph glyph-name="four" unicode="4" horiz-adv-x="630" 
d="M111 229q180 3 276 3v207q0 104 4 186h-1zM449 0h-62v177h-342v52l319 453h85v-450h126v-55h-126v-177z" />
    <glyph glyph-name="five" unicode="5" horiz-adv-x="610" 
d="M502 682v-56h-320l-18 -234h1q20 29 63 46t90 17q106 0 167.5 -65t61.5 -167q0 -101 -65 -169t-175 -68q-165 0 -249 148l55 36q65 -128 195 -128q79 0 125.5 49t46.5 130q0 80 -45 129.5t-122 49.5q-58 0 -99 -26t-55 -65h-57l29 373h371z" />
    <glyph glyph-name="six" unicode="6" horiz-adv-x="634" 
d="M549 562l-57 -31q-51 109 -161 109q-98 0 -142 -83.5t-42 -258.5q20 60 73 93.5t122 33.5q107 0 164.5 -58t57.5 -152t-62.5 -161.5t-167.5 -67.5q-120 0 -186 88t-66 251q0 178 66 274.5t186 96.5q147 0 215 -134zM340 370q-79 0 -123 -44.5t-44 -116.5t44.5 -119.5
t117.5 -47.5q76 0 119 49t43 123t-41.5 115t-115.5 41z" />
    <glyph glyph-name="seven" unicode="7" horiz-adv-x="580" 
d="M250 0h-67q14 162 77.5 313t190.5 313h-393v56h465v-49q-242 -302 -273 -633z" />
    <glyph glyph-name="eight" unicode="8" horiz-adv-x="654" 
d="M585 188q0 -86 -69 -144t-191 -58q-121 0 -188.5 56.5t-67.5 140.5q0 62 35.5 107t102.5 67v1q-53 18 -83.5 57t-30.5 95q0 79 64 132.5t172 53.5t170 -52.5t62 -131.5q0 -54 -30.5 -93.5t-83.5 -59.5v-1q138 -41 138 -170zM518 185q0 67 -51.5 105t-140.5 38
q-88 0 -139 -38t-51 -105q0 -66 51.5 -104.5t139.5 -38.5t139.5 38.5t51.5 104.5zM495 511q0 60 -45.5 95t-122.5 35t-122.5 -35t-45.5 -95q0 -61 45.5 -95.5t122.5 -34.5t122.5 34.5t45.5 95.5z" />
    <glyph glyph-name="nine" unicode="9" horiz-adv-x="634" 
d="M75 124l58 31q50 -113 170 -113q98 0 142 83.5t42 258.5q-20 -60 -73 -93.5t-122 -33.5q-108 0 -165 58t-57 152t62.5 161.5t167.5 67.5q120 0 186 -88t66 -251q0 -178 -66 -274.5t-186 -96.5q-80 0 -135 32.5t-90 105.5zM294 312q79 0 123 44.5t44 116.5t-44.5 119.5
t-117.5 47.5q-76 0 -119 -49t-43 -123t40.5 -115t116.5 -41z" />
    <glyph glyph-name="colon" unicode=":" horiz-adv-x="288" 
d="M187 0h-86v128h86v-128zM187 348h-86v128h86v-128z" />
    <glyph glyph-name="semicolon" unicode=";" horiz-adv-x="288" 
d="M101 128h86v-105q0 -110 -14.5 -152.5t-74.5 -79.5l-27 37q43 30 54 58.5t11 113.5h-35v128zM187 348h-86v128h86v-128z" />
    <glyph glyph-name="less" unicode="&#x3c;" 
d="M575 156v-66l-500 199v66l500 199v-64q-347 -138 -432 -166v-2q85 -28 432 -166z" />
    <glyph glyph-name="equal" unicode="=" 
d="M575 256v-52h-500v52h500zM575 440v-52h-500v52h500z" />
    <glyph glyph-name="greater" unicode="&#x3e;" 
d="M75 488v66l500 -199v-66l-500 -199v64q347 138 432 166v2q-85 28 -432 166z" />
    <glyph glyph-name="question" unicode="?" horiz-adv-x="608" 
d="M353 0h-80v125h80v-125zM283 209l-1 68q-1 36 17.5 63.5t45 46.5t53.5 39t45.5 51t18.5 71q0 50 -43 86.5t-114 36.5q-69 0 -116 -36.5t-47 -102.5q0 -36 5 -56h-61q-7 21 -7 53q0 91 64 144t164 53q98 0 160 -49t62 -126q0 -47 -19 -84t-46 -59t-54 -41.5t-46 -42.5
t-20 -51l-1 -64h-60z" />
    <glyph glyph-name="at" unicode="@" horiz-adv-x="1032" 
d="M963 332q0 -124 -57 -207.5t-166 -83.5q-106 0 -114 86h-1q-57 -86 -168 -86q-81 0 -125.5 48t-44.5 135q0 67 24 125.5t78 98.5t129 40q96 0 137 -65h1l10 53h61l-42 -225q-15 -95 -1.5 -126.5t60.5 -31.5q80 0 119 68.5t39 168.5q0 146 -94.5 243t-262.5 97
q-124 0 -220.5 -61t-145.5 -156.5t-49 -205.5q0 -171 103 -279t276 -108q123 0 237 41l11 -51q-123 -40 -251 -40q-192 0 -314.5 120t-122.5 311q0 200 137 339.5t344 139.5q184 0 298.5 -110t114.5 -278zM630 304q0 68 -27.5 100.5t-89.5 32.5q-58 0 -96.5 -36.5t-52 -81.5
t-13.5 -93q0 -133 111 -133q46 0 81 20.5t52.5 54t26 67.5t8.5 69z" />
    <glyph glyph-name="A" unicode="A" horiz-adv-x="635" 
d="M286 682h63l267 -682h-72l-74 196h-308l-73 -196h-70zM247 425l-66 -176h269l-68 180q-57 153 -67 189h-1q-13 -49 -67 -193z" />
    <glyph glyph-name="B" unicode="B" horiz-adv-x="704" 
d="M178 319v-263q55 -1 176 -1q50 0 85 4.5t68.5 17t50.5 39.5t17 68q0 38 -14.5 64.5t-34 40t-54 20.5t-60 8.5t-67.5 1.5h-167zM178 626v-253h173q67 0 105.5 8t66.5 36q32 32 32 89q0 47 -31 78q-25 25 -70 34t-132 9q-100 0 -144 -1zM114 0v682q30 0 96 0.5t114 0.5
q101 0 158 -12t95 -50q44 -44 44 -109q0 -117 -116 -161q137 -31 137 -165q0 -57 -22.5 -95.5t-66 -58t-91 -26.5t-112.5 -7q-40 0 -119 0.5t-117 0.5z" />
    <glyph glyph-name="C" unicode="C" horiz-adv-x="687" 
d="M595 184l55 -20q-32 -86 -101 -132t-167 -46q-139 0 -226 96.5t-87 257.5q0 88 27.5 158t72.5 112t99.5 64t112.5 22q87 0 156 -44t103 -121l-55 -29q-27 64 -82 101t-124 37q-103 0 -172.5 -79t-69.5 -220q0 -135 66.5 -216.5t180.5 -81.5q158 0 211 141z" />
    <glyph glyph-name="D" unicode="D" horiz-adv-x="723" 
d="M178 625v-564q60 -3 127 -3q76 0 122 11t84 49q75 75 75 222q0 144 -77 221q-40 40 -87 52.5t-121 12.5q-88 0 -123 -1zM114 1v680q62 1 190 1q91 0 151 -18.5t108 -66.5q91 -91 91 -254q0 -167 -92 -259q-49 -49 -110.5 -66.5t-149.5 -17.5q-41 0 -108 0.5t-80 0.5z" />
    <glyph glyph-name="E" unicode="E" horiz-adv-x="644" 
d="M114 0v682h445v-56h-381v-250h334v-54h-334v-265h398v-57h-462z" />
    <glyph glyph-name="F" unicode="F" horiz-adv-x="597" 
d="M114 0v682h434v-57h-370v-249h323v-54h-323v-322h-64z" />
    <glyph glyph-name="G" unicode="G" horiz-adv-x="753" 
d="M651 0h-61v116h-1q-28 -59 -85 -94.5t-131 -35.5q-133 0 -218.5 96t-85.5 258q0 159 88 257.5t222 98.5q180 0 266 -161l-53 -33q-71 138 -220 138q-107 0 -171 -84t-64 -215q0 -138 66 -218.5t173 -80.5q93 0 151 70.5t58 172.5v23h-207v54h273v-362z" />
    <glyph glyph-name="H" unicode="H" horiz-adv-x="752" 
d="M114 0v682h64v-300h396v300h64v-682h-64v324h-396v-324h-64z" />
    <glyph glyph-name="I" unicode="I" horiz-adv-x="292" 
d="M114 0v682h64v-682h-64z" />
    <glyph glyph-name="J" unicode="J" horiz-adv-x="525" 
d="M353 682h64v-478q0 -103 -53.5 -160.5t-143.5 -57.5q-187 0 -204 213l64 14q7 -90 40 -130t102 -40q131 0 131 163v476z" />
    <glyph glyph-name="K" unicode="K" horiz-adv-x="668" 
d="M558 682h87l-271 -263l291 -419h-80l-257 375l-150 -145v-230h-64v682h64v-373z" />
    <glyph glyph-name="L" unicode="L" horiz-adv-x="546" 
d="M114 0v682h64v-626h358v-56h-422z" />
    <glyph glyph-name="M" unicode="M" horiz-adv-x="939" 
d="M114 0v682h103l152 -351q78 -180 100 -242h1q22 62 100 242l152 351h103v-682h-64v240q0 255 2 387h-2q-33 -77 -96 -225l-173 -402h-49l-174 403q-79 183 -95 224h-2q2 -132 2 -387v-240h-60z" />
    <glyph glyph-name="N" unicode="N" horiz-adv-x="760" 
d="M646 0h-79l-259 399q-122 189 -136 211h-1q3 -135 3 -370v-240h-60v682h85l254 -388q58 -88 135 -212h1q-3 135 -3 370v230h60v-682z" />
    <glyph glyph-name="O" unicode="O" horiz-adv-x="776" 
d="M639 341q0 136 -67 217.5t-184 81.5t-184 -81.5t-67 -217.5t67 -217t184 -81t184 81t67 217zM707 342q0 -160 -89 -258t-231 -98q-143 0 -230.5 96t-87.5 258q0 160 89 258t231 98q143 0 230.5 -96t87.5 -258z" />
    <glyph glyph-name="P" unicode="P" horiz-adv-x="631" 
d="M552 481q0 72 -44 108.5t-145 36.5q-128 0 -185 -1v-288q58 -1 182 -1q102 0 147 37t45 108zM114 0v682q34 0 121 0.5t129 0.5q256 0 256 -200q0 -101 -68 -152t-195 -51q-110 0 -179 1v-281h-64z" />
    <glyph glyph-name="Q" unicode="Q" horiz-adv-x="776" 
d="M707 342q0 -152 -80 -248l78 -78l-41 -41l-79 78q-83 -67 -198 -67q-143 0 -230.5 96t-87.5 258q0 160 89 258t231 98q143 0 230.5 -96t87.5 -258zM439 200l41 41l102 -103q57 79 57 203q0 136 -67 217.5t-184 81.5t-184 -81.5t-67 -217.5t67 -217t184 -81q91 0 155 53z
" />
    <glyph glyph-name="R" unicode="R" horiz-adv-x="689" 
d="M649 0h-84l-231 285h-156v-285h-64v682q14 0 107.5 0.5t140.5 0.5q131 0 192 -53t61 -145q0 -83 -53 -133.5t-149 -62.5zM178 625v-282q54 -2 174 -2q107 0 151 36t44 107q0 64 -40.5 103t-146.5 39q-125 0 -182 -1z" />
    <glyph glyph-name="S" unicode="S" horiz-adv-x="651" 
d="M62 119l45 45q99 -122 236 -122q77 0 124.5 35.5t47.5 95.5q0 42 -23.5 70.5t-61 43.5t-82.5 26.5t-90.5 25t-83 33.5t-61 58t-23.5 92q0 79 62 126.5t158 47.5q138 0 243 -102l-44 -46q-85 92 -200 92q-73 0 -113.5 -31t-40.5 -85q0 -56 44 -87.5t106.5 -46t124.5 -32.5
t106 -63t44 -120q0 -85 -69.5 -137t-168.5 -52q-165 0 -280 133z" />
    <glyph glyph-name="T" unicode="T" horiz-adv-x="532" 
d="M234 0v625h-242v57h548v-57h-242v-625h-64z" />
    <glyph glyph-name="U" unicode="U" horiz-adv-x="728" 
d="M171 682v-427q0 -102 48 -157t146 -55q97 0 145.5 55.5t48.5 156.5v427h61v-429q0 -126 -66.5 -196.5t-190.5 -70.5q-71 0 -122.5 21.5t-79.5 59t-41 82t-13 97.5v436h64z" />
    <glyph glyph-name="V" unicode="V" horiz-adv-x="628" 
d="M344 0h-60l-266 682h73l138 -368q79 -214 87 -237h1q62 173 86 237l138 368h69z" />
    <glyph glyph-name="W" unicode="W" horiz-adv-x="1027" 
d="M324 0h-69l-218 682h72l97 -321q8 -27 41 -132.5t46 -150.5h1q17 56 90 284l103 320h53l107 -321q72 -214 93 -283h1q11 40 41 141t42 141l97 322h69l-218 -682h-69l-157 470q-16 46 -33 114h-1q-9 -34 -35 -114z" />
    <glyph glyph-name="X" unicode="X" horiz-adv-x="585" 
d="M5 0l248 360l-218 322h78l180 -271l183 271h74l-218 -317l248 -365h-78l-210 314l-212 -314h-75z" />
    <glyph glyph-name="Y" unicode="Y" horiz-adv-x="598" 
d="M331 0h-64v294l-267 388h78l223 -329l223 329h74l-267 -388v-294z" />
    <glyph glyph-name="Z" unicode="Z" horiz-adv-x="628" 
d="M581 60v-60h-534v60l445 564q-84 -1 -261 -1h-169v59h504v-59l-445 -564q90 1 253 1h207z" />
    <glyph glyph-name="bracketleft" unicode="[" horiz-adv-x="360" 
d="M328 -118v-52h-214v984h214v-52h-154v-880h154z" />
    <glyph glyph-name="backslash" unicode="\" horiz-adv-x="384" 
d="M429 -166h-60l-387 944h60z" />
    <glyph glyph-name="bracketright" unicode="]" horiz-adv-x="360" 
d="M246 -170h-214v52h154v880h-154v52h214v-984z" />
    <glyph glyph-name="asciicircum" unicode="^" 
d="M561 352h-76q-81 129 -160 281h-1q-74 -142 -161 -281h-74l203 330h66z" />
    <glyph glyph-name="underscore" unicode="_" 
d="M650 -168v-52h-650v52h650z" />
    <glyph glyph-name="grave" unicode="`" horiz-adv-x="318" 
d="M160 691l85 -140h-58l-114 140h87z" />
    <glyph glyph-name="a" unicode="a" horiz-adv-x="512" 
d="M372 197v37q-146 0 -200.5 -25t-54.5 -80q0 -41 27 -65t81 -24q67 0 107 47.5t40 109.5zM106 347l-45 35q73 106 197 106q89 0 131.5 -43.5t42.5 -118.5v-90q0 -119 3 -236h-59l-2 73h-1q-27 -39 -69 -62t-90 -23q-72 0 -116.5 38t-44.5 102q0 77 72.5 116.5t246.5 39.5
v39q0 113 -116 113q-93 0 -150 -89z" />
    <glyph glyph-name="b" unicode="b" horiz-adv-x="575" 
d="M86 236v476h60v-216q0 -62 -3 -93h1q48 85 162 85q103 0 160.5 -69t57.5 -178q0 -118 -60.5 -185.5t-158.5 -67.5q-105 0 -161 83h-1l-4 -71h-60q7 161 7 236zM144 249v-21q0 -83 43.5 -135.5t115.5 -52.5q75 0 116 54t41 145q0 86 -42.5 141.5t-118.5 55.5
q-70 0 -112.5 -50t-42.5 -137z" />
    <glyph glyph-name="c" unicode="c" horiz-adv-x="512" 
d="M416 143l50 -24q-32 -67 -80 -99t-120 -32q-97 0 -156 66t-59 182q0 118 59.5 185t153.5 67q132 0 195 -124l-54 -30q-46 102 -143 102q-66 0 -106.5 -52t-40.5 -146q0 -88 40.5 -143t112.5 -55q102 0 148 103z" />
    <glyph glyph-name="d" unicode="d" horiz-adv-x="575" 
d="M431 227v21q0 83 -43.5 135.5t-115.5 52.5q-75 0 -116 -54t-41 -145q0 -86 42.5 -141.5t118.5 -55.5q70 0 112.5 50t42.5 137zM492 0h-59l-2 73h-1q-47 -85 -161 -85q-103 0 -160.5 69t-57.5 178q0 118 60.5 185.5t158.5 67.5q105 0 160 -82h1q-2 34 -2 90v216h60v-476
q0 -166 3 -236z" />
    <glyph glyph-name="e" unicode="e" horiz-adv-x="522" 
d="M430 126l47 -32q-37 -56 -85.5 -81t-116.5 -25q-106 0 -165 68.5t-59 180.5t58 181.5t160 69.5q55 0 97 -21.5t64.5 -55t33 -67.5t10.5 -66q0 -30 -4 -50h-355q1 -85 46 -136t116 -51q100 0 153 85zM117 278h292q0 65 -38.5 111.5t-104.5 46.5q-63 0 -102.5 -41.5
t-46.5 -116.5z" />
    <glyph glyph-name="f" unicode="f" horiz-adv-x="309" 
d="M115 0v426h-107v50h107v102q0 138 123 138q47 0 83 -15v-54q-40 17 -83 17q-35 0 -49 -20.5t-14 -63.5v-104h132v-50h-132v-426h-60z" />
    <glyph glyph-name="g" unicode="g" horiz-adv-x="577" 
d="M437 476h61q-7 -74 -7 -236v-260q0 -92 -49.5 -145.5t-154.5 -53.5q-144 0 -221 125l56 32q58 -105 167 -105q71 0 107 38.5t36 105.5q0 16 0.5 49t0.5 47h-1q-50 -85 -162 -85q-103 0 -160.5 69t-57.5 178q0 118 60.5 185.5t158.5 67.5q105 0 161 -83h1zM432 227v21
q0 83 -43.5 135.5t-115.5 52.5q-75 0 -116 -54t-41 -145q0 -86 42.5 -141.5t118.5 -55.5q70 0 112.5 50t42.5 137z" />
    <glyph glyph-name="h" unicode="h" horiz-adv-x="554" 
d="M86 0v712h60v-216q0 -59 -2 -93h1q48 85 156 85q83 0 128 -47t45 -142v-299h-60v275q0 70 -17 104q-29 57 -105 57q-59 0 -95 -36q-51 -51 -51 -174v-226h-60z" />
    <glyph glyph-name="i" unicode="i" horiz-adv-x="232" 
d="M146 0h-60v476h60v-476zM85 564v118h62v-118h-62z" />
    <glyph glyph-name="j" unicode="j" horiz-adv-x="243" 
d="M97 476h60v-512q0 -102 -26.5 -142t-93.5 -40q-29 0 -49 5v47h47q36 0 49 30t13 97v515zM158 564h-62v118h62v-118z" />
    <glyph glyph-name="k" unicode="k" horiz-adv-x="511" 
d="M503 0h-77l-174 270l-106 -93v-177h-60v712h60v-464l254 228h87l-190 -167z" />
    <glyph glyph-name="l" unicode="l" horiz-adv-x="232" 
d="M86 0v712h60v-712h-60z" />
    <glyph glyph-name="m" unicode="m" horiz-adv-x="874" 
d="M794 0h-60v275q0 70 -17 104q-29 57 -103 57q-57 0 -93 -36q-51 -51 -51 -174v-226h-60v275q0 70 -17 104q-29 57 -103 57q-57 0 -93 -36q-51 -51 -51 -174v-226h-60v241q0 115 -3 235h59l2 -73h1q48 85 154 85q121 0 157 -99q58 99 167 99q82 0 126.5 -47t44.5 -142
v-299z" />
    <glyph glyph-name="n" unicode="n" horiz-adv-x="554" 
d="M474 0h-60v275q0 70 -17 104q-29 57 -105 57q-59 0 -95 -36q-51 -51 -51 -174v-226h-60v241q0 115 -3 235h59l2 -73h1q48 85 156 85q83 0 128 -47t45 -142v-299z" />
    <glyph glyph-name="o" unicode="o" horiz-adv-x="554" 
d="M439 238q0 85 -43.5 141.5t-118.5 56.5q-76 0 -119 -56t-43 -142q0 -85 43.5 -141.5t118.5 -56.5q76 0 119 56t43 142zM503 239q0 -109 -59.5 -180t-167.5 -71q-109 0 -167 69.5t-58 179.5q0 109 59.5 180t167.5 71q109 0 167 -69.5t58 -179.5z" />
    <glyph glyph-name="p" unicode="p" horiz-adv-x="575" 
d="M144 249v-21q0 -83 43.5 -135.5t115.5 -52.5q75 0 116 54t41 145q0 86 -42.5 141.5t-118.5 55.5q-70 0 -112.5 -50t-42.5 -137zM146 -210h-60v450q0 114 -3 236h59l2 -73h1q47 85 161 85q103 0 160.5 -69t57.5 -178q0 -118 -60.5 -185.5t-158.5 -67.5q-105 0 -160 82h-1
q2 -34 2 -90v-190z" />
    <glyph glyph-name="q" unicode="q" horiz-adv-x="577" 
d="M490 -210h-60v190q0 61 3 93h-1q-50 -85 -162 -85q-103 0 -160.5 69t-57.5 178q0 118 60.5 185.5t158.5 67.5q105 0 161 -83h1l3 71h61q-7 -138 -7 -236v-450zM432 227v21q0 83 -43.5 135.5t-115.5 52.5q-75 0 -116 -54t-41 -145q0 -86 42.5 -141.5t118.5 -55.5
q70 0 112.5 50t42.5 137z" />
    <glyph glyph-name="r" unicode="r" horiz-adv-x="336" 
d="M146 0h-60v241q0 115 -3 235h59l2 -98h1q31 55 74 82t87 27q10 0 13 -1v-68h-14q-61 0 -103 -42q-36 -36 -46 -83.5t-10 -118.5v-174z" />
    <glyph glyph-name="s" unicode="s" horiz-adv-x="482" 
d="M49 75l39 44q71 -79 164 -79q52 0 82 22t30 61q0 37 -30.5 57.5t-74 30t-87 22t-74 44.5t-30.5 85q0 58 46 92t115 34q104 0 180 -70l-40 -42q-60 60 -141 60q-47 0 -73 -20t-26 -53q0 -36 30.5 -56.5t74 -30t87 -22t74 -44.5t30.5 -86q0 -63 -50.5 -99.5t-123.5 -36.5
q-118 0 -202 87z" />
    <glyph glyph-name="t" unicode="t" horiz-adv-x="343" 
d="M112 426h-104v50h104v170l60 18v-188h147v-50h-147v-241q0 -70 3.5 -93t16.5 -36q15 -15 46 -15q50 0 81 18v-54q-34 -16 -88 -16q-62 0 -90.5 33.5t-28.5 111.5v292z" />
    <glyph glyph-name="u" unicode="u" horiz-adv-x="548" 
d="M465 0h-59l-2 73h-1q-48 -85 -153 -85q-81 0 -125.5 47t-44.5 142v299h60v-275q0 -70 17 -104q29 -57 100 -57q58 0 94 36q51 51 51 174v226h60v-241q0 -124 3 -235z" />
    <glyph glyph-name="v" unicode="v" horiz-adv-x="481" 
d="M267 0h-53l-199 476h70l83 -203q33 -80 75 -202h1q30 97 74 202l83 203h65z" />
    <glyph glyph-name="w" unicode="w" horiz-adv-x="816" 
d="M604 0h-49l-92 233q-42 109 -59 157h-2q-14 -44 -55 -157l-87 -233h-49l-187 476h71l89 -243q31 -85 53 -150h1q26 79 53 151l89 242h50l90 -232q56 -144 62 -161h1q26 77 56 159l83 234h69z" />
    <glyph glyph-name="x" unicode="x" horiz-adv-x="456" 
d="M83 0h-71l180 251l-160 225h76l122 -181l123 181h70l-160 -224l181 -252h-76l-142 209z" />
    <glyph glyph-name="y" unicode="y" horiz-adv-x="481" 
d="M179 -210h-65l100 210l-199 476h70l83 -203q33 -80 75 -202h1q31 98 74 202l83 203h65z" />
    <glyph glyph-name="z" unicode="z" horiz-adv-x="484" 
d="M437 53v-53h-390v53l308 372q-51 -1 -152 -1h-145v52h364v-52l-308 -372q58 1 178 1h145z" />
    <glyph glyph-name="braceleft" unicode="{" horiz-adv-x="390" 
d="M39 296v52h30q45 0 60 25t15 104v162q0 97 38.5 136t111.5 39h64v-52h-65q-52 0 -70.5 -26t-18.5 -98v-158q0 -80 -13 -111t-46 -46v-1q33 -14 46 -45.5t13 -108.5v-160q0 -72 19.5 -99t71.5 -27h63v-52h-66q-73 0 -110.5 38t-37.5 136v161q0 79 -15.5 105t-59.5 26h-30z
" />
    <glyph glyph-name="bar" unicode="|" horiz-adv-x="311" 
d="M185 -170h-59v984h59v-984z" />
    <glyph glyph-name="braceright" unicode="}" horiz-adv-x="390" 
d="M96 -170h-64v52h65q52 0 70.5 26t18.5 98v158q0 80 13 111t46 46v1q-33 14 -46 45.5t-13 108.5v160q0 72 -19.5 99t-71.5 27h-63v52h66q73 0 110.5 -38t37.5 -135v-162q0 -79 15.5 -105t59.5 -26h30v-52h-30q-45 0 -60 -25t-15 -104v-162q0 -97 -38.5 -136t-111.5 -39z
" />
    <glyph glyph-name="asciitilde" unicode="~" 
d="M127 238h-57q0 184 129 184q35 0 65.5 -15t52.5 -37t43 -44t44.5 -37t47.5 -15q37 0 54 29t17 103h57q0 -184 -129 -184q-35 0 -65.5 15t-52.5 37t-43 44t-44.5 37t-47.5 15q-37 0 -54 -29t-17 -103z" />
    <glyph glyph-name="exclamdown" unicode="&#xa1;" horiz-adv-x="348" 
d="M134 616h80v-125h-80v125zM145 407h58l11 -503h-80z" />
    <glyph glyph-name="cent" unicode="&#xa2;" horiz-adv-x="566" 
d="M264 692h57v-113q106 -15 162 -117l-55 -31q-51 98 -142 98q-67 0 -107 -49t-40 -139q0 -83 40.5 -135.5t112.5 -52.5q55 0 89 24t58 77l51 -26q-47 -108 -169 -125v-113h-57v112q-86 9 -137.5 71t-51.5 166q0 106 52 169.5t137 71.5v112z" />
    <glyph glyph-name="sterling" unicode="&#xa3;" 
d="M573 59v-59h-490v47q68 52 92 87.5t24 79.5q0 37 -13 83h-112v51h97q-32 98 -32 155q0 84 58.5 138.5t144.5 54.5q150 0 211 -146l-56 -30q-45 120 -157 120q-62 0 -99 -36.5t-37 -97.5q0 -15 1.5 -30t6.5 -34.5t7.5 -28.5t10.5 -35t9 -30h186v-51h-172q11 -48 11 -79
q0 -94 -88 -160v-1q146 2 232 2h165z" />
    <glyph glyph-name="currency" unicode="&#xa4;" horiz-adv-x="652" 
d="M520 325q0 -73 -35 -124l104 -99l-42 -41l-98 102q-52 -41 -125 -41q-74 0 -124 39l-95 -100l-42 41l103 96q-34 48 -34 121t35 124l-104 100l42 41l98 -103q54 41 125 41q74 0 123 -39l96 101l41 -41l-103 -97q35 -49 35 -121zM459 322q0 65 -34 108t-99 43t-99 -43
t-34 -108t34 -108t99 -43t99 43t34 108z" />
    <glyph glyph-name="yen" unicode="&#xa5;" 
d="M356 0h-62v92h-169v51h169v93h-169v51h169v42l-267 353h82l118 -162q17 -23 102 -136q38 50 100 136l116 162h78l-267 -353v-42h169v-51h-169v-93h169v-51h-169v-92z" />
    <glyph glyph-name="brokenbar" unicode="&#xa6;" horiz-adv-x="311" 
d="M185 428h-59v386h59v-386zM185 -170h-59v386h59v-386z" />
    <glyph glyph-name="section" unicode="&#xa7;" horiz-adv-x="606" 
d="M72 301q0 45 26.5 84.5t69.5 65.5q-56 42 -56 114q0 68 51.5 109.5t134.5 41.5q115 0 196 -74l-42 -48q-65 66 -156 66q-56 0 -87.5 -23.5t-31.5 -66.5q0 -38 28 -64.5t69.5 -39t90 -29t90 -33.5t69.5 -54t28 -89q0 -45 -26.5 -84.5t-69.5 -65.5q56 -42 56 -114
q0 -67 -53 -109t-138 -42q-130 0 -218 90l43 51q71 -84 177 -84q60 0 92 23.5t32 65.5q0 38 -28 64.5t-69.5 39t-90 29t-90 33.5t-69.5 54t-28 89zM489 254q0 33 -16 57t-47.5 40t-61.5 26t-75.5 23t-72.5 23q-81 -45 -81 -115q0 -33 16 -57t47.5 -40t61.5 -26t75.5 -23
t72.5 -23q81 45 81 115z" />
    <glyph glyph-name="dieresis" unicode="&#xa8;" horiz-adv-x="408" 
d="M145 569h-62v108h62v-108zM325 569h-62v108h62v-108z" />
    <glyph glyph-name="copyright" unicode="&#xa9;" horiz-adv-x="868" 
d="M801 344q0 -163 -103 -270t-266 -107t-264 104.5t-101 266.5q0 163 103 270t266 107t264 -104.5t101 -266.5zM741 341q0 139 -82.5 231t-223.5 92q-142 0 -225 -91t-83 -232q0 -139 82.5 -231t223.5 -92q142 0 225 91t83 232zM568 265l47 -24q-26 -55 -73 -84.5
t-105 -29.5q-87 0 -141 57t-54 156q0 101 54 158.5t140 57.5q121 0 174 -102l-45 -30q-41 81 -131 81q-59 0 -95 -42.5t-36 -120.5q0 -71 35.5 -117.5t99.5 -46.5q90 0 130 87z" />
    <glyph glyph-name="ordfeminine" unicode="&#xaa;" horiz-adv-x="495" 
d="M405 638v-187q0 -15 0.5 -33t1.5 -40.5t1 -35.5h-55l-1 66q-53 -77 -146 -77q-66 0 -106.5 34t-40.5 92q0 70 66.5 106.5t225.5 36.5v35q-2 103 -106 103q-82 0 -136 -82l-43 33q70 97 180 97q82 0 120.5 -40t38.5 -108zM351 520v34q-133 0 -183.5 -23t-50.5 -73
q0 -37 25 -58.5t74 -21.5q62 0 98.5 43t36.5 99zM396 185h-317v49h317v-49z" />
    <glyph glyph-name="guillemotleft" unicode="&#xab;" horiz-adv-x="640" 
d="M308 72l-46 -28l-182 227l182 227l46 -26l-144 -199zM550 88l-46 -27l-174 210l174 211l46 -26l-136 -183z" />
    <glyph glyph-name="logicalnot" unicode="&#xac;" 
d="M563 92h-58v204h-440v52h498v-256z" />
    <glyph glyph-name="registered" unicode="&#xae;" horiz-adv-x="706" 
d="M628 528q0 -116 -78 -196t-198 -80t-197 79t-77 195t78 196t198 80t197 -79t77 -195zM575 527q0 96 -62 162.5t-160 66.5t-160 -66.5t-62 -162.5t62 -162.5t160 -66.5t160 66.5t62 162.5zM488 389h-60l-75 110h-60v-110h-48v285h122q110 0 110 -82q0 -68 -73 -87z
M293 632v-90q22 -1 66 -1q37 0 52 12t15 36t-14.5 33.5t-50.5 9.5h-68z" />
    <glyph glyph-name="macron" unicode="&#xaf;" horiz-adv-x="426" 
d="M343 643v-52h-260v52h260z" />
    <glyph glyph-name="macron" unicode="&#x2c9;" horiz-adv-x="426" 
d="M343 643v-52h-260v52h260z" />
    <glyph glyph-name="degree" unicode="&#xb0;" horiz-adv-x="408" 
d="M292 599q0 39 -23.5 65t-64.5 26q-42 0 -65 -25.5t-23 -65.5q0 -39 23.5 -65t64.5 -26q42 0 65 25.5t23 65.5zM349 600q0 -61 -41 -101.5t-105 -40.5q-63 0 -103.5 40t-40.5 100q0 61 41 101.5t105 40.5q63 0 103.5 -40t40.5 -100z" />
    <glyph glyph-name="plusminus" unicode="&#xb1;" 
d="M354 184h-58v224h-221v52h221v222h58v-222h221v-52h-221v-224zM575 52v-52h-500v52h500z" />
    <glyph glyph-name="twosuperior" unicode="&#xb2;" horiz-adv-x="497" 
d="M421 389v-51h-334v55q156 100 207 150t51 105q0 42 -25.5 66t-72.5 24q-97 0 -97 -82q0 -28 9 -53h-59q-10 19 -10 52q0 63 43.5 97t116.5 34q76 0 116 -39t40 -97q0 -67 -53.5 -123t-187.5 -138v-1q45 1 124 1h132z" />
    <glyph glyph-name="threesuperior" unicode="&#xb3;" horiz-adv-x="494" 
d="M72 456l57 14q18 -91 126 -91q50 0 78 22t28 61q0 77 -106 77h-68v47h49q66 0 90 24q19 19 19 56q0 32 -25.5 52t-70.5 20q-89 0 -105 -81l-57 13q26 116 165 116q71 0 112 -32t41 -86q0 -76 -69 -100v-1q86 -21 86 -107q0 -54 -46 -92t-122 -38q-155 0 -182 126z" />
    <glyph glyph-name="acute" unicode="&#xb4;" horiz-adv-x="325" 
d="M77 551l85 140h86l-113 -140h-58z" />
    <glyph glyph-name="mu" unicode="&#xb5;" horiz-adv-x="554" 
d="M471 0h-60l-1 73h-1q-48 -85 -153 -85q-81 0 -113 49h-1q1 -37 1 -57l3 -190h-60v686h60v-275q0 -70 17 -104q29 -57 100 -57q58 0 94 36q51 51 51 174v226h60v-241q0 -124 3 -235z" />
    <glyph glyph-name="mu" unicode="&#x3bc;" horiz-adv-x="554" 
d="M471 0h-60l-1 73h-1q-48 -85 -153 -85q-81 0 -113 49h-1q1 -37 1 -57l3 -190h-60v686h60v-275q0 -70 17 -104q29 -57 100 -57q58 0 94 36q51 51 51 174v226h60v-241q0 -124 3 -235z" />
    <glyph glyph-name="paragraph" unicode="&#xb6;" horiz-adv-x="690" 
d="M576 -210h-58v840h-113v-840h-58v453h-37q-118 0 -186.5 58.5t-68.5 163.5q0 106 72 162t191 56q3 0 21.5 -0.5t45 -0.5h49.5h142v-892z" />
    <glyph glyph-name="periodcentered" unicode="&#xb7;" horiz-adv-x="248" 
d="M166 267h-84v110h84v-110z" />
    <glyph glyph-name="periodcentered" unicode="&#x22c5;" horiz-adv-x="248" 
d="M166 267h-84v110h84v-110z" />
    <glyph glyph-name="periodcentered" unicode="&#x2219;" horiz-adv-x="248" 
d="M166 267h-84v110h84v-110z" />
    <glyph glyph-name="cedilla" unicode="&#xb8;" horiz-adv-x="282" 
d="M148 -210h-66q19 15 37.5 38t18.5 41q0 16 -12 27.5t-40 25.5l45 78h57l-32 -55q43 -29 43 -72q0 -20 -14.5 -43.5t-36.5 -39.5z" />
    <glyph glyph-name="onesuperior" unicode="&#xb9;" horiz-adv-x="350" 
d="M250 338h-57v347q-42 -35 -133 -35v51q127 0 141 79h49v-442z" />
    <glyph glyph-name="ordmasculine" unicode="&#xba;" horiz-adv-x="530" 
d="M412 558q0 78 -39.5 129t-107.5 51q-70 0 -108.5 -51t-38.5 -129t39.5 -129t107.5 -51q70 0 108.5 51t38.5 129zM471 559q0 -100 -54.5 -164.5t-152.5 -64.5q-99 0 -152 63.5t-53 163.5t54.5 164.5t152.5 64.5q100 0 152.5 -63.5t52.5 -163.5zM451 185h-372v49h372v-49z
" />
    <glyph glyph-name="guillemotright" unicode="&#xbb;" horiz-adv-x="640" 
d="M332 471l46 28l182 -227l-182 -227l-46 26l144 199zM90 455l46 27l174 -210l-174 -211l-46 26l136 183z" />
    <glyph glyph-name="onequarter" unicode="&#xbc;" horiz-adv-x="929" 
d="M250 338h-57v347q-42 -35 -133 -35v51q127 0 141 79h49v-442zM672 778h65l-545 -874h-65zM793 -96h-57v98h-229v53l201 289h85v-292h81v-50h-81v-98zM565 49q91 3 171 3v123q0 91 2 121h-1z" />
    <glyph glyph-name="onehalf" unicode="&#xbd;" horiz-adv-x="975" 
d="M250 338h-57v347q-42 -35 -133 -35v51q127 0 141 79h49v-442zM672 778h65l-545 -874h-65zM899 -45v-51h-334v55q156 100 207 150t51 105q0 42 -25.5 66t-72.5 24q-97 0 -97 -82q0 -28 9 -53h-59q-10 19 -10 52q0 63 43.5 97t116.5 34q76 0 116 -39t40 -97
q0 -67 -53.5 -123t-187.5 -138v-1q45 1 124 1h132z" />
    <glyph glyph-name="threequarters" unicode="&#xbe;" horiz-adv-x="1053" 
d="M72 456l57 14q18 -91 126 -91q50 0 78 22t28 61q0 77 -106 77h-68v47h49q66 0 90 24q19 19 19 56q0 32 -25.5 52t-70.5 20q-89 0 -105 -81l-57 13q26 116 165 116q71 0 112 -32t41 -86q0 -76 -69 -100v-1q86 -21 86 -107q0 -54 -46 -92t-122 -38q-155 0 -182 126z
M796 778h65l-545 -874h-65zM917 -96h-57v98h-229v53l201 289h85v-292h81v-50h-81v-98zM689 49q91 3 171 3v123q0 91 2 121h-1z" />
    <glyph glyph-name="questiondown" unicode="&#xbf;" horiz-adv-x="608" 
d="M255 616h80v-125h-80v125zM325 407l1 -68q1 -36 -17.5 -63.5t-45 -46.5t-53.5 -39t-45.5 -51t-18.5 -71q0 -50 43 -86.5t114 -36.5q69 0 116 36.5t47 102.5q0 36 -5 56h61q7 -21 7 -53q0 -91 -64 -144t-164 -53q-98 0 -160 49t-62 126q0 47 19 84t46 59t54 41.5t46 42.5
t20 51l1 64h60z" />
    <glyph glyph-name="Agrave" unicode="&#xc0;" horiz-adv-x="635" 
d="M286 682h63l267 -682h-72l-74 196h-308l-73 -196h-70zM247 425l-66 -176h269l-68 180q-57 153 -67 189h-1q-13 -49 -67 -193zM266 881l94 -130h-64l-125 130h95z" />
    <glyph glyph-name="Aacute" unicode="&#xc1;" horiz-adv-x="635" 
d="M286 682h63l267 -682h-72l-74 196h-308l-73 -196h-70zM247 425l-66 -176h269l-68 180q-57 153 -67 189h-1q-13 -49 -67 -193zM274 751l94 130h95l-126 -130h-63z" />
    <glyph glyph-name="Acircumflex" unicode="&#xc2;" horiz-adv-x="635" 
d="M286 682h63l267 -682h-72l-74 196h-308l-73 -196h-70zM247 425l-66 -176h269l-68 180q-57 153 -67 189h-1q-13 -49 -67 -193zM169 751l119 130h58l119 -130h-66l-82 76l-82 -76h-66z" />
    <glyph glyph-name="Atilde" unicode="&#xc3;" horiz-adv-x="635" 
d="M286 682h63l267 -682h-72l-74 196h-308l-73 -196h-70zM247 425l-66 -176h269l-68 180q-57 153 -67 189h-1q-13 -49 -67 -193zM247 822q-20 0 -30.5 -19t-10.5 -46h-52q0 51 23.5 85t71.5 34q30 0 56.5 -17t47 -34.5t34.5 -17.5q20 0 30.5 19t10.5 46h52q0 -51 -23.5 -85
t-71.5 -34q-30 0 -56.5 17.5t-47 34.5t-34.5 17z" />
    <glyph glyph-name="Adieresis" unicode="&#xc4;" horiz-adv-x="635" 
d="M286 682h63l267 -682h-72l-74 196h-308l-73 -196h-70zM247 425l-66 -176h269l-68 180q-57 153 -67 189h-1q-13 -49 -67 -193zM240 764h-66v108h66v-108zM460 764h-66v108h66v-108z" />
    <glyph glyph-name="Aring" unicode="&#xc5;" horiz-adv-x="635" 
d="M286 682h63l267 -682h-72l-74 196h-308l-73 -196h-70zM247 425l-66 -176h269l-68 180q-57 153 -67 189h-1q-13 -49 -67 -193zM414 835q0 -38 -26.5 -65t-71.5 -27q-46 0 -71 25.5t-25 65.5q0 38 26.5 65t71.5 27q46 0 71 -25.5t25 -65.5zM364 834q0 21 -12.5 35t-34.5 14
t-34.5 -14t-12.5 -35t12.5 -34.5t34.5 -13.5t34.5 13.5t12.5 34.5z" />
    <glyph glyph-name="AE" unicode="&#xc6;" horiz-adv-x="966" 
d="M337 682h544v-56h-359v-250h312v-54h-312v-265h376v-57h-440v195h-304l-99 -195h-72zM373 626l-192 -377h277v377h-85z" />
    <glyph glyph-name="Ccedilla" unicode="&#xc7;" horiz-adv-x="687" 
d="M368 -210h-69q1 1 8 7.5t9 8.5l8.5 8.5t8.5 9.5t7 8.5t7 9.5l4.5 9t3.5 9.5t1 8.5q0 30 -53 52l38 68q-123 14 -197.5 108t-74.5 243q0 88 27.5 158t72.5 112t99.5 64t112.5 22q87 0 156 -44t103 -121l-55 -29q-26 64 -81.5 101t-124.5 37q-103 0 -172.5 -79t-69.5 -220
q0 -135 66.5 -216.5t180.5 -81.5q77 0 131.5 36.5t79.5 104.5l55 -20q-29 -81 -95 -128t-155 -49l-24 -42q44 -31 44 -72q0 -20 -16.5 -44.5t-35.5 -38.5z" />
    <glyph glyph-name="Egrave" unicode="&#xc8;" horiz-adv-x="644" 
d="M114 0v682h445v-56h-381v-250h334v-54h-334v-265h398v-57h-462zM284 881l94 -130h-64l-125 130h95z" />
    <glyph glyph-name="Eacute" unicode="&#xc9;" horiz-adv-x="644" 
d="M114 0v682h445v-56h-381v-250h334v-54h-334v-265h398v-57h-462zM286 751l94 130h95l-126 -130h-63z" />
    <glyph glyph-name="Ecircumflex" unicode="&#xca;" horiz-adv-x="644" 
d="M114 0v682h445v-56h-381v-250h334v-54h-334v-265h398v-57h-462zM187 751l119 130h58l119 -130h-66l-82 76l-82 -76h-66z" />
    <glyph glyph-name="Edieresis" unicode="&#xcb;" horiz-adv-x="644" 
d="M114 0v682h445v-56h-381v-250h334v-54h-334v-265h398v-57h-462zM259 764h-66v108h66v-108zM479 764h-66v108h66v-108z" />
    <glyph glyph-name="Igrave" unicode="&#xcc;" horiz-adv-x="292" 
d="M114 0v682h64v-682h-64zM95 881l94 -130h-64l-125 130h95z" />
    <glyph glyph-name="Iacute" unicode="&#xcd;" horiz-adv-x="292" 
d="M114 0v682h64v-682h-64zM103 751l94 130h95l-126 -130h-63z" />
    <glyph glyph-name="Icircumflex" unicode="&#xce;" horiz-adv-x="292" 
d="M114 0v682h64v-682h-64zM-2 751l119 130h58l119 -130h-66l-82 76l-82 -76h-66z" />
    <glyph glyph-name="Idieresis" unicode="&#xcf;" horiz-adv-x="292" 
d="M114 0v682h64v-682h-64zM69 764h-66v108h66v-108zM289 764h-66v108h66v-108z" />
    <glyph glyph-name="Eth" unicode="&#xd0;" horiz-adv-x="738" 
d="M193 323v-262q60 -3 127 -3q76 0 122 11t84 49q75 75 75 222q0 144 -77 221q-40 40 -87 52.5t-121 12.5q-88 0 -123 -1v-249h208v-53h-208zM129 1v322h-117v53h117v305q62 1 190 1q91 0 151 -18.5t108 -66.5q91 -91 91 -254q0 -167 -92 -259q-49 -49 -110.5 -66.5
t-149.5 -17.5q-41 0 -109 0.5t-79 0.5z" />
    <glyph glyph-name="Ntilde" unicode="&#xd1;" horiz-adv-x="760" 
d="M646 0h-79l-259 399q-122 189 -136 211h-1q3 -135 3 -370v-240h-60v682h85l254 -388q58 -88 135 -212h1q-3 135 -3 370v230h60v-682zM310 822q-20 0 -30.5 -19t-10.5 -46h-52q0 51 23.5 85t71.5 34q30 0 56.5 -17t47 -34.5t34.5 -17.5q20 0 30.5 19t10.5 46h52
q0 -51 -23.5 -85t-71.5 -34q-30 0 -56.5 17.5t-47 34.5t-34.5 17z" />
    <glyph glyph-name="Ograve" unicode="&#xd2;" horiz-adv-x="776" 
d="M639 341q0 136 -67 217.5t-184 81.5t-184 -81.5t-67 -217.5t67 -217t184 -81t184 81t67 217zM707 342q0 -160 -89 -258t-231 -98q-143 0 -230.5 96t-87.5 258q0 160 89 258t231 98q143 0 230.5 -96t87.5 -258zM337 881l94 -130h-64l-125 130h95z" />
    <glyph glyph-name="Oacute" unicode="&#xd3;" horiz-adv-x="776" 
d="M639 341q0 136 -67 217.5t-184 81.5t-184 -81.5t-67 -217.5t67 -217t184 -81t184 81t67 217zM707 342q0 -160 -89 -258t-231 -98q-143 0 -230.5 96t-87.5 258q0 160 89 258t231 98q143 0 230.5 -96t87.5 -258zM345 751l94 130h95l-126 -130h-63z" />
    <glyph glyph-name="Ocircumflex" unicode="&#xd4;" horiz-adv-x="776" 
d="M639 341q0 136 -67 217.5t-184 81.5t-184 -81.5t-67 -217.5t67 -217t184 -81t184 81t67 217zM707 342q0 -160 -89 -258t-231 -98q-143 0 -230.5 96t-87.5 258q0 160 89 258t231 98q143 0 230.5 -96t87.5 -258zM240 751l119 130h58l119 -130h-66l-82 76l-82 -76h-66z" />
    <glyph glyph-name="Otilde" unicode="&#xd5;" horiz-adv-x="776" 
d="M639 341q0 136 -67 217.5t-184 81.5t-184 -81.5t-67 -217.5t67 -217t184 -81t184 81t67 217zM707 342q0 -160 -89 -258t-231 -98q-143 0 -230.5 96t-87.5 258q0 160 89 258t231 98q143 0 230.5 -96t87.5 -258zM318 822q-20 0 -30.5 -19t-10.5 -46h-52q0 51 23.5 85
t71.5 34q30 0 56.5 -17t47 -34.5t34.5 -17.5q20 0 30.5 19t10.5 46h52q0 -51 -23.5 -85t-71.5 -34q-30 0 -56.5 17.5t-47 34.5t-34.5 17z" />
    <glyph glyph-name="Odieresis" unicode="&#xd6;" horiz-adv-x="776" 
d="M639 341q0 136 -67 217.5t-184 81.5t-184 -81.5t-67 -217.5t67 -217t184 -81t184 81t67 217zM707 342q0 -160 -89 -258t-231 -98q-143 0 -230.5 96t-87.5 258q0 160 89 258t231 98q143 0 230.5 -96t87.5 -258zM311 764h-66v108h66v-108zM531 764h-66v108h66v-108z" />
    <glyph glyph-name="multiply" unicode="&#xd7;" 
d="M554 133l-40 -40l-189 191l-190 -191l-39 40l191 189l-191 190l39 39l190 -191l189 191l40 -39l-191 -190z" />
    <glyph glyph-name="Oslash" unicode="&#xd8;" horiz-adv-x="776" 
d="M106 -13l-41 37l73 80q-69 94 -69 236q0 160 89 258t231 98q126 0 212 -78l69 77l40 -37l-73 -81q70 -92 70 -235q0 -160 -89 -258t-231 -98q-129 0 -212 77zM593 528l-376 -418q65 -67 171 -67q117 0 184 81t67 217q0 110 -46 187zM183 154l376 418q-66 68 -171 68
q-117 0 -184 -81.5t-67 -217.5q0 -112 46 -187z" />
    <glyph glyph-name="Ugrave" unicode="&#xd9;" horiz-adv-x="728" 
d="M171 682v-427q0 -102 48 -157t146 -55q97 0 145.5 55.5t48.5 156.5v427h61v-429q0 -126 -66.5 -196.5t-190.5 -70.5q-71 0 -122.5 21.5t-79.5 59t-41 82t-13 97.5v436h64zM313 881l94 -130h-64l-125 130h95z" />
    <glyph glyph-name="Uacute" unicode="&#xda;" horiz-adv-x="728" 
d="M171 682v-427q0 -102 48 -157t146 -55q97 0 145.5 55.5t48.5 156.5v427h61v-429q0 -126 -66.5 -196.5t-190.5 -70.5q-71 0 -122.5 21.5t-79.5 59t-41 82t-13 97.5v436h64zM321 751l94 130h95l-126 -130h-63z" />
    <glyph glyph-name="Ucircumflex" unicode="&#xdb;" horiz-adv-x="728" 
d="M171 682v-427q0 -102 48 -157t146 -55q97 0 145.5 55.5t48.5 156.5v427h61v-429q0 -126 -66.5 -196.5t-190.5 -70.5q-71 0 -122.5 21.5t-79.5 59t-41 82t-13 97.5v436h64zM216 751l119 130h58l119 -130h-66l-82 76l-82 -76h-66z" />
    <glyph glyph-name="Udieresis" unicode="&#xdc;" horiz-adv-x="728" 
d="M171 682v-427q0 -102 48 -157t146 -55q97 0 145.5 55.5t48.5 156.5v427h61v-429q0 -126 -66.5 -196.5t-190.5 -70.5q-71 0 -122.5 21.5t-79.5 59t-41 82t-13 97.5v436h64zM287 764h-66v108h66v-108zM507 764h-66v108h66v-108z" />
    <glyph glyph-name="Yacute" unicode="&#xdd;" horiz-adv-x="598" 
d="M331 0h-64v294l-267 388h78l223 -329l223 329h74l-267 -388v-294zM256 751l94 130h95l-126 -130h-63z" />
    <glyph glyph-name="Thorn" unicode="&#xde;" horiz-adv-x="631" 
d="M178 0h-64v682h64v-120h68q69 1 118 1q256 0 256 -200q0 -101 -68 -152t-195 -51q-110 0 -179 1v-161zM178 505v-288q58 -1 182 -1q102 0 147 37t45 108q0 72 -44 108.5t-145 36.5q-127 0 -185 -1z" />
    <glyph glyph-name="germandbls" unicode="&#xdf;" horiz-adv-x="557" 
d="M86 0v514q0 101 52 151.5t145 50.5q100 0 144 -43.5t44 -102.5q0 -36 -15.5 -62t-37.5 -41t-44 -27.5t-37.5 -30.5t-15.5 -43q0 -24 20 -43.5t48.5 -35t57.5 -34t49 -51t20 -75.5q0 -65 -43 -102t-108 -37t-121 36l27 49q45 -33 96 -33q87 0 87 86q0 30 -20 53t-49 39.5
t-57.5 34.5t-48.5 46t-20 66q0 29 11 51t28 34.5t36.5 25.5t36.5 23.5t28 28.5t11 41q0 39 -31 67t-97 28q-136 0 -136 -152v-512h-60z" />
    <glyph glyph-name="agrave" unicode="&#xe0;" horiz-adv-x="512" 
d="M372 197v37q-146 0 -200.5 -25t-54.5 -80q0 -41 27 -65t81 -24q67 0 107 47.5t40 109.5zM106 347l-45 35q73 106 197 106q89 0 131.5 -43.5t42.5 -118.5v-90q0 -119 3 -236h-59l-2 73h-1q-27 -39 -69 -62t-90 -23q-72 0 -116.5 38t-44.5 102q0 77 72.5 116.5t246.5 39.5
v39q0 113 -116 113q-93 0 -150 -89zM213 691l85 -140h-58l-114 140h87z" />
    <glyph glyph-name="aacute" unicode="&#xe1;" horiz-adv-x="512" 
d="M372 197v37q-146 0 -200.5 -25t-54.5 -80q0 -41 27 -65t81 -24q67 0 107 47.5t40 109.5zM106 347l-45 35q73 106 197 106q89 0 131.5 -43.5t42.5 -118.5v-90q0 -119 3 -236h-59l-2 73h-1q-27 -39 -69 -62t-90 -23q-72 0 -116.5 38t-44.5 102q0 77 72.5 116.5t246.5 39.5
v39q0 113 -116 113q-93 0 -150 -89zM222 551l85 140h86l-113 -140h-58z" />
    <glyph glyph-name="acircumflex" unicode="&#xe2;" horiz-adv-x="512" 
d="M372 197v37q-146 0 -200.5 -25t-54.5 -80q0 -41 27 -65t81 -24q67 0 107 47.5t40 109.5zM106 347l-45 35q73 106 197 106q89 0 131.5 -43.5t42.5 -118.5v-90q0 -119 3 -236h-59l-2 73h-1q-27 -39 -69 -62t-90 -23q-72 0 -116.5 38t-44.5 102q0 77 72.5 116.5t246.5 39.5
v39q0 113 -116 113q-93 0 -150 -89zM124 551l99 140h75l98 -140h-61l-76 93l-76 -93h-59z" />
    <glyph glyph-name="atilde" unicode="&#xe3;" horiz-adv-x="512" 
d="M372 197v37q-146 0 -200.5 -25t-54.5 -80q0 -41 27 -65t81 -24q67 0 107 47.5t40 109.5zM106 347l-45 35q73 106 197 106q89 0 131.5 -43.5t42.5 -118.5v-90q0 -119 3 -236h-59l-2 73h-1q-27 -39 -69 -62t-90 -23q-72 0 -116.5 38t-44.5 102q0 77 72.5 116.5t246.5 39.5
v39q0 113 -116 113q-93 0 -150 -89zM199 628q-39 0 -39 -64h-50q0 50 23 82.5t68 32.5q27 0 50 -17t40.5 -34t29.5 -17q39 0 39 64h50q0 -50 -23 -82.5t-68 -32.5q-27 0 -50 17t-40.5 34t-29.5 17z" />
    <glyph glyph-name="adieresis" unicode="&#xe4;" horiz-adv-x="512" 
d="M372 197v37q-146 0 -200.5 -25t-54.5 -80q0 -41 27 -65t81 -24q67 0 107 47.5t40 109.5zM106 347l-45 35q73 106 197 106q89 0 131.5 -43.5t42.5 -118.5v-90q0 -119 3 -236h-59l-2 73h-1q-27 -39 -69 -62t-90 -23q-72 0 -116.5 38t-44.5 102q0 77 72.5 116.5t246.5 39.5
v39q0 113 -116 113q-93 0 -150 -89zM201 569h-62v108h62v-108zM381 569h-62v108h62v-108z" />
    <glyph glyph-name="aring" unicode="&#xe5;" horiz-adv-x="512" 
d="M372 197v37q-146 0 -200.5 -25t-54.5 -80q0 -41 27 -65t81 -24q67 0 107 47.5t40 109.5zM106 347l-45 35q73 106 197 106q89 0 131.5 -43.5t42.5 -118.5v-90q0 -119 3 -236h-59l-2 73h-1q-27 -39 -69 -62t-90 -23q-72 0 -116.5 38t-44.5 102q0 77 72.5 116.5t246.5 39.5
v39q0 113 -116 113q-93 0 -150 -89zM357 640q0 -38 -26.5 -65t-71.5 -27q-46 0 -71 25.5t-25 65.5q0 38 26.5 65t71.5 27q46 0 71 -25.5t25 -65.5zM307 639q0 21 -12.5 35t-34.5 14t-34.5 -14t-12.5 -35t12.5 -34.5t34.5 -13.5t34.5 13.5t12.5 34.5z" />
    <glyph glyph-name="ae" unicode="&#xe6;" horiz-adv-x="839" 
d="M106 347l-45 35q73 106 197 106t158 -86q57 86 170 86q55 0 97 -21.5t64.5 -55t33 -67.5t10.5 -66q0 -30 -4 -50h-355q1 -85 46 -136t116 -51q100 0 153 85l47 -32q-37 -56 -85.5 -81t-116.5 -25q-134 0 -192 116q-57 -116 -186 -116q-72 0 -116.5 38t-44.5 102
q0 77 72.5 116.5t246.5 39.5v39q-2 113 -116 113q-93 0 -150 -89zM434 278h292q0 65 -38.5 111.5t-104.5 46.5q-63 0 -102.5 -41.5t-46.5 -116.5zM225 40q67 0 107 47.5t40 109.5v37q-146 0 -200.5 -25t-54.5 -80q0 -41 27 -65t81 -24z" />
    <glyph glyph-name="ccedilla" unicode="&#xe7;" horiz-adv-x="512" 
d="M260 -210h-66q19 15 37.5 38t18.5 41q0 16 -12 27.5t-40 25.5l39 68q-85 9 -135.5 73.5t-50.5 172.5q0 118 59.5 185t153.5 67q132 0 195 -124l-54 -30q-46 102 -143 102q-66 0 -106.5 -52t-40.5 -146q0 -88 40.5 -143t112.5 -55q102 0 148 103l50 -24
q-58 -121 -172 -129l-26 -45q43 -29 43 -72q0 -20 -14.5 -43.5t-36.5 -39.5z" />
    <glyph glyph-name="egrave" unicode="&#xe8;" horiz-adv-x="522" 
d="M430 126l47 -32q-37 -56 -85.5 -81t-116.5 -25q-106 0 -165 68.5t-59 180.5t58 181.5t160 69.5q55 0 97 -21.5t64.5 -55t33 -67.5t10.5 -66q0 -30 -4 -50h-355q1 -85 46 -136t116 -51q100 0 153 85zM117 278h292q0 65 -38.5 111.5t-104.5 46.5q-63 0 -102.5 -41.5
t-46.5 -116.5zM214 691l85 -140h-58l-114 140h87z" />
    <glyph glyph-name="eacute" unicode="&#xe9;" horiz-adv-x="522" 
d="M430 126l47 -32q-37 -56 -85.5 -81t-116.5 -25q-106 0 -165 68.5t-59 180.5t58 181.5t160 69.5q55 0 97 -21.5t64.5 -55t33 -67.5t10.5 -66q0 -30 -4 -50h-355q1 -85 46 -136t116 -51q100 0 153 85zM117 278h292q0 65 -38.5 111.5t-104.5 46.5q-63 0 -102.5 -41.5
t-46.5 -116.5zM223 551l85 140h86l-113 -140h-58z" />
    <glyph glyph-name="ecircumflex" unicode="&#xea;" horiz-adv-x="522" 
d="M430 126l47 -32q-37 -56 -85.5 -81t-116.5 -25q-106 0 -165 68.5t-59 180.5t58 181.5t160 69.5q55 0 97 -21.5t64.5 -55t33 -67.5t10.5 -66q0 -30 -4 -50h-355q1 -85 46 -136t116 -51q100 0 153 85zM117 278h292q0 65 -38.5 111.5t-104.5 46.5q-63 0 -102.5 -41.5
t-46.5 -116.5zM125 551l99 140h75l98 -140h-61l-76 93l-76 -93h-59z" />
    <glyph glyph-name="edieresis" unicode="&#xeb;" horiz-adv-x="522" 
d="M430 126l47 -32q-37 -56 -85.5 -81t-116.5 -25q-106 0 -165 68.5t-59 180.5t58 181.5t160 69.5q55 0 97 -21.5t64.5 -55t33 -67.5t10.5 -66q0 -30 -4 -50h-355q1 -85 46 -136t116 -51q100 0 153 85zM117 278h292q0 65 -38.5 111.5t-104.5 46.5q-63 0 -102.5 -41.5
t-46.5 -116.5zM202 569h-62v108h62v-108zM382 569h-62v108h62v-108z" />
    <glyph glyph-name="igrave" unicode="&#xec;" horiz-adv-x="232" 
d="M146 0h-60v476h60v-476zM69 691l85 -140h-58l-114 140h87z" />
    <glyph glyph-name="iacute" unicode="&#xed;" horiz-adv-x="232" 
d="M146 0h-60v476h60v-476zM78 551l85 140h86l-113 -140h-58z" />
    <glyph glyph-name="icircumflex" unicode="&#xee;" horiz-adv-x="232" 
d="M146 0h-60v476h60v-476zM-20 551l99 140h75l98 -140h-61l-76 93l-76 -93h-59z" />
    <glyph glyph-name="idieresis" unicode="&#xef;" horiz-adv-x="232" 
d="M146 0h-60v476h60v-476zM67 569h-62v108h62v-108zM227 569h-62v108h62v-108z" />
    <glyph glyph-name="eth" unicode="&#xf0;" horiz-adv-x="558" 
d="M157 693l61 32q49 -30 95 -67l119 63l25 -43l-105 -56q153 -150 153 -357q0 -127 -59.5 -202t-169.5 -75q-109 0 -167 69.5t-58 179.5q0 108 58 179.5t160 71.5q58 0 100.5 -25t65.5 -63l1 1q-39 102 -138 192l-125 -66l-25 43l109 58q-48 37 -100 65zM439 238
q0 85 -43.5 141.5t-118.5 56.5q-76 0 -119 -56t-43 -142q0 -85 43.5 -141.5t118.5 -56.5q76 0 119 56t43 142z" />
    <glyph glyph-name="ntilde" unicode="&#xf1;" horiz-adv-x="554" 
d="M474 0h-60v275q0 70 -17 104q-29 57 -105 57q-59 0 -95 -36q-51 -51 -51 -174v-226h-60v241q0 115 -3 235h59l2 -73h1q48 85 156 85q83 0 128 -47t45 -142v-299zM216 628q-39 0 -39 -64h-50q0 50 23 82.5t68 32.5q27 0 50 -17t40.5 -34t29.5 -17q39 0 39 64h50
q0 -50 -23 -82.5t-68 -32.5q-27 0 -50 17t-40.5 34t-29.5 17z" />
    <glyph glyph-name="ograve" unicode="&#xf2;" horiz-adv-x="554" 
d="M439 238q0 85 -43.5 141.5t-118.5 56.5q-76 0 -119 -56t-43 -142q0 -85 43.5 -141.5t118.5 -56.5q76 0 119 56t43 142zM503 239q0 -109 -59.5 -180t-167.5 -71q-109 0 -167 69.5t-58 179.5q0 109 59.5 180t167.5 71q109 0 167 -69.5t58 -179.5zM230 691l85 -140h-58
l-114 140h87z" />
    <glyph glyph-name="oacute" unicode="&#xf3;" horiz-adv-x="554" 
d="M439 238q0 85 -43.5 141.5t-118.5 56.5q-76 0 -119 -56t-43 -142q0 -85 43.5 -141.5t118.5 -56.5q76 0 119 56t43 142zM503 239q0 -109 -59.5 -180t-167.5 -71q-109 0 -167 69.5t-58 179.5q0 109 59.5 180t167.5 71q109 0 167 -69.5t58 -179.5zM239 551l85 140h86
l-113 -140h-58z" />
    <glyph glyph-name="ocircumflex" unicode="&#xf4;" horiz-adv-x="554" 
d="M439 238q0 85 -43.5 141.5t-118.5 56.5q-76 0 -119 -56t-43 -142q0 -85 43.5 -141.5t118.5 -56.5q76 0 119 56t43 142zM503 239q0 -109 -59.5 -180t-167.5 -71q-109 0 -167 69.5t-58 179.5q0 109 59.5 180t167.5 71q109 0 167 -69.5t58 -179.5zM141 551l99 140h75
l98 -140h-61l-76 93l-76 -93h-59z" />
    <glyph glyph-name="otilde" unicode="&#xf5;" horiz-adv-x="554" 
d="M439 238q0 85 -43.5 141.5t-118.5 56.5q-76 0 -119 -56t-43 -142q0 -85 43.5 -141.5t118.5 -56.5q76 0 119 56t43 142zM503 239q0 -109 -59.5 -180t-167.5 -71q-109 0 -167 69.5t-58 179.5q0 109 59.5 180t167.5 71q109 0 167 -69.5t58 -179.5zM216 628q-39 0 -39 -64
h-50q0 50 23 82.5t68 32.5q27 0 50 -17t40.5 -34t29.5 -17q39 0 39 64h50q0 -50 -23 -82.5t-68 -32.5q-27 0 -50 17t-40.5 34t-29.5 17z" />
    <glyph glyph-name="odieresis" unicode="&#xf6;" horiz-adv-x="554" 
d="M439 238q0 85 -43.5 141.5t-118.5 56.5q-76 0 -119 -56t-43 -142q0 -85 43.5 -141.5t118.5 -56.5q76 0 119 56t43 142zM503 239q0 -109 -59.5 -180t-167.5 -71q-109 0 -167 69.5t-58 179.5q0 109 59.5 180t167.5 71q109 0 167 -69.5t58 -179.5zM218 569h-62v108h62v-108z
M398 569h-62v108h62v-108z" />
    <glyph glyph-name="divide" unicode="&#xf7;" 
d="M367 57h-84v122h84v-122zM585 348v-52h-520v52h520zM367 465h-84v122h84v-122z" />
    <glyph glyph-name="oslash" unicode="&#xf8;" horiz-adv-x="554" 
d="M68 -32l-38 34l65 73q-44 63 -44 162q0 109 59.5 180t167.5 71q89 0 146 -49l62 69l38 -34l-66 -73q45 -66 45 -162q0 -109 -59.5 -180t-167.5 -71q-89 0 -147 48zM140 124l243 270q-44 42 -106 42q-76 0 -119 -56t-43 -142q0 -64 25 -114zM413 351l-242 -269
q40 -42 106 -42q76 0 119 56t43 142q0 64 -26 113z" />
    <glyph glyph-name="ugrave" unicode="&#xf9;" horiz-adv-x="548" 
d="M465 0h-59l-2 73h-1q-48 -85 -153 -85q-81 0 -125.5 47t-44.5 142v299h60v-275q0 -70 17 -104q29 -57 100 -57q58 0 94 36q51 51 51 174v226h60v-241q0 -124 3 -235zM227 691l85 -140h-58l-114 140h87z" />
    <glyph glyph-name="uacute" unicode="&#xfa;" horiz-adv-x="548" 
d="M465 0h-59l-2 73h-1q-48 -85 -153 -85q-81 0 -125.5 47t-44.5 142v299h60v-275q0 -70 17 -104q29 -57 100 -57q58 0 94 36q51 51 51 174v226h60v-241q0 -124 3 -235zM236 551l85 140h86l-113 -140h-58z" />
    <glyph glyph-name="ucircumflex" unicode="&#xfb;" horiz-adv-x="548" 
d="M465 0h-59l-2 73h-1q-48 -85 -153 -85q-81 0 -125.5 47t-44.5 142v299h60v-275q0 -70 17 -104q29 -57 100 -57q58 0 94 36q51 51 51 174v226h60v-241q0 -124 3 -235zM138 551l99 140h75l98 -140h-61l-76 93l-76 -93h-59z" />
    <glyph glyph-name="udieresis" unicode="&#xfc;" horiz-adv-x="548" 
d="M465 0h-59l-2 73h-1q-48 -85 -153 -85q-81 0 -125.5 47t-44.5 142v299h60v-275q0 -70 17 -104q29 -57 100 -57q58 0 94 36q51 51 51 174v226h60v-241q0 -124 3 -235zM215 569h-62v108h62v-108zM395 569h-62v108h62v-108z" />
    <glyph glyph-name="yacute" unicode="&#xfd;" horiz-adv-x="481" 
d="M179 -210h-65l100 210l-199 476h70l83 -203q33 -80 75 -202h1q31 98 74 202l83 203h65zM203 551l85 140h86l-113 -140h-58z" />
    <glyph glyph-name="thorn" unicode="&#xfe;" horiz-adv-x="575" 
d="M144 249v-21q0 -83 43.5 -135.5t115.5 -52.5q75 0 116 54t41 145q0 86 -42.5 141.5t-118.5 55.5q-70 0 -112.5 -50t-42.5 -137zM86 -210v922h60v-216q0 -62 -3 -93h1q48 85 162 85q103 0 160.5 -69t57.5 -178q0 -118 -60.5 -185.5t-158.5 -67.5q-105 0 -160 82h-1
q2 -34 2 -90v-190h-60z" />
    <glyph glyph-name="ydieresis" unicode="&#xff;" horiz-adv-x="481" 
d="M179 -210h-65l100 210l-199 476h70l83 -203q33 -80 75 -202h1q31 98 74 202l83 203h65zM181 569h-62v108h62v-108zM361 569h-62v108h62v-108z" />
    <glyph glyph-name="Amacron" unicode="&#x100;" horiz-adv-x="635" 
d="M286 682h63l267 -682h-72l-74 196h-308l-73 -196h-70zM247 425l-66 -176h269l-68 180q-57 153 -67 189h-1q-13 -49 -67 -193zM462 840v-55h-290v55h290z" />
    <glyph glyph-name="amacron" unicode="&#x101;" horiz-adv-x="512" 
d="M372 197v37q-146 0 -200.5 -25t-54.5 -80q0 -41 27 -65t81 -24q67 0 107 47.5t40 109.5zM106 347l-45 35q73 106 197 106q89 0 131.5 -43.5t42.5 -118.5v-90q0 -119 3 -236h-59l-2 73h-1q-27 -39 -69 -62t-90 -23q-72 0 -116.5 38t-44.5 102q0 77 72.5 116.5t246.5 39.5
v39q0 113 -116 113q-93 0 -150 -89zM390 643v-52h-260v52h260z" />
    <glyph glyph-name="Abreve" unicode="&#x102;" horiz-adv-x="635" 
d="M286 682h63l267 -682h-72l-74 196h-308l-73 -196h-70zM247 425l-66 -176h269l-68 180q-57 153 -67 189h-1q-13 -49 -67 -193zM403 881h55q0 -63 -36.5 -98.5t-105.5 -35.5t-104.5 35t-35.5 99h55q0 -79 86 -79t86 79z" />
    <glyph glyph-name="abreve" unicode="&#x103;" horiz-adv-x="512" 
d="M372 197v37q-146 0 -200.5 -25t-54.5 -80q0 -41 27 -65t81 -24q67 0 107 47.5t40 109.5zM106 347l-45 35q73 106 197 106q89 0 131.5 -43.5t42.5 -118.5v-90q0 -119 3 -236h-59l-2 73h-1q-27 -39 -69 -62t-90 -23q-72 0 -116.5 38t-44.5 102q0 77 72.5 116.5t246.5 39.5
v39q0 113 -116 113q-93 0 -150 -89zM341 686h51q0 -132 -133 -132q-131 0 -131 132h51q0 -13 3 -24.5t10.5 -25.5t25 -22t42.5 -8t42.5 8t25 22t10.5 25.5t3 24.5z" />
    <glyph glyph-name="Aogonek" unicode="&#x104;" horiz-adv-x="635" 
d="M622 -163v-46q-22 -7 -59 -7q-55 0 -76 19.5t-21 53.5q0 69 85 143h-7l-74 196h-308l-73 -196h-70l267 682h63l267 -682q-87 -85 -87 -137q0 -26 37 -26h56zM247 425l-66 -176h269l-68 180q-57 153 -67 189h-1q-13 -49 -67 -193z" />
    <glyph glyph-name="aogonek" unicode="&#x105;" horiz-adv-x="512" 
d="M372 197v37q-146 0 -200.5 -25t-54.5 -80q0 -41 27 -65t81 -24q67 0 107 47.5t40 109.5zM106 347l-45 35q73 106 197 106q89 0 131.5 -43.5t42.5 -118.5v-90q0 -187 3 -236q-51 -54 -67 -84t-16 -55q0 -27 38 -27h53v-44q-28 -6 -55 -6q-55 0 -75.5 19.5t-20.5 53.5
q0 33 20.5 67t64.5 80l-2 69h-1q-27 -39 -69 -62t-91 -23q-72 0 -116.5 38t-44.5 102q0 77 72.5 116.5t246.5 39.5v39q0 113 -116 113q-93 0 -150 -89z" />
    <glyph glyph-name="Cacute" unicode="&#x106;" horiz-adv-x="687" 
d="M595 184l55 -20q-32 -86 -101 -132t-167 -46q-139 0 -226 96.5t-87 257.5q0 88 27.5 158t72.5 112t99.5 64t112.5 22q87 0 156 -44t103 -121l-55 -29q-27 64 -82 101t-124 37q-103 0 -172.5 -79t-69.5 -220q0 -135 66.5 -216.5t180.5 -81.5q158 0 211 141zM338 751
l94 130h95l-126 -130h-63z" />
    <glyph glyph-name="cacute" unicode="&#x107;" horiz-adv-x="512" 
d="M416 143l50 -24q-32 -67 -80 -99t-120 -32q-97 0 -156 66t-59 182q0 118 59.5 185t153.5 67q132 0 195 -124l-54 -30q-46 102 -143 102q-66 0 -106.5 -52t-40.5 -146q0 -88 40.5 -143t112.5 -55q102 0 148 103zM226 551l85 140h86l-113 -140h-58z" />
    <glyph glyph-name="Ccircumflex" unicode="&#x108;" horiz-adv-x="687" 
d="M595 184l55 -20q-32 -86 -101 -132t-167 -46q-139 0 -226 96.5t-87 257.5q0 88 27.5 158t72.5 112t99.5 64t112.5 22q87 0 156 -44t103 -121l-55 -29q-27 64 -82 101t-124 37q-103 0 -172.5 -79t-69.5 -220q0 -135 66.5 -216.5t180.5 -81.5q158 0 211 141zM233 751
l119 130h58l119 -130h-66l-82 76l-82 -76h-66z" />
    <glyph glyph-name="ccircumflex" unicode="&#x109;" horiz-adv-x="512" 
d="M416 143l50 -24q-32 -67 -80 -99t-120 -32q-97 0 -156 66t-59 182q0 118 59.5 185t153.5 67q132 0 195 -124l-54 -30q-46 102 -143 102q-66 0 -106.5 -52t-40.5 -146q0 -88 40.5 -143t112.5 -55q102 0 148 103zM128 551l99 140h75l98 -140h-61l-76 93l-76 -93h-59z" />
    <glyph glyph-name="Cdotaccent" unicode="&#x10a;" horiz-adv-x="687" 
d="M595 184l55 -20q-32 -86 -101 -132t-167 -46q-139 0 -226 96.5t-87 257.5q0 88 27.5 158t72.5 112t99.5 64t112.5 22q87 0 156 -44t103 -121l-55 -29q-27 64 -82 101t-124 37q-103 0 -172.5 -79t-69.5 -220q0 -135 66.5 -216.5t180.5 -81.5q158 0 211 141zM414 764h-66
v108h66v-108z" />
    <glyph glyph-name="cdotaccent" unicode="&#x10b;" horiz-adv-x="512" 
d="M416 143l50 -24q-32 -67 -80 -99t-120 -32q-97 0 -156 66t-59 182q0 118 59.5 185t153.5 67q132 0 195 -124l-54 -30q-46 102 -143 102q-66 0 -106.5 -52t-40.5 -146q0 -88 40.5 -143t112.5 -55q102 0 148 103zM295 569h-62v108h62v-108z" />
    <glyph glyph-name="Ccaron" unicode="&#x10c;" horiz-adv-x="687" 
d="M595 184l55 -20q-32 -86 -101 -132t-167 -46q-139 0 -226 96.5t-87 257.5q0 88 27.5 158t72.5 112t99.5 64t112.5 22q87 0 156 -44t103 -121l-55 -29q-27 64 -82 101t-124 37q-103 0 -172.5 -79t-69.5 -220q0 -135 66.5 -216.5t180.5 -81.5q158 0 211 141zM529 881
l-118 -130h-60l-118 130h65l83 -76l83 76h65z" />
    <glyph glyph-name="ccaron" unicode="&#x10d;" horiz-adv-x="512" 
d="M416 143l50 -24q-32 -67 -80 -99t-120 -32q-97 0 -156 66t-59 182q0 118 59.5 185t153.5 67q132 0 195 -124l-54 -30q-46 102 -143 102q-66 0 -106.5 -52t-40.5 -146q0 -88 40.5 -143t112.5 -55q102 0 148 103zM400 691l-99 -140h-75l-98 140h61l76 -93l76 93h59z" />
    <glyph glyph-name="Dcaron" unicode="&#x10e;" horiz-adv-x="723" 
d="M178 625v-564q60 -3 127 -3q76 0 122 11t84 49q75 75 75 222q0 144 -77 221q-40 40 -87 52.5t-121 12.5q-88 0 -123 -1zM114 1v680q62 1 190 1q91 0 151 -18.5t108 -66.5q91 -91 91 -254q0 -167 -92 -259q-49 -49 -110.5 -66.5t-149.5 -17.5q-41 0 -108 0.5t-80 0.5z
M489 881l-118 -130h-60l-118 130h65l83 -76l83 76h65z" />
    <glyph glyph-name="dcaron" unicode="&#x10f;" horiz-adv-x="585" 
d="M431 227v21q0 83 -43.5 135.5t-115.5 52.5q-75 0 -116 -54t-41 -145q0 -86 42.5 -141.5t118.5 -55.5q70 0 112.5 50t42.5 137zM492 0h-59l-2 73h-1q-47 -85 -161 -85q-103 0 -160.5 69t-57.5 178q0 118 60.5 185.5t158.5 67.5q105 0 160 -82h1q-2 34 -2 90v216h60v-476
q0 -166 3 -236zM541 569l36 187h67l-53 -187h-50z" />
    <glyph glyph-name="Dcroat" unicode="&#x110;" horiz-adv-x="738" 
d="M193 323v-262q60 -3 127 -3q76 0 122 11t84 49q75 75 75 222q0 144 -77 221q-40 40 -87 52.5t-121 12.5q-88 0 -123 -1v-249h208v-53h-208zM129 1v322h-117v53h117v305q62 1 190 1q91 0 151 -18.5t108 -66.5q91 -91 91 -254q0 -167 -92 -259q-49 -49 -110.5 -66.5
t-149.5 -17.5q-41 0 -109 0.5t-79 0.5z" />
    <glyph glyph-name="dcroat" unicode="&#x111;" horiz-adv-x="575" 
d="M492 0h-59l-2 73h-1q-47 -85 -161 -85q-103 0 -160.5 69t-57.5 178q0 118 60.5 185.5t158.5 67.5q105 0 160 -82h1q-2 34 -2 90v67h-147v50h147v99h60v-99h103v-50h-103v-327q0 -166 3 -236zM431 227v21q0 83 -43.5 135.5t-115.5 52.5q-75 0 -116 -54t-41 -145
q0 -86 42.5 -141.5t118.5 -55.5q70 0 112.5 50t42.5 137z" />
    <glyph glyph-name="Emacron" unicode="&#x112;" horiz-adv-x="644" 
d="M114 0v682h445v-56h-381v-250h334v-54h-334v-265h398v-57h-462zM479 840v-55h-290v55h290z" />
    <glyph glyph-name="emacron" unicode="&#x113;" horiz-adv-x="522" 
d="M430 126l47 -32q-37 -56 -85.5 -81t-116.5 -25q-106 0 -165 68.5t-59 180.5t58 181.5t160 69.5q55 0 97 -21.5t64.5 -55t33 -67.5t10.5 -66q0 -30 -4 -50h-355q1 -85 46 -136t116 -51q100 0 153 85zM117 278h292q0 65 -38.5 111.5t-104.5 46.5q-63 0 -102.5 -41.5
t-46.5 -116.5zM391 643v-52h-260v52h260z" />
    <glyph glyph-name="Ebreve" unicode="&#x114;" horiz-adv-x="644" 
d="M114 0v682h445v-56h-381v-250h334v-54h-334v-265h398v-57h-462zM422 881h55q0 -63 -36.5 -98.5t-105.5 -35.5t-104.5 35t-35.5 99h55q0 -79 86 -79t86 79z" />
    <glyph glyph-name="ebreve" unicode="&#x115;" horiz-adv-x="522" 
d="M430 126l47 -32q-37 -56 -85.5 -81t-116.5 -25q-106 0 -165 68.5t-59 180.5t58 181.5t160 69.5q55 0 97 -21.5t64.5 -55t33 -67.5t10.5 -66q0 -30 -4 -50h-355q1 -85 46 -136t116 -51q100 0 153 85zM117 278h292q0 65 -38.5 111.5t-104.5 46.5q-63 0 -102.5 -41.5
t-46.5 -116.5zM342 686h51q0 -132 -133 -132q-131 0 -131 132h51q0 -13 3 -24.5t10.5 -25.5t25 -22t42.5 -8t42.5 8t25 22t10.5 25.5t3 24.5z" />
    <glyph glyph-name="Edotaccent" unicode="&#x116;" horiz-adv-x="644" 
d="M114 0v682h445v-56h-381v-250h334v-54h-334v-265h398v-57h-462zM367 764h-66v108h66v-108z" />
    <glyph glyph-name="edotaccent" unicode="&#x117;" horiz-adv-x="522" 
d="M430 126l47 -32q-37 -56 -85.5 -81t-116.5 -25q-106 0 -165 68.5t-59 180.5t58 181.5t160 69.5q55 0 97 -21.5t64.5 -55t33 -67.5t10.5 -66q0 -30 -4 -50h-355q1 -85 46 -136t116 -51q100 0 153 85zM117 278h292q0 65 -38.5 111.5t-104.5 46.5q-63 0 -102.5 -41.5
t-46.5 -116.5zM292 569h-62v108h62v-108z" />
    <glyph glyph-name="Eogonek" unicode="&#x118;" horiz-adv-x="644" 
d="M576 -163v-46q-22 -7 -59 -7q-55 0 -76 19.5t-21 53.5q0 66 84 143h-390v682h445v-56h-381v-250h334v-54h-334v-265h398v-54q-93 -93 -93 -140q0 -26 37 -26h56z" />
    <glyph glyph-name="eogonek" unicode="&#x119;" horiz-adv-x="522" 
d="M444 -166v-43q-26 -7 -55 -7q-55 0 -75.5 19.5t-20.5 53.5q0 70 64 142q-35 -11 -82 -11q-104 0 -164 69t-60 180q0 112 58 181.5t160 69.5q55 0 97 -21.5t64.5 -55t33 -67.5t10.5 -66q0 -30 -4 -50h-355q1 -85 46.5 -136t115.5 -51q100 0 153 85l47 -32q-2 -3 -18 -26
t-26.5 -39t-27 -43t-26.5 -46.5t-18 -41.5t-8 -37q0 -27 38 -27h53zM117 278h292q0 65 -38.5 111.5t-104.5 46.5q-63 0 -102.5 -41.5t-46.5 -116.5z" />
    <glyph glyph-name="Ecaron" unicode="&#x11a;" horiz-adv-x="644" 
d="M114 0v682h445v-56h-381v-250h334v-54h-334v-265h398v-57h-462zM484 881l-118 -130h-60l-118 130h65l83 -76l83 76h65z" />
    <glyph glyph-name="ecaron" unicode="&#x11b;" horiz-adv-x="522" 
d="M430 126l47 -32q-37 -56 -85.5 -81t-116.5 -25q-106 0 -165 68.5t-59 180.5t58 181.5t160 69.5q55 0 97 -21.5t64.5 -55t33 -67.5t10.5 -66q0 -30 -4 -50h-355q1 -85 46 -136t116 -51q100 0 153 85zM117 278h292q0 65 -38.5 111.5t-104.5 46.5q-63 0 -102.5 -41.5
t-46.5 -116.5zM397 691l-99 -140h-75l-98 140h61l76 -93l76 93h59z" />
    <glyph glyph-name="Gcircumflex" unicode="&#x11c;" horiz-adv-x="753" 
d="M651 0h-61v116h-1q-28 -59 -85 -94.5t-131 -35.5q-133 0 -218.5 96t-85.5 258q0 159 88 257.5t222 98.5q180 0 266 -161l-53 -33q-71 138 -220 138q-107 0 -171 -84t-64 -215q0 -138 66 -218.5t173 -80.5q93 0 151 70.5t58 172.5v23h-207v54h273v-362zM230 751l119 130
h58l119 -130h-66l-82 76l-82 -76h-66z" />
    <glyph glyph-name="gcircumflex" unicode="&#x11d;" horiz-adv-x="577" 
d="M437 476h61q-7 -74 -7 -236v-260q0 -92 -49.5 -145.5t-154.5 -53.5q-144 0 -221 125l56 32q58 -105 167 -105q71 0 107 38.5t36 105.5q0 16 0.5 49t0.5 47h-1q-50 -85 -162 -85q-103 0 -160.5 69t-57.5 178q0 118 60.5 185.5t158.5 67.5q105 0 161 -83h1zM432 227v21
q0 83 -43.5 135.5t-115.5 52.5q-75 0 -116 -54t-41 -145q0 -86 42.5 -141.5t118.5 -55.5q70 0 112.5 50t42.5 137zM137 551l99 140h75l98 -140h-61l-76 93l-76 -93h-59z" />
    <glyph glyph-name="Gbreve" unicode="&#x11e;" horiz-adv-x="753" 
d="M651 0h-61v116h-1q-28 -59 -85 -94.5t-131 -35.5q-133 0 -218.5 96t-85.5 258q0 159 88 257.5t222 98.5q180 0 266 -161l-53 -33q-71 138 -220 138q-107 0 -171 -84t-64 -215q0 -138 66 -218.5t173 -80.5q93 0 151 70.5t58 172.5v23h-207v54h273v-362zM464 881h55
q0 -63 -36.5 -98.5t-105.5 -35.5t-104.5 35t-35.5 99h55q0 -79 86 -79t86 79z" />
    <glyph glyph-name="gbreve" unicode="&#x11f;" horiz-adv-x="577" 
d="M437 476h61q-7 -74 -7 -236v-260q0 -92 -49.5 -145.5t-154.5 -53.5q-144 0 -221 125l56 32q58 -105 167 -105q71 0 107 38.5t36 105.5q0 16 0.5 49t0.5 47h-1q-50 -85 -162 -85q-103 0 -160.5 69t-57.5 178q0 118 60.5 185.5t158.5 67.5q105 0 161 -83h1zM432 227v21
q0 83 -43.5 135.5t-115.5 52.5q-75 0 -116 -54t-41 -145q0 -86 42.5 -141.5t118.5 -55.5q70 0 112.5 50t42.5 137zM355 686h51q0 -132 -133 -132q-131 0 -131 132h51q0 -13 3 -24.5t10.5 -25.5t25 -22t42.5 -8t42.5 8t25 22t10.5 25.5t3 24.5z" />
    <glyph glyph-name="Gdotaccent" unicode="&#x120;" horiz-adv-x="753" 
d="M651 0h-61v116h-1q-28 -59 -85 -94.5t-131 -35.5q-133 0 -218.5 96t-85.5 258q0 159 88 257.5t222 98.5q180 0 266 -161l-53 -33q-71 138 -220 138q-107 0 -171 -84t-64 -215q0 -138 66 -218.5t173 -80.5q93 0 151 70.5t58 172.5v23h-207v54h273v-362zM411 764h-66v108
h66v-108z" />
    <glyph glyph-name="gdotaccent" unicode="&#x121;" horiz-adv-x="577" 
d="M437 476h61q-7 -74 -7 -236v-260q0 -92 -49.5 -145.5t-154.5 -53.5q-144 0 -221 125l56 32q58 -105 167 -105q71 0 107 38.5t36 105.5q0 16 0.5 49t0.5 47h-1q-50 -85 -162 -85q-103 0 -160.5 69t-57.5 178q0 118 60.5 185.5t158.5 67.5q105 0 161 -83h1zM432 227v21
q0 83 -43.5 135.5t-115.5 52.5q-75 0 -116 -54t-41 -145q0 -86 42.5 -141.5t118.5 -55.5q70 0 112.5 50t42.5 137zM304 569h-62v108h62v-108z" />
    <glyph glyph-name="Gcommaaccent" unicode="&#x122;" horiz-adv-x="753" 
d="M651 0h-61v116h-1q-28 -59 -85 -94.5t-131 -35.5q-133 0 -218.5 96t-85.5 258q0 159 88 257.5t222 98.5q180 0 266 -161l-53 -33q-71 138 -220 138q-107 0 -171 -84t-64 -215q0 -138 66 -218.5t173 -80.5q93 0 151 70.5t58 172.5v23h-207v54h273v-362zM341 -55h66v-75
q0 -35 -18.5 -58.5t-61.5 -23.5h-17v36h17q34 0 34 40h-20v81z" />
    <glyph glyph-name="gcommaaccent" unicode="&#x123;" horiz-adv-x="577" 
d="M437 476h61q-7 -74 -7 -236v-260q0 -92 -49.5 -145.5t-154.5 -53.5q-144 0 -221 125l56 32q58 -105 167 -105q71 0 107 38.5t36 105.5q0 16 0.5 49t0.5 47h-1q-50 -85 -162 -85q-103 0 -160.5 69t-57.5 178q0 118 60.5 185.5t158.5 67.5q105 0 161 -83h1zM432 227v21
q0 83 -43.5 135.5t-115.5 52.5q-75 0 -116 -54t-41 -145q0 -86 42.5 -141.5t118.5 -55.5q70 0 112.5 50t42.5 137zM298 569h-62v80q0 82 78 82h17v-36h-20q-33 0 -33 -42h20v-84z" />
    <glyph glyph-name="Hcircumflex" unicode="&#x124;" horiz-adv-x="752" 
d="M114 0v682h64v-300h396v300h64v-682h-64v324h-396v-324h-64zM228 751l119 130h58l119 -130h-66l-82 76l-82 -76h-66z" />
    <glyph glyph-name="hcircumflex" unicode="&#x125;" horiz-adv-x="554" 
d="M86 0v712h60v-216q0 -59 -2 -93h1q48 85 156 85q83 0 128 -47t45 -142v-299h-60v275q0 70 -17 104q-29 57 -105 57q-59 0 -95 -36q-51 -51 -51 -174v-226h-60zM141 787l99 140h75l98 -140h-61l-76 93l-76 -93h-59z" />
    <glyph glyph-name="Hbar" unicode="&#x126;" horiz-adv-x="772" 
d="M124 0v505h-112v55h112v122h64v-122h396v122h64v-122h112v-55h-112v-505h-64v314h-396v-314h-64zM188 372h396v133h-396v-133z" />
    <glyph glyph-name="hbar" unicode="&#x127;" horiz-adv-x="554" 
d="M86 0v563h-103v50h103v99h60v-99h147v-50h-147v-67q0 -59 -2 -93h1q48 85 156 85q83 0 128 -47t45 -142v-299h-60v275q0 70 -17 104q-29 57 -105 57q-59 0 -95 -36q-51 -51 -51 -174v-226h-60z" />
    <glyph glyph-name="Itilde" unicode="&#x128;" horiz-adv-x="292" 
d="M114 0v682h64v-682h-64zM76 822q-20 0 -30.5 -19t-10.5 -46h-52q0 51 23.5 85t71.5 34q30 0 56.5 -17t47 -34.5t34.5 -17.5q20 0 30.5 19t10.5 46h52q0 -51 -23.5 -85t-71.5 -34q-30 0 -56.5 17.5t-47 34.5t-34.5 17z" />
    <glyph glyph-name="itilde" unicode="&#x129;" horiz-adv-x="232" 
d="M146 0h-60v476h60v-476zM61 628q-28 0 -28 -64h-50q0 115 80 115q26 0 47 -17t35.5 -34t25.5 -17q28 0 28 64h50q0 -115 -80 -115q-26 0 -47 17t-35.5 34t-25.5 17z" />
    <glyph glyph-name="Imacron" unicode="&#x12a;" horiz-adv-x="292" 
d="M114 0v682h64v-682h-64zM291 840v-55h-290v55h290z" />
    <glyph glyph-name="imacron" unicode="&#x12b;" horiz-adv-x="232" 
d="M146 0h-60v476h60v-476zM246 643v-52h-260v52h260z" />
    <glyph glyph-name="Ibreve" unicode="&#x12c;" horiz-adv-x="292" 
d="M114 0v682h64v-682h-64zM232 881h55q0 -63 -36.5 -98.5t-105.5 -35.5t-104.5 35t-35.5 99h55q0 -79 86 -79t86 79z" />
    <glyph glyph-name="ibreve" unicode="&#x12d;" horiz-adv-x="232" 
d="M146 0h-60v476h60v-476zM197 686h51q0 -132 -133 -132q-131 0 -131 132h51q0 -13 3 -24.5t10.5 -25.5t25 -22t42.5 -8t42.5 8t25 22t10.5 25.5t3 24.5z" />
    <glyph glyph-name="Iogonek" unicode="&#x12e;" horiz-adv-x="292" 
d="M202 -163v-46q-28 -7 -59 -7q-55 0 -76 19.5t-21 53.5q0 48 68 143v682h64v-683q-42 -63 -55.5 -90t-13.5 -46q0 -15 8.5 -20.5t27.5 -5.5h57z" />
    <glyph glyph-name="iogonek" unicode="&#x12f;" horiz-adv-x="232" 
d="M147 564h-62v118h62v-118zM171 -166v-43q-26 -7 -55 -7q-55 0 -75.5 19.5t-20.5 53.5q0 48 68 143h-2v476h60v-476q-66 -105 -66 -139q0 -27 38 -27h53z" />
    <glyph glyph-name="Idotaccent" unicode="&#x130;" horiz-adv-x="292" 
d="M114 0v682h64v-682h-64zM179 764h-66v108h66v-108z" />
    <glyph glyph-name="dotlessi" unicode="&#x131;" horiz-adv-x="232" 
d="M146 0h-60v476h60v-476z" />
    <glyph glyph-name="IJ" unicode="&#x132;" horiz-adv-x="817" 
d="M114 0v682h64v-682h-64zM645 682h64v-478q0 -103 -53.5 -160.5t-143.5 -57.5q-187 0 -204 213l64 14q7 -90 40 -130t102 -40q131 0 131 163v476z" />
    <glyph glyph-name="ij" unicode="&#x133;" horiz-adv-x="493" 
d="M146 0h-60v476h60v-476zM85 564v118h62v-118h-62zM347 476h60v-512q0 -102 -26.5 -142t-93.5 -40q-29 0 -49 5v47h47q36 0 49 30t13 97v515zM408 564h-62v118h62v-118z" />
    <glyph glyph-name="Jcircumflex" unicode="&#x134;" horiz-adv-x="525" 
d="M353 682h64v-478q0 -103 -53.5 -160.5t-143.5 -57.5q-187 0 -204 213l64 14q7 -90 40 -130t102 -40q131 0 131 163v476zM229 751l119 130h58l119 -130h-66l-82 76l-82 -76h-66z" />
    <glyph glyph-name="jcircumflex" unicode="&#x135;" horiz-adv-x="243" 
d="M97 476h60v-512q0 -102 -26.5 -142t-93.5 -40q-29 0 -49 5v47h47q36 0 49 30t13 97v515zM-9 551l99 140h75l98 -140h-61l-76 93l-76 -93h-59z" />
    <glyph glyph-name="Kcommaaccent" unicode="&#x136;" horiz-adv-x="668" 
d="M558 682h87l-271 -263l291 -419h-80l-257 375l-150 -145v-230h-64v682h64v-373zM328 -55h66v-75q0 -35 -18.5 -58.5t-61.5 -23.5h-17v36h17q34 0 34 40h-20v81z" />
    <glyph glyph-name="kcommaaccent" unicode="&#x137;" horiz-adv-x="511" 
d="M503 0h-77l-174 270l-106 -93v-177h-60v712h60v-464l254 228h87l-190 -167zM243 -55h62v-75q0 -82 -78 -82h-17v36h20q33 0 33 42h-20v79z" />
    <glyph glyph-name="kgreenlandic" unicode="&#x138;" horiz-adv-x="511" 
d="M503 0h-77l-173 258l-107 -99v-159h-60v476h60v-248l263 248h79l-191 -177z" />
    <glyph glyph-name="Lacute" unicode="&#x139;" horiz-adv-x="546" 
d="M114 0v682h64v-626h358v-56h-422zM107 751l94 130h95l-126 -130h-63z" />
    <glyph glyph-name="lacute" unicode="&#x13a;" horiz-adv-x="232" 
d="M86 0v712h60v-712h-60zM78 787l85 140h86l-113 -140h-58z" />
    <glyph glyph-name="Lcommaaccent" unicode="&#x13b;" horiz-adv-x="546" 
d="M114 0v682h64v-626h358v-56h-422zM289 -55h66v-75q0 -35 -18.5 -58.5t-61.5 -23.5h-17v36h17q34 0 34 40h-20v81z" />
    <glyph glyph-name="lcommaaccent" unicode="&#x13c;" horiz-adv-x="232" 
d="M86 0v712h60v-712h-60zM85 -55h62v-75q0 -82 -78 -82h-17v36h20q33 0 33 42h-20v79z" />
    <glyph glyph-name="Lcaron" unicode="&#x13d;" horiz-adv-x="546" 
d="M114 0v682h64v-626h358v-56h-422zM260 569l36 187h67l-53 -187h-50z" />
    <glyph glyph-name="lcaron" unicode="&#x13e;" horiz-adv-x="242" 
d="M86 0v712h60v-712h-60zM198 569l36 187h67l-53 -187h-50z" />
    <glyph glyph-name="Ldot" unicode="&#x13f;" horiz-adv-x="546" 
d="M114 0v682h64v-626h358v-56h-422zM458 317h-84v110h84v-110z" />
    <glyph glyph-name="ldot" unicode="&#x140;" horiz-adv-x="328" 
d="M86 0v712h60v-712h-60zM322 267h-84v110h84v-110z" />
    <glyph glyph-name="Lslash" unicode="&#x141;" horiz-adv-x="556" 
d="M385 440v-57l-197 -88v-239h358v-56h-422v267l-112 -50v57l112 50v358h64v-330z" />
    <glyph glyph-name="lslash" unicode="&#x142;" horiz-adv-x="252" 
d="M156 0h-60v323l-86 -55v60l86 54v330h60v-293l86 55v-60l-86 -54v-360z" />
    <glyph glyph-name="Nacute" unicode="&#x143;" horiz-adv-x="760" 
d="M646 0h-79l-259 399q-122 189 -136 211h-1q3 -135 3 -370v-240h-60v682h85l254 -388q58 -88 135 -212h1q-3 135 -3 370v230h60v-682zM337 751l94 130h95l-126 -130h-63z" />
    <glyph glyph-name="nacute" unicode="&#x144;" horiz-adv-x="554" 
d="M474 0h-60v275q0 70 -17 104q-29 57 -105 57q-59 0 -95 -36q-51 -51 -51 -174v-226h-60v241q0 115 -3 235h59l2 -73h1q48 85 156 85q83 0 128 -47t45 -142v-299zM239 551l85 140h86l-113 -140h-58z" />
    <glyph glyph-name="Ncommaaccent" unicode="&#x145;" horiz-adv-x="760" 
d="M646 0h-79l-259 399q-122 189 -136 211h-1q3 -135 3 -370v-240h-60v682h85l254 -388q58 -88 135 -212h1q-3 135 -3 370v230h60v-682zM334 -55h66v-75q0 -35 -18.5 -58.5t-61.5 -23.5h-17v36h17q34 0 34 40h-20v81z" />
    <glyph glyph-name="ncommaaccent" unicode="&#x146;" horiz-adv-x="554" 
d="M474 0h-60v275q0 70 -17 104q-29 57 -105 57q-59 0 -95 -36q-51 -51 -51 -174v-226h-60v241q0 115 -3 235h59l2 -73h1q48 85 156 85q83 0 128 -47t45 -142v-299zM247 -55h62v-75q0 -82 -78 -82h-17v36h20q33 0 33 42h-20v79z" />
    <glyph glyph-name="Ncaron" unicode="&#x147;" horiz-adv-x="760" 
d="M646 0h-79l-259 399q-122 189 -136 211h-1q3 -135 3 -370v-240h-60v682h85l254 -388q58 -88 135 -212h1q-3 135 -3 370v230h60v-682zM528 881l-118 -130h-60l-118 130h65l83 -76l83 76h65z" />
    <glyph glyph-name="ncaron" unicode="&#x148;" horiz-adv-x="554" 
d="M474 0h-60v275q0 70 -17 104q-29 57 -105 57q-59 0 -95 -36q-51 -51 -51 -174v-226h-60v241q0 115 -3 235h59l2 -73h1q48 85 156 85q83 0 128 -47t45 -142v-299zM424 691l-99 -140h-75l-98 140h61l76 -93l76 93h59z" />
    <glyph glyph-name="Eng" unicode="&#x14a;" horiz-adv-x="760" 
d="M473 -99h42q70 0 70 102v2l-269 393q-112 164 -144 212h-1q3 -135 3 -370v-240h-60v682h84l249 -362q75 -109 141 -212h1q-3 180 -3 344v230h60v-682q0 -79 -30.5 -117t-104.5 -38q-25 0 -38 4v52z" />
    <glyph glyph-name="eng" unicode="&#x14b;" horiz-adv-x="554" 
d="M414 -36v311q0 70 -17 104q-29 57 -105 57q-59 0 -95 -36q-51 -51 -51 -174v-226h-60v241q0 115 -3 235h59l2 -73h1q48 85 156 85q83 0 128 -47t45 -142v-328q0 -30 -1 -48.5t-8 -48.5t-20.5 -47.5t-40.5 -31t-65 -13.5q-21 0 -35 6v46h33q47 0 62 35t15 95z" />
    <glyph glyph-name="Omacron" unicode="&#x14c;" horiz-adv-x="776" 
d="M639 341q0 136 -67 217.5t-184 81.5t-184 -81.5t-67 -217.5t67 -217t184 -81t184 81t67 217zM707 342q0 -160 -89 -258t-231 -98q-143 0 -230.5 96t-87.5 258q0 160 89 258t231 98q143 0 230.5 -96t87.5 -258zM533 840v-55h-290v55h290z" />
    <glyph glyph-name="omacron" unicode="&#x14d;" horiz-adv-x="554" 
d="M439 238q0 85 -43.5 141.5t-118.5 56.5q-76 0 -119 -56t-43 -142q0 -85 43.5 -141.5t118.5 -56.5q76 0 119 56t43 142zM503 239q0 -109 -59.5 -180t-167.5 -71q-109 0 -167 69.5t-58 179.5q0 109 59.5 180t167.5 71q109 0 167 -69.5t58 -179.5zM407 643v-52h-260v52h260z
" />
    <glyph glyph-name="Obreve" unicode="&#x14e;" horiz-adv-x="776" 
d="M639 341q0 136 -67 217.5t-184 81.5t-184 -81.5t-67 -217.5t67 -217t184 -81t184 81t67 217zM707 342q0 -160 -89 -258t-231 -98q-143 0 -230.5 96t-87.5 258q0 160 89 258t231 98q143 0 230.5 -96t87.5 -258zM474 881h55q0 -63 -36.5 -98.5t-105.5 -35.5t-104.5 35
t-35.5 99h55q0 -79 86 -79t86 79z" />
    <glyph glyph-name="obreve" unicode="&#x14f;" horiz-adv-x="554" 
d="M439 238q0 85 -43.5 141.5t-118.5 56.5q-76 0 -119 -56t-43 -142q0 -85 43.5 -141.5t118.5 -56.5q76 0 119 56t43 142zM503 239q0 -109 -59.5 -180t-167.5 -71q-109 0 -167 69.5t-58 179.5q0 109 59.5 180t167.5 71q109 0 167 -69.5t58 -179.5zM358 686h51
q0 -132 -133 -132q-131 0 -131 132h51q0 -13 3 -24.5t10.5 -25.5t25 -22t42.5 -8t42.5 8t25 22t10.5 25.5t3 24.5z" />
    <glyph glyph-name="Ohungarumlaut" unicode="&#x150;" horiz-adv-x="776" 
d="M639 341q0 136 -67 217.5t-184 81.5t-184 -81.5t-67 -217.5t67 -217t184 -81t184 81t67 217zM707 342q0 -160 -89 -258t-231 -98q-143 0 -230.5 96t-87.5 258q0 160 89 258t231 98q143 0 230.5 -96t87.5 -258zM248 751l78 130h90l-108 -130h-60zM446 751l94 130h95
l-125 -130h-64z" />
    <glyph glyph-name="ohungarumlaut" unicode="&#x151;" horiz-adv-x="554" 
d="M439 238q0 85 -43.5 141.5t-118.5 56.5q-76 0 -119 -56t-43 -142q0 -85 43.5 -141.5t118.5 -56.5q76 0 119 56t43 142zM503 239q0 -109 -59.5 -180t-167.5 -71q-109 0 -167 69.5t-58 179.5q0 109 59.5 180t167.5 71q109 0 167 -69.5t58 -179.5zM158 551l69 140h80
l-93 -140h-56zM326 551l85 140h87l-114 -140h-58z" />
    <glyph glyph-name="OE" unicode="&#x152;" horiz-adv-x="1127" 
d="M1059 0h-440v122h-1q-34 -63 -96 -99.5t-145 -36.5q-138 0 -223 96t-85 258q0 160 86.5 258t223.5 98q83 0 144 -34t95 -93h1v113h423v-57h-359v-249h312v-54h-312v-264h376v-58zM619 341q0 136 -64.5 217.5t-176.5 81.5t-176.5 -81.5t-64.5 -217.5t64.5 -217t176.5 -81
t176.5 81t64.5 217z" />
    <glyph glyph-name="oe" unicode="&#x153;" horiz-adv-x="907" 
d="M815 126l47 -32q-37 -56 -85.5 -81t-116.5 -25q-139 0 -191 125q-25 -58 -74 -91.5t-119 -33.5q-109 0 -167 69.5t-58 179.5q0 109 59.5 180t167.5 71q139 0 191 -123q25 58 72 90.5t113 32.5q55 0 97 -21.5t64.5 -55t33 -67.5t10.5 -66q0 -30 -4 -50h-355q1 -85 46 -136
t116 -51q100 0 153 85zM277 40q76 0 119 56t43 142q0 85 -43.5 141.5t-118.5 56.5q-76 0 -119 -56t-43 -142q0 -85 43.5 -141.5t118.5 -56.5zM502 278h292q0 65 -38.5 111.5t-104.5 46.5q-63 0 -102.5 -41.5t-46.5 -116.5z" />
    <glyph glyph-name="Racute" unicode="&#x154;" horiz-adv-x="689" 
d="M649 0h-84l-231 285h-156v-285h-64v682q14 0 107.5 0.5t140.5 0.5q131 0 192 -53t61 -145q0 -83 -53 -133.5t-149 -62.5zM178 625v-282q54 -2 174 -2q107 0 151 36t44 107q0 64 -40.5 103t-146.5 39q-125 0 -182 -1zM303 751l94 130h95l-126 -130h-63z" />
    <glyph glyph-name="racute" unicode="&#x155;" horiz-adv-x="336" 
d="M146 0h-60v241q0 115 -3 235h59l2 -98h1q31 55 74 82t87 27q10 0 13 -1v-68h-14q-61 0 -103 -42q-36 -36 -46 -83.5t-10 -118.5v-174zM158 551l85 140h86l-113 -140h-58z" />
    <glyph glyph-name="Rcommaaccent" unicode="&#x156;" horiz-adv-x="689" 
d="M649 0h-84l-231 285h-156v-285h-64v682q14 0 107.5 0.5t140.5 0.5q131 0 192 -53t61 -145q0 -83 -53 -133.5t-149 -62.5zM178 625v-282q54 -2 174 -2q107 0 151 36t44 107q0 64 -40.5 103t-146.5 39q-125 0 -182 -1zM329 -55h66v-75q0 -35 -18.5 -58.5t-61.5 -23.5h-17
v36h17q34 0 34 40h-20v81z" />
    <glyph glyph-name="rcommaaccent" unicode="&#x157;" horiz-adv-x="336" 
d="M146 0h-60v241q0 115 -3 235h59l2 -98h1q31 55 74 82t87 27q10 0 13 -1v-68h-14q-61 0 -103 -42q-36 -36 -46 -83.5t-10 -118.5v-174zM85 -55h62v-75q0 -82 -78 -82h-17v36h20q33 0 33 42h-20v79z" />
    <glyph glyph-name="Rcaron" unicode="&#x158;" horiz-adv-x="689" 
d="M649 0h-84l-231 285h-156v-285h-64v682q14 0 107.5 0.5t140.5 0.5q131 0 192 -53t61 -145q0 -83 -53 -133.5t-149 -62.5zM178 625v-282q54 -2 174 -2q107 0 151 36t44 107q0 64 -40.5 103t-146.5 39q-125 0 -182 -1zM494 881l-118 -130h-60l-118 130h65l83 -76l83 76h65z
" />
    <glyph glyph-name="rcaron" unicode="&#x159;" horiz-adv-x="336" 
d="M146 0h-60v241q0 115 -3 235h59l2 -98h1q31 55 74 82t87 27q10 0 13 -1v-68h-14q-61 0 -103 -42q-36 -36 -46 -83.5t-10 -118.5v-174zM335 691l-99 -140h-75l-98 140h61l76 -93l76 93h59z" />
    <glyph glyph-name="Sacute" unicode="&#x15a;" horiz-adv-x="651" 
d="M62 119l45 45q99 -122 236 -122q77 0 124.5 35.5t47.5 95.5q0 42 -23.5 70.5t-61 43.5t-82.5 26.5t-90.5 25t-83 33.5t-61 58t-23.5 92q0 79 62 126.5t158 47.5q138 0 243 -102l-44 -46q-85 92 -200 92q-73 0 -113.5 -31t-40.5 -85q0 -56 44 -87.5t106.5 -46t124.5 -32.5
t106 -63t44 -120q0 -85 -69.5 -137t-168.5 -52q-165 0 -280 133zM272 751l94 130h95l-126 -130h-63z" />
    <glyph glyph-name="sacute" unicode="&#x15b;" horiz-adv-x="482" 
d="M49 75l39 44q71 -79 164 -79q52 0 82 22t30 61q0 37 -30.5 57.5t-74 30t-87 22t-74 44.5t-30.5 85q0 58 46 92t115 34q104 0 180 -70l-40 -42q-60 60 -141 60q-47 0 -73 -20t-26 -53q0 -36 30.5 -56.5t74 -30t87 -22t74 -44.5t30.5 -86q0 -63 -50.5 -99.5t-123.5 -36.5
q-118 0 -202 87zM194 551l85 140h86l-113 -140h-58z" />
    <glyph glyph-name="Scircumflex" unicode="&#x15c;" horiz-adv-x="651" 
d="M62 119l45 45q99 -122 236 -122q77 0 124.5 35.5t47.5 95.5q0 42 -23.5 70.5t-61 43.5t-82.5 26.5t-90.5 25t-83 33.5t-61 58t-23.5 92q0 79 62 126.5t158 47.5q138 0 243 -102l-44 -46q-85 92 -200 92q-73 0 -113.5 -31t-40.5 -85q0 -56 44 -87.5t106.5 -46t124.5 -32.5
t106 -63t44 -120q0 -85 -69.5 -137t-168.5 -52q-165 0 -280 133zM164 751l119 130h58l119 -130h-66l-82 76l-82 -76h-66z" />
    <glyph glyph-name="scircumflex" unicode="&#x15d;" horiz-adv-x="482" 
d="M49 75l39 44q71 -79 164 -79q52 0 82 22t30 61q0 37 -30.5 57.5t-74 30t-87 22t-74 44.5t-30.5 85q0 58 46 92t115 34q104 0 180 -70l-40 -42q-60 60 -141 60q-47 0 -73 -20t-26 -53q0 -36 30.5 -56.5t74 -30t87 -22t74 -44.5t30.5 -86q0 -63 -50.5 -99.5t-123.5 -36.5
q-118 0 -202 87zM96 551l99 140h75l98 -140h-61l-76 93l-76 -93h-59z" />
    <glyph glyph-name="Scedilla" unicode="&#x15e;" horiz-adv-x="651" 
d="M335 -210h-69q1 1 8 7.5t9 8.5l8.5 8.5t8.5 9.5t7 8.5t7 9.5l4.5 9t3.5 9.5t1 8.5q0 30 -53 52l38 67q-75 7 -133 38t-113 93l45 45q98 -122 236 -122q77 0 124.5 35.5t47.5 95.5q0 42 -23.5 70.5t-61 43.5t-82.5 26.5t-90.5 25t-83 33.5t-61 58t-23.5 92q0 79 62 126.5
t158 47.5q138 0 243 -102l-44 -46q-85 92 -200 92q-73 0 -113.5 -31t-40.5 -85q0 -56 44 -87.5t106.5 -46t124.5 -32.5t106 -63t44 -120q0 -79 -61 -130t-152 -58l-24 -42q44 -31 44 -72q0 -20 -16.5 -44.5t-35.5 -38.5z" />
    <glyph glyph-name="scedilla" unicode="&#x15f;" horiz-adv-x="482" 
d="M244 -210h-66q19 15 37.5 38t18.5 41q0 16 -12 27.5t-40 25.5l39 68q-98 10 -172 85l39 44q71 -79 164 -79q52 0 82 22t30 61q0 37 -30.5 57.5t-74 30t-87 22t-74 44.5t-30.5 85q0 58 46 92t115 34q101 0 180 -70l-40 -42q-63 60 -141 60q-47 0 -73 -20t-26 -53
q0 -36 30.5 -56.5t74 -30t87 -22t74 -44.5t30.5 -86q0 -57 -41.5 -92.5t-105.5 -41.5l-26 -45q43 -30 43 -72q0 -20 -14.5 -43.5t-36.5 -39.5z" />
    <glyph glyph-name="Scaron" unicode="&#x160;" horiz-adv-x="651" 
d="M62 119l45 45q99 -122 236 -122q77 0 124.5 35.5t47.5 95.5q0 42 -23.5 70.5t-61 43.5t-82.5 26.5t-90.5 25t-83 33.5t-61 58t-23.5 92q0 79 62 126.5t158 47.5q138 0 243 -102l-44 -46q-85 92 -200 92q-73 0 -113.5 -31t-40.5 -85q0 -56 44 -87.5t106.5 -46t124.5 -32.5
t106 -63t44 -120q0 -85 -69.5 -137t-168.5 -52q-165 0 -280 133zM460 881l-118 -130h-60l-118 130h65l83 -76l83 76h65z" />
    <glyph glyph-name="scaron" unicode="&#x161;" horiz-adv-x="482" 
d="M49 75l39 44q71 -79 164 -79q52 0 82 22t30 61q0 37 -30.5 57.5t-74 30t-87 22t-74 44.5t-30.5 85q0 58 46 92t115 34q104 0 180 -70l-40 -42q-60 60 -141 60q-47 0 -73 -20t-26 -53q0 -36 30.5 -56.5t74 -30t87 -22t74 -44.5t30.5 -86q0 -63 -50.5 -99.5t-123.5 -36.5
q-118 0 -202 87zM366 691l-99 -140h-75l-98 140h61l76 -93l76 93h59z" />
    <glyph glyph-name="Tcommaaccent" unicode="&#x162;" horiz-adv-x="532" 
d="M234 0v625h-242v57h548v-57h-242v-625h-64zM228 -55h66v-75q0 -35 -18.5 -58.5t-61.5 -23.5h-17v36h17q34 0 34 40h-20v81z" />
    <glyph glyph-name="tcommaaccent" unicode="&#x163;" horiz-adv-x="343" 
d="M112 426h-104v50h104v170l60 18v-188h147v-50h-147v-241q0 -70 3.5 -93t16.5 -36q15 -15 46 -15q50 0 81 18v-54q-34 -16 -88 -16q-62 0 -90.5 33.5t-28.5 111.5v292zM183 -55h62v-75q0 -82 -78 -82h-17v36h20q33 0 33 42h-20v79z" />
    <glyph glyph-name="Tcaron" unicode="&#x164;" horiz-adv-x="532" 
d="M234 0v625h-242v57h548v-57h-242v-625h-64zM409 881l-118 -130h-60l-118 130h65l83 -76l83 76h65z" />
    <glyph glyph-name="tcaron" unicode="&#x165;" horiz-adv-x="343" 
d="M112 426h-104v50h104v170l60 18v-188h147v-50h-147v-241q0 -70 3.5 -93t16.5 -36q15 -15 46 -15q50 0 81 18v-54q-34 -16 -88 -16q-62 0 -90.5 33.5t-28.5 111.5v292zM236 569l36 187h67l-53 -187h-50z" />
    <glyph glyph-name="Tbar" unicode="&#x166;" horiz-adv-x="532" 
d="M298 0h-64v323h-195v53h195v249h-242v57h548v-57h-242v-249h195v-53h-195v-323z" />
    <glyph glyph-name="tbar" unicode="&#x167;" horiz-adv-x="343" 
d="M112 268v158h-104v50h104v170l60 18v-188h147v-50h-147v-158h121v-49h-121v-34q0 -70 3.5 -93t16.5 -36q15 -15 46 -15q50 0 81 18v-54q-34 -16 -88 -16q-62 0 -90.5 33.5t-28.5 111.5v85h-95v49h95z" />
    <glyph glyph-name="Utilde" unicode="&#x168;" horiz-adv-x="728" 
d="M171 682v-427q0 -102 48 -157t146 -55q97 0 145.5 55.5t48.5 156.5v427h61v-429q0 -126 -66.5 -196.5t-190.5 -70.5q-71 0 -122.5 21.5t-79.5 59t-41 82t-13 97.5v436h64zM294 822q-20 0 -30.5 -19t-10.5 -46h-52q0 51 23.5 85t71.5 34q30 0 56.5 -17t47 -34.5
t34.5 -17.5q20 0 30.5 19t10.5 46h52q0 -51 -23.5 -85t-71.5 -34q-30 0 -56.5 17.5t-47 34.5t-34.5 17z" />
    <glyph glyph-name="utilde" unicode="&#x169;" horiz-adv-x="548" 
d="M465 0h-59l-2 73h-1q-48 -85 -153 -85q-81 0 -125.5 47t-44.5 142v299h60v-275q0 -70 17 -104q29 -57 100 -57q58 0 94 36q51 51 51 174v226h60v-241q0 -124 3 -235zM213 628q-39 0 -39 -64h-50q0 50 23 82.5t68 32.5q27 0 50 -17t40.5 -34t29.5 -17q39 0 39 64h50
q0 -50 -23 -82.5t-68 -32.5q-27 0 -50 17t-40.5 34t-29.5 17z" />
    <glyph glyph-name="Umacron" unicode="&#x16a;" horiz-adv-x="728" 
d="M171 682v-427q0 -102 48 -157t146 -55q97 0 145.5 55.5t48.5 156.5v427h61v-429q0 -126 -66.5 -196.5t-190.5 -70.5q-71 0 -122.5 21.5t-79.5 59t-41 82t-13 97.5v436h64zM509 840v-55h-290v55h290z" />
    <glyph glyph-name="umacron" unicode="&#x16b;" horiz-adv-x="548" 
d="M465 0h-59l-2 73h-1q-48 -85 -153 -85q-81 0 -125.5 47t-44.5 142v299h60v-275q0 -70 17 -104q29 -57 100 -57q58 0 94 36q51 51 51 174v226h60v-241q0 -124 3 -235zM404 643v-52h-260v52h260z" />
    <glyph glyph-name="Ubreve" unicode="&#x16c;" horiz-adv-x="728" 
d="M171 682v-427q0 -102 48 -157t146 -55q97 0 145.5 55.5t48.5 156.5v427h61v-429q0 -126 -66.5 -196.5t-190.5 -70.5q-71 0 -122.5 21.5t-79.5 59t-41 82t-13 97.5v436h64zM450 881h55q0 -63 -36.5 -98.5t-105.5 -35.5t-104.5 35t-35.5 99h55q0 -79 86 -79t86 79z" />
    <glyph glyph-name="ubreve" unicode="&#x16d;" horiz-adv-x="548" 
d="M465 0h-59l-2 73h-1q-48 -85 -153 -85q-81 0 -125.5 47t-44.5 142v299h60v-275q0 -70 17 -104q29 -57 100 -57q58 0 94 36q51 51 51 174v226h60v-241q0 -124 3 -235zM355 686h51q0 -132 -133 -132q-131 0 -131 132h51q0 -13 3 -24.5t10.5 -25.5t25 -22t42.5 -8t42.5 8
t25 22t10.5 25.5t3 24.5z" />
    <glyph glyph-name="Uring" unicode="&#x16e;" horiz-adv-x="728" 
d="M171 682v-427q0 -102 48 -157t146 -55q97 0 145.5 55.5t48.5 156.5v427h61v-429q0 -126 -66.5 -196.5t-190.5 -70.5q-71 0 -122.5 21.5t-79.5 59t-41 82t-13 97.5v436h64zM461 835q0 -38 -26.5 -65t-71.5 -27q-46 0 -71 25.5t-25 65.5q0 38 26.5 65t71.5 27
q46 0 71 -25.5t25 -65.5zM411 834q0 21 -12.5 35t-34.5 14t-34.5 -14t-12.5 -35t12.5 -34.5t34.5 -13.5t34.5 13.5t12.5 34.5z" />
    <glyph glyph-name="uring" unicode="&#x16f;" horiz-adv-x="548" 
d="M465 0h-59l-2 73h-1q-48 -85 -153 -85q-81 0 -125.5 47t-44.5 142v299h60v-275q0 -70 17 -104q29 -57 100 -57q58 0 94 36q51 51 51 174v226h60v-241q0 -124 3 -235zM371 640q0 -38 -26.5 -65t-71.5 -27q-46 0 -71 25.5t-25 65.5q0 38 26.5 65t71.5 27q46 0 71 -25.5
t25 -65.5zM321 639q0 21 -12.5 35t-34.5 14t-34.5 -14t-12.5 -35t12.5 -34.5t34.5 -13.5t34.5 13.5t12.5 34.5z" />
    <glyph glyph-name="Uhungarumlaut" unicode="&#x170;" horiz-adv-x="728" 
d="M171 682v-427q0 -102 48 -157t146 -55q97 0 145.5 55.5t48.5 156.5v427h61v-429q0 -126 -66.5 -196.5t-190.5 -70.5q-71 0 -122.5 21.5t-79.5 59t-41 82t-13 97.5v436h64zM220 751l78 130h90l-108 -130h-60zM418 751l94 130h95l-125 -130h-64z" />
    <glyph glyph-name="uhungarumlaut" unicode="&#x171;" horiz-adv-x="548" 
d="M465 0h-59l-2 73h-1q-48 -85 -153 -85q-81 0 -125.5 47t-44.5 142v299h60v-275q0 -70 17 -104q29 -57 100 -57q58 0 94 36q51 51 51 174v226h60v-241q0 -124 3 -235zM147 551l69 140h80l-93 -140h-56zM315 551l85 140h87l-114 -140h-58z" />
    <glyph glyph-name="Uogonek" unicode="&#x172;" horiz-adv-x="728" 
d="M509 -163v-46q-22 -7 -59 -7q-55 0 -76 19.5t-21 53.5q0 61 71 137q-28 -8 -61 -8q-71 0 -122.5 21.5t-79.5 59t-41 82t-13 97.5v436h64v-427q0 -102 48 -157t146 -55q97 0 145.5 55.5t48.5 156.5v427h61v-429q0 -131 -68 -199q-9 -9 -27.5 -26t-28.5 -27
q-80 -80 -80 -138q0 -26 37 -26h56z" />
    <glyph glyph-name="uogonek" unicode="&#x173;" horiz-adv-x="548" 
d="M407 4l-2 69h-1q-49 -85 -154 -85q-81 0 -125.5 47t-44.5 142v299h60v-275q0 -70 17 -104q29 -57 100 -57q58 0 94 36q51 51 51 174v226h60v-240q0 -162 3 -236q-51 -54 -67 -84t-16 -55q0 -27 38 -27h53v-44q-28 -6 -55 -6q-55 0 -75.5 19.5t-20.5 53.5q0 33 20.5 66.5
t64.5 80.5z" />
    <glyph glyph-name="Wcircumflex" unicode="&#x174;" horiz-adv-x="1027" 
d="M324 0h-69l-218 682h72l97 -321q8 -27 41 -132.5t46 -150.5h1q17 56 90 284l103 320h53l107 -321q72 -214 93 -283h1q11 40 41 141t42 141l97 322h69l-218 -682h-69l-157 470q-16 46 -33 114h-1q-9 -34 -35 -114zM365 751l119 130h58l119 -130h-66l-82 76l-82 -76h-66z
" />
    <glyph glyph-name="wcircumflex" unicode="&#x175;" horiz-adv-x="816" 
d="M604 0h-49l-92 233q-42 109 -59 157h-2q-14 -44 -55 -157l-87 -233h-49l-187 476h71l89 -243q31 -85 53 -150h1q26 79 53 151l89 242h50l90 -232q56 -144 62 -161h1q26 77 56 159l83 234h69zM271 551l99 140h75l98 -140h-61l-76 93l-76 -93h-59z" />
    <glyph glyph-name="Ycircumflex" unicode="&#x176;" horiz-adv-x="598" 
d="M331 0h-64v294l-267 388h78l223 -329l223 329h74l-267 -388v-294zM151 751l119 130h58l119 -130h-66l-82 76l-82 -76h-66z" />
    <glyph glyph-name="ycircumflex" unicode="&#x177;" horiz-adv-x="481" 
d="M179 -210h-65l100 210l-199 476h70l83 -203q33 -80 75 -202h1q31 98 74 202l83 203h65zM105 551l99 140h75l98 -140h-61l-76 93l-76 -93h-59z" />
    <glyph glyph-name="Ydieresis" unicode="&#x178;" horiz-adv-x="598" 
d="M331 0h-64v294l-267 388h78l223 -329l223 329h74l-267 -388v-294zM222 764h-66v108h66v-108zM442 764h-66v108h66v-108z" />
    <glyph glyph-name="Zacute" unicode="&#x179;" horiz-adv-x="628" 
d="M581 60v-60h-534v60l445 564q-84 -1 -261 -1h-169v59h504v-59l-445 -564q90 1 253 1h207zM257 751l94 130h95l-126 -130h-63z" />
    <glyph glyph-name="zacute" unicode="&#x17a;" horiz-adv-x="484" 
d="M437 53v-53h-390v53l308 372q-51 -1 -152 -1h-145v52h364v-52l-308 -372q58 1 178 1h145zM197 551l85 140h86l-113 -140h-58z" />
    <glyph glyph-name="Zdotaccent" unicode="&#x17b;" horiz-adv-x="628" 
d="M581 60v-60h-534v60l445 564q-84 -1 -261 -1h-169v59h504v-59l-445 -564q90 1 253 1h207zM349 764h-66v108h66v-108z" />
    <glyph glyph-name="zdotaccent" unicode="&#x17c;" horiz-adv-x="484" 
d="M437 53v-53h-390v53l308 372q-51 -1 -152 -1h-145v52h364v-52l-308 -372q58 1 178 1h145zM264 569h-62v108h62v-108z" />
    <glyph glyph-name="Zcaron" unicode="&#x17d;" horiz-adv-x="628" 
d="M581 60v-60h-534v60l445 564q-84 -1 -261 -1h-169v59h504v-59l-445 -564q90 1 253 1h207zM464 881l-118 -130h-60l-118 130h65l83 -76l83 76h65z" />
    <glyph glyph-name="zcaron" unicode="&#x17e;" horiz-adv-x="484" 
d="M437 53v-53h-390v53l308 372q-51 -1 -152 -1h-145v52h364v-52l-308 -372q58 1 178 1h145zM378 691l-99 -140h-75l-98 140h61l76 -93l76 93h59z" />
    <glyph glyph-name="longs" unicode="&#x17f;" horiz-adv-x="253" 
d="M146 0h-60v578q0 138 126 138q43 0 80 -14v-54q-43 16 -80 16t-51.5 -21t-14.5 -69v-574z" />
    <glyph glyph-name="uni018F" unicode="&#x18f;" horiz-adv-x="728" 
d="M125 518l-47 32q98 146 273 146q135 0 221.5 -97t86.5 -257q0 -156 -83.5 -256t-217.5 -100q-145 0 -221.5 95t-76.5 261q0 10 1 32h529q-8 122 -73 193.5t-168 71.5q-75 0 -129 -28.5t-95 -92.5zM360 43q102 0 163.5 73.5t66.5 201.5h-462q6 -126 62.5 -200.5
t169.5 -74.5z" />
    <glyph glyph-name="florin" unicode="&#x192;" horiz-adv-x="522" 
d="M437 375v-51h-174l-27 -209q-15 -117 -30 -154q-33 -82 -128 -86h-10q-52 0 -93 19l18 53q38 -18 79 -18q21 0 36 8t25 20.5t17.5 38t12 51t10.5 68.5l27 209h-144v51h151l14 104q15 117 30 154q33 82 128 86h10q52 0 93 -19l-18 -53q-40 18 -79 18q-21 0 -36 -8
t-25 -20.5t-17.5 -38t-12 -51t-10.5 -68.5l-14 -104h167z" />
    <glyph glyph-name="Gcaron" unicode="&#x1e6;" horiz-adv-x="753" 
d="M651 0h-61v116h-1q-28 -59 -85 -94.5t-131 -35.5q-133 0 -218.5 96t-85.5 258q0 159 88 257.5t222 98.5q180 0 266 -161l-53 -33q-71 138 -220 138q-107 0 -171 -84t-64 -215q0 -138 66 -218.5t173 -80.5q93 0 151 70.5t58 172.5v23h-207v54h273v-362zM526 881l-118 -130
h-60l-118 130h65l83 -76l83 76h65z" />
    <glyph glyph-name="gcaron" unicode="&#x1e7;" horiz-adv-x="577" 
d="M437 476h61q-7 -74 -7 -236v-260q0 -92 -49.5 -145.5t-154.5 -53.5q-144 0 -221 125l56 32q58 -105 167 -105q71 0 107 38.5t36 105.5q0 16 0.5 49t0.5 47h-1q-50 -85 -162 -85q-103 0 -160.5 69t-57.5 178q0 118 60.5 185.5t158.5 67.5q105 0 161 -83h1zM432 227v21
q0 83 -43.5 135.5t-115.5 52.5q-75 0 -116 -54t-41 -145q0 -86 42.5 -141.5t118.5 -55.5q70 0 112.5 50t42.5 137zM410 691l-99 -140h-75l-98 140h61l76 -93l76 93h59z" />
    <glyph glyph-name="Aringacute" unicode="&#x1fa;" horiz-adv-x="635" 
d="M413 747q0 -61 -57 -83l260 -664h-72l-74 196h-308l-73 -196h-70l259 663q-57 18 -57 83q0 38 26 63.5t71 25.5q46 0 70.5 -24.5t24.5 -63.5zM247 425l-66 -176h269l-68 180q-57 153 -67 189h-1q-13 -49 -67 -193zM279 877l83 103h97l-116 -103h-64zM362 746
q0 21 -11.5 34t-33.5 13t-33.5 -13t-11.5 -33q0 -21 11.5 -34t33.5 -13t33.5 13t11.5 33z" />
    <glyph glyph-name="aringacute" unicode="&#x1fb;" horiz-adv-x="512" 
d="M372 197v37q-146 0 -200.5 -25t-54.5 -80q0 -41 27 -65t81 -24q67 0 107 47.5t40 109.5zM106 347l-45 35q73 106 197 106q89 0 131.5 -43.5t42.5 -118.5v-90q0 -119 3 -236h-59l-2 73h-1q-27 -39 -69 -62t-90 -23q-72 0 -116.5 38t-44.5 102q0 77 72.5 116.5t246.5 39.5
v39q0 113 -116 113q-93 0 -150 -89zM358 626q0 -38 -26.5 -65t-71.5 -27q-46 0 -71 25.5t-25 65.5q0 38 26.5 65t71.5 27q46 0 71 -25.5t25 -65.5zM308 625q0 21 -12.5 35t-34.5 14t-34.5 -14t-12.5 -35t12.5 -34.5t34.5 -13.5t34.5 13.5t12.5 34.5zM232 764l83 115h92
l-116 -115h-59z" />
    <glyph glyph-name="AEacute" unicode="&#x1fc;" horiz-adv-x="966" 
d="M337 682h544v-56h-359v-250h312v-54h-312v-265h376v-57h-440v195h-304l-99 -195h-72zM373 626l-192 -377h277v377h-85zM560 751l94 130h95l-126 -130h-63z" />
    <glyph glyph-name="aeacute" unicode="&#x1fd;" horiz-adv-x="839" 
d="M106 347l-45 35q73 106 197 106t158 -86q57 86 170 86q55 0 97 -21.5t64.5 -55t33 -67.5t10.5 -66q0 -30 -4 -50h-355q1 -85 46 -136t116 -51q100 0 153 85l47 -32q-37 -56 -85.5 -81t-116.5 -25q-134 0 -192 116q-57 -116 -186 -116q-72 0 -116.5 38t-44.5 102
q0 77 72.5 116.5t246.5 39.5v39q-2 113 -116 113q-93 0 -150 -89zM434 278h292q0 65 -38.5 111.5t-104.5 46.5q-63 0 -102.5 -41.5t-46.5 -116.5zM225 40q67 0 107 47.5t40 109.5v37q-146 0 -200.5 -25t-54.5 -80q0 -41 27 -65t81 -24zM394 551l85 140h86l-113 -140h-58z
" />
    <glyph glyph-name="Oslashacute" unicode="&#x1fe;" horiz-adv-x="776" 
d="M106 -13l-41 37l73 80q-69 94 -69 236q0 160 89 258t231 98q126 0 212 -78l69 77l40 -37l-73 -81q70 -92 70 -235q0 -160 -89 -258t-231 -98q-129 0 -212 77zM593 528l-376 -418q65 -67 171 -67q117 0 184 81t67 217q0 110 -46 187zM183 154l376 418q-66 68 -171 68
q-117 0 -184 -81.5t-67 -217.5q0 -112 46 -187zM345 751l94 130h95l-126 -130h-63z" />
    <glyph glyph-name="oslashacute" unicode="&#x1ff;" horiz-adv-x="554" 
d="M68 -32l-38 34l65 73q-44 63 -44 162q0 109 59.5 180t167.5 71q89 0 146 -49l62 69l38 -34l-66 -73q45 -66 45 -162q0 -109 -59.5 -180t-167.5 -71q-89 0 -147 48zM140 124l243 270q-44 42 -106 42q-76 0 -119 -56t-43 -142q0 -64 25 -114zM413 351l-242 -269
q40 -42 106 -42q76 0 119 56t43 142q0 64 -26 113zM239 551l85 140h86l-113 -140h-58z" />
    <glyph glyph-name="Scommaaccent" unicode="&#x218;" horiz-adv-x="651" 
d="M62 119l45 45q99 -122 236 -122q77 0 124.5 35.5t47.5 95.5q0 42 -23.5 70.5t-61 43.5t-82.5 26.5t-90.5 25t-83 33.5t-61 58t-23.5 92q0 79 62 126.5t158 47.5q138 0 243 -102l-44 -46q-85 92 -200 92q-73 0 -113.5 -31t-40.5 -85q0 -56 44 -87.5t106.5 -46t124.5 -32.5
t106 -63t44 -120q0 -85 -69.5 -137t-168.5 -52q-165 0 -280 133zM307 -55h66v-75q0 -35 -18.5 -58.5t-61.5 -23.5h-17v36h17q34 0 34 40h-20v81z" />
    <glyph glyph-name="scommaaccent" unicode="&#x219;" horiz-adv-x="482" 
d="M49 75l39 44q71 -79 164 -79q52 0 82 22t30 61q0 37 -30.5 57.5t-74 30t-87 22t-74 44.5t-30.5 85q0 58 46 92t115 34q104 0 180 -70l-40 -42q-60 60 -141 60q-47 0 -73 -20t-26 -53q0 -36 30.5 -56.5t74 -30t87 -22t74 -44.5t30.5 -86q0 -63 -50.5 -99.5t-123.5 -36.5
q-118 0 -202 87zM221 -55h62v-75q0 -82 -78 -82h-17v36h20q33 0 33 42h-20v79z" />
    <glyph glyph-name="uni021A" unicode="&#x21a;" horiz-adv-x="532" 
d="M234 0v625h-242v57h548v-57h-242v-625h-64zM228 -55h66v-75q0 -35 -18.5 -58.5t-61.5 -23.5h-17v36h17q34 0 34 40h-20v81z" />
    <glyph glyph-name="uni021B" unicode="&#x21b;" horiz-adv-x="343" 
d="M112 426h-104v50h104v170l60 18v-188h147v-50h-147v-241q0 -70 3.5 -93t16.5 -36q15 -15 46 -15q50 0 81 18v-54q-34 -16 -88 -16q-62 0 -90.5 33.5t-28.5 111.5v292zM183 -55h62v-75q0 -82 -78 -82h-17v36h20q33 0 33 42h-20v79z" />
    <glyph glyph-name="dotlessj" unicode="&#x237;" horiz-adv-x="243" 
d="M97 476h60v-512q0 -102 -26.5 -142t-93.5 -40q-29 0 -49 5v47h47q36 0 49 30t13 97v515z" />
    <glyph glyph-name="uni0259" unicode="&#x259;" horiz-adv-x="522" 
d="M92 350l-47 32q73 106 202 106q106 0 165 -68.5t59 -180.5t-58 -181.5t-160 -69.5q-55 0 -97 21.5t-64.5 55t-33 67.5t-10.5 66q0 30 4 50h355q-1 85 -46 136t-116 51q-96 0 -153 -85zM405 198h-292q0 -65 38.5 -111.5t104.5 -46.5q63 0 102.5 41.5t46.5 116.5z" />
    <glyph glyph-name="quoteleft" unicode="&#x2bb;" horiz-adv-x="249" 
d="M169 473h-89v109q0 95 16 134.5t72 78.5l27 -38q-40 -29 -52 -58t-12 -94h38v-132z" />
    <glyph glyph-name="quoteleft" unicode="&#x2018;" horiz-adv-x="249" 
d="M169 473h-89v109q0 95 16 134.5t72 78.5l27 -38q-40 -29 -52 -58t-12 -94h38v-132z" />
    <glyph glyph-name="quoteright" unicode="&#x2bc;" horiz-adv-x="249" 
d="M80 776h89v-109q0 -95 -17 -136t-72 -76l-27 37q40 28 52.5 57t12.5 95h-38v132z" />
    <glyph glyph-name="quoteright" unicode="&#x2019;" horiz-adv-x="249" 
d="M80 776h89v-109q0 -95 -17 -136t-72 -76l-27 37q40 28 52.5 57t12.5 95h-38v132z" />
    <glyph glyph-name="circumflex" unicode="&#x2c6;" horiz-adv-x="422" 
d="M75 551l99 140h75l98 -140h-61l-76 93l-76 -93h-59z" />
    <glyph glyph-name="caron" unicode="&#x2c7;" horiz-adv-x="422" 
d="M347 691l-99 -140h-75l-98 140h61l76 -93l76 93h59z" />
    <glyph glyph-name="breve" unicode="&#x2d8;" horiz-adv-x="428" 
d="M295 686h51q0 -132 -133 -132q-131 0 -131 132h51q0 -13 3 -24.5t10.5 -25.5t25 -22t42.5 -8t42.5 8t25 22t10.5 25.5t3 24.5z" />
    <glyph glyph-name="dotaccent" unicode="&#x2d9;" horiz-adv-x="228" 
d="M145 569h-62v108h62v-108z" />
    <glyph glyph-name="ring" unicode="&#x2da;" horiz-adv-x="384" 
d="M289 640q0 -38 -26.5 -65t-71.5 -27q-46 0 -71 25.5t-25 65.5q0 38 26.5 65t71.5 27q46 0 71 -25.5t25 -65.5zM239 639q0 21 -12.5 35t-34.5 14t-34.5 -14t-12.5 -35t12.5 -34.5t34.5 -13.5t34.5 13.5t12.5 34.5z" />
    <glyph glyph-name="ogonek" unicode="&#x2db;" horiz-adv-x="317" 
d="M150 0h62q-69 -104 -69 -139q0 -27 38 -27h53v-43q-26 -7 -55 -7q-55 0 -75.5 19.5t-20.5 53.5q0 46 67 143z" />
    <glyph glyph-name="tilde" unicode="&#x2dc;" horiz-adv-x="466" 
d="M172 628q-39 0 -39 -64h-50q0 50 23 82.5t68 32.5q27 0 50 -17t40.5 -34t29.5 -17q39 0 39 64h50q0 -50 -23 -82.5t-68 -32.5q-27 0 -50 17t-40.5 34t-29.5 17z" />
    <glyph glyph-name="hungarumlaut" unicode="&#x2dd;" horiz-adv-x="498" 
d="M79 551l69 140h80l-93 -140h-56zM247 551l85 140h87l-114 -140h-58z" />
    <glyph glyph-name="uni0312" unicode="&#x312;" horiz-adv-x="246" 
d="M145 569h-62v80q0 82 78 82h17v-36h-20q-33 0 -33 -42h20v-84z" />
    <glyph glyph-name="uni0315" unicode="&#x315;" horiz-adv-x="266" 
d="M82 569l36 187h67l-53 -187h-50z" />
    <glyph glyph-name="uni0326" unicode="&#x326;" horiz-adv-x="261" 
d="M116 -55h62v-75q0 -82 -78 -82h-17v36h20q33 0 33 42h-20v79z" />
    <glyph glyph-name="uni037E" unicode="&#x37e;" horiz-adv-x="288" 
d="M101 128h86v-105q0 -110 -14.5 -152.5t-74.5 -79.5l-27 37q43 30 54 58.5t11 113.5h-35v128zM187 348h-86v128h86v-128z" />
    <glyph glyph-name="tonos" unicode="&#x384;" horiz-adv-x="248" 
d="M83 551l13 140h69l-32 -140h-50z" />
    <glyph glyph-name="dieresistonos" unicode="&#x385;" horiz-adv-x="448" 
d="M145 569h-62v108h62v-108zM365 569h-62v108h62v-108zM187 569l13 140h69l-32 -140h-50z" />
    <glyph glyph-name="Alphatonos" unicode="&#x386;" horiz-adv-x="635" 
d="M286 682h63l267 -682h-72l-74 196h-308l-73 -196h-70zM247 425l-66 -176h269l-68 180q-57 153 -67 189h-1q-13 -49 -67 -193zM73 541l31 185h69l-50 -185h-50z" />
    <glyph glyph-name="anoteleia" unicode="&#x387;" horiz-adv-x="248" 
d="M166 365h-84v110h84v-110z" />
    <glyph glyph-name="Epsilontonos" unicode="&#x388;" horiz-adv-x="644" 
d="M114 0v682h445v-56h-381v-250h334v-54h-334v-265h398v-57h-462zM-43 541l31 185h69l-50 -185h-50z" />
    <glyph glyph-name="Etatonos" unicode="&#x389;" horiz-adv-x="752" 
d="M114 0v682h64v-300h396v300h64v-682h-64v324h-396v-324h-64zM-43 541l31 185h69l-50 -185h-50z" />
    <glyph glyph-name="Iotatonos" unicode="&#x38a;" horiz-adv-x="292" 
d="M114 0v682h64v-682h-64zM-43 541l31 185h69l-50 -185h-50z" />
    <glyph glyph-name="Omicrontonos" unicode="&#x38c;" horiz-adv-x="776" 
d="M639 341q0 136 -67 217.5t-184 81.5t-184 -81.5t-67 -217.5t67 -217t184 -81t184 81t67 217zM707 342q0 -160 -89 -258t-231 -98q-143 0 -230.5 96t-87.5 258q0 160 89 258t231 98q143 0 230.5 -96t87.5 -258zM-28 541l31 185h69l-50 -185h-50z" />
    <glyph glyph-name="Upsilontonos" unicode="&#x38e;" horiz-adv-x="682" 
d="M415 0h-64v294l-267 388h78l223 -329l223 329h74l-267 -388v-294zM-43 541l31 185h69l-50 -185h-50z" />
    <glyph glyph-name="Omegatonos" unicode="&#x38f;" horiz-adv-x="776" 
d="M318 0h-249v57h194v1q-189 104 -189 320q0 135 88.5 226.5t226.5 91.5q140 0 226.5 -89.5t86.5 -228.5q0 -208 -189 -320v-1h194v-57h-249v75q93 57 134.5 127t41.5 170q0 120 -66 194t-180 74q-115 0 -180.5 -72t-65.5 -196q0 -100 41.5 -169.5t134.5 -127.5v-75z
M-28 541l31 185h69l-50 -185h-50z" />
    <glyph glyph-name="iotadieresistonos" unicode="&#x390;" horiz-adv-x="242" 
d="M237 55v-54q-31 -12 -61 -12q-51 0 -73.5 29t-22.5 96v362h60v-358q0 -44 9 -60.5t35 -16.5q29 0 53 14zM43 569h-62v108h62v-108zM263 569h-62v108h62v-108zM85 569l13 140h69l-32 -140h-50z" />
    <glyph glyph-name="Alpha" unicode="&#x391;" horiz-adv-x="635" 
d="M286 682h63l267 -682h-72l-74 196h-308l-73 -196h-70zM247 425l-66 -176h269l-68 180q-57 153 -67 189h-1q-13 -49 -67 -193z" />
    <glyph glyph-name="Beta" unicode="&#x392;" horiz-adv-x="704" 
d="M178 319v-263q55 -1 176 -1q50 0 85 4.5t68.5 17t50.5 39.5t17 68q0 38 -14.5 64.5t-34 40t-54 20.5t-60 8.5t-67.5 1.5h-167zM178 626v-253h173q67 0 105.5 8t66.5 36q32 32 32 89q0 47 -31 78q-25 25 -70 34t-132 9q-100 0 -144 -1zM114 0v682q30 0 96 0.5t114 0.5
q101 0 158 -12t95 -50q44 -44 44 -109q0 -117 -116 -161q137 -31 137 -165q0 -57 -22.5 -95.5t-66 -58t-91 -26.5t-112.5 -7q-40 0 -119 0.5t-117 0.5z" />
    <glyph glyph-name="Gamma" unicode="&#x393;" horiz-adv-x="525" 
d="M114 0v682h406v-57h-342v-625h-64z" />
    <glyph glyph-name="Delta" unicode="&#x394;" horiz-adv-x="633" 
d="M596 54v-54h-559v51l250 631h61zM212 331l-104 -274h416l-104 272q-93 245 -105 289h-1q-14 -53 -102 -287z" />
    <glyph glyph-name="Delta" unicode="&#x2206;" horiz-adv-x="633" 
d="M596 54v-54h-559v51l250 631h61zM212 331l-104 -274h416l-104 272q-93 245 -105 289h-1q-14 -53 -102 -287z" />
    <glyph glyph-name="Epsilon" unicode="&#x395;" horiz-adv-x="644" 
d="M114 0v682h445v-56h-381v-250h334v-54h-334v-265h398v-57h-462z" />
    <glyph glyph-name="Zeta" unicode="&#x396;" horiz-adv-x="628" 
d="M581 60v-60h-534v60l445 564q-84 -1 -261 -1h-169v59h504v-59l-445 -564q90 1 253 1h207z" />
    <glyph glyph-name="Eta" unicode="&#x397;" horiz-adv-x="752" 
d="M114 0v682h64v-300h396v300h64v-682h-64v324h-396v-324h-64z" />
    <glyph glyph-name="Theta" unicode="&#x398;" horiz-adv-x="776" 
d="M528 320h-280v57h280v-57zM639 341q0 136 -67 217.5t-184 81.5t-184 -81.5t-67 -217.5t67 -217t184 -81t184 81t67 217zM707 342q0 -160 -89 -258t-231 -98q-143 0 -230.5 96t-87.5 258q0 160 89 258t231 98q143 0 230.5 -96t87.5 -258z" />
    <glyph glyph-name="Iota" unicode="&#x399;" horiz-adv-x="292" 
d="M114 0v682h64v-682h-64z" />
    <glyph glyph-name="Kappa" unicode="&#x39a;" horiz-adv-x="668" 
d="M558 682h87l-271 -263l291 -419h-80l-257 375l-150 -145v-230h-64v682h64v-373z" />
    <glyph glyph-name="Lambda" unicode="&#x39b;" horiz-adv-x="628" 
d="M284 682h60l266 -682h-73l-144 382q-70 188 -81 223h-1q-11 -35 -81 -223l-143 -382h-69z" />
    <glyph glyph-name="Mu" unicode="&#x39c;" horiz-adv-x="939" 
d="M114 0v682h103l152 -351q78 -180 100 -242h1q22 62 100 242l152 351h103v-682h-64v240q0 255 2 387h-2q-33 -77 -96 -225l-173 -402h-49l-174 403q-79 183 -95 224h-2q2 -132 2 -387v-240h-60z" />
    <glyph glyph-name="Nu" unicode="&#x39d;" horiz-adv-x="760" 
d="M646 0h-79l-259 399q-122 189 -136 211h-1q3 -135 3 -370v-240h-60v682h85l254 -388q58 -88 135 -212h1q-3 135 -3 370v230h60v-682z" />
    <glyph glyph-name="Xi" unicode="&#x39e;" horiz-adv-x="534" 
d="M447 384v-65h-360v65h360zM472 617h-410v65h410v-65zM47 65h440v-65h-440v65z" />
    <glyph glyph-name="Omicron" unicode="&#x39f;" horiz-adv-x="776" 
d="M639 341q0 136 -67 217.5t-184 81.5t-184 -81.5t-67 -217.5t67 -217t184 -81t184 81t67 217zM707 342q0 -160 -89 -258t-231 -98q-143 0 -230.5 96t-87.5 258q0 160 89 258t231 98q143 0 230.5 -96t87.5 -258z" />
    <glyph glyph-name="Pi" unicode="&#x3a0;" horiz-adv-x="752" 
d="M638 0h-64v626h-396v-626h-64v682h524v-682z" />
    <glyph glyph-name="Rho" unicode="&#x3a1;" horiz-adv-x="631" 
d="M552 481q0 72 -44 108.5t-145 36.5q-128 0 -185 -1v-288q58 -1 182 -1q102 0 147 37t45 108zM114 0v682q34 0 121 0.5t129 0.5q256 0 256 -200q0 -101 -68 -152t-195 -51q-110 0 -179 1v-281h-64z" />
    <glyph glyph-name="Sigma" unicode="&#x3a3;" horiz-adv-x="591" 
d="M544 60v-60h-486v60l232 282l-231 281v59h468v-59h-197q-126 0 -198 1l235 -282l-234 -283q70 1 188 1h223z" />
    <glyph glyph-name="Tau" unicode="&#x3a4;" horiz-adv-x="532" 
d="M234 0v625h-242v57h548v-57h-242v-625h-64z" />
    <glyph glyph-name="Upsilon" unicode="&#x3a5;" horiz-adv-x="598" 
d="M331 0h-64v294l-267 388h78l223 -329l223 329h74l-267 -388v-294z" />
    <glyph glyph-name="Phi" unicode="&#x3a6;" horiz-adv-x="951" 
d="M507 -50h-64v76q-181 6 -277.5 83.5t-96.5 230.5q0 151 97.5 229.5t276.5 85.5v77h64v-77q181 -5 278 -82.5t97 -230.5q0 -151 -97.5 -230t-277.5 -86v-76zM814 341q0 247 -307 258v-516q307 12 307 258zM137 341q0 -246 306 -258v516q-306 -12 -306 -258z" />
    <glyph glyph-name="Chi" unicode="&#x3a7;" horiz-adv-x="585" 
d="M5 0l248 360l-218 322h78l180 -271l183 271h74l-218 -317l248 -365h-78l-210 314l-212 -314h-75z" />
    <glyph glyph-name="Psi" unicode="&#x3a8;" horiz-adv-x="926" 
d="M431 0v165q-91 4 -156 27.5t-100.5 62t-51.5 82.5t-16 97v248h64v-239q0 -100 64.5 -157t195.5 -64v460h64v-460q131 7 195.5 64t64.5 157v239h64v-247q0 -53 -16 -97.5t-51.5 -83t-101 -62t-155.5 -27.5v-165h-64z" />
    <glyph glyph-name="Omega" unicode="&#x3a9;" horiz-adv-x="776" 
d="M318 0h-249v57h194v1q-189 104 -189 320q0 135 88.5 226.5t226.5 91.5q140 0 226.5 -89.5t86.5 -228.5q0 -208 -189 -320v-1h194v-57h-249v75q93 57 134.5 127t41.5 170q0 120 -66 194t-180 74q-115 0 -180.5 -72t-65.5 -196q0 -100 41.5 -169.5t134.5 -127.5v-75z" />
    <glyph glyph-name="Omega" unicode="&#x2126;" horiz-adv-x="776" 
d="M318 0h-249v57h194v1q-189 104 -189 320q0 135 88.5 226.5t226.5 91.5q140 0 226.5 -89.5t86.5 -228.5q0 -208 -189 -320v-1h194v-57h-249v75q93 57 134.5 127t41.5 170q0 120 -66 194t-180 74q-115 0 -180.5 -72t-65.5 -196q0 -100 41.5 -169.5t134.5 -127.5v-75z" />
    <glyph glyph-name="Iotadieresis" unicode="&#x3aa;" horiz-adv-x="292" 
d="M114 0v682h64v-682h-64zM69 764h-66v108h66v-108zM289 764h-66v108h66v-108z" />
    <glyph glyph-name="Upsilondieresis" unicode="&#x3ab;" horiz-adv-x="598" 
d="M331 0h-64v294l-267 388h78l223 -329l223 329h74l-267 -388v-294zM222 764h-66v108h66v-108zM442 764h-66v108h66v-108z" />
    <glyph glyph-name="alphatonos" unicode="&#x3ac;" horiz-adv-x="591" 
d="M586 55v-54q-32 -12 -61 -12q-85 0 -93 86h-1q-47 -87 -162 -87q-103 0 -160.5 69t-57.5 178q0 118 60.5 185.5t158.5 67.5q105 0 161 -83h1l3 71h61q-7 -138 -7 -236v-122q0 -44 9 -60.5t35 -16.5q29 0 53 14zM431 227v21q0 83 -43.5 135.5t-115.5 52.5q-75 0 -116 -54
t-41 -145q0 -86 42.5 -141.5t118.5 -55.5q70 0 112.5 50t42.5 137zM253 551l13 140h69l-32 -140h-50z" />
    <glyph glyph-name="epsilontonos" unicode="&#x3ad;" horiz-adv-x="474" 
d="M346 270v-50h-92q-137 0 -137 -87q0 -92 136 -92q110 0 160 77l51 -35q-64 -95 -214 -95q-96 0 -147.5 38t-51.5 106q0 38 26 69.5t78 43.5v1q-38 9 -61 37.5t-23 71.5q0 58 47.5 95.5t135.5 37.5q137 0 204 -92l-52 -33q-52 73 -154 73q-53 0 -85 -20t-32 -61
q0 -37 28.5 -61t90.5 -24h92zM223 551l13 140h69l-32 -140h-50z" />
    <glyph glyph-name="etatonos" unicode="&#x3ae;" horiz-adv-x="554" 
d="M474 -210h-60v485q0 70 -17 104q-29 57 -105 57q-59 0 -95 -36q-51 -51 -51 -174v-226h-60v241q0 115 -3 235h59l2 -73h1q48 85 156 85q83 0 128 -47t45 -142v-509zM254 551l13 140h69l-32 -140h-50z" />
    <glyph glyph-name="iotatonos" unicode="&#x3af;" horiz-adv-x="242" 
d="M237 55v-54q-31 -12 -61 -12q-51 0 -73.5 29t-22.5 96v362h60v-358q0 -44 9 -60.5t35 -16.5q29 0 53 14zM83 551l13 140h69l-32 -140h-50z" />
    <glyph glyph-name="upsilondieresistonos" unicode="&#x3b0;" horiz-adv-x="548" 
d="M140 476v-275q0 -71 17 -104q29 -57 117 -57q74 0 107 41q27 33 27 96v299h60v-299q0 -95 -50.5 -142t-143.5 -47q-103 0 -148.5 48t-45.5 141v299h60zM195 569h-62v108h62v-108zM415 569h-62v108h62v-108zM237 569l13 140h69l-32 -140h-50z" />
    <glyph glyph-name="alpha" unicode="&#x3b1;" horiz-adv-x="591" 
d="M586 55v-54q-32 -12 -61 -12q-85 0 -93 86h-1q-47 -87 -162 -87q-103 0 -160.5 69t-57.5 178q0 118 60.5 185.5t158.5 67.5q105 0 161 -83h1l3 71h61q-7 -138 -7 -236v-122q0 -44 9 -60.5t35 -16.5q29 0 53 14zM431 227v21q0 83 -43.5 135.5t-115.5 52.5q-75 0 -116 -54
t-41 -145q0 -86 42.5 -141.5t118.5 -55.5q70 0 112.5 50t42.5 137z" />
    <glyph glyph-name="beta" unicode="&#x3b2;" horiz-adv-x="557" 
d="M146 -210h-60v725q0 93 50.5 147t139.5 54q84 0 138 -45t54 -131q0 -109 -103 -152v-1q137 -34 137 -190q0 -88 -57.5 -148.5t-151.5 -60.5q-99 0 -148 72h-1q2 -28 2 -93v-177zM146 516v-305q0 -80 40 -125.5t110 -45.5q67 0 104.5 43.5t37.5 111.5q0 162 -170 162h-36
v50h38q63 0 98.5 37t35.5 94q0 59 -36.5 92.5t-92.5 33.5q-59 0 -94 -36.5t-35 -111.5z" />
    <glyph glyph-name="gamma" unicode="&#x3b3;" horiz-adv-x="484" 
d="M268 -210h-60v224l-193 462h70l83 -203q51 -123 77 -199h1q68 114 102.5 207.5t34.5 194.5h64q-4 -115 -48 -220.5t-131 -244.5v-221z" />
    <glyph glyph-name="delta" unicode="&#x3b4;" horiz-adv-x="554" 
d="M445 668l-31 -53q-68 49 -140 49q-93 0 -93 -64q0 -30 20 -50q22 -22 110 -53.5t121 -64.5q71 -71 71 -193q0 -109 -59.5 -180t-167.5 -71q-109 0 -167 69.5t-58 179.5q0 89 40 153t107 89q-26 13 -42 29q-39 39 -39 91q0 58 44 87.5t113 29.5q98 0 171 -48zM387 390
q-33 32 -122 63q-150 -48 -150 -215q0 -85 43.5 -141.5t118.5 -56.5q76 0 119 56t43 142q0 100 -52 152z" />
    <glyph glyph-name="epsilon" unicode="&#x3b5;" horiz-adv-x="474" 
d="M346 270v-50h-92q-137 0 -137 -87q0 -92 136 -92q110 0 160 77l51 -35q-64 -95 -214 -95q-96 0 -147.5 38t-51.5 106q0 38 26 69.5t78 43.5v1q-38 9 -61 37.5t-23 71.5q0 58 47.5 95.5t135.5 37.5q137 0 204 -92l-52 -33q-52 73 -154 73q-53 0 -85 -20t-32 -61
q0 -37 28.5 -61t90.5 -24h92z" />
    <glyph glyph-name="zeta" unicode="&#x3b6;" horiz-adv-x="420" 
d="M79 660v52h320v-51q-120 -99 -202 -212t-82 -209q0 -83 37 -120q28 -28 112 -50.5t117 -55.5t33 -82q0 -55 -38 -148l-58 12q32 89 32 134q0 28 -18 46t-60 29t-89 27t-76 45q-56 56 -56 144q0 112 70.5 217t200.5 222h-132h-111z" />
    <glyph glyph-name="eta" unicode="&#x3b7;" horiz-adv-x="554" 
d="M474 -210h-60v485q0 70 -17 104q-29 57 -105 57q-59 0 -95 -36q-51 -51 -51 -174v-226h-60v241q0 115 -3 235h59l2 -73h1q48 85 156 85q83 0 128 -47t45 -142v-509z" />
    <glyph glyph-name="theta" unicode="&#x3b8;" horiz-adv-x="560" 
d="M504 364q0 -181 -56.5 -278.5t-168.5 -97.5q-223 0 -223 364q0 172 57 268t168 96t167 -92t56 -260zM280 40q155 0 161 298h-323q2 -146 43 -222t119 -76zM280 665q-75 0 -115.5 -70.5t-45.5 -204.5h322q-4 132 -45 203.5t-116 71.5z" />
    <glyph glyph-name="iota" unicode="&#x3b9;" horiz-adv-x="242" 
d="M237 55v-54q-31 -12 -61 -12q-51 0 -73.5 29t-22.5 96v362h60v-358q0 -44 9 -60.5t35 -16.5q29 0 53 14z" />
    <glyph glyph-name="kappa" unicode="&#x3ba;" horiz-adv-x="511" 
d="M503 0h-77l-173 258l-107 -99v-159h-60v476h60v-248l263 248h79l-191 -177z" />
    <glyph glyph-name="lambda" unicode="&#x3bb;" horiz-adv-x="481" 
d="M223 582l243 -582h-70l-83 203q-51 124 -75 193h-1q-19 -61 -74 -193l-83 -203h-65l191 457l-40 96q-29 70 -48 90.5t-52 20.5q-19 0 -40 -6v52q22 6 43 6q55 0 88 -28t66 -106z" />
    <glyph glyph-name="nu" unicode="&#x3bd;" horiz-adv-x="484" 
d="M85 476l83 -203q51 -123 77 -199h1q68 114 102.5 207.5t34.5 194.5h64q-4 -115 -49 -222t-137 -254h-47l-199 476h70z" />
    <glyph glyph-name="xi" unicode="&#x3be;" horiz-adv-x="454" 
d="M363 407v-52h-87q-77 0 -117 -41t-40 -96q0 -61 37 -98q31 -31 126.5 -53.5t125.5 -52.5q33 -33 33 -82q0 -55 -38 -148l-58 12q32 89 32 134q0 28 -18 46q-14 14 -61.5 24.5t-101.5 28t-85 48.5q-56 56 -56 139q0 60 35.5 108t97.5 60v1q-48 16 -73.5 56.5t-25.5 90.5
q0 81 52 132.5t140 51.5q93 0 157 -62l-38 -46q-51 56 -122 56q-57 0 -91 -36.5t-34 -92.5q0 -57 37.5 -92.5t102.5 -35.5h70z" />
    <glyph glyph-name="omicron" unicode="&#x3bf;" horiz-adv-x="554" 
d="M439 238q0 85 -43.5 141.5t-118.5 56.5q-76 0 -119 -56t-43 -142q0 -85 43.5 -141.5t118.5 -56.5q76 0 119 56t43 142zM503 239q0 -109 -59.5 -180t-167.5 -71q-109 0 -167 69.5t-58 179.5q0 109 59.5 180t167.5 71q109 0 167 -69.5t58 -179.5z" />
    <glyph glyph-name="pi" unicode="&#x3c0;" horiz-adv-x="577" 
d="M545 48v-52q-18 -4 -35 -4q-72 0 -93.5 40t-27.5 163l-12 226h-187l-47 -421h-61l48 421h-94v55h499v-55h-101l16 -216q8 -108 19 -134.5t48 -26.5q15 0 28 4z" />
    <glyph glyph-name="rho" unicode="&#x3c1;" horiz-adv-x="567" 
d="M134 238q0 -89 44 -143.5t115 -54.5q76 0 117.5 52t41.5 145q0 91 -44 145t-117 54q-75 0 -116 -52.5t-41 -145.5zM134 -210h-60v459q0 116 64 177.5t158 61.5q100 0 160 -70t60 -179t-61.5 -180t-161.5 -71q-107 0 -160 85h-1q2 -34 2 -90v-193z" />
    <glyph glyph-name="sigma1" unicode="&#x3c2;" horiz-adv-x="467" 
d="M399 -216l-58 12q32 89 32 134q0 28 -18 46q-17 17 -61.5 24t-95 20.5t-83.5 46.5q-64 64 -64 181q0 113 56.5 176.5t146.5 63.5q125 0 185 -124l-54 -30q-43 102 -133 102q-62 0 -99.5 -49t-37.5 -137q0 -95 45 -140q26 -26 73.5 -36.5t95.5 -21.5t75 -38q33 -33 33 -82
q0 -55 -38 -148z" />
    <glyph glyph-name="sigma" unicode="&#x3c3;" horiz-adv-x="574" 
d="M548 476v-55h-60q-33 0 -53 2v-1q68 -70 68 -183q0 -109 -59.5 -180t-167.5 -71q-109 0 -167 69.5t-58 179.5q0 109 59.5 180t167.5 71q23 0 60.5 -6t79.5 -6h130zM439 238q0 85 -43.5 141.5t-118.5 56.5q-76 0 -119 -56t-43 -142q0 -85 43.5 -141.5t118.5 -56.5
q76 0 119 56t43 142z" />
    <glyph glyph-name="tau" unicode="&#x3c4;" horiz-adv-x="402" 
d="M388 421h-182v-242q0 -82 11.5 -110t59.5 -28q45 0 76 18v-54q-34 -16 -83 -16q-66 0 -95.5 33.5t-29.5 111.5q0 95 4 287h-135v55h374v-55z" />
    <glyph glyph-name="upsilon" unicode="&#x3c5;" horiz-adv-x="548" 
d="M140 476v-275q0 -71 17 -104q29 -57 117 -57q74 0 107 41q27 33 27 96v299h60v-299q0 -95 -50.5 -142t-143.5 -47q-103 0 -148.5 48t-45.5 141v299h60z" />
    <glyph glyph-name="phi" unicode="&#x3c6;" horiz-adv-x="728" 
d="M394 -210h-60v203q-142 7 -212.5 69.5t-70.5 172.5q0 111 71 176t212 72v229h60v-229q142 -7 212.5 -69.5t70.5 -172.5q0 -111 -71 -176t-212 -72v-203zM334 43v390q-46 -2 -84 -13t-69 -33t-48.5 -60t-17.5 -89t17.5 -89t48.5 -60t69 -33t84 -13zM394 433v-390
q46 2 84 13t69 33t48.5 60t17.5 89t-17.5 89t-48.5 60t-69 33t-84 13z" />
    <glyph glyph-name="chi" unicode="&#x3c7;" horiz-adv-x="445" 
d="M431 476l-172 -342l172 -344h-68l-144 288l-131 -288h-71l174 346l-171 340h68l142 -285l131 285h70z" />
    <glyph glyph-name="psi" unicode="&#x3c8;" horiz-adv-x="772" 
d="M423 712v-671q228 13 228 223q0 119 -24 212h64q24 -99 24 -209q0 -266 -292 -278v-199h-60v199q-151 7 -217 81.5t-66 186.5v219h60v-210q0 -102 55.5 -160t167.5 -65v671h60z" />
    <glyph glyph-name="omega" unicode="&#x3c9;" horiz-adv-x="824" 
d="M382 328h60v-135q0 -60 30 -106.5t95 -46.5q68 0 105.5 51t37.5 147q0 178 -164 204l16 52q100 -9 156 -74.5t56 -182.5q0 -116 -57 -182.5t-144 -66.5q-52 0 -100.5 27.5t-60.5 71.5h-2q-13 -45 -60 -72t-99 -27q-93 0 -147 65.5t-54 183.5q0 117 56 182.5t156 74.5
l16 -52q-82 -12 -123 -57t-41 -147q0 -95 38.5 -146.5t103.5 -51.5q68 0 97 46.5t29 106.5v135z" />
    <glyph glyph-name="iotadieresis" unicode="&#x3ca;" horiz-adv-x="242" 
d="M237 55v-54q-31 -12 -61 -12q-51 0 -73.5 29t-22.5 96v362h60v-358q0 -44 9 -60.5t35 -16.5q29 0 53 14zM60 569h-62v108h62v-108zM220 569h-62v108h62v-108z" />
    <glyph glyph-name="upsilondieresis" unicode="&#x3cb;" horiz-adv-x="548" 
d="M140 476v-275q0 -71 17 -104q29 -57 117 -57q74 0 107 41q27 33 27 96v299h60v-299q0 -95 -50.5 -142t-143.5 -47q-103 0 -148.5 48t-45.5 141v299h60zM215 569h-62v108h62v-108zM395 569h-62v108h62v-108z" />
    <glyph glyph-name="omicrontonos" unicode="&#x3cc;" horiz-adv-x="554" 
d="M253 551l13 140h69l-32 -140h-50zM439 238q0 85 -43.5 141.5t-118.5 56.5q-76 0 -119 -56t-43 -142q0 -85 43.5 -141.5t118.5 -56.5q76 0 119 56t43 142zM503 239q0 -109 -59.5 -180t-167.5 -71q-109 0 -167 69.5t-58 179.5q0 109 59.5 180t167.5 71q109 0 167 -69.5
t58 -179.5z" />
    <glyph glyph-name="upsilontonos" unicode="&#x3cd;" horiz-adv-x="548" 
d="M140 476v-275q0 -71 17 -104q29 -57 117 -57q74 0 107 41q27 33 27 96v299h60v-299q0 -95 -50.5 -142t-143.5 -47q-103 0 -148.5 48t-45.5 141v299h60zM242 551l13 140h69l-32 -140h-50z" />
    <glyph glyph-name="omegatonos" unicode="&#x3ce;" horiz-adv-x="824" 
d="M382 328h60v-135q0 -60 30 -106.5t95 -46.5q68 0 105.5 51t37.5 147q0 178 -164 204l16 52q100 -9 156 -74.5t56 -182.5q0 -116 -57 -182.5t-144 -66.5q-52 0 -100.5 27.5t-60.5 71.5h-2q-13 -45 -60 -72t-99 -27q-93 0 -147 65.5t-54 183.5q0 117 56 182.5t156 74.5
l16 -52q-82 -12 -123 -57t-41 -147q0 -95 38.5 -146.5t103.5 -51.5q68 0 97 46.5t29 106.5v135zM396 511l17 180h69l-41 -180h-45z" />
    <glyph glyph-name="uni0400" unicode="&#x400;" horiz-adv-x="644" 
d="M114 0v682h445v-56h-381v-250h334v-54h-334v-265h398v-57h-462zM307 881l94 -130h-64l-125 130h95z" />
    <glyph glyph-name="uni0401" unicode="&#x401;" horiz-adv-x="644" 
d="M114 0v682h445v-56h-381v-250h334v-54h-334v-265h398v-57h-462zM261 764h-66v108h66v-108zM481 764h-66v108h66v-108z" />
    <glyph glyph-name="uni0402" unicode="&#x402;" horiz-adv-x="729" 
d="M234 0v625h-242v57h548v-57h-242v-224q108 2 156 2q254 0 254 -200q0 -103 -58 -157.5t-154 -54.5q-42 0 -72 9v56q38 -8 73 -8q65 0 104 37.5t39 111.5q0 82 -47.5 116t-143.5 34q-51 0 -151 -2v-345h-64z" />
    <glyph glyph-name="uni0403" unicode="&#x403;" horiz-adv-x="525" 
d="M114 0v682h406v-57h-342v-625h-64zM249 751l94 130h95l-126 -130h-63z" />
    <glyph glyph-name="uni0404" unicode="&#x404;" horiz-adv-x="687" 
d="M488 318h-351q6 -126 72 -200.5t175 -74.5q158 0 211 141l55 -20q-32 -86 -101 -132t-167 -46q-139 0 -226 96.5t-87 257.5q0 88 27.5 158t72.5 112t99.5 64t112.5 22q87 0 156 -44t103 -121l-55 -29q-27 64 -82 101t-124 37q-97 0 -164.5 -70t-76.5 -196h350v-56z" />
    <glyph glyph-name="uni0405" unicode="&#x405;" horiz-adv-x="651" 
d="M62 119l45 45q99 -122 236 -122q77 0 124.5 35.5t47.5 95.5q0 42 -23.5 70.5t-61 43.5t-82.5 26.5t-90.5 25t-83 33.5t-61 58t-23.5 92q0 79 62 126.5t158 47.5q138 0 243 -102l-44 -46q-85 92 -200 92q-73 0 -113.5 -31t-40.5 -85q0 -56 44 -87.5t106.5 -46t124.5 -32.5
t106 -63t44 -120q0 -85 -69.5 -137t-168.5 -52q-165 0 -280 133z" />
    <glyph glyph-name="uni0406" unicode="&#x406;" horiz-adv-x="292" 
d="M114 0v682h64v-682h-64z" />
    <glyph glyph-name="uni0407" unicode="&#x407;" horiz-adv-x="292" 
d="M114 0v682h64v-682h-64zM69 764h-66v108h66v-108zM289 764h-66v108h66v-108z" />
    <glyph glyph-name="uni0408" unicode="&#x408;" horiz-adv-x="525" 
d="M353 682h64v-478q0 -103 -53.5 -160.5t-143.5 -57.5q-187 0 -204 213l64 14q7 -90 40 -130t102 -40q131 0 131 163v476z" />
    <glyph glyph-name="uni0409" unicode="&#x409;" horiz-adv-x="1066" 
d="M549 0v626h-289l-6 -166q-9 -268 -46.5 -369t-142.5 -101q-27 0 -46 6v54h44q44 0 68.5 32.5t39.5 122.5t20 261l7 216h415v-271q60 1 176 1q256 0 256 -204q0 -104 -68 -156.5t-195 -52.5q-100 0 -233 1zM613 355v-299q58 -1 172 -1q103 0 147.5 38t44.5 113
q0 76 -44 113t-145 37q-118 0 -175 -1z" />
    <glyph glyph-name="uni040A" unicode="&#x40a;" horiz-adv-x="1081" 
d="M564 0v324h-386v-324h-64v682h64v-300h386v300h64v-271q60 1 176 1q256 0 256 -204q0 -104 -68 -156.5t-195 -52.5q-90 0 -233 1zM628 355v-299q58 -1 172 -1q103 0 147.5 38t44.5 113q0 76 -44 113t-145 37q-118 0 -175 -1z" />
    <glyph glyph-name="uni040B" unicode="&#x40b;" horiz-adv-x="778" 
d="M713 0h-64v165q0 92 -40.5 130.5t-130.5 38.5h-180v-334h-64v625h-242v57h548v-57h-242v-235h186q108 0 168.5 -45.5t60.5 -154.5v-190z" />
    <glyph glyph-name="uni040C" unicode="&#x40c;" horiz-adv-x="662" 
d="M659 0h-87l-298 325h-96v-325h-64v682h64v-301h96l290 301h81l-316 -325zM298 751l94 130h95l-126 -130h-63z" />
    <glyph glyph-name="uni040D" unicode="&#x40d;" horiz-adv-x="752" 
d="M638 0h-64v587l-396 -587h-64v682h64v-587l396 587h64v-682zM335 881l94 -130h-64l-125 130h95z" />
    <glyph glyph-name="uni040E" unicode="&#x40e;" horiz-adv-x="605" 
d="M603 682l-245 -517q-47 -100 -95 -138t-121 -38q-19 0 -57 4v54h59q53 0 86.5 24.5t68.5 99.5l-284 511h73l244 -441l203 441h68zM422 881h62q-6 -62 -46 -98t-107 -36t-106 36t-45 98h62q4 -35 24.5 -62t65.5 -27t65.5 27t24.5 62z" />
    <glyph glyph-name="uni040F" unicode="&#x40f;" horiz-adv-x="736" 
d="M396 -156h-56v156h-226v682h64v-626h380v626h64v-682h-226v-156z" />
    <glyph glyph-name="uni0410" unicode="&#x410;" horiz-adv-x="635" 
d="M286 682h63l267 -682h-72l-74 196h-308l-73 -196h-70zM247 425l-66 -176h269l-68 180q-57 153 -67 189h-1q-13 -49 -67 -193z" />
    <glyph glyph-name="uni0411" unicode="&#x411;" horiz-adv-x="673" 
d="M178 345v-289q55 -1 161 -1q108 0 164.5 32.5t56.5 114.5t-56.5 113.5t-164.5 31.5q-105 0 -161 -2zM114 0v682h463v-56h-399v-225q58 2 167 2q132 0 207 -44.5t75 -154.5q0 -205 -292 -205q-40 0 -111.5 0.5t-109.5 0.5z" />
    <glyph glyph-name="uni0412" unicode="&#x412;" horiz-adv-x="704" 
d="M178 319v-263q55 -1 176 -1q50 0 85 4.5t68.5 17t50.5 39.5t17 68q0 38 -14.5 64.5t-34 40t-54 20.5t-60 8.5t-67.5 1.5h-167zM178 626v-253h173q67 0 105.5 8t66.5 36q32 32 32 89q0 47 -31 78q-25 25 -70 34t-132 9q-100 0 -144 -1zM114 0v682q30 0 96 0.5t114 0.5
q101 0 158 -12t95 -50q44 -44 44 -109q0 -117 -116 -161q137 -31 137 -165q0 -57 -22.5 -95.5t-66 -58t-91 -26.5t-112.5 -7q-40 0 -119 0.5t-117 0.5z" />
    <glyph glyph-name="uni0413" unicode="&#x413;" horiz-adv-x="525" 
d="M114 0v682h406v-57h-342v-625h-64z" />
    <glyph glyph-name="uni0414" unicode="&#x414;" horiz-adv-x="750" 
d="M735 -156h-56v156h-613v-156h-56v212h84q47 81 65 170.5t20 235.5l4 220h429v-626h123v-212zM548 56v570h-303l-3 -169q-2 -145 -18.5 -234.5t-56.5 -166.5h381z" />
    <glyph glyph-name="uni0415" unicode="&#x415;" horiz-adv-x="644" 
d="M114 0v682h445v-56h-381v-250h334v-54h-334v-265h398v-57h-462z" />
    <glyph glyph-name="uni0416" unicode="&#x416;" horiz-adv-x="926" 
d="M923 0h-81l-253 325h-93v-325h-64v325h-97l-253 -325h-79l282 356l-268 326h79l242 -301h94v301h64v-301h94l242 301h77l-266 -323z" />
    <glyph glyph-name="uni0417" unicode="&#x417;" horiz-adv-x="638" 
d="M36 115l54 36q34 -53 93 -80.5t130 -27.5q91 0 143.5 34.5t52.5 103.5q0 138 -208 138h-112v54h109q93 0 141.5 34t48.5 99q0 63 -46.5 98t-130.5 35q-135 0 -212 -103l-48 36q97 124 261 124q115 0 179 -50.5t64 -134.5q0 -59 -33.5 -101.5t-92.5 -58.5
q71 -15 109 -57.5t38 -107.5q0 -91 -70.5 -145.5t-193.5 -54.5q-86 0 -161 33t-115 96z" />
    <glyph glyph-name="uni0418" unicode="&#x418;" horiz-adv-x="752" 
d="M638 0h-64v587l-396 -587h-64v682h64v-587l396 587h64v-682z" />
    <glyph glyph-name="uni0419" unicode="&#x419;" horiz-adv-x="752" 
d="M638 0h-64v587l-396 -587h-64v682h64v-587l396 587h64v-682zM466 881h62q-6 -62 -46 -98t-107 -36t-106 36t-45 98h62q4 -35 24.5 -62t65.5 -27t65.5 27t24.5 62z" />
    <glyph glyph-name="uni041A" unicode="&#x41a;" horiz-adv-x="662" 
d="M659 0h-87l-298 325h-96v-325h-64v682h64v-301h96l290 301h81l-316 -325z" />
    <glyph glyph-name="uni041B" unicode="&#x41b;" horiz-adv-x="737" 
d="M623 0h-64v626h-299l-6 -166q-9 -268 -46.5 -369t-142.5 -101q-27 0 -46 6v54h44q44 0 68.5 32.5t39.5 122.5t20 261l7 216h425v-682z" />
    <glyph glyph-name="uni041C" unicode="&#x41c;" horiz-adv-x="939" 
d="M114 0v682h103l152 -351q78 -180 100 -242h1q22 62 100 242l152 351h103v-682h-64v240q0 255 2 387h-2q-33 -77 -96 -225l-173 -402h-49l-174 403q-79 183 -95 224h-2q2 -132 2 -387v-240h-60z" />
    <glyph glyph-name="uni041D" unicode="&#x41d;" horiz-adv-x="752" 
d="M114 0v682h64v-300h396v300h64v-682h-64v324h-396v-324h-64z" />
    <glyph glyph-name="uni041E" unicode="&#x41e;" horiz-adv-x="776" 
d="M639 341q0 136 -67 217.5t-184 81.5t-184 -81.5t-67 -217.5t67 -217t184 -81t184 81t67 217zM707 342q0 -160 -89 -258t-231 -98q-143 0 -230.5 96t-87.5 258q0 160 89 258t231 98q143 0 230.5 -96t87.5 -258z" />
    <glyph glyph-name="uni041F" unicode="&#x41f;" horiz-adv-x="752" 
d="M638 0h-64v626h-396v-626h-64v682h524v-682z" />
    <glyph glyph-name="uni0420" unicode="&#x420;" horiz-adv-x="631" 
d="M552 481q0 72 -44 108.5t-145 36.5q-128 0 -185 -1v-288q58 -1 182 -1q102 0 147 37t45 108zM114 0v682q34 0 121 0.5t129 0.5q256 0 256 -200q0 -101 -68 -152t-195 -51q-110 0 -179 1v-281h-64z" />
    <glyph glyph-name="uni0421" unicode="&#x421;" horiz-adv-x="687" 
d="M595 184l55 -20q-32 -86 -101 -132t-167 -46q-139 0 -226 96.5t-87 257.5q0 88 27.5 158t72.5 112t99.5 64t112.5 22q87 0 156 -44t103 -121l-55 -29q-27 64 -82 101t-124 37q-103 0 -172.5 -79t-69.5 -220q0 -135 66.5 -216.5t180.5 -81.5q158 0 211 141z" />
    <glyph glyph-name="uni0422" unicode="&#x422;" horiz-adv-x="532" 
d="M234 0v625h-242v57h548v-57h-242v-625h-64z" />
    <glyph glyph-name="uni0423" unicode="&#x423;" horiz-adv-x="605" 
d="M603 682l-245 -517q-47 -100 -95 -138t-121 -38q-19 0 -57 4v54h59q53 0 86.5 24.5t68.5 99.5l-284 511h73l244 -441l203 441h68z" />
    <glyph glyph-name="uni0424" unicode="&#x424;" horiz-adv-x="980" 
d="M522 -29h-64v112l-80 1q-159 2 -245.5 75t-86.5 208q0 130 92 206.5t240 78.5l80 1v88h64v-88l80 -1q159 -2 245.5 -75t86.5 -208q0 -130 -92 -206.5t-240 -78.5l-80 -1v-112zM458 137v462l-80 -1q-123 -2 -193.5 -60.5t-70.5 -169.5t70.5 -169.5t193.5 -60.5zM522 599
v-462l80 1q123 2 193.5 60.5t70.5 169.5t-70.5 169.5t-193.5 60.5z" />
    <glyph glyph-name="uni0425" unicode="&#x425;" horiz-adv-x="585" 
d="M5 0l248 360l-218 322h78l180 -271l183 271h74l-218 -317l248 -365h-78l-210 314l-212 -314h-75z" />
    <glyph glyph-name="uni0426" unicode="&#x426;" horiz-adv-x="760" 
d="M745 -156h-56v156h-575v682h64v-626h380v626h64v-626h123v-212z" />
    <glyph glyph-name="uni0427" unicode="&#x427;" horiz-adv-x="678" 
d="M564 0h-64v271h-206q-108 0 -168.5 45.5t-60.5 154.5v211h64v-186q0 -92 40.5 -130.5t130.5 -38.5h200v355h64v-682z" />
    <glyph glyph-name="uni0428" unicode="&#x428;" horiz-adv-x="1110" 
d="M996 0h-882v682h64v-626h345v626h64v-626h345v626h64v-682z" />
    <glyph glyph-name="uni0429" unicode="&#x429;" horiz-adv-x="1134" 
d="M1119 -156h-56v156h-949v682h64v-626h345v626h64v-626h345v626h64v-626h123v-212z" />
    <glyph glyph-name="uni042A" unicode="&#x42a;" horiz-adv-x="741" 
d="M278 355v-299q58 -1 182 -1q103 0 147.5 38t44.5 113q0 76 -44 113t-145 37q-128 0 -185 -1zM214 0v626h-222v56h286v-271q60 1 186 1q256 0 256 -204q0 -104 -68 -156.5t-195 -52.5q-110 0 -243 1z" />
    <glyph glyph-name="uni042B" unicode="&#x42b;" horiz-adv-x="911" 
d="M178 355v-299q58 -1 172 -1q103 0 147.5 38t44.5 113q0 76 -44 113t-145 37q-118 0 -175 -1zM114 0v682h64v-271q60 1 176 1q256 0 256 -204q0 -104 -68 -156.5t-195 -52.5q-105 0 -233 1zM797 0h-64v682h64v-682z" />
    <glyph glyph-name="uni042C" unicode="&#x42c;" horiz-adv-x="641" 
d="M178 355v-299q58 -1 182 -1q103 0 147.5 38t44.5 113q0 76 -44 113t-145 37q-128 0 -185 -1zM114 0v682h64v-271q60 1 186 1q256 0 256 -204q0 -104 -68 -156.5t-195 -52.5q-110 0 -243 1z" />
    <glyph glyph-name="uni042D" unicode="&#x42d;" horiz-adv-x="685" 
d="M197 318v56h350q-7 129 -68.5 197.5t-166.5 68.5q-150 0 -209 -136l-55 25q38 81 107.5 124t159.5 43q134 0 217.5 -90t83.5 -264q0 -172 -87.5 -264t-217.5 -92q-95 0 -166.5 46t-107.5 129l58 28q30 -70 87 -108t132 -38q101 0 164.5 71.5t68.5 203.5h-350z" />
    <glyph glyph-name="uni042E" unicode="&#x42e;" horiz-adv-x="1043" 
d="M974 342q0 -160 -84.5 -258t-218.5 -98q-132 0 -214.5 92t-86.5 248h-192v-326h-64v682h64v-300h193q12 143 94.5 228.5t207.5 85.5q135 0 218 -96t83 -258zM906 341q0 136 -62.5 217.5t-171.5 81.5t-171.5 -81.5t-62.5 -217.5t62.5 -217t171.5 -81t171.5 81t62.5 217z
" />
    <glyph glyph-name="uni042F" unicode="&#x42f;" horiz-adv-x="689" 
d="M575 0h-64v285h-158l-232 -285h-81l238 289q-204 22 -204 193q0 92 64 146.5t193 54.5q47 0 138.5 -0.5t105.5 -0.5v-682zM511 343v283q-57 1 -182 1q-187 0 -187 -143t197 -143q118 0 172 2z" />
    <glyph glyph-name="uni0430" unicode="&#x430;" horiz-adv-x="512" 
d="M372 197v37q-146 0 -200.5 -25t-54.5 -80q0 -41 27 -65t81 -24q67 0 107 47.5t40 109.5zM106 347l-45 35q73 106 197 106q89 0 131.5 -43.5t42.5 -118.5v-90q0 -119 3 -236h-59l-2 73h-1q-27 -39 -69 -62t-90 -23q-72 0 -116.5 38t-44.5 102q0 77 72.5 116.5t246.5 39.5
v39q0 113 -116 113q-93 0 -150 -89z" />
    <glyph glyph-name="uni0431" unicode="&#x431;" horiz-adv-x="563" 
d="M488 726v-60q-100 -5 -178 -16q-96 -13 -135.5 -64.5t-61.5 -196.5h2q48 99 174 99q103 0 163 -69t60 -179q0 -113 -63.5 -182.5t-164.5 -69.5q-110 0 -168 77.5t-58 228.5q0 213 55.5 305.5t192.5 109.5q78 10 182 17zM122 245v-13q0 -88 46 -140t117 -52q73 0 118 56.5
t45 141.5t-45 141.5t-118 56.5q-68 0 -115.5 -47.5t-47.5 -143.5z" />
    <glyph glyph-name="uni0432" unicode="&#x432;" horiz-adv-x="540" 
d="M146 217v-163q56 -8 113 -8q158 0 158 85q0 86 -158 86h-113zM146 424v-157h111q71 0 108 18.5t37 63.5q0 81 -148 81q-63 0 -108 -6zM86 4v468q83 10 169 10q105 0 158 -31.5t53 -100.5q0 -39 -24.5 -66.5t-64.5 -37.5v-2q48 -8 76 -37.5t28 -74.5q0 -138 -224 -138
q-83 0 -171 10z" />
    <glyph glyph-name="uni0433" unicode="&#x433;" horiz-adv-x="401" 
d="M86 0v476h305v-50h-245v-426h-60z" />
    <glyph glyph-name="uni0434" unicode="&#x434;" horiz-adv-x="601" 
d="M586 -143h-54v143h-473v-143h-54v193h67q41 59 60 122.5t22 156.5l5 147h327v-426h100v-193zM426 50v376h-209l-4 -98q-7 -182 -73 -278h286z" />
    <glyph glyph-name="uni0435" unicode="&#x435;" horiz-adv-x="522" 
d="M430 126l47 -32q-37 -56 -85.5 -81t-116.5 -25q-106 0 -165 68.5t-59 180.5t58 181.5t160 69.5q55 0 97 -21.5t64.5 -55t33 -67.5t10.5 -66q0 -30 -4 -50h-355q1 -85 46 -136t116 -51q100 0 153 85zM117 278h292q0 65 -38.5 111.5t-104.5 46.5q-63 0 -102.5 -41.5
t-46.5 -116.5z" />
    <glyph glyph-name="uni0436" unicode="&#x436;" horiz-adv-x="742" 
d="M734 0h-74l-188 222h-71v-222h-60v222h-70l-189 -222h-74l216 252l-198 224h76l172 -205h67v205h60v-205h69l172 205h74l-197 -222z" />
    <glyph glyph-name="uni0437" unicode="&#x437;" horiz-adv-x="496" 
d="M137 219v50h85q136 0 136 87q0 38 -32.5 59t-92.5 21q-95 0 -146 -72l-48 30q69 94 196 94q92 0 139.5 -35t47.5 -96q0 -83 -92 -110v-1q107 -21 107 -117q0 -62 -53 -101.5t-146 -39.5q-145 0 -209 95l52 33q50 -76 159 -76q133 0 133 88q0 91 -151 91h-85z" />
    <glyph glyph-name="uni0438" unicode="&#x438;" horiz-adv-x="579" 
d="M493 0h-60v411l-287 -411h-60v476h60v-392l274 392h73v-476z" />
    <glyph glyph-name="uni0439" unicode="&#x439;" horiz-adv-x="579" 
d="M493 0h-60v411l-287 -411h-60v476h60v-392l274 392h73v-476zM370 686h59q-15 -132 -141 -132q-124 0 -139 132h59q9 -42 26.5 -65t54.5 -23q72 0 81 88z" />
    <glyph glyph-name="uni043A" unicode="&#x43a;" horiz-adv-x="501" 
d="M493 0h-78l-199 222h-70v-222h-60v476h60v-205h67l194 205h77l-219 -225z" />
    <glyph glyph-name="uni043B" unicode="&#x43b;" horiz-adv-x="568" 
d="M482 0h-60v426h-216l-3 -92q-6 -190 -41 -267t-123 -77q-13 0 -31 2v52h24q39 0 62 25.5t35 91t16 185.5l4 130h333v-476z" />
    <glyph glyph-name="uni043C" unicode="&#x43c;" horiz-adv-x="760" 
d="M639 0l-31 214q-5 35 -15 104.5t-15 104.5h-2l-174 -423h-49l-170 423h-2q-5 -34 -15 -103.5t-15 -104.5l-31 -215h-58l67 476h93l111 -275q32 -79 48 -128h2q23 68 47 129l110 274h91l67 -476h-59z" />
    <glyph glyph-name="uni043D" unicode="&#x43d;" horiz-adv-x="564" 
d="M418 0v222h-272v-222h-60v476h60v-204h272v204h60v-476h-60z" />
    <glyph glyph-name="uni043E" unicode="&#x43e;" horiz-adv-x="554" 
d="M439 238q0 85 -43.5 141.5t-118.5 56.5q-76 0 -119 -56t-43 -142q0 -85 43.5 -141.5t118.5 -56.5q76 0 119 56t43 142zM503 239q0 -109 -59.5 -180t-167.5 -71q-109 0 -167 69.5t-58 179.5q0 109 59.5 180t167.5 71q109 0 167 -69.5t58 -179.5z" />
    <glyph glyph-name="uni043F" unicode="&#x43f;" horiz-adv-x="562" 
d="M476 0h-60v426h-270v-426h-60v476h390v-476z" />
    <glyph glyph-name="uni0440" unicode="&#x440;" horiz-adv-x="575" 
d="M144 249v-21q0 -83 43.5 -135.5t115.5 -52.5q75 0 116 54t41 145q0 86 -42.5 141.5t-118.5 55.5q-70 0 -112.5 -50t-42.5 -137zM146 -210h-60v450q0 114 -3 236h59l2 -73h1q47 85 161 85q103 0 160.5 -69t57.5 -178q0 -118 -60.5 -185.5t-158.5 -67.5q-105 0 -160 82h-1
q2 -34 2 -90v-190z" />
    <glyph glyph-name="uni0441" unicode="&#x441;" horiz-adv-x="512" 
d="M416 143l50 -24q-32 -67 -80 -99t-120 -32q-97 0 -156 66t-59 182q0 118 59.5 185t153.5 67q132 0 195 -124l-54 -30q-46 102 -143 102q-66 0 -106.5 -52t-40.5 -146q0 -88 40.5 -143t112.5 -55q102 0 148 103z" />
    <glyph glyph-name="uni0442" unicode="&#x442;" horiz-adv-x="424" 
d="M242 0h-60v426h-162v50h384v-50h-162v-426z" />
    <glyph glyph-name="uni0443" unicode="&#x443;" horiz-adv-x="481" 
d="M179 -210h-65l100 210l-199 476h70l83 -203q33 -80 75 -202h1q31 98 74 202l83 203h65z" />
    <glyph glyph-name="uni0444" unicode="&#x444;" horiz-adv-x="728" 
d="M394 -210h-60v203q-142 7 -212.5 69.5t-70.5 172.5q0 111 71 176t212 72v229h60v-229q142 -7 212.5 -69.5t70.5 -172.5q0 -111 -71 -176t-212 -72v-203zM334 43v390q-46 -2 -84 -13t-69 -33t-48.5 -60t-17.5 -89t17.5 -89t48.5 -60t69 -33t84 -13zM394 433v-390
q46 2 84 13t69 33t48.5 60t17.5 89t-17.5 89t-48.5 60t-69 33t-84 13z" />
    <glyph glyph-name="uni0445" unicode="&#x445;" horiz-adv-x="456" 
d="M83 0h-71l180 251l-160 225h76l122 -181l123 181h70l-160 -224l181 -252h-76l-142 209z" />
    <glyph glyph-name="uni0446" unicode="&#x446;" horiz-adv-x="581" 
d="M566 -143h-54v143h-426v476h60v-426h260v426h60v-426h100v-193z" />
    <glyph glyph-name="uni0447" unicode="&#x447;" horiz-adv-x="514" 
d="M428 0h-60v215q-20 -33 -60 -53t-83 -20q-170 0 -170 189v145h60v-135q0 -147 116 -147q64 0 100.5 47t36.5 125v110h60v-476z" />
    <glyph glyph-name="uni0448" unicode="&#x448;" horiz-adv-x="822" 
d="M736 0h-650v476h60v-426h235v426h60v-426h235v426h60v-476z" />
    <glyph glyph-name="uni0449" unicode="&#x449;" horiz-adv-x="851" 
d="M836 -143h-54v143h-696v476h60v-426h235v426h60v-426h235v426h60v-426h100v-193z" />
    <glyph glyph-name="uni044A" unicode="&#x44a;" horiz-adv-x="570" 
d="M162 4v422h-142v50h202v-157q37 1 102 1q107 0 159 -42.5t52 -116.5q0 -75 -55 -121t-160 -46q-70 0 -158 10zM222 267v-213q45 -8 99 -8q150 0 150 114q0 56 -36 82t-112 26q-65 0 -101 -1z" />
    <glyph glyph-name="uni044B" unicode="&#x44b;" horiz-adv-x="689" 
d="M86 4v472h60v-157q37 1 102 1q205 0 205 -159q0 -75 -52 -121t-157 -46q-70 0 -158 10zM146 267v-213q45 -8 100 -8q75 0 109 28t34 86q0 57 -34 82.5t-109 25.5q-64 0 -100 -1zM603 0h-60v476h60v-476z" />
    <glyph glyph-name="uni044C" unicode="&#x44c;" horiz-adv-x="494" 
d="M86 4v472h60v-157q37 1 102 1q107 0 159 -42.5t52 -116.5q0 -75 -55 -121t-160 -46q-70 0 -158 10zM146 267v-213q45 -8 99 -8q150 0 150 114q0 56 -36 82t-112 26q-65 0 -101 -1z" />
    <glyph glyph-name="uni044D" unicode="&#x44d;" horiz-adv-x="513" 
d="M175 219v50h221q-8 74 -50 120.5t-110 46.5q-96 0 -138 -85l-50 27q25 50 74.5 80t114.5 30q109 0 167 -69.5t58 -179.5q0 -109 -59.5 -180t-167.5 -71q-132 0 -191 107l52 30q47 -85 140 -85q72 0 114 50t47 129h-222z" />
    <glyph glyph-name="uni044E" unicode="&#x44e;" horiz-adv-x="755" 
d="M704 239q0 -109 -56.5 -180t-160.5 -71q-102 0 -157 65t-58 169h-126v-222h-60v476h60v-204h127q9 96 65 156t151 60q106 0 160.5 -69.5t54.5 -179.5zM640 238q0 86 -40.5 142t-111.5 56q-72 0 -112 -56t-40 -142t40.5 -142t111.5 -56q72 0 112 56t40 142z" />
    <glyph glyph-name="uni044F" unicode="&#x44f;" horiz-adv-x="536" 
d="M450 0h-60v193h-113l-161 -193h-76l169 197q-134 20 -134 139q0 66 52.5 106t157.5 40q77 0 165 -10v-472zM390 244v178q-56 8 -107 8q-74 0 -109 -22t-35 -71t34.5 -71.5t109.5 -22.5t107 1z" />
    <glyph glyph-name="uni0450" unicode="&#x450;" horiz-adv-x="522" 
d="M430 126l47 -32q-37 -56 -85.5 -81t-116.5 -25q-106 0 -165 68.5t-59 180.5t58 181.5t160 69.5q55 0 97 -21.5t64.5 -55t33 -67.5t10.5 -66q0 -30 -4 -50h-355q1 -85 46 -136t116 -51q100 0 153 85zM117 278h292q0 65 -38.5 111.5t-104.5 46.5q-63 0 -102.5 -41.5
t-46.5 -116.5zM213 691l85 -140h-58l-114 140h87z" />
    <glyph glyph-name="uni0451" unicode="&#x451;" horiz-adv-x="522" 
d="M430 126l47 -32q-37 -56 -85.5 -81t-116.5 -25q-106 0 -165 68.5t-59 180.5t58 181.5t160 69.5q55 0 97 -21.5t64.5 -55t33 -67.5t10.5 -66q0 -30 -4 -50h-355q1 -85 46 -136t116 -51q100 0 153 85zM117 278h292q0 65 -38.5 111.5t-104.5 46.5q-63 0 -102.5 -41.5
t-46.5 -116.5zM205 569h-62v108h62v-108zM385 569h-62v108h62v-108z" />
    <glyph glyph-name="uni0452" unicode="&#x452;" horiz-adv-x="554" 
d="M146 0h-60v563h-103v50h103v99h60v-99h147v-50h-147v-67q0 -59 -2 -93h1q48 85 156 85q83 0 128 -47t45 -142v-335q0 -102 -26.5 -142t-93.5 -40q-29 0 -49 5v47h47q36 0 49 30t13 97v314q0 70 -17 104q-29 57 -105 57q-59 0 -95 -36q-51 -51 -51 -174v-226z" />
    <glyph glyph-name="uni0453" unicode="&#x453;" horiz-adv-x="401" 
d="M86 0v476h305v-50h-245v-426h-60zM195 551l85 140h86l-113 -140h-58z" />
    <glyph glyph-name="uni0454" unicode="&#x454;" horiz-adv-x="511" 
d="M338 219h-223q5 -81 44.5 -130t108.5 -49q99 0 150 85l47 -29q-67 -108 -199 -108q-97 0 -156 66t-59 182q0 118 59.5 185t153.5 67q135 0 195 -114l-48 -30q-44 92 -149 92q-60 0 -99.5 -43.5t-46.5 -123.5h222v-50z" />
    <glyph glyph-name="uni0455" unicode="&#x455;" horiz-adv-x="482" 
d="M49 75l39 44q71 -79 164 -79q52 0 82 22t30 61q0 37 -30.5 57.5t-74 30t-87 22t-74 44.5t-30.5 85q0 58 46 92t115 34q104 0 180 -70l-40 -42q-60 60 -141 60q-47 0 -73 -20t-26 -53q0 -36 30.5 -56.5t74 -30t87 -22t74 -44.5t30.5 -86q0 -63 -50.5 -99.5t-123.5 -36.5
q-118 0 -202 87z" />
    <glyph glyph-name="uni0456" unicode="&#x456;" horiz-adv-x="232" 
d="M146 0h-60v476h60v-476zM85 564v118h62v-118h-62z" />
    <glyph glyph-name="uni0457" unicode="&#x457;" horiz-adv-x="232" 
d="M146 0h-60v476h60v-476zM67 569h-62v108h62v-108zM227 569h-62v108h62v-108z" />
    <glyph glyph-name="uni0458" unicode="&#x458;" horiz-adv-x="243" 
d="M97 476h60v-512q0 -102 -26.5 -142t-93.5 -40q-29 0 -49 5v47h47q36 0 49 30t13 97v515zM158 564h-62v118h62v-118z" />
    <glyph glyph-name="uni0459" unicode="&#x459;" horiz-adv-x="825" 
d="M417 4v422h-211l-3 -92q-6 -190 -41 -267t-123 -77q-13 0 -31 2v52h24q39 0 62 25.5t35 91t16 185.5l4 130h328v-157q37 1 102 1q107 0 159 -42.5t52 -116.5q0 -75 -55 -121t-160 -46q-70 0 -158 10zM477 267v-213q45 -8 99 -8q150 0 150 114q0 56 -36 82t-112 26
q-65 0 -101 -1z" />
    <glyph glyph-name="uni045A" unicode="&#x45a;" horiz-adv-x="816" 
d="M408 4v218h-262v-222h-60v476h60v-204h262v204h60v-157q37 1 102 1q107 0 159 -42.5t52 -116.5q0 -75 -55 -121t-160 -46q-70 0 -158 10zM468 267v-213q45 -8 99 -8q150 0 150 114q0 56 -36 82t-112 26q-65 0 -101 -1z" />
    <glyph glyph-name="uni045B" unicode="&#x45b;" horiz-adv-x="554" 
d="M86 0v563h-103v50h103v99h60v-99h147v-50h-147v-67q0 -59 -2 -93h1q48 85 156 85q83 0 128 -47t45 -142v-299h-60v275q0 70 -17 104q-29 57 -105 57q-59 0 -95 -36q-51 -51 -51 -174v-226h-60z" />
    <glyph glyph-name="uni045C" unicode="&#x45c;" horiz-adv-x="501" 
d="M493 0h-78l-199 222h-70v-222h-60v476h60v-205h67l194 205h77l-219 -225zM220 551l85 140h86l-113 -140h-58z" />
    <glyph glyph-name="uni045D" unicode="&#x45d;" horiz-adv-x="579" 
d="M493 0h-60v411l-287 -411h-60v476h60v-392l274 392h73v-476zM246 691l85 -140h-58l-114 140h87z" />
    <glyph glyph-name="uni045E" unicode="&#x45e;" horiz-adv-x="481" 
d="M179 -210h-65l100 210l-199 476h70l83 -203q33 -80 75 -202h1q31 98 74 202l83 203h65zM325 686h59q-15 -132 -141 -132q-124 0 -139 132h59q9 -42 26.5 -65t54.5 -23q72 0 81 88z" />
    <glyph glyph-name="uni045F" unicode="&#x45f;" horiz-adv-x="552" 
d="M303 -143h-54v143h-163v476h60v-426h260v426h60v-476h-163v-143z" />
    <glyph glyph-name="uni0472" unicode="&#x472;" horiz-adv-x="776" 
d="M707 342q0 -160 -89 -258t-231 -98q-143 0 -230.5 96t-87.5 258q0 160 89 258t231 98q143 0 230.5 -96t87.5 -258zM388 43q113 0 179.5 76.5t71.5 205.5h-502q4 -129 70.5 -205.5t180.5 -76.5zM388 640q-108 0 -174 -70t-76 -189h499q-10 119 -76 189t-173 70z" />
    <glyph glyph-name="uni0473" unicode="&#x473;" horiz-adv-x="554" 
d="M503 239q0 -109 -59.5 -180t-167.5 -71q-109 0 -167 69.5t-58 179.5q0 109 59.5 180t167.5 71q109 0 167 -69.5t58 -179.5zM277 40q71 0 113.5 49.5t47.5 128.5h-323q5 -78 48 -128t114 -50zM277 436q-69 0 -111 -46.5t-50 -121.5h321q-8 74 -50 121t-110 47z" />
    <glyph glyph-name="uni0490" unicode="&#x490;" horiz-adv-x="525" 
d="M114 0v682h350v155h56v-212h-342v-625h-64z" />
    <glyph glyph-name="uni0491" unicode="&#x491;" horiz-adv-x="401" 
d="M86 0v476h251v143h54v-193h-245v-426h-60z" />
    <glyph glyph-name="uni0492" unicode="&#x492;" horiz-adv-x="535" 
d="M188 0h-64v323h-114v50h114v309h406v-57h-342v-252h168v-50h-168v-323z" />
    <glyph glyph-name="uni0493" unicode="&#x493;" horiz-adv-x="401" 
d="M146 0h-60v215h-86v47h86v214h305v-50h-245v-164h126v-47h-126v-215z" />
    <glyph glyph-name="uni0494" unicode="&#x494;" horiz-adv-x="640" 
d="M178 0h-64v682h406v-56h-342v-225q108 2 156 2q124 0 189 -63.5t65 -186.5q0 -124 -62.5 -193t-159.5 -69q-42 0 -72 9v56q38 -8 73 -8q67 0 110 49.5t43 149.5q0 104 -48.5 152t-142.5 48q-51 0 -151 -2v-345z" />
    <glyph glyph-name="uni0495" unicode="&#x495;" horiz-adv-x="542" 
d="M146 0h-60v476h356v-50h-296v-127q0 -47 -3 -98h1q51 80 152 80q106 0 159 -64.5t53 -184.5q0 -109 -56.5 -180t-157.5 -71q-25 0 -45 4v56q19 -8 46 -8q70 0 109.5 56t39.5 142q0 96 -38.5 147t-110.5 51q-73 0 -111 -57.5t-38 -140.5v-31z" />
    <glyph glyph-name="uni0496" unicode="&#x496;" horiz-adv-x="965" 
d="M965 -156h-56v156h-67l-253 325h-93v-325h-64v325h-97l-253 -325h-79l282 356l-268 326h79l242 -301h94v301h64v-301h94l242 301h77l-266 -323l236 -303h86v-212z" />
    <glyph glyph-name="uni0497" unicode="&#x497;" horiz-adv-x="757" 
d="M757 -143h-54v143h-43l-188 222h-71v-222h-60v222h-70l-189 -222h-74l216 252l-198 224h76l172 -205h67v205h60v-205h69l172 205h74l-197 -222l172 -204h66v-193z" />
    <glyph glyph-name="uni0498" unicode="&#x498;" horiz-adv-x="638" 
d="M338 -156h-56v143q-78 5 -143.5 38t-102.5 91l55 33q69 -106 222 -106q91 0 143.5 34.5t52.5 103.5q0 138 -208 138h-112v54h109q93 0 141.5 34t48.5 99q0 63 -47.5 98t-136.5 35q-128 0 -205 -103l-48 34q94 126 255 126q119 0 184 -50.5t65 -134.5q0 -59 -33.5 -102
t-92.5 -59v-2q71 -11 109 -53.5t38 -108.5q0 -86 -63 -139.5t-175 -59.5v-143z" />
    <glyph glyph-name="uni0499" unicode="&#x499;" horiz-adv-x="496" 
d="M262 -143h-54v133q-124 10 -179 93l52 33q50 -76 159 -76q133 0 133 88q0 91 -151 91h-85v50h85q136 0 136 87q0 38 -32.5 59t-92.5 21q-95 0 -146 -72l-48 30q69 94 196 94q92 0 139.5 -35t47.5 -96q0 -83 -92 -110v-1q107 -21 107 -117q0 -58 -46.5 -96.5t-128.5 -43.5
v-132z" />
    <glyph glyph-name="uni049A" unicode="&#x49a;" horiz-adv-x="685" 
d="M685 -156h-56v156h-57l-298 325h-96v-325h-64v682h64v-301h96l290 301h81l-316 -325l278 -301h78v-212z" />
    <glyph glyph-name="uni049B" unicode="&#x49b;" horiz-adv-x="509" 
d="M509 -143h-54v143h-40l-199 222h-70v-222h-60v476h60v-205h67l194 205h77l-219 -225l182 -201h62v-193z" />
    <glyph glyph-name="uni049C" unicode="&#x49c;" horiz-adv-x="662" 
d="M239 552h56v-171h39l230 301h81l-256 -324l270 -358h-87l-238 325h-39v-171h-56v171h-61v-325h-64v682h64v-301h61v171z" />
    <glyph glyph-name="uni049D" unicode="&#x49d;" horiz-adv-x="513" 
d="M211 384h54v-113h41l124 205h68l-142 -223l152 -253h-70l-129 222h-44v-113h-54v113h-65v-222h-60v476h60v-205h65v113z" />
    <glyph glyph-name="uni04A0" unicode="&#x4a0;" horiz-adv-x="762" 
d="M759 0h-87l-298 325h-96v-325h-64v626h-222v56h286v-301h96l290 301h81l-316 -325z" />
    <glyph glyph-name="uni04A1" unicode="&#x4a1;" horiz-adv-x="577" 
d="M569 0h-78l-199 222h-70v-222h-60v426h-142v50h202v-205h67l194 205h77l-219 -225z" />
    <glyph glyph-name="uni04A2" unicode="&#x4a2;" horiz-adv-x="776" 
d="M761 -156h-56v156h-131v324h-396v-324h-64v682h64v-300h396v300h64v-626h123v-212z" />
    <glyph glyph-name="uni04A3" unicode="&#x4a3;" horiz-adv-x="593" 
d="M578 -143h-54v143h-106v222h-272v-222h-60v476h60v-204h272v204h60v-426h100v-193z" />
    <glyph glyph-name="uni04A4" unicode="&#x4a4;" horiz-adv-x="955" 
d="M628 0h-64v324h-386v-324h-64v682h64v-300h386v300h386v-57h-322v-625z" />
    <glyph glyph-name="uni04A5" unicode="&#x4a5;" horiz-adv-x="713" 
d="M468 0h-60v222h-262v-222h-60v476h60v-204h262v204h295v-50h-235v-426z" />
    <glyph glyph-name="uni04AA" unicode="&#x4aa;" horiz-adv-x="687" 
d="M407 -156h-56v144q-127 11 -204.5 105.5t-77.5 246.5q0 88 27.5 158t72.5 112t99.5 64t112.5 22q87 0 156 -44t103 -121l-55 -29q-27 64 -82 101t-124 37q-103 0 -172.5 -79t-69.5 -220q0 -135 66.5 -216.5t180.5 -81.5q158 0 211 141l55 -20q-30 -80 -92.5 -125.5
t-150.5 -51.5v-143z" />
    <glyph glyph-name="uni04AB" unicode="&#x4ab;" horiz-adv-x="512" 
d="M291 -143h-56v133q-84 11 -134 75.5t-50 170.5q0 118 59.5 185t153.5 67q132 0 195 -124l-54 -30q-46 102 -143 102q-66 0 -106.5 -52t-40.5 -146q0 -88 40.5 -143t112.5 -55q102 0 148 103l50 -24q-57 -120 -175 -130v-132z" />
    <glyph glyph-name="uni04AE" unicode="&#x4ae;" horiz-adv-x="598" 
d="M331 0h-64v294l-267 388h78l223 -329l223 329h74l-267 -388v-294z" />
    <glyph glyph-name="uni04AF" unicode="&#x4af;" horiz-adv-x="481" 
d="M272 -210h-63v211l-194 475h70l83 -213q33 -80 75 -202h1q30 97 74 202l83 213h65l-194 -475v-211z" />
    <glyph glyph-name="uni04B0" unicode="&#x4b0;" horiz-adv-x="598" 
d="M331 0h-64v235h-164v53h164v6l-267 388h78l223 -329l223 329h74l-267 -388v-6h164v-53h-164v-235z" />
    <glyph glyph-name="uni04B1" unicode="&#x4b1;" horiz-adv-x="481" 
d="M272 -210h-63v210h-163v50h143l-174 426h70l83 -213q33 -80 75 -202h1q30 97 74 202l83 213h65l-174 -426h143v-50h-163v-210z" />
    <glyph glyph-name="uni04B2" unicode="&#x4b2;" horiz-adv-x="636" 
d="M636 -156h-56v156h-78l-210 314l-212 -314h-75l248 360l-218 322h78l180 -271l183 271h74l-218 -317l210 -309h94v-212z" />
    <glyph glyph-name="uni04B3" unicode="&#x4b3;" horiz-adv-x="498" 
d="M498 -143h-54v143h-76l-142 209l-143 -209h-71l180 251l-160 225h76l122 -181l123 181h70l-160 -224l145 -202h90v-193z" />
    <glyph glyph-name="uni04B6" unicode="&#x4b6;" horiz-adv-x="702" 
d="M687 -156h-56v156h-131v271h-206q-108 0 -168.5 45.5t-60.5 154.5v211h64v-186q0 -92 40.5 -130.5t130.5 -38.5h200v355h64v-626h123v-212z" />
    <glyph glyph-name="uni04B7" unicode="&#x4b7;" horiz-adv-x="543" 
d="M528 -143h-54v143h-106v215q-20 -33 -60 -53t-83 -20q-170 0 -170 189v145h60v-135q0 -147 116 -147q64 0 100.5 47t36.5 125v110h60v-426h100v-193z" />
    <glyph glyph-name="uni04B8" unicode="&#x4b8;" horiz-adv-x="678" 
d="M293 507h56v-180h151v355h64v-682h-64v271h-151v-162h-56v162q-108 0 -168 45.5t-60 154.5v211h64v-186q0 -90 39 -128.5t125 -40.5v180z" />
    <glyph glyph-name="uni04B9" unicode="&#x4b9;" horiz-adv-x="524" 
d="M211 324h54v-128q53 10 83 55.5t30 114.5v110h60v-476h-60v215q-35 -56 -113 -70v-96h-54v93q-156 12 -156 189v145h60v-135q0 -133 96 -146v129z" />
    <glyph glyph-name="uni04BA" unicode="&#x4ba;" horiz-adv-x="678" 
d="M613 0h-64v186q0 92 -40.5 130.5t-130.5 38.5h-200v-355h-64v682h64v-271h206q108 0 168.5 -45.5t60.5 -154.5v-211z" />
    <glyph glyph-name="uni04BB" unicode="&#x4bb;" horiz-adv-x="554" 
d="M86 0v712h60v-216q0 -59 -2 -93h1q48 85 156 85q83 0 128 -47t45 -142v-299h-60v275q0 70 -17 104q-29 57 -105 57q-59 0 -95 -36q-51 -51 -51 -174v-226h-60z" />
    <glyph glyph-name="uni04C0" unicode="&#x4c0;" horiz-adv-x="292" 
d="M114 0v682h64v-682h-64z" />
    <glyph glyph-name="uni04C1" unicode="&#x4c1;" horiz-adv-x="926" 
d="M923 0h-81l-253 325h-93v-325h-64v325h-97l-253 -325h-79l282 356l-268 326h79l242 -301h94v301h64v-301h94l242 301h77l-266 -323zM553 881h62q-6 -62 -46 -98t-107 -36t-106 36t-45 98h62q4 -35 24.5 -62t65.5 -27t65.5 27t24.5 62z" />
    <glyph glyph-name="uni04C2" unicode="&#x4c2;" horiz-adv-x="742" 
d="M734 0h-74l-188 222h-71v-222h-60v222h-70l-189 -222h-74l216 252l-198 224h76l172 -205h67v205h60v-205h69l172 205h74l-197 -222zM452 686h59q-15 -132 -141 -132q-124 0 -139 132h59q9 -42 26.5 -65t54.5 -23q72 0 81 88z" />
    <glyph glyph-name="uni04CF" unicode="&#x4cf;" horiz-adv-x="232" 
d="M86 0v712h60v-712h-60z" />
    <glyph glyph-name="uni04D0" unicode="&#x4d0;" horiz-adv-x="635" 
d="M286 682h63l267 -682h-72l-74 196h-308l-73 -196h-70zM247 425l-66 -176h269l-68 180q-57 153 -67 189h-1q-13 -49 -67 -193zM404 881h62q-6 -62 -46 -98t-107 -36t-106 36t-45 98h62q4 -35 24.5 -62t65.5 -27t65.5 27t24.5 62z" />
    <glyph glyph-name="uni04D1" unicode="&#x4d1;" horiz-adv-x="512" 
d="M372 197v37q-146 0 -200.5 -25t-54.5 -80q0 -41 27 -65t81 -24q67 0 107 47.5t40 109.5zM106 347l-45 35q73 106 197 106q89 0 131.5 -43.5t42.5 -118.5v-90q0 -119 3 -236h-59l-2 73h-1q-27 -39 -69 -62t-90 -23q-72 0 -116.5 38t-44.5 102q0 77 72.5 116.5t246.5 39.5
v39q0 113 -116 113q-93 0 -150 -89zM333 686h59q-15 -132 -141 -132q-124 0 -139 132h59q9 -42 26.5 -65t54.5 -23q72 0 81 88z" />
    <glyph glyph-name="uni04D2" unicode="&#x4d2;" horiz-adv-x="635" 
d="M286 682h63l267 -682h-72l-74 196h-308l-73 -196h-70zM247 425l-66 -176h269l-68 180q-57 153 -67 189h-1q-13 -49 -67 -193zM240 764h-66v108h66v-108zM460 764h-66v108h66v-108z" />
    <glyph glyph-name="uni04D3" unicode="&#x4d3;" horiz-adv-x="512" 
d="M372 197v37q-146 0 -200.5 -25t-54.5 -80q0 -41 27 -65t81 -24q67 0 107 47.5t40 109.5zM106 347l-45 35q73 106 197 106q89 0 131.5 -43.5t42.5 -118.5v-90q0 -119 3 -236h-59l-2 73h-1q-27 -39 -69 -62t-90 -23q-72 0 -116.5 38t-44.5 102q0 77 72.5 116.5t246.5 39.5
v39q0 113 -116 113q-93 0 -150 -89zM197 569h-62v108h62v-108zM377 569h-62v108h62v-108z" />
    <glyph glyph-name="uni04D4" unicode="&#x4d4;" horiz-adv-x="966" 
d="M337 682h544v-56h-359v-250h312v-54h-312v-265h376v-57h-440v195h-304l-99 -195h-72zM373 626l-192 -377h277v377h-85z" />
    <glyph glyph-name="uni04D5" unicode="&#x4d5;" horiz-adv-x="839" 
d="M106 347l-45 35q73 106 197 106t158 -86q57 86 170 86q55 0 97 -21.5t64.5 -55t33 -67.5t10.5 -66q0 -30 -4 -50h-355q1 -85 46 -136t116 -51q100 0 153 85l47 -32q-37 -56 -85.5 -81t-116.5 -25q-134 0 -192 116q-57 -116 -186 -116q-72 0 -116.5 38t-44.5 102
q0 77 72.5 116.5t246.5 39.5v39q-2 113 -116 113q-93 0 -150 -89zM434 278h292q0 65 -38.5 111.5t-104.5 46.5q-63 0 -102.5 -41.5t-46.5 -116.5zM225 40q67 0 107 47.5t40 109.5v37q-146 0 -200.5 -25t-54.5 -80q0 -41 27 -65t81 -24z" />
    <glyph glyph-name="uni04D6" unicode="&#x4d6;" horiz-adv-x="644" 
d="M114 0v682h445v-56h-381v-250h334v-54h-334v-265h398v-57h-462zM412 881h62q-6 -62 -46 -98t-107 -36t-106 36t-45 98h62q4 -35 24.5 -62t65.5 -27t65.5 27t24.5 62z" />
    <glyph glyph-name="uni04D7" unicode="&#x4d7;" horiz-adv-x="522" 
d="M430 126l47 -32q-37 -56 -85.5 -81t-116.5 -25q-106 0 -165 68.5t-59 180.5t58 181.5t160 69.5q55 0 97 -21.5t64.5 -55t33 -67.5t10.5 -66q0 -30 -4 -50h-355q1 -85 46 -136t116 -51q100 0 153 85zM117 278h292q0 65 -38.5 111.5t-104.5 46.5q-63 0 -102.5 -41.5
t-46.5 -116.5zM342 686h59q-15 -132 -141 -132q-124 0 -139 132h59q9 -42 26.5 -65t54.5 -23q72 0 81 88z" />
    <glyph glyph-name="uni04D8" unicode="&#x4d8;" horiz-adv-x="728" 
d="M125 518l-47 32q98 146 273 146q135 0 221.5 -97t86.5 -257q0 -156 -83.5 -256t-217.5 -100q-145 0 -221.5 95t-76.5 261q0 10 1 32h529q-8 122 -73 193.5t-168 71.5q-75 0 -129 -28.5t-95 -92.5zM360 43q102 0 163.5 73.5t66.5 201.5h-462q6 -126 62.5 -200.5
t169.5 -74.5z" />
    <glyph glyph-name="uni04D9" unicode="&#x4d9;" horiz-adv-x="522" 
d="M92 350l-47 32q73 106 202 106q106 0 165 -68.5t59 -180.5t-58 -181.5t-160 -69.5q-55 0 -97 21.5t-64.5 55t-33 67.5t-10.5 66q0 30 4 50h355q-1 85 -46 136t-116 51q-96 0 -153 -85zM405 198h-292q0 -65 38.5 -111.5t104.5 -46.5q63 0 102.5 41.5t46.5 116.5z" />
    <glyph glyph-name="uni04DC" unicode="&#x4dc;" horiz-adv-x="926" 
d="M923 0h-81l-253 325h-93v-325h-64v325h-97l-253 -325h-79l282 356l-268 326h79l242 -301h94v301h64v-301h94l242 301h77l-266 -323zM386 764h-66v108h66v-108zM606 764h-66v108h66v-108z" />
    <glyph glyph-name="uni04DD" unicode="&#x4dd;" horiz-adv-x="742" 
d="M734 0h-74l-188 222h-71v-222h-60v222h-70l-189 -222h-74l216 252l-198 224h76l172 -205h67v205h60v-205h69l172 205h74l-197 -222zM312 569h-62v108h62v-108zM492 569h-62v108h62v-108z" />
    <glyph glyph-name="uni04DE" unicode="&#x4de;" horiz-adv-x="638" 
d="M36 115l54 36q34 -53 93 -80.5t130 -27.5q91 0 143.5 34.5t52.5 103.5q0 138 -208 138h-112v54h109q93 0 141.5 34t48.5 99q0 63 -46.5 98t-130.5 35q-135 0 -212 -103l-48 36q97 124 261 124q115 0 179 -50.5t64 -134.5q0 -59 -33.5 -101.5t-92.5 -58.5
q71 -15 109 -57.5t38 -107.5q0 -91 -70.5 -145.5t-193.5 -54.5q-86 0 -161 33t-115 96zM224 764h-66v108h66v-108zM444 764h-66v108h66v-108z" />
    <glyph glyph-name="uni04DF" unicode="&#x4df;" horiz-adv-x="496" 
d="M137 219v50h85q136 0 136 87q0 38 -32.5 59t-92.5 21q-95 0 -146 -72l-48 30q69 94 196 94q92 0 139.5 -35t47.5 -96q0 -83 -92 -110v-1q107 -21 107 -117q0 -62 -53 -101.5t-146 -39.5q-145 0 -209 95l52 33q50 -76 159 -76q133 0 133 88q0 91 -151 91h-85zM177 569h-62
v108h62v-108zM357 569h-62v108h62v-108z" />
    <glyph glyph-name="uni04E2" unicode="&#x4e2;" horiz-adv-x="752" 
d="M638 0h-64v587l-396 -587h-64v682h64v-587l396 587h64v-682zM519 840v-55h-290v55h290z" />
    <glyph glyph-name="uni04E3" unicode="&#x4e3;" horiz-adv-x="579" 
d="M493 0h-60v411l-287 -411h-60v476h60v-392l274 392h73v-476zM419 643v-52h-260v52h260z" />
    <glyph glyph-name="uni04E4" unicode="&#x4e4;" horiz-adv-x="752" 
d="M638 0h-64v587l-396 -587h-64v682h64v-587l396 587h64v-682zM299 764h-66v108h66v-108zM519 764h-66v108h66v-108z" />
    <glyph glyph-name="uni04E5" unicode="&#x4e5;" horiz-adv-x="579" 
d="M493 0h-60v411l-287 -411h-60v476h60v-392l274 392h73v-476zM230 569h-62v108h62v-108zM410 569h-62v108h62v-108z" />
    <glyph glyph-name="uni04E6" unicode="&#x4e6;" horiz-adv-x="776" 
d="M639 341q0 136 -67 217.5t-184 81.5t-184 -81.5t-67 -217.5t67 -217t184 -81t184 81t67 217zM707 342q0 -160 -89 -258t-231 -98q-143 0 -230.5 96t-87.5 258q0 160 89 258t231 98q143 0 230.5 -96t87.5 -258zM311 764h-66v108h66v-108zM531 764h-66v108h66v-108z" />
    <glyph glyph-name="uni04E7" unicode="&#x4e7;" horiz-adv-x="554" 
d="M439 238q0 85 -43.5 141.5t-118.5 56.5q-76 0 -119 -56t-43 -142q0 -85 43.5 -141.5t118.5 -56.5q76 0 119 56t43 142zM503 239q0 -109 -59.5 -180t-167.5 -71q-109 0 -167 69.5t-58 179.5q0 109 59.5 180t167.5 71q109 0 167 -69.5t58 -179.5zM218 569h-62v108h62v-108z
M398 569h-62v108h62v-108z" />
    <glyph glyph-name="uni04E8" unicode="&#x4e8;" horiz-adv-x="776" 
d="M707 342q0 -160 -89 -258t-231 -98q-143 0 -230.5 96t-87.5 258q0 160 89 258t231 98q143 0 230.5 -96t87.5 -258zM388 43q113 0 179.5 76.5t71.5 205.5h-502q4 -129 70.5 -205.5t180.5 -76.5zM388 640q-108 0 -174 -70t-76 -189h499q-10 119 -76 189t-173 70z" />
    <glyph glyph-name="uni04E9" unicode="&#x4e9;" horiz-adv-x="554" 
d="M503 239q0 -109 -59.5 -180t-167.5 -71q-109 0 -167 69.5t-58 179.5q0 109 59.5 180t167.5 71q109 0 167 -69.5t58 -179.5zM277 40q71 0 113.5 49.5t47.5 128.5h-323q5 -78 48 -128t114 -50zM277 436q-69 0 -111 -46.5t-50 -121.5h321q-8 74 -50 121t-110 47z" />
    <glyph glyph-name="uni04EE" unicode="&#x4ee;" horiz-adv-x="605" 
d="M603 682l-245 -517q-47 -100 -95 -138t-121 -38q-19 0 -57 4v54h59q53 0 86.5 24.5t68.5 99.5l-284 511h73l244 -441l203 441h68zM464 840v-55h-290v55h290z" />
    <glyph glyph-name="uni04EF" unicode="&#x4ef;" horiz-adv-x="481" 
d="M179 -210h-65l100 210l-199 476h70l83 -203q33 -80 75 -202h1q31 98 74 202l83 203h65zM373 643v-52h-260v52h260z" />
    <glyph glyph-name="uni04F0" unicode="&#x4f0;" horiz-adv-x="605" 
d="M603 682l-245 -517q-47 -100 -95 -138t-121 -38q-19 0 -57 4v54h59q53 0 86.5 24.5t68.5 99.5l-284 511h73l244 -441l203 441h68zM255 764h-66v108h66v-108zM475 764h-66v108h66v-108z" />
    <glyph glyph-name="uni04F1" unicode="&#x4f1;" horiz-adv-x="481" 
d="M179 -210h-65l100 210l-199 476h70l83 -203q33 -80 75 -202h1q31 98 74 202l83 203h65zM184 569h-62v108h62v-108zM364 569h-62v108h62v-108z" />
    <glyph glyph-name="uni04F2" unicode="&#x4f2;" horiz-adv-x="605" 
d="M603 682l-245 -517q-47 -100 -95 -138t-121 -38q-19 0 -57 4v54h59q53 0 86.5 24.5t68.5 99.5l-284 511h73l244 -441l203 441h68zM177 751l78 130h90l-108 -130h-60zM375 751l94 130h95l-125 -130h-64z" />
    <glyph glyph-name="uni04F3" unicode="&#x4f3;" horiz-adv-x="481" 
d="M179 -210h-65l100 210l-199 476h70l83 -203q33 -80 75 -202h1q31 98 74 202l83 203h65zM120 551l69 140h80l-93 -140h-56zM288 551l85 140h87l-114 -140h-58z" />
    <glyph glyph-name="uni04F4" unicode="&#x4f4;" horiz-adv-x="678" 
d="M564 0h-64v271h-206q-108 0 -168.5 45.5t-60.5 154.5v211h64v-186q0 -92 40.5 -130.5t130.5 -38.5h200v355h64v-682zM240 764h-66v108h66v-108zM460 764h-66v108h66v-108z" />
    <glyph glyph-name="uni04F5" unicode="&#x4f5;" horiz-adv-x="514" 
d="M428 0h-60v215q-20 -33 -60 -53t-83 -20q-170 0 -170 189v145h60v-135q0 -147 116 -147q64 0 100.5 47t36.5 125v110h60v-476zM182 569h-62v108h62v-108zM362 569h-62v108h62v-108z" />
    <glyph glyph-name="uni04F8" unicode="&#x4f8;" horiz-adv-x="911" 
d="M178 355v-299q58 -1 172 -1q103 0 147.5 38t44.5 113q0 76 -44 113t-145 37q-118 0 -175 -1zM114 0v682h64v-271q60 1 176 1q256 0 256 -204q0 -104 -68 -156.5t-195 -52.5q-105 0 -233 1zM797 0h-64v682h64v-682zM378 764h-66v108h66v-108zM598 764h-66v108h66v-108z
" />
    <glyph glyph-name="uni04F9" unicode="&#x4f9;" horiz-adv-x="689" 
d="M86 4v472h60v-157q37 1 102 1q205 0 205 -159q0 -75 -52 -121t-157 -46q-70 0 -158 10zM146 267v-213q45 -8 100 -8q75 0 109 28t34 86q0 57 -34 82.5t-109 25.5q-64 0 -100 -1zM603 0h-60v476h60v-476zM285 569h-62v108h62v-108zM465 569h-62v108h62v-108z" />
    <glyph glyph-name="uni0E3F" unicode="&#xe3f;" 
d="M287 788h58v-107q119 -7 172 -60q44 -44 44 -109q0 -117 -116 -161q137 -31 137 -165q0 -53 -19 -90t-54 -56.5t-74.5 -28.5t-89.5 -11v-110h-58v109q-33 0 -91 0.5t-92 0.5v682q30 0 80.5 0.5t99.5 0.5h3v105zM168 319v-263q55 -1 146 -1q33 0 59 2.5t54 10.5t46 21.5
t30 37.5t12 57q0 38 -14 64.5t-33 40t-51 20.5t-54.5 8.5t-57.5 1.5h-137zM168 626v-253h143q52 0 88 8t64 36q32 32 32 89q0 47 -31 78q-25 25 -67 34t-115 9q-70 0 -114 -1z" />
    <glyph glyph-name="uni1E02" unicode="&#x1e02;" horiz-adv-x="704" 
d="M178 319v-263q55 -1 176 -1q50 0 85 4.5t68.5 17t50.5 39.5t17 68q0 38 -14.5 64.5t-34 40t-54 20.5t-60 8.5t-67.5 1.5h-167zM178 626v-253h173q67 0 105.5 8t66.5 36q32 32 32 89q0 47 -31 78q-25 25 -70 34t-132 9q-100 0 -144 -1zM114 0v682q30 0 96 0.5t114 0.5
q101 0 158 -12t95 -50q44 -44 44 -109q0 -117 -116 -161q137 -31 137 -165q0 -57 -22.5 -95.5t-66 -58t-91 -26.5t-112.5 -7q-40 0 -119 0.5t-117 0.5zM385 764h-66v108h66v-108z" />
    <glyph glyph-name="uni1E03" unicode="&#x1e03;" horiz-adv-x="575" 
d="M86 236v476h60v-216q0 -62 -3 -93h1q48 85 162 85q103 0 160.5 -69t57.5 -178q0 -118 -60.5 -185.5t-158.5 -67.5q-105 0 -161 83h-1l-4 -71h-60q7 161 7 236zM144 249v-21q0 -83 43.5 -135.5t115.5 -52.5q75 0 116 54t41 145q0 86 -42.5 141.5t-118.5 55.5
q-70 0 -112.5 -50t-42.5 -137zM333 569h-62v108h62v-108z" />
    <glyph glyph-name="uni1E0A" unicode="&#x1e0a;" horiz-adv-x="723" 
d="M178 625v-564q60 -3 127 -3q76 0 122 11t84 49q75 75 75 222q0 144 -77 221q-40 40 -87 52.5t-121 12.5q-88 0 -123 -1zM114 1v680q62 1 190 1q91 0 151 -18.5t108 -66.5q91 -91 91 -254q0 -167 -92 -259q-49 -49 -110.5 -66.5t-149.5 -17.5q-41 0 -108 0.5t-80 0.5z
M374 764h-66v108h66v-108z" />
    <glyph glyph-name="uni1E0B" unicode="&#x1e0b;" horiz-adv-x="575" 
d="M431 227v21q0 83 -43.5 135.5t-115.5 52.5q-75 0 -116 -54t-41 -145q0 -86 42.5 -141.5t118.5 -55.5q70 0 112.5 50t42.5 137zM492 0h-59l-2 73h-1q-47 -85 -161 -85q-103 0 -160.5 69t-57.5 178q0 118 60.5 185.5t158.5 67.5q105 0 160 -82h1q-2 34 -2 90v216h60v-476
q0 -166 3 -236zM301 569h-62v108h62v-108z" />
    <glyph glyph-name="uni1E1E" unicode="&#x1e1e;" horiz-adv-x="597" 
d="M114 0v682h434v-57h-370v-249h323v-54h-323v-322h-64zM361 764h-66v108h66v-108z" />
    <glyph glyph-name="uni1E1F" unicode="&#x1e1f;" horiz-adv-x="309" 
d="M115 0v426h-107v50h107v102q0 138 123 138q47 0 83 -15v-54q-40 17 -83 17q-35 0 -49 -20.5t-14 -63.5v-104h132v-50h-132v-426h-60zM264 805h-62v108h62v-108z" />
    <glyph glyph-name="uni1E40" unicode="&#x1e40;" horiz-adv-x="939" 
d="M114 0v682h103l152 -351q78 -180 100 -242h1q22 62 100 242l152 351h103v-682h-64v240q0 255 2 387h-2q-33 -77 -96 -225l-173 -402h-49l-174 403q-79 183 -95 224h-2q2 -132 2 -387v-240h-60zM502 764h-66v108h66v-108z" />
    <glyph glyph-name="uni1E41" unicode="&#x1e41;" horiz-adv-x="874" 
d="M794 0h-60v275q0 70 -17 104q-29 57 -103 57q-57 0 -93 -36q-51 -51 -51 -174v-226h-60v275q0 70 -17 104q-29 57 -103 57q-57 0 -93 -36q-51 -51 -51 -174v-226h-60v241q0 115 -3 235h59l2 -73h1q48 85 154 85q121 0 157 -99q58 99 167 99q82 0 126.5 -47t44.5 -142
v-299zM472 569h-62v108h62v-108z" />
    <glyph glyph-name="uni1E56" unicode="&#x1e56;" horiz-adv-x="631" 
d="M552 481q0 72 -44 108.5t-145 36.5q-128 0 -185 -1v-288q58 -1 182 -1q102 0 147 37t45 108zM114 0v682q34 0 121 0.5t129 0.5q256 0 256 -200q0 -101 -68 -152t-195 -51q-110 0 -179 1v-281h-64zM384 764h-66v108h66v-108z" />
    <glyph glyph-name="uni1E57" unicode="&#x1e57;" horiz-adv-x="575" 
d="M144 249v-21q0 -83 43.5 -135.5t115.5 -52.5q75 0 116 54t41 145q0 86 -42.5 141.5t-118.5 55.5q-70 0 -112.5 -50t-42.5 -137zM146 -210h-60v450q0 114 -3 236h59l2 -73h1q47 85 161 85q103 0 160.5 -69t57.5 -178q0 -118 -60.5 -185.5t-158.5 -67.5q-105 0 -160 82h-1
q2 -34 2 -90v-190zM333 569h-62v108h62v-108z" />
    <glyph glyph-name="uni1E60" unicode="&#x1e60;" horiz-adv-x="651" 
d="M62 119l45 45q99 -122 236 -122q77 0 124.5 35.5t47.5 95.5q0 42 -23.5 70.5t-61 43.5t-82.5 26.5t-90.5 25t-83 33.5t-61 58t-23.5 92q0 79 62 126.5t158 47.5q138 0 243 -102l-44 -46q-85 92 -200 92q-73 0 -113.5 -31t-40.5 -85q0 -56 44 -87.5t106.5 -46t124.5 -32.5
t106 -63t44 -120q0 -85 -69.5 -137t-168.5 -52q-165 0 -280 133zM346 764h-66v108h66v-108z" />
    <glyph glyph-name="uni1E61" unicode="&#x1e61;" horiz-adv-x="482" 
d="M49 75l39 44q71 -79 164 -79q52 0 82 22t30 61q0 37 -30.5 57.5t-74 30t-87 22t-74 44.5t-30.5 85q0 58 46 92t115 34q104 0 180 -70l-40 -42q-60 60 -141 60q-47 0 -73 -20t-26 -53q0 -36 30.5 -56.5t74 -30t87 -22t74 -44.5t30.5 -86q0 -63 -50.5 -99.5t-123.5 -36.5
q-118 0 -202 87zM260 569h-62v108h62v-108z" />
    <glyph glyph-name="uni1E6A" unicode="&#x1e6a;" horiz-adv-x="532" 
d="M234 0v625h-242v57h548v-57h-242v-625h-64zM299 764h-66v108h66v-108z" />
    <glyph glyph-name="uni1E6B" unicode="&#x1e6b;" horiz-adv-x="343" 
d="M112 426h-104v50h104v170l60 18v-188h147v-50h-147v-241q0 -70 3.5 -93t16.5 -36q15 -15 46 -15q50 0 81 18v-54q-34 -16 -88 -16q-62 0 -90.5 33.5t-28.5 111.5v292zM174 724h-62v108h62v-108z" />
    <glyph glyph-name="Wgrave" unicode="&#x1e80;" horiz-adv-x="1027" 
d="M324 0h-69l-218 682h72l97 -321q8 -27 41 -132.5t46 -150.5h1q17 56 90 284l103 320h53l107 -321q72 -214 93 -283h1q11 40 41 141t42 141l97 322h69l-218 -682h-69l-157 470q-16 46 -33 114h-1q-9 -34 -35 -114zM454 881l94 -130h-64l-125 130h95z" />
    <glyph glyph-name="wgrave" unicode="&#x1e81;" horiz-adv-x="816" 
d="M604 0h-49l-92 233q-42 109 -59 157h-2q-14 -44 -55 -157l-87 -233h-49l-187 476h71l89 -243q31 -85 53 -150h1q26 79 53 151l89 242h50l90 -232q56 -144 62 -161h1q26 77 56 159l83 234h69zM353 691l85 -140h-58l-114 140h87z" />
    <glyph glyph-name="Wacute" unicode="&#x1e82;" horiz-adv-x="1027" 
d="M324 0h-69l-218 682h72l97 -321q8 -27 41 -132.5t46 -150.5h1q17 56 90 284l103 320h53l107 -321q72 -214 93 -283h1q11 40 41 141t42 141l97 322h69l-218 -682h-69l-157 470q-16 46 -33 114h-1q-9 -34 -35 -114zM479 751l94 130h95l-126 -130h-63z" />
    <glyph glyph-name="wacute" unicode="&#x1e83;" horiz-adv-x="816" 
d="M604 0h-49l-92 233q-42 109 -59 157h-2q-14 -44 -55 -157l-87 -233h-49l-187 476h71l89 -243q31 -85 53 -150h1q26 79 53 151l89 242h50l90 -232q56 -144 62 -161h1q26 77 56 159l83 234h69zM368 551l85 140h86l-113 -140h-58z" />
    <glyph glyph-name="Wdieresis" unicode="&#x1e84;" horiz-adv-x="1027" 
d="M324 0h-69l-218 682h72l97 -321q8 -27 41 -132.5t46 -150.5h1q17 56 90 284l103 320h53l107 -321q72 -214 93 -283h1q11 40 41 141t42 141l97 322h69l-218 -682h-69l-157 470q-16 46 -33 114h-1q-9 -34 -35 -114zM436 764h-66v108h66v-108zM656 764h-66v108h66v-108z" />
    <glyph glyph-name="wdieresis" unicode="&#x1e85;" horiz-adv-x="816" 
d="M604 0h-49l-92 233q-42 109 -59 157h-2q-14 -44 -55 -157l-87 -233h-49l-187 476h71l89 -243q31 -85 53 -150h1q26 79 53 151l89 242h50l90 -232q56 -144 62 -161h1q26 77 56 159l83 234h69zM346 569h-62v108h62v-108zM526 569h-62v108h62v-108z" />
    <glyph glyph-name="uni1E9E" unicode="&#x1e9e;" horiz-adv-x="732" 
d="M107 0v443q0 251 284 251q121 0 233 -30v-47l-210 -231q120 0 193 -49t73 -151q0 -90 -64.5 -145t-169.5 -55q-70 0 -138 22l16 58q62 -24 125 -24q79 0 121.5 39.5t42.5 102.5q0 70 -51.5 108.5t-150.5 38.5h-69v55l213 234q-78 18 -167 18q-115 0 -166 -45.5
t-51 -146.5v-446h-64z" />
    <glyph glyph-name="Ygrave" unicode="&#x1ef2;" horiz-adv-x="598" 
d="M331 0h-64v294l-267 388h78l223 -329l223 329h74l-267 -388v-294zM247 881l94 -130h-64l-125 130h95z" />
    <glyph glyph-name="ygrave" unicode="&#x1ef3;" horiz-adv-x="481" 
d="M179 -210h-65l100 210l-199 476h70l83 -203q33 -80 75 -202h1q31 98 74 202l83 203h65zM194 691l85 -140h-58l-114 140h87z" />
    <glyph glyph-name="endash" unicode="&#x2013;" 
d="M585 299v-54h-520v54h520z" />
    <glyph glyph-name="emdash" unicode="&#x2014;" horiz-adv-x="966" 
d="M918 299v-54h-870v54h870z" />
    <glyph glyph-name="emdash" unicode="&#x2015;" horiz-adv-x="966" 
d="M918 299v-54h-870v54h870z" />
    <glyph glyph-name="quotesinglbase" unicode="&#x201a;" horiz-adv-x="249" 
d="M80 132h89v-109q0 -95 -17 -136t-72 -76l-27 37q40 28 52.5 57t12.5 95h-38v132z" />
    <glyph glyph-name="quotedblleft" unicode="&#x201c;" horiz-adv-x="425" 
d="M345 473h-85v109q0 95 16 136t69 77l26 -37q-37 -29 -48.5 -58t-11.5 -95h34v-132zM165 473h-85v109q0 95 16 136t69 77l26 -37q-37 -29 -48.5 -58t-11.5 -95h34v-132z" />
    <glyph glyph-name="quotedblright" unicode="&#x201d;" horiz-adv-x="425" 
d="M80 776h85v-109q0 -95 -15.5 -135t-68.5 -78l-28 37q37 28 49 57.5t12 95.5h-34v132zM260 776h85v-109q0 -95 -15.5 -135t-68.5 -78l-28 37q37 28 49 57.5t12 95.5h-34v132z" />
    <glyph glyph-name="quotedblbase" unicode="&#x201e;" horiz-adv-x="425" 
d="M80 132h85v-109q0 -95 -15.5 -135t-68.5 -78l-28 37q37 28 49 57.5t12 95.5h-34v132zM260 132h85v-109q0 -95 -15.5 -135t-68.5 -78l-28 37q37 28 49 57.5t12 95.5h-34v132z" />
    <glyph glyph-name="dagger" unicode="&#x2020;" horiz-adv-x="482" 
d="M271 96h-60v427h-165v52h165v177h60v-177h165v-52h-165v-427z" />
    <glyph glyph-name="daggerdbl" unicode="&#x2021;" horiz-adv-x="482" 
d="M436 325v-52h-165v-187h-60v187h-165v52h165v198h-165v52h165v177h60v-177h165v-52h-165v-198h165z" />
    <glyph glyph-name="bullet" unicode="&#x2022;" horiz-adv-x="416" 
d="M334 323q0 -53 -37 -90t-90 -37t-89 36t-36 89t37 90t90 37t89 -36t36 -89z" />
    <glyph glyph-name="ellipsis" unicode="&#x2026;" horiz-adv-x="815" 
d="M169 0h-89v137h89v-137zM452 0h-89v137h89v-137zM735 0h-89v137h89v-137z" />
    <glyph glyph-name="perthousand" unicode="&#x2030;" horiz-adv-x="1574" 
d="M377 558q0 87 -30 133t-88 46t-88 -46t-30 -133t30 -133t88 -46t88 46t30 133zM436 559q0 -106 -47 -167.5t-131 -61.5q-86 0 -131 60.5t-45 166.5t47 167.5t131 61.5q86 0 131 -60.5t45 -166.5zM788 778h65l-545 -874h-65zM955 124q0 87 -30 133t-88 46t-88 -46
t-30 -133t30 -133t88 -46t88 46t30 133zM1014 125q0 -106 -47 -167.5t-131 -61.5q-86 0 -131 60.5t-45 166.5t47 167.5t131 61.5q86 0 131 -60.5t45 -166.5zM1433 124q0 87 -30 133t-88 46t-88 -46t-30 -133t30 -133t88 -46t88 46t30 133zM1492 125q0 -106 -47 -167.5
t-131 -61.5q-86 0 -131 60.5t-45 166.5t47 167.5t131 61.5q86 0 131 -60.5t45 -166.5z" />
    <glyph glyph-name="guilsinglleft" unicode="&#x2039;" horiz-adv-x="398" 
d="M308 72l-46 -28l-182 227l182 227l46 -26l-144 -199z" />
    <glyph glyph-name="guilsinglright" unicode="&#x203a;" horiz-adv-x="398" 
d="M90 471l46 28l182 -227l-182 -227l-46 26l144 199z" />
    <glyph glyph-name="fraction" unicode="&#x2044;" horiz-adv-x="388" 
d="M434 778h65l-545 -874h-65z" />
    <glyph glyph-name="zero.superior" unicode="&#x2070;" horiz-adv-x="518" 
d="M377 558q0 87 -30 133t-88 46t-88 -46t-30 -133t30 -133t88 -46t88 46t30 133zM436 559q0 -106 -47 -167.5t-131 -61.5q-86 0 -131 60.5t-45 166.5t47 167.5t131 61.5q86 0 131 -60.5t45 -166.5z" />
    <glyph glyph-name="four.superior" unicode="&#x2074;" horiz-adv-x="477" 
d="M341 338h-57v98h-229v53l201 289h85v-292h81v-50h-81v-98zM113 483q92 3 171 3v123q0 91 2 121h-1z" />
    <glyph glyph-name="uni2081" unicode="&#x2081;" horiz-adv-x="350" 
d="M250 -96h-57v347q-42 -35 -133 -35v51q127 0 141 79h49v-442z" />
    <glyph glyph-name="uni2082" unicode="&#x2082;" horiz-adv-x="497" 
d="M421 -45v-51h-334v55q156 100 207 150t51 105q0 42 -25.5 66t-72.5 24q-97 0 -97 -82q0 -28 9 -53h-59q-10 19 -10 52q0 63 43.5 97t116.5 34q76 0 116 -39t40 -97q0 -67 -53.5 -123t-187.5 -138v-1q45 1 124 1h132z" />
    <glyph glyph-name="uni2083" unicode="&#x2083;" horiz-adv-x="494" 
d="M72 22l57 14q18 -91 126 -91q50 0 78 22t28 61q0 77 -106 77h-68v47h49q66 0 90 24q19 19 19 56q0 32 -25.5 52t-70.5 20q-89 0 -105 -81l-57 13q26 116 165 116q71 0 112 -32t41 -86q0 -76 -69 -100v-1q86 -21 86 -107q0 -54 -46 -92t-122 -38q-155 0 -182 126z" />
    <glyph glyph-name="uni2084" unicode="&#x2084;" horiz-adv-x="477" 
d="M341 -96h-57v98h-229v53l201 289h85v-292h81v-50h-81v-98zM113 49q91 3 171 3v123q0 91 2 121h-1z" />
    <glyph glyph-name="Euro" unicode="&#x20ac;" horiz-adv-x="720" 
d="M436 291v-51h-235q20 -94 76 -146.5t142 -52.5q114 0 186 101l45 -33q-89 -123 -233 -123q-111 0 -185.5 67.5t-97.5 186.5h-99v51h92q-2 16 -2 49q0 19 2 53h-92v51h100q24 123 103 187.5t182 64.5q140 0 226 -114l-52 -37q-68 97 -175 97q-83 0 -140 -51.5t-77 -146.5
h234v-51h-242q-2 -17 -2 -52q0 -18 2 -50h242z" />
    <glyph glyph-name="uni20AE" unicode="&#x20ae;" 
d="M112 372l181 44v209h-252v57h568v-57h-252v-193l181 45v-54l-181 -45v-108l181 45v-54l-181 -45v-216h-64v200l-181 -44v54l181 44v108l-181 -44v54z" />
    <glyph glyph-name="uni20B4" unicode="&#x20b4;" 
d="M65 452h370q29 37 29 84t-36 75.5t-95 28.5q-99 0 -163 -81l-41 44q35 43 90.5 68t115.5 25q88 0 141.5 -45.5t53.5 -113.5q0 -46 -21 -85h76v-51h-117q-22 -20 -52.5 -38t-69 -38t-57.5 -32h296v-51h-359q-34 -40 -34 -91t38.5 -80t100.5 -29q109 0 181 96l43 -42
q-87 -110 -228 -110q-89 0 -145 46.5t-56 117.5q0 51 25 92h-86v51h130q30 25 95.5 60t85.5 48h-311v51z" />
    <glyph glyph-name="uni20B8" unicode="&#x20b8;" 
d="M600 523v-57h-243v-466h-64v466h-243v57h550zM50 682h550v-57h-550v57z" />
    <glyph glyph-name="uni20BA" unicode="&#x20ba;" 
d="M59 405l113 29v248h64v-231l227 59v-52l-227 -59v-102l227 59v-52l-227 -59v-193q20 -1 30 -1q103 0 170 17t131 56v-65q-115 -63 -306 -63q-33 0 -89 4v228l-113 -29v52l113 29v102l-113 -29v52z" />
    <glyph glyph-name="uni20BD" unicode="&#x20bd;" 
d="M451 126h-232v-126h-64v126h-96v53h96v103h-96v55h96v345q36 0 105.5 0.5t99.5 0.5q113 0 177 -51.5t64 -148.5q0 -94 -66.5 -147.5t-181.5 -53.5h-134v-103h232v-53zM533 481q0 145 -174 145q-93 0 -140 -1v-288h137q177 0 177 144z" />
    <glyph glyph-name="afii61289" unicode="&#x2113;" horiz-adv-x="444" 
d="M252 -11q-64 0 -99 43t-49 131l-52 -29l-27 47l72 39q-4 52 -4 131q0 141 18.5 223.5t49.5 112t80 29.5q117 0 117 -192q0 -215 -197 -330q8 -76 30 -114t66 -38q42 0 83 38l26 -41q-52 -50 -114 -50zM155 351q0 -69 1 -99q62 35 100.5 103t38.5 166q0 74 -14 108.5
t-46 34.5q-18 0 -31.5 -12.5t-25 -45.5t-17.5 -96.5t-6 -158.5z" />
    <glyph glyph-name="uni2116" unicode="&#x2116;" horiz-adv-x="1140" 
d="M919 358q-75 0 -117.5 46.5t-42.5 121.5q0 70 43 120t119 50q75 0 117.5 -46.5t42.5 -120.5q0 -71 -43 -121t-119 -50zM920 407q48 0 74.5 32.5t26.5 88.5q0 53 -26.5 86t-74.5 33t-74.5 -32.5t-26.5 -87.5q0 -54 26.5 -87t74.5 -33zM1066 246h-292v49h292v-49zM646 0
h-79l-259 399q-122 189 -136 211h-1q3 -135 3 -370v-240h-60v682h85l254 -388q58 -88 135 -212h1q-3 135 -3 370v230h60v-682z" />
    <glyph glyph-name="trademark" unicode="&#x2122;" horiz-adv-x="879" 
d="M156 314v323h-126v45h301v-45h-124v-323h-51zM398 314v368h75l96 -223q13 -29 26 -75h1q13 43 26 74l97 224h76v-368h-51v129q0 129 3 196h-1q-9 -31 -26 -71l-110 -254h-33l-109 254q-17 40 -26 71h-1q3 -68 3 -196v-129h-46z" />
    <glyph glyph-name="estimated" unicode="&#x212e;" horiz-adv-x="928" 
d="M215 369h497v175q0 33 -22 49q-88 66 -226 66q-143 0 -227 -67q-22 -19 -22 -55v-168zM466 -14q-179 0 -288 96t-109 258q0 160 110.5 258t286.5 98t284.5 -96t108.5 -255q0 -8 -1 -12h-643v-185q0 -24 7 -36.5t24 -25.5q84 -62 222 -62q89 0 168 28.5t133 81.5h59
q-58 -70 -153 -109t-209 -39z" />
    <glyph glyph-name="partialdiff" unicode="&#x2202;" horiz-adv-x="554" 
d="M270 40q74 0 117.5 56.5t43.5 142.5q0 88 -43 142.5t-115 54.5q-75 0 -116 -54t-41 -145q0 -86 41 -141.5t113 -55.5zM267 -12q-101 0 -158 69t-57 178q0 118 60.5 185.5t158.5 67.5q64 0 112 -33t66 -80h1q-1 7 -5.5 44t-9.5 61t-21.5 59.5t-41.5 60.5q-44 44 -117 44
q-74 0 -135 -23v56q60 19 137 19q127 0 187 -90.5t60 -269.5q0 -182 -63.5 -265t-173.5 -83z" />
    <glyph glyph-name="product" unicode="&#x220f;" horiz-adv-x="796" 
d="M652 -210h-64v930h-380v-930h-64v930h-132v58h772v-58h-132v-930z" />
    <glyph glyph-name="summation" unicode="&#x2211;" horiz-adv-x="648" 
d="M39 -210v58l314 448l-297 425v57h541v-59q-204 0 -462 2l294 -420l-318 -453q264 2 500 2v-60h-572z" />
    <glyph glyph-name="minus" unicode="&#x2212;" 
d="M585 348v-52h-520v52h520z" />
    <glyph glyph-name="radical" unicode="&#x221a;" horiz-adv-x="700" 
d="M326 -96h-57l-152 388h-104v52h152l68 -179q55 -144 67 -186h1q13 46 99 273l199 526h69z" />
    <glyph glyph-name="infinity" unicode="&#x221e;" horiz-adv-x="966" 
d="M246 123q-87 0 -144 54.5t-57 141.5q0 91 58.5 146.5t149.5 55.5q69 0 122 -40t110 -114q58 74 111.5 114t123.5 40q87 0 144 -54.5t57 -141.5q0 -91 -58.5 -146.5t-149.5 -55.5q-70 0 -123 40t-109 113q-58 -73 -112 -113t-123 -40zM717 469q-55 0 -99.5 -37t-99.5 -108
q37 -49 60.5 -75.5t61.5 -50t77 -23.5q65 0 102.5 41t37.5 106t-37 106t-103 41zM249 175q55 0 99 36.5t100 108.5q-37 48 -61 75t-61.5 50.5t-76.5 23.5q-65 0 -102.5 -41t-37.5 -106t37 -106t103 -41z" />
    <glyph glyph-name="integral" unicode="&#x222b;" horiz-adv-x="332" 
d="M80 -220q-49 0 -87 20l9 54q36 -20 73 -20q59 0 59 77v742q0 133 118 133q44 0 87 -19l-9 -55q-40 20 -73 20q-59 0 -59 -77v-742q0 -133 -118 -133z" />
    <glyph glyph-name="approxequal" unicode="&#x2248;" 
d="M434 350q-47 0 -83.5 18.5t-69 37t-68.5 18.5q-53 0 -119 -58l-32 40q75 72 154 72q47 0 83.5 -18.5t69 -37t68.5 -18.5q53 0 119 58l31 -40q-75 -72 -153 -72zM434 166q-47 0 -83.5 18.5t-69 37t-68.5 18.5q-53 0 -119 -58l-32 40q75 72 154 72q47 0 83.5 -18.5t69 -37
t68.5 -18.5q53 0 119 58l31 -40q-75 -72 -153 -72z" />
    <glyph glyph-name="notequal" unicode="&#x2260;" 
d="M209 28h-62l88 176h-160v52h186l65 132h-251v52h277l84 170h63l-86 -170h162v-52h-188l-66 -132h254v-52h-280z" />
    <glyph glyph-name="lessequal" unicode="&#x2264;" 
d="M575 52v-52h-500v52h500zM575 267v-66l-500 199v66l500 199v-64q-347 -138 -432 -166v-2q85 -28 432 -166z" />
    <glyph glyph-name="greaterequal" unicode="&#x2265;" 
d="M575 52v-52h-500v52h500zM75 599v66l500 -199v-66l-500 -199v64q347 138 432 166v2q-85 28 -432 166z" />
    <glyph glyph-name="lozenge" unicode="&#x25ca;" horiz-adv-x="646" 
d="M355 0h-63l-219 341l218 341h63l219 -341zM323 53h2q16 33 179 287q-164 255 -181 289h-2q-16 -33 -179 -287q164 -255 181 -289z" />
    <glyph glyph-name="uniF8FF" unicode="&#xf8ff;" horiz-adv-x="820" 
d="M144 608v-532h532v532h-532zM68 0v684h684v-684h-684zM220 152v380h76v-304h152v-76h-228zM524 152v152h-152v76h152v76h-152v76h228v-380h-76z" />
    <glyph glyph-name="fi" unicode="&#xfb01;" horiz-adv-x="559" 
d="M115 0v426h-107v50h107v102q0 138 123 138q47 0 83 -15v-54q-40 17 -83 17q-35 0 -49 -20.5t-14 -63.5v-104h132v-50h-132v-426h-60zM473 0h-60v476h60v-476zM412 564v118h62v-118h-62z" />
    <glyph glyph-name="fl" unicode="&#xfb02;" horiz-adv-x="559" 
d="M413 0v712h60v-712h-60zM115 0v426h-107v50h107v102q0 138 123 138q47 0 83 -15v-54q-40 17 -83 17q-35 0 -49 -20.5t-14 -63.5v-104h132v-50h-132v-426h-60z" />
    <glyph glyph-name="uni0431.SRB" horiz-adv-x="554" 
d="M463 712v-56h-203q-89 0 -89 -50q0 -23 32 -45.5t73 -39.5t89.5 -43.5t73.5 -52.5q64 -67 64 -186q0 -109 -59.5 -180t-167.5 -71q-109 0 -167 69.5t-58 179.5q0 97 45.5 162t126.5 83q-116 39 -116 123q0 107 155 107h201zM277 436q-76 0 -119 -56t-43 -142
q0 -85 43.5 -141.5t118.5 -56.5q76 0 119 56t43 142q0 85 -43.5 141.5t-118.5 56.5z" />
    <glyph glyph-name="uni0432.bul" horiz-adv-x="539" 
d="M449 560q0 -60 -29 -103.5t-79 -64.5q147 -33 147 -190q0 -91 -54.5 -152.5t-153.5 -61.5q-200 0 -200 210v312q0 216 185 216q86 0 135 -43.5t49 -122.5zM140 359v-158q0 -72 36 -116.5t106 -44.5t106 45t36 116q0 72 -41.5 115t-131.5 43h-111zM140 512v-103h104
q65 2 103 44.5t38 104.5q0 54 -31.5 85t-90.5 31q-123 0 -123 -162z" />
    <glyph glyph-name="uni0433.bul" horiz-adv-x="455" 
d="M383 117l39 -42q-78 -87 -197 -87q-80 0 -128 34t-48 99q0 47 29 77.5t70.5 46t83.5 28.5t71 34.5t29 55.5t-26 53.5t-76 19.5q-79 0 -135 -60l-39 40q73 72 176 72q77 0 120.5 -33t43.5 -90q0 -47 -29 -77.5t-70.5 -45.5t-83.5 -28t-71 -35t-29 -56q0 -83 114 -83
q94 0 156 77z" />
    <glyph glyph-name="uni0434.bul" horiz-adv-x="577" 
d="M437 476h61q-7 -74 -7 -236v-260q0 -92 -49.5 -145.5t-154.5 -53.5q-144 0 -221 125l56 32q58 -105 167 -105q71 0 107 38.5t36 105.5q0 16 0.5 49t0.5 47h-1q-50 -85 -162 -85q-103 0 -160.5 69t-57.5 178q0 118 60.5 185.5t158.5 67.5q105 0 161 -83h1zM432 227v21
q0 83 -43.5 135.5t-115.5 52.5q-75 0 -116 -54t-41 -145q0 -86 42.5 -141.5t118.5 -55.5q70 0 112.5 50t42.5 137z" />
    <glyph glyph-name="uni0436.bul" horiz-adv-x="742" 
d="M734 0h-74l-188 230h-71v-230h-60v230h-70l-189 -230h-74l216 260l-198 216h76l172 -197h67v433h60v-433h69l172 197h74l-197 -214z" />
    <glyph glyph-name="uni0438.bul" horiz-adv-x="548" 
d="M465 0h-59l-2 73h-1q-48 -85 -153 -85q-81 0 -125.5 47t-44.5 142v299h60v-275q0 -70 17 -104q29 -57 100 -57q58 0 94 36q51 51 51 174v226h60v-241q0 -124 3 -235z" />
    <glyph glyph-name="uni0419.bul" horiz-adv-x="752" 
d="M638 0h-64v587l-396 -587h-64v682h64v-587l396 587h64v-682zM509 834l22 -44q-59 -39 -157 -39q-94 0 -153 39l22 44q53 -29 133 -29t133 29z" />
    <glyph glyph-name="uni0439.bul" horiz-adv-x="548" 
d="M465 0h-59l-2 73h-1q-48 -85 -153 -85q-81 0 -125.5 47t-44.5 142v299h60v-275q0 -70 17 -104q29 -57 100 -57q58 0 94 36q51 51 51 174v226h60v-241q0 -124 3 -235zM397 660l22 -42q-59 -39 -145 -39t-145 39l22 42q57 -29 125 -29t121 29z" />
    <glyph glyph-name="uni045D.bul" horiz-adv-x="548" 
d="M465 0h-59l-2 73h-1q-48 -85 -153 -85q-81 0 -125.5 47t-44.5 142v299h60v-275q0 -70 17 -104q29 -57 100 -57q58 0 94 36q51 51 51 174v226h60v-241q0 -124 3 -235zM224 691l85 -140h-58l-114 140h87z" />
    <glyph glyph-name="uni043A.bul" horiz-adv-x="501" 
d="M493 0h-78l-202 230h-67v-230h-60v712h60v-433h67l194 197h77l-219 -217z" />
    <glyph glyph-name="uni041B.alt" horiz-adv-x="628" 
d="M610 0h-73l-144 382q-70 188 -81 223h-1q-11 -35 -81 -223l-143 -382h-69l266 682h60z" />
    <glyph glyph-name="uni043B.alt" horiz-adv-x="481" 
d="M466 0h-70l-83 203q-33 80 -75 202h-1q-30 -97 -74 -202l-83 -203h-65l199 476h53z" />
    <glyph glyph-name="uni043F.bul" horiz-adv-x="554" 
d="M474 0h-60v275q0 70 -17 104q-29 57 -105 57q-59 0 -95 -36q-51 -51 -51 -174v-226h-60v241q0 115 -3 235h59l2 -73h1q48 85 156 85q83 0 128 -47t45 -142v-299z" />
    <glyph glyph-name="uni0442.bul" horiz-adv-x="874" 
d="M794 0h-60v275q0 70 -17 104q-29 57 -103 57q-57 0 -93 -36q-51 -51 -51 -174v-226h-60v275q0 70 -17 104q-29 57 -103 57q-57 0 -93 -36q-51 -51 -51 -174v-226h-60v241q0 115 -3 235h59l2 -73h1q48 85 154 85q121 0 157 -99q58 99 167 99q82 0 126.5 -47t44.5 -142
v-299z" />
    <glyph glyph-name="uni0446.bul" horiz-adv-x="578" 
d="M563 -143h-54v143q-91 0 -105 73h-1q-48 -85 -153 -85q-81 0 -125.5 47t-44.5 142v299h60v-275q0 -70 17 -104q29 -57 100 -57q58 0 94 36q51 51 51 174v226h60v-358q0 -41 14.5 -54.5t51.5 -13.5h35v-193z" />
    <glyph glyph-name="uni0448.bul" horiz-adv-x="874" 
d="M788 476v-241q0 -115 3 -235h-59l-2 73h-1q-48 -85 -154 -85q-121 0 -157 99q-58 -99 -167 -99q-82 0 -126.5 47t-44.5 142v299h60v-275q0 -70 17 -104q29 -57 103 -57q57 0 93 36q51 51 51 174v226h60v-275q0 -70 17 -104q29 -57 103 -57q57 0 93 36q51 51 51 174v226
h60z" />
    <glyph glyph-name="uni0449.bul" horiz-adv-x="904" 
d="M889 -143h-54v143q-91 0 -105 73h-1q-48 -85 -154 -85q-121 0 -157 99q-58 -99 -167 -99q-82 0 -126.5 47t-44.5 142v299h60v-275q0 -70 17 -104q29 -57 103 -57q57 0 93 36q51 51 51 174v226h60v-275q0 -70 17 -104q29 -57 103 -57q57 0 93 36q51 51 51 174v226h60v-358
q0 -41 14.5 -54.5t51.5 -13.5h35v-193z" />
    <glyph glyph-name="uni044A.bul" horiz-adv-x="580" 
d="M20 426v50h202v-164q55 11 116 11q108 0 157.5 -46.5t49.5 -120.5q0 -72 -51 -120t-144 -48q-89 0 -138.5 43.5t-49.5 122.5v272h-142zM222 260v-100q0 -57 34.5 -89t94.5 -32q62 0 96 32t34 84q0 53 -36 85t-108 32q-55 0 -115 -12z" />
    <glyph glyph-name="uni044B.bul" horiz-adv-x="683" 
d="M80 154v322h60v-164q52 11 111 11q103 0 150 -46.5t47 -120.5q0 -72 -49 -120t-138 -48q-86 0 -133.5 43.5t-47.5 122.5zM140 260v-100q0 -57 32.5 -89t89.5 -32q58 0 90 32t32 84q0 53 -34 85t-102 32q-51 0 -108 -12zM597 0h-60v476h60v-476z" />
    <glyph glyph-name="uni044C.bul" horiz-adv-x="498" 
d="M80 154v322h60v-164q55 11 116 11q108 0 157.5 -46.5t49.5 -120.5q0 -72 -51 -120t-144 -48q-89 0 -138.5 43.5t-49.5 122.5zM140 260v-100q0 -57 34.5 -89t94.5 -32q62 0 96 32t34 84q0 53 -36 85t-108 32q-55 0 -115 -12z" />
    <glyph glyph-name="uni044E.bul" horiz-adv-x="755" 
d="M704 239q0 -109 -56.5 -180t-160.5 -71q-105 0 -159.5 68t-55.5 176h-126v-232h-60v712h60v-430h128q12 92 67.5 149t147.5 57q106 0 160.5 -69.5t54.5 -179.5zM640 238q0 86 -40.5 142t-111.5 56q-72 0 -112 -56t-40 -142t40.5 -142t111.5 -56q72 0 112 56t40 142z" />
    <glyph glyph-name="grave.cap" horiz-adv-x="331" 
d="M166 881l94 -130h-64l-125 130h95z" />
    <glyph glyph-name="acute.cap" horiz-adv-x="341" 
d="M76 751l94 130h95l-126 -130h-63z" />
    <glyph glyph-name="circumflex.cap" horiz-adv-x="444" 
d="M74 751l119 130h58l119 -130h-66l-82 76l-82 -76h-66z" />
    <glyph glyph-name="caron.cap" horiz-adv-x="444" 
d="M370 881l-118 -130h-60l-118 130h65l83 -76l83 76h65z" />
    <glyph glyph-name="tilde.narrow" horiz-adv-x="432" 
d="M161 628q-28 0 -28 -64h-50q0 115 80 115q26 0 47 -17t35.5 -34t25.5 -17q28 0 28 64h50q0 -115 -80 -115q-26 0 -47 17t-35.5 34t-25.5 17z" />
    <glyph glyph-name="tilde.cap" horiz-adv-x="492" 
d="M176 822q-20 0 -30.5 -19t-10.5 -46h-52q0 51 23.5 85t71.5 34q30 0 56.5 -17t47 -34.5t34.5 -17.5q20 0 30.5 19t10.5 46h52q0 -51 -23.5 -85t-71.5 -34q-30 0 -56.5 17.5t-47 34.5t-34.5 17z" />
    <glyph glyph-name="dieresis.narrow" horiz-adv-x="388" 
d="M145 569h-62v108h62v-108zM305 569h-62v108h62v-108z" />
    <glyph glyph-name="dieresis.cap" horiz-adv-x="452" 
d="M149 764h-66v108h66v-108zM369 764h-66v108h66v-108z" />
    <glyph glyph-name="macron.cap" horiz-adv-x="456" 
d="M373 840v-55h-290v55h290z" />
    <glyph glyph-name="breve.cap" horiz-adv-x="444" 
d="M308 881h55q0 -63 -36.5 -98.5t-105.5 -35.5t-104.5 35t-35.5 99h55q0 -79 86 -79t86 79z" />
    <glyph glyph-name="ring.cap" horiz-adv-x="388" 
d="M291 835q0 -38 -26.5 -65t-71.5 -27q-46 0 -71 25.5t-25 65.5q0 38 26.5 65t71.5 27q46 0 71 -25.5t25 -65.5zM241 834q0 21 -12.5 35t-34.5 14t-34.5 -14t-12.5 -35t12.5 -34.5t34.5 -13.5t34.5 13.5t12.5 34.5z" />
    <glyph glyph-name="ringacute" horiz-adv-x="416" 
d="M284 626q0 -38 -26.5 -65t-71.5 -27q-46 0 -71 25.5t-25 65.5q0 38 26.5 65t71.5 27q46 0 71 -25.5t25 -65.5zM234 625q0 21 -12.5 35t-34.5 14t-34.5 -14t-12.5 -35t12.5 -34.5t34.5 -13.5t34.5 13.5t12.5 34.5zM158 764l83 115h92l-116 -115h-59z" />
    <glyph glyph-name="ringacute.cap" horiz-adv-x="423" 
d="M290 747q0 -38 -26 -63.5t-71 -25.5q-46 0 -70.5 24.5t-24.5 63.5q0 38 26 63.5t71 25.5q46 0 70.5 -24.5t24.5 -63.5zM239 746q0 21 -11.5 34t-33.5 13t-33.5 -13t-11.5 -33q0 -21 11.5 -34t33.5 -13t33.5 13t11.5 33zM156 877l83 103h97l-116 -103h-64z" />
    <glyph glyph-name="hungarumlaut.cap" horiz-adv-x="543" 
d="M78 751l78 130h90l-108 -130h-60zM276 751l94 130h95l-125 -130h-64z" />
    <glyph glyph-name="dotaccent.cap" horiz-adv-x="232" 
d="M149 764h-66v108h66v-108z" />
    <glyph glyph-name="uni0326.cap" horiz-adv-x="263" 
d="M114 -55h66v-75q0 -35 -18.5 -58.5t-61.5 -23.5h-17v36h17q34 0 34 40h-20v81z" />
    <glyph glyph-name="cedilla.cap" horiz-adv-x="286" 
d="M151 -210h-69q1 1 8 7.5t9 8.5l8.5 8.5t8.5 9.5t7 8.5t7 9.5l4.5 9t3.5 9.5t1 8.5q0 30 -53 52l45 79h60l-32 -55q44 -31 44 -72q0 -20 -16.5 -44.5t-35.5 -38.5z" />
    <glyph glyph-name="ogonek.cap" horiz-adv-x="322" 
d="M150 0h65q-43 -64 -56 -91t-13 -46q0 -26 37 -26h56v-46q-22 -7 -59 -7q-55 0 -76 19.5t-21 53.5q0 46 67 143z" />
    <glyph glyph-name="tonos.cap" horiz-adv-x="248" 
d="M82 541l31 185h69l-50 -185h-50z" />
    <glyph glyph-name="tonos.long" horiz-adv-x="248" 
d="M83 511l17 180h69l-41 -180h-45z" />
    <glyph glyph-name="anoteleia.cap" horiz-adv-x="268" 
d="M176 297h-84v110h84v-110z" />
    <glyph glyph-name="breve.cyr" horiz-adv-x="446" 
d="M304 686h59q-15 -132 -141 -132q-124 0 -139 132h59q9 -42 26.5 -65t54.5 -23q72 0 81 88z" />
    <glyph glyph-name="breve.cyr.cap" horiz-adv-x="470" 
d="M325 881h62q-6 -62 -46 -98t-107 -36t-106 36t-45 98h62q4 -35 24.5 -62t65.5 -27t65.5 27t24.5 62z" />
    <glyph glyph-name="breve.bul" horiz-adv-x="456" 
d="M351 660l22 -42q-59 -39 -145 -39t-145 39l22 42q57 -29 125 -29t121 29z" />
    <glyph glyph-name="breve.bul.cap" horiz-adv-x="476" 
d="M371 834l22 -44q-59 -39 -157 -39q-94 0 -153 39l22 44q53 -29 133 -29t133 29z" />
    <glyph glyph-name="guilsinglleft.cap" horiz-adv-x="418" 
d="M318 141l-46 -28l-182 227l182 227l46 -26l-144 -199z" />
    <glyph glyph-name="guilsinglright.cap" horiz-adv-x="418" 
d="M100 540l46 28l182 -227l-182 -227l-46 26l144 199z" />
    <glyph glyph-name="guillemotleft.cap" horiz-adv-x="660" 
d="M318 141l-46 -28l-182 227l182 227l46 -26l-144 -199zM560 157l-46 -27l-174 210l174 211l46 -26l-136 -183z" />
    <glyph glyph-name="guillemotright.cap" horiz-adv-x="660" 
d="M342 540l46 28l182 -227l-182 -227l-46 26l144 199zM100 524l46 27l174 -210l-174 -211l-46 26l136 183z" />
    <glyph glyph-name="slash.cap" horiz-adv-x="404" 
d="M88 -14h-60l290 710h60z" />
    <glyph glyph-name="backslash.cap" horiz-adv-x="404" 
d="M377 -14h-60l-290 710h60z" />
    <glyph glyph-name="hyphen.cap" horiz-adv-x="378" 
d="M329 310h-280v62h280v-62z" />
    <glyph glyph-name="endash.cap" horiz-adv-x="670" 
d="M595 368v-54h-520v54h520z" />
    <glyph glyph-name="emdash.cap" horiz-adv-x="986" 
d="M928 368v-54h-870v54h870z" />
    <glyph glyph-name="bullet.cap" horiz-adv-x="436" 
d="M344 353q0 -53 -37 -90t-90 -37t-89 36t-36 89t37 90t90 37t89 -36t36 -89z" />
    <glyph glyph-name="periodcentered.cap" horiz-adv-x="268" 
d="M176 297h-84v110h84v-110z" />
    <glyph glyph-name="zero.oldstyle" 
d="M504 273q0 113 -47.5 172.5t-131.5 59.5q-85 0 -132 -59t-47 -173q0 -113 47.5 -172.5t131.5 -59.5q85 0 132 59t47 173zM571 274q0 -133 -65.5 -210.5t-181.5 -77.5t-180.5 76t-64.5 210q0 133 65.5 210.5t181.5 77.5t180.5 -76t64.5 -210z" />
    <glyph glyph-name="one.oldstyle" horiz-adv-x="434" 
d="M246 0v437q-59 -59 -186 -59v54q167 0 191 118h59v-550h-64z" />
    <glyph glyph-name="two.oldstyle" horiz-adv-x="610" 
d="M534 58v-58h-456v67q123 76 198.5 129t111.5 90.5t46.5 61t10.5 52.5q0 47 -36.5 76.5t-109.5 29.5q-71 0 -104.5 -30.5t-33.5 -77.5q0 -32 13 -65h-66q-14 25 -14 66q0 71 57.5 116t150.5 45q103 0 157 -44.5t54 -110.5q0 -37 -11.5 -66t-48 -69.5t-110 -93
t-192.5 -123.5v-1q198 6 383 6z" />
    <glyph glyph-name="three.oldstyle" horiz-adv-x="638" 
d="M52 48l62 22q14 -79 64.5 -121.5t133.5 -42.5q80 0 124 39.5t44 102.5q0 67 -46 102.5t-125 35.5h-105v53h69q111 0 158 47q31 31 31 90q0 58 -43 93.5t-112 35.5q-133 0 -165 -144l-62 15q45 184 230 184q98 0 158 -50.5t60 -131.5q0 -117 -124 -160v-1q71 -12 107 -56
t36 -108q0 -84 -64.5 -143.5t-172.5 -59.5t-173.5 51.5t-84.5 146.5z" />
    <glyph glyph-name="four.oldstyle" horiz-adv-x="630" 
d="M111 93q180 3 276 3v207q0 104 4 186h-1zM449 -136h-62v177h-342v52l319 453h85v-450h126v-55h-126v-177z" />
    <glyph glyph-name="five.oldstyle" horiz-adv-x="610" 
d="M502 546v-56h-320l-18 -234h1q20 29 63 46t90 17q106 0 167.5 -65t61.5 -167q0 -101 -65 -169t-175 -68q-165 0 -249 148l55 36q65 -128 195 -128q79 0 125.5 49t46.5 130q0 80 -45 129.5t-122 49.5q-58 0 -99 -26t-55 -65h-57l29 373h371z" />
    <glyph glyph-name="six.oldstyle" horiz-adv-x="634" 
d="M549 562l-57 -31q-51 109 -161 109q-98 0 -142 -83.5t-42 -258.5q20 60 73 93.5t122 33.5q107 0 164.5 -58t57.5 -152t-62.5 -161.5t-167.5 -67.5q-120 0 -186 88t-66 251q0 178 66 274.5t186 96.5q147 0 215 -134zM340 370q-79 0 -123 -44.5t-44 -116.5t44.5 -119.5
t117.5 -47.5q76 0 119 49t43 123t-41.5 115t-115.5 41z" />
    <glyph glyph-name="seven.oldstyle" horiz-adv-x="580" 
d="M250 -136h-67q14 162 77.5 313t190.5 313h-393v56h465v-49q-242 -302 -273 -633z" />
    <glyph glyph-name="eight.oldstyle" horiz-adv-x="654" 
d="M585 188q0 -86 -69 -144t-191 -58q-121 0 -188.5 56.5t-67.5 140.5q0 62 35.5 107t102.5 67v1q-53 18 -83.5 57t-30.5 95q0 79 64 132.5t172 53.5t170 -52.5t62 -131.5q0 -54 -30.5 -93.5t-83.5 -59.5v-1q138 -41 138 -170zM518 185q0 67 -51.5 105t-140.5 38
q-88 0 -139 -38t-51 -105q0 -66 51.5 -104.5t139.5 -38.5t139.5 38.5t51.5 104.5zM495 511q0 60 -45.5 95t-122.5 35t-122.5 -35t-45.5 -95q0 -61 45.5 -95.5t122.5 -34.5t122.5 34.5t45.5 95.5z" />
    <glyph glyph-name="nine.oldstyle" horiz-adv-x="634" 
d="M75 -12l58 31q50 -113 170 -113q98 0 142 83.5t42 258.5q-20 -60 -73 -93.5t-122 -33.5q-108 0 -165 58t-57 152t62.5 161.5t167.5 67.5q120 0 186 -88t66 -251q0 -178 -66 -274.5t-186 -96.5q-80 0 -135 32.5t-90 105.5zM294 176q79 0 123 44.5t44 116.5t-44.5 119.5
t-117.5 47.5q-76 0 -119 -49t-43 -123t40.5 -115t116.5 -41z" />
    <glyph glyph-name="zero.LinTab" 
d="M504 341q0 149 -42.5 225t-136.5 76t-136.5 -76t-42.5 -225t42.5 -224.5t136.5 -75.5t136.5 75.5t42.5 224.5zM571 342q0 -168 -62 -262t-185 -94q-124 0 -184.5 92.5t-60.5 261.5q0 168 62 262t185 94q124 0 184.5 -92.5t60.5 -261.5z" />
    <glyph glyph-name="one.LinTab" 
d="M396 0h-64v569q-68 -63 -211 -63v55q192 0 216 123h59v-684z" />
    <glyph glyph-name="one.LinTab.001" 
d="M573 0h-472v57h211v512q-68 -63 -211 -63v55q192 0 216 123h59v-627h197v-57z" />
    <glyph glyph-name="two.LinTab" 
d="M574 59v-59h-496v59q251 209 287 242q92 83 111 138q9 26 9 56q0 65 -41.5 105t-123.5 40q-77 0 -118 -39.5t-41 -96.5q0 -45 11 -82h-64q-14 28 -14 79q0 85 64.5 140t164.5 55q112 0 171 -55t59 -143q0 -37 -10 -67.5t-27 -57.5t-58.5 -66t-86 -76t-128.5 -105
q-53 -43 -83 -67v-1q75 1 211 1h203z" />
    <glyph glyph-name="three.LinTab" 
d="M72 185l63 21q18 -85 66 -124.5t132 -39.5q80 0 124 39.5t44 102.5q0 67 -46 102.5t-125 35.5h-105v53h69q111 0 158 47q31 31 31 90q0 58 -43 93.5t-112 35.5q-130 0 -165 -144l-63 15q48 184 231 184q98 0 158 -50.5t60 -131.5q0 -117 -124 -160v-1q71 -12 107 -56
t36 -108q0 -84 -64.5 -143.5t-172.5 -59.5q-110 0 -173 48t-86 151z" />
    <glyph glyph-name="four.LinTab" 
d="M119 229q180 3 276 3v207q0 104 4 186h-1zM457 0h-62v177h-342v52l319 453h85v-450h126v-55h-126v-177z" />
    <glyph glyph-name="five.LinTab" 
d="M522 682v-56h-320l-18 -234h1q20 29 63 46t90 17q106 0 167.5 -65t61.5 -167q0 -101 -65 -169t-175 -68q-165 0 -249 148l55 36q65 -128 195 -128q79 0 125.5 49t46.5 130q0 80 -45 129.5t-122 49.5q-58 0 -99 -26t-55 -65h-57l29 373h371z" />
    <glyph glyph-name="six.LinTab" 
d="M553 562l-57 -31q-51 109 -161 109q-98 0 -142 -83.5t-42 -258.5q20 60 73 93.5t122 33.5q107 0 164.5 -58t57.5 -152t-62.5 -161.5t-167.5 -67.5q-120 0 -186 88t-66 251q0 178 66 274.5t186 96.5q147 0 215 -134zM344 370q-79 0 -123 -44.5t-44 -116.5t44.5 -119.5
t117.5 -47.5q76 0 119 49t43 123t-41.5 115t-115.5 41z" />
    <glyph glyph-name="seven.LinTab" 
d="M270 0h-67q15 160 86.5 309t209.5 317h-417v56h486v-49q-139 -167 -210 -320t-88 -313z" />
    <glyph glyph-name="eight.LinTab" 
d="M583 188q0 -86 -69 -144t-191 -58q-121 0 -188.5 56.5t-67.5 140.5q0 62 35.5 107t102.5 67v1q-53 18 -83.5 57t-30.5 95q0 79 64 132.5t172 53.5t170 -52.5t62 -131.5q0 -54 -30.5 -93.5t-83.5 -59.5v-1q138 -41 138 -170zM516 185q0 67 -51.5 105t-140.5 38
q-88 0 -139 -38t-51 -105q0 -66 51.5 -104.5t139.5 -38.5t139.5 38.5t51.5 104.5zM493 511q0 60 -45.5 95t-122.5 35t-122.5 -35t-45.5 -95q0 -61 45.5 -95.5t122.5 -34.5t122.5 34.5t45.5 95.5z" />
    <glyph glyph-name="nine.LinTab" 
d="M87 124l58 31q50 -113 170 -113q98 0 142 83.5t42 258.5q-20 -60 -73 -93.5t-122 -33.5q-108 0 -165 58t-57 152t62.5 161.5t167.5 67.5q120 0 186 -88t66 -251q0 -178 -66 -274.5t-186 -96.5q-80 0 -135 32.5t-90 105.5zM306 312q79 0 123 44.5t44 116.5t-44.5 119.5
t-117.5 47.5q-76 0 -119 -49t-43 -123t40.5 -115t116.5 -41z" />
    <glyph glyph-name="zero.OnumTab" 
d="M504 273q0 113 -47.5 172.5t-131.5 59.5q-85 0 -132 -59t-47 -173q0 -113 47.5 -172.5t131.5 -59.5q85 0 132 59t47 173zM571 274q0 -133 -65.5 -210.5t-181.5 -77.5t-180.5 76t-64.5 210q0 133 65.5 210.5t181.5 77.5t180.5 -76t64.5 -210z" />
    <glyph glyph-name="one.OnumTab" 
d="M391 0h-64v436q-66 -63 -201 -63v54q91 0 140 29t69 94h56v-550z" />
    <glyph glyph-name="one.OnumTab.001" 
d="M563 0h-452v56h201v380q-66 -63 -201 -63v54q91 0 140 29t69 94h56v-494h187v-56z" />
    <glyph glyph-name="two.OnumTab" 
d="M564 58v-58h-476v67q136 81 213 131.5t116 87.5t48.5 59t9.5 55q0 48 -37.5 77t-117.5 29q-76 0 -112.5 -30.5t-36.5 -77.5q0 -34 11 -65h-65q-13 27 -13 66q0 71 60 116t159 45q110 0 165 -44t55 -111q0 -54 -23.5 -93t-105.5 -99t-251 -156v-1q154 2 234 2h167z" />
    <glyph glyph-name="three.OnumTab" 
d="M72 49l63 21q18 -85 66 -124.5t132 -39.5q80 0 124 39.5t44 102.5q0 67 -46 102.5t-125 35.5h-105v53h69q111 0 158 47q31 31 31 90q0 58 -43 93.5t-112 35.5q-130 0 -165 -144l-63 15q48 184 231 184q98 0 158 -50.5t60 -131.5q0 -117 -124 -160v-1q71 -12 107 -56
t36 -108q0 -84 -64.5 -143.5t-172.5 -59.5q-110 0 -173 48t-86 151z" />
    <glyph glyph-name="four.OnumTab" 
d="M119 93q180 3 276 3v207q0 104 4 186h-1zM457 -136h-62v177h-342v52l319 453h85v-450h126v-55h-126v-177z" />
    <glyph glyph-name="five.OnumTab" 
d="M522 546v-56h-320l-18 -234h1q20 29 63 46t90 17q106 0 167.5 -65t61.5 -167q0 -101 -65 -169t-175 -68q-165 0 -249 148l55 36q65 -128 195 -128q79 0 125.5 49t46.5 130q0 80 -45 129.5t-122 49.5q-58 0 -99 -26t-55 -65h-57l29 373h371z" />
    <glyph glyph-name="six.OnumTab" 
d="M553 562l-57 -31q-51 109 -161 109q-98 0 -142 -83.5t-42 -258.5q20 60 73 93.5t122 33.5q107 0 164.5 -58t57.5 -152t-62.5 -161.5t-167.5 -67.5q-120 0 -186 88t-66 251q0 178 66 274.5t186 96.5q147 0 215 -134zM344 370q-79 0 -123 -44.5t-44 -116.5t44.5 -119.5
t117.5 -47.5q76 0 119 49t43 123t-41.5 115t-115.5 41z" />
    <glyph glyph-name="seven.OnumTab" 
d="M270 -136h-67q15 160 86.5 309t209.5 317h-417v56h486v-49q-139 -167 -210 -320t-88 -313z" />
    <glyph glyph-name="eight.OnumTab" 
d="M583 188q0 -86 -69 -144t-191 -58q-121 0 -188.5 56.5t-67.5 140.5q0 62 35.5 107t102.5 67v1q-53 18 -83.5 57t-30.5 95q0 79 64 132.5t172 53.5t170 -52.5t62 -131.5q0 -54 -30.5 -93.5t-83.5 -59.5v-1q138 -41 138 -170zM516 185q0 67 -51.5 105t-140.5 38
q-88 0 -139 -38t-51 -105q0 -66 51.5 -104.5t139.5 -38.5t139.5 38.5t51.5 104.5zM493 511q0 60 -45.5 95t-122.5 35t-122.5 -35t-45.5 -95q0 -61 45.5 -95.5t122.5 -34.5t122.5 34.5t45.5 95.5z" />
    <glyph glyph-name="nine.OnumTab" 
d="M87 -12l58 31q50 -113 170 -113q98 0 142 83.5t42 258.5q-20 -60 -73 -93.5t-122 -33.5q-108 0 -165 58t-57 152t62.5 161.5t167.5 67.5q120 0 186 -88t66 -251q0 -178 -66 -274.5t-186 -96.5q-80 0 -135 32.5t-90 105.5zM306 176q79 0 123 44.5t44 116.5t-44.5 119.5
t-117.5 47.5q-76 0 -119 -49t-43 -123t40.5 -115t116.5 -41z" />
    <glyph glyph-name="percent.cap" horiz-adv-x="980" 
d="M334 500q0 70 -28.5 107.5t-81.5 37.5t-81.5 -37.5t-28.5 -107.5t28.5 -107.5t81.5 -37.5t81.5 37.5t28.5 107.5zM397 502q0 -91 -46 -144.5t-128 -53.5q-83 0 -127.5 51.5t-44.5 142.5t46 144.5t128 53.5q83 0 127.5 -51.5t44.5 -142.5zM866 182q0 70 -28.5 107.5
t-81.5 37.5t-81.5 -37.5t-28.5 -107.5t28.5 -107.5t81.5 -37.5t81.5 37.5t28.5 107.5zM929 184q0 -91 -46 -144.5t-128 -53.5q-83 0 -127.5 51.5t-44.5 142.5t46 144.5t128 53.5q83 0 127.5 -51.5t44.5 -142.5zM277 0h-65l491 682h65z" />
    <glyph glyph-name="perthousand.cap" horiz-adv-x="1426" 
d="M334 500q0 70 -28.5 107.5t-81.5 37.5t-81.5 -37.5t-28.5 -107.5t28.5 -107.5t81.5 -37.5t81.5 37.5t28.5 107.5zM397 502q0 -91 -46 -144.5t-128 -53.5q-83 0 -127.5 51.5t-44.5 142.5t46 144.5t128 53.5q83 0 127.5 -51.5t44.5 -142.5zM866 182q0 70 -28.5 107.5
t-81.5 37.5t-81.5 -37.5t-28.5 -107.5t28.5 -107.5t81.5 -37.5t81.5 37.5t28.5 107.5zM929 184q0 -91 -46 -144.5t-128 -53.5q-83 0 -127.5 51.5t-44.5 142.5t46 144.5t128 53.5q83 0 127.5 -51.5t44.5 -142.5zM1312 182q0 70 -28.5 107.5t-81.5 37.5t-81.5 -37.5
t-28.5 -107.5t28.5 -107.5t81.5 -37.5t81.5 37.5t28.5 107.5zM1375 184q0 -91 -46 -144.5t-128 -53.5q-83 0 -127.5 51.5t-44.5 142.5t46 144.5t128 53.5q83 0 127.5 -51.5t44.5 -142.5zM277 0h-65l491 682h65z" />
    </font>
</defs>
</svg>
