<?xml version="1.0" standalone="no"?>
<!DOCTYPE svg PUBLIC "-//W3C//DTD SVG 1.1//EN" "http://www.w3.org/Graphics/SVG/1.1/DTD/svg11.dtd" >
<svg xmlns="http://www.w3.org/2000/svg" xmlns:xlink="http://www.w3.org/1999/xlink" version="1.1">
<metadata>
Created by FontForge 20170731 at Wed Jun 12 15:44:32 2019
 By Aleksey,,,
Volvo Novum is created exclusively for Volvo Trademark Holding Aktiebolag. Copyright 2019 Volvo Trademark Holding Aktiebolag. All rights reserved.
</metadata>
<defs>
<font id="VolvoNovum-SemiLight" horiz-adv-x="650" >
  <font-face 
    font-family="Volvo Novum SemiLight"
    font-weight="350"
    font-stretch="normal"
    units-per-em="1000"
    panose-1="2 11 4 3 4 5 2 6 2 4"
    ascent="780"
    descent="-220"
    x-height="478"
    cap-height="682"
    bbox="-114 -217 1503 980"
    underline-thickness="60"
    underline-position="-307"
    unicode-range="U+000D-FB02"
  />
<missing-glyph horiz-adv-x="1079" 
d="M984 -208h-889q-12 0 -12 11v36t0.5 90.5t0.5 120.5v139.5v133.5v139.5v157.5t-0.5 143t-0.5 109.5v43.5q0 11 12 11h889q12 0 12 -11v-43.5v-109.5t-0.5 -143t-0.5 -157.5v-139.5v-133.5t0.5 -139.5t0.5 -120.5v-90.5v-36q0 -11 -12 -11zM154 863v-1008h771v1008h-771z
M582 0h-90v129h90v-129zM502 210l-1 66q-1 36 17.5 64t44.5 47t52.5 38.5t45 49.5t18.5 69q0 49 -41 83.5t-110 34.5q-66 0 -110.5 -36t-44.5 -98q0 -36 5 -56h-72q-7 21 -7 53q0 92 64.5 146t167.5 54q100 0 163 -49.5t63 -128.5q0 -48 -19 -84.5t-45.5 -58.5t-53.5 -41
t-46 -41.5t-20 -49.5l-1 -62h-70z" />
    <glyph glyph-name=".notdef" horiz-adv-x="1079" 
d="M984 -208h-889q-12 0 -12 11v36t0.5 90.5t0.5 120.5v139.5v133.5v139.5v157.5t-0.5 143t-0.5 109.5v43.5q0 11 12 11h889q12 0 12 -11v-43.5v-109.5t-0.5 -143t-0.5 -157.5v-139.5v-133.5t0.5 -139.5t0.5 -120.5v-90.5v-36q0 -11 -12 -11zM154 863v-1008h771v1008h-771z
M582 0h-90v129h90v-129zM502 210l-1 66q-1 36 17.5 64t44.5 47t52.5 38.5t45 49.5t18.5 69q0 49 -41 83.5t-110 34.5q-66 0 -110.5 -36t-44.5 -98q0 -36 5 -56h-72q-7 21 -7 53q0 92 64.5 146t167.5 54q100 0 163 -49.5t63 -128.5q0 -48 -19 -84.5t-45.5 -58.5t-53.5 -41
t-46 -41.5t-20 -49.5l-1 -62h-70z" />
    <glyph glyph-name=".null" horiz-adv-x="0" 
 />
    <glyph glyph-name=".null" horiz-adv-x="0" 
 />
    <glyph glyph-name="nonmarkingreturn" horiz-adv-x="333" 
 />
    <glyph glyph-name="CR" unicode="&#xd;" horiz-adv-x="255" 
 />
    <glyph glyph-name="space" unicode=" " horiz-adv-x="254" 
 />
    <glyph glyph-name="space" unicode="&#xa0;" horiz-adv-x="254" 
 />
    <glyph glyph-name="exclam" unicode="!" horiz-adv-x="350" 
d="M220 0h-90v129h90v-129zM210 210h-70l-10 501h91z" />
    <glyph glyph-name="quotedbl" unicode="&#x22;" horiz-adv-x="436" 
d="M152 449h-62l-9 281h80zM345 449h-61l-9 281h79z" />
    <glyph glyph-name="numbersign" unicode="#" horiz-adv-x="700" 
d="M180 0h-67l35 174h-114v59h125l42 216h-114v59h126l34 174h66l-33 -174h205l35 174h66l-34 -174h114v-59h-125l-43 -216h115v-59h-127l-33 -174h-67l34 174h-206zM225 233h207l42 216h-206z" />
    <glyph glyph-name="dollar" unicode="$" horiz-adv-x="664" 
d="M361 -101h-67v114q-130 18 -219 120l47 52q91 -111 221 -111q68 0 110.5 32t42.5 84q0 50 -41 78t-99 40.5t-116 29t-99 58.5t-41 112q0 73 53.5 118t140.5 50v112h67v-114q55 -9 97.5 -29t86.5 -62l-44 -56q-82 86 -188 86q-64 0 -100.5 -27.5t-36.5 -73.5
q0 -36 22 -60.5t57 -37t77 -22t84.5 -22.5t77.5 -32t57 -55.5t22 -89.5q0 -78 -61 -127.5t-151 -54.5v-112z" />
    <glyph glyph-name="percent" unicode="%" horiz-adv-x="1100" 
d="M374 558q0 83 -29 127.5t-85 44.5q-113 0 -113 -172t113 -172q56 0 85 44t29 128zM442 559q0 -106 -48 -167.5t-135 -61.5q-88 0 -134.5 60t-46.5 167q0 106 48.5 167.5t135.5 61.5q88 0 134 -60t46 -167zM784 778h76l-545 -874h-75zM954 124q0 83 -29 127.5t-85 44.5
q-113 0 -113 -172t113 -172q56 0 85 44t29 128zM1022 125q0 -106 -48 -167.5t-135 -61.5q-88 0 -134.5 60t-46.5 167q0 106 48.5 167.5t135.5 61.5q88 0 134 -60t46 -167z" />
    <glyph glyph-name="ampersand" unicode="&#x26;" horiz-adv-x="764" 
d="M753 36l-44 -56q-96 67 -153 109q-103 -103 -260 -103q-110 0 -178 53.5t-68 142.5q0 73 39 119.5t108 81.5q-88 92 -88 170q0 82 54 127t145 45q92 0 142 -45.5t50 -110.5q0 -31 -11.5 -58t-27 -45.5t-44.5 -37.5t-49.5 -29.5t-57.5 -27.5q79 -70 238 -188q56 94 56 230
h72q0 -156 -74 -269q77 -56 151 -108zM299 48q126 0 205 79q-171 127 -262 211q-55 -30 -85 -64.5t-30 -85.5q0 -65 46 -102.5t126 -37.5zM184 559q0 -33 16.5 -65.5t63.5 -79.5q41 18 62.5 29t48 29.5t38.5 40.5t12 50q0 45 -34 72.5t-87 27.5q-57 0 -88.5 -28t-31.5 -76z
" />
    <glyph glyph-name="quotesingle" unicode="'" horiz-adv-x="243" 
d="M153 449h-63l-9 281h81z" />
    <glyph glyph-name="parenleft" unicode="(" horiz-adv-x="312" 
d="M295 -171h-71q-142 218 -142 493q0 136 38 263.5t104 229.5h72q-140 -223 -140 -492q0 -263 139 -494z" />
    <glyph glyph-name="parenright" unicode=")" horiz-adv-x="312" 
d="M17 815h71q141 -221 141 -493q0 -273 -141 -493h-72q140 226 140 492q0 261 -139 494z" />
    <glyph glyph-name="asterisk" unicode="*" horiz-adv-x="498" 
d="M283 733l-9 -175l163 63l21 -65l-169 -46l110 -135l-55 -40l-95 146l-96 -146l-55 40l110 135l-168 46l21 65l162 -63l-8 175h68z" />
    <glyph glyph-name="plus" unicode="+" 
d="M359 60h-68v232h-228v60h228v230h68v-230h228v-60h-228v-232z" />
    <glyph glyph-name="comma" unicode="," horiz-adv-x="256" 
d="M79 142h98v-118q0 -111 -17 -153t-80 -79l-27 42q43 31 54.5 58t11.5 108h-40v142z" />
    <glyph glyph-name="hyphen" unicode="-" horiz-adv-x="360" 
d="M321 237h-282v72h282v-72z" />
    <glyph glyph-name="hyphen" unicode="&#x2010;" horiz-adv-x="360" 
d="M321 237h-282v72h282v-72z" />
    <glyph glyph-name="hyphen" unicode="&#xad;" horiz-adv-x="360" 
d="M321 237h-282v72h282v-72z" />
    <glyph glyph-name="period" unicode="." horiz-adv-x="256" 
d="M177 0h-98v142h98v-142z" />
    <glyph glyph-name="slash" unicode="/" horiz-adv-x="392" 
d="M26 -164h-72l385 942h72z" />
    <glyph glyph-name="zero" unicode="0" horiz-adv-x="678" 
d="M521 341q0 291 -182 291t-182 -291q0 -290 182 -290t182 290zM600 342q0 -165 -68 -260.5t-194 -95.5q-129 0 -194.5 93t-65.5 261q0 165 68 260.5t194 95.5q128 0 194 -93t66 -261z" />
    <glyph glyph-name="one" unicode="1" horiz-adv-x="437" 
d="M242 0v564q-61 -56 -184 -56v62q86 0 131.5 29t60.5 87h67v-686h-75z" />
    <glyph glyph-name="two" unicode="2" horiz-adv-x="621" 
d="M552 68v-68h-488v68q95 78 144.5 119.5t101 87t72.5 69t39.5 52t23 49t4.5 48.5q0 62 -38.5 100.5t-110.5 38.5q-68 0 -105.5 -38t-37.5 -93q0 -44 13 -81h-76q-14 31 -14 78q0 87 64 142.5t160 55.5q108 0 166 -55t58 -144q0 -34 -4.5 -59.5t-22.5 -56t-39 -55.5
t-68.5 -68t-95.5 -82t-135 -108v-1q82 1 218 1h171z" />
    <glyph glyph-name="three" unicode="3" horiz-adv-x="639" 
d="M49 186l74 23q14 -77 62 -118.5t128 -41.5q77 0 118.5 38t41.5 98q0 65 -44.5 99t-121.5 34h-100v61h68q107 0 151 45q30 30 30 86q0 55 -41 89t-107 34q-130 0 -160 -140l-73 16q45 187 236 187q101 0 162 -50.5t61 -131.5q0 -117 -123 -160v-1q70 -12 106 -55.5
t36 -107.5q0 -86 -65.5 -145t-176.5 -59t-177 51.5t-85 148.5z" />
    <glyph glyph-name="four" unicode="4" horiz-adv-x="633" 
d="M119 235q177 3 265 3v201q0 56 3 179h-1zM457 0h-73v175h-341v60l311 447h103v-444h123v-63h-123v-175z" />
    <glyph glyph-name="five" unicode="5" horiz-adv-x="612" 
d="M507 682v-65h-320l-18 -223h1q21 29 63 45.5t89 16.5q106 0 168 -64.5t62 -167.5t-66.5 -170.5t-178.5 -67.5q-171 0 -252 151l66 37q63 -124 187 -124q76 0 120.5 46.5t44.5 124.5q0 77 -43.5 124.5t-117.5 47.5q-56 0 -95 -24.5t-53 -62.5h-67l30 376h380z" />
    <glyph glyph-name="six" unicode="6" horiz-adv-x="636" 
d="M555 560l-67 -33q-49 106 -155 106q-94 0 -136.5 -80.5t-41.5 -248.5q21 58 72.5 90t119.5 32q108 0 165.5 -58t57.5 -152q0 -96 -64.5 -163t-171.5 -67q-122 0 -189 87.5t-67 250.5q0 178 67 275t191 97q78 0 131 -32.5t88 -103.5zM341 364q-76 0 -118 -42.5t-42 -112.5
t42 -115t112 -45q73 0 114.5 46.5t41.5 118.5q0 71 -39.5 110.5t-110.5 39.5z" />
    <glyph glyph-name="seven" unicode="7" horiz-adv-x="585" 
d="M260 0h-80q14 160 77 309t188 308h-389v65h474v-58q-243 -302 -270 -624z" />
    <glyph glyph-name="eight" unicode="8" horiz-adv-x="656" 
d="M589 189q0 -88 -69.5 -145.5t-193.5 -57.5q-123 0 -191 55.5t-68 141.5q0 128 136 173v1q-53 18 -83 57t-30 95q0 80 65.5 133.5t174.5 53.5q110 0 173 -52t63 -133q0 -53 -30.5 -92.5t-82.5 -59.5v-2q66 -19 101 -62t35 -106zM511 186q0 64 -49.5 100.5t-134.5 36.5
q-84 0 -133 -36.5t-49 -100.5t49 -100.5t134 -36.5t134 36.5t49 100.5zM489 509q0 57 -43.5 90.5t-117.5 33.5t-117.5 -33.5t-43.5 -90.5q0 -58 43.5 -91.5t117.5 -33.5t117.5 33.5t43.5 91.5z" />
    <glyph glyph-name="nine" unicode="9" horiz-adv-x="636" 
d="M72 126l68 33q26 -58 65.5 -84t98.5 -26q94 0 136.5 80t41.5 248q-20 -57 -72 -89t-120 -32q-108 0 -165.5 58t-57.5 152q0 96 64.5 163t171.5 67q122 0 189 -87.5t67 -250.5q0 -178 -67 -275t-191 -97q-82 0 -138 33t-91 107zM296 318q76 0 118 42.5t42 112.5
q0 69 -42 114.5t-112 45.5q-73 0 -114.5 -46.5t-41.5 -118.5q0 -71 39 -110.5t111 -39.5z" />
    <glyph glyph-name="colon" unicode=":" horiz-adv-x="294" 
d="M195 0h-96v133h96v-133zM195 345h-96v133h96v-133z" />
    <glyph glyph-name="semicolon" unicode=";" horiz-adv-x="294" 
d="M99 133h96v-109q0 -108 -17 -152t-81 -80l-27 43q43 29 54.5 56.5t11.5 108.5h-37v133zM195 345h-96v133h96v-133z" />
    <glyph glyph-name="less" unicode="&#x3c;" 
d="M577 161v-75l-504 199v74l504 199v-73q-334 -133 -424 -161v-2q77 -24 424 -161z" />
    <glyph glyph-name="equal" unicode="=" 
d="M577 259v-60h-504v60h504zM577 445v-60h-504v60h504z" />
    <glyph glyph-name="greater" unicode="&#x3e;" 
d="M73 483v75l504 -199v-74l-504 -199v73q334 133 424 161v2q-90 28 -424 161z" />
    <glyph glyph-name="question" unicode="?" horiz-adv-x="612" 
d="M360 0h-90v129h90v-129zM280 210l-1 66q-1 36 17.5 64t44.5 47t52.5 38.5t45 49.5t18.5 69q0 49 -41 83.5t-110 34.5q-66 0 -110.5 -36t-44.5 -98q0 -36 5 -56h-72q-7 21 -7 53q0 92 64.5 146t167.5 54q100 0 163 -49.5t63 -128.5q0 -48 -19 -84.5t-45.5 -58.5t-53.5 -41
t-46 -41.5t-20 -49.5l-1 -62h-70z" />
    <glyph glyph-name="at" unicode="@" horiz-adv-x="1033" 
d="M967 333q0 -125 -58.5 -208.5t-168.5 -83.5q-107 0 -117 84h-1q-56 -84 -166 -84q-82 0 -126.5 48t-44.5 135q0 106 59.5 185t170.5 79q95 0 135 -64h1l10 53h70l-42 -227q-14 -90 -1.5 -120t57.5 -30q78 0 116 66t38 164q0 144 -93.5 238.5t-259.5 94.5
q-93 0 -171.5 -35t-130.5 -93t-80.5 -133t-28.5 -155q0 -168 101.5 -274t272.5 -106q123 0 237 40l11 -58q-123 -39 -251 -39q-195 0 -317.5 120.5t-122.5 310.5q0 131 61.5 240.5t173.5 174t250 64.5q184 0 300 -109.5t116 -277.5zM625 303q0 65 -26.5 96t-85.5 31
q-42 0 -73.5 -19.5t-48.5 -51t-25 -65t-8 -66.5q0 -128 106 -128q44 0 77.5 20t50.5 52t25 65t8 66z" />
    <glyph glyph-name="A" unicode="A" horiz-adv-x="643" 
d="M282 682h79l264 -682h-85l-70 189h-301l-69 -189h-82zM254 423l-63 -174h256l-65 177q-52 139 -64 184h-1q-10 -43 -63 -187z" />
    <glyph glyph-name="B" unicode="B" horiz-adv-x="706" 
d="M185 315v-251q54 -1 172 -1q38 0 65.5 2t56.5 10t47.5 21t30 35.5t11.5 54.5q0 30 -8.5 52.5t-26 36.5t-35.5 22.5t-47 12t-49.5 4.5t-52.5 1h-164zM185 618v-241h167q64 0 101 7.5t64 34.5q31 31 31 85q0 44 -30 74q-24 24 -67 32.5t-127 8.5q-96 0 -139 -1zM110 0v682
q31 0 100.5 0.5t117.5 0.5q100 0 157.5 -12t95.5 -50q44 -44 44 -109q0 -115 -116 -160q68 -15 102.5 -58t34.5 -106q0 -58 -23 -97t-67 -58t-92 -26.5t-114 -7.5q-41 0 -122 0.5t-118 0.5z" />
    <glyph glyph-name="C" unicode="C" horiz-adv-x="690" 
d="M588 191l66 -21q-32 -89 -102 -136.5t-171 -47.5q-140 0 -227.5 96t-87.5 258q0 88 27.5 158t73 112t100.5 64t113 22q90 0 160 -45t104 -126l-66 -30q-26 64 -79 99.5t-121 35.5q-100 0 -166.5 -76t-66.5 -213q0 -131 64 -209.5t174 -78.5q154 0 205 138z" />
    <glyph glyph-name="D" unicode="D" horiz-adv-x="726" 
d="M185 616v-547q59 -3 123 -3q74 0 119 11t81 48q73 73 73 215q0 141 -75 214q-38 39 -84 51t-119 12q-84 0 -118 -1zM110 1v680q64 1 196 1q92 0 153.5 -19t109.5 -67q91 -91 91 -253q0 -166 -92 -258q-49 -49 -111 -67t-151 -18q-41 0 -110.5 0.5t-85.5 0.5z" />
    <glyph glyph-name="E" unicode="E" horiz-adv-x="645" 
d="M110 0v682h453v-64h-378v-238h331v-62h-331v-253h395v-65h-470z" />
    <glyph glyph-name="F" unicode="F" horiz-adv-x="598" 
d="M110 0v682h440v-65h-365v-240h319v-62h-319v-315h-75z" />
    <glyph glyph-name="G" unicode="G" horiz-adv-x="755" 
d="M657 0h-69v110h-1q-29 -57 -84.5 -90.5t-129.5 -33.5q-134 0 -220.5 96t-86.5 258q0 159 89 257.5t226 98.5q183 0 270 -157l-61 -41q-70 133 -216 133q-104 0 -166.5 -81.5t-62.5 -208.5q0 -134 64 -212t169 -78q91 0 147 66.5t56 163.5v22h-200v61h276v-364z" />
    <glyph glyph-name="H" unicode="H" horiz-adv-x="754" 
d="M110 0v682h75v-295h384v295h75v-682h-75v320h-384v-320h-75z" />
    <glyph glyph-name="I" unicode="I" horiz-adv-x="295" 
d="M110 0v682h75v-682h-75z" />
    <glyph glyph-name="J" unicode="J" horiz-adv-x="530" 
d="M351 682h75v-475q0 -104 -54.5 -162.5t-147.5 -58.5q-193 0 -210 217l75 15q7 -88 38.5 -127t98.5 -39q125 0 125 156v474z" />
    <glyph glyph-name="K" unicode="K" horiz-adv-x="673" 
d="M552 682h100l-267 -260l286 -422h-92l-247 370l-147 -143v-227h-75v682h75v-363z" />
    <glyph glyph-name="L" unicode="L" horiz-adv-x="548" 
d="M110 0v682h75v-617h352v-65h-427z" />
    <glyph glyph-name="M" unicode="M" horiz-adv-x="942" 
d="M110 0v682h121l146 -344q68 -157 94 -233h1q26 76 94 233l146 344h120v-682h-75v240q0 181 3 379h-2q-58 -139 -92 -220l-167 -399h-60l-169 400q-78 184 -90 219h-2q2 -132 2 -379v-240h-70z" />
    <glyph glyph-name="N" unicode="N" horiz-adv-x="762" 
d="M652 0h-93l-252 393q-87 135 -129 204h-2q4 -117 4 -361v-236h-70v682h99l247 -381q60 -91 128 -205h1q-3 132 -3 361v225h70v-682z" />
    <glyph glyph-name="O" unicode="O" horiz-adv-x="778" 
d="M632 341q0 131 -65 210t-178 79t-178.5 -79t-65.5 -210t65.5 -210t178.5 -79t178 79t65 210zM712 342q0 -160 -90 -258t-234 -98q-145 0 -233.5 96t-88.5 258q0 160 90 258t234 98t233 -96t89 -258z" />
    <glyph glyph-name="P" unicode="P" horiz-adv-x="637" 
d="M546 478q0 69 -42.5 104t-141.5 35q-123 0 -177 -1v-277q55 -1 175 -1q99 0 142.5 35.5t43.5 104.5zM110 0v682q35 0 122.5 0.5t130.5 0.5q262 0 262 -204q0 -103 -70 -154.5t-199 -51.5q-106 0 -171 1v-274h-75z" />
    <glyph glyph-name="Q" unicode="Q" horiz-adv-x="778" 
d="M712 342q0 -149 -80 -246l77 -76l-47 -47l-77 77q-83 -64 -197 -64q-145 0 -233.5 96t-88.5 258q0 160 90 258t234 98t233 -96t89 -258zM435 200l47 47l98 -99q52 76 52 193q0 131 -65 210t-178 79t-178.5 -79t-65.5 -210t65.5 -210t178.5 -79q86 0 146 48z" />
    <glyph glyph-name="R" unicode="R" horiz-adv-x="691" 
d="M654 0h-97l-221 279h-151v-279h-75v682q18 0 112.5 0.5t140.5 0.5q129 0 193 -53t64 -147q0 -82 -51 -132.5t-144 -64.5zM185 616v-270q52 -2 168 -2q103 0 145.5 35t42.5 103q0 135 -181 135q-120 0 -175 -1z" />
    <glyph glyph-name="S" unicode="S" horiz-adv-x="655" 
d="M60 114l46 54q103 -118 238 -118q75 0 120.5 34t45.5 90q0 41 -23.5 68t-61 41t-82.5 25t-90 25t-82.5 33.5t-61 58t-23.5 93.5q0 81 63.5 129.5t163.5 48.5q137 0 244 -98l-46 -55q-86 89 -200 89q-71 0 -109.5 -30t-38.5 -80q0 -40 23.5 -66t61 -40t82.5 -24.5
t90 -24.5t82.5 -34t61 -59.5t23.5 -95.5q0 -86 -70.5 -139t-173.5 -53q-165 0 -283 128z" />
    <glyph glyph-name="T" unicode="T" horiz-adv-x="533" 
d="M229 0v616h-237v66h548v-66h-236v-616h-75z" />
    <glyph glyph-name="U" unicode="U" horiz-adv-x="730" 
d="M178 682v-424q0 -99 46.5 -152.5t141.5 -53.5q94 0 141.5 54t47.5 152v424h71v-427q0 -126 -67.5 -197.5t-194.5 -71.5q-137 0 -199 74t-62 189v433h75z" />
    <glyph glyph-name="V" unicode="V" horiz-adv-x="631" 
d="M353 0h-75l-262 682h85l134 -364l83 -232h1q50 146 82 232l133 364h81z" />
    <glyph glyph-name="W" unicode="W" horiz-adv-x="1032" 
d="M334 0h-85l-214 682h84l94 -320q7 -24 38.5 -127.5t44.5 -147.5h1q23 80 85 275l101 320h67l105 -320q73 -223 88 -275h1q9 30 38 130t41 144l94 321h80l-214 -682h-85l-148 448q-18 55 -34 122h-2q-10 -42 -36 -122z" />
    <glyph glyph-name="X" unicode="X" horiz-adv-x="591" 
d="M4 0l246 359l-218 323h92l173 -263l176 263h86l-217 -318l245 -364h-91l-201 304l-204 -304h-87z" />
    <glyph glyph-name="Y" unicode="Y" horiz-adv-x="604" 
d="M340 0h-76v292l-264 390h91l213 -320l213 320h87l-264 -390v-292z" />
    <glyph glyph-name="Z" unicode="Z" horiz-adv-x="628" 
d="M582 68v-68h-536v68l432 548q-82 -1 -255 -1h-162v67h506v-67l-433 -548q88 1 246 1h202z" />
    <glyph glyph-name="bracketleft" unicode="[" horiz-adv-x="365" 
d="M333 -111v-60h-223v986h223v-60h-154v-866h154z" />
    <glyph glyph-name="backslash" unicode="\" horiz-adv-x="392" 
d="M438 -164h-72l-385 942h71z" />
    <glyph glyph-name="bracketright" unicode="]" horiz-adv-x="365" 
d="M256 -171h-224v60h154v866h-154v60h224v-986z" />
    <glyph glyph-name="asciicircum" unicode="^" 
d="M567 351h-89q-88 146 -153 274h-1q-72 -140 -155 -274h-86l203 331h78z" />
    <glyph glyph-name="underscore" unicode="_" 
d="M650 -157v-60h-650v60h650z" />
    <glyph glyph-name="grave" unicode="`" horiz-adv-x="324" 
d="M169 692l85 -141h-67l-117 141h99z" />
    <glyph glyph-name="a" unicode="a" horiz-adv-x="516" 
d="M369 197v35q-140 0 -192.5 -24t-52.5 -77q0 -39 26 -62t77 -23q64 0 103 45.5t39 105.5zM105 346l-47 41q78 104 201 104q92 0 136 -44t44 -121v-90q0 -116 3 -236h-68l-2 71h-1q-58 -83 -159 -83q-73 0 -117.5 38.5t-44.5 102.5q0 77 72 117.5t247 40.5v36
q0 109 -113 109q-92 0 -151 -86z" />
    <glyph glyph-name="b" unicode="b" horiz-adv-x="580" 
d="M84 238v473h70v-210q0 -65 -4 -94h1q49 84 162 84q103 0 160 -69.5t57 -179.5q0 -118 -60.5 -186t-159.5 -68q-105 0 -159 81h-1l-4 -69h-69q7 172 7 238zM152 250v-21q0 -80 41.5 -131t111.5 -51q72 0 111.5 52.5t39.5 140.5q0 84 -41 137.5t-114 53.5
q-68 0 -108.5 -48.5t-40.5 -132.5z" />
    <glyph glyph-name="c" unicode="c" horiz-adv-x="515" 
d="M414 148l59 -26q-63 -134 -204 -134q-99 0 -159.5 66t-60.5 183q0 119 61 186.5t157 67.5q138 0 199 -127l-63 -33q-43 100 -137 100q-64 0 -103 -50.5t-39 -141.5q0 -84 39 -137.5t108 -53.5q98 0 143 100z" />
    <glyph glyph-name="d" unicode="d" horiz-adv-x="580" 
d="M428 229v20q0 81 -41.5 131.5t-111.5 50.5q-72 0 -111.5 -52t-39.5 -141q0 -84 41 -137.5t114 -53.5q67 0 108 48.5t41 133.5zM499 0h-68l-2 72h-1q-48 -84 -161 -84q-103 0 -160.5 69t-57.5 179q0 118 60.5 186.5t160.5 68.5q102 0 157 -79h1q-2 34 -2 89v210h70v-474
q0 -167 3 -237z" />
    <glyph glyph-name="e" unicode="e" horiz-adv-x="529" 
d="M436 129l47 -39q-71 -102 -204 -102q-108 0 -169 68.5t-61 181.5q0 114 60 183.5t163 69.5q56 0 98.5 -21t65.5 -54.5t34.5 -69t11.5 -70.5q0 -31 -4 -51h-354q1 -81 45 -129.5t113 -48.5q99 0 154 82zM126 281h281q0 62 -37.5 106.5t-100.5 44.5q-60 0 -98 -39.5
t-45 -111.5z" />
    <glyph glyph-name="f" unicode="f" horiz-adv-x="312" 
d="M111 0v421h-103v57h103v98q0 140 128 140q48 0 84 -15v-61q-39 16 -81 16q-33 0 -47 -19.5t-14 -60.5v-98h128v-57h-128v-421h-70z" />
    <glyph glyph-name="g" unicode="g" horiz-adv-x="581" 
d="M435 478h70q-7 -68 -7 -237v-257q0 -93 -51 -147t-159 -54q-142 0 -221 117l54 41q61 -98 169 -98q69 0 103.5 36t34.5 100q0 36 2 92h-2q-49 -82 -160 -82q-104 0 -161 68.5t-57 179.5q0 118 60.5 186t160.5 68q104 0 159 -82h1zM429 230v19q0 81 -41.5 131.5
t-111.5 50.5q-73 0 -112 -52t-39 -140q0 -84 40.5 -137.5t114.5 -53.5q67 0 108 49t41 133z" />
    <glyph glyph-name="h" unicode="h" horiz-adv-x="560" 
d="M84 0v711h70v-210q0 -65 -3 -94h1q48 84 156 84q84 0 129 -47.5t45 -143.5v-300h-70v272q0 71 -16 104q-27 55 -101 55q-59 0 -92 -35q-49 -49 -49 -168v-228h-70z" />
    <glyph glyph-name="i" unicode="i" horiz-adv-x="238" 
d="M154 0h-70v478h70v-478zM83 563v121h72v-121h-72z" />
    <glyph glyph-name="j" unicode="j" horiz-adv-x="248" 
d="M94 478h70v-509q0 -102 -28 -143t-98 -41q-30 0 -50 5v55h46q36 0 48 28.5t12 95.5v509zM165 563h-72v121h72v-121z" />
    <glyph glyph-name="k" unicode="k" horiz-adv-x="517" 
d="M512 0h-89l-169 264l-100 -89v-175h-70v711h70v-457l243 224h98l-188 -167z" />
    <glyph glyph-name="l" unicode="l" horiz-adv-x="238" 
d="M84 0v711h70v-711h-70z" />
    <glyph glyph-name="m" unicode="m" horiz-adv-x="881" 
d="M803 0h-70v272q0 71 -16 104q-28 55 -100 55q-56 0 -89 -35q-50 -49 -50 -168v-228h-70v272q0 71 -16 104q-27 55 -99 55q-57 0 -90 -35q-28 -28 -38.5 -67.5t-10.5 -100.5v-228h-70v241q0 117 -3 237h68l2 -71h1q48 84 154 84q120 0 157 -97q59 97 168 97q82 0 127 -48
t45 -143v-300z" />
    <glyph glyph-name="n" unicode="n" horiz-adv-x="560" 
d="M482 0h-70v272q0 71 -16 104q-27 55 -101 55q-59 0 -92 -35q-49 -49 -49 -168v-228h-70v241q0 117 -3 237h68l2 -71h1q48 84 156 84q84 0 129 -47.5t45 -143.5v-300z" />
    <glyph glyph-name="o" unicode="o" horiz-adv-x="559" 
d="M435 239q0 84 -42 138t-114 54q-73 0 -114 -54t-41 -138q0 -83 41.5 -137t113.5 -54q73 0 114.5 54t41.5 137zM510 240q0 -110 -61.5 -181t-170.5 -71q-110 0 -169.5 69.5t-59.5 180.5q0 110 61.5 181.5t170.5 71.5q110 0 169.5 -69.5t59.5 -181.5z" />
    <glyph glyph-name="p" unicode="p" horiz-adv-x="580" 
d="M152 250v-21q0 -80 41.5 -131t111.5 -51q72 0 111.5 52.5t39.5 140.5q0 84 -41 137.5t-114 53.5q-68 0 -108.5 -48.5t-40.5 -132.5zM154 -207h-70v448q0 117 -3 237h68l2 -71h1q48 84 161 84q103 0 160 -69.5t57 -179.5q0 -118 -60.5 -186t-159.5 -68q-105 0 -157 79h-1
q2 -34 2 -89v-185z" />
    <glyph glyph-name="q" unicode="q" horiz-adv-x="581" 
d="M497 -207h-70v185q0 60 3 93h-1q-50 -83 -161 -83q-103 0 -160.5 69t-57.5 179q0 118 60.5 186.5t160.5 68.5q104 0 159 -82h1l3 69h70q-7 -138 -7 -236v-449zM429 229v20q0 81 -41.5 131.5t-111.5 50.5q-73 0 -112 -52t-39 -141q0 -84 40.5 -137.5t114.5 -53.5
q67 0 108 48.5t41 133.5z" />
    <glyph glyph-name="r" unicode="r" horiz-adv-x="343" 
d="M154 0h-70v241q0 117 -3 237h68l2 -96h1q31 54 73.5 81t86.5 27q12 0 15 -1v-77h-16q-62 0 -103 -41q-35 -36 -44.5 -82t-9.5 -116v-173z" />
    <glyph glyph-name="s" unicode="s" horiz-adv-x="487" 
d="M47 72l40 51q74 -76 167 -76q50 0 78.5 20.5t28.5 57.5q0 35 -30.5 54.5t-73.5 29t-86.5 21.5t-74 44.5t-30.5 86.5q0 60 47 95t120 35q103 0 182 -68l-41 -49q-61 58 -142 58q-45 0 -70 -18.5t-25 -49.5q0 -35 30.5 -54t74 -28.5t87 -22t74 -45t30.5 -87.5
q0 -64 -51.5 -101.5t-128.5 -37.5q-119 0 -206 84z" />
    <glyph glyph-name="t" unicode="t" horiz-adv-x="346" 
d="M109 421h-100v57h100v167l70 19v-186h143v-57h-143v-233q0 -67 3.5 -90t15.5 -35q14 -14 45 -14q49 0 79 16v-60q-37 -17 -90 -17q-65 0 -94 34.5t-29 113.5v285z" />
    <glyph glyph-name="u" unicode="u" horiz-adv-x="554" 
d="M473 0h-68l-2 72h-1q-48 -84 -153 -84q-82 0 -127 47.5t-45 142.5v300h70v-272q0 -71 17 -104q27 -55 96 -55q56 0 91 35q49 48 49 168v228h70v-242q0 -122 3 -236z" />
    <glyph glyph-name="v" unicode="v" horiz-adv-x="487" 
d="M277 0h-67l-197 478h81l81 -202q28 -71 71 -197h1q29 92 70 197l80 202h77z" />
    <glyph glyph-name="w" unicode="w" horiz-adv-x="818" 
d="M611 0h-63l-87 226q-26 70 -56 156h-2q-12 -43 -52 -156l-82 -226h-63l-184 478h81l86 -238q7 -20 15.5 -45t19 -56.5t16.5 -48.5h1q20 69 50 150l86 238h60l86 -229q50 -133 59 -159h1q30 93 54 158l79 230h79z" />
    <glyph glyph-name="x" unicode="x" horiz-adv-x="465" 
d="M92 0h-82l180 252l-160 226h87l118 -175l118 175h81l-160 -225l181 -253h-88l-137 203z" />
    <glyph glyph-name="y" unicode="y" horiz-adv-x="487" 
d="M192 -207h-77l98 207h-3l-197 478h81l81 -202q28 -71 71 -197h1q29 91 70 197l80 202h77z" />
    <glyph glyph-name="z" unicode="z" horiz-adv-x="489" 
d="M442 61v-61h-395v61l299 359q-50 -1 -149 -1h-139v59h370v-59l-300 -359q57 1 173 1h141z" />
    <glyph glyph-name="braceleft" unicode="{" horiz-adv-x="398" 
d="M37 292v60h31q45 0 60 24.5t15 101.5v158q0 99 40 139t117 40h66v-60h-67q-51 0 -69 -25t-18 -95v-154q0 -80 -14 -111.5t-48 -46.5v-1q34 -14 48 -46t14 -109v-157q0 -69 19 -95t70 -26h65v-60h-68q-77 0 -116 39t-39 138v158q0 78 -15.5 103t-60.5 25h-30z" />
    <glyph glyph-name="bar" unicode="|" horiz-adv-x="314" 
d="M191 -171h-69v986h69v-986z" />
    <glyph glyph-name="braceright" unicode="}" horiz-adv-x="398" 
d="M99 -171h-67v60h67q51 0 69 25t18 94v155q0 80 14 111.5t48 46.5v1q-34 14 -48 46t-14 109v157q0 69 -19 95t-70 26h-65v60h69q77 0 116 -39t39 -138v-158q0 -78 15.5 -103t59.5 -25h30v-60h-30q-45 0 -60 -24.5t-15 -101.5v-158q0 -99 -40 -139t-117 -40z" />
    <glyph glyph-name="asciitilde" unicode="~" 
d="M134 236h-66q0 188 135 188q42 0 79.5 -22.5t59.5 -49t50.5 -49t56.5 -22.5q35 0 51 28t16 99h66q0 -188 -135 -188q-42 0 -79.5 22.5t-59.5 49t-50.5 49t-56.5 22.5q-35 0 -51 -28t-16 -99z" />
    <glyph glyph-name="exclamdown" unicode="&#xa1;" horiz-adv-x="350" 
d="M130 615h90v-129h-90v129zM141 405h68l12 -501h-91z" />
    <glyph glyph-name="cent" unicode="&#xa2;" horiz-adv-x="566" 
d="M261 692h65v-113q107 -15 162 -118l-63 -34q-26 49 -58.5 72t-78.5 23q-64 0 -102.5 -47.5t-38.5 -133.5q0 -80 38.5 -130t108.5 -50q53 0 86 23.5t56 74.5l58 -29q-47 -108 -168 -127v-113h-65v112q-87 10 -138 72t-51 165q0 105 52 168.5t137 72.5v112z" />
    <glyph glyph-name="sterling" unicode="&#xa3;" 
d="M576 68v-68h-496v55q67 49 90.5 83.5t23.5 77.5q0 32 -12 77h-111v59h94q-30 98 -30 149q0 86 59 140.5t150 54.5q153 0 215 -148l-65 -34q-43 117 -152 117q-59 0 -94.5 -35t-35.5 -93q0 -14 1.5 -28.5t6 -32.5l7 -28t9.5 -33t9 -29h185v-59h-169q10 -48 10 -73
q0 -91 -84 -152v-2q142 2 226 2h163z" />
    <glyph glyph-name="currency" unicode="&#xa4;" horiz-adv-x="654" 
d="M523 325q0 -72 -33 -121l102 -98l-47 -47l-98 102q-51 -39 -122 -39t-122 37l-95 -100l-47 47l102 95q-33 45 -33 118t34 121l-103 99l47 47l98 -103q54 38 123 38q71 0 120 -36l96 101l46 -47l-101 -96q33 -47 33 -118zM454 322q0 62 -32.5 103t-94.5 41
q-63 0 -95.5 -41t-32.5 -103q0 -63 32.5 -104t95.5 -41q62 0 94.5 41t32.5 104z" />
    <glyph glyph-name="yen" unicode="&#xa5;" 
d="M361 0h-72v91h-168v57h168v89h-168v57h168v38l-263 350h95l111 -155q19 -26 54 -72.5t43 -57.5q20 27 95 130l109 155h91l-263 -350v-38h168v-57h-168v-89h168v-57h-168v-91z" />
    <glyph glyph-name="brokenbar" unicode="&#xa6;" horiz-adv-x="314" 
d="M191 426h-69v389h69v-389zM191 -171h-69v389h69v-389z" />
    <glyph glyph-name="section" unicode="&#xa7;" horiz-adv-x="610" 
d="M70 298q0 45 26.5 84t69.5 65q-56 42 -56 114q0 70 53 112.5t139 42.5q114 0 198 -72l-43 -56q-66 65 -157 65q-54 0 -84.5 -23t-30.5 -63q0 -43 38.5 -70t93 -42t109 -33t93 -57.5t38.5 -101.5q0 -45 -26 -84t-69 -65q55 -43 55 -115q0 -68 -54 -111.5t-142 -43.5
q-129 0 -219 88l44 59q74 -82 177 -82q58 0 89 22t31 63q0 43 -38.5 70t-93.5 42t-109.5 33t-93 57.5t-38.5 101.5zM484 255q0 31 -15.5 54t-45.5 38t-59 24.5t-73.5 22t-70.5 22.5q-77 -43 -77 -111q0 -31 15.5 -54t45.5 -38t59 -24.5t73.5 -22t70.5 -22.5q77 45 77 111z
" />
    <glyph glyph-name="dieresis" unicode="&#xa8;" horiz-adv-x="417" 
d="M152 567h-71v113h71v-113zM336 567h-71v113h71v-113z" />
    <glyph glyph-name="copyright" unicode="&#xa9;" horiz-adv-x="879" 
d="M814 344q0 -165 -105 -274t-271 -109q-167 0 -270 106t-103 271t105 274t272 109q166 0 269 -106t103 -271zM746 341q0 138 -82.5 229.5t-222.5 91.5q-142 0 -225 -90.5t-83 -230.5q0 -139 82.5 -230.5t223.5 -91.5t224 91t83 231zM570 269l55 -27q-26 -56 -74 -86
t-108 -30q-89 0 -144 57t-55 157q0 101 55 159t144 58q59 0 105.5 -27t71.5 -78l-53 -32q-39 79 -126 79q-58 0 -92.5 -41t-34.5 -116q0 -69 34 -113.5t96 -44.5q89 0 126 85z" />
    <glyph glyph-name="ordfeminine" unicode="&#xaa;" horiz-adv-x="498" 
d="M410 637v-183q0 -17 0.5 -35.5t1.5 -41t1 -35.5h-62l-1 64q-53 -75 -145 -75q-67 0 -107.5 34t-40.5 93q0 70 66.5 107t224.5 37v32q-2 99 -103 99q-81 0 -136 -79l-44 38q73 94 182 94q83 0 123 -40t40 -109zM348 519v32q-128 0 -176 -22t-48 -70q0 -35 24 -55.5
t70 -20.5q59 0 94.5 41t35.5 95zM402 181h-325v56h325v-56z" />
    <glyph glyph-name="guillemotleft" unicode="&#xab;" horiz-adv-x="644" 
d="M311 74l-54 -31l-180 229l180 230l55 -30l-140 -198zM556 90l-55 -31l-171 213l171 214l55 -30l-131 -182z" />
    <glyph glyph-name="logicalnot" unicode="&#xac;" 
d="M565 89h-68v203h-434v60h502v-263z" />
    <glyph glyph-name="registered" unicode="&#xae;" horiz-adv-x="709" 
d="M632 528q0 -116 -79 -197t-200 -81t-198.5 79.5t-77.5 196.5t79 197.5t200 80.5t198.5 -79.5t77.5 -196.5zM575 527q0 97 -61.5 162.5t-159.5 65.5q-97 0 -158.5 -66t-61.5 -162t61.5 -162t158.5 -66q98 0 159.5 65.5t61.5 162.5zM491 389h-65l-72 108h-57v-108h-53v286
h124q113 0 113 -84q0 -66 -72 -87zM297 630v-87q21 -1 63 -1q36 0 50.5 11.5t14.5 34.5t-14 32.5t-49 9.5h-65z" />
    <glyph glyph-name="macron" unicode="&#xaf;" horiz-adv-x="430" 
d="M349 647v-59h-268v59h268z" />
    <glyph glyph-name="macron" unicode="&#x2c9;" horiz-adv-x="430" 
d="M349 647v-59h-268v59h268z" />
    <glyph glyph-name="degree" unicode="&#xb0;" horiz-adv-x="413" 
d="M292 601q0 38 -23 63t-63 25t-62.5 -24.5t-22.5 -63.5q0 -38 22.5 -63.5t62.5 -25.5q41 0 63.5 24.5t22.5 64.5zM357 602q0 -63 -42 -104t-110 -41q-66 0 -107.5 40.5t-41.5 102.5t42 103t109 41t108.5 -40t41.5 -102z" />
    <glyph glyph-name="plusminus" unicode="&#xb1;" 
d="M359 184h-68v220h-218v60h218v218h68v-218h218v-60h-218v-220zM577 60v-60h-504v60h504z" />
    <glyph glyph-name="twosuperior" unicode="&#xb2;" horiz-adv-x="502" 
d="M427 396v-58h-343v63q156 98 206.5 145.5t50.5 100.5q0 40 -24 62.5t-69 22.5q-92 0 -92 -78q0 -28 9 -51h-68q-10 17 -10 50q0 64 45 98.5t120 34.5q78 0 119.5 -38.5t41.5 -98.5q0 -66 -53 -120.5t-185 -132.5v-1q45 1 123 1h129z" />
    <glyph glyph-name="threesuperior" unicode="&#xb3;" horiz-adv-x="499" 
d="M70 457l66 15q16 -88 120 -88q47 0 73.5 21t26.5 58q0 73 -102 73h-66v52h48q64 0 87 23q18 18 18 53q0 31 -24 50t-67 19q-85 0 -101 -79l-65 14q25 118 169 118q73 0 116 -32t43 -86q0 -75 -71 -100v-1q87 -21 87 -107q0 -54 -47 -92t-126 -38q-160 0 -185 127z" />
    <glyph glyph-name="acute" unicode="&#xb4;" horiz-adv-x="332" 
d="M75 551l84 141h98l-116 -141h-66z" />
    <glyph glyph-name="mu" unicode="&#xb5;" horiz-adv-x="561" 
d="M480 0h-69l-1 72h-1q-48 -84 -152 -84q-76 0 -107 45h-1q2 -37 2 -61l4 -179h-71v685h70v-272q0 -71 16 -104q28 -55 97 -55q54 0 91 35q49 49 49 168v228h70v-242q0 -122 3 -236z" />
    <glyph glyph-name="mu" unicode="&#x3bc;" horiz-adv-x="561" 
d="M480 0h-69l-1 72h-1q-48 -84 -152 -84q-76 0 -107 45h-1q2 -37 2 -61l4 -179h-71v685h70v-272q0 -71 16 -104q28 -55 97 -55q54 0 91 35q49 49 49 168v228h70v-242q0 -122 3 -236z" />
    <glyph glyph-name="paragraph" unicode="&#xb6;" horiz-adv-x="700" 
d="M590 -207h-67v828h-111v-828h-68v445h-35q-118 0 -187 59t-69 166t72.5 163.5t192.5 56.5q2 0 49 -0.5t78 -0.5h145v-889z" />
    <glyph glyph-name="periodcentered" unicode="&#xb7;" horiz-adv-x="255" 
d="M175 263h-95v118h95v-118z" />
    <glyph glyph-name="periodcentered" unicode="&#x22c5;" horiz-adv-x="255" 
d="M175 263h-95v118h95v-118z" />
    <glyph glyph-name="periodcentered" unicode="&#x2219;" horiz-adv-x="255" 
d="M175 263h-95v118h95v-118z" />
    <glyph glyph-name="cedilla" unicode="&#xb8;" horiz-adv-x="286" 
d="M154 -207h-74q19 15 36.5 37.5t17.5 40.5q0 16 -12 27t-38 24l45 79h64l-31 -54q43 -29 43 -72q0 -20 -14.5 -43t-36.5 -39z" />
    <glyph glyph-name="onesuperior" unicode="&#xb9;" horiz-adv-x="354" 
d="M257 338h-68v340q-41 -34 -131 -34v58q126 0 140 78h59v-442z" />
    <glyph glyph-name="ordmasculine" unicode="&#xba;" horiz-adv-x="532" 
d="M407 558q0 75 -37.5 124.5t-103.5 49.5q-67 0 -104 -49t-37 -125q0 -75 37.5 -124.5t103.5 -49.5q67 0 104 49t37 125zM475 559q0 -100 -55.5 -164.5t-154.5 -64.5q-100 0 -154 63t-54 164q0 100 55.5 164.5t154.5 64.5q101 0 154.5 -62.5t53.5 -164.5zM455 181h-378v56
h378v-56z" />
    <glyph glyph-name="guillemotright" unicode="&#xbb;" horiz-adv-x="644" 
d="M333 471l55 32l179 -230l-180 -229l-54 29l139 198zM88 455l55 31l171 -213l-171 -214l-55 30l131 182z" />
    <glyph glyph-name="onequarter" unicode="&#xbc;" horiz-adv-x="936" 
d="M257 338h-68v340q-41 -34 -131 -34v58q126 0 140 78h59v-442zM668 778h76l-545 -874h-75zM803 -96h-67v96h-231v60l198 284h100v-287h80v-57h-80v-96zM572 54q87 3 164 3v118q0 86 2 115h-2z" />
    <glyph glyph-name="onehalf" unicode="&#xbd;" horiz-adv-x="980" 
d="M257 338h-68v340q-41 -34 -131 -34v58q126 0 140 78h59v-442zM668 778h76l-545 -874h-75zM905 -38v-58h-343v63q156 98 206.5 145.5t50.5 100.5q0 40 -24 62.5t-69 22.5q-92 0 -92 -78q0 -28 9 -51h-68q-10 17 -10 50q0 64 45 98.5t120 34.5q78 0 119.5 -38.5t41.5 -98.5
q0 -66 -53 -120.5t-185 -132.5v-1q45 1 123 1h129z" />
    <glyph glyph-name="threequarters" unicode="&#xbe;" horiz-adv-x="1060" 
d="M70 457l66 15q16 -88 120 -88q47 0 73.5 21t26.5 58q0 73 -102 73h-66v52h48q64 0 87 23q18 18 18 53q0 31 -24 50t-67 19q-85 0 -101 -79l-65 14q25 118 169 118q73 0 116 -32t43 -86q0 -75 -71 -100v-1q87 -21 87 -107q0 -54 -47 -92t-126 -38q-160 0 -185 127z
M793 778h76l-545 -874h-75zM928 -96h-67v96h-231v60l198 284h100v-287h80v-57h-80v-96zM697 54q87 3 164 3v118q0 86 2 115h-2z" />
    <glyph glyph-name="questiondown" unicode="&#xbf;" horiz-adv-x="612" 
d="M252 615h90v-129h-90v129zM332 405l1 -66q1 -36 -17.5 -64t-44.5 -47t-52.5 -38.5t-45 -49.5t-18.5 -69q0 -49 41 -83.5t109 -34.5q67 0 111.5 36t44.5 98q0 36 -5 56h72q7 -21 7 -53q0 -92 -64.5 -146t-167.5 -54q-101 0 -163.5 49.5t-62.5 128.5q0 48 19 84.5
t45.5 58.5t53.5 41t46 41.5t20 49.5l1 62h70z" />
    <glyph glyph-name="Agrave" unicode="&#xc0;" horiz-adv-x="643" 
d="M282 682h79l264 -682h-85l-70 189h-301l-69 -189h-82zM254 423l-63 -174h256l-65 177q-52 139 -64 184h-1q-10 -43 -63 -187zM276 881l93 -132h-73l-126 132h106z" />
    <glyph glyph-name="Aacute" unicode="&#xc1;" horiz-adv-x="643" 
d="M282 682h79l264 -682h-85l-70 189h-301l-69 -189h-82zM254 423l-63 -174h256l-65 177q-52 139 -64 184h-1q-10 -43 -63 -187zM272 749l93 132h106l-127 -132h-72z" />
    <glyph glyph-name="Acircumflex" unicode="&#xc2;" horiz-adv-x="643" 
d="M282 682h79l264 -682h-85l-70 189h-301l-69 -189h-82zM254 423l-63 -174h256l-65 177q-52 139 -64 184h-1q-10 -43 -63 -187zM166 750l118 132h73l118 -132h-75l-80 75l-80 -75h-74z" />
    <glyph glyph-name="Atilde" unicode="&#xc3;" horiz-adv-x="643" 
d="M282 682h79l264 -682h-85l-70 189h-301l-69 -189h-82zM254 423l-63 -174h256l-65 177q-52 139 -64 184h-1q-10 -43 -63 -187zM250 817q-19 0 -29 -18t-10 -44h-59q0 53 25 88t76 35q30 0 57 -17t47.5 -33.5t34.5 -16.5q19 0 29 18t10 44h59q0 -53 -25 -88t-76 -35
q-31 0 -58 17t-47 33.5t-34 16.5z" />
    <glyph glyph-name="Adieresis" unicode="&#xc4;" horiz-adv-x="643" 
d="M282 682h79l264 -682h-85l-70 189h-301l-69 -189h-82zM254 423l-63 -174h256l-65 177q-52 139 -64 184h-1q-10 -43 -63 -187zM247 761h-75v112h75v-112zM470 761h-75v112h75v-112z" />
    <glyph glyph-name="Aring" unicode="&#xc5;" horiz-adv-x="643" 
d="M282 682h79l264 -682h-85l-70 189h-301l-69 -189h-82zM254 423l-63 -174h256l-65 177q-52 139 -64 184h-1q-10 -43 -63 -187zM424 835q0 -40 -28 -67.5t-76 -27.5t-74.5 26t-26.5 68q0 39 27.5 66.5t75.5 27.5q49 0 75.5 -26t26.5 -67zM367 834q0 20 -12 34t-34 14
t-33.5 -13.5t-11.5 -34.5q0 -20 11.5 -33.5t33.5 -13.5t34 13.5t12 33.5z" />
    <glyph glyph-name="AE" unicode="&#xc6;" horiz-adv-x="969" 
d="M331 682h556v-64h-356v-238h309v-62h-309v-253h373v-65h-448v186h-296l-93 -186h-84zM375 618l-185 -370h266v370h-81z" />
    <glyph glyph-name="Ccedilla" unicode="&#xc7;" horiz-adv-x="690" 
d="M373 -207h-78q1 1 8 7.5t8.5 8.5t8 8t8.5 9t7 8.5t7 9.5l4.5 9t3.5 9.5t1 8.5q0 29 -51 50l38 68q-123 14 -197.5 108.5t-74.5 242.5q0 88 27.5 158t73 112t100.5 64t113 22q90 0 160 -45t104 -126l-66 -30q-25 63 -78.5 99t-121.5 36q-100 0 -166.5 -76t-66.5 -213
q0 -131 64 -209.5t174 -78.5q75 0 128 36t77 102l66 -21q-29 -83 -95 -131.5t-155 -51.5l-23 -40q44 -30 44 -72q0 -20 -16.5 -44t-35.5 -38z" />
    <glyph glyph-name="Egrave" unicode="&#xc8;" horiz-adv-x="645" 
d="M110 0v682h453v-64h-378v-238h331v-62h-331v-253h395v-65h-470zM292 881l93 -132h-73l-126 132h106z" />
    <glyph glyph-name="Eacute" unicode="&#xc9;" horiz-adv-x="645" 
d="M110 0v682h453v-64h-378v-238h331v-62h-331v-253h395v-65h-470zM282 749l93 132h106l-127 -132h-72z" />
    <glyph glyph-name="Ecircumflex" unicode="&#xca;" horiz-adv-x="645" 
d="M110 0v682h453v-64h-378v-238h331v-62h-331v-253h395v-65h-470zM182 750l118 132h73l118 -132h-75l-80 75l-80 -75h-74z" />
    <glyph glyph-name="Edieresis" unicode="&#xcb;" horiz-adv-x="645" 
d="M110 0v682h453v-64h-378v-238h331v-62h-331v-253h395v-65h-470zM263 761h-75v112h75v-112zM486 761h-75v112h75v-112z" />
    <glyph glyph-name="Igrave" unicode="&#xcc;" horiz-adv-x="295" 
d="M110 0v682h75v-682h-75zM103 881l93 -132h-73l-126 132h106z" />
    <glyph glyph-name="Iacute" unicode="&#xcd;" horiz-adv-x="295" 
d="M110 0v682h75v-682h-75zM99 749l93 132h106l-127 -132h-72z" />
    <glyph glyph-name="Icircumflex" unicode="&#xce;" horiz-adv-x="295" 
d="M110 0v682h75v-682h-75zM-7 750l118 132h73l118 -132h-75l-80 75l-80 -75h-74z" />
    <glyph glyph-name="Idieresis" unicode="&#xcf;" horiz-adv-x="295" 
d="M110 0v682h75v-682h-75zM73 761h-75v112h75v-112zM296 761h-75v112h75v-112z" />
    <glyph glyph-name="Eth" unicode="&#xd0;" horiz-adv-x="741" 
d="M199 319v-250q59 -3 123 -3q74 0 119 11t81 47q73 73 73 216q0 140 -75 215q-38 38 -84 50.5t-118 12.5q-85 0 -119 -1v-237h204v-61h-204zM124 1v318h-113v61h113v301q65 1 197 1q91 0 153 -19t110 -67q91 -91 91 -253q0 -166 -92 -258q-49 -49 -111.5 -67t-151.5 -18
q-41 0 -111 0.5t-85 0.5z" />
    <glyph glyph-name="Ntilde" unicode="&#xd1;" horiz-adv-x="762" 
d="M652 0h-93l-252 393q-87 135 -129 204h-2q4 -117 4 -361v-236h-70v682h99l247 -381q60 -91 128 -205h1q-3 132 -3 361v225h70v-682zM310 817q-19 0 -29 -18t-10 -44h-59q0 53 25 88t76 35q30 0 57 -17t47.5 -33.5t34.5 -16.5q19 0 29 18t10 44h59q0 -53 -25 -88t-76 -35
q-31 0 -58 17t-47 33.5t-34 16.5z" />
    <glyph glyph-name="Ograve" unicode="&#xd2;" horiz-adv-x="778" 
d="M632 341q0 131 -65 210t-178 79t-178.5 -79t-65.5 -210t65.5 -210t178.5 -79t178 79t65 210zM712 342q0 -160 -90 -258t-234 -98q-145 0 -233.5 96t-88.5 258q0 160 90 258t234 98t233 -96t89 -258zM344 881l93 -132h-73l-126 132h106z" />
    <glyph glyph-name="Oacute" unicode="&#xd3;" horiz-adv-x="778" 
d="M632 341q0 131 -65 210t-178 79t-178.5 -79t-65.5 -210t65.5 -210t178.5 -79t178 79t65 210zM712 342q0 -160 -90 -258t-234 -98q-145 0 -233.5 96t-88.5 258q0 160 90 258t234 98t233 -96t89 -258zM340 749l93 132h106l-127 -132h-72z" />
    <glyph glyph-name="Ocircumflex" unicode="&#xd4;" horiz-adv-x="778" 
d="M632 341q0 131 -65 210t-178 79t-178.5 -79t-65.5 -210t65.5 -210t178.5 -79t178 79t65 210zM712 342q0 -160 -90 -258t-234 -98q-145 0 -233.5 96t-88.5 258q0 160 90 258t234 98t233 -96t89 -258zM234 750l118 132h73l118 -132h-75l-80 75l-80 -75h-74z" />
    <glyph glyph-name="Otilde" unicode="&#xd5;" horiz-adv-x="778" 
d="M632 341q0 131 -65 210t-178 79t-178.5 -79t-65.5 -210t65.5 -210t178.5 -79t178 79t65 210zM712 342q0 -160 -90 -258t-234 -98q-145 0 -233.5 96t-88.5 258q0 160 90 258t234 98t233 -96t89 -258zM318 817q-19 0 -29 -18t-10 -44h-59q0 53 25 88t76 35q30 0 57 -17
t47.5 -33.5t34.5 -16.5q19 0 29 18t10 44h59q0 -53 -25 -88t-76 -35q-31 0 -58 17t-47 33.5t-34 16.5z" />
    <glyph glyph-name="Odieresis" unicode="&#xd6;" horiz-adv-x="778" 
d="M632 341q0 131 -65 210t-178 79t-178.5 -79t-65.5 -210t65.5 -210t178.5 -79t178 79t65 210zM712 342q0 -160 -90 -258t-234 -98q-145 0 -233.5 96t-88.5 258q0 160 90 258t234 98t233 -96t89 -258zM315 761h-75v112h75v-112zM538 761h-75v112h75v-112z" />
    <glyph glyph-name="multiply" unicode="&#xd7;" 
d="M558 135l-46 -46l-187 189l-188 -189l-45 46l189 187l-189 187l45 46l188 -189l187 189l46 -46l-189 -187z" />
    <glyph glyph-name="Oslash" unicode="&#xd8;" horiz-adv-x="778" 
d="M110 -17l-48 43l72 80q-68 95 -68 234q0 160 90 258t234 98q124 0 209 -74l69 77l47 -43l-72 -81q69 -93 69 -233q0 -160 -90 -258t-234 -98q-127 0 -209 73zM590 518l-363 -404q62 -62 162 -62q113 0 178.5 78.5t65.5 210.5q0 103 -43 177zM187 164l364 404
q-63 63 -162 63q-114 0 -179 -79t-65 -211q0 -104 42 -177z" />
    <glyph glyph-name="Ugrave" unicode="&#xd9;" horiz-adv-x="730" 
d="M178 682v-424q0 -99 46.5 -152.5t141.5 -53.5q94 0 141.5 54t47.5 152v424h71v-427q0 -126 -67.5 -197.5t-194.5 -71.5q-137 0 -199 74t-62 189v433h75zM320 881l93 -132h-73l-126 132h106z" />
    <glyph glyph-name="Uacute" unicode="&#xda;" horiz-adv-x="730" 
d="M178 682v-424q0 -99 46.5 -152.5t141.5 -53.5q94 0 141.5 54t47.5 152v424h71v-427q0 -126 -67.5 -197.5t-194.5 -71.5q-137 0 -199 74t-62 189v433h75zM316 749l93 132h106l-127 -132h-72z" />
    <glyph glyph-name="Ucircumflex" unicode="&#xdb;" horiz-adv-x="730" 
d="M178 682v-424q0 -99 46.5 -152.5t141.5 -53.5q94 0 141.5 54t47.5 152v424h71v-427q0 -126 -67.5 -197.5t-194.5 -71.5q-137 0 -199 74t-62 189v433h75zM210 750l118 132h73l118 -132h-75l-80 75l-80 -75h-74z" />
    <glyph glyph-name="Udieresis" unicode="&#xdc;" horiz-adv-x="730" 
d="M178 682v-424q0 -99 46.5 -152.5t141.5 -53.5q94 0 141.5 54t47.5 152v424h71v-427q0 -126 -67.5 -197.5t-194.5 -71.5q-137 0 -199 74t-62 189v433h75zM291 761h-75v112h75v-112zM514 761h-75v112h75v-112z" />
    <glyph glyph-name="Yacute" unicode="&#xdd;" horiz-adv-x="604" 
d="M340 0h-76v292l-264 390h91l213 -320l213 320h87l-264 -390v-292zM253 749l93 132h106l-127 -132h-72z" />
    <glyph glyph-name="Thorn" unicode="&#xde;" horiz-adv-x="637" 
d="M185 0h-75v682h75v-117q2 0 67 0.5t111 0.5q262 0 262 -204q0 -103 -70 -154.5t-199 -51.5q-106 0 -171 1v-157zM185 499v-277q55 -1 175 -1q99 0 142.5 35.5t43.5 104.5q0 70 -42.5 105t-141.5 35q-122 0 -177 -2z" />
    <glyph glyph-name="germandbls" unicode="&#xdf;" horiz-adv-x="569" 
d="M84 0v509q0 103 53.5 155t151.5 52q104 0 150 -44t46 -104q0 -37 -15.5 -63.5t-37.5 -41t-44.5 -27.5t-38 -30.5t-15.5 -40.5q0 -20 14.5 -36.5t36.5 -27.5t47 -26.5t47 -32.5t36.5 -46t14.5 -66q0 -67 -44.5 -104.5t-113.5 -37.5q-68 0 -124 35l27 57q46 -33 100 -33
q82 0 82 80q0 28 -20 50t-48.5 38t-57.5 33.5t-49 46.5t-20 68q0 34 15.5 59t37.5 39.5t44.5 27.5t38 32t15.5 45q0 38 -30.5 64.5t-94.5 26.5q-134 0 -134 -149v-508h-70z" />
    <glyph glyph-name="agrave" unicode="&#xe0;" horiz-adv-x="516" 
d="M369 197v35q-140 0 -192.5 -24t-52.5 -77q0 -39 26 -62t77 -23q64 0 103 45.5t39 105.5zM105 346l-47 41q78 104 201 104q92 0 136 -44t44 -121v-90q0 -116 3 -236h-68l-2 71h-1q-58 -83 -159 -83q-73 0 -117.5 38.5t-44.5 102.5q0 77 72 117.5t247 40.5v36
q0 109 -113 109q-92 0 -151 -86zM221 692l85 -141h-67l-117 141h99z" />
    <glyph glyph-name="aacute" unicode="&#xe1;" horiz-adv-x="516" 
d="M369 197v35q-140 0 -192.5 -24t-52.5 -77q0 -39 26 -62t77 -23q64 0 103 45.5t39 105.5zM105 346l-47 41q78 104 201 104q92 0 136 -44t44 -121v-90q0 -116 3 -236h-68l-2 71h-1q-58 -83 -159 -83q-73 0 -117.5 38.5t-44.5 102.5q0 77 72 117.5t247 40.5v36
q0 109 -113 109q-92 0 -151 -86zM218 551l84 141h98l-116 -141h-66z" />
    <glyph glyph-name="acircumflex" unicode="&#xe2;" horiz-adv-x="516" 
d="M369 197v35q-140 0 -192.5 -24t-52.5 -77q0 -39 26 -62t77 -23q64 0 103 45.5t39 105.5zM105 346l-47 41q78 104 201 104q92 0 136 -44t44 -121v-90q0 -116 3 -236h-68l-2 71h-1q-58 -83 -159 -83q-73 0 -117.5 38.5t-44.5 102.5q0 77 72 117.5t247 40.5v36
q0 109 -113 109q-92 0 -151 -86zM119 551l100 141h86l99 -141h-69l-75 90l-74 -90h-67z" />
    <glyph glyph-name="atilde" unicode="&#xe3;" horiz-adv-x="516" 
d="M369 197v35q-140 0 -192.5 -24t-52.5 -77q0 -39 26 -62t77 -23q64 0 103 45.5t39 105.5zM105 346l-47 41q78 104 201 104q92 0 136 -44t44 -121v-90q0 -116 3 -236h-68l-2 71h-1q-58 -83 -159 -83q-73 0 -117.5 38.5t-44.5 102.5q0 77 72 117.5t247 40.5v36
q0 109 -113 109q-92 0 -151 -86zM200 624q-38 0 -38 -61h-56q0 53 24 86t72 33q28 0 51.5 -16t41 -32.5t29.5 -16.5q37 0 37 61h57q0 -53 -24 -86t-72 -33q-28 0 -52 16.5t-41 32.5t-29 16z" />
    <glyph glyph-name="adieresis" unicode="&#xe4;" horiz-adv-x="516" 
d="M369 197v35q-140 0 -192.5 -24t-52.5 -77q0 -39 26 -62t77 -23q64 0 103 45.5t39 105.5zM105 346l-47 41q78 104 201 104q92 0 136 -44t44 -121v-90q0 -116 3 -236h-68l-2 71h-1q-58 -83 -159 -83q-73 0 -117.5 38.5t-44.5 102.5q0 77 72 117.5t247 40.5v36
q0 109 -113 109q-92 0 -151 -86zM205 567h-71v113h71v-113zM389 567h-71v113h71v-113z" />
    <glyph glyph-name="aring" unicode="&#xe5;" horiz-adv-x="516" 
d="M369 197v35q-140 0 -192.5 -24t-52.5 -77q0 -39 26 -62t77 -23q64 0 103 45.5t39 105.5zM105 346l-47 41q78 104 201 104q92 0 136 -44t44 -121v-90q0 -116 3 -236h-68l-2 71h-1q-58 -83 -159 -83q-73 0 -117.5 38.5t-44.5 102.5q0 77 72 117.5t247 40.5v36
q0 109 -113 109q-92 0 -151 -86zM364 642q0 -39 -28 -66.5t-76 -27.5q-49 0 -75 26t-26 67q0 40 27.5 67.5t75.5 27.5q49 0 75.5 -26t26.5 -68zM307 641q0 21 -12 34.5t-34 13.5t-33.5 -13.5t-11.5 -34.5q0 -20 12 -33.5t33 -13.5q22 0 34 13.5t12 33.5z" />
    <glyph glyph-name="ae" unicode="&#xe6;" horiz-adv-x="844" 
d="M105 346l-47 41q78 104 201 104t159 -83q59 83 170 83q55 0 98 -21t66 -54.5t34.5 -69t11.5 -70.5q0 -31 -4 -51h-355q1 -81 45 -129.5t113 -48.5q99 0 154 82l48 -39q-73 -102 -205 -102q-135 0 -194 114q-57 -114 -187 -114q-74 0 -118.5 38.5t-44.5 102.5
q0 77 72 117.5t247 40.5v36q-2 109 -113 109q-92 0 -151 -86zM441 281h281q0 63 -37 107t-100 44q-61 0 -99 -39.5t-45 -111.5zM227 46q64 0 103 45.5t39 105.5v35q-140 0 -192.5 -24t-52.5 -77q0 -39 26 -62t77 -23z" />
    <glyph glyph-name="ccedilla" unicode="&#xe7;" horiz-adv-x="515" 
d="M266 -207h-74q19 15 36.5 37.5t17.5 40.5q0 16 -12 27t-38 24l39 68q-85 11 -135.5 75.5t-50.5 171.5q0 119 61 186.5t157 67.5q138 0 199 -127l-63 -33q-43 100 -137 100q-64 0 -103 -50.5t-39 -141.5q0 -85 39 -138t108 -53q98 0 143 100l59 -26q-58 -124 -175 -132
l-24 -43q43 -29 43 -72q0 -20 -14.5 -43t-36.5 -39z" />
    <glyph glyph-name="egrave" unicode="&#xe8;" horiz-adv-x="529" 
d="M436 129l47 -39q-71 -102 -204 -102q-108 0 -169 68.5t-61 181.5q0 114 60 183.5t163 69.5q56 0 98.5 -21t65.5 -54.5t34.5 -69t11.5 -70.5q0 -31 -4 -51h-354q1 -81 45 -129.5t113 -48.5q99 0 154 82zM126 281h281q0 62 -37.5 106.5t-100.5 44.5q-60 0 -98 -39.5
t-45 -111.5zM223 692l85 -141h-67l-117 141h99z" />
    <glyph glyph-name="eacute" unicode="&#xe9;" horiz-adv-x="529" 
d="M436 129l47 -39q-71 -102 -204 -102q-108 0 -169 68.5t-61 181.5q0 114 60 183.5t163 69.5q56 0 98.5 -21t65.5 -54.5t34.5 -69t11.5 -70.5q0 -31 -4 -51h-354q1 -81 45 -129.5t113 -48.5q99 0 154 82zM126 281h281q0 62 -37.5 106.5t-100.5 44.5q-60 0 -98 -39.5
t-45 -111.5zM221 551l84 141h98l-116 -141h-66z" />
    <glyph glyph-name="ecircumflex" unicode="&#xea;" horiz-adv-x="529" 
d="M436 129l47 -39q-71 -102 -204 -102q-108 0 -169 68.5t-61 181.5q0 114 60 183.5t163 69.5q56 0 98.5 -21t65.5 -54.5t34.5 -69t11.5 -70.5q0 -31 -4 -51h-354q1 -81 45 -129.5t113 -48.5q99 0 154 82zM126 281h281q0 62 -37.5 106.5t-100.5 44.5q-60 0 -98 -39.5
t-45 -111.5zM122 551l100 141h86l99 -141h-69l-75 90l-74 -90h-67z" />
    <glyph glyph-name="edieresis" unicode="&#xeb;" horiz-adv-x="529" 
d="M436 129l47 -39q-71 -102 -204 -102q-108 0 -169 68.5t-61 181.5q0 114 60 183.5t163 69.5q56 0 98.5 -21t65.5 -54.5t34.5 -69t11.5 -70.5q0 -31 -4 -51h-354q1 -81 45 -129.5t113 -48.5q99 0 154 82zM126 281h281q0 62 -37.5 106.5t-100.5 44.5q-60 0 -98 -39.5
t-45 -111.5zM208 567h-71v113h71v-113zM392 567h-71v113h71v-113z" />
    <glyph glyph-name="igrave" unicode="&#xec;" horiz-adv-x="238" 
d="M154 0h-70v478h70v-478zM78 692l85 -141h-67l-117 141h99z" />
    <glyph glyph-name="iacute" unicode="&#xed;" horiz-adv-x="238" 
d="M154 0h-70v478h70v-478zM75 551l84 141h98l-116 -141h-66z" />
    <glyph glyph-name="icircumflex" unicode="&#xee;" horiz-adv-x="238" 
d="M154 0h-70v478h70v-478zM-24 551l100 141h86l99 -141h-69l-75 90l-74 -90h-67z" />
    <glyph glyph-name="idieresis" unicode="&#xef;" horiz-adv-x="238" 
d="M154 0h-70v478h70v-478zM73 567h-70v113h70v-113zM235 567h-70v113h70v-113z" />
    <glyph glyph-name="eth" unicode="&#xf0;" horiz-adv-x="563" 
d="M154 692l72 33q54 -33 92 -64l120 60l26 -48l-102 -52q150 -150 150 -353q0 -129 -61.5 -204.5t-172.5 -75.5q-110 0 -169.5 69.5t-59.5 180.5q0 109 59.5 180t160.5 71q107 0 157 -81l2 1q-38 94 -130 180l-127 -63l-25 48l107 54q-43 33 -99 64zM435 238q0 83 -42 137
t-114 54q-73 0 -114 -54t-41 -137t41.5 -136.5t113.5 -53.5q73 0 114.5 53.5t41.5 136.5z" />
    <glyph glyph-name="ntilde" unicode="&#xf1;" horiz-adv-x="560" 
d="M482 0h-70v272q0 71 -16 104q-27 55 -101 55q-59 0 -92 -35q-49 -49 -49 -168v-228h-70v241q0 117 -3 237h68l2 -71h1q48 84 156 84q84 0 129 -47.5t45 -143.5v-300zM218 624q-38 0 -38 -61h-56q0 53 24 86t72 33q28 0 51.5 -16t41 -32.5t29.5 -16.5q37 0 37 61h57
q0 -53 -24 -86t-72 -33q-28 0 -52 16.5t-41 32.5t-29 16z" />
    <glyph glyph-name="ograve" unicode="&#xf2;" horiz-adv-x="559" 
d="M435 239q0 84 -42 138t-114 54q-73 0 -114 -54t-41 -138q0 -83 41.5 -137t113.5 -54q73 0 114.5 54t41.5 137zM510 240q0 -110 -61.5 -181t-170.5 -71q-110 0 -169.5 69.5t-59.5 180.5q0 110 61.5 181.5t170.5 71.5q110 0 169.5 -69.5t59.5 -181.5zM238 692l85 -141h-67
l-117 141h99z" />
    <glyph glyph-name="oacute" unicode="&#xf3;" horiz-adv-x="559" 
d="M435 239q0 84 -42 138t-114 54q-73 0 -114 -54t-41 -138q0 -83 41.5 -137t113.5 -54q73 0 114.5 54t41.5 137zM510 240q0 -110 -61.5 -181t-170.5 -71q-110 0 -169.5 69.5t-59.5 180.5q0 110 61.5 181.5t170.5 71.5q110 0 169.5 -69.5t59.5 -181.5zM236 551l84 141h98
l-116 -141h-66z" />
    <glyph glyph-name="ocircumflex" unicode="&#xf4;" horiz-adv-x="559" 
d="M435 239q0 84 -42 138t-114 54q-73 0 -114 -54t-41 -138q0 -83 41.5 -137t113.5 -54q73 0 114.5 54t41.5 137zM510 240q0 -110 -61.5 -181t-170.5 -71q-110 0 -169.5 69.5t-59.5 180.5q0 110 61.5 181.5t170.5 71.5q110 0 169.5 -69.5t59.5 -181.5zM137 551l100 141h86
l99 -141h-69l-75 90l-74 -90h-67z" />
    <glyph glyph-name="otilde" unicode="&#xf5;" horiz-adv-x="559" 
d="M435 239q0 84 -42 138t-114 54q-73 0 -114 -54t-41 -138q0 -83 41.5 -137t113.5 -54q73 0 114.5 54t41.5 137zM510 240q0 -110 -61.5 -181t-170.5 -71q-110 0 -169.5 69.5t-59.5 180.5q0 110 61.5 181.5t170.5 71.5q110 0 169.5 -69.5t59.5 -181.5zM218 624
q-38 0 -38 -61h-56q0 53 24 86t72 33q28 0 51.5 -16t41 -32.5t29.5 -16.5q37 0 37 61h57q0 -53 -24 -86t-72 -33q-28 0 -52 16.5t-41 32.5t-29 16z" />
    <glyph glyph-name="odieresis" unicode="&#xf6;" horiz-adv-x="559" 
d="M435 239q0 84 -42 138t-114 54q-73 0 -114 -54t-41 -138q0 -83 41.5 -137t113.5 -54q73 0 114.5 54t41.5 137zM510 240q0 -110 -61.5 -181t-170.5 -71q-110 0 -169.5 69.5t-59.5 180.5q0 110 61.5 181.5t170.5 71.5q110 0 169.5 -69.5t59.5 -181.5zM223 567h-71v113h71
v-113zM407 567h-71v113h71v-113z" />
    <glyph glyph-name="divide" unicode="&#xf7;" 
d="M371 55h-92v126h92v-126zM587 352v-60h-524v60h524zM371 463h-92v126h92v-126z" />
    <glyph glyph-name="oslash" unicode="&#xf8;" horiz-adv-x="559" 
d="M72 -34l-42 39l63 71q-44 63 -44 162q0 110 61.5 181.5t170.5 71.5q88 0 144 -47l62 68l42 -39l-64 -71q45 -66 45 -162q0 -110 -61.5 -181t-170.5 -71q-87 0 -145 45zM145 132l234 261q-40 38 -100 38q-73 0 -114.5 -54t-41.5 -138q0 -60 22 -107zM413 345l-233 -259
q37 -39 99 -39q74 0 115.5 54t41.5 138q0 60 -23 106z" />
    <glyph glyph-name="ugrave" unicode="&#xf9;" horiz-adv-x="554" 
d="M473 0h-68l-2 72h-1q-48 -84 -153 -84q-82 0 -127 47.5t-45 142.5v300h70v-272q0 -71 17 -104q27 -55 96 -55q56 0 91 35q49 48 49 168v228h70v-242q0 -122 3 -236zM236 692l85 -141h-67l-117 141h99z" />
    <glyph glyph-name="uacute" unicode="&#xfa;" horiz-adv-x="554" 
d="M473 0h-68l-2 72h-1q-48 -84 -153 -84q-82 0 -127 47.5t-45 142.5v300h70v-272q0 -71 17 -104q27 -55 96 -55q56 0 91 35q49 48 49 168v228h70v-242q0 -122 3 -236zM234 551l84 141h98l-116 -141h-66z" />
    <glyph glyph-name="ucircumflex" unicode="&#xfb;" horiz-adv-x="554" 
d="M473 0h-68l-2 72h-1q-48 -84 -153 -84q-82 0 -127 47.5t-45 142.5v300h70v-272q0 -71 17 -104q27 -55 96 -55q56 0 91 35q49 48 49 168v228h70v-242q0 -122 3 -236zM135 551l100 141h86l99 -141h-69l-75 90l-74 -90h-67z" />
    <glyph glyph-name="udieresis" unicode="&#xfc;" horiz-adv-x="554" 
d="M473 0h-68l-2 72h-1q-48 -84 -153 -84q-82 0 -127 47.5t-45 142.5v300h70v-272q0 -71 17 -104q27 -55 96 -55q56 0 91 35q49 48 49 168v228h70v-242q0 -122 3 -236zM221 567h-71v113h71v-113zM405 567h-71v113h71v-113z" />
    <glyph glyph-name="yacute" unicode="&#xfd;" horiz-adv-x="487" 
d="M192 -207h-77l98 207h-3l-197 478h81l81 -202q28 -71 71 -197h1q29 91 70 197l80 202h77zM200 551l84 141h98l-116 -141h-66z" />
    <glyph glyph-name="thorn" unicode="&#xfe;" horiz-adv-x="580" 
d="M152 250v-21q0 -80 41.5 -131t111.5 -51q72 0 111.5 52.5t39.5 140.5q0 84 -41 137.5t-114 53.5q-68 0 -108.5 -48.5t-40.5 -132.5zM84 -207v918h70v-210q0 -65 -4 -94h1q49 84 162 84q103 0 160 -69.5t57 -179.5q0 -118 -60.5 -186t-159.5 -68q-105 0 -157 79h-1
q2 -34 2 -89v-185h-70z" />
    <glyph glyph-name="ydieresis" unicode="&#xff;" horiz-adv-x="487" 
d="M192 -207h-77l98 207h-3l-197 478h81l81 -202q28 -71 71 -197h1q29 91 70 197l80 202h77zM187 567h-71v113h71v-113zM371 567h-71v113h71v-113z" />
    <glyph glyph-name="Amacron" unicode="&#x100;" horiz-adv-x="643" 
d="M282 682h79l264 -682h-85l-70 189h-301l-69 -189h-82zM254 423l-63 -174h256l-65 177q-52 139 -64 184h-1q-10 -43 -63 -187zM469 843v-62h-297v62h297z" />
    <glyph glyph-name="amacron" unicode="&#x101;" horiz-adv-x="516" 
d="M369 197v35q-140 0 -192.5 -24t-52.5 -77q0 -39 26 -62t77 -23q64 0 103 45.5t39 105.5zM105 346l-47 41q78 104 201 104q92 0 136 -44t44 -121v-90q0 -116 3 -236h-68l-2 71h-1q-58 -83 -159 -83q-73 0 -117.5 38.5t-44.5 102.5q0 77 72 117.5t247 40.5v36
q0 109 -113 109q-92 0 -151 -86zM396 647v-59h-268v59h268z" />
    <glyph glyph-name="Abreve" unicode="&#x102;" horiz-adv-x="643" 
d="M282 682h79l264 -682h-85l-70 189h-301l-69 -189h-82zM254 423l-63 -174h256l-65 177q-52 139 -64 184h-1q-10 -43 -63 -187zM404 884h63q0 -66 -37.5 -102.5t-109.5 -36.5t-108.5 36t-36.5 103h62q0 -77 84 -77q83 0 83 77z" />
    <glyph glyph-name="abreve" unicode="&#x103;" horiz-adv-x="516" 
d="M369 197v35q-140 0 -192.5 -24t-52.5 -77q0 -39 26 -62t77 -23q64 0 103 45.5t39 105.5zM105 346l-47 41q78 104 201 104q92 0 136 -44t44 -121v-90q0 -116 3 -236h-68l-2 71h-1q-58 -83 -159 -83q-73 0 -117.5 38.5t-44.5 102.5q0 77 72 117.5t247 40.5v36
q0 109 -113 109q-92 0 -151 -86zM340 689h58q0 -135 -138 -135q-135 0 -135 135h58q0 -77 78 -77q79 0 79 77z" />
    <glyph glyph-name="Aogonek" unicode="&#x104;" horiz-adv-x="643" 
d="M630 -157v-49q-23 -8 -63 -8q-101 0 -101 74q0 68 83 140h-9l-70 189h-301l-69 -189h-82l264 682h79l264 -682q-85 -80 -85 -131q0 -26 36 -26h54zM254 423l-64 -174h258l-66 177q-52 139 -64 184h-1q-10 -43 -63 -187z" />
    <glyph glyph-name="aogonek" unicode="&#x105;" horiz-adv-x="516" 
d="M369 197v35q-140 0 -192.5 -24t-52.5 -77q0 -39 26 -62t77 -23q64 0 103 45.5t39 105.5zM105 346l-47 41q78 104 201 104q91 0 135.5 -44.5t44.5 -120.5v-90q0 -184 3 -236q-50 -52 -65 -80.5t-15 -52.5q0 -27 37 -27h51v-47q-26 -7 -57 -7q-57 0 -79 20t-22 54
q0 32 20 65.5t63 78.5l-2 67h-1q-58 -83 -160 -83q-73 0 -117.5 38.5t-44.5 102.5q0 77 72 117.5t247 40.5v36q0 109 -113 109q-92 0 -151 -86z" />
    <glyph glyph-name="Cacute" unicode="&#x106;" horiz-adv-x="690" 
d="M588 191l66 -21q-32 -89 -102 -136.5t-171 -47.5q-140 0 -227.5 96t-87.5 258q0 88 27.5 158t73 112t100.5 64t113 22q90 0 160 -45t104 -126l-66 -30q-26 64 -79 99.5t-121 35.5q-100 0 -166.5 -76t-66.5 -213q0 -131 64 -209.5t174 -78.5q154 0 205 138zM332 749
l93 132h106l-127 -132h-72z" />
    <glyph glyph-name="cacute" unicode="&#x107;" horiz-adv-x="515" 
d="M414 148l59 -26q-63 -134 -204 -134q-99 0 -159.5 66t-60.5 183q0 119 61 186.5t157 67.5q138 0 199 -127l-63 -33q-43 100 -137 100q-64 0 -103 -50.5t-39 -141.5q0 -84 39 -137.5t108 -53.5q98 0 143 100zM224 551l84 141h98l-116 -141h-66z" />
    <glyph glyph-name="Ccircumflex" unicode="&#x108;" horiz-adv-x="690" 
d="M588 191l66 -21q-32 -89 -102 -136.5t-171 -47.5q-140 0 -227.5 96t-87.5 258q0 88 27.5 158t73 112t100.5 64t113 22q90 0 160 -45t104 -126l-66 -30q-26 64 -79 99.5t-121 35.5q-100 0 -166.5 -76t-66.5 -213q0 -131 64 -209.5t174 -78.5q154 0 205 138zM227 750
l118 132h73l118 -132h-75l-80 75l-80 -75h-74z" />
    <glyph glyph-name="ccircumflex" unicode="&#x109;" horiz-adv-x="515" 
d="M414 148l59 -26q-63 -134 -204 -134q-99 0 -159.5 66t-60.5 183q0 119 61 186.5t157 67.5q138 0 199 -127l-63 -33q-43 100 -137 100q-64 0 -103 -50.5t-39 -141.5q0 -84 39 -137.5t108 -53.5q98 0 143 100zM125 551l100 141h86l99 -141h-69l-75 90l-74 -90h-67z" />
    <glyph glyph-name="Cdotaccent" unicode="&#x10a;" horiz-adv-x="690" 
d="M588 191l66 -21q-32 -89 -102 -136.5t-171 -47.5q-140 0 -227.5 96t-87.5 258q0 88 27.5 158t73 112t100.5 64t113 22q90 0 160 -45t104 -126l-66 -30q-26 64 -79 99.5t-121 35.5q-100 0 -166.5 -76t-66.5 -213q0 -131 64 -209.5t174 -78.5q154 0 205 138zM419 761h-76
v112h76v-112z" />
    <glyph glyph-name="cdotaccent" unicode="&#x10b;" horiz-adv-x="515" 
d="M414 148l59 -26q-63 -134 -204 -134q-99 0 -159.5 66t-60.5 183q0 119 61 186.5t157 67.5q138 0 199 -127l-63 -33q-43 100 -137 100q-64 0 -103 -50.5t-39 -141.5q0 -84 39 -137.5t108 -53.5q98 0 143 100zM303 567h-72v113h72v-113z" />
    <glyph glyph-name="Ccaron" unicode="&#x10c;" horiz-adv-x="690" 
d="M588 191l66 -21q-32 -89 -102 -136.5t-171 -47.5q-140 0 -227.5 96t-87.5 258q0 88 27.5 158t73 112t100.5 64t113 22q90 0 160 -45t104 -126l-66 -30q-26 64 -79 99.5t-121 35.5q-100 0 -166.5 -76t-66.5 -213q0 -131 64 -209.5t174 -78.5q154 0 205 138zM536 882
l-117 -132h-75l-117 132h74l81 -75l80 75h74z" />
    <glyph glyph-name="ccaron" unicode="&#x10d;" horiz-adv-x="515" 
d="M414 148l59 -26q-63 -134 -204 -134q-99 0 -159.5 66t-60.5 183q0 119 61 186.5t157 67.5q138 0 199 -127l-63 -33q-43 100 -137 100q-64 0 -103 -50.5t-39 -141.5q0 -84 39 -137.5t108 -53.5q98 0 143 100zM410 692l-100 -141h-86l-99 141h69l75 -90l74 90h67z" />
    <glyph glyph-name="Dcaron" unicode="&#x10e;" horiz-adv-x="726" 
d="M185 616v-547q59 -3 123 -3q74 0 119 11t81 48q73 73 73 215q0 141 -75 214q-38 39 -84 51t-119 12q-84 0 -118 -1zM110 1v680q64 1 196 1q92 0 153.5 -19t109.5 -67q91 -91 91 -253q0 -166 -92 -258q-49 -49 -111 -67t-151 -18q-41 0 -110.5 0.5t-85.5 0.5zM497 882
l-117 -132h-75l-117 132h74l81 -75l80 75h74z" />
    <glyph glyph-name="dcaron" unicode="&#x10f;" horiz-adv-x="597" 
d="M428 229v20q0 81 -41.5 131.5t-111.5 50.5q-72 0 -111.5 -52t-39.5 -141q0 -84 41 -137.5t114 -53.5q67 0 108 48.5t41 133.5zM499 0h-68l-2 72h-1q-48 -84 -161 -84q-103 0 -160.5 69t-57.5 179q0 118 60.5 186.5t160.5 68.5q102 0 157 -79h1q-2 34 -2 89v210h70v-474
q0 -167 3 -237zM546 569l35 187h76l-53 -187h-58z" />
    <glyph glyph-name="Dcroat" unicode="&#x110;" horiz-adv-x="741" 
d="M199 319v-250q59 -3 123 -3q74 0 119 11t81 47q73 73 73 216q0 140 -75 215q-38 38 -84 50.5t-118 12.5q-85 0 -119 -1v-237h204v-61h-204zM124 1v318h-113v61h113v301q65 1 197 1q91 0 153 -19t110 -67q91 -91 91 -253q0 -166 -92 -258q-49 -49 -111.5 -67t-151.5 -18
q-41 0 -111 0.5t-85 0.5z" />
    <glyph glyph-name="dcroat" unicode="&#x111;" horiz-adv-x="580" 
d="M499 0h-68l-2 72h-1q-48 -84 -161 -84q-103 0 -160.5 69t-57.5 179q0 118 60.5 186.5t160.5 68.5q102 0 157 -79h1q-2 34 -2 89v61h-142v57h142v94h70v-94h99v-57h-99v-325q0 -167 3 -237zM428 229v20q0 81 -41.5 131.5t-111.5 50.5q-72 0 -111.5 -52t-39.5 -141
q0 -84 41 -137.5t114 -53.5q67 0 108 48.5t41 133.5z" />
    <glyph glyph-name="Emacron" unicode="&#x112;" horiz-adv-x="645" 
d="M110 0v682h453v-64h-378v-238h331v-62h-331v-253h395v-65h-470zM483 843v-62h-297v62h297z" />
    <glyph glyph-name="emacron" unicode="&#x113;" horiz-adv-x="529" 
d="M436 129l47 -39q-71 -102 -204 -102q-108 0 -169 68.5t-61 181.5q0 114 60 183.5t163 69.5q56 0 98.5 -21t65.5 -54.5t34.5 -69t11.5 -70.5q0 -31 -4 -51h-354q1 -81 45 -129.5t113 -48.5q99 0 154 82zM126 281h281q0 62 -37.5 106.5t-100.5 44.5q-60 0 -98 -39.5
t-45 -111.5zM398 647v-59h-268v59h268z" />
    <glyph glyph-name="Ebreve" unicode="&#x114;" horiz-adv-x="645" 
d="M110 0v682h453v-64h-378v-238h331v-62h-331v-253h395v-65h-470zM420 884h63q0 -66 -37.5 -102.5t-109.5 -36.5t-108.5 36t-36.5 103h62q0 -77 84 -77q83 0 83 77z" />
    <glyph glyph-name="ebreve" unicode="&#x115;" horiz-adv-x="529" 
d="M436 129l47 -39q-71 -102 -204 -102q-108 0 -169 68.5t-61 181.5q0 114 60 183.5t163 69.5q56 0 98.5 -21t65.5 -54.5t34.5 -69t11.5 -70.5q0 -31 -4 -51h-354q1 -81 45 -129.5t113 -48.5q99 0 154 82zM126 281h281q0 62 -37.5 106.5t-100.5 44.5q-60 0 -98 -39.5
t-45 -111.5zM343 689h58q0 -135 -138 -135q-135 0 -135 135h58q0 -77 78 -77q79 0 79 77z" />
    <glyph glyph-name="Edotaccent" unicode="&#x116;" horiz-adv-x="645" 
d="M110 0v682h453v-64h-378v-238h331v-62h-331v-253h395v-65h-470zM373 761h-76v112h76v-112z" />
    <glyph glyph-name="edotaccent" unicode="&#x117;" horiz-adv-x="529" 
d="M436 129l47 -39q-71 -102 -204 -102q-108 0 -169 68.5t-61 181.5q0 114 60 183.5t163 69.5q56 0 98.5 -21t65.5 -54.5t34.5 -69t11.5 -70.5q0 -31 -4 -51h-354q1 -81 45 -129.5t113 -48.5q99 0 154 82zM126 281h281q0 62 -37.5 106.5t-100.5 44.5q-60 0 -98 -39.5
t-45 -111.5zM300 567h-72v113h72v-113z" />
    <glyph glyph-name="Eogonek" unicode="&#x118;" horiz-adv-x="645" 
d="M580 -157v-49q-23 -8 -63 -8q-101 0 -101 74q0 66 83 140h-389v682h453v-64h-378v-238h331v-62h-331v-253h395v-62q-90 -89 -90 -134q0 -26 36 -26h54z" />
    <glyph glyph-name="eogonek" unicode="&#x119;" horiz-adv-x="529" 
d="M451 -160v-47q-26 -7 -57 -7q-57 0 -79 20t-22 54q0 68 63 138q-30 -10 -77 -10q-107 0 -168.5 68.5t-61.5 181.5q0 114 60 183.5t163 69.5q56 0 98.5 -21t65.5 -54.5t34.5 -69t11.5 -70.5q0 -31 -4 -51h-354q1 -81 45.5 -129.5t112.5 -48.5q99 0 154 82l47 -39
q-1 -2 -13 -18.5t-18 -25.5l-19 -28.5t-21 -32.5t-18.5 -31.5t-16 -32.5t-10 -28.5t-4.5 -25.5q0 -27 37 -27h51zM126 281h281q0 62 -37.5 106.5t-100.5 44.5q-60 0 -98 -39.5t-45 -111.5z" />
    <glyph glyph-name="Ecaron" unicode="&#x11a;" horiz-adv-x="645" 
d="M110 0v682h453v-64h-378v-238h331v-62h-331v-253h395v-65h-470zM492 882l-117 -132h-75l-117 132h74l81 -75l80 75h74z" />
    <glyph glyph-name="ecaron" unicode="&#x11b;" horiz-adv-x="529" 
d="M436 129l47 -39q-71 -102 -204 -102q-108 0 -169 68.5t-61 181.5q0 114 60 183.5t163 69.5q56 0 98.5 -21t65.5 -54.5t34.5 -69t11.5 -70.5q0 -31 -4 -51h-354q1 -81 45 -129.5t113 -48.5q99 0 154 82zM126 281h281q0 62 -37.5 106.5t-100.5 44.5q-60 0 -98 -39.5
t-45 -111.5zM407 692l-100 -141h-86l-99 141h69l75 -90l74 90h67z" />
    <glyph glyph-name="Gcircumflex" unicode="&#x11c;" horiz-adv-x="755" 
d="M657 0h-69v110h-1q-29 -57 -84.5 -90.5t-129.5 -33.5q-134 0 -220.5 96t-86.5 258q0 159 89 257.5t226 98.5q183 0 270 -157l-61 -41q-70 133 -216 133q-104 0 -166.5 -81.5t-62.5 -208.5q0 -134 64 -212t169 -78q91 0 147 66.5t56 163.5v22h-200v61h276v-364zM226 750
l118 132h73l118 -132h-75l-80 75l-80 -75h-74z" />
    <glyph glyph-name="gcircumflex" unicode="&#x11d;" horiz-adv-x="581" 
d="M435 478h70q-7 -68 -7 -237v-257q0 -93 -51 -147t-159 -54q-142 0 -221 117l54 41q61 -98 169 -98q69 0 103.5 36t34.5 100q0 36 2 92h-2q-49 -82 -160 -82q-104 0 -161 68.5t-57 179.5q0 118 60.5 186t160.5 68q104 0 159 -82h1zM429 230v19q0 81 -41.5 131.5
t-111.5 50.5q-73 0 -112 -52t-39 -140q0 -84 40.5 -137.5t114.5 -53.5q67 0 108 49t41 133zM134 551l100 141h86l99 -141h-69l-75 90l-74 -90h-67z" />
    <glyph glyph-name="Gbreve" unicode="&#x11e;" horiz-adv-x="755" 
d="M657 0h-69v110h-1q-29 -57 -84.5 -90.5t-129.5 -33.5q-134 0 -220.5 96t-86.5 258q0 159 89 257.5t226 98.5q183 0 270 -157l-61 -41q-70 133 -216 133q-104 0 -166.5 -81.5t-62.5 -208.5q0 -134 64 -212t169 -78q91 0 147 66.5t56 163.5v22h-200v61h276v-364zM463 884
h63q0 -66 -37.5 -102.5t-109.5 -36.5t-108.5 36t-36.5 103h62q0 -77 84 -77q83 0 83 77z" />
    <glyph glyph-name="gbreve" unicode="&#x11f;" horiz-adv-x="581" 
d="M435 478h70q-7 -68 -7 -237v-257q0 -93 -51 -147t-159 -54q-142 0 -221 117l54 41q61 -98 169 -98q69 0 103.5 36t34.5 100q0 36 2 92h-2q-49 -82 -160 -82q-104 0 -161 68.5t-57 179.5q0 118 60.5 186t160.5 68q104 0 159 -82h1zM429 230v19q0 81 -41.5 131.5
t-111.5 50.5q-73 0 -112 -52t-39 -140q0 -84 40.5 -137.5t114.5 -53.5q67 0 108 49t41 133zM355 689h58q0 -135 -138 -135q-135 0 -135 135h58q0 -77 78 -77q79 0 79 77z" />
    <glyph glyph-name="Gdotaccent" unicode="&#x120;" horiz-adv-x="755" 
d="M657 0h-69v110h-1q-29 -57 -84.5 -90.5t-129.5 -33.5q-134 0 -220.5 96t-86.5 258q0 159 89 257.5t226 98.5q183 0 270 -157l-61 -41q-70 133 -216 133q-104 0 -166.5 -81.5t-62.5 -208.5q0 -134 64 -212t169 -78q91 0 147 66.5t56 163.5v22h-200v61h276v-364zM418 761
h-76v112h76v-112z" />
    <glyph glyph-name="gdotaccent" unicode="&#x121;" horiz-adv-x="581" 
d="M435 478h70q-7 -68 -7 -237v-257q0 -93 -51 -147t-159 -54q-142 0 -221 117l54 41q61 -98 169 -98q69 0 103.5 36t34.5 100q0 36 2 92h-2q-49 -82 -160 -82q-104 0 -161 68.5t-57 179.5q0 118 60.5 186t160.5 68q104 0 159 -82h1zM429 230v19q0 81 -41.5 131.5
t-111.5 50.5q-73 0 -112 -52t-39 -140q0 -84 40.5 -137.5t114.5 -53.5q67 0 108 49t41 133zM312 567h-72v113h72v-113z" />
    <glyph glyph-name="Gcommaaccent" unicode="&#x122;" horiz-adv-x="755" 
d="M657 0h-69v110h-1q-29 -57 -84.5 -90.5t-129.5 -33.5q-134 0 -220.5 96t-86.5 258q0 159 89 257.5t226 98.5q183 0 270 -157l-61 -41q-70 133 -216 133q-104 0 -166.5 -81.5t-62.5 -208.5q0 -134 64 -212t169 -78q91 0 147 66.5t56 163.5v22h-200v61h276v-364zM339 -54
h76v-74q0 -35 -20.5 -58.5t-67.5 -23.5h-18v38h17q34 0 34 38h-21v80z" />
    <glyph glyph-name="gcommaaccent" unicode="&#x123;" horiz-adv-x="581" 
d="M435 478h70q-7 -68 -7 -237v-257q0 -93 -51 -147t-159 -54q-142 0 -221 117l54 41q61 -98 169 -98q69 0 103.5 36t34.5 100q0 36 2 92h-2q-49 -82 -160 -82q-104 0 -161 68.5t-57 179.5q0 118 60.5 186t160.5 68q104 0 159 -82h1zM429 230v19q0 81 -41.5 131.5
t-111.5 50.5q-73 0 -112 -52t-39 -140q0 -84 40.5 -137.5t114.5 -53.5q67 0 108 49t41 133zM305 567h-71v79q0 83 85 83h18v-38h-19q-34 0 -34 -40h21v-84z" />
    <glyph glyph-name="Hcircumflex" unicode="&#x124;" horiz-adv-x="754" 
d="M110 0v682h75v-295h384v295h75v-682h-75v320h-384v-320h-75zM222 750l118 132h73l118 -132h-75l-80 75l-80 -75h-74z" />
    <glyph glyph-name="hcircumflex" unicode="&#x125;" horiz-adv-x="560" 
d="M84 0v711h70v-210q0 -65 -3 -94h1q48 84 156 84q84 0 129 -47.5t45 -143.5v-300h-70v272q0 71 -16 104q-27 55 -101 55q-59 0 -92 -35q-49 -49 -49 -168v-228h-70zM136 784l100 141h86l99 -141h-69l-75 90l-74 -90h-67z" />
    <glyph glyph-name="Hbar" unicode="&#x126;" horiz-adv-x="774" 
d="M120 0v502h-109v63h109v117h75v-117h384v117h75v-117h109v-63h-109v-502h-75v308h-384v-308h-75zM195 374h384v128h-384v-128z" />
    <glyph glyph-name="hbar" unicode="&#x127;" horiz-adv-x="560" 
d="M84 0v562h-99v57h99v94h70v-94h142v-57h-142v-61q0 -65 -3 -94h1q48 84 156 84q84 0 129 -47.5t45 -143.5v-300h-70v272q0 71 -16 104q-27 55 -101 55q-59 0 -92 -35q-49 -49 -49 -168v-228h-70z" />
    <glyph glyph-name="Itilde" unicode="&#x128;" horiz-adv-x="295" 
d="M110 0v682h75v-682h-75zM76 817q-19 0 -29 -18t-10 -44h-59q0 53 25 88t76 35q30 0 57 -17t47.5 -33.5t34.5 -16.5q19 0 29 18t10 44h59q0 -53 -25 -88t-76 -35q-31 0 -58 17t-47 33.5t-34 16.5z" />
    <glyph glyph-name="itilde" unicode="&#x129;" horiz-adv-x="238" 
d="M154 0h-70v478h70v-478zM63 625q-27 0 -27 -62h-55q0 120 84 120q27 0 48.5 -16.5t35.5 -33t25 -16.5q27 0 27 61h55q0 -119 -84 -119q-27 0 -48 16.5t-35.5 33t-25.5 16.5z" />
    <glyph glyph-name="Imacron" unicode="&#x12a;" horiz-adv-x="295" 
d="M110 0v682h75v-682h-75zM296 843v-62h-297v62h297z" />
    <glyph glyph-name="imacron" unicode="&#x12b;" horiz-adv-x="238" 
d="M154 0h-70v478h70v-478zM253 647v-59h-268v59h268z" />
    <glyph glyph-name="Ibreve" unicode="&#x12c;" horiz-adv-x="295" 
d="M110 0v682h75v-682h-75zM230 884h63q0 -66 -37.5 -102.5t-109.5 -36.5t-108.5 36t-36.5 103h62q0 -77 84 -77q83 0 83 77z" />
    <glyph glyph-name="ibreve" unicode="&#x12d;" horiz-adv-x="238" 
d="M154 0h-70v478h70v-478zM197 689h58q0 -135 -138 -135q-135 0 -135 135h58q0 -77 78 -77q79 0 79 77z" />
    <glyph glyph-name="Iogonek" unicode="&#x12e;" horiz-adv-x="295" 
d="M208 -157v-49q-26 -8 -61 -8q-58 0 -80 20t-22 54q0 49 68 140h-3v682h75v-683q-41 -61 -54 -86.5t-13 -43.5q0 -26 35 -26h55z" />
    <glyph glyph-name="iogonek" unicode="&#x12f;" horiz-adv-x="238" 
d="M155 563h-72v121h72v-121zM178 -160v-47q-28 -7 -57 -7q-57 0 -79 20t-22 54q0 46 68 140h-4v478h70v-478q-64 -101 -64 -133q0 -27 37 -27h51z" />
    <glyph glyph-name="Idotaccent" unicode="&#x130;" horiz-adv-x="295" 
d="M110 0v682h75v-682h-75zM185 761h-76v112h76v-112z" />
    <glyph glyph-name="dotlessi" unicode="&#x131;" horiz-adv-x="238" 
d="M154 0h-70v478h70v-478z" />
    <glyph glyph-name="IJ" unicode="&#x132;" horiz-adv-x="825" 
d="M110 0v682h75v-682h-75zM646 682h75v-475q0 -104 -54.5 -162.5t-147.5 -58.5q-193 0 -210 217l75 15q7 -88 38.5 -127t98.5 -39q125 0 125 156v474z" />
    <glyph glyph-name="ij" unicode="&#x133;" horiz-adv-x="503" 
d="M154 0h-70v478h70v-478zM83 563v121h72v-121h-72zM349 478h70v-509q0 -102 -28 -143t-98 -41q-30 0 -50 5v55h46q36 0 48 28.5t12 95.5v509zM420 563h-72v121h72v-121z" />
    <glyph glyph-name="Jcircumflex" unicode="&#x134;" horiz-adv-x="530" 
d="M351 682h75v-475q0 -104 -54.5 -162.5t-147.5 -58.5q-193 0 -210 217l75 15q7 -88 38.5 -127t98.5 -39q125 0 125 156v474zM227 750l118 132h73l118 -132h-75l-80 75l-80 -75h-74z" />
    <glyph glyph-name="jcircumflex" unicode="&#x135;" horiz-adv-x="248" 
d="M94 478h70v-509q0 -102 -28 -143t-98 -41q-30 0 -50 5v55h46q36 0 48 28.5t12 95.5v509zM-14 551l100 141h86l99 -141h-69l-75 90l-74 -90h-67z" />
    <glyph glyph-name="Kcommaaccent" unicode="&#x136;" horiz-adv-x="673" 
d="M552 682h100l-267 -260l286 -422h-92l-247 370l-147 -143v-227h-75v682h75v-363zM324 -54h76v-74q0 -35 -20.5 -58.5t-67.5 -23.5h-18v38h17q34 0 34 38h-21v80z" />
    <glyph glyph-name="kcommaaccent" unicode="&#x137;" horiz-adv-x="517" 
d="M512 0h-89l-169 264l-100 -89v-175h-70v711h70v-457l243 224h98l-188 -167zM241 -54h71v-73q0 -83 -85 -83h-18v38h20q33 0 33 40h-21v78z" />
    <glyph glyph-name="kgreenlandic" unicode="&#x138;" horiz-adv-x="517" 
d="M512 0h-89l-168 251l-101 -96v-155h-70v478h70v-243l251 243h90l-189 -179z" />
    <glyph glyph-name="Lacute" unicode="&#x139;" horiz-adv-x="548" 
d="M110 0v682h75v-617h352v-65h-427zM103 749l93 132h106l-127 -132h-72z" />
    <glyph glyph-name="lacute" unicode="&#x13a;" horiz-adv-x="238" 
d="M84 0v711h70v-711h-70zM75 784l84 141h98l-116 -141h-66z" />
    <glyph glyph-name="Lcommaaccent" unicode="&#x13b;" horiz-adv-x="548" 
d="M110 0v682h75v-617h352v-65h-427zM282 -54h76v-74q0 -35 -20.5 -58.5t-67.5 -23.5h-18v38h17q34 0 34 38h-21v80z" />
    <glyph glyph-name="lcommaaccent" unicode="&#x13c;" horiz-adv-x="238" 
d="M84 0v711h70v-711h-70zM83 -54h71v-73q0 -83 -85 -83h-18v38h20q33 0 33 40h-21v78z" />
    <glyph glyph-name="Lcaron" unicode="&#x13d;" horiz-adv-x="548" 
d="M110 0v682h75v-617h352v-65h-427zM264 569l35 187h76l-53 -187h-58z" />
    <glyph glyph-name="lcaron" unicode="&#x13e;" horiz-adv-x="255" 
d="M84 0v711h70v-711h-70zM205 569l35 187h76l-53 -187h-58z" />
    <glyph glyph-name="Ldot" unicode="&#x13f;" horiz-adv-x="548" 
d="M110 0v682h75v-617h352v-65h-427zM466 313h-95v118h95v-118z" />
    <glyph glyph-name="ldot" unicode="&#x140;" horiz-adv-x="340" 
d="M84 0v711h70v-711h-70zM336 263h-95v118h95v-118z" />
    <glyph glyph-name="Lslash" unicode="&#x141;" horiz-adv-x="558" 
d="M390 448v-66l-195 -86v-231h352v-65h-427v263l-109 -48v65l109 48v354h75v-321z" />
    <glyph glyph-name="lslash" unicode="&#x142;" horiz-adv-x="258" 
d="M164 0h-70v313l-84 -54v69l84 52v331h70v-288l83 54v-68l-83 -53v-356z" />
    <glyph glyph-name="Nacute" unicode="&#x143;" horiz-adv-x="762" 
d="M652 0h-93l-252 393q-87 135 -129 204h-2q4 -117 4 -361v-236h-70v682h99l247 -381q60 -91 128 -205h1q-3 132 -3 361v225h70v-682zM332 749l93 132h106l-127 -132h-72z" />
    <glyph glyph-name="nacute" unicode="&#x144;" horiz-adv-x="560" 
d="M482 0h-70v272q0 71 -16 104q-27 55 -101 55q-59 0 -92 -35q-49 -49 -49 -168v-228h-70v241q0 117 -3 237h68l2 -71h1q48 84 156 84q84 0 129 -47.5t45 -143.5v-300zM236 551l84 141h98l-116 -141h-66z" />
    <glyph glyph-name="Ncommaaccent" unicode="&#x145;" horiz-adv-x="762" 
d="M652 0h-93l-252 393q-87 135 -129 204h-2q4 -117 4 -361v-236h-70v682h99l247 -381q60 -91 128 -205h1q-3 132 -3 361v225h70v-682zM332 -54h76v-74q0 -35 -20.5 -58.5t-67.5 -23.5h-18v38h17q34 0 34 38h-21v80z" />
    <glyph glyph-name="ncommaaccent" unicode="&#x146;" horiz-adv-x="560" 
d="M482 0h-70v272q0 71 -16 104q-27 55 -101 55q-59 0 -92 -35q-49 -49 -49 -168v-228h-70v241q0 117 -3 237h68l2 -71h1q48 84 156 84q84 0 129 -47.5t45 -143.5v-300zM246 -54h71v-73q0 -83 -85 -83h-18v38h20q33 0 33 40h-21v78z" />
    <glyph glyph-name="Ncaron" unicode="&#x147;" horiz-adv-x="762" 
d="M652 0h-93l-252 393q-87 135 -129 204h-2q4 -117 4 -361v-236h-70v682h99l247 -381q60 -91 128 -205h1q-3 132 -3 361v225h70v-682zM536 882l-117 -132h-75l-117 132h74l81 -75l80 75h74z" />
    <glyph glyph-name="ncaron" unicode="&#x148;" horiz-adv-x="560" 
d="M482 0h-70v272q0 71 -16 104q-27 55 -101 55q-59 0 -92 -35q-49 -49 -49 -168v-228h-70v241q0 117 -3 237h68l2 -71h1q48 84 156 84q84 0 129 -47.5t45 -143.5v-300zM432 692l-100 -141h-86l-99 141h69l75 -90l74 90h67z" />
    <glyph glyph-name="Eng" unicode="&#x14a;" horiz-adv-x="762" 
d="M472 -94h42q67 0 67 96v2l-266 388q-99 146 -137 205h-2q4 -117 4 -361v-236h-70v682h97l241 -352q66 -96 136 -206h2q-4 151 -4 333v225h70v-682q0 -81 -31.5 -120t-108.5 -39q-22 0 -40 5v60z" />
    <glyph glyph-name="eng" unicode="&#x14b;" horiz-adv-x="560" 
d="M412 -29v301q0 71 -16 104q-27 55 -101 55q-59 0 -92 -35q-49 -49 -49 -168v-228h-70v241q0 117 -3 237h68l2 -71h1q48 84 156 84q84 0 129 -47.5t45 -143.5v-325q0 -30 -1.5 -51t-9.5 -49.5t-21.5 -46t-41 -30.5t-65.5 -13q-23 0 -37 6v54h33q45 0 59 32.5t14 93.5z" />
    <glyph glyph-name="Omacron" unicode="&#x14c;" horiz-adv-x="778" 
d="M632 341q0 131 -65 210t-178 79t-178.5 -79t-65.5 -210t65.5 -210t178.5 -79t178 79t65 210zM712 342q0 -160 -90 -258t-234 -98q-145 0 -233.5 96t-88.5 258q0 160 90 258t234 98t233 -96t89 -258zM537 843v-62h-297v62h297z" />
    <glyph glyph-name="omacron" unicode="&#x14d;" horiz-adv-x="559" 
d="M435 239q0 84 -42 138t-114 54q-73 0 -114 -54t-41 -138q0 -83 41.5 -137t113.5 -54q73 0 114.5 54t41.5 137zM510 240q0 -110 -61.5 -181t-170.5 -71q-110 0 -169.5 69.5t-59.5 180.5q0 110 61.5 181.5t170.5 71.5q110 0 169.5 -69.5t59.5 -181.5zM413 647v-59h-268v59
h268z" />
    <glyph glyph-name="Obreve" unicode="&#x14e;" horiz-adv-x="778" 
d="M632 341q0 131 -65 210t-178 79t-178.5 -79t-65.5 -210t65.5 -210t178.5 -79t178 79t65 210zM712 342q0 -160 -90 -258t-234 -98q-145 0 -233.5 96t-88.5 258q0 160 90 258t234 98t233 -96t89 -258zM472 884h63q0 -66 -37.5 -102.5t-109.5 -36.5t-108.5 36t-36.5 103h62
q0 -77 84 -77q83 0 83 77z" />
    <glyph glyph-name="obreve" unicode="&#x14f;" horiz-adv-x="559" 
d="M435 239q0 84 -42 138t-114 54q-73 0 -114 -54t-41 -138q0 -83 41.5 -137t113.5 -54q73 0 114.5 54t41.5 137zM510 240q0 -110 -61.5 -181t-170.5 -71q-110 0 -169.5 69.5t-59.5 180.5q0 110 61.5 181.5t170.5 71.5q110 0 169.5 -69.5t59.5 -181.5zM358 689h58
q0 -135 -138 -135q-135 0 -135 135h58q0 -77 78 -77q79 0 79 77z" />
    <glyph glyph-name="Ohungarumlaut" unicode="&#x150;" horiz-adv-x="778" 
d="M632 341q0 131 -65 210t-178 79t-178.5 -79t-65.5 -210t65.5 -210t178.5 -79t178 79t65 210zM712 342q0 -160 -90 -258t-234 -98q-145 0 -233.5 96t-88.5 258q0 160 90 258t234 98t233 -96t89 -258zM242 749l75 132h101l-107 -132h-69zM444 749l93 132h107l-126 -132h-74
z" />
    <glyph glyph-name="ohungarumlaut" unicode="&#x151;" horiz-adv-x="559" 
d="M435 239q0 84 -42 138t-114 54q-73 0 -114 -54t-41 -138q0 -83 41.5 -137t113.5 -54q73 0 114.5 54t41.5 137zM510 240q0 -110 -61.5 -181t-170.5 -71q-110 0 -169.5 69.5t-59.5 180.5q0 110 61.5 181.5t170.5 71.5q110 0 169.5 -69.5t59.5 -181.5zM153 551l67 141h92
l-95 -141h-64zM326 551l85 141h99l-117 -141h-67z" />
    <glyph glyph-name="OE" unicode="&#x152;" horiz-adv-x="1128" 
d="M1063 0h-449v116h-1q-33 -60 -93.5 -95t-141.5 -35q-140 0 -226 96.5t-86 257.5q0 160 87.5 258t226.5 98q162 0 233 -121h1v107h432v-65h-357v-237h310v-62h-310v-252h374v-66zM614 341q0 131 -62.5 210t-171.5 79t-172 -79t-63 -210t63 -210t172 -79t171.5 79t62.5 210
z" />
    <glyph glyph-name="oe" unicode="&#x153;" horiz-adv-x="912" 
d="M818 129l48 -39q-71 -102 -205 -102q-138 0 -191 120q-54 -120 -192 -120q-110 0 -169.5 69.5t-59.5 180.5q0 110 61.5 181.5t169.5 71.5q138 0 191 -119q25 56 72 87.5t112 31.5q55 0 98 -21t66 -54.5t34.5 -69t11.5 -70.5q0 -31 -4 -51h-354q1 -82 45 -130t113 -48
q99 0 153 82zM279 48q73 0 114.5 54t41.5 137q0 84 -42 138t-114 54q-73 0 -114 -54t-41 -138q0 -83 41.5 -137t113.5 -54zM508 281h282q-1 63 -38 107t-100 44q-60 0 -98.5 -39.5t-45.5 -111.5z" />
    <glyph glyph-name="Racute" unicode="&#x154;" horiz-adv-x="691" 
d="M654 0h-97l-221 279h-151v-279h-75v682q18 0 112.5 0.5t140.5 0.5q129 0 193 -53t64 -147q0 -82 -51 -132.5t-144 -64.5zM185 616v-270q52 -2 168 -2q103 0 145.5 35t42.5 103q0 135 -181 135q-120 0 -175 -1zM298 749l93 132h106l-127 -132h-72z" />
    <glyph glyph-name="racute" unicode="&#x155;" horiz-adv-x="343" 
d="M154 0h-70v241q0 117 -3 237h68l2 -96h1q31 54 73.5 81t86.5 27q12 0 15 -1v-77h-16q-62 0 -103 -41q-35 -36 -44.5 -82t-9.5 -116v-173zM156 551l84 141h98l-116 -141h-66z" />
    <glyph glyph-name="Rcommaaccent" unicode="&#x156;" horiz-adv-x="691" 
d="M654 0h-97l-221 279h-151v-279h-75v682q18 0 112.5 0.5t140.5 0.5q129 0 193 -53t64 -147q0 -82 -51 -132.5t-144 -64.5zM185 616v-270q52 -2 168 -2q103 0 145.5 35t42.5 103q0 135 -181 135q-120 0 -175 -1zM324 -54h76v-74q0 -35 -20.5 -58.5t-67.5 -23.5h-18v38h17
q34 0 34 38h-21v80z" />
    <glyph glyph-name="rcommaaccent" unicode="&#x157;" horiz-adv-x="343" 
d="M154 0h-70v241q0 117 -3 237h68l2 -96h1q31 54 73.5 81t86.5 27q12 0 15 -1v-77h-16q-62 0 -103 -41q-35 -36 -44.5 -82t-9.5 -116v-173zM83 -54h71v-73q0 -83 -85 -83h-18v38h20q33 0 33 40h-21v78z" />
    <glyph glyph-name="Rcaron" unicode="&#x158;" horiz-adv-x="691" 
d="M654 0h-97l-221 279h-151v-279h-75v682q18 0 112.5 0.5t140.5 0.5q129 0 193 -53t64 -147q0 -82 -51 -132.5t-144 -64.5zM185 616v-270q52 -2 168 -2q103 0 145.5 35t42.5 103q0 135 -181 135q-120 0 -175 -1zM502 882l-117 -132h-75l-117 132h74l81 -75l80 75h74z" />
    <glyph glyph-name="rcaron" unicode="&#x159;" horiz-adv-x="343" 
d="M154 0h-70v241q0 117 -3 237h68l2 -96h1q31 54 73.5 81t86.5 27q12 0 15 -1v-77h-16q-62 0 -103 -41q-35 -36 -44.5 -82t-9.5 -116v-173zM344 692l-100 -141h-86l-99 141h69l75 -90l74 90h67z" />
    <glyph glyph-name="Sacute" unicode="&#x15a;" horiz-adv-x="655" 
d="M60 114l46 54q103 -118 238 -118q75 0 120.5 34t45.5 90q0 41 -23.5 68t-61 41t-82.5 25t-90 25t-82.5 33.5t-61 58t-23.5 93.5q0 81 63.5 129.5t163.5 48.5q137 0 244 -98l-46 -55q-86 89 -200 89q-71 0 -109.5 -30t-38.5 -80q0 -40 23.5 -66t61 -40t82.5 -24.5
t90 -24.5t82.5 -34t61 -59.5t23.5 -95.5q0 -86 -70.5 -139t-173.5 -53q-165 0 -283 128zM269 749l93 132h106l-127 -132h-72z" />
    <glyph glyph-name="sacute" unicode="&#x15b;" horiz-adv-x="487" 
d="M47 72l40 51q74 -76 167 -76q50 0 78.5 20.5t28.5 57.5q0 35 -30.5 54.5t-73.5 29t-86.5 21.5t-74 44.5t-30.5 86.5q0 60 47 95t120 35q103 0 182 -68l-41 -49q-61 58 -142 58q-45 0 -70 -18.5t-25 -49.5q0 -35 30.5 -54t74 -28.5t87 -22t74 -45t30.5 -87.5
q0 -64 -51.5 -101.5t-128.5 -37.5q-119 0 -206 84zM192 551l84 141h98l-116 -141h-66z" />
    <glyph glyph-name="Scircumflex" unicode="&#x15c;" horiz-adv-x="655" 
d="M60 114l46 54q103 -118 238 -118q75 0 120.5 34t45.5 90q0 41 -23.5 68t-61 41t-82.5 25t-90 25t-82.5 33.5t-61 58t-23.5 93.5q0 81 63.5 129.5t163.5 48.5q137 0 244 -98l-46 -55q-86 89 -200 89q-71 0 -109.5 -30t-38.5 -80q0 -40 23.5 -66t61 -40t82.5 -24.5
t90 -24.5t82.5 -34t61 -59.5t23.5 -95.5q0 -86 -70.5 -139t-173.5 -53q-165 0 -283 128zM161 750l118 132h73l118 -132h-75l-80 75l-80 -75h-74z" />
    <glyph glyph-name="scircumflex" unicode="&#x15d;" horiz-adv-x="487" 
d="M47 72l40 51q74 -76 167 -76q50 0 78.5 20.5t28.5 57.5q0 35 -30.5 54.5t-73.5 29t-86.5 21.5t-74 44.5t-30.5 86.5q0 60 47 95t120 35q103 0 182 -68l-41 -49q-61 58 -142 58q-45 0 -70 -18.5t-25 -49.5q0 -35 30.5 -54t74 -28.5t87 -22t74 -45t30.5 -87.5
q0 -64 -51.5 -101.5t-128.5 -37.5q-119 0 -206 84zM93 551l100 141h86l99 -141h-69l-75 90l-74 -90h-67z" />
    <glyph glyph-name="Scedilla" unicode="&#x15e;" horiz-adv-x="655" 
d="M340 -207h-78q1 1 8 7.5t8.5 8.5t8 8t8.5 9t7 8.5t7 9.5l4.5 9t3.5 9.5t1 8.5q0 29 -51 50l37 67q-74 8 -131.5 37.5t-112.5 88.5l46 54q102 -118 238 -118q75 0 120.5 34t45.5 90q0 41 -23.5 68t-61 41t-82.5 25t-90 25t-82.5 33.5t-61 58t-23.5 93.5q0 81 63.5 129.5
t163.5 48.5q137 0 244 -98l-46 -55q-86 89 -200 89q-71 0 -109.5 -30t-38.5 -80q0 -40 23.5 -66t61 -40t82.5 -24.5t90 -24.5t82.5 -34t61 -59.5t23.5 -95.5q0 -80 -61.5 -131.5t-154.5 -59.5l-23 -40q44 -30 44 -72q0 -20 -16.5 -44t-35.5 -38z" />
    <glyph glyph-name="scedilla" unicode="&#x15f;" horiz-adv-x="487" 
d="M250 -207h-74q19 15 37 37.5t18 40.5q0 15 -12 26.5t-39 24.5l39 68q-98 10 -172 82l40 51q74 -76 167 -76q50 0 78.5 20.5t28.5 57.5q0 35 -30.5 54.5t-73.5 29t-86.5 21.5t-74 44.5t-30.5 86.5q0 60 47 95t120 35q100 0 182 -68l-41 -49q-62 58 -142 58
q-45 0 -70 -18.5t-25 -49.5q0 -35 30.5 -54t74 -28.5t87 -22t74 -45t30.5 -87.5q0 -58 -42 -94.5t-108 -42.5l-25 -43q43 -29 43 -72q0 -20 -14.5 -43t-36.5 -39z" />
    <glyph glyph-name="Scaron" unicode="&#x160;" horiz-adv-x="655" 
d="M60 114l46 54q103 -118 238 -118q75 0 120.5 34t45.5 90q0 41 -23.5 68t-61 41t-82.5 25t-90 25t-82.5 33.5t-61 58t-23.5 93.5q0 81 63.5 129.5t163.5 48.5q137 0 244 -98l-46 -55q-86 89 -200 89q-71 0 -109.5 -30t-38.5 -80q0 -40 23.5 -66t61 -40t82.5 -24.5
t90 -24.5t82.5 -34t61 -59.5t23.5 -95.5q0 -86 -70.5 -139t-173.5 -53q-165 0 -283 128zM470 882l-117 -132h-75l-117 132h74l81 -75l80 75h74z" />
    <glyph glyph-name="scaron" unicode="&#x161;" horiz-adv-x="487" 
d="M47 72l40 51q74 -76 167 -76q50 0 78.5 20.5t28.5 57.5q0 35 -30.5 54.5t-73.5 29t-86.5 21.5t-74 44.5t-30.5 86.5q0 60 47 95t120 35q103 0 182 -68l-41 -49q-61 58 -142 58q-45 0 -70 -18.5t-25 -49.5q0 -35 30.5 -54t74 -28.5t87 -22t74 -45t30.5 -87.5
q0 -64 -51.5 -101.5t-128.5 -37.5q-119 0 -206 84zM376 692l-100 -141h-86l-99 141h69l75 -90l74 90h67z" />
    <glyph glyph-name="Tcommaaccent" unicode="&#x162;" horiz-adv-x="533" 
d="M229 0v616h-237v66h548v-66h-236v-616h-75zM224 -54h76v-74q0 -35 -20.5 -58.5t-67.5 -23.5h-18v38h17q34 0 34 38h-21v80z" />
    <glyph glyph-name="tcommaaccent" unicode="&#x163;" horiz-adv-x="346" 
d="M109 421h-100v57h100v167l70 19v-186h143v-57h-143v-233q0 -67 3.5 -90t15.5 -35q14 -14 45 -14q49 0 79 16v-60q-37 -17 -90 -17q-65 0 -94 34.5t-29 113.5v285zM179 -54h71v-73q0 -83 -85 -83h-18v38h20q33 0 33 40h-21v78z" />
    <glyph glyph-name="Tcaron" unicode="&#x164;" horiz-adv-x="533" 
d="M229 0v616h-237v66h548v-66h-236v-616h-75zM417 882l-117 -132h-75l-117 132h74l81 -75l80 75h74z" />
    <glyph glyph-name="tcaron" unicode="&#x165;" horiz-adv-x="346" 
d="M109 421h-100v57h100v167l70 19v-186h143v-57h-143v-233q0 -67 3.5 -90t15.5 -35q14 -14 45 -14q49 0 79 16v-60q-37 -17 -90 -17q-65 0 -94 34.5t-29 113.5v285zM240 569l35 187h76l-53 -187h-58z" />
    <glyph glyph-name="Tbar" unicode="&#x166;" horiz-adv-x="533" 
d="M304 0h-75v316h-190v61h190v239h-237v66h548v-66h-236v-239h190v-61h-190v-316z" />
    <glyph glyph-name="tbar" unicode="&#x167;" horiz-adv-x="346" 
d="M109 272v149h-100v57h100v167l70 19v-186h143v-57h-143v-149h116v-56h-116v-31q0 -65 3.5 -87.5t15.5 -34.5q14 -14 45 -14q49 0 79 16v-60q-37 -17 -90 -17q-65 0 -94 34.5t-29 113.5v80h-91v56h91z" />
    <glyph glyph-name="Utilde" unicode="&#x168;" horiz-adv-x="730" 
d="M178 682v-424q0 -99 46.5 -152.5t141.5 -53.5q94 0 141.5 54t47.5 152v424h71v-427q0 -126 -67.5 -197.5t-194.5 -71.5q-137 0 -199 74t-62 189v433h75zM294 817q-19 0 -29 -18t-10 -44h-59q0 53 25 88t76 35q30 0 57 -17t47.5 -33.5t34.5 -16.5q19 0 29 18t10 44h59
q0 -53 -25 -88t-76 -35q-31 0 -58 17t-47 33.5t-34 16.5z" />
    <glyph glyph-name="utilde" unicode="&#x169;" horiz-adv-x="554" 
d="M473 0h-68l-2 72h-1q-48 -84 -153 -84q-82 0 -127 47.5t-45 142.5v300h70v-272q0 -71 17 -104q27 -55 96 -55q56 0 91 35q49 48 49 168v228h70v-242q0 -122 3 -236zM215 624q-38 0 -38 -61h-56q0 53 24 86t72 33q28 0 51.5 -16t41 -32.5t29.5 -16.5q37 0 37 61h57
q0 -53 -24 -86t-72 -33q-28 0 -52 16.5t-41 32.5t-29 16z" />
    <glyph glyph-name="Umacron" unicode="&#x16a;" horiz-adv-x="730" 
d="M178 682v-424q0 -99 46.5 -152.5t141.5 -53.5q94 0 141.5 54t47.5 152v424h71v-427q0 -126 -67.5 -197.5t-194.5 -71.5q-137 0 -199 74t-62 189v433h75zM513 843v-62h-297v62h297z" />
    <glyph glyph-name="umacron" unicode="&#x16b;" horiz-adv-x="554" 
d="M473 0h-68l-2 72h-1q-48 -84 -153 -84q-82 0 -127 47.5t-45 142.5v300h70v-272q0 -71 17 -104q27 -55 96 -55q56 0 91 35q49 48 49 168v228h70v-242q0 -122 3 -236zM411 647v-59h-268v59h268z" />
    <glyph glyph-name="Ubreve" unicode="&#x16c;" horiz-adv-x="730" 
d="M178 682v-424q0 -99 46.5 -152.5t141.5 -53.5q94 0 141.5 54t47.5 152v424h71v-427q0 -126 -67.5 -197.5t-194.5 -71.5q-137 0 -199 74t-62 189v433h75zM448 884h63q0 -66 -37.5 -102.5t-109.5 -36.5t-108.5 36t-36.5 103h62q0 -77 84 -77q83 0 83 77z" />
    <glyph glyph-name="ubreve" unicode="&#x16d;" horiz-adv-x="554" 
d="M473 0h-68l-2 72h-1q-48 -84 -153 -84q-82 0 -127 47.5t-45 142.5v300h70v-272q0 -71 17 -104q27 -55 96 -55q56 0 91 35q49 48 49 168v228h70v-242q0 -122 3 -236zM356 689h58q0 -135 -138 -135q-135 0 -135 135h58q0 -77 78 -77q79 0 79 77z" />
    <glyph glyph-name="Uring" unicode="&#x16e;" horiz-adv-x="730" 
d="M178 682v-424q0 -99 46.5 -152.5t141.5 -53.5q94 0 141.5 54t47.5 152v424h71v-427q0 -126 -67.5 -197.5t-194.5 -71.5q-137 0 -199 74t-62 189v433h75zM468 835q0 -40 -28 -67.5t-76 -27.5t-74.5 26t-26.5 68q0 39 27.5 66.5t75.5 27.5q49 0 75.5 -26t26.5 -67zM411 834
q0 20 -12 34t-34 14t-33.5 -13.5t-11.5 -34.5q0 -20 11.5 -33.5t33.5 -13.5t34 13.5t12 33.5z" />
    <glyph glyph-name="uring" unicode="&#x16f;" horiz-adv-x="554" 
d="M473 0h-68l-2 72h-1q-48 -84 -153 -84q-82 0 -127 47.5t-45 142.5v300h70v-272q0 -71 17 -104q27 -55 96 -55q56 0 91 35q49 48 49 168v228h70v-242q0 -122 3 -236zM380 642q0 -39 -28 -66.5t-76 -27.5q-49 0 -75 26t-26 67q0 40 27.5 67.5t75.5 27.5q49 0 75.5 -26
t26.5 -68zM323 641q0 21 -12 34.5t-34 13.5t-33.5 -13.5t-11.5 -34.5q0 -20 12 -33.5t33 -13.5q22 0 34 13.5t12 33.5z" />
    <glyph glyph-name="Uhungarumlaut" unicode="&#x170;" horiz-adv-x="730" 
d="M178 682v-424q0 -99 46.5 -152.5t141.5 -53.5q94 0 141.5 54t47.5 152v424h71v-427q0 -126 -67.5 -197.5t-194.5 -71.5q-137 0 -199 74t-62 189v433h75zM216 749l75 132h101l-107 -132h-69zM418 749l93 132h107l-126 -132h-74z" />
    <glyph glyph-name="uhungarumlaut" unicode="&#x171;" horiz-adv-x="554" 
d="M473 0h-68l-2 72h-1q-48 -84 -153 -84q-82 0 -127 47.5t-45 142.5v300h70v-272q0 -71 17 -104q27 -55 96 -55q56 0 91 35q49 48 49 168v228h70v-242q0 -122 3 -236zM143 551l67 141h92l-95 -141h-64zM316 551l85 141h99l-117 -141h-67z" />
    <glyph glyph-name="Uogonek" unicode="&#x172;" horiz-adv-x="730" 
d="M516 -157v-49q-23 -8 -62 -8q-102 0 -102 74q0 59 69 133q-23 -7 -57 -7q-137 0 -199 74t-62 189v433h75v-424q0 -99 46.5 -152.5t141.5 -53.5q94 0 141.5 54t47.5 152v424h71v-427q0 -131 -69 -200q-9 -10 -27.5 -26.5t-26.5 -24.5q-77 -77 -77 -135q0 -26 36 -26h54z
" />
    <glyph glyph-name="uogonek" unicode="&#x173;" horiz-adv-x="554" 
d="M406 3l-2 69h-1q-49 -84 -154 -84q-82 0 -127 47.5t-45 142.5v300h70v-272q0 -71 17 -104q27 -55 96 -55q56 0 91 35q49 48 49 168v228h70v-240q0 -168 3 -238q-80 -84 -80 -133q0 -27 38 -27h51v-47q-26 -7 -58 -7q-57 0 -78.5 19.5t-21.5 54.5q0 32 19.5 65t62.5 78z
" />
    <glyph glyph-name="Wcircumflex" unicode="&#x174;" horiz-adv-x="1032" 
d="M334 0h-85l-214 682h84l94 -320q7 -24 38.5 -127.5t44.5 -147.5h1q23 80 85 275l101 320h67l105 -320q73 -223 88 -275h1q9 30 38 130t41 144l94 321h80l-214 -682h-85l-148 448q-18 55 -34 122h-2q-10 -42 -36 -122zM361 750l118 132h73l118 -132h-75l-80 75l-80 -75
h-74z" />
    <glyph glyph-name="wcircumflex" unicode="&#x175;" horiz-adv-x="818" 
d="M611 0h-63l-87 226q-26 70 -56 156h-2q-12 -43 -52 -156l-82 -226h-63l-184 478h81l86 -238q7 -20 15.5 -45t19 -56.5t16.5 -48.5h1q20 69 50 150l86 238h60l86 -229q50 -133 59 -159h1q30 93 54 158l79 230h79zM266 551l100 141h86l99 -141h-69l-75 90l-74 -90h-67z" />
    <glyph glyph-name="Ycircumflex" unicode="&#x176;" horiz-adv-x="604" 
d="M340 0h-76v292l-264 390h91l213 -320l213 320h87l-264 -390v-292zM148 750l118 132h73l118 -132h-75l-80 75l-80 -75h-74z" />
    <glyph glyph-name="ycircumflex" unicode="&#x177;" horiz-adv-x="487" 
d="M192 -207h-77l98 207h-3l-197 478h81l81 -202q28 -71 71 -197h1q29 91 70 197l80 202h77zM101 551l100 141h86l99 -141h-69l-75 90l-74 -90h-67z" />
    <glyph glyph-name="Ydieresis" unicode="&#x178;" horiz-adv-x="604" 
d="M340 0h-76v292l-264 390h91l213 -320l213 320h87l-264 -390v-292zM228 761h-75v112h75v-112zM451 761h-75v112h75v-112z" />
    <glyph glyph-name="Zacute" unicode="&#x179;" horiz-adv-x="628" 
d="M582 68v-68h-536v68l432 548q-82 -1 -255 -1h-162v67h506v-67l-433 -548q88 1 246 1h202zM253 749l93 132h106l-127 -132h-72z" />
    <glyph glyph-name="zacute" unicode="&#x17a;" horiz-adv-x="489" 
d="M442 61v-61h-395v61l299 359q-50 -1 -149 -1h-139v59h370v-59l-300 -359q57 1 173 1h141zM195 551l84 141h98l-116 -141h-66z" />
    <glyph glyph-name="Zdotaccent" unicode="&#x17b;" horiz-adv-x="628" 
d="M582 68v-68h-536v68l432 548q-82 -1 -255 -1h-162v67h506v-67l-433 -548q88 1 246 1h202zM354 761h-76v112h76v-112z" />
    <glyph glyph-name="zdotaccent" unicode="&#x17c;" horiz-adv-x="489" 
d="M442 61v-61h-395v61l299 359q-50 -1 -149 -1h-139v59h370v-59l-300 -359q57 1 173 1h141zM273 567h-72v113h72v-113z" />
    <glyph glyph-name="Zcaron" unicode="&#x17d;" horiz-adv-x="628" 
d="M582 68v-68h-536v68l432 548q-82 -1 -255 -1h-162v67h506v-67l-433 -548q88 1 246 1h202zM470 882l-117 -132h-75l-117 132h74l81 -75l80 75h74z" />
    <glyph glyph-name="zcaron" unicode="&#x17e;" horiz-adv-x="489" 
d="M442 61v-61h-395v61l299 359q-50 -1 -149 -1h-139v59h370v-59l-300 -359q57 1 173 1h141zM387 692l-100 -141h-86l-99 141h69l75 -90l74 90h67z" />
    <glyph glyph-name="longs" unicode="&#x17f;" horiz-adv-x="257" 
d="M154 0h-70v574q0 142 133 142q41 0 78 -13v-62q-39 15 -77 15q-36 0 -50 -20t-14 -67v-569z" />
    <glyph glyph-name="uni018F" unicode="&#x18f;" horiz-adv-x="728" 
d="M133 512l-57 36q98 148 275 148q137 0 224 -96.5t87 -257.5q0 -156 -84.5 -256t-219.5 -100q-148 0 -224.5 95t-76.5 260q0 14 1 36h523q-9 117 -71.5 185t-160.5 68q-141 0 -216 -118zM360 52q97 0 156.5 70t65.5 192h-445q5 -120 59.5 -191t163.5 -71z" />
    <glyph glyph-name="florin" unicode="&#x192;" horiz-adv-x="524" 
d="M442 381v-59h-172l-26 -211q-5 -38 -8 -56.5t-9.5 -49t-14 -45.5t-20.5 -35.5t-29.5 -29.5t-40.5 -16t-54 -7q-51 0 -92 18l18 61q40 -17 78 -17q48 0 66.5 38.5t31.5 138.5l26 211h-141v59h149l14 101q5 43 9 65t12 55.5t19 50.5t29 35t44.5 25.5t61.5 7.5q49 0 92 -18
l-18 -61q-42 17 -78 17q-48 0 -66 -38t-32 -139l-13 -101h164z" />
    <glyph glyph-name="Gcaron" unicode="&#x1e6;" horiz-adv-x="755" 
d="M657 0h-69v110h-1q-29 -57 -84.5 -90.5t-129.5 -33.5q-134 0 -220.5 96t-86.5 258q0 159 89 257.5t226 98.5q183 0 270 -157l-61 -41q-70 133 -216 133q-104 0 -166.5 -81.5t-62.5 -208.5q0 -134 64 -212t169 -78q91 0 147 66.5t56 163.5v22h-200v61h276v-364zM535 882
l-117 -132h-75l-117 132h74l81 -75l80 75h74z" />
    <glyph glyph-name="gcaron" unicode="&#x1e7;" horiz-adv-x="581" 
d="M435 478h70q-7 -68 -7 -237v-257q0 -93 -51 -147t-159 -54q-142 0 -221 117l54 41q61 -98 169 -98q69 0 103.5 36t34.5 100q0 36 2 92h-2q-49 -82 -160 -82q-104 0 -161 68.5t-57 179.5q0 118 60.5 186t160.5 68q104 0 159 -82h1zM429 230v19q0 81 -41.5 131.5
t-111.5 50.5q-73 0 -112 -52t-39 -140q0 -84 40.5 -137.5t114.5 -53.5q67 0 108 49t41 133zM419 692l-100 -141h-86l-99 141h69l75 -90l74 90h67z" />
    <glyph glyph-name="Aringacute" unicode="&#x1fa;" horiz-adv-x="643" 
d="M422 745q0 -60 -54 -83l257 -662h-85l-70 189h-301l-69 -189h-82l255 660q-54 20 -54 83q0 39 27 65.5t75 26.5q49 0 75 -25t26 -65zM254 423l-63 -174h256l-65 177q-52 139 -64 184h-1q-10 -43 -63 -187zM278 875l82 105h107l-117 -105h-72zM364 743q0 21 -11 34t-33 13
q-21 0 -32 -13t-11 -33t11 -33t32 -13t32.5 13t11.5 32z" />
    <glyph glyph-name="aringacute" unicode="&#x1fb;" horiz-adv-x="516" 
d="M369 197v35q-140 0 -192.5 -24t-52.5 -77q0 -39 26 -62t77 -23q64 0 103 45.5t39 105.5zM105 346l-47 41q78 104 201 104q92 0 136 -44t44 -121v-90q0 -116 3 -236h-68l-2 71h-1q-58 -83 -159 -83q-73 0 -117.5 38.5t-44.5 102.5q0 77 72 117.5t247 40.5v36
q0 109 -113 109q-92 0 -151 -86zM365 629q0 -39 -27.5 -66.5t-75.5 -27.5q-49 0 -75 26t-26 67q0 39 27.5 66t75.5 27q49 0 75 -25.5t26 -66.5zM308 628q0 20 -11.5 33.5t-33.5 13.5t-33.5 -13.5t-11.5 -33.5t11.5 -33.5t33.5 -13.5t33.5 13.5t11.5 33.5zM230 767l82 117
h101l-117 -117h-66z" />
    <glyph glyph-name="AEacute" unicode="&#x1fc;" horiz-adv-x="969" 
d="M331 682h556v-64h-356v-238h309v-62h-309v-253h373v-65h-448v186h-296l-93 -186h-84zM375 618l-185 -370h266v370h-81zM555 749l93 132h106l-127 -132h-72z" />
    <glyph glyph-name="aeacute" unicode="&#x1fd;" horiz-adv-x="844" 
d="M105 346l-47 41q78 104 201 104t159 -83q59 83 170 83q55 0 98 -21t66 -54.5t34.5 -69t11.5 -70.5q0 -31 -4 -51h-355q1 -81 45 -129.5t113 -48.5q99 0 154 82l48 -39q-73 -102 -205 -102q-135 0 -194 114q-57 -114 -187 -114q-74 0 -118.5 38.5t-44.5 102.5
q0 77 72 117.5t247 40.5v36q-2 109 -113 109q-92 0 -151 -86zM441 281h281q0 63 -37 107t-100 44q-61 0 -99 -39.5t-45 -111.5zM227 46q64 0 103 45.5t39 105.5v35q-140 0 -192.5 -24t-52.5 -77q0 -39 26 -62t77 -23zM391 551l84 141h98l-116 -141h-66z" />
    <glyph glyph-name="Oslashacute" unicode="&#x1fe;" horiz-adv-x="778" 
d="M110 -17l-48 43l72 80q-68 95 -68 234q0 160 90 258t234 98q124 0 209 -74l69 77l47 -43l-72 -81q69 -93 69 -233q0 -160 -90 -258t-234 -98q-127 0 -209 73zM590 518l-363 -404q62 -62 162 -62q113 0 178.5 78.5t65.5 210.5q0 103 -43 177zM187 164l364 404
q-63 63 -162 63q-114 0 -179 -79t-65 -211q0 -104 42 -177zM340 749l93 132h106l-127 -132h-72z" />
    <glyph glyph-name="oslashacute" unicode="&#x1ff;" horiz-adv-x="559" 
d="M72 -34l-42 39l63 71q-44 63 -44 162q0 110 61.5 181.5t170.5 71.5q88 0 144 -47l62 68l42 -39l-64 -71q45 -66 45 -162q0 -110 -61.5 -181t-170.5 -71q-87 0 -145 45zM145 132l234 261q-40 38 -100 38q-73 0 -114.5 -54t-41.5 -138q0 -60 22 -107zM413 345l-233 -259
q37 -39 99 -39q74 0 115.5 54t41.5 138q0 60 -23 106zM236 551l84 141h98l-116 -141h-66z" />
    <glyph glyph-name="Scommaaccent" unicode="&#x218;" horiz-adv-x="655" 
d="M60 114l46 54q103 -118 238 -118q75 0 120.5 34t45.5 90q0 41 -23.5 68t-61 41t-82.5 25t-90 25t-82.5 33.5t-61 58t-23.5 93.5q0 81 63.5 129.5t163.5 48.5q137 0 244 -98l-46 -55q-86 89 -200 89q-71 0 -109.5 -30t-38.5 -80q0 -40 23.5 -66t61 -40t82.5 -24.5
t90 -24.5t82.5 -34t61 -59.5t23.5 -95.5q0 -86 -70.5 -139t-173.5 -53q-165 0 -283 128zM304 -54h76v-74q0 -35 -20.5 -58.5t-67.5 -23.5h-18v38h17q34 0 34 38h-21v80z" />
    <glyph glyph-name="scommaaccent" unicode="&#x219;" horiz-adv-x="487" 
d="M47 72l40 51q74 -76 167 -76q50 0 78.5 20.5t28.5 57.5q0 35 -30.5 54.5t-73.5 29t-86.5 21.5t-74 44.5t-30.5 86.5q0 60 47 95t120 35q103 0 182 -68l-41 -49q-61 58 -142 58q-45 0 -70 -18.5t-25 -49.5q0 -35 30.5 -54t74 -28.5t87 -22t74 -45t30.5 -87.5
q0 -64 -51.5 -101.5t-128.5 -37.5q-119 0 -206 84zM219 -54h71v-73q0 -83 -85 -83h-18v38h20q33 0 33 40h-21v78z" />
    <glyph glyph-name="uni021A" unicode="&#x21a;" horiz-adv-x="533" 
d="M229 0v616h-237v66h548v-66h-236v-616h-75zM224 -54h76v-74q0 -35 -20.5 -58.5t-67.5 -23.5h-18v38h17q34 0 34 38h-21v80z" />
    <glyph glyph-name="uni021B" unicode="&#x21b;" horiz-adv-x="346" 
d="M109 421h-100v57h100v167l70 19v-186h143v-57h-143v-233q0 -67 3.5 -90t15.5 -35q14 -14 45 -14q49 0 79 16v-60q-37 -17 -90 -17q-65 0 -94 34.5t-29 113.5v285zM179 -54h71v-73q0 -83 -85 -83h-18v38h20q33 0 33 40h-21v78z" />
    <glyph glyph-name="dotlessj" unicode="&#x237;" horiz-adv-x="248" 
d="M94 478h70v-509q0 -102 -28 -143t-98 -41q-30 0 -50 5v55h46q36 0 48 28.5t12 95.5v509z" />
    <glyph glyph-name="uni0259" unicode="&#x259;" horiz-adv-x="529" 
d="M93 349l-48 39q76 103 205 103q108 0 169 -69t61 -182t-60 -182.5t-164 -69.5q-55 0 -98 21t-66 54.5t-34.5 69t-11.5 70.5q0 31 5 50h354q-1 82 -45 130t-113 48q-96 0 -154 -82zM403 198h-281q0 -63 37 -107.5t100 -44.5q61 0 99 39.5t45 112.5z" />
    <glyph glyph-name="quoteleft" unicode="&#x2bb;" horiz-adv-x="256" 
d="M177 475h-98v113q0 95 18 135t78 78l27 -43q-41 -29 -53 -57t-12 -90h40v-136z" />
    <glyph glyph-name="quoteleft" unicode="&#x2018;" horiz-adv-x="256" 
d="M177 475h-98v113q0 95 18 135t78 78l27 -43q-41 -29 -53 -57t-12 -90h40v-136z" />
    <glyph glyph-name="quoteright" unicode="&#x2bc;" horiz-adv-x="256" 
d="M79 780h98v-112q0 -95 -19 -136.5t-78 -76.5l-27 42q41 29 53.5 56.5t12.5 90.5h-40v136z" />
    <glyph glyph-name="quoteright" unicode="&#x2019;" horiz-adv-x="256" 
d="M79 780h98v-112q0 -95 -19 -136.5t-78 -76.5l-27 42q41 29 53.5 56.5t12.5 90.5h-40v136z" />
    <glyph glyph-name="circumflex" unicode="&#x2c6;" horiz-adv-x="431" 
d="M73 551l100 141h86l99 -141h-69l-75 90l-74 -90h-67z" />
    <glyph glyph-name="caron" unicode="&#x2c7;" horiz-adv-x="431" 
d="M358 692l-100 -141h-86l-99 141h69l75 -90l74 90h67z" />
    <glyph glyph-name="breve" unicode="&#x2d8;" horiz-adv-x="433" 
d="M295 689h58q0 -135 -138 -135q-135 0 -135 135h58q0 -77 78 -77q79 0 79 77z" />
    <glyph glyph-name="dotaccent" unicode="&#x2d9;" horiz-adv-x="234" 
d="M153 567h-72v113h72v-113z" />
    <glyph glyph-name="ring" unicode="&#x2da;" horiz-adv-x="391" 
d="M298 642q0 -39 -28 -66.5t-76 -27.5q-49 0 -75 26t-26 67q0 40 27.5 67.5t75.5 27.5q49 0 75.5 -26t26.5 -68zM241 641q0 21 -12 34.5t-34 13.5t-33.5 -13.5t-11.5 -34.5q0 -20 12 -33.5t33 -13.5q22 0 34 13.5t12 33.5z" />
    <glyph glyph-name="ogonek" unicode="&#x2db;" horiz-adv-x="320" 
d="M148 0h69q-66 -98 -66 -133q0 -27 37 -27h51v-47q-28 -7 -58 -7q-57 0 -78.5 20t-21.5 54q0 46 67 140z" />
    <glyph glyph-name="tilde" unicode="&#x2dc;" horiz-adv-x="474" 
d="M175 624q-38 0 -38 -61h-56q0 53 24 86t72 33q28 0 51.5 -16t41 -32.5t29.5 -16.5q37 0 37 61h57q0 -53 -24 -86t-72 -33q-28 0 -52 16.5t-41 32.5t-29 16z" />
    <glyph glyph-name="hungarumlaut" unicode="&#x2dd;" horiz-adv-x="511" 
d="M77 551l67 141h92l-95 -141h-64zM250 551l85 141h99l-117 -141h-67z" />
    <glyph glyph-name="uni0312" unicode="&#x312;" horiz-adv-x="252" 
d="M152 567h-71v79q0 83 85 83h18v-38h-19q-34 0 -34 -40h21v-84z" />
    <glyph glyph-name="uni0315" unicode="&#x315;" horiz-adv-x="270" 
d="M80 569l35 187h76l-53 -187h-58z" />
    <glyph glyph-name="uni0326" unicode="&#x326;" horiz-adv-x="265" 
d="M113 -54h71v-73q0 -83 -85 -83h-18v38h20q33 0 33 40h-21v78z" />
    <glyph glyph-name="uni037E" unicode="&#x37e;" horiz-adv-x="294" 
d="M99 133h96v-109q0 -108 -17 -152t-81 -80l-27 43q43 29 54.5 56.5t11.5 108.5h-37v133zM195 345h-96v133h96v-133z" />
    <glyph glyph-name="tonos" unicode="&#x384;" horiz-adv-x="256" 
d="M81 551l15 141h79l-35 -141h-59z" />
    <glyph glyph-name="dieresistonos" unicode="&#x385;" horiz-adv-x="461" 
d="M150 567h-69v113h69v-113zM380 567h-69v113h69v-113zM189 567l14 144h77l-34 -144h-57z" />
    <glyph glyph-name="Alphatonos" unicode="&#x386;" horiz-adv-x="643" 
d="M282 682h79l264 -682h-85l-70 189h-301l-69 -189h-82zM254 423l-63 -174h256l-65 177q-52 139 -64 184h-1q-10 -43 -63 -187zM65 538l31 189h78l-51 -189h-58z" />
    <glyph glyph-name="anoteleia" unicode="&#x387;" horiz-adv-x="255" 
d="M175 360h-95v118h95v-118z" />
    <glyph glyph-name="Epsilontonos" unicode="&#x388;" horiz-adv-x="658" 
d="M123 0v682h453v-64h-378v-238h331v-62h-331v-253h395v-65h-470zM-41 538l31 189h78l-51 -189h-58z" />
    <glyph glyph-name="Etatonos" unicode="&#x389;" horiz-adv-x="766" 
d="M123 0v682h75v-295h384v295h75v-682h-75v320h-384v-320h-75zM-41 538l31 189h78l-51 -189h-58z" />
    <glyph glyph-name="Iotatonos" unicode="&#x38a;" horiz-adv-x="307" 
d="M123 0v682h75v-682h-75zM-41 538l31 189h78l-51 -189h-58z" />
    <glyph glyph-name="Omicrontonos" unicode="&#x38c;" horiz-adv-x="786" 
d="M640 341q0 131 -65 210t-178 79t-178.5 -79t-65.5 -210t65.5 -210t178.5 -79t178 79t65 210zM720 342q0 -160 -90 -258t-234 -98q-145 0 -233.5 96t-88.5 258q0 160 90 258t234 98t233 -96t89 -258zM-26 538l31 189h78l-51 -189h-58z" />
    <glyph glyph-name="Upsilontonos" unicode="&#x38e;" horiz-adv-x="699" 
d="M435 0h-76v292l-264 390h91l213 -320l213 320h87l-264 -390v-292zM-40 538l31 189h78l-51 -189h-58z" />
    <glyph glyph-name="Omegatonos" unicode="&#x38f;" horiz-adv-x="788" 
d="M330 0h-255v65h189v2q-184 102 -184 312q0 135 89 226t230 91q142 0 229 -89t87 -228q0 -202 -184 -312v-2h189v-65h-255v87q89 54 130 121.5t41 163.5q0 116 -64 187t-174 71q-111 0 -174.5 -69.5t-63.5 -188.5q0 -96 40 -163t130 -122v-87zM-26 538l31 189h78l-51 -189
h-58z" />
    <glyph glyph-name="iotadieresistonos" unicode="&#x390;" horiz-adv-x="248" 
d="M242 62v-61q-34 -13 -64 -13q-53 0 -76.5 29.5t-23.5 97.5v363h70v-355q0 -42 9 -58t34 -16q30 0 51 13zM45 567h-69v113h69v-113zM275 567h-69v113h69v-113zM84 567l14 144h77l-34 -144h-57z" />
    <glyph glyph-name="Alpha" unicode="&#x391;" horiz-adv-x="643" 
d="M282 682h79l264 -682h-85l-70 189h-301l-69 -189h-82zM254 423l-63 -174h256l-65 177q-52 139 -64 184h-1q-10 -43 -63 -187z" />
    <glyph glyph-name="Beta" unicode="&#x392;" horiz-adv-x="706" 
d="M185 315v-251q54 -1 172 -1q38 0 65.5 2t56.5 10t47.5 21t30 35.5t11.5 54.5q0 30 -8.5 52.5t-26 36.5t-35.5 22.5t-47 12t-49.5 4.5t-52.5 1h-164zM185 618v-241h167q64 0 101 7.5t64 34.5q31 31 31 85q0 44 -30 74q-24 24 -67 32.5t-127 8.5q-96 0 -139 -1zM110 0v682
q31 0 100.5 0.5t117.5 0.5q100 0 157.5 -12t95.5 -50q44 -44 44 -109q0 -115 -116 -160q68 -15 102.5 -58t34.5 -106q0 -58 -23 -97t-67 -58t-92 -26.5t-114 -7.5q-41 0 -122 0.5t-118 0.5z" />
    <glyph glyph-name="Gamma" unicode="&#x393;" horiz-adv-x="525" 
d="M110 0v682h410v-66h-335v-616h-75z" />
    <glyph glyph-name="Delta" unicode="&#x394;" horiz-adv-x="641" 
d="M604 61v-61h-567v58l246 624h77zM222 340l-103 -275h401l-104 273q-86 227 -98 272h-1q-15 -54 -95 -270z" />
    <glyph glyph-name="Delta" unicode="&#x2206;" horiz-adv-x="641" 
d="M604 61v-61h-567v58l246 624h77zM222 340l-103 -275h401l-104 273q-86 227 -98 272h-1q-15 -54 -95 -270z" />
    <glyph glyph-name="Epsilon" unicode="&#x395;" horiz-adv-x="645" 
d="M110 0v682h453v-64h-378v-238h331v-62h-331v-253h395v-65h-470z" />
    <glyph glyph-name="Zeta" unicode="&#x396;" horiz-adv-x="628" 
d="M582 68v-68h-536v68l432 548q-82 -1 -255 -1h-162v67h506v-67l-433 -548q88 1 246 1h202z" />
    <glyph glyph-name="Eta" unicode="&#x397;" horiz-adv-x="754" 
d="M110 0v682h75v-295h384v295h75v-682h-75v320h-384v-320h-75z" />
    <glyph glyph-name="Theta" unicode="&#x398;" horiz-adv-x="778" 
d="M525 316h-272v64h272v-64zM632 341q0 131 -65 210t-178 79t-178.5 -79t-65.5 -210t65.5 -210t178.5 -79t178 79t65 210zM712 342q0 -160 -90 -258t-234 -98q-145 0 -233.5 96t-88.5 258q0 160 90 258t234 98t233 -96t89 -258z" />
    <glyph glyph-name="Iota" unicode="&#x399;" horiz-adv-x="295" 
d="M110 0v682h75v-682h-75z" />
    <glyph glyph-name="Kappa" unicode="&#x39a;" horiz-adv-x="673" 
d="M552 682h100l-267 -260l286 -422h-92l-247 370l-147 -143v-227h-75v682h75v-363z" />
    <glyph glyph-name="Lambda" unicode="&#x39b;" horiz-adv-x="634" 
d="M279 682h76l262 -682h-85l-140 377q-64 177 -77 219h-1q-12 -38 -78 -219l-138 -377h-81z" />
    <glyph glyph-name="Mu" unicode="&#x39c;" horiz-adv-x="942" 
d="M110 0v682h121l146 -344q68 -157 94 -233h1q26 76 94 233l146 344h120v-682h-75v240q0 181 3 379h-2q-58 -139 -92 -220l-167 -399h-60l-169 400q-78 184 -90 219h-2q2 -132 2 -379v-240h-70z" />
    <glyph glyph-name="Nu" unicode="&#x39d;" horiz-adv-x="762" 
d="M652 0h-93l-252 393q-87 135 -129 204h-2q4 -117 4 -361v-236h-70v682h99l247 -381q60 -91 128 -205h1q-3 132 -3 361v225h70v-682z" />
    <glyph glyph-name="Xi" unicode="&#x39e;" horiz-adv-x="539" 
d="M454 388v-74h-369v74h369zM479 608h-419v74h419v-74zM45 74h449v-74h-449v74z" />
    <glyph glyph-name="Omicron" unicode="&#x39f;" horiz-adv-x="778" 
d="M632 341q0 131 -65 210t-178 79t-178.5 -79t-65.5 -210t65.5 -210t178.5 -79t178 79t65 210zM712 342q0 -160 -90 -258t-234 -98q-145 0 -233.5 96t-88.5 258q0 160 90 258t234 98t233 -96t89 -258z" />
    <glyph glyph-name="Pi" unicode="&#x3a0;" horiz-adv-x="752" 
d="M642 0h-75v617h-382v-617h-75v682h532v-682z" />
    <glyph glyph-name="Rho" unicode="&#x3a1;" horiz-adv-x="637" 
d="M546 478q0 69 -42.5 104t-141.5 35q-123 0 -177 -1v-277q55 -1 175 -1q99 0 142.5 35.5t43.5 104.5zM110 0v682q35 0 122.5 0.5t130.5 0.5q262 0 262 -204q0 -103 -70 -154.5t-199 -51.5q-106 0 -171 1v-274h-75z" />
    <glyph glyph-name="Sigma" unicode="&#x3a3;" horiz-adv-x="597" 
d="M551 68v-68h-493v68l229 274l-228 273v67h475v-67h-189q-127 0 -198 1l232 -274l-231 -275q69 1 187 1h216z" />
    <glyph glyph-name="Tau" unicode="&#x3a4;" horiz-adv-x="533" 
d="M229 0v616h-237v66h548v-66h-236v-616h-75z" />
    <glyph glyph-name="Upsilon" unicode="&#x3a5;" horiz-adv-x="604" 
d="M340 0h-76v292l-264 390h91l213 -320l213 320h87l-264 -390v-292z" />
    <glyph glyph-name="Phi" unicode="&#x3a6;" horiz-adv-x="952" 
d="M513 -51h-75v76q-180 7 -276.5 85t-96.5 230q0 150 97 229t276 87v77h75v-77q180 -7 277 -85t97 -229q0 -150 -97.5 -229t-276.5 -87v-77zM807 341q0 237 -295 251v-502q295 12 295 251zM144 341q0 -121 73.5 -182.5t220.5 -68.5v502q-294 -14 -294 -251z" />
    <glyph glyph-name="Chi" unicode="&#x3a7;" horiz-adv-x="591" 
d="M4 0l246 359l-218 323h92l173 -263l176 263h86l-217 -318l245 -364h-91l-201 304l-204 -304h-87z" />
    <glyph glyph-name="Psi" unicode="&#x3a8;" horiz-adv-x="924" 
d="M425 0v164q-90 4 -154.5 27.5t-100 62t-51.5 83t-16 98.5v247h75v-238q0 -202 247 -215v453h75v-453q125 7 186 62t61 151v240h74v-248q0 -113 -75 -187.5t-246 -82.5v-164h-75z" />
    <glyph glyph-name="Omega" unicode="&#x3a9;" horiz-adv-x="779" 
d="M322 0h-255v65h189v2q-184 102 -184 312q0 135 89 226t230 91q142 0 229 -89t87 -228q0 -202 -184 -312v-2h189v-65h-255v87q89 54 130 121.5t41 163.5q0 116 -64 187t-174 71q-111 0 -174.5 -69.5t-63.5 -188.5q0 -96 40 -163t130 -122v-87z" />
    <glyph glyph-name="Omega" unicode="&#x2126;" horiz-adv-x="779" 
d="M322 0h-255v65h189v2q-184 102 -184 312q0 135 89 226t230 91q142 0 229 -89t87 -228q0 -202 -184 -312v-2h189v-65h-255v87q89 54 130 121.5t41 163.5q0 116 -64 187t-174 71q-111 0 -174.5 -69.5t-63.5 -188.5q0 -96 40 -163t130 -122v-87z" />
    <glyph glyph-name="Iotadieresis" unicode="&#x3aa;" horiz-adv-x="295" 
d="M110 0v682h75v-682h-75zM73 761h-75v112h75v-112zM296 761h-75v112h75v-112z" />
    <glyph glyph-name="Upsilondieresis" unicode="&#x3ab;" horiz-adv-x="604" 
d="M340 0h-76v292l-264 390h91l213 -320l213 320h87l-264 -390v-292zM228 761h-75v112h75v-112zM451 761h-75v112h75v-112z" />
    <glyph glyph-name="alphatonos" unicode="&#x3ac;" horiz-adv-x="595" 
d="M590 62v-61q-34 -13 -64 -13q-88 0 -96 85h-1q-48 -85 -162 -85q-103 0 -160.5 69t-57.5 179q0 118 60.5 186.5t160.5 68.5q104 0 159 -82h1l3 69h70q-7 -138 -7 -236v-119q0 -42 9 -58t33 -16q30 0 52 13zM428 229v20q0 81 -41.5 131.5t-111.5 50.5q-72 0 -111.5 -52
t-39.5 -141q0 -84 41 -137.5t114 -53.5q67 0 108 48.5t41 133.5zM250 551l15 141h79l-35 -141h-59z" />
    <glyph glyph-name="epsilontonos" unicode="&#x3ad;" horiz-adv-x="480" 
d="M349 273v-55h-91q-132 0 -132 -83q0 -88 132 -88q107 0 158 75l55 -41q-67 -94 -218 -94q-99 0 -151.5 39t-52.5 108q0 38 26 69.5t76 42.5v1q-37 9 -59.5 37.5t-22.5 70.5q0 60 48.5 98t140.5 38q136 0 207 -90l-56 -40q-51 71 -152 71q-51 0 -82 -19t-31 -58
q0 -36 27.5 -59t87.5 -23h90zM223 551l15 141h79l-35 -141h-59z" />
    <glyph glyph-name="etatonos" unicode="&#x3ae;" horiz-adv-x="560" 
d="M482 -207h-70v479q0 71 -16 104q-27 55 -101 55q-59 0 -92 -35q-49 -49 -49 -168v-228h-70v241q0 117 -3 237h68l2 -71h1q48 84 156 84q84 0 129 -47.5t45 -143.5v-507zM253 551l15 141h79l-35 -141h-59z" />
    <glyph glyph-name="iotatonos" unicode="&#x3af;" horiz-adv-x="248" 
d="M242 62v-61q-34 -13 -64 -13q-53 0 -76.5 29.5t-23.5 97.5v363h70v-355q0 -42 9 -58t34 -16q30 0 51 13zM81 551l15 141h79l-35 -141h-59z" />
    <glyph glyph-name="upsilondieresistonos" unicode="&#x3b0;" horiz-adv-x="553" 
d="M147 478v-272q0 -71 17 -103q27 -55 112 -55q72 0 104 40q25 33 25 97v293h70v-296q0 -98 -51.5 -146t-147.5 -48q-105 0 -152 48.5t-47 144.5v297h70zM196 567h-69v113h69v-113zM426 567h-69v113h69v-113zM235 567l14 144h77l-34 -144h-57z" />
    <glyph glyph-name="alpha" unicode="&#x3b1;" horiz-adv-x="595" 
d="M590 62v-61q-34 -13 -64 -13q-88 0 -96 85h-1q-48 -85 -162 -85q-103 0 -160.5 69t-57.5 179q0 118 60.5 186.5t160.5 68.5q104 0 159 -82h1l3 69h70q-7 -138 -7 -236v-119q0 -42 9 -58t33 -16q30 0 52 13zM428 229v20q0 81 -41.5 131.5t-111.5 50.5q-72 0 -111.5 -52
t-39.5 -141q0 -84 41 -137.5t114 -53.5q67 0 108 48.5t41 133.5z" />
    <glyph glyph-name="beta" unicode="&#x3b2;" horiz-adv-x="561" 
d="M154 -207h-70v719q0 94 51 149t143 55q87 0 141.5 -46t54.5 -132q0 -108 -101 -151v-1q135 -34 135 -188q0 -90 -58 -150t-152 -60q-98 0 -145 69h-1q2 -30 2 -91v-173zM154 514v-303q0 -77 38 -120.5t105 -43.5q64 0 100.5 42t36.5 107q0 156 -162 156h-36v57h36
q60 0 94 35.5t34 90.5q0 57 -34.5 89t-88.5 32q-57 0 -90 -35t-33 -107z" />
    <glyph glyph-name="gamma" unicode="&#x3b3;" horiz-adv-x="490" 
d="M276 -207h-70v219l-193 466h81l81 -201q47 -115 74 -195h1q64 109 96.5 202.5t33.5 193.5h74q-4 -116 -48 -223t-130 -245v-217z" />
    <glyph glyph-name="delta" unicode="&#x3b4;" horiz-adv-x="559" 
d="M453 668l-33 -59q-69 48 -141 48q-90 0 -90 -62q0 -28 19 -47q21 -21 109 -52.5t123 -65.5q70 -70 70 -191q0 -110 -61.5 -180.5t-170.5 -70.5q-110 0 -169.5 69.5t-59.5 179.5q0 86 38 148t103 89q-22 12 -35 26q-40 40 -40 94q0 59 45.5 90.5t117.5 31.5q99 0 175 -48z
M386 383q-33 33 -122 61q-140 -46 -140 -205q0 -83 41.5 -137t113.5 -54q73 0 114.5 53.5t41.5 136.5q0 94 -49 145z" />
    <glyph glyph-name="epsilon" unicode="&#x3b5;" horiz-adv-x="480" 
d="M349 273v-55h-91q-132 0 -132 -83q0 -88 132 -88q107 0 158 75l55 -41q-67 -94 -218 -94q-99 0 -151.5 39t-52.5 108q0 38 26 69.5t76 42.5v1q-37 9 -59.5 37.5t-22.5 70.5q0 60 48.5 98t140.5 38q136 0 207 -90l-56 -40q-51 71 -152 71q-51 0 -82 -19t-31 -58
q0 -36 27.5 -59t87.5 -23h90z" />
    <glyph glyph-name="zeta" unicode="&#x3b6;" horiz-adv-x="423" 
d="M78 650v61h325v-59q-116 -95 -197.5 -206.5t-81.5 -205.5q0 -80 35 -115q26 -26 108.5 -48t116.5 -56q34 -36 34 -86q0 -55 -38 -149l-68 14q31 83 31 131q0 28 -18 46q-17 17 -58 28t-87 27t-75 45q-56 56 -56 144q0 109 69.5 214t196.5 216q-46 -1 -132 -1h-105z" />
    <glyph glyph-name="eta" unicode="&#x3b7;" horiz-adv-x="560" 
d="M482 -207h-70v479q0 71 -16 104q-27 55 -101 55q-59 0 -92 -35q-49 -49 -49 -168v-228h-70v241q0 117 -3 237h68l2 -71h1q48 84 156 84q84 0 129 -47.5t45 -143.5v-507z" />
    <glyph glyph-name="theta" unicode="&#x3b8;" horiz-adv-x="563" 
d="M510 363q0 -181 -58 -278t-171 -97q-227 0 -227 363q0 173 58.5 269t170.5 96q113 0 170 -92.5t57 -260.5zM282 47q149 0 155 287h-312q5 -287 157 -287zM282 657q-72 0 -111.5 -68t-44.5 -196h311q-5 126 -44 195t-111 69z" />
    <glyph glyph-name="iota" unicode="&#x3b9;" horiz-adv-x="248" 
d="M242 62v-61q-34 -13 -64 -13q-53 0 -76.5 29.5t-23.5 97.5v363h70v-355q0 -42 9 -58t34 -16q30 0 51 13z" />
    <glyph glyph-name="kappa" unicode="&#x3ba;" horiz-adv-x="517" 
d="M512 0h-89l-168 251l-101 -96v-155h-70v478h70v-243l251 243h90l-189 -179z" />
    <glyph glyph-name="lambda" unicode="&#x3bb;" horiz-adv-x="487" 
d="M237 577l237 -577h-81l-81 202q-51 127 -71 189h-2q-13 -46 -70 -189l-79 -202h-77l191 464l-37 88q-27 65 -45 84.5t-51 19.5q-21 0 -42 -7v60q22 7 47 7q58 0 93 -29.5t68 -109.5z" />
    <glyph glyph-name="nu" unicode="&#x3bd;" horiz-adv-x="490" 
d="M94 478l81 -201q47 -115 74 -195h1q64 109 96.5 202.5t33.5 193.5h74q-4 -117 -48.5 -225t-135.5 -253h-58l-199 478h81z" />
    <glyph glyph-name="xi" unicode="&#x3be;" horiz-adv-x="458" 
d="M365 410v-59h-87q-74 0 -112.5 -39t-38.5 -93q0 -56 36 -94q25 -24 74 -37.5t99 -27.5t75 -39q34 -36 34 -86q0 -55 -38 -149l-68 14q31 83 31 131q0 28 -18 46q-13 13 -59.5 23.5t-100 28t-83.5 48.5q-56 56 -56 139q0 61 35 108t96 59v1q-46 16 -72 56t-26 91
q0 82 53.5 133.5t143.5 51.5q95 0 159 -61l-42 -52q-52 54 -119 54q-55 0 -87.5 -35t-32.5 -89q0 -55 36 -89t99 -34h69z" />
    <glyph glyph-name="omicron" unicode="&#x3bf;" horiz-adv-x="559" 
d="M435 239q0 84 -42 138t-114 54q-73 0 -114 -54t-41 -138q0 -83 41.5 -137t113.5 -54q73 0 114.5 54t41.5 137zM510 240q0 -110 -61.5 -181t-170.5 -71q-110 0 -169.5 69.5t-59.5 180.5q0 110 61.5 181.5t170.5 71.5q110 0 169.5 -69.5t59.5 -181.5z" />
    <glyph glyph-name="pi" unicode="&#x3c0;" horiz-adv-x="588" 
d="M555 55v-59q-25 -5 -40 -5q-74 0 -97 41t-29 161l-12 222h-178l-46 -415h-71l47 415h-93v63h509v-63h-100l15 -209q8 -102 19.5 -128.5t47.5 -26.5q15 0 28 4z" />
    <glyph glyph-name="rho" unicode="&#x3c1;" horiz-adv-x="571" 
d="M142 239q0 -86 42 -139t111 -53q73 0 113 50.5t40 140.5q0 88 -42 140.5t-113 52.5q-72 0 -111.5 -51t-39.5 -141zM142 -207h-70v457q0 117 65 179t161 62q103 0 163.5 -70.5t60.5 -180.5t-61.5 -181t-162.5 -71q-106 0 -157 82h-1q2 -36 2 -90v-187z" />
    <glyph glyph-name="sigma1" unicode="&#x3c2;" horiz-adv-x="472" 
d="M404 -214l-67 14q31 87 31 131q0 28 -18 46q-16 16 -60 23t-94 21t-82 46q-65 65 -65 182q0 113 58 177.5t150 64.5q130 0 188 -126l-62 -33q-40 99 -128 99q-59 0 -95 -47.5t-36 -132.5q0 -92 43 -135q29 -29 118.5 -45.5t122.5 -49.5q34 -34 34 -86q0 -55 -38 -149z
" />
    <glyph glyph-name="sigma" unicode="&#x3c3;" horiz-adv-x="579" 
d="M555 478v-63h-58q-33 0 -52 2v-1q65 -68 65 -176q0 -110 -61 -181t-171 -71t-169.5 69.5t-59.5 180.5q0 110 61.5 181.5t170.5 71.5q23 0 63 -6.5t84 -6.5h127zM435 239q0 84 -42 138t-114 54q-73 0 -114 -54t-41 -138q0 -83 41.5 -137t113.5 -54q73 0 114.5 54t41.5 137
z" />
    <glyph glyph-name="tau" unicode="&#x3c4;" horiz-adv-x="407" 
d="M393 415h-179v-233q0 -80 11 -106.5t59 -26.5q43 0 73 16v-60q-37 -17 -85 -17q-69 0 -99 34.5t-30 114.5q0 92 4 278h-133v63h379v-63z" />
    <glyph glyph-name="upsilon" unicode="&#x3c5;" horiz-adv-x="553" 
d="M147 478v-272q0 -71 17 -103q27 -55 112 -55q72 0 104 40q25 33 25 97v293h70v-296q0 -98 -51.5 -146t-147.5 -48q-105 0 -152 48.5t-47 144.5v297h70z" />
    <glyph glyph-name="phi" unicode="&#x3c6;" horiz-adv-x="738" 
d="M404 -207h-70v199q-141 7 -213 70.5t-72 173.5q0 111 72 177t213 73v225h70v-225q141 -7 213 -70.5t72 -173.5q0 -111 -72.5 -177t-212.5 -73v-199zM334 50v379q-94 -4 -152 -49t-58 -141q0 -95 57.5 -140t152.5 -49zM404 429v-379q94 4 152 49t58 140q0 96 -58 141
t-152 49z" />
    <glyph glyph-name="chi" unicode="&#x3c7;" horiz-adv-x="457" 
d="M443 478l-172 -340l175 -345h-81l-141 281l-127 -281h-83l176 348l-171 337h80l137 -275l126 275h81z" />
    <glyph glyph-name="psi" unicode="&#x3c8;" horiz-adv-x="779" 
d="M431 711v-663q219 15 219 219q0 113 -25 211h75q24 -98 24 -208q0 -266 -293 -281v-196h-70v196q-151 8 -217 81t-66 187v221h70v-213q0 -201 213 -217v663h70z" />
    <glyph glyph-name="omega" unicode="&#x3c9;" horiz-adv-x="828" 
d="M379 329h70v-133q0 -59 29 -103.5t91 -44.5q64 0 100 48.5t36 141.5q0 175 -157 199l18 59q100 -9 157 -75t57 -183t-57 -183.5t-146 -66.5q-54 0 -102.5 28t-60.5 73h-2q-13 -45 -59.5 -73t-100.5 -28q-95 0 -149.5 65.5t-54.5 184.5q0 117 57 183t157 75l18 -59
q-78 -11 -117.5 -56t-39.5 -143q0 -92 36.5 -141t98.5 -49q44 0 73 24.5t38.5 55.5t9.5 68v133z" />
    <glyph glyph-name="iotadieresis" unicode="&#x3ca;" horiz-adv-x="248" 
d="M242 62v-61q-34 -13 -64 -13q-53 0 -76.5 29.5t-23.5 97.5v363h70v-355q0 -42 9 -58t34 -16q30 0 51 13zM67 567h-70v113h70v-113zM229 567h-70v113h70v-113z" />
    <glyph glyph-name="upsilondieresis" unicode="&#x3cb;" horiz-adv-x="553" 
d="M147 478v-272q0 -71 17 -103q27 -55 112 -55q72 0 104 40q25 33 25 97v293h70v-296q0 -98 -51.5 -146t-147.5 -48q-105 0 -152 48.5t-47 144.5v297h70zM220 567h-71v113h71v-113zM404 567h-71v113h71v-113z" />
    <glyph glyph-name="omicrontonos" unicode="&#x3cc;" horiz-adv-x="559" 
d="M250 551l15 141h79l-35 -141h-59zM435 239q0 84 -42 138t-114 54q-73 0 -114 -54t-41 -138q0 -83 41.5 -137t113.5 -54q73 0 114.5 54t41.5 137zM510 240q0 -110 -61.5 -181t-170.5 -71q-110 0 -169.5 69.5t-59.5 180.5q0 110 61.5 181.5t170.5 71.5q110 0 169.5 -69.5
t59.5 -181.5z" />
    <glyph glyph-name="upsilontonos" unicode="&#x3cd;" horiz-adv-x="553" 
d="M147 478v-272q0 -71 17 -103q27 -55 112 -55q72 0 104 40q25 33 25 97v293h70v-296q0 -98 -51.5 -146t-147.5 -48q-105 0 -152 48.5t-47 144.5v297h70zM241 551l15 141h79l-35 -141h-59z" />
    <glyph glyph-name="omegatonos" unicode="&#x3ce;" horiz-adv-x="828" 
d="M379 329h70v-133q0 -59 29 -103.5t91 -44.5q64 0 100 48.5t36 141.5q0 175 -157 199l18 59q100 -9 157 -75t57 -183t-57 -183.5t-146 -66.5q-54 0 -102.5 28t-60.5 73h-2q-13 -45 -59.5 -73t-100.5 -28q-95 0 -149.5 65.5t-54.5 184.5q0 117 57 183t157 75l18 -59
q-78 -11 -117.5 -56t-39.5 -143q0 -92 36.5 -141t98.5 -49q44 0 73 24.5t38.5 55.5t9.5 68v133zM393 511l19 181h79l-45 -181h-53z" />
    <glyph glyph-name="uni0400" unicode="&#x400;" horiz-adv-x="645" 
d="M110 0v682h453v-64h-378v-238h331v-62h-331v-253h395v-65h-470zM311 881l93 -132h-73l-126 132h106z" />
    <glyph glyph-name="uni0401" unicode="&#x401;" horiz-adv-x="645" 
d="M110 0v682h453v-64h-378v-238h331v-62h-331v-253h395v-65h-470zM263 761h-75v112h75v-112zM486 761h-75v112h75v-112z" />
    <glyph glyph-name="uni0402" unicode="&#x402;" horiz-adv-x="734" 
d="M229 0v616h-237v66h548v-66h-236v-212q104 2 151 2q259 0 259 -203q0 -102 -59 -157.5t-156 -55.5q-43 0 -74 9v65q38 -8 72 -8q62 0 99.5 35.5t37.5 106.5q0 77 -46 110t-139 33q-49 0 -145 -2v-339h-75z" />
    <glyph glyph-name="uni0403" unicode="&#x403;" horiz-adv-x="525" 
d="M110 0v682h410v-66h-335v-616h-75zM244 749l93 132h106l-127 -132h-72z" />
    <glyph glyph-name="uni0404" unicode="&#x404;" horiz-adv-x="689" 
d="M485 314h-340q7 -121 70.5 -191.5t168.5 -70.5q153 0 206 137l63 -27q-35 -85 -104 -130.5t-167 -45.5q-141 0 -228.5 96t-87.5 258q0 88 27.5 158t73 112t100.5 64t114 22q88 0 157.5 -42.5t104.5 -119.5l-62 -37q-28 63 -81.5 98.5t-120.5 35.5q-93 0 -158.5 -66.5
t-74.5 -186.5h339v-64z" />
    <glyph glyph-name="uni0405" unicode="&#x405;" horiz-adv-x="655" 
d="M60 114l46 54q103 -118 238 -118q75 0 120.5 34t45.5 90q0 41 -23.5 68t-61 41t-82.5 25t-90 25t-82.5 33.5t-61 58t-23.5 93.5q0 81 63.5 129.5t163.5 48.5q137 0 244 -98l-46 -55q-86 89 -200 89q-71 0 -109.5 -30t-38.5 -80q0 -40 23.5 -66t61 -40t82.5 -24.5
t90 -24.5t82.5 -34t61 -59.5t23.5 -95.5q0 -86 -70.5 -139t-173.5 -53q-165 0 -283 128z" />
    <glyph glyph-name="uni0406" unicode="&#x406;" horiz-adv-x="295" 
d="M110 0v682h75v-682h-75z" />
    <glyph glyph-name="uni0407" unicode="&#x407;" horiz-adv-x="295" 
d="M110 0v682h75v-682h-75zM73 761h-75v112h75v-112zM296 761h-75v112h75v-112z" />
    <glyph glyph-name="uni0408" unicode="&#x408;" horiz-adv-x="530" 
d="M351 682h75v-475q0 -104 -54.5 -162.5t-147.5 -58.5q-193 0 -210 217l75 15q7 -88 38.5 -127t98.5 -39q125 0 125 156v474z" />
    <glyph glyph-name="uni0409" unicode="&#x409;" horiz-adv-x="1070" 
d="M544 0v617h-279l-5 -161q-9 -266 -47.5 -366.5t-145.5 -100.5q-29 0 -49 7v62h44q43 0 67 31.5t38.5 119.5t19.5 256l7 217h425v-264q57 1 168 1q262 0 262 -208q0 -106 -69.5 -159t-198.5 -53q-104 0 -237 1zM619 353v-288q55 -1 165 -1q100 0 143 36.5t43 108.5
q0 74 -42.5 109.5t-141.5 35.5q-113 0 -167 -1z" />
    <glyph glyph-name="uni040A" unicode="&#x40a;" horiz-adv-x="1084" 
d="M559 0v320h-374v-320h-75v682h75v-295h374v295h75v-264q57 1 168 1q262 0 262 -208q0 -106 -70 -159t-199 -53q-93 0 -236 1zM634 353v-288q56 -1 165 -1q100 0 142.5 36.5t42.5 108.5q0 74 -42 109.5t-141 35.5q-112 0 -167 -1z" />
    <glyph glyph-name="uni040B" unicode="&#x40b;" horiz-adv-x="779" 
d="M716 0h-75v162q0 90 -39.5 127.5t-128.5 37.5h-169v-327h-75v616h-237v66h548v-66h-236v-224h177q112 0 173.5 -46.5t61.5 -158.5v-187z" />
    <glyph glyph-name="uni040C" unicode="&#x40c;" horiz-adv-x="668" 
d="M666 0h-99l-288 321h-94v-321h-75v682h75v-296h94l280 296h94l-310 -324zM296 749l93 132h106l-127 -132h-72z" />
    <glyph glyph-name="uni040D" unicode="&#x40d;" horiz-adv-x="754" 
d="M644 0h-75v571l-384 -571h-75v682h75v-571l384 571h75v-682zM340 881l93 -132h-73l-126 132h106z" />
    <glyph glyph-name="uni040E" unicode="&#x40e;" horiz-adv-x="610" 
d="M609 682l-242 -513q-48 -103 -97.5 -142t-124.5 -39q-13 0 -61 5v63h61q52 0 85 23t66 94l-282 509h86l235 -428l195 428h79zM423 884h69q-6 -64 -47 -101.5t-111 -37.5t-110 37t-46 102h69q4 -35 24 -62t64 -27q43 0 63 26.5t25 62.5z" />
    <glyph glyph-name="uni040F" unicode="&#x40f;" horiz-adv-x="737" 
d="M401 -156h-65v156h-226v682h75v-617h367v617h75v-682h-226v-156z" />
    <glyph glyph-name="uni0410" unicode="&#x410;" horiz-adv-x="643" 
d="M282 682h79l264 -682h-85l-70 189h-301l-69 -189h-82zM254 423l-63 -174h256l-65 177q-52 139 -64 184h-1q-10 -43 -63 -187z" />
    <glyph glyph-name="uni0411" unicode="&#x411;" horiz-adv-x="675" 
d="M185 339v-274q54 -1 157 -1q102 0 156 30.5t54 108.5q0 79 -53.5 108.5t-156.5 29.5q-102 0 -157 -2zM110 0v682h470v-65h-395v-213q56 2 162 2q64 0 113 -9.5t89 -31.5t61 -62.5t21 -97.5q0 -206 -293 -206q-43 0 -117 0.5t-111 0.5z" />
    <glyph glyph-name="uni0412" unicode="&#x412;" horiz-adv-x="706" 
d="M185 315v-251q54 -1 172 -1q38 0 65.5 2t56.5 10t47.5 21t30 35.5t11.5 54.5q0 30 -8.5 52.5t-26 36.5t-35.5 22.5t-47 12t-49.5 4.5t-52.5 1h-164zM185 618v-241h167q64 0 101 7.5t64 34.5q31 31 31 85q0 44 -30 74q-24 24 -67 32.5t-127 8.5q-96 0 -139 -1zM110 0v682
q31 0 100.5 0.5t117.5 0.5q100 0 157.5 -12t95.5 -50q44 -44 44 -109q0 -115 -116 -160q68 -15 102.5 -58t34.5 -106q0 -58 -23 -97t-67 -58t-92 -26.5t-114 -7.5q-41 0 -122 0.5t-118 0.5z" />
    <glyph glyph-name="uni0413" unicode="&#x413;" horiz-adv-x="525" 
d="M110 0v682h410v-66h-335v-616h-75z" />
    <glyph glyph-name="uni0414" unicode="&#x414;" horiz-adv-x="755" 
d="M740 -156h-65v156h-600v-156h-65v221h83q46 78 64 166.5t20 229.5l4 221h438v-617h121v-221zM544 65v552h-291l-3 -160q-2 -141 -18.5 -229t-55.5 -163h368z" />
    <glyph glyph-name="uni0415" unicode="&#x415;" horiz-adv-x="645" 
d="M110 0v682h453v-64h-378v-238h331v-62h-331v-253h395v-65h-470z" />
    <glyph glyph-name="uni0416" unicode="&#x416;" horiz-adv-x="943" 
d="M941 0h-94l-246 321h-91v-321h-75v321h-95l-247 -321h-91l279 357l-265 325h91l235 -296h93v296h75v-296h92l236 296h89l-263 -322z" />
    <glyph glyph-name="uni0417" unicode="&#x417;" horiz-adv-x="639" 
d="M34 113l59 43q35 -51 92.5 -78t126.5 -27q87 0 137.5 33t50.5 99q0 132 -200 132h-112v62h109q90 0 136 32.5t46 94.5q0 60 -44.5 93.5t-125.5 33.5q-130 0 -209 -98l-51 44q98 119 262 119q117 0 182 -50.5t65 -134.5q0 -59 -33.5 -101t-91.5 -58q70 -14 108 -57
t38 -107q0 -92 -72 -147t-196 -55q-87 0 -161.5 32.5t-115.5 94.5z" />
    <glyph glyph-name="uni0418" unicode="&#x418;" horiz-adv-x="754" 
d="M644 0h-75v571l-384 -571h-75v682h75v-571l384 571h75v-682z" />
    <glyph glyph-name="uni0419" unicode="&#x419;" horiz-adv-x="754" 
d="M644 0h-75v571l-384 -571h-75v682h75v-571l384 571h75v-682zM465 884h69q-6 -64 -47 -101.5t-111 -37.5t-110 37t-46 102h69q4 -35 24 -62t64 -27q43 0 63 26.5t25 62.5z" />
    <glyph glyph-name="uni041A" unicode="&#x41a;" horiz-adv-x="668" 
d="M666 0h-99l-288 321h-94v-321h-75v682h75v-296h94l280 296h94l-310 -324z" />
    <glyph glyph-name="uni041B" unicode="&#x41b;" horiz-adv-x="739" 
d="M629 0h-75v617h-289l-5 -161q-9 -266 -47.5 -366.5t-145.5 -100.5q-29 0 -49 7v62h44q43 0 67 31.5t38.5 119.5t19.5 256l7 217h435v-682z" />
    <glyph glyph-name="uni041C" unicode="&#x41c;" horiz-adv-x="942" 
d="M110 0v682h121l146 -344q68 -157 94 -233h1q26 76 94 233l146 344h120v-682h-75v240q0 181 3 379h-2q-58 -139 -92 -220l-167 -399h-60l-169 400q-78 184 -90 219h-2q2 -132 2 -379v-240h-70z" />
    <glyph glyph-name="uni041D" unicode="&#x41d;" horiz-adv-x="754" 
d="M110 0v682h75v-295h384v295h75v-682h-75v320h-384v-320h-75z" />
    <glyph glyph-name="uni041E" unicode="&#x41e;" horiz-adv-x="778" 
d="M632 341q0 131 -65 210t-178 79t-178.5 -79t-65.5 -210t65.5 -210t178.5 -79t178 79t65 210zM712 342q0 -160 -90 -258t-234 -98q-145 0 -233.5 96t-88.5 258q0 160 90 258t234 98t233 -96t89 -258z" />
    <glyph glyph-name="uni041F" unicode="&#x41f;" horiz-adv-x="752" 
d="M642 0h-75v617h-382v-617h-75v682h532v-682z" />
    <glyph glyph-name="uni0420" unicode="&#x420;" horiz-adv-x="637" 
d="M546 478q0 69 -42.5 104t-141.5 35q-123 0 -177 -1v-277q55 -1 175 -1q99 0 142.5 35.5t43.5 104.5zM110 0v682q35 0 122.5 0.5t130.5 0.5q262 0 262 -204q0 -103 -70 -154.5t-199 -51.5q-106 0 -171 1v-274h-75z" />
    <glyph glyph-name="uni0421" unicode="&#x421;" horiz-adv-x="690" 
d="M588 191l66 -21q-32 -89 -102 -136.5t-171 -47.5q-140 0 -227.5 96t-87.5 258q0 88 27.5 158t73 112t100.5 64t113 22q90 0 160 -45t104 -126l-66 -30q-26 64 -79 99.5t-121 35.5q-100 0 -166.5 -76t-66.5 -213q0 -131 64 -209.5t174 -78.5q154 0 205 138z" />
    <glyph glyph-name="uni0422" unicode="&#x422;" horiz-adv-x="533" 
d="M229 0v616h-237v66h548v-66h-236v-616h-75z" />
    <glyph glyph-name="uni0423" unicode="&#x423;" horiz-adv-x="610" 
d="M609 682l-242 -513q-48 -103 -97.5 -142t-124.5 -39q-13 0 -61 5v63h61q52 0 85 23t66 94l-282 509h86l235 -428l195 428h79z" />
    <glyph glyph-name="uni0424" unicode="&#x424;" horiz-adv-x="984" 
d="M530 -30h-76v110l-76 2q-159 2 -246.5 74.5t-87.5 208.5q0 130 93 207t241 79l76 1v88h76v-88l76 -1q159 -2 246.5 -75t87.5 -208q0 -131 -93 -207.5t-241 -78.5l-76 -2v-110zM454 143v447l-76 -1q-118 -2 -186 -58.5t-68 -164.5q0 -107 68 -163.5t186 -58.5zM530 590
v-447l76 1q118 2 186 58.5t68 163.5q0 108 -68 164.5t-186 58.5z" />
    <glyph glyph-name="uni0425" unicode="&#x425;" horiz-adv-x="591" 
d="M4 0l246 359l-218 323h92l173 -263l176 263h86l-217 -318l245 -364h-91l-201 304l-204 -304h-87z" />
    <glyph glyph-name="uni0426" unicode="&#x426;" horiz-adv-x="763" 
d="M748 -156h-65v156h-573v682h75v-617h367v617h75v-617h121v-221z" />
    <glyph glyph-name="uni0427" unicode="&#x427;" horiz-adv-x="680" 
d="M570 0h-75v267h-198q-112 0 -173 47t-61 159v209h75v-184q0 -90 39.5 -128t128.5 -38h189v350h75v-682z" />
    <glyph glyph-name="uni0428" unicode="&#x428;" horiz-adv-x="1107" 
d="M997 0h-887v682h75v-617h331v617h75v-617h331v617h75v-682z" />
    <glyph glyph-name="uni0429" unicode="&#x429;" horiz-adv-x="1134" 
d="M1119 -156h-66v156h-943v682h75v-617h331v617h75v-617h331v617h75v-617h122v-221z" />
    <glyph glyph-name="uni042A" unicode="&#x42a;" horiz-adv-x="745" 
d="M284 353v-288q56 -1 175 -1q100 0 143 36.5t43 108.5q0 74 -42.5 109.5t-141.5 35.5q-123 0 -177 -1zM209 0v618h-217v64h292v-264q57 1 178 1q262 0 262 -208q0 -106 -70 -159t-199 -53q-113 0 -246 1z" />
    <glyph glyph-name="uni042B" unicode="&#x42b;" horiz-adv-x="918" 
d="M185 353v-288q55 -1 165 -1q100 0 143 36.5t43 108.5q0 74 -42.5 109.5t-141.5 35.5q-113 0 -167 -1zM110 0v682h75v-264q57 1 168 1q262 0 262 -208q0 -106 -70 -159t-199 -53q-108 0 -236 1zM809 0h-75v682h75v-682z" />
    <glyph glyph-name="uni042C" unicode="&#x42c;" horiz-adv-x="646" 
d="M185 353v-288q55 -1 175 -1q100 0 143 36.5t43 108.5q0 74 -42.5 109.5t-141.5 35.5q-123 0 -177 -1zM110 0v682h75v-264q57 1 178 1q262 0 262 -208q0 -106 -70 -159t-199 -53q-113 0 -246 1z" />
    <glyph glyph-name="uni042D" unicode="&#x42d;" horiz-adv-x="686" 
d="M201 314v64h339q-8 124 -67.5 188.5t-159.5 64.5q-145 0 -203 -132l-64 30q40 81 109.5 124t160.5 43q135 0 219.5 -90.5t84.5 -263.5q0 -171 -88.5 -263.5t-219.5 -92.5q-96 0 -167.5 45t-108.5 129l67 33q29 -68 84 -104.5t128 -36.5q97 0 158 68t67 194h-339z" />
    <glyph glyph-name="uni042E" unicode="&#x42e;" horiz-adv-x="1047" 
d="M981 342q0 -160 -85 -258t-222 -98q-133 0 -217 91t-88 245h-184v-322h-75v682h75v-296h186q13 141 96 225.5t209 84.5q137 0 221 -96t84 -258zM902 341q0 131 -60.5 210t-166.5 79q-105 0 -165.5 -79t-60.5 -210t60.5 -210t165.5 -79q106 0 166.5 79t60.5 210z" />
    <glyph glyph-name="uni042F" unicode="&#x42f;" horiz-adv-x="691" 
d="M582 0h-75v279h-152l-224 -279h-93l231 285q-198 25 -198 194q0 94 65.5 149t196.5 55q45 0 138 -0.5t111 -0.5v-682zM507 346v271q-55 1 -176 1q-180 0 -180 -137t189 -137q114 0 167 2z" />
    <glyph glyph-name="uni0430" unicode="&#x430;" horiz-adv-x="516" 
d="M369 197v35q-140 0 -192.5 -24t-52.5 -77q0 -39 26 -62t77 -23q64 0 103 45.5t39 105.5zM105 346l-47 41q78 104 201 104q92 0 136 -44t44 -121v-90q0 -116 3 -236h-68l-2 71h-1q-58 -83 -159 -83q-73 0 -117.5 38.5t-44.5 102.5q0 77 72 117.5t247 40.5v36
q0 109 -113 109q-92 0 -151 -86z" />
    <glyph glyph-name="uni0431" unicode="&#x431;" horiz-adv-x="567" 
d="M492 725v-68q-102 -5 -179 -16q-95 -13 -133.5 -63t-60.5 -188h2q49 97 174 97q103 0 163 -68.5t60 -179.5q0 -112 -64.5 -181.5t-168.5 -69.5q-111 0 -170 77.5t-59 229.5q0 211 56.5 303.5t195.5 109.5q81 10 184 17zM130 244v-12q0 -84 43.5 -134t112.5 -50
q71 0 114 53.5t43 135.5t-43 136t-114 54q-65 0 -110.5 -46t-45.5 -137z" />
    <glyph glyph-name="uni0432" unicode="&#x432;" horiz-adv-x="547" 
d="M154 215v-156q48 -7 109 -7q76 0 114.5 19t38.5 62q0 82 -153 82h-109zM154 421v-150h107q69 0 104 17.5t35 60.5q0 78 -142 78q-60 0 -104 -6zM84 4v471q87 10 175 10q217 0 217 -133q0 -39 -24.5 -66.5t-64.5 -37.5v-2q47 -8 75.5 -37.5t28.5 -74.5q0 -141 -230 -141
q-91 0 -177 11z" />
    <glyph glyph-name="uni0433" unicode="&#x433;" horiz-adv-x="404" 
d="M84 0v478h311v-57h-241v-421h-70z" />
    <glyph glyph-name="uni0434" unicode="&#x434;" horiz-adv-x="608" 
d="M593 -143h-63v143h-462v-143h-63v201h67q75 105 80 273l5 147h338v-420h98v-201zM425 58v363h-202l-3 -94q-7 -176 -71 -269h276z" />
    <glyph glyph-name="uni0435" unicode="&#x435;" horiz-adv-x="529" 
d="M436 129l47 -39q-71 -102 -204 -102q-108 0 -169 68.5t-61 181.5q0 114 60 183.5t163 69.5q56 0 98.5 -21t65.5 -54.5t34.5 -69t11.5 -70.5q0 -31 -4 -51h-354q1 -81 45 -129.5t113 -48.5q99 0 154 82zM126 281h281q0 62 -37.5 106.5t-100.5 44.5q-60 0 -98 -39.5
t-45 -111.5z" />
    <glyph glyph-name="uni0436" unicode="&#x436;" horiz-adv-x="752" 
d="M745 0h-85l-180 220h-69v-220h-70v220h-68l-182 -220h-85l211 254l-194 224h87l165 -202h66v202h70v-202h67l166 202h85l-193 -222z" />
    <glyph glyph-name="uni0437" unicode="&#x437;" horiz-adv-x="500" 
d="M138 217v56h84q131 0 131 83q0 36 -31 56t-88 20q-95 0 -147 -70l-50 36q72 93 201 93q94 0 142.5 -35.5t48.5 -97.5q0 -82 -92 -109v-1q107 -21 107 -117q0 -64 -54.5 -103.5t-150.5 -39.5q-144 0 -211 92l53 41q51 -75 160 -75q127 0 127 84q0 87 -147 87h-83z" />
    <glyph glyph-name="uni0438" unicode="&#x438;" horiz-adv-x="585" 
d="M501 0h-70v399l-276 -399h-71v478h70v-381l264 381h83v-478z" />
    <glyph glyph-name="uni0439" unicode="&#x439;" horiz-adv-x="585" 
d="M501 0h-70v399l-276 -399h-71v478h70v-381l264 381h83v-478zM371 689h66q-15 -135 -146 -135q-67 0 -101.5 33.5t-42.5 101.5h66q9 -41 26.5 -64t52.5 -23q70 0 79 87z" />
    <glyph glyph-name="uni043A" unicode="&#x43a;" horiz-adv-x="509" 
d="M503 0h-89l-191 220h-69v-220h-70v478h70v-202h66l186 202h88l-213 -225z" />
    <glyph glyph-name="uni043B" unicode="&#x43b;" horiz-adv-x="575" 
d="M491 0h-70v421h-208l-3 -92q-6 -188 -42 -264t-124 -76q-5 0 -35 3v59h25q56 0 80 61t29 231l4 135h344v-478z" />
    <glyph glyph-name="uni043C" unicode="&#x43c;" horiz-adv-x="770" 
d="M640 0l-29 212q-13 91 -28 206h-2l-168 -418h-61l-164 418h-2q-4 -31 -13.5 -100t-14.5 -105l-30 -213h-67l66 478h107l106 -268q26 -64 46 -126h2q20 63 45 127l105 267h106l66 -478h-70z" />
    <glyph glyph-name="uni043D" unicode="&#x43d;" horiz-adv-x="571" 
d="M417 0v219h-263v-219h-70v478h70v-201h263v201h70v-478h-70z" />
    <glyph glyph-name="uni043E" unicode="&#x43e;" horiz-adv-x="559" 
d="M435 239q0 84 -42 138t-114 54q-73 0 -114 -54t-41 -138q0 -83 41.5 -137t113.5 -54q73 0 114.5 54t41.5 137zM510 240q0 -110 -61.5 -181t-170.5 -71q-110 0 -169.5 69.5t-59.5 180.5q0 110 61.5 181.5t170.5 71.5q110 0 169.5 -69.5t59.5 -181.5z" />
    <glyph glyph-name="uni043F" unicode="&#x43f;" horiz-adv-x="569" 
d="M485 0h-70v421h-261v-421h-70v478h401v-478z" />
    <glyph glyph-name="uni0440" unicode="&#x440;" horiz-adv-x="580" 
d="M152 250v-21q0 -80 41.5 -131t111.5 -51q72 0 111.5 52.5t39.5 140.5q0 84 -41 137.5t-114 53.5q-68 0 -108.5 -48.5t-40.5 -132.5zM154 -207h-70v448q0 117 -3 237h68l2 -71h1q48 84 161 84q103 0 160 -69.5t57 -179.5q0 -118 -60.5 -186t-159.5 -68q-105 0 -157 79h-1
q2 -34 2 -89v-185z" />
    <glyph glyph-name="uni0441" unicode="&#x441;" horiz-adv-x="515" 
d="M414 148l59 -26q-63 -134 -204 -134q-99 0 -159.5 66t-60.5 183q0 119 61 186.5t157 67.5q138 0 199 -127l-63 -33q-43 100 -137 100q-64 0 -103 -50.5t-39 -141.5q0 -84 39 -137.5t108 -53.5q98 0 143 100z" />
    <glyph glyph-name="uni0442" unicode="&#x442;" horiz-adv-x="431" 
d="M250 0h-70v421h-161v57h392v-57h-161v-421z" />
    <glyph glyph-name="uni0443" unicode="&#x443;" horiz-adv-x="488" 
d="M190 -207h-76l98 205l-199 480h81l81 -202q40 -99 71 -195h2q22 78 70 195l81 202h76z" />
    <glyph glyph-name="uni0444" unicode="&#x444;" horiz-adv-x="738" 
d="M404 -207h-70v199q-141 7 -213 70.5t-72 173.5q0 111 72 177t213 73v225h70v-225q141 -7 213 -70.5t72 -173.5q0 -111 -72.5 -177t-212.5 -73v-199zM334 50v379q-94 -4 -152 -49t-58 -141q0 -95 57.5 -140t152.5 -49zM404 429v-379q94 4 152 49t58 140q0 96 -58 141
t-152 49z" />
    <glyph glyph-name="uni0445" unicode="&#x445;" horiz-adv-x="465" 
d="M92 0h-82l180 252l-160 226h87l118 -175l118 175h81l-160 -225l181 -253h-88l-137 203z" />
    <glyph glyph-name="uni0446" unicode="&#x446;" horiz-adv-x="588" 
d="M573 -143h-63v143h-426v478h70v-420h251v420h70v-420h98v-201z" />
    <glyph glyph-name="uni0447" unicode="&#x447;" horiz-adv-x="520" 
d="M436 0h-70v212q-21 -33 -59.5 -52t-81.5 -19q-173 0 -173 191v146h70v-134q0 -143 112 -143q62 0 97 45.5t35 121.5v110h70v-478z" />
    <glyph glyph-name="uni0448" unicode="&#x448;" horiz-adv-x="831" 
d="M747 0h-663v478h70v-420h226v420h70v-420h227v420h70v-478z" />
    <glyph glyph-name="uni0449" unicode="&#x449;" horiz-adv-x="860" 
d="M845 -143h-62v143h-699v478h70v-420h226v420h70v-420h227v420h70v-420h98v-201z" />
    <glyph glyph-name="uni044A" unicode="&#x44a;" horiz-adv-x="577" 
d="M159 4v417h-140v57h210v-154q36 1 99 1q108 0 161.5 -43t53.5 -119q0 -77 -56 -123.5t-163 -46.5q-79 0 -165 11zM229 265v-205q44 -8 96 -8q144 0 144 110q0 54 -35 79t-107 25q-63 0 -98 -1z" />
    <glyph glyph-name="uni044B" unicode="&#x44b;" horiz-adv-x="702" 
d="M84 4v474h70v-154q35 1 98 1q209 0 209 -162q0 -77 -53 -123.5t-160 -46.5q-79 0 -164 11zM154 265v-205q43 -8 96 -8q72 0 104.5 27t32.5 83q0 55 -33 79.5t-104 24.5q-62 0 -96 -1zM618 0h-70v478h70v-478z" />
    <glyph glyph-name="uni044C" unicode="&#x44c;" horiz-adv-x="502" 
d="M84 4v474h70v-154q35 1 98 1q109 0 162.5 -43t53.5 -119q0 -77 -56 -123.5t-163 -46.5q-80 0 -165 11zM154 265v-205q43 -8 96 -8q143 0 143 110q0 54 -34.5 79t-107.5 25q-63 0 -97 -1z" />
    <glyph glyph-name="uni044D" unicode="&#x44d;" horiz-adv-x="516" 
d="M174 217v56h217q-9 71 -49.5 115t-105.5 44q-93 0 -135 -82l-56 32q26 50 76.5 79.5t115.5 29.5q111 0 170.5 -69.5t59.5 -181.5q0 -110 -61.5 -181t-170.5 -71q-135 0 -195 108l60 33q44 -82 136 -82q69 0 110 47t46 123h-218z" />
    <glyph glyph-name="uni044E" unicode="&#x44e;" horiz-adv-x="767" 
d="M718 240q0 -111 -58.5 -181.5t-163.5 -70.5q-103 0 -159 64t-61 168h-122v-220h-70v478h70v-201h124q10 96 67 155t153 59q107 0 163.5 -69.5t56.5 -181.5zM643 239q0 84 -39 138t-107 54q-70 0 -108 -54t-38 -138q0 -83 39 -137t107 -54q70 0 108 53.5t38 137.5z" />
    <glyph glyph-name="uni044F" unicode="&#x44f;" horiz-adv-x="542" 
d="M459 0h-70v190h-110l-155 -190h-87l165 196q-130 21 -130 140q0 68 54 108.5t161 40.5q79 0 172 -10v-475zM389 247v172q-56 8 -104 8q-72 0 -105.5 -21.5t-33.5 -68.5t33.5 -69t104.5 -22q73 0 105 1z" />
    <glyph glyph-name="uni0450" unicode="&#x450;" horiz-adv-x="529" 
d="M436 129l47 -39q-71 -102 -204 -102q-108 0 -169 68.5t-61 181.5q0 114 60 183.5t163 69.5q56 0 98.5 -21t65.5 -54.5t34.5 -69t11.5 -70.5q0 -31 -4 -51h-354q1 -81 45 -129.5t113 -48.5q99 0 154 82zM126 281h281q0 62 -37.5 106.5t-100.5 44.5q-60 0 -98 -39.5
t-45 -111.5zM222 692l85 -141h-67l-117 141h99z" />
    <glyph glyph-name="uni0451" unicode="&#x451;" horiz-adv-x="529" 
d="M436 129l47 -39q-71 -102 -204 -102q-108 0 -169 68.5t-61 181.5q0 114 60 183.5t163 69.5q56 0 98.5 -21t65.5 -54.5t34.5 -69t11.5 -70.5q0 -31 -4 -51h-354q1 -81 45 -129.5t113 -48.5q99 0 154 82zM126 281h281q0 62 -37.5 106.5t-100.5 44.5q-60 0 -98 -39.5
t-45 -111.5zM211 567h-71v113h71v-113zM395 567h-71v113h71v-113z" />
    <glyph glyph-name="uni0452" unicode="&#x452;" horiz-adv-x="560" 
d="M154 0h-70v562h-99v57h99v94h70v-94h142v-57h-142v-61q0 -65 -3 -94h1q48 84 156 84q84 0 129 -47.5t45 -143.5v-331q0 -102 -28 -143t-97 -41q-32 0 -50 5v55h45q36 0 48 28.5t12 95.5v303q0 71 -16 104q-27 55 -101 55q-59 0 -92 -35q-49 -49 -49 -168v-228z" />
    <glyph glyph-name="uni0453" unicode="&#x453;" horiz-adv-x="404" 
d="M84 0v478h311v-57h-241v-421h-70zM191 551l84 141h98l-116 -141h-66z" />
    <glyph glyph-name="uni0454" unicode="&#x454;" horiz-adv-x="513" 
d="M341 217h-217q5 -77 43.5 -123.5t104.5 -46.5q97 0 146 82l53 -33q-67 -108 -201 -108q-100 0 -160.5 65.5t-60.5 183.5q0 119 61 186.5t159 67.5q134 0 196 -112l-53 -36q-44 89 -146 89q-58 0 -96.5 -41.5t-45.5 -117.5h217v-56z" />
    <glyph glyph-name="uni0455" unicode="&#x455;" horiz-adv-x="487" 
d="M47 72l40 51q74 -76 167 -76q50 0 78.5 20.5t28.5 57.5q0 35 -30.5 54.5t-73.5 29t-86.5 21.5t-74 44.5t-30.5 86.5q0 60 47 95t120 35q103 0 182 -68l-41 -49q-61 58 -142 58q-45 0 -70 -18.5t-25 -49.5q0 -35 30.5 -54t74 -28.5t87 -22t74 -45t30.5 -87.5
q0 -64 -51.5 -101.5t-128.5 -37.5q-119 0 -206 84z" />
    <glyph glyph-name="uni0456" unicode="&#x456;" horiz-adv-x="238" 
d="M154 0h-70v478h70v-478zM83 563v121h72v-121h-72z" />
    <glyph glyph-name="uni0457" unicode="&#x457;" horiz-adv-x="238" 
d="M154 0h-70v478h70v-478zM73 567h-70v113h70v-113zM235 567h-70v113h70v-113z" />
    <glyph glyph-name="uni0458" unicode="&#x458;" horiz-adv-x="248" 
d="M94 478h70v-509q0 -102 -28 -143t-98 -41q-30 0 -50 5v55h46q36 0 48 28.5t12 95.5v509zM165 563h-72v121h72v-121z" />
    <glyph glyph-name="uni0459" unicode="&#x459;" horiz-adv-x="833" 
d="M415 4v417h-202l-3 -92q-6 -188 -42 -264t-124 -76q-5 0 -35 3v59h25q56 0 80 61t29 231l4 135h338v-154q36 1 99 1q108 0 161.5 -43t53.5 -119q0 -77 -56 -123.5t-163 -46.5q-79 0 -165 11zM485 265v-205q44 -8 96 -8q144 0 144 110q0 54 -35 79t-107 25q-63 0 -98 -1z
" />
    <glyph glyph-name="uni045A" unicode="&#x45a;" horiz-adv-x="825" 
d="M407 4v215h-253v-219h-70v478h70v-201h253v201h70v-154q35 1 98 1q109 0 162.5 -43t53.5 -119q0 -77 -56 -123.5t-163 -46.5q-80 0 -165 11zM477 265v-205q44 -8 96 -8q144 0 144 110q0 54 -35 79t-108 25q-62 0 -97 -1z" />
    <glyph glyph-name="uni045B" unicode="&#x45b;" horiz-adv-x="560" 
d="M84 0v562h-99v57h99v94h70v-94h142v-57h-142v-61q0 -65 -3 -94h1q48 84 156 84q84 0 129 -47.5t45 -143.5v-300h-70v272q0 71 -16 104q-27 55 -101 55q-59 0 -92 -35q-49 -49 -49 -168v-228h-70z" />
    <glyph glyph-name="uni045C" unicode="&#x45c;" horiz-adv-x="509" 
d="M503 0h-89l-191 220h-69v-220h-70v478h70v-202h66l186 202h88l-213 -225zM220 551l84 141h98l-116 -141h-66z" />
    <glyph glyph-name="uni045D" unicode="&#x45d;" horiz-adv-x="585" 
d="M501 0h-70v399l-276 -399h-71v478h70v-381l264 381h83v-478zM254 692l85 -141h-67l-117 141h99z" />
    <glyph glyph-name="uni045E" unicode="&#x45e;" horiz-adv-x="488" 
d="M190 -207h-76l98 205l-199 480h81l81 -202q40 -99 71 -195h2q22 78 70 195l81 202h76zM327 689h66q-15 -135 -146 -135q-67 0 -101.5 33.5t-42.5 101.5h66q9 -41 26.5 -64t52.5 -23q70 0 79 87z" />
    <glyph glyph-name="uni045F" unicode="&#x45f;" horiz-adv-x="559" 
d="M311 -143h-63v143h-164v478h70v-420h251v420h70v-478h-164v-143z" />
    <glyph glyph-name="uni0472" unicode="&#x472;" horiz-adv-x="778" 
d="M712 342q0 -160 -90 -258t-234 -98q-145 0 -233.5 96t-88.5 258q0 160 90 258t234 98t233 -96t89 -258zM389 52q109 0 173.5 72.5t69.5 196.5h-487q5 -124 70 -196.5t174 -72.5zM389 631q-104 0 -167.5 -66.5t-74.5 -180.5h484q-11 114 -74.5 180.5t-167.5 66.5z" />
    <glyph glyph-name="uni0473" unicode="&#x473;" horiz-adv-x="559" 
d="M510 240q0 -110 -61.5 -181t-170.5 -71q-110 0 -169.5 69.5t-59.5 180.5q0 110 61.5 181.5t170.5 71.5q110 0 169.5 -69.5t59.5 -181.5zM279 47q68 0 109 46.5t47 122.5h-311q5 -75 46 -122t109 -47zM279 432q-66 0 -106.5 -44t-48.5 -116h310q-8 71 -49 115.5t-106 44.5
z" />
    <glyph glyph-name="uni0490" unicode="&#x490;" horiz-adv-x="525" 
d="M110 0v682h344v155h66v-221h-335v-616h-75z" />
    <glyph glyph-name="uni0491" unicode="&#x491;" horiz-adv-x="404" 
d="M84 0v478h248v143h63v-200h-241v-421h-70z" />
    <glyph glyph-name="uni0492" unicode="&#x492;" horiz-adv-x="535" 
d="M195 0h-75v316h-111v58h111v308h410v-66h-335v-242h165v-58h-165v-316z" />
    <glyph glyph-name="uni0493" unicode="&#x493;" horiz-adv-x="404" 
d="M154 0h-70v210h-84v54h84v214h311v-57h-241v-157h125v-54h-125v-210z" />
    <glyph glyph-name="uni0494" unicode="&#x494;" horiz-adv-x="643" 
d="M185 0h-75v682h410v-65h-335v-213q104 2 151 2q126 0 192 -64t66 -191q0 -126 -63 -195.5t-161 -69.5q-44 0 -74 9v65q38 -8 71 -8q65 0 106.5 48t41.5 146q0 102 -47 148.5t-138 46.5q-49 0 -145 -2v-339z" />
    <glyph glyph-name="uni0495" unicode="&#x495;" horiz-adv-x="546" 
d="M154 0h-70v478h365v-57h-295v-119q0 -41 -3 -95h1q49 76 149 76q105 0 159 -64t54 -184q0 -109 -57 -180t-160 -71q-26 0 -46 4v63q17 -7 45 -7q67 0 105 53t38 137q0 92 -37 141t-105 49q-70 0 -106.5 -55t-36.5 -135v-34z" />
    <glyph glyph-name="uni0496" unicode="&#x496;" horiz-adv-x="980" 
d="M980 -156h-66v156h-67l-246 321h-91v-321h-75v321h-95l-247 -321h-91l279 357l-265 325h91l235 -296h93v296h75v-296h92l236 296h89l-263 -322l227 -295h89v-221z" />
    <glyph glyph-name="uni0497" unicode="&#x497;" horiz-adv-x="767" 
d="M767 -143h-62v143h-45l-180 220h-69v-220h-70v220h-68l-182 -220h-85l211 254l-194 224h87l165 -202h66v202h70v-202h67l166 202h85l-193 -222l161 -198h70v-201z" />
    <glyph glyph-name="uni0498" unicode="&#x498;" horiz-adv-x="639" 
d="M344 -156h-66v143q-78 6 -142.5 38.5t-101.5 88.5l60 41q70 -104 218 -104q87 0 137.5 33t50.5 99q0 132 -200 132h-112v62h109q90 0 136 32.5t46 94.5q0 60 -45.5 93.5t-131.5 33.5q-123 0 -202 -98l-51 42q96 121 256 121q121 0 187 -50.5t66 -134.5q0 -58 -33 -100.5
t-92 -59.5v-1q71 -12 108.5 -54.5t37.5 -107.5q0 -86 -62.5 -140t-172.5 -61v-143z" />
    <glyph glyph-name="uni0499" unicode="&#x499;" horiz-adv-x="500" 
d="M269 -143h-63v133q-120 10 -178 90l53 41q51 -75 160 -75q127 0 127 84q0 87 -147 87h-83v56h84q131 0 131 83q0 36 -31 56t-88 20q-95 0 -147 -70l-50 36q72 93 201 93q94 0 142.5 -35.5t48.5 -97.5q0 -82 -92 -109v-1q107 -21 107 -117q0 -59 -46.5 -97t-128.5 -45
v-132z" />
    <glyph glyph-name="uni049A" unicode="&#x49a;" horiz-adv-x="690" 
d="M690 -156h-65v156h-58l-288 321h-94v-321h-75v682h75v-296h94l280 296h94l-310 -324l264 -293h83v-221z" />
    <glyph glyph-name="uni049B" unicode="&#x49b;" horiz-adv-x="518" 
d="M518 -143h-62v143h-42l-191 219h-69v-219h-70v478h70v-202h66l186 202h88l-213 -225l171 -195h66v-201z" />
    <glyph glyph-name="uni049C" unicode="&#x49c;" horiz-adv-x="680" 
d="M244 553h65v-167h38l223 296h94l-253 -323l266 -359h-99l-231 321h-38v-168h-65v168h-59v-321h-75v682h75v-296h59v167z" />
    <glyph glyph-name="uni049D" unicode="&#x49d;" horiz-adv-x="529" 
d="M216 388h60v-112h40l119 202h79l-140 -223l150 -255h-81l-124 219h-43v-111h-60v111h-62v-219h-70v478h70v-202h62v112z" />
    <glyph glyph-name="uni04A0" unicode="&#x4a0;" horiz-adv-x="767" 
d="M765 0h-99l-288 321h-94v-321h-75v618h-217v64h292v-296h94l280 296h94l-310 -324z" />
    <glyph glyph-name="uni04A1" unicode="&#x4a1;" horiz-adv-x="585" 
d="M579 0h-89l-192 219h-69v-219h-70v421h-140v57h210v-202h67l186 202h88l-214 -225z" />
    <glyph glyph-name="uni04A2" unicode="&#x4a2;" horiz-adv-x="780" 
d="M765 -156h-65v156h-131v320h-384v-320h-75v682h75v-295h384v295h75v-617h121v-221z" />
    <glyph glyph-name="uni04A3" unicode="&#x4a3;" horiz-adv-x="600" 
d="M585 -143h-62v143h-106v219h-263v-219h-70v478h70v-201h263v201h70v-420h98v-201z" />
    <glyph glyph-name="uni04A4" unicode="&#x4a4;" horiz-adv-x="955" 
d="M635 0h-75v320h-375v-320h-75v682h75v-295h375v295h390v-65h-315v-617z" />
    <glyph glyph-name="uni04A5" unicode="&#x4a5;" horiz-adv-x="719" 
d="M478 0h-70v219h-254v-219h-70v478h70v-201h254v201h302v-57h-232v-421z" />
    <glyph glyph-name="uni04AA" unicode="&#x4aa;" horiz-adv-x="690" 
d="M411 -156h-65v144q-126 12 -203 106.5t-77 245.5q0 88 27.5 158t73 112t100.5 64t113 22q90 0 160 -45t104 -126l-66 -30q-26 64 -79 99.5t-121 35.5q-100 0 -166.5 -76t-66.5 -213q0 -131 64 -209.5t174 -78.5q154 0 205 138l66 -21q-62 -169 -243 -183v-143z" />
    <glyph glyph-name="uni04AB" unicode="&#x4ab;" horiz-adv-x="515" 
d="M298 -143h-65v134q-84 12 -134 76t-50 170q0 119 61 186.5t157 67.5q138 0 199 -127l-63 -33q-43 100 -137 100q-64 0 -103 -50.5t-39 -141.5q0 -84 39 -137.5t108 -53.5q98 0 143 100l59 -26q-57 -121 -175 -132v-133z" />
    <glyph glyph-name="uni04AE" unicode="&#x4ae;" horiz-adv-x="604" 
d="M340 0h-76v292l-264 390h91l213 -320l213 320h87l-264 -390v-292z" />
    <glyph glyph-name="uni04AF" unicode="&#x4af;" horiz-adv-x="487" 
d="M280 -207h-73v208l-194 477h81l81 -209q32 -78 71 -196h1q29 95 70 196l80 209h77l-194 -477v-208z" />
    <glyph glyph-name="uni04B0" unicode="&#x4b0;" horiz-adv-x="604" 
d="M340 0h-76v225h-159v61h159v6l-264 390h91l213 -320l213 320h87l-264 -390v-6h159v-61h-159v-225z" />
    <glyph glyph-name="uni04B1" unicode="&#x4b1;" horiz-adv-x="487" 
d="M280 -207h-73v207h-160v57h137l-171 421h81l81 -209q32 -78 71 -196h1q29 95 70 196l80 209h77l-171 -421h137v-57h-160v-207z" />
    <glyph glyph-name="uni04B2" unicode="&#x4b2;" horiz-adv-x="642" 
d="M642 -156h-66v156h-80l-201 304l-204 -304h-87l246 359l-218 323h92l173 -263l176 263h86l-217 -318l201 -299h99v-221z" />
    <glyph glyph-name="uni04B3" unicode="&#x4b3;" horiz-adv-x="505" 
d="M505 -143h-62v143h-76l-137 203l-138 -203h-82l180 252l-160 226h87l118 -175l118 175h81l-160 -225l139 -195h92v-201z" />
    <glyph glyph-name="uni04B6" unicode="&#x4b6;" horiz-adv-x="706" 
d="M691 -156h-65v156h-131v267h-198q-112 0 -173 47t-61 159v209h75v-184q0 -90 39.5 -128t128.5 -38h189v350h75v-617h121v-221z" />
    <glyph glyph-name="uni04B7" unicode="&#x4b7;" horiz-adv-x="549" 
d="M534 -143h-63v143h-105v212q-21 -33 -59.5 -52t-81.5 -19q-173 0 -173 191v146h70v-134q0 -143 112 -143q62 0 97 45.5t35 121.5v110h70v-420h98v-201z" />
    <glyph glyph-name="uni04B8" unicode="&#x4b8;" horiz-adv-x="683" 
d="M292 509h64v-177h142v350h75v-682h-75v267h-142v-157h-64v157q-110 1 -169.5 48t-59.5 158v209h75v-184q0 -87 36.5 -125t117.5 -41v177z" />
    <glyph glyph-name="uni04B9" unicode="&#x4b9;" horiz-adv-x="534" 
d="M213 330h60v-126q51 10 79 54t28 110v110h70v-478h-70v212q-35 -52 -107 -67v-96h-60v92q-161 11 -161 191v146h70v-134q0 -60 20 -96.5t71 -44.5v127z" />
    <glyph glyph-name="uni04BA" unicode="&#x4ba;" horiz-adv-x="680" 
d="M617 0h-75v184q0 90 -39.5 128t-128.5 38h-189v-350h-75v682h75v-267h197q112 0 173.5 -47t61.5 -159v-209z" />
    <glyph glyph-name="uni04BB" unicode="&#x4bb;" horiz-adv-x="560" 
d="M84 0v711h70v-210q0 -65 -3 -94h1q48 84 156 84q84 0 129 -47.5t45 -143.5v-300h-70v272q0 71 -16 104q-27 55 -101 55q-59 0 -92 -35q-49 -49 -49 -168v-228h-70z" />
    <glyph glyph-name="uni04C0" unicode="&#x4c0;" horiz-adv-x="295" 
d="M110 0v682h75v-682h-75z" />
    <glyph glyph-name="uni04C1" unicode="&#x4c1;" horiz-adv-x="943" 
d="M941 0h-94l-246 321h-91v-321h-75v321h-95l-247 -321h-91l279 357l-265 325h91l235 -296h93v296h75v-296h92l236 296h89l-263 -322zM559 884h69q-6 -64 -47 -101.5t-111 -37.5t-110 37t-46 102h69q4 -35 24 -62t64 -27q43 0 63 26.5t25 62.5z" />
    <glyph glyph-name="uni04C2" unicode="&#x4c2;" horiz-adv-x="752" 
d="M745 0h-85l-180 220h-69v-220h-70v220h-68l-182 -220h-85l211 254l-194 224h87l165 -202h66v202h70v-202h67l166 202h85l-193 -222zM455 689h66q-15 -135 -146 -135q-67 0 -101.5 33.5t-42.5 101.5h66q9 -41 26.5 -64t52.5 -23q70 0 79 87z" />
    <glyph glyph-name="uni04CF" unicode="&#x4cf;" horiz-adv-x="238" 
d="M84 0v711h70v-711h-70z" />
    <glyph glyph-name="uni04D0" unicode="&#x4d0;" horiz-adv-x="643" 
d="M282 682h79l264 -682h-85l-70 189h-301l-69 -189h-82zM254 423l-63 -174h256l-65 177q-52 139 -64 184h-1q-10 -43 -63 -187zM406 884h69q-6 -64 -47 -101.5t-111 -37.5t-110 37t-46 102h69q4 -35 24 -62t64 -27q43 0 63 26.5t25 62.5z" />
    <glyph glyph-name="uni04D1" unicode="&#x4d1;" horiz-adv-x="516" 
d="M369 197v35q-140 0 -192.5 -24t-52.5 -77q0 -39 26 -62t77 -23q64 0 103 45.5t39 105.5zM105 346l-47 41q78 104 201 104q92 0 136 -44t44 -121v-90q0 -116 3 -236h-68l-2 71h-1q-58 -83 -159 -83q-73 0 -117.5 38.5t-44.5 102.5q0 77 72 117.5t247 40.5v36
q0 109 -113 109q-92 0 -151 -86zM333 689h66q-15 -135 -146 -135q-67 0 -101.5 33.5t-42.5 101.5h66q9 -41 26.5 -64t52.5 -23q70 0 79 87z" />
    <glyph glyph-name="uni04D2" unicode="&#x4d2;" horiz-adv-x="643" 
d="M282 682h79l264 -682h-85l-70 189h-301l-69 -189h-82zM254 423l-63 -174h256l-65 177q-52 139 -64 184h-1q-10 -43 -63 -187zM246 761h-75v112h75v-112zM469 761h-75v112h75v-112z" />
    <glyph glyph-name="uni04D3" unicode="&#x4d3;" horiz-adv-x="516" 
d="M369 197v35q-140 0 -192.5 -24t-52.5 -77q0 -39 26 -62t77 -23q64 0 103 45.5t39 105.5zM105 346l-47 41q78 104 201 104q92 0 136 -44t44 -121v-90q0 -116 3 -236h-68l-2 71h-1q-58 -83 -159 -83q-73 0 -117.5 38.5t-44.5 102.5q0 77 72 117.5t247 40.5v36
q0 109 -113 109q-92 0 -151 -86zM201 567h-71v113h71v-113zM385 567h-71v113h71v-113z" />
    <glyph glyph-name="uni04D4" unicode="&#x4d4;" horiz-adv-x="969" 
d="M331 682h556v-64h-356v-238h309v-62h-309v-253h373v-65h-448v186h-296l-93 -186h-84zM375 618l-185 -370h266v370h-81z" />
    <glyph glyph-name="uni04D5" unicode="&#x4d5;" horiz-adv-x="844" 
d="M105 346l-47 41q78 104 201 104t159 -83q59 83 170 83q55 0 98 -21t66 -54.5t34.5 -69t11.5 -70.5q0 -31 -4 -51h-355q1 -81 45 -129.5t113 -48.5q99 0 154 82l48 -39q-73 -102 -205 -102q-135 0 -194 114q-57 -114 -187 -114q-74 0 -118.5 38.5t-44.5 102.5
q0 77 72 117.5t247 40.5v36q-2 109 -113 109q-92 0 -151 -86zM441 281h281q0 63 -37 107t-100 44q-61 0 -99 -39.5t-45 -111.5zM227 46q64 0 103 45.5t39 105.5v35q-140 0 -192.5 -24t-52.5 -77q0 -39 26 -62t77 -23z" />
    <glyph glyph-name="uni04D6" unicode="&#x4d6;" horiz-adv-x="645" 
d="M110 0v682h453v-64h-378v-238h331v-62h-331v-253h395v-65h-470zM412 884h69q-6 -64 -47 -101.5t-111 -37.5t-110 37t-46 102h69q4 -35 24 -62t64 -27q43 0 63 26.5t25 62.5z" />
    <glyph glyph-name="uni04D7" unicode="&#x4d7;" horiz-adv-x="529" 
d="M436 129l47 -39q-71 -102 -204 -102q-108 0 -169 68.5t-61 181.5q0 114 60 183.5t163 69.5q56 0 98.5 -21t65.5 -54.5t34.5 -69t11.5 -70.5q0 -31 -4 -51h-354q1 -81 45 -129.5t113 -48.5q99 0 154 82zM126 281h281q0 62 -37.5 106.5t-100.5 44.5q-60 0 -98 -39.5
t-45 -111.5zM343 689h66q-15 -135 -146 -135q-67 0 -101.5 33.5t-42.5 101.5h66q9 -41 26.5 -64t52.5 -23q70 0 79 87z" />
    <glyph glyph-name="uni04D8" unicode="&#x4d8;" horiz-adv-x="728" 
d="M133 512l-57 36q98 148 275 148q137 0 224 -96.5t87 -257.5q0 -156 -84.5 -256t-219.5 -100q-148 0 -224.5 95t-76.5 260q0 14 1 36h523q-9 117 -71.5 185t-160.5 68q-141 0 -216 -118zM360 52q97 0 156.5 70t65.5 192h-445q5 -120 59.5 -191t163.5 -71z" />
    <glyph glyph-name="uni04D9" unicode="&#x4d9;" horiz-adv-x="529" 
d="M93 349l-48 39q76 103 205 103q108 0 169 -69t61 -182t-60 -182.5t-164 -69.5q-55 0 -98 21t-66 54.5t-34.5 69t-11.5 70.5q0 31 5 50h354q-1 82 -45 130t-113 48q-96 0 -154 -82zM403 198h-281q0 -63 37 -107.5t100 -44.5q61 0 99 39.5t45 112.5z" />
    <glyph glyph-name="uni04DC" unicode="&#x4dc;" horiz-adv-x="943" 
d="M941 0h-94l-246 321h-91v-321h-75v321h-95l-247 -321h-91l279 357l-265 325h91l235 -296h93v296h75v-296h92l236 296h89l-263 -322zM397 761h-75v112h75v-112zM620 761h-75v112h75v-112z" />
    <glyph glyph-name="uni04DD" unicode="&#x4dd;" horiz-adv-x="752" 
d="M745 0h-85l-180 220h-69v-220h-70v220h-68l-182 -220h-85l211 254l-194 224h87l165 -202h66v202h70v-202h67l166 202h85l-193 -222zM319 567h-71v113h71v-113zM503 567h-71v113h71v-113z" />
    <glyph glyph-name="uni04DE" unicode="&#x4de;" horiz-adv-x="639" 
d="M34 113l59 43q35 -51 92.5 -78t126.5 -27q87 0 137.5 33t50.5 99q0 132 -200 132h-112v62h109q90 0 136 32.5t46 94.5q0 60 -44.5 93.5t-125.5 33.5q-130 0 -209 -98l-51 44q98 119 262 119q117 0 182 -50.5t65 -134.5q0 -59 -33.5 -101t-91.5 -58q70 -14 108 -57
t38 -107q0 -92 -72 -147t-196 -55q-87 0 -161.5 32.5t-115.5 94.5zM227 761h-75v112h75v-112zM450 761h-75v112h75v-112z" />
    <glyph glyph-name="uni04DF" unicode="&#x4df;" horiz-adv-x="500" 
d="M138 217v56h84q131 0 131 83q0 36 -31 56t-88 20q-95 0 -147 -70l-50 36q72 93 201 93q94 0 142.5 -35.5t48.5 -97.5q0 -82 -92 -109v-1q107 -21 107 -117q0 -64 -54.5 -103.5t-150.5 -39.5q-144 0 -211 92l53 41q51 -75 160 -75q127 0 127 84q0 87 -147 87h-83zM183 567
h-71v113h71v-113zM367 567h-71v113h71v-113z" />
    <glyph glyph-name="uni04E2" unicode="&#x4e2;" horiz-adv-x="754" 
d="M644 0h-75v571l-384 -571h-75v682h75v-571l384 571h75v-682zM523 843v-62h-297v62h297z" />
    <glyph glyph-name="uni04E3" unicode="&#x4e3;" horiz-adv-x="585" 
d="M501 0h-70v399l-276 -399h-71v478h70v-381l264 381h83v-478zM426 647v-59h-268v59h268z" />
    <glyph glyph-name="uni04E4" unicode="&#x4e4;" horiz-adv-x="754" 
d="M644 0h-75v571l-384 -571h-75v682h75v-571l384 571h75v-682zM303 761h-75v112h75v-112zM526 761h-75v112h75v-112z" />
    <glyph glyph-name="uni04E5" unicode="&#x4e5;" horiz-adv-x="585" 
d="M501 0h-70v399l-276 -399h-71v478h70v-381l264 381h83v-478zM236 567h-71v113h71v-113zM420 567h-71v113h71v-113z" />
    <glyph glyph-name="uni04E6" unicode="&#x4e6;" horiz-adv-x="778" 
d="M632 341q0 131 -65 210t-178 79t-178.5 -79t-65.5 -210t65.5 -210t178.5 -79t178 79t65 210zM712 342q0 -160 -90 -258t-234 -98q-145 0 -233.5 96t-88.5 258q0 160 90 258t234 98t233 -96t89 -258zM315 761h-75v112h75v-112zM538 761h-75v112h75v-112z" />
    <glyph glyph-name="uni04E7" unicode="&#x4e7;" horiz-adv-x="559" 
d="M435 239q0 84 -42 138t-114 54q-73 0 -114 -54t-41 -138q0 -83 41.5 -137t113.5 -54q73 0 114.5 54t41.5 137zM510 240q0 -110 -61.5 -181t-170.5 -71q-110 0 -169.5 69.5t-59.5 180.5q0 110 61.5 181.5t170.5 71.5q110 0 169.5 -69.5t59.5 -181.5zM223 567h-71v113h71
v-113zM407 567h-71v113h71v-113z" />
    <glyph glyph-name="uni04E8" unicode="&#x4e8;" horiz-adv-x="778" 
d="M712 342q0 -160 -90 -258t-234 -98q-145 0 -233.5 96t-88.5 258q0 160 90 258t234 98t233 -96t89 -258zM389 52q109 0 173.5 72.5t69.5 196.5h-487q5 -124 70 -196.5t174 -72.5zM389 631q-104 0 -167.5 -66.5t-74.5 -180.5h484q-11 114 -74.5 180.5t-167.5 66.5z" />
    <glyph glyph-name="uni04E9" unicode="&#x4e9;" horiz-adv-x="559" 
d="M510 240q0 -110 -61.5 -181t-170.5 -71q-110 0 -169.5 69.5t-59.5 180.5q0 110 61.5 181.5t170.5 71.5q110 0 169.5 -69.5t59.5 -181.5zM279 47q68 0 109 46.5t47 122.5h-311q5 -75 46 -122t109 -47zM279 432q-66 0 -106.5 -44t-48.5 -116h310q-8 71 -49 115.5t-106 44.5
z" />
    <glyph glyph-name="uni04EE" unicode="&#x4ee;" horiz-adv-x="610" 
d="M609 682l-242 -513q-48 -103 -97.5 -142t-124.5 -39q-13 0 -61 5v63h61q52 0 85 23t66 94l-282 509h86l235 -428l195 428h79zM470 843v-62h-297v62h297z" />
    <glyph glyph-name="uni04EF" unicode="&#x4ef;" horiz-adv-x="488" 
d="M190 -207h-76l98 205l-199 480h81l81 -202q40 -99 71 -195h2q22 78 70 195l81 202h76zM380 647v-59h-268v59h268z" />
    <glyph glyph-name="uni04F0" unicode="&#x4f0;" horiz-adv-x="610" 
d="M609 682l-242 -513q-48 -103 -97.5 -142t-124.5 -39q-13 0 -61 5v63h61q52 0 85 23t66 94l-282 509h86l235 -428l195 428h79zM261 761h-75v112h75v-112zM484 761h-75v112h75v-112z" />
    <glyph glyph-name="uni04F1" unicode="&#x4f1;" horiz-adv-x="488" 
d="M190 -207h-76l98 205l-199 480h81l81 -202q40 -99 71 -195h2q22 78 70 195l81 202h76zM190 567h-71v113h71v-113zM374 567h-71v113h71v-113z" />
    <glyph glyph-name="uni04F2" unicode="&#x4f2;" horiz-adv-x="610" 
d="M609 682l-242 -513q-48 -103 -97.5 -142t-124.5 -39q-13 0 -61 5v63h61q52 0 85 23t66 94l-282 509h86l235 -428l195 428h79zM174 749l75 132h101l-107 -132h-69zM376 749l93 132h107l-126 -132h-74z" />
    <glyph glyph-name="uni04F3" unicode="&#x4f3;" horiz-adv-x="488" 
d="M190 -207h-76l98 205l-199 480h81l81 -202q40 -99 71 -195h2q22 78 70 195l81 202h76zM116 551l67 141h92l-95 -141h-64zM289 551l85 141h99l-117 -141h-67z" />
    <glyph glyph-name="uni04F4" unicode="&#x4f4;" horiz-adv-x="680" 
d="M570 0h-75v267h-198q-112 0 -173 47t-61 159v209h75v-184q0 -90 39.5 -128t128.5 -38h189v350h75v-682zM245 761h-75v112h75v-112zM468 761h-75v112h75v-112z" />
    <glyph glyph-name="uni04F5" unicode="&#x4f5;" horiz-adv-x="520" 
d="M436 0h-70v212q-21 -33 -59.5 -52t-81.5 -19q-173 0 -173 191v146h70v-134q0 -143 112 -143q62 0 97 45.5t35 121.5v110h70v-478zM187 567h-71v113h71v-113zM371 567h-71v113h71v-113z" />
    <glyph glyph-name="uni04F8" unicode="&#x4f8;" horiz-adv-x="918" 
d="M185 353v-288q55 -1 165 -1q100 0 143 36.5t43 108.5q0 74 -42.5 109.5t-141.5 35.5q-113 0 -167 -1zM110 0v682h75v-264q57 1 168 1q262 0 262 -208q0 -106 -70 -159t-199 -53q-108 0 -236 1zM809 0h-75v682h75v-682zM385 761h-75v112h75v-112zM608 761h-75v112h75v-112
z" />
    <glyph glyph-name="uni04F9" unicode="&#x4f9;" horiz-adv-x="702" 
d="M84 4v474h70v-154q35 1 98 1q209 0 209 -162q0 -77 -53 -123.5t-160 -46.5q-79 0 -164 11zM154 265v-205q43 -8 96 -8q72 0 104.5 27t32.5 83q0 55 -33 79.5t-104 24.5q-62 0 -96 -1zM618 0h-70v478h70v-478zM294 567h-71v113h71v-113zM478 567h-71v113h71v-113z" />
    <glyph glyph-name="uni0E3F" unicode="&#xe3f;" 
d="M283 788h67v-107q116 -7 171 -60q44 -44 44 -109q0 -115 -116 -160q68 -15 102.5 -58t34.5 -106q0 -53 -18.5 -90t-53 -57t-74 -29.5t-90.5 -11.5v-110h-67v109q-33 0 -91.5 0.5t-91.5 0.5v682q30 0 83.5 0.5t99.5 0.5v105zM175 315v-251q53 -1 141 -1q40 0 70.5 4.5
t60 16.5t45.5 37.5t16 64.5q0 36 -13 61t-31.5 38t-48.5 20t-52 8.5t-55 1.5h-133zM175 618v-241h137q50 0 84.5 8t60.5 34q31 31 31 85q0 44 -30 74q-23 24 -63 32.5t-111 8.5q-67 0 -109 -1z" />
    <glyph glyph-name="uni1E02" unicode="&#x1e02;" horiz-adv-x="706" 
d="M185 315v-251q54 -1 172 -1q38 0 65.5 2t56.5 10t47.5 21t30 35.5t11.5 54.5q0 30 -8.5 52.5t-26 36.5t-35.5 22.5t-47 12t-49.5 4.5t-52.5 1h-164zM185 618v-241h167q64 0 101 7.5t64 34.5q31 31 31 85q0 44 -30 74q-24 24 -67 32.5t-127 8.5q-96 0 -139 -1zM110 0v682
q31 0 100.5 0.5t117.5 0.5q100 0 157.5 -12t95.5 -50q44 -44 44 -109q0 -115 -116 -160q68 -15 102.5 -58t34.5 -106q0 -58 -23 -97t-67 -58t-92 -26.5t-114 -7.5q-41 0 -122 0.5t-118 0.5zM391 761h-76v112h76v-112z" />
    <glyph glyph-name="uni1E03" unicode="&#x1e03;" horiz-adv-x="580" 
d="M84 238v473h70v-210q0 -65 -4 -94h1q49 84 162 84q103 0 160 -69.5t57 -179.5q0 -118 -60.5 -186t-159.5 -68q-105 0 -159 81h-1l-4 -69h-69q7 172 7 238zM152 250v-21q0 -80 41.5 -131t111.5 -51q72 0 111.5 52.5t39.5 140.5q0 84 -41 137.5t-114 53.5
q-68 0 -108.5 -48.5t-40.5 -132.5zM344 567h-72v113h72v-113z" />
    <glyph glyph-name="uni1E0A" unicode="&#x1e0a;" horiz-adv-x="726" 
d="M185 616v-547q59 -3 123 -3q74 0 119 11t81 48q73 73 73 215q0 141 -75 214q-38 39 -84 51t-119 12q-84 0 -118 -1zM110 1v680q64 1 196 1q92 0 153.5 -19t109.5 -67q91 -91 91 -253q0 -166 -92 -258q-49 -49 -111 -67t-151 -18q-41 0 -110.5 0.5t-85.5 0.5zM380 761h-76
v112h76v-112z" />
    <glyph glyph-name="uni1E0B" unicode="&#x1e0b;" horiz-adv-x="580" 
d="M428 229v20q0 81 -41.5 131.5t-111.5 50.5q-72 0 -111.5 -52t-39.5 -141q0 -84 41 -137.5t114 -53.5q67 0 108 48.5t41 133.5zM499 0h-68l-2 72h-1q-48 -84 -161 -84q-103 0 -160.5 69t-57.5 179q0 118 60.5 186.5t160.5 68.5q102 0 157 -79h1q-2 34 -2 89v210h70v-474
q0 -167 3 -237zM305 567h-72v113h72v-113z" />
    <glyph glyph-name="uni1E1E" unicode="&#x1e1e;" horiz-adv-x="598" 
d="M110 0v682h440v-65h-365v-240h319v-62h-319v-315h-75zM365 761h-76v112h76v-112z" />
    <glyph glyph-name="uni1E1F" unicode="&#x1e1f;" horiz-adv-x="312" 
d="M111 0v421h-103v57h103v98q0 140 128 140q48 0 84 -15v-61q-39 16 -81 16q-33 0 -47 -19.5t-14 -60.5v-98h128v-57h-128v-421h-70zM270 800h-72v113h72v-113z" />
    <glyph glyph-name="uni1E40" unicode="&#x1e40;" horiz-adv-x="942" 
d="M110 0v682h121l146 -344q68 -157 94 -233h1q26 76 94 233l146 344h120v-682h-75v240q0 181 3 379h-2q-58 -139 -92 -220l-167 -399h-60l-169 400q-78 184 -90 219h-2q2 -132 2 -379v-240h-70zM508 761h-76v112h76v-112z" />
    <glyph glyph-name="uni1E41" unicode="&#x1e41;" horiz-adv-x="881" 
d="M803 0h-70v272q0 71 -16 104q-28 55 -100 55q-56 0 -89 -35q-50 -49 -50 -168v-228h-70v272q0 71 -16 104q-27 55 -99 55q-57 0 -90 -35q-28 -28 -38.5 -67.5t-10.5 -100.5v-228h-70v241q0 117 -3 237h68l2 -71h1q48 84 154 84q120 0 157 -97q59 97 168 97q82 0 127 -48
t45 -143v-300zM480 567h-72v113h72v-113z" />
    <glyph glyph-name="uni1E56" unicode="&#x1e56;" horiz-adv-x="637" 
d="M546 478q0 69 -42.5 104t-141.5 35q-123 0 -177 -1v-277q55 -1 175 -1q99 0 142.5 35.5t43.5 104.5zM110 0v682q35 0 122.5 0.5t130.5 0.5q262 0 262 -204q0 -103 -70 -154.5t-199 -51.5q-106 0 -171 1v-274h-75zM389 761h-76v112h76v-112z" />
    <glyph glyph-name="uni1E57" unicode="&#x1e57;" horiz-adv-x="580" 
d="M152 250v-21q0 -80 41.5 -131t111.5 -51q72 0 111.5 52.5t39.5 140.5q0 84 -41 137.5t-114 53.5q-68 0 -108.5 -48.5t-40.5 -132.5zM154 -207h-70v448q0 117 -3 237h68l2 -71h1q48 84 161 84q103 0 160 -69.5t57 -179.5q0 -118 -60.5 -186t-159.5 -68q-105 0 -157 79h-1
q2 -34 2 -89v-185zM340 567h-72v113h72v-113z" />
    <glyph glyph-name="uni1E60" unicode="&#x1e60;" horiz-adv-x="655" 
d="M60 114l46 54q103 -118 238 -118q75 0 120.5 34t45.5 90q0 41 -23.5 68t-61 41t-82.5 25t-90 25t-82.5 33.5t-61 58t-23.5 93.5q0 81 63.5 129.5t163.5 48.5q137 0 244 -98l-46 -55q-86 89 -200 89q-71 0 -109.5 -30t-38.5 -80q0 -40 23.5 -66t61 -40t82.5 -24.5
t90 -24.5t82.5 -34t61 -59.5t23.5 -95.5q0 -86 -70.5 -139t-173.5 -53q-165 0 -283 128zM354 761h-76v112h76v-112z" />
    <glyph glyph-name="uni1E61" unicode="&#x1e61;" horiz-adv-x="487" 
d="M47 72l40 51q74 -76 167 -76q50 0 78.5 20.5t28.5 57.5q0 35 -30.5 54.5t-73.5 29t-86.5 21.5t-74 44.5t-30.5 86.5q0 60 47 95t120 35q103 0 182 -68l-41 -49q-61 58 -142 58q-45 0 -70 -18.5t-25 -49.5q0 -35 30.5 -54t74 -28.5t87 -22t74 -45t30.5 -87.5
q0 -64 -51.5 -101.5t-128.5 -37.5q-119 0 -206 84zM269 567h-72v113h72v-113z" />
    <glyph glyph-name="uni1E6A" unicode="&#x1e6a;" horiz-adv-x="533" 
d="M229 0v616h-237v66h548v-66h-236v-616h-75zM304 761h-76v112h76v-112z" />
    <glyph glyph-name="uni1E6B" unicode="&#x1e6b;" horiz-adv-x="346" 
d="M109 421h-100v57h100v167l70 19v-186h143v-57h-143v-233q0 -67 3.5 -90t15.5 -35q14 -14 45 -14q49 0 79 16v-60q-37 -17 -90 -17q-65 0 -94 34.5t-29 113.5v285zM181 723h-72v113h72v-113z" />
    <glyph glyph-name="Wgrave" unicode="&#x1e80;" horiz-adv-x="1032" 
d="M334 0h-85l-214 682h84l94 -320q7 -24 38.5 -127.5t44.5 -147.5h1q23 80 85 275l101 320h67l105 -320q73 -223 88 -275h1q9 30 38 130t41 144l94 321h80l-214 -682h-85l-148 448q-18 55 -34 122h-2q-10 -42 -36 -122zM464 881l93 -132h-73l-126 132h106z" />
    <glyph glyph-name="wgrave" unicode="&#x1e81;" horiz-adv-x="818" 
d="M611 0h-63l-87 226q-26 70 -56 156h-2q-12 -43 -52 -156l-82 -226h-63l-184 478h81l86 -238q7 -20 15.5 -45t19 -56.5t16.5 -48.5h1q20 69 50 150l86 238h60l86 -229q50 -133 59 -159h1q30 93 54 158l79 230h79zM361 692l85 -141h-67l-117 141h99z" />
    <glyph glyph-name="Wacute" unicode="&#x1e82;" horiz-adv-x="1032" 
d="M334 0h-85l-214 682h84l94 -320q7 -24 38.5 -127.5t44.5 -147.5h1q23 80 85 275l101 320h67l105 -320q73 -223 88 -275h1q9 30 38 130t41 144l94 321h80l-214 -682h-85l-148 448q-18 55 -34 122h-2q-10 -42 -36 -122zM475 749l93 132h106l-127 -132h-72z" />
    <glyph glyph-name="wacute" unicode="&#x1e83;" horiz-adv-x="818" 
d="M611 0h-63l-87 226q-26 70 -56 156h-2q-12 -43 -52 -156l-82 -226h-63l-184 478h81l86 -238q7 -20 15.5 -45t19 -56.5t16.5 -48.5h1q20 69 50 150l86 238h60l86 -229q50 -133 59 -159h1q30 93 54 158l79 230h79zM364 551l84 141h98l-116 -141h-66z" />
    <glyph glyph-name="Wdieresis" unicode="&#x1e84;" horiz-adv-x="1032" 
d="M334 0h-85l-214 682h84l94 -320q7 -24 38.5 -127.5t44.5 -147.5h1q23 80 85 275l101 320h67l105 -320q73 -223 88 -275h1q9 30 38 130t41 144l94 321h80l-214 -682h-85l-148 448q-18 55 -34 122h-2q-10 -42 -36 -122zM441 761h-75v112h75v-112zM664 761h-75v112h75v-112z
" />
    <glyph glyph-name="wdieresis" unicode="&#x1e85;" horiz-adv-x="818" 
d="M611 0h-63l-87 226q-26 70 -56 156h-2q-12 -43 -52 -156l-82 -226h-63l-184 478h81l86 -238q7 -20 15.5 -45t19 -56.5t16.5 -48.5h1q20 69 50 150l86 238h60l86 -229q50 -133 59 -159h1q30 93 54 158l79 230h79zM350 567h-71v113h71v-113zM534 567h-71v113h71v-113z" />
    <glyph glyph-name="uni1E9E" unicode="&#x1e9e;" horiz-adv-x="739" 
d="M103 0v442q0 253 289 253q123 0 239 -31v-55l-203 -222q119 -2 189.5 -51t70.5 -149q0 -90 -65 -145.5t-174 -55.5q-72 0 -140 22l17 66q62 -24 126 -24q77 0 117.5 37.5t40.5 97.5q0 66 -49.5 102.5t-149.5 36.5h-68v63l207 226q-77 17 -161 17q-111 0 -161 -44
t-50 -142v-444h-75z" />
    <glyph glyph-name="Ygrave" unicode="&#x1ef2;" horiz-adv-x="604" 
d="M340 0h-76v292l-264 390h91l213 -320l213 320h87l-264 -390v-292zM256 881l93 -132h-73l-126 132h106z" />
    <glyph glyph-name="ygrave" unicode="&#x1ef3;" horiz-adv-x="487" 
d="M192 -207h-77l98 207h-3l-197 478h81l81 -202q28 -71 71 -197h1q29 91 70 197l80 202h77zM203 692l85 -141h-67l-117 141h99z" />
    <glyph glyph-name="endash" unicode="&#x2013;" 
d="M587 305v-63h-524v63h524z" />
    <glyph glyph-name="emdash" unicode="&#x2014;" horiz-adv-x="968" 
d="M921 305v-63h-874v63h874z" />
    <glyph glyph-name="emdash" unicode="&#x2015;" horiz-adv-x="968" 
d="M921 305v-63h-874v63h874z" />
    <glyph glyph-name="quotesinglbase" unicode="&#x201a;" horiz-adv-x="256" 
d="M79 136h98v-112q0 -95 -19 -136.5t-78 -76.5l-27 42q41 29 53.5 56.5t12.5 90.5h-40v136z" />
    <glyph glyph-name="quotedblleft" unicode="&#x201c;" horiz-adv-x="438" 
d="M359 475h-94v113q0 93 18 135t74 78l27 -43q-38 -28 -50 -56t-12 -91h37v-136zM172 475h-93v113q0 94 17.5 136t73.5 77l27 -43q-38 -28 -50 -56t-12 -91h37v-136z" />
    <glyph glyph-name="quotedblright" unicode="&#x201d;" horiz-adv-x="438" 
d="M79 780h93v-112q0 -94 -17.5 -135t-73.5 -78l-28 42q38 27 50.5 56t12.5 91h-37v136zM265 780h94v-112q0 -94 -17.5 -135t-73.5 -78l-28 42q38 27 50 55.5t12 91.5h-37v136z" />
    <glyph glyph-name="quotedblbase" unicode="&#x201e;" horiz-adv-x="438" 
d="M79 136h93v-112q0 -94 -17.5 -135t-73.5 -78l-28 42q38 27 50.5 56t12.5 91h-37v136zM265 136h94v-112q0 -94 -17.5 -135t-73.5 -78l-28 42q38 27 50 55.5t12 91.5h-37v136z" />
    <glyph glyph-name="dagger" unicode="&#x2020;" horiz-adv-x="489" 
d="M280 96h-70v425h-165v60h165v176h70v-176h164v-60h-164v-425z" />
    <glyph glyph-name="daggerdbl" unicode="&#x2021;" horiz-adv-x="489" 
d="M444 327v-60h-164v-185h-70v185h-165v60h165v194h-165v60h165v176h70v-176h164v-60h-164v-194h164z" />
    <glyph glyph-name="bullet" unicode="&#x2022;" horiz-adv-x="418" 
d="M338 323q0 -54 -38 -92.5t-92 -38.5t-91.5 37.5t-37.5 91.5t38.5 92.5t92.5 38.5t91 -37.5t37 -91.5z" />
    <glyph glyph-name="ellipsis" unicode="&#x2026;" horiz-adv-x="833" 
d="M177 0h-98v142h98v-142zM466 0h-99v142h99v-142zM754 0h-99v142h99v-142z" />
    <glyph glyph-name="perthousand" unicode="&#x2030;" horiz-adv-x="1582" 
d="M374 558q0 83 -29 127.5t-85 44.5q-113 0 -113 -172t113 -172q56 0 85 44t29 128zM442 559q0 -106 -48 -167.5t-135 -61.5q-88 0 -134.5 60t-46.5 167q0 106 48.5 167.5t135.5 61.5q88 0 134 -60t46 -167zM784 778h76l-545 -874h-75zM954 124q0 83 -29 127.5t-85 44.5
q-113 0 -113 -172t113 -172q56 0 85 44t29 128zM1022 125q0 -106 -48 -167.5t-135 -61.5q-88 0 -134.5 60t-46.5 167q0 106 48.5 167.5t135.5 61.5q88 0 134 -60t46 -167zM1435 124q0 83 -29 127.5t-85 44.5q-113 0 -113 -172t113 -172q56 0 85 44t29 128zM1503 125
q0 -106 -48 -167.5t-135 -61.5q-88 0 -134.5 60t-46.5 167q0 106 48.5 167.5t135.5 61.5q88 0 134 -60t46 -167z" />
    <glyph glyph-name="guilsinglleft" unicode="&#x2039;" horiz-adv-x="400" 
d="M311 74l-54 -31l-180 229l180 230l55 -30l-140 -198z" />
    <glyph glyph-name="guilsinglright" unicode="&#x203a;" horiz-adv-x="400" 
d="M88 471l55 32l179 -230l-179 -230l-55 30l139 198z" />
    <glyph glyph-name="fraction" unicode="&#x2044;" horiz-adv-x="391" 
d="M430 778h76l-545 -874h-75z" />
    <glyph glyph-name="zero.superior" unicode="&#x2070;" horiz-adv-x="521" 
d="M374 558q0 83 -29 127.5t-85 44.5q-113 0 -113 -172t113 -172q56 0 85 44t29 128zM442 559q0 -106 -48 -167.5t-135 -61.5q-88 0 -134.5 60t-46.5 167q0 106 48.5 167.5t135.5 61.5q88 0 134 -60t46 -167z" />
    <glyph glyph-name="four.superior" unicode="&#x2074;" horiz-adv-x="484" 
d="M351 338h-67v96h-231v60l198 284h100v-287h80v-57h-80v-96zM120 488q87 3 164 3v118q0 86 2 115h-2z" />
    <glyph glyph-name="uni2081" unicode="&#x2081;" horiz-adv-x="354" 
d="M257 -96h-68v340q-41 -34 -131 -34v58q126 0 140 78h59v-442z" />
    <glyph glyph-name="uni2082" unicode="&#x2082;" horiz-adv-x="502" 
d="M427 -38v-58h-343v63q156 98 206.5 145.5t50.5 100.5q0 40 -24 62.5t-69 22.5q-92 0 -92 -78q0 -28 9 -51h-68q-10 17 -10 50q0 64 45 98.5t120 34.5q78 0 119.5 -38.5t41.5 -98.5q0 -66 -53 -120.5t-185 -132.5v-1q45 1 123 1h129z" />
    <glyph glyph-name="uni2083" unicode="&#x2083;" horiz-adv-x="499" 
d="M70 23l66 15q16 -88 120 -88q47 0 73.5 21t26.5 58q0 73 -102 73h-66v52h48q64 0 87 23q18 18 18 53q0 31 -24 50t-67 19q-85 0 -101 -79l-65 14q25 118 169 118q73 0 116 -32t43 -86q0 -75 -71 -100v-1q87 -21 87 -107q0 -54 -47 -92t-126 -38q-160 0 -185 127z" />
    <glyph glyph-name="uni2084" unicode="&#x2084;" horiz-adv-x="484" 
d="M351 -96h-67v96h-231v60l198 284h100v-287h80v-57h-80v-96zM120 54q87 3 164 3v118q0 86 2 115h-2z" />
    <glyph glyph-name="Euro" unicode="&#x20ac;" horiz-adv-x="720" 
d="M440 293v-57h-230q20 -88 73.5 -137t136.5 -49q111 0 182 97l50 -40q-90 -121 -234 -121q-112 0 -187.5 66t-98.5 184h-98v57h90q-2 30 -2 47q0 34 2 50h-90v57h98q26 122 105.5 185.5t183.5 63.5q140 0 226 -111l-56 -45q-66 93 -171 93q-79 0 -134 -48.5t-75 -137.5
h229v-57h-238q-2 -16 -2 -49q0 -18 2 -48h238z" />
    <glyph glyph-name="uni20AE" unicode="&#x20ae;" 
d="M108 372l179 43v201h-248v66h572v-66h-249v-183l179 44v-60l-179 -44v-102l179 44v-60l-179 -44v-211h-75v193l-179 -44v60l179 44v102l-179 -43v60z" />
    <glyph glyph-name="uni20B4" unicode="&#x20b4;" 
d="M61 455h368q26 34 26 77q0 46 -34 73.5t-92 27.5q-94 0 -159 -78l-43 52q36 42 91 65.5t116 23.5q90 0 144 -45.5t54 -116.5q0 -43 -18 -79h75v-57h-120q-21 -19 -48 -36t-64.5 -37t-52.5 -29h285v-57h-357q-31 -38 -31 -85q0 -49 36.5 -77t96.5 -28q106 0 178 92l44 -50
q-86 -105 -228 -105q-92 0 -148.5 47t-56.5 120q0 48 22 86h-84v57h133q29 24 93 59.5t76 42.5h-302v57z" />
    <glyph glyph-name="uni20B8" unicode="&#x20b8;" 
d="M602 520v-64h-240v-456h-75v456h-239v64h554zM48 682h554v-65h-554v65z" />
    <glyph glyph-name="uni20BA" unicode="&#x20ba;" 
d="M57 410l111 28v244h75v-224l224 58v-58l-224 -58v-97l224 58v-58l-224 -58v-184q19 -1 29 -1q100 0 166.5 16.5t129.5 55.5v-74q-112 -62 -301 -62q-37 0 -99 4v225l-111 -28v58l111 28v97l-111 -28v58z" />
    <glyph glyph-name="uni20BD" unicode="&#x20bd;" 
d="M455 123h-230v-123h-75v123h-94v59h94v98h-94v61h94v341q37 0 107.5 0.5t102.5 0.5q114 0 179 -51.5t65 -149.5q0 -96 -67.5 -149t-183.5 -53h-128v-98h230v-59zM525 480q0 140 -167 140q-88 0 -133 -1v-278h131q169 0 169 139z" />
    <glyph glyph-name="afii61289" unicode="&#x2113;" horiz-adv-x="452" 
d="M255 -12q-66 0 -102 42.5t-51 126.5l-50 -26l-29 54l71 38q-4 52 -4 129q0 141 19.5 223t52 111.5t84.5 29.5q124 0 124 -194q0 -217 -202 -329q8 -72 29.5 -107.5t64.5 -35.5t84 38l30 -48q-55 -52 -121 -52zM162 352q0 -65 1 -93q134 78 134 260q0 71 -13.5 104
t-44.5 33q-24 0 -39.5 -21.5t-26.5 -91.5t-11 -191z" />
    <glyph glyph-name="uni2116" unicode="&#x2116;" horiz-adv-x="1150" 
d="M925 353q-77 0 -121.5 47.5t-44.5 123.5q0 71 45 121.5t123 50.5q77 0 121 -46.5t44 -122.5q0 -72 -44.5 -123t-122.5 -51zM926 408q46 0 72 32t26 86q0 52 -25.5 84t-72.5 32q-46 0 -72 -31.5t-26 -85.5q0 -53 25.5 -85t72.5 -32zM1077 237h-302v56h302v-56zM652 0h-93
l-252 393q-87 135 -129 204h-2q4 -117 4 -361v-236h-70v682h99l247 -381q60 -91 128 -205h1q-3 132 -3 361v225h70v-682z" />
    <glyph glyph-name="trademark" unicode="&#x2122;" horiz-adv-x="895" 
d="M153 314v317h-125v51h306v-51h-122v-317h-59zM399 314v368h89l91 -217q13 -30 26 -76h1q7 26 26 76l93 217h89v-368h-58v129q0 147 2 191h-1q-7 -27 -27 -75l-105 -245h-43l-104 245q-19 46 -27 75h-2q3 -66 3 -191v-129h-53z" />
    <glyph glyph-name="estimated" unicode="&#x212e;" horiz-adv-x="930" 
d="M223 373h483v164q0 31 -21 47q-84 64 -220 64q-140 0 -221 -65q-21 -18 -21 -52v-158zM466 -14q-180 0 -290 96t-110 258q0 160 111.5 258t289.5 98t287.5 -96t109.5 -255q0 -12 -1 -17h-640v-174q0 -23 6.5 -35t22.5 -24q80 -60 217 -60q87 0 163 27.5t127 78.5h76
q-57 -73 -154 -114t-215 -41z" />
    <glyph glyph-name="partialdiff" unicode="&#x2202;" horiz-adv-x="562" 
d="M273 48q71 0 113 54t42 138t-41 137t-111 53q-72 0 -111.5 -52t-39.5 -140q0 -83 39.5 -136.5t108.5 -53.5zM270 -12q-103 0 -161.5 69t-58.5 179q0 118 61 186t161 68q62 0 109 -31t66 -77h1q-2 8 -6.5 42t-9.5 57.5t-20.5 56.5t-39.5 57q-43 43 -115 43q-75 0 -134 -23
v64q60 19 137 19q130 0 191 -91t61 -271q0 -181 -64.5 -264.5t-177.5 -83.5z" />
    <glyph glyph-name="product" unicode="&#x220f;" horiz-adv-x="803" 
d="M662 -207h-75v918h-370v-918h-75v918h-131v67h781v-67h-130v-918z" />
    <glyph glyph-name="summation" unicode="&#x2211;" horiz-adv-x="654" 
d="M40 -207v66l307 438l-291 416v65h544v-67q-196 0 -450 2l288 -410l-312 -444q260 2 489 2v-68h-575z" />
    <glyph glyph-name="minus" unicode="&#x2212;" 
d="M587 352v-60h-524v60h524z" />
    <glyph glyph-name="radical" unicode="&#x221a;" horiz-adv-x="702" 
d="M337 -96h-73l-147 380h-104v60h161l64 -170q53 -142 65 -186h2q10 42 93 265l195 525h81z" />
    <glyph glyph-name="infinity" unicode="&#x221e;" horiz-adv-x="973" 
d="M249 120q-89 0 -146.5 55t-57.5 144q0 93 59 149t152 56q70 0 124 -40t109 -111q58 72 111.5 111.5t123.5 39.5q89 0 146.5 -55t57.5 -144q0 -93 -59 -149t-152 -56q-71 0 -124 39.5t-109 110.5q-37 -46 -67 -75t-75 -52t-93 -23zM720 464q-53 0 -97 -36t-96 -104
q36 -47 59 -73t59.5 -48.5t74.5 -22.5q62 0 98 39.5t36 102.5t-35.5 102.5t-98.5 39.5zM253 180q53 0 96.5 35.5t96.5 104.5q-36 47 -59 73t-59.5 48.5t-74.5 22.5q-62 0 -98 -39.5t-36 -102.5t35.5 -102.5t98.5 -39.5z" />
    <glyph glyph-name="integral" unicode="&#x222b;" horiz-adv-x="338" 
d="M82 -217q-52 0 -88 19l9 61q36 -19 72 -19q57 0 57 74v733q0 135 123 135q49 0 89 -18l-9 -62q-41 19 -72 19q-57 0 -57 -74v-733q0 -135 -124 -135z" />
    <glyph glyph-name="approxequal" unicode="&#x2248;" 
d="M433 348q-37 0 -68 11.5t-50 25t-46 25t-55 11.5q-52 0 -117 -57l-37 44q76 76 157 76q37 0 68 -11.5t49.5 -25t45.5 -25t56 -11.5q53 0 117 58l37 -45q-78 -76 -157 -76zM433 160q-37 0 -68 11.5t-50 25t-46 25t-55 11.5q-53 0 -117 -58l-37 45q76 76 157 76
q37 0 68 -11.5t49.5 -25t45.5 -25t56 -11.5q52 0 117 57l37 -44q-78 -76 -157 -76z" />
    <glyph glyph-name="notequal" unicode="&#x2260;" 
d="M214 27h-72l86 172h-155v60h185l62 126h-247v60h277l81 165h72l-83 -165h157v-60h-187l-63 -126h250v-60h-280z" />
    <glyph glyph-name="lessequal" unicode="&#x2264;" 
d="M577 60v-60h-504v60h504zM577 272v-75l-504 199v74l504 199v-73q-334 -133 -424 -161v-2q77 -24 424 -161z" />
    <glyph glyph-name="greaterequal" unicode="&#x2265;" 
d="M577 60v-60h-504v60h504zM73 594v75l504 -199v-74l-504 -199v73q334 133 424 161v2q-77 24 -424 161z" />
    <glyph glyph-name="lozenge" unicode="&#x25ca;" horiz-adv-x="648" 
d="M363 0h-77l-218 341l217 341h77l218 -341zM324 63h2q20 41 172 277q-157 244 -174 279h-2q-16 -31 -172 -277q157 -244 174 -279z" />
    <glyph glyph-name="uniF8FF" unicode="&#xf8ff;" horiz-adv-x="821" 
d="M144 608v-532h532v532h-532zM68 0v684h684v-684h-684zM220 152v380h76v-304h152v-76h-228zM524 152v152h-152v76h152v76h-152v76h228v-380h-76z" />
    <glyph glyph-name="fi" unicode="&#xfb01;" horiz-adv-x="567" 
d="M111 0v421h-103v57h103v98q0 140 128 140q48 0 84 -15v-61q-39 16 -81 16q-33 0 -47 -19.5t-14 -60.5v-98h128v-57h-128v-421h-70zM483 0h-70v478h70v-478zM412 563v121h72v-121h-72z" />
    <glyph glyph-name="fl" unicode="&#xfb02;" horiz-adv-x="567" 
d="M413 0v711h70v-711h-70zM111 0v421h-103v57h103v98q0 140 128 140q48 0 84 -15v-61q-39 16 -81 16q-33 0 -47 -19.5t-14 -60.5v-98h128v-57h-128v-421h-70z" />
    <glyph glyph-name="uni0431.SRB" horiz-adv-x="559" 
d="M469 711v-64h-203q-86 0 -86 -47q0 -22 31 -43.5t71.5 -37t89 -41.5t74.5 -53q64 -67 64 -185q0 -110 -61.5 -181t-170.5 -71q-110 0 -169.5 69.5t-59.5 179.5q0 93 41.5 156.5t118.5 85.5q-103 41 -103 120q0 112 162 112h201zM279 430q-73 0 -114 -54t-41 -137
t41.5 -137t113.5 -54q73 0 114.5 54t41.5 137t-41.5 137t-114.5 54z" />
    <glyph glyph-name="uni0432.bul" horiz-adv-x="544" 
d="M457 556q0 -59 -28.5 -101.5t-78.5 -64.5q144 -33 144 -188q0 -92 -56 -153t-157 -61q-204 0 -204 213v304q0 112 50 166t141 54q88 0 138.5 -44.5t50.5 -124.5zM147 353v-149q0 -71 34.5 -114t102.5 -43q67 0 101.5 43t34.5 111q0 70 -40 111t-126 41h-107zM147 508v-98
h99q63 2 99.5 42.5t36.5 100.5q0 52 -30 82.5t-87 30.5q-118 0 -118 -158z" />
    <glyph glyph-name="uni0433.bul" horiz-adv-x="460" 
d="M387 122l41 -49q-79 -85 -203 -85q-81 0 -129.5 34t-48.5 100q0 47 29 78.5t70.5 47t83 28.5t70.5 34t29 53t-24.5 50.5t-72.5 18.5q-80 0 -137 -60l-41 47q75 72 182 72q78 0 123 -34t45 -92q0 -47 -29 -78t-70.5 -46.5t-83.5 -28.5t-71 -34t-29 -54q0 -78 108 -78
q94 0 158 76z" />
    <glyph glyph-name="uni0434.bul" horiz-adv-x="581" 
d="M435 478h70q-7 -68 -7 -237v-257q0 -93 -51 -147t-159 -54q-142 0 -221 117l54 41q61 -98 169 -98q69 0 103.5 36t34.5 100q0 36 2 92h-2q-49 -82 -160 -82q-104 0 -161 68.5t-57 179.5q0 118 60.5 186t160.5 68q104 0 159 -82h1zM429 230v19q0 81 -41.5 131.5
t-111.5 50.5q-73 0 -112 -52t-39 -140q0 -84 40.5 -137.5t114.5 -53.5q67 0 108 49t41 133z" />
    <glyph glyph-name="uni0436.bul" horiz-adv-x="752" 
d="M745 0h-85l-180 227h-69v-227h-70v227h-68l-182 -227h-85l211 261l-194 217h87l166 -194h65v427h70v-427h67l166 194h85l-193 -214z" />
    <glyph glyph-name="uni0438.bul" horiz-adv-x="554" 
d="M473 0h-68l-2 72h-1q-48 -84 -153 -84q-82 0 -127 47.5t-45 142.5v300h70v-272q0 -71 17 -104q27 -55 96 -55q56 0 91 35q49 48 49 168v228h70v-242q0 -122 3 -236z" />
    <glyph glyph-name="uni0419.bul" horiz-adv-x="754" 
d="M644 0h-75v571l-384 -571h-75v682h75v-571l384 571h75v-682zM513 840l24 -51q-59 -39 -162 -39q-99 0 -158 40l25 50q55 -29 135 -29q81 0 136 29z" />
    <glyph glyph-name="uni0439.bul" horiz-adv-x="554" 
d="M473 0h-68l-2 72h-1q-48 -84 -153 -84q-82 0 -127 47.5t-45 142.5v300h70v-272q0 -71 17 -104q27 -55 96 -55q56 0 91 35q49 48 49 168v228h70v-242q0 -122 3 -236zM404 665l23 -49q-61 -38 -150 -38t-150 38l23 49q59 -28 129 -28q72 0 125 28z" />
    <glyph glyph-name="uni045D.bul" horiz-adv-x="554" 
d="M473 0h-68l-2 72h-1q-48 -84 -153 -84q-82 0 -127 47.5t-45 142.5v300h70v-272q0 -71 17 -104q27 -55 96 -55q56 0 91 35q49 48 49 168v228h70v-242q0 -122 3 -236zM231 692l85 -141h-67l-117 141h99z" />
    <glyph glyph-name="uni043A.bul" horiz-adv-x="509" 
d="M503 0h-89l-194 227h-66v-227h-70v711h70v-427h66l186 194h88l-213 -217z" />
    <glyph glyph-name="uni041B.alt" horiz-adv-x="634" 
d="M617 0h-85l-140 377q-65 180 -77 219h-1q-16 -50 -78 -219l-138 -377h-81l262 682h76z" />
    <glyph glyph-name="uni043B.alt" horiz-adv-x="487" 
d="M474 0h-81l-81 202q-43 105 -71 198h-1q-28 -93 -71 -198l-80 -202h-76l197 478h67z" />
    <glyph glyph-name="uni043F.bul" horiz-adv-x="560" 
d="M482 0h-70v272q0 71 -16 104q-27 55 -101 55q-59 0 -92 -35q-49 -49 -49 -168v-228h-70v241q0 117 -3 237h68l2 -71h1q48 84 156 84q84 0 129 -47.5t45 -143.5v-300z" />
    <glyph glyph-name="uni0442.bul" horiz-adv-x="881" 
d="M803 0h-70v272q0 71 -16 104q-28 55 -100 55q-56 0 -89 -35q-50 -49 -50 -168v-228h-70v272q0 71 -16 104q-27 55 -99 55q-57 0 -90 -35q-28 -28 -38.5 -67.5t-10.5 -100.5v-228h-70v241q0 117 -3 237h68l2 -71h1q48 84 154 84q120 0 157 -97q59 97 168 97q82 0 127 -48
t45 -143v-300z" />
    <glyph glyph-name="uni0446.bul" horiz-adv-x="584" 
d="M569 -143h-62v143q-89 0 -104 72h-1q-48 -84 -153 -84q-82 0 -127 47.5t-45 142.5v300h70v-272q0 -71 17 -104q27 -55 96 -55q56 0 91 35q49 48 49 168v228h70v-354q0 -40 14.5 -53t50.5 -13h34v-201z" />
    <glyph glyph-name="uni0448.bul" horiz-adv-x="881" 
d="M797 478v-241q0 -114 3 -237h-68l-2 72h-1q-48 -84 -154 -84q-120 0 -158 97q-57 -97 -167 -97q-83 0 -128 47.5t-45 142.5v300h70v-272q0 -71 17 -104q27 -55 99 -55q55 0 90 35q49 49 49 168v228h70v-272q0 -71 17 -104q27 -55 99 -55q53 0 90 35q49 49 49 168v228h70z
" />
    <glyph glyph-name="uni0449.bul" horiz-adv-x="911" 
d="M896 -143h-63v143q-89 0 -103 72h-1q-48 -84 -154 -84q-120 0 -158 97q-57 -97 -167 -97q-83 0 -128 47.5t-45 142.5v300h70v-272q0 -71 17 -104q27 -55 99 -55q55 0 90 35q49 49 49 168v228h70v-272q0 -71 17 -104q27 -55 99 -55q53 0 90 35q49 49 49 168v228h70v-354
q0 -40 14 -53t50 -13h35v-201z" />
    <glyph glyph-name="uni044A.bul" horiz-adv-x="586" 
d="M19 421v57h210v-161q49 10 113 10q109 0 159.5 -46.5t50.5 -122.5q0 -73 -52 -121.5t-148 -48.5q-92 0 -142.5 43.5t-50.5 124.5v265h-140zM229 258v-96q0 -55 33 -85.5t91 -30.5q60 0 92.5 30.5t32.5 80.5q0 51 -34.5 81.5t-103.5 30.5q-58 0 -111 -11z" />
    <glyph glyph-name="uni044B.bul" horiz-adv-x="696" 
d="M77 156v322h70v-161q46 10 108 10q105 0 153 -46.5t48 -122.5q0 -73 -50 -121.5t-143 -48.5q-89 0 -137.5 43.5t-48.5 124.5zM147 258v-96q0 -55 31.5 -85.5t86.5 -30.5q56 0 86.5 30.5t30.5 80.5q0 51 -32.5 81.5t-98.5 30.5q-54 0 -104 -11zM612 0h-70v478h70v-478z
" />
    <glyph glyph-name="uni044C.bul" horiz-adv-x="504" 
d="M77 156v322h70v-161q49 10 113 10q109 0 159.5 -46.5t50.5 -122.5q0 -73 -52 -121.5t-148 -48.5q-92 0 -142.5 43.5t-50.5 124.5zM147 258v-96q0 -55 33 -85.5t91 -30.5q60 0 92.5 30.5t32.5 80.5q0 51 -34.5 81.5t-103.5 30.5q-58 0 -111 -11z" />
    <glyph glyph-name="uni044E.bul" horiz-adv-x="767" 
d="M718 240q0 -111 -58.5 -181.5t-163.5 -70.5t-161.5 66.5t-58.5 174.5h-122v-229h-70v711h70v-424h125q12 92 69 148t150 56q107 0 163.5 -69.5t56.5 -181.5zM643 239q0 84 -39 138t-107 54q-70 0 -108 -54t-38 -138q0 -83 39 -137t107 -54q70 0 108 53.5t38 137.5z" />
    <glyph glyph-name="grave.cap" horiz-adv-x="337" 
d="M175 881l93 -132h-73l-126 132h106z" />
    <glyph glyph-name="acute.cap" horiz-adv-x="347" 
d="M74 749l93 132h106l-127 -132h-72z" />
    <glyph glyph-name="circumflex.cap" horiz-adv-x="453" 
d="M72 750l118 132h73l118 -132h-75l-80 75l-80 -75h-74z" />
    <glyph glyph-name="caron.cap" horiz-adv-x="453" 
d="M381 882l-117 -132h-75l-117 132h74l81 -75l80 75h74z" />
    <glyph glyph-name="tilde.narrow" horiz-adv-x="437" 
d="M163 625q-27 0 -27 -62h-55q0 120 84 120q27 0 48.5 -16.5t35.5 -33t25 -16.5q27 0 27 61h55q0 -119 -84 -119q-27 0 -48 16.5t-35.5 33t-25.5 16.5z" />
    <glyph glyph-name="tilde.cap" horiz-adv-x="500" 
d="M179 817q-19 0 -29 -18t-10 -44h-59q0 53 25 88t76 35q30 0 57 -17t47.5 -33.5t34.5 -16.5q19 0 29 18t10 44h59q0 -53 -25 -88t-76 -35q-31 0 -58 17t-47 33.5t-34 16.5z" />
    <glyph glyph-name="dieresis.narrow" horiz-adv-x="394" 
d="M151 567h-70v113h70v-113zM313 567h-70v113h70v-113z" />
    <glyph glyph-name="dieresis.cap" horiz-adv-x="460" 
d="M156 761h-75v112h75v-112zM379 761h-75v112h75v-112z" />
    <glyph glyph-name="macron.cap" horiz-adv-x="459" 
d="M378 843v-62h-297v62h297z" />
    <glyph glyph-name="breve.cap" horiz-adv-x="450" 
d="M308 884h63q0 -66 -37.5 -102.5t-109.5 -36.5t-108.5 36t-36.5 103h62q0 -77 84 -77q83 0 83 77z" />
    <glyph glyph-name="ring.cap" horiz-adv-x="397" 
d="M301 835q0 -40 -28 -67.5t-76 -27.5q-49 0 -75 26t-26 68q0 39 27.5 66.5t75.5 27.5q49 0 75.5 -26t26.5 -67zM244 834q0 20 -12 34t-34 14t-33.5 -13.5t-11.5 -34.5q0 -20 11.5 -33.5t33.5 -13.5t34 13.5t12 33.5z" />
    <glyph glyph-name="ringacute" horiz-adv-x="421" 
d="M292 629q0 -39 -27.5 -66.5t-75.5 -27.5q-49 0 -75 26t-26 67q0 39 27.5 66t75.5 27q49 0 75 -25.5t26 -66.5zM235 628q0 20 -11.5 33.5t-33.5 13.5t-33.5 -13.5t-11.5 -33.5t11.5 -33.5t33.5 -13.5t33.5 13.5t11.5 33.5zM157 767l82 117h101l-117 -117h-66z" />
    <glyph glyph-name="ringacute.cap" horiz-adv-x="429" 
d="M300 745q0 -39 -27.5 -65.5t-75.5 -26.5q-49 0 -74.5 25t-25.5 65q0 39 27 65.5t75 26.5q49 0 75 -25t26 -65zM242 743q0 21 -11 34t-33 13q-21 0 -32 -13t-11 -33t11 -33t32 -13t32.5 13t11.5 32zM156 875l82 105h107l-117 -105h-72z" />
    <glyph glyph-name="hungarumlaut.cap" horiz-adv-x="554" 
d="M76 749l75 132h101l-107 -132h-69zM278 749l93 132h107l-126 -132h-74z" />
    <glyph glyph-name="dotaccent.cap" horiz-adv-x="238" 
d="M157 761h-76v112h76v-112z" />
    <glyph glyph-name="uni0326.cap" horiz-adv-x="268" 
d="M111 -54h76v-74q0 -35 -20.5 -58.5t-67.5 -23.5h-18v38h17q34 0 34 38h-21v80z" />
    <glyph glyph-name="cedilla.cap" horiz-adv-x="291" 
d="M158 -207h-78q1 1 8 7.5t8.5 8.5t8 8t8.5 9t7 8.5t7 9.5l4.5 9t3.5 9.5t1 8.5q0 29 -51 50l45 80h67l-31 -54q44 -30 44 -72q0 -20 -16.5 -44t-35.5 -38z" />
    <glyph glyph-name="ogonek.cap" horiz-adv-x="325" 
d="M148 0h73q-66 -98 -66 -131q0 -26 36 -26h54v-49q-23 -8 -63 -8q-101 0 -101 74q0 45 67 140z" />
    <glyph glyph-name="tonos.cap" horiz-adv-x="256" 
d="M81 540l31 189h78l-51 -189h-58z" />
    <glyph glyph-name="tonos.long" horiz-adv-x="256" 
d="M81 511l19 181h79l-45 -181h-53z" />
    <glyph glyph-name="anoteleia.cap" horiz-adv-x="275" 
d="M185 293h-95v118h95v-118z" />
    <glyph glyph-name="breve.cyr" horiz-adv-x="452" 
d="M305 689h66q-15 -135 -146 -135q-67 0 -101.5 33.5t-42.5 101.5h66q9 -41 26.5 -64t52.5 -23q70 0 79 87z" />
    <glyph glyph-name="breve.cyr.cap" horiz-adv-x="476" 
d="M326 884h69q-6 -64 -47 -101.5t-111 -37.5t-110 37t-46 102h69q4 -35 24 -62t64 -27q43 0 63 26.5t25 62.5z" />
    <glyph glyph-name="breve.bul" horiz-adv-x="462" 
d="M358 665l23 -49q-61 -38 -150 -38t-150 38l23 49q59 -28 129 -28q72 0 125 28z" />
    <glyph glyph-name="breve.bul.cap" horiz-adv-x="482" 
d="M377 840l24 -51q-59 -39 -162 -39q-99 0 -158 40l25 50q55 -29 135 -29q81 0 136 29z" />
    <glyph glyph-name="guilsinglleft.cap" horiz-adv-x="420" 
d="M321 142l-54 -31l-180 229l180 230l55 -30l-140 -198z" />
    <glyph glyph-name="guilsinglright.cap" horiz-adv-x="420" 
d="M98 539l55 32l179 -230l-179 -230l-55 30l139 198z" />
    <glyph glyph-name="guillemotleft.cap" horiz-adv-x="664" 
d="M321 142l-54 -31l-180 229l180 230l55 -30l-140 -198zM566 158l-55 -31l-171 213l171 214l55 -30l-131 -182z" />
    <glyph glyph-name="guillemotright.cap" horiz-adv-x="664" 
d="M343 539l55 32l179 -230l-180 -229l-54 29l139 198zM98 523l55 31l171 -213l-171 -214l-55 30l131 182z" />
    <glyph glyph-name="slash.cap" horiz-adv-x="412" 
d="M97 -14h-71l290 710h72z" />
    <glyph glyph-name="backslash.cap" horiz-adv-x="412" 
d="M387 -14h-72l-290 710h71z" />
    <glyph glyph-name="hyphen.cap" horiz-adv-x="380" 
d="M331 305h-282v72h282v-72z" />
    <glyph glyph-name="endash.cap" horiz-adv-x="670" 
d="M597 373v-63h-524v63h524z" />
    <glyph glyph-name="emdash.cap" horiz-adv-x="988" 
d="M931 373v-63h-874v63h874z" />
    <glyph glyph-name="bullet.cap" horiz-adv-x="438" 
d="M348 353q0 -54 -38 -92.5t-92 -38.5t-91.5 37.5t-37.5 91.5t38.5 92.5t92.5 38.5t91 -37.5t37 -91.5z" />
    <glyph glyph-name="periodcentered.cap" horiz-adv-x="275" 
d="M185 293h-95v118h95v-118z" />
    <glyph glyph-name="zero.oldstyle" horiz-adv-x="652" 
d="M498 274q0 109 -45.5 166.5t-126.5 57.5q-82 0 -127 -57t-45 -167t45.5 -167t126.5 -57q82 0 127 56.5t45 167.5zM576 275q0 -135 -67 -212t-185 -77q-117 0 -182.5 75.5t-65.5 211.5q0 135 67 212t184 77q118 0 183.5 -76t65.5 -211z" />
    <glyph glyph-name="one.oldstyle" horiz-adv-x="437" 
d="M242 0v430q-60 -57 -184 -57v63q166 0 191 115h68v-551h-75z" />
    <glyph glyph-name="two.oldstyle" horiz-adv-x="613" 
d="M540 67v-67h-465v77q122 73 197.5 125t110.5 88t45.5 58.5t10.5 50.5q0 45 -34.5 73t-104.5 28q-67 0 -99.5 -29.5t-32.5 -73.5q0 -33 13 -64h-76q-14 25 -14 65q0 73 58.5 118.5t154.5 45.5q105 0 160.5 -45t55.5 -112q0 -50 -21.5 -89.5t-101 -102.5t-232.5 -151v-1
q190 6 375 6z" />
    <glyph glyph-name="three.oldstyle" horiz-adv-x="639" 
d="M49 52l74 23q14 -77 62 -118.5t128 -41.5q77 0 118.5 38t41.5 98q0 65 -44.5 99t-121.5 34h-100v61h68q107 0 151 45q30 30 30 86q0 55 -41 89t-107 34q-130 0 -160 -140l-73 16q45 187 236 187q101 0 162 -50.5t61 -131.5q0 -117 -123 -160v-1q70 -12 106 -55.5
t36 -107.5q0 -86 -65.5 -145t-176.5 -59t-177 51.5t-85 148.5z" />
    <glyph glyph-name="four.oldstyle" horiz-adv-x="632" 
d="M119 101q177 3 265 3v201q0 56 3 179h-1zM457 -134h-73v175h-341v60l311 447h103v-444h123v-63h-123v-175z" />
    <glyph glyph-name="five.oldstyle" horiz-adv-x="612" 
d="M507 548v-65h-320l-18 -223h1q21 29 63 45.5t89 16.5q106 0 168 -64.5t62 -167.5t-66.5 -170.5t-178.5 -67.5q-171 0 -252 151l66 37q63 -124 187 -124q76 0 120.5 46.5t44.5 124.5q0 77 -43.5 124.5t-117.5 47.5q-56 0 -95 -24.5t-53 -62.5h-67l30 376h380z" />
    <glyph glyph-name="six.oldstyle" horiz-adv-x="636" 
d="M555 560l-67 -33q-49 106 -155 106q-94 0 -136.5 -80.5t-41.5 -248.5q21 58 72.5 90t119.5 32q108 0 165.5 -58t57.5 -152q0 -96 -64.5 -163t-171.5 -67q-122 0 -189 87.5t-67 250.5q0 178 67 275t191 97q78 0 131 -32.5t88 -103.5zM341 364q-76 0 -118 -42.5t-42 -112.5
t42 -115t112 -45q73 0 114.5 46.5t41.5 118.5q0 71 -39.5 110.5t-110.5 39.5z" />
    <glyph glyph-name="seven.oldstyle" horiz-adv-x="585" 
d="M260 -134h-80q14 160 77 309t188 308h-389v65h474v-58q-243 -302 -270 -624z" />
    <glyph glyph-name="eight.oldstyle" horiz-adv-x="656" 
d="M589 189q0 -88 -69.5 -145.5t-193.5 -57.5q-123 0 -191 55.5t-68 141.5q0 128 136 173v1q-53 18 -83 57t-30 95q0 80 65.5 133.5t174.5 53.5q110 0 173 -52t63 -133q0 -53 -30.5 -92.5t-82.5 -59.5v-2q66 -19 101 -62t35 -106zM511 186q0 64 -49.5 100.5t-134.5 36.5
q-84 0 -133 -36.5t-49 -100.5t49 -100.5t134 -36.5t134 36.5t49 100.5zM489 509q0 57 -43.5 90.5t-117.5 33.5t-117.5 -33.5t-43.5 -90.5q0 -58 43.5 -91.5t117.5 -33.5t117.5 33.5t43.5 91.5z" />
    <glyph glyph-name="nine.oldstyle" horiz-adv-x="636" 
d="M72 -8l68 33q26 -58 65.5 -84t98.5 -26q94 0 136.5 80t41.5 248q-20 -57 -72 -89t-120 -32q-108 0 -165.5 58t-57.5 152q0 96 64.5 163t171.5 67q122 0 189 -87.5t67 -250.5q0 -178 -67 -275t-191 -97q-82 0 -138 33t-91 107zM296 184q76 0 118 42.5t42 112.5
q0 69 -42 114.5t-112 45.5q-73 0 -114.5 -46.5t-41.5 -118.5q0 -71 39 -110.5t111 -39.5z" />
    <glyph glyph-name="zero.LinTab" 
d="M497 341q0 145 -41 218.5t-131 73.5q-91 0 -131.5 -73.5t-40.5 -218.5t40.5 -218t131.5 -73t131.5 73t40.5 218zM575 342q0 -168 -63 -262t-188 -94q-126 0 -187.5 92.5t-61.5 261.5q0 168 63 262t188 94q126 0 187.5 -92.5t61.5 -261.5z" />
    <glyph glyph-name="one.LinTab" 
d="M402 0h-76v558q-69 -61 -209 -61v64q188 0 216 123h69v-684z" />
    <glyph glyph-name="one.LinTab.001" 
d="M576 0h-479v66h209v492q-69 -61 -209 -61v64q188 0 216 123h69v-618h194v-66z" />
    <glyph glyph-name="two.LinTab" 
d="M578 68v-68h-504v68q250 204 293 243q88 80 104 135q7 21 7 47q0 63 -40 101t-118 38q-74 0 -113.5 -38t-39.5 -93q0 -44 11 -81h-75q-13 30 -13 78q0 87 65.5 142.5t167.5 55.5q114 0 174 -55t60 -144q0 -47 -13 -82t-57 -82t-99.5 -93t-168.5 -135q-30 -23 -46 -36v-2
q72 1 205 1h200z" />
    <glyph glyph-name="three.LinTab" 
d="M68 187l74 22q17 -83 63 -121.5t128 -38.5q76 0 118.5 38t42.5 98q0 65 -45 99t-122 34h-101v61h69q108 0 152 45q30 30 30 86q0 55 -41.5 89t-107.5 34q-128 0 -160 -140l-74 16q47 187 237 187q101 0 162 -50.5t61 -131.5q0 -116 -122 -160v-1q69 -12 105 -55.5
t36 -107.5q0 -86 -65.5 -145t-176.5 -59q-113 0 -176.5 48.5t-86.5 152.5z" />
    <glyph glyph-name="four.LinTab" 
d="M126 235q177 3 265 3v201q0 56 3 179h-1zM464 0h-73v175h-341v60l311 447h103v-444h123v-63h-123v-175z" />
    <glyph glyph-name="five.LinTab" 
d="M526 682v-65h-320l-18 -223h1q21 29 63 45.5t89 16.5q106 0 168 -64.5t62 -167.5t-66.5 -170.5t-178.5 -67.5q-171 0 -252 151l66 37q63 -124 187 -124q76 0 120.5 46.5t44.5 124.5q0 77 -43.5 124.5t-117.5 47.5q-56 0 -95 -24.5t-53 -62.5h-67l30 376h380z" />
    <glyph glyph-name="six.LinTab" 
d="M558 560l-67 -33q-49 106 -155 106q-94 0 -136.5 -80.5t-41.5 -248.5q21 58 72.5 90t119.5 32q108 0 165.5 -58t57.5 -152q0 -96 -64.5 -163t-171.5 -67q-122 0 -189 87.5t-67 250.5q0 178 67 275t191 97q78 0 131 -32.5t88 -103.5zM344 364q-76 0 -118 -42.5t-42 -112.5
t42 -115t112 -45q73 0 114.5 46.5t41.5 118.5q0 71 -39.5 110.5t-110.5 39.5z" />
    <glyph glyph-name="seven.LinTab" 
d="M277 0h-80q15 159 86 305.5t207 311.5h-412v65h494v-58q-140 -167 -210.5 -317t-84.5 -307z" />
    <glyph glyph-name="eight.LinTab" 
d="M586 189q0 -88 -69.5 -145.5t-193.5 -57.5q-123 0 -191 55.5t-68 141.5q0 128 136 173v1q-53 18 -83 57t-30 95q0 80 65.5 133.5t174.5 53.5q110 0 173 -52t63 -133q0 -53 -30.5 -92.5t-82.5 -59.5v-2q66 -19 101 -62t35 -106zM508 186q0 64 -49.5 100.5t-134.5 36.5
q-84 0 -133 -36.5t-49 -100.5t49 -100.5t134 -36.5t134 36.5t49 100.5zM486 509q0 57 -43.5 90.5t-117.5 33.5t-117.5 -33.5t-43.5 -90.5q0 -58 43.5 -91.5t117.5 -33.5t117.5 33.5t43.5 91.5z" />
    <glyph glyph-name="nine.LinTab" 
d="M82 126l68 33q26 -58 65.5 -84t98.5 -26q94 0 136.5 80t41.5 248q-20 -57 -72 -89t-120 -32q-108 0 -165.5 58t-57.5 152q0 96 64.5 163t171.5 67q122 0 189 -87.5t67 -250.5q0 -178 -67 -275t-191 -97q-82 0 -138 33t-91 107zM306 318q76 0 118 42.5t42 112.5
q0 69 -42 114.5t-112 45.5q-73 0 -114.5 -46.5t-41.5 -118.5q0 -71 39 -110.5t111 -39.5z" />
    <glyph glyph-name="zero.OnumTab" 
d="M497 274q0 109 -45.5 166.5t-126.5 57.5q-82 0 -127 -57t-45 -167t45.5 -167t126.5 -57q82 0 127 56.5t45 167.5zM575 275q0 -135 -67 -212t-185 -77q-117 0 -182.5 75.5t-65.5 211.5q0 135 67 212t184 77q118 0 183.5 -76t65.5 -211z" />
    <glyph glyph-name="one.OnumTab" 
d="M397 0h-76v429q-66 -60 -198 -60v62q90 0 138.5 28t68.5 92h67v-551z" />
    <glyph glyph-name="one.OnumTab.001" 
d="M565 0h-457v65h198v364q-66 -60 -198 -60v62q90 0 138.5 28t68.5 92h67v-486h183v-65z" />
    <glyph glyph-name="two.OnumTab" 
d="M568 67v-67h-484v77q134 78 210.5 127t115 85t48 57.5t9.5 52.5q0 45 -35.5 73t-112.5 28q-73 0 -107.5 -29.5t-34.5 -73.5q0 -33 11 -64h-76q-13 27 -13 65q0 73 61.5 118.5t162.5 45.5q112 0 168 -44t56 -113q0 -54 -23 -93t-103.5 -97.5t-243.5 -147.5v-2q148 2 226 2
h165z" />
    <glyph glyph-name="three.OnumTab" 
d="M68 53l74 22q17 -83 63 -121.5t128 -38.5q76 0 118.5 38t42.5 98q0 65 -45 99t-122 34h-101v61h69q108 0 152 45q30 30 30 86q0 55 -41.5 89t-107.5 34q-128 0 -160 -140l-74 16q47 187 237 187q101 0 162 -50.5t61 -131.5q0 -116 -122 -160v-1q69 -12 105 -55.5
t36 -107.5q0 -86 -65.5 -145t-176.5 -59q-113 0 -176.5 48.5t-86.5 152.5z" />
    <glyph glyph-name="four.OnumTab" 
d="M126 101q177 3 265 3v201q0 56 3 179h-1zM464 -134h-73v175h-341v60l311 447h103v-444h123v-63h-123v-175z" />
    <glyph glyph-name="five.OnumTab" 
d="M526 548v-65h-320l-18 -223h1q21 29 63 45.5t89 16.5q106 0 168 -64.5t62 -167.5t-66.5 -170.5t-178.5 -67.5q-171 0 -252 151l66 37q63 -124 187 -124q76 0 120.5 46.5t44.5 124.5q0 77 -43.5 124.5t-117.5 47.5q-56 0 -95 -24.5t-53 -62.5h-67l30 376h380z" />
    <glyph glyph-name="six.OnumTab" 
d="M558 560l-67 -33q-49 106 -155 106q-94 0 -136.5 -80.5t-41.5 -248.5q21 58 72.5 90t119.5 32q108 0 165.5 -58t57.5 -152q0 -96 -64.5 -163t-171.5 -67q-122 0 -189 87.5t-67 250.5q0 178 67 275t191 97q78 0 131 -32.5t88 -103.5zM344 364q-76 0 -118 -42.5t-42 -112.5
t42 -115t112 -45q73 0 114.5 46.5t41.5 118.5q0 71 -39.5 110.5t-110.5 39.5z" />
    <glyph glyph-name="seven.OnumTab" 
d="M277 -134h-80q15 159 86 305.5t207 311.5h-412v65h494v-58q-140 -167 -210.5 -317t-84.5 -307z" />
    <glyph glyph-name="eight.OnumTab" 
d="M586 189q0 -88 -69.5 -145.5t-193.5 -57.5q-123 0 -191 55.5t-68 141.5q0 128 136 173v1q-53 18 -83 57t-30 95q0 80 65.5 133.5t174.5 53.5q110 0 173 -52t63 -133q0 -53 -30.5 -92.5t-82.5 -59.5v-2q66 -19 101 -62t35 -106zM508 186q0 64 -49.5 100.5t-134.5 36.5
q-84 0 -133 -36.5t-49 -100.5t49 -100.5t134 -36.5t134 36.5t49 100.5zM486 509q0 57 -43.5 90.5t-117.5 33.5t-117.5 -33.5t-43.5 -90.5q0 -58 43.5 -91.5t117.5 -33.5t117.5 33.5t43.5 91.5z" />
    <glyph glyph-name="nine.OnumTab" 
d="M82 -8l68 33q26 -58 65.5 -84t98.5 -26q94 0 136.5 80t41.5 248q-20 -57 -72 -89t-120 -32q-108 0 -165.5 58t-57.5 152q0 96 64.5 163t171.5 67q122 0 189 -87.5t67 -250.5q0 -178 -67 -275t-191 -97q-82 0 -138 33t-91 107zM306 184q76 0 118 42.5t42 112.5
q0 69 -42 114.5t-112 45.5q-73 0 -114.5 -46.5t-41.5 -118.5q0 -71 39 -110.5t111 -39.5z" />
    <glyph glyph-name="percent.cap" horiz-adv-x="992" 
d="M333 499q0 68 -27 104t-79 36t-79 -36t-27 -104q0 -67 27 -103t79 -36t79 36t27 103zM404 501q0 -91 -47 -144.5t-131 -53.5q-85 0 -131 51.5t-46 143.5q0 91 47 144.5t132 53.5t130.5 -51.5t45.5 -143.5zM872 182q0 68 -27.5 104t-79.5 36q-51 0 -78.5 -36.5
t-27.5 -103.5t27.5 -103t79.5 -36t79 36t27 103zM943 184q0 -91 -47 -144.5t-132 -53.5t-130.5 51.5t-45.5 143.5q0 91 47 144.5t132 53.5t130.5 -51.5t45.5 -143.5zM288 0h-75l491 682h75z" />
    <glyph glyph-name="perthousand.cap" horiz-adv-x="1441" 
d="M333 499q0 68 -27 104t-79 36t-79 -36t-27 -104q0 -67 27 -103t79 -36t79 36t27 103zM404 501q0 -91 -47 -144.5t-131 -53.5q-85 0 -131 51.5t-46 143.5q0 91 47 144.5t132 53.5t130.5 -51.5t45.5 -143.5zM872 182q0 68 -27.5 104t-79.5 36q-51 0 -78.5 -36.5
t-27.5 -103.5t27.5 -103t79.5 -36t79 36t27 103zM943 184q0 -91 -47 -144.5t-132 -53.5t-130.5 51.5t-45.5 143.5q0 91 47 144.5t132 53.5t130.5 -51.5t45.5 -143.5zM1321 182q0 68 -27 104t-79 36t-79.5 -36t-27.5 -104q0 -67 27.5 -103t79.5 -36t79 36t27 103zM1392 184
q0 -91 -47 -144.5t-131 -53.5q-85 0 -131 51.5t-46 143.5q0 91 47 144.5t132 53.5t130.5 -51.5t45.5 -143.5zM288 0h-75l491 682h75z" />
    </font>
</defs>
</svg>
