<?xml version="1.0" standalone="no"?>
<!DOCTYPE svg PUBLIC "-//W3C//DTD SVG 1.1//EN" "http://www.w3.org/Graphics/SVG/1.1/DTD/svg11.dtd" >
<svg xmlns="http://www.w3.org/2000/svg" xmlns:xlink="http://www.w3.org/1999/xlink" version="1.1">
<metadata>
Created by FontForge 20170731 at Wed Jun 12 15:42:16 2019
 By Aleksey,,,
Volvo Novum is created exclusively for Volvo Trademark Holding Aktiebolag. Copyright 2019 Volvo Trademark Holding Aktiebolag. All rights reserved.
</metadata>
<defs>
<font id="VolvoNovum-BoldItalic" horiz-adv-x="650" >
  <font-face 
    font-family="Volvo Novum"
    font-weight="700"
    font-style="italic"
    font-stretch="normal"
    units-per-em="1000"
    panose-1="2 11 8 3 4 5 2 13 2 4"
    ascent="780"
    descent="-220"
    x-height="500"
    cap-height="682"
    bbox="-227 -195 1587.06 980"
    underline-thickness="134"
    underline-position="-394"
    slope="-14.04"
    unicode-range="U+000D-FB02"
  />
<missing-glyph horiz-adv-x="1095" 
d="M1019 -194h-943q-12 0 -12 11v1089q0 11 12 11h943q12 0 12 -11v-1089q0 -11 -12 -11zM225 778v-833h645v833h-645zM534 0h-180l41 164h180zM422 216l10 57q7 41 30 71.5t51 48.5t56.5 33.5t50.5 35.5t29 46q8 30 -12 50.5t-60 20.5q-41 0 -71 -25.5t-39 -63.5
q-6 -23 -10 -51h-170q0 25 8 57q26 104 106.5 162t201.5 58q126 0 189 -60t40 -152q-12 -50 -39.5 -85.5t-58.5 -54.5t-61.5 -34t-54 -33.5t-30.5 -42.5l-11 -38h-155z" />
    <glyph glyph-name=".notdef" horiz-adv-x="1095" 
d="M1019 -194h-943q-12 0 -12 11v1089q0 11 12 11h943q12 0 12 -11v-1089q0 -11 -12 -11zM225 778v-833h645v833h-645zM534 0h-180l41 164h180zM422 216l10 57q7 41 30 71.5t51 48.5t56.5 33.5t50.5 35.5t29 46q8 30 -12 50.5t-60 20.5q-41 0 -71 -25.5t-39 -63.5
q-6 -23 -10 -51h-170q0 25 8 57q26 104 106.5 162t201.5 58q126 0 189 -60t40 -152q-12 -50 -39.5 -85.5t-58.5 -54.5t-61.5 -34t-54 -33.5t-30.5 -42.5l-11 -38h-155z" />
    <glyph glyph-name=".null" horiz-adv-x="0" 
 />
    <glyph glyph-name=".null" horiz-adv-x="0" 
 />
    <glyph glyph-name="nonmarkingreturn" horiz-adv-x="333" 
 />
    <glyph glyph-name="CR" unicode="&#xd;" horiz-adv-x="262" 
 />
    <glyph glyph-name="space" unicode=" " horiz-adv-x="254" 
 />
    <glyph glyph-name="space" unicode="&#xa0;" horiz-adv-x="254" 
 />
    <glyph glyph-name="exclam" unicode="!" horiz-adv-x="372" 
d="M216 0h-180l41 164h180zM257 216h-154l103 486h190z" />
    <glyph glyph-name="quotedbl" unicode="&#x22;" horiz-adv-x="514" 
d="M267 449h-140l60 281h160zM491 449h-140l60 281h160z" />
    <glyph glyph-name="numbersign" unicode="#" horiz-adv-x="700" 
d="M288 0l68 153h-129l-68 -153h-142l68 153h-82l30 127h108l54 122h-81l31 127h107l68 153h142l-68 -153h129l68 153h142l-68 -153h83l-32 -127h-108l-54 -122h83l-32 -127h-107l-68 -153h-142zM337 402l-54 -122h129l54 122h-129z" />
    <glyph glyph-name="dollar" unicode="$" horiz-adv-x="685" 
d="M328 -107h-153l30 117q-115 19 -187 78l78 133q61 -40 112.5 -61t116.5 -21q49 0 81 18.5t39 46.5q6 24 -12 38.5t-51 20t-73.5 13t-79.5 17.5t-69 33t-41 60t3 99q20 80 84.5 130t165.5 61l28 117h153l-31 -121q79 -14 147 -54l-77 -138q-101 64 -189 64
q-43 0 -68.5 -15.5t-31.5 -38.5t12.5 -37t52 -19.5t74 -13t79.5 -17.5t68.5 -34t41 -61.5t-3.5 -100.5q-21 -84 -93.5 -137.5t-178.5 -64.5z" />
    <glyph glyph-name="percent" unicode="%" horiz-adv-x="1138" 
d="M889 778h170l-761 -874h-169zM909 124q27 108 -45 108t-99 -108t45 -108t99 108zM1063 118q-27 -109 -99 -167.5t-181 -58.5q-108 0 -153 64.5t-18 173.5t98.5 167.5t180.5 58.5q108 0 153.5 -64.5t18.5 -173.5zM423 558q27 108 -45 108t-99 -108t45 -108t99 108z
M577 552q-27 -109 -99 -167.5t-181 -58.5q-108 0 -153 64.5t-18 173.5t98.5 167.5t180.5 58.5q108 0 153.5 -64.5t18.5 -173.5z" />
    <glyph glyph-name="ampersand" unicode="&#x26;" horiz-adv-x="809" 
d="M764 91l-121 -117q-90 73 -106 87q-125 -79 -266 -79q-136 0 -203.5 61.5t-40.5 171.5q29 114 176 176q-55 81 -38 150q21 84 94 129.5t192 45.5q113 0 169.5 -52t36.5 -134q-16 -63 -67 -102.5t-133 -70.5q52 -48 101 -91q35 53 50 114h160q-26 -110 -103 -206
q15 -13 99 -83zM307 112q66 0 128 37q-89 79 -150 143q-73 -37 -86 -90q-10 -41 16 -65.5t92 -24.5zM333 534q-9 -34 35 -86q107 36 120 84q6 26 -13 40t-54 14q-75 0 -88 -52z" />
    <glyph glyph-name="quotesingle" unicode="'" horiz-adv-x="296" 
d="M273 449h-145l58 281h167z" />
    <glyph glyph-name="parenleft" unicode="(" horiz-adv-x="364" 
d="M259 -180h-167q-84 251 -15 525q34 135 91.5 247t159.5 232h181q-207 -246 -270 -501q-66 -266 20 -503z" />
    <glyph glyph-name="parenright" unicode=")" horiz-adv-x="364" 
d="M145 824h167q84 -251 15 -525q-34 -135 -91.5 -247t-159.5 -232h-181q207 246 270 501q66 266 -20 503z" />
    <glyph glyph-name="asterisk" unicode="*" horiz-adv-x="514" 
d="M451 740l-58 -148l149 63l13 -131l-153 -30l74 -109l-126 -74l-40 128l-103 -128l-95 80l127 109l-137 30l72 125l118 -63l22 148h137z" />
    <glyph glyph-name="plus" unicode="+" 
d="M354 43h-156l53 213h-202l33 132h202l52 211h156l-52 -211h201l-33 -132h-201z" />
    <glyph glyph-name="comma" unicode="," horiz-adv-x="320" 
d="M51 184h188l-39 -154q-24 -95 -71 -144t-151 -81l-17 88q50 23 75 46.5t34 60.5h-65z" />
    <glyph glyph-name="hyphen" unicode="-" horiz-adv-x="376" 
d="M328 207h-297l38 153h297z" />
    <glyph glyph-name="hyphen" unicode="&#x2010;" horiz-adv-x="376" 
d="M328 207h-297l38 153h297z" />
    <glyph glyph-name="hyphen" unicode="&#xad;" horiz-adv-x="376" 
d="M328 207h-297l38 153h297z" />
    <glyph glyph-name="period" unicode="." horiz-adv-x="320" 
d="M194 0h-188l47 184h188z" />
    <glyph glyph-name="slash" unicode="/" horiz-adv-x="465" 
d="M27 -142h-175l605 920h176z" />
    <glyph glyph-name="zero" unicode="0" horiz-adv-x="712" 
d="M508 340q27 106 10 159.5t-83 53.5q-128 0 -181 -211q-27 -106 -10 -159.5t83 -53.5q128 0 181 211zM690 332q-43 -172 -144 -261t-248 -89q-146 0 -207.5 98.5t-18.5 269.5q43 172 144 261t248 89q146 0 207.5 -98.5t18.5 -269.5z" />
    <glyph glyph-name="one" unicode="1" horiz-adv-x="462" 
d="M141 0l123 489q-75 -36 -174 -36l34 138q85 0 133.5 21.5t80.5 69.5h157l-170 -682h-184z" />
    <glyph glyph-name="two" unicode="2" horiz-adv-x="626" 
d="M569 151l-39 -151h-561l38 151q258 149 343.5 211.5t99.5 116.5q10 38 -7 61t-60 23q-41 0 -71 -25t-39 -63q-7 -27 -7 -69h-171q-4 38 6 76q27 108 110.5 163t202.5 55q123 0 183.5 -63.5t35.5 -161.5q-14 -56 -45 -98t-108.5 -96.5t-218.5 -128.5l-1 -5q72 4 172 4h137
z" />
    <glyph glyph-name="three" unicode="3" horiz-adv-x="646" 
d="M19 212l178 14q-6 -59 16 -85.5t77 -26.5q93 0 114 84q11 44 -14 63.5t-90 19.5h-54l33 130h54q66 0 100 28q27 22 34 56q9 34 -10.5 53.5t-59.5 19.5q-97 0 -140 -99l-159 37q40 99 125 146.5t198 47.5q127 0 188.5 -56t40.5 -143q-15 -59 -56 -96.5t-96 -53.5v-3
q55 -15 81 -56t12 -100q-53 -210 -323 -210q-138 0 -202 59t-47 171z" />
    <glyph glyph-name="four" unicode="4" horiz-adv-x="662" 
d="M472 0h-174l38 153h-328l36 143l333 386h265l-98 -392h100l-34 -137h-100zM205 287q87 3 158 3h7l36 143q10 41 35 122h-6z" />
    <glyph glyph-name="five" unicode="5" horiz-adv-x="634" 
d="M664 682l-35 -138h-321l-49 -127h3q63 47 151 47q104 0 156 -65t24 -177q-29 -117 -116.5 -178.5t-218.5 -61.5q-116 0 -181.5 52t-59.5 141l169 31q6 -91 91 -91q49 0 84.5 30t48.5 81q12 47 -10.5 77.5t-67.5 30.5q-59 0 -112 -58h-156l142 406h458z" />
    <glyph glyph-name="six" unicode="6" horiz-adv-x="658" 
d="M686 536l-168 -39q-10 42 -28.5 56.5t-59.5 14.5q-56 0 -97.5 -47.5t-77.5 -157.5q29 34 73.5 52.5t90.5 18.5q122 0 170 -58.5t22 -161.5q-26 -107 -114.5 -169.5t-215.5 -62.5q-142 0 -198 95t-15 261q46 181 140.5 271.5t247.5 90.5q102 0 160 -37t70 -127zM361 307
q-46 0 -77.5 -26t-42.5 -69q-12 -45 7 -72t58 -27q97 0 121 102q11 44 -6.5 68t-59.5 24z" />
    <glyph glyph-name="seven" unicode="7" horiz-adv-x="630" 
d="M289 0h-198q86 269 376 541h-351l35 141h550l-35 -141q-163 -150 -253.5 -279t-123.5 -262z" />
    <glyph glyph-name="eight" unicode="8" horiz-adv-x="670" 
d="M613 182q-49 -200 -335 -200q-137 0 -205 57t-42 160q29 118 159 159l1 3q-40 16 -59.5 57.5t-6.5 94.5q22 90 106 138.5t209 48.5q126 0 192 -57t42 -154q-12 -47 -47.5 -84.5t-90.5 -56.5l-1 -3q49 -19 71 -61t7 -102zM433 198q9 37 -13.5 60t-75.5 23t-86.5 -22.5
t-42.5 -60.5t13 -61t75 -23t87 23t43 61zM494 490q8 35 -12.5 56.5t-65.5 21.5q-46 0 -77.5 -21.5t-39.5 -56.5q-9 -35 11.5 -57t65.5 -22t77.5 22t40.5 57z" />
    <glyph glyph-name="nine" unicode="9" horiz-adv-x="658" 
d="M16 149l168 37q10 -41 30 -56.5t63 -15.5q57 0 98.5 46.5t76.5 155.5q-61 -68 -164 -68q-122 0 -170 58.5t-22 161.5q26 107 114.5 169.5t215.5 62.5q142 0 198 -95t15 -261q-46 -181 -140.5 -271.5t-247.5 -90.5q-222 0 -235 167zM346 375q46 0 78 26t43 69
q12 45 -7.5 72t-58.5 27q-97 0 -121 -102q-11 -44 6.5 -68t59.5 -24z" />
    <glyph glyph-name="colon" unicode=":" horiz-adv-x="346" 
d="M204 0h-182l45 182h182zM284 318h-182l45 182h182z" />
    <glyph glyph-name="semicolon" unicode=";" horiz-adv-x="346" 
d="M67 182h182l-38 -152q-24 -96 -72 -145t-152 -80l-16 88q55 27 77 48.5t32 58.5h-59zM283 318h-182l45 182h182z" />
    <glyph glyph-name="less" unicode="&#x3c;" 
d="M585 199l-39 -152l-489 201l37 148l589 200l-41 -166l-233 -74q-101 -32 -152 -40l-1 -2q55 -11 133 -40z" />
    <glyph glyph-name="equal" unicode="=" 
d="M659 492l-34 -131h-540l34 131h540zM606 283l-34 -131h-540l34 131h540z" />
    <glyph glyph-name="greater" unicode="&#x3e;" 
d="M105 444l39 152l489 -201l-37 -148l-589 -200l41 166l233 74q101 32 152 40l1 2q-55 11 -133 40z" />
    <glyph glyph-name="question" unicode="?" horiz-adv-x="647" 
d="M361 0h-180l41 164h180zM249 216l10 57q7 41 30 71.5t51 48.5t56.5 33.5t50.5 35.5t29 46q8 30 -12 50.5t-60 20.5q-41 0 -71 -25.5t-39 -63.5q-6 -23 -10 -51h-170q0 25 8 57q26 104 106.5 162t201.5 58q126 0 189 -60t40 -152q-12 -50 -39.5 -85.5t-58.5 -54.5
t-61.5 -34t-54 -33.5t-30.5 -42.5l-11 -38h-155z" />
    <glyph glyph-name="at" unicode="@" horiz-adv-x="1044" 
d="M733 -44l6 -113q-113 -31 -260 -31q-111 0 -197.5 33.5t-139.5 92t-78 137t-18 169.5q9 134 84 242t199 169t273 61q127 0 225 -45.5t150.5 -132t44.5 -198.5q-10 -134 -88.5 -217.5t-201.5 -83.5q-61 0 -94.5 15.5t-46.5 50.5q-26 -30 -66.5 -48t-80.5 -18
q-189 0 -173 190q3 44 18 87.5t43 83.5t75.5 65t107.5 25q80 0 111 -53h2l13 46h153l-61 -238q-13 -49 -9 -68.5t31 -19.5q53 0 87.5 48t40.5 123q10 128 -66 201t-227 73q-173 0 -283 -103t-122 -252q-10 -144 73 -232.5t237 -88.5q126 0 238 30zM589 298q2 33 -12.5 53.5
t-46.5 20.5q-43 0 -69 -38t-31 -92q-5 -85 57 -85q48 0 73 45.5t29 95.5z" />
    <glyph glyph-name="A" unicode="A" horiz-adv-x="713" 
d="M357 682h219l68 -682h-193l-7 126h-231l-68 -126h-197zM345 369l-62 -115h155l-6 114q-4 90 0 174h-4q-31 -77 -83 -173z" />
    <glyph glyph-name="B" unicode="B" horiz-adv-x="729" 
d="M257 284l-38 -150q92 -2 125 -2q131 0 149 74q2 19 2.5 32t-9.5 21.5t-17.5 13.5t-23 7.5t-25 3t-22.5 0.5h-141zM323 548l-34 -135h112q82 0 111 23q23 20 29 46q7 29 -5 45q-10 13 -33.5 18t-81.5 5q-44 0 -98 -2zM12 0l170 682q140 2 286 2q185 0 241 -74
q33 -46 17 -110q-28 -108 -147 -143q58 -14 84.5 -58t10.5 -105q-15 -62 -50.5 -102.5t-88.5 -60t-106.5 -26.5t-125.5 -7q-125 0 -291 2z" />
    <glyph glyph-name="C" unicode="C" horiz-adv-x="715" 
d="M533 275l145 -65q-104 -228 -354 -228q-153 0 -226.5 102.5t-32.5 267.5q43 173 156 260.5t253 87.5q110 0 183 -57t83 -160l-173 -53q-10 117 -113 117q-68 0 -126 -55t-83 -153q-23 -93 7 -147.5t103 -54.5q53 0 96 32t82 106z" />
    <glyph glyph-name="D" unicode="D" horiz-adv-x="755" 
d="M320 543l-100 -402q42 -3 86 -3q102 0 160 46q67 54 93 157q25 105 -14 158q-21 28 -53.5 36.5t-90.5 8.5q-56 0 -81 -1zM12 0l170 682q140 2 251 2q197 0 273 -101q74 -100 36 -251q-38 -157 -148 -244q-113 -90 -309 -90q-101 0 -273 2z" />
    <glyph glyph-name="E" unicode="E" horiz-adv-x="655" 
d="M12 0l170 682h524l-33 -132h-349l-36 -139h304l-33 -128h-303l-37 -150h367l-33 -133h-541z" />
    <glyph glyph-name="F" unicode="F" horiz-adv-x="607" 
d="M12 0l170 682h501l-34 -134h-326l-41 -161h284l-33 -130h-283l-64 -257h-174z" />
    <glyph glyph-name="G" unicode="G" horiz-adv-x="777" 
d="M652 0h-144l16 60h-1q-44 -39 -90 -58.5t-116 -19.5q-146 0 -220 102.5t-33 266.5q40 162 156.5 255.5t277.5 93.5q203 0 281 -140l-161 -101q-37 88 -145 88q-81 0 -142.5 -58t-85.5 -152q-24 -96 9 -151t115 -55q71 0 117.5 35.5t58.5 85.5v2h-131l32 128h303z" />
    <glyph glyph-name="H" unicode="H" horiz-adv-x="770" 
d="M12 0l170 682h174l-64 -255h278l64 255h174l-170 -682h-174l70 282h-278l-70 -282h-174z" />
    <glyph glyph-name="I" unicode="I" horiz-adv-x="318" 
d="M12 0l170 682h174l-170 -682h-174z" />
    <glyph glyph-name="J" unicode="J" horiz-adv-x="577" 
d="M448 682h174l-115 -459q-60 -241 -299 -241q-52 0 -94 14t-72.5 43.5t-42.5 80t0 117.5l177 28q-12 -69 1 -100t56 -31q78 0 102 97z" />
    <glyph glyph-name="K" unicode="K" horiz-adv-x="718" 
d="M594 682h230l-293 -240l133 -442h-189l-92 321l-147 -120l-50 -201h-174l170 682h174l-65 -258z" />
    <glyph glyph-name="L" unicode="L" horiz-adv-x="571" 
d="M12 0l170 682h174l-134 -535h305l-36 -147h-479z" />
    <glyph glyph-name="M" unicode="M" horiz-adv-x="972" 
d="M12 0l170 682h283l19 -283q7 -98 -1 -156h3q24 65 75 156l161 283h288l-170 -682h-174l60 240q48 194 84 308h-6q-42 -89 -91 -174l-213 -374h-159l-26 374q-6 99 -3 174h-6q-18 -100 -70 -308l-60 -240h-164z" />
    <glyph glyph-name="N" unicode="N" horiz-adv-x="762" 
d="M629 0h-199l-109 343q-20 65 -31 141h-4q-23 -135 -60 -281l-50 -203h-164l170 682h214l101 -318q21 -68 31 -141h4q19 115 59 280l44 179h165z" />
    <glyph glyph-name="O" unicode="O" horiz-adv-x="794" 
d="M598 341q23 93 -10 149t-115 56t-143 -56t-84 -149q-23 -92 10 -148.5t115 -56.5q81 0 142 56t85 149zM779 331q-40 -162 -159.5 -255.5t-279.5 -93.5q-161 0 -239 103t-37 266q40 161 160 255t280 94q161 0 238.5 -103t36.5 -266z" />
    <glyph glyph-name="P" unicode="P" horiz-adv-x="689" 
d="M539 447q12 48 -11.5 72.5t-97.5 24.5q-73 0 -108 -1l-48 -190q35 -1 107 -1q135 0 158 95zM12 0l170 682q50 0 139.5 1t138.5 1q51 0 93.5 -7.5t81.5 -24.5t61 -45t31.5 -70.5t-6.5 -99.5q-31 -122 -124 -173.5t-242 -51.5q-87 0 -116 1l-53 -213h-174z" />
    <glyph glyph-name="Q" unicode="Q" horiz-adv-x="794" 
d="M779 331q-36 -141 -130 -230l46 -60l-112 -87l-52 68q-89 -40 -191 -40q-161 0 -239 103t-37 266q40 161 160 255t280 94q161 0 238.5 -103t36.5 -266zM386 213l112 87l51 -68q32 45 49 109q23 93 -10 149t-115 56t-143 -56t-84 -149q-23 -92 10 -148.5t115 -56.5
q36 0 65 10z" />
    <glyph glyph-name="R" unicode="R" horiz-adv-x="713" 
d="M641 0h-194l-81 231h-123l-57 -231h-174l170 682q53 0 151.5 1t135.5 1q55 0 103 -11.5t89 -37.5t57 -74.5t0 -114.5q-36 -144 -179 -191zM321 543l-43 -173q37 -1 119 -1q117 0 140 92q9 39 -11.5 61t-87.5 22q-22 0 -61 -0.5t-56 -0.5z" />
    <glyph glyph-name="S" unicode="S" horiz-adv-x="688" 
d="M6 69l79 134q121 -81 246 -81q105 0 119 59q6 26 -12.5 43.5t-52 26.5t-75 21t-81.5 26t-70.5 41t-42 67.5t3.5 104.5q22 89 99 139t206 50q157 0 259 -64l-77 -136q-97 61 -198 61q-97 0 -110 -51q-6 -25 12.5 -41.5t53 -25t76 -20t81.5 -25.5t71 -42t42 -69.5
t-4 -107.5q-22 -91 -106 -144t-216 -53q-181 0 -303 87z" />
    <glyph glyph-name="T" unicode="T" horiz-adv-x="542" 
d="M122 0l135 542h-185l35 140h548l-35 -140h-185l-135 -542h-178z" />
    <glyph glyph-name="U" unicode="U" horiz-adv-x="746" 
d="M349 682l-99 -396q-17 -69 9 -110t93 -41q138 0 176 151l99 396h164l-105 -418q-32 -130 -123 -206t-240 -76q-152 0 -216.5 86t-31.5 216l100 398h174z" />
    <glyph glyph-name="V" unicode="V" horiz-adv-x="658" 
d="M374 0h-212l-58 682h187l18 -330q6 -109 -1 -187h4q32 76 92 189l175 328h194z" />
    <glyph glyph-name="W" unicode="W" horiz-adv-x="1077" 
d="M818 0h-227l-3 252q-2 143 3 195h-4q-25 -67 -92 -195l-129 -252h-227l-13 682h190l-9 -279q-3 -79 -11 -237h4q50 114 114 238l142 278h190l2 -281q2 -140 -3 -235h4q70 156 106 234l132 282h184z" />
    <glyph glyph-name="X" unicode="X" horiz-adv-x="647" 
d="M594 0h-200l-74 230l-186 -230h-202l311 360l-126 322h200l65 -201l159 201h202l-284 -331z" />
    <glyph glyph-name="Y" unicode="Y" horiz-adv-x="658" 
d="M356 0h-174l67 271l-139 411h201l66 -235l178 235h213l-344 -410z" />
    <glyph glyph-name="Z" unicode="Z" horiz-adv-x="628" 
d="M571 142l-35 -142h-564l35 142l412 402q-124 -2 -199 -2h-98l35 140h534l-35 -140l-412 -402q138 2 229 2h98z" />
    <glyph glyph-name="bracketleft" unicode="[" horiz-adv-x="414" 
d="M310 -50l-33 -130h-310l250 1004h312l-33 -130h-156l-186 -744h156z" />
    <glyph glyph-name="backslash" unicode="\" horiz-adv-x="465" 
d="M419 -142h-169l-146 920h169z" />
    <glyph glyph-name="bracketright" unicode="]" horiz-adv-x="414" 
d="M237 -180h-312l33 130h156l186 744h-156l33 130h310z" />
    <glyph glyph-name="asciicircum" unicode="^" 
d="M642 344h-197l-23 97q-13 52 -20 115h-2q-27 -50 -76 -115l-73 -97h-195l281 338h186z" />
    <glyph glyph-name="underscore" unicode="_" 
d="M575 -59l-34 -134h-649l34 134h649z" />
    <glyph glyph-name="grave" unicode="`" horiz-adv-x="382" 
d="M362 702l46 -150h-138l-103 150h195z" />
    <glyph glyph-name="a" unicode="a" horiz-adv-x="555" 
d="M521 320l-23 -87q-19 -76 -55 -233h-145l13 51h-1q-71 -67 -166 -67q-87 0 -124.5 49.5t-19.5 119.5q19 79 101.5 121t257.5 42l3 12q8 34 -9.5 52.5t-60.5 18.5q-75 0 -163 -58l-46 100q117 75 249 75q111 0 162 -51.5t27 -144.5zM330 201l3 11q-89 0 -124 -15.5
t-43 -45.5q-11 -48 43 -48q38 0 74 27t47 71z" />
    <glyph glyph-name="b" unicode="b" horiz-adv-x="621" 
d="M68 252l112 450h161l-41 -159q-16 -59 -32 -97h2q68 70 160 70q102 0 145 -79.5t13 -197.5q-29 -118 -106 -186.5t-183 -68.5q-50 0 -86.5 18.5t-49.5 51.5h-1l-17 -54h-148q51 173 71 252zM226 257l-4 -15q-15 -58 1.5 -95t61.5 -37q47 0 83.5 38.5t52.5 101.5
q17 60 1.5 100t-63.5 40q-44 0 -80.5 -35.5t-52.5 -97.5z" />
    <glyph glyph-name="c" unicode="c" horiz-adv-x="547" 
d="M391 208l110 -74q-94 -150 -260 -150q-120 0 -177.5 76t-26.5 201q31 124 114.5 189.5t196.5 65.5q97 0 152 -42t64 -116l-155 -42q-7 71 -75 71q-44 0 -79 -36t-51 -101q-15 -62 1 -99.5t62 -37.5q74 0 124 95z" />
    <glyph glyph-name="d" unicode="d" horiz-adv-x="621" 
d="M399 243l4 15q15 58 -1.5 95t-61.5 37q-47 0 -83.5 -38.5t-52.5 -101.5q-17 -60 -1.5 -100t63.5 -40q44 0 80.5 35.5t52.5 97.5zM499 0h-149l12 60h-1q-70 -76 -166 -76q-102 0 -145 79.5t-13 197.5q29 118 106 186.5t183 68.5q44 0 79 -15t49 -40h1q8 51 16 82l40 159
h160l-113 -452q-37 -146 -59 -250z" />
    <glyph glyph-name="e" unicode="e" horiz-adv-x="591" 
d="M458 158l43 -104q-113 -70 -243 -70q-132 0 -192.5 74t-27.5 203q31 124 117.5 189.5t206.5 65.5t175 -72t24 -196q-8 -34 -17 -48h-351q-4 -51 20.5 -73.5t76.5 -22.5q87 0 168 54zM341 400q-81 0 -121 -96h186q9 45 -8 70.5t-57 25.5z" />
    <glyph glyph-name="f" unicode="f" horiz-adv-x="337" 
d="M175 0h-160l94 376h-62l31 124h61l18 74q34 142 199 142q61 0 105 -11l-37 -125q-32 8 -61 8q-41 0 -52 -42l-12 -46h92l-32 -124h-90z" />
    <glyph glyph-name="g" unicode="g" horiz-adv-x="621" 
d="M482 500h147q-26 -70 -71 -251q-10 -37 -28 -115t-28 -119q-51 -209 -312 -209q-136 0 -216 44l70 121q76 -47 178 -47q48 0 74.5 21.5t42.5 62.5q10 27 21 56h-2q-67 -68 -160 -68q-103 0 -146.5 75.5t-13.5 194.5q29 114 106 182t182 68q50 0 86.5 -18.5t49.5 -51.5h1z
M402 254l1 4q15 59 -1.5 95.5t-61.5 36.5q-47 0 -83.5 -38t-51.5 -97q-14 -59 1.5 -97t62.5 -38q44 0 81.5 38t51.5 96z" />
    <glyph glyph-name="h" unicode="h" horiz-adv-x="614" 
d="M4 0l177 702h159l-40 -159q-13 -52 -32 -97h2q68 70 158 70t131.5 -57.5t14.5 -162.5l-76 -296h-160l63 250q20 80 14 103q-9 37 -58 37q-38 0 -68 -24q-42 -33 -62 -115l-62 -251h-161z" />
    <glyph glyph-name="i" unicode="i" horiz-adv-x="290" 
d="M165 0h-160l125 500h160zM304 552h-163l39 150h161z" />
    <glyph glyph-name="j" unicode="j" horiz-adv-x="294" 
d="M308 552h-162l37 150h162zM134 500h160l-126 -499q-26 -102 -77.5 -147t-142.5 -45q-38 0 -61 9l31 122h31q29 0 41 17t28 80z" />
    <glyph glyph-name="k" unicode="k" horiz-adv-x="574" 
d="M531 0h-175l-72 207l-85 -71l-34 -136h-160l175 702h160l-93 -371l187 169h205l-222 -183z" />
    <glyph glyph-name="l" unicode="l" horiz-adv-x="290" 
d="M5 0l175 702h160l-175 -702h-160z" />
    <glyph glyph-name="m" unicode="m" horiz-adv-x="940" 
d="M824 0h-159l63 252q19 79 14 101q-9 37 -56 37q-36 0 -67 -24q-42 -34 -62 -115l-63 -251h-159l63 252q19 79 14 101q-9 37 -57 37q-35 0 -66 -24q-42 -34 -62 -115l-63 -251h-159l60 241q17 69 29.5 122t20.5 88.5t11 48.5h149l-12 -60h1q70 76 164 76q106 0 134 -80
q83 80 192 80q88 0 129 -57.5t15 -161.5z" />
    <glyph glyph-name="n" unicode="n" horiz-adv-x="614" 
d="M498 0h-159l62 250q20 81 14 103q-9 37 -58 37q-38 0 -68 -24q-41 -33 -62 -115l-63 -251h-159l60 241q36 144 61 259h150l-13 -60h1q70 76 164 76q90 0 131 -58.5t15 -161.5z" />
    <glyph glyph-name="o" unicode="o" horiz-adv-x="604" 
d="M403 250q16 63 -2 99t-65 36q-46 0 -81 -36t-51 -99t2 -99t65 -36q46 0 81 36t51 99zM570 239q-31 -125 -117 -190t-206 -65q-122 0 -182 74.5t-28 202.5q31 125 117 190t206 65q122 0 182 -74.5t28 -202.5z" />
    <glyph glyph-name="p" unicode="p" horiz-adv-x="621" 
d="M226 257l-4 -15q-15 -58 1.5 -95t61.5 -37q47 0 83.5 38.5t52.5 101.5q17 60 1.5 100t-63.5 40q-44 0 -80.5 -35.5t-52.5 -97.5zM120 -180h-161l108 430q23 91 59 250h151l-14 -60h1q70 76 166 76q102 0 145 -79.5t13 -197.5q-29 -118 -106 -186.5t-183 -68.5
q-44 0 -79 15t-49 40h-1q-4 -36 -16 -82z" />
    <glyph glyph-name="q" unicode="q" horiz-adv-x="621" 
d="M450 -180h-160l35 137q13 51 32 97h-2q-67 -70 -160 -70q-102 0 -145 79.5t-13 197.5q29 118 106 186.5t183 68.5q50 0 86.5 -18.5t49.5 -51.5h1l18 54h147q-32 -98 -66 -236zM399 243l4 15q15 58 -1.5 95t-61.5 37q-47 0 -83.5 -38.5t-52.5 -101.5q-17 -60 -1.5 -100
t63.5 -40q44 0 80.5 35.5t52.5 97.5z" />
    <glyph glyph-name="r" unicode="r" horiz-adv-x="408" 
d="M165 0h-160l60 240q42 170 61 260h149l-17 -82h1q72 98 175 98q22 0 34 -4l-39 -153q-1 0 -16 0.5t-21 0.5q-59 0 -104 -36q-34 -27 -50.5 -62.5t-32.5 -100.5z" />
    <glyph glyph-name="s" unicode="s" horiz-adv-x="528" 
d="M-13 48l70 116q82 -60 180 -60q66 0 73 31q5 21 -21.5 35t-67 25t-79 28.5t-59 56.5t-5.5 97q36 139 244 139q122 0 195 -45l-63 -111q-66 41 -147 41q-61 0 -67 -27q-5 -18 14 -31t50 -20t65.5 -20.5t63 -31.5t41 -54t0.5 -86q-38 -147 -254 -147q-147 0 -233 64z" />
    <glyph glyph-name="t" unicode="t" horiz-adv-x="376" 
d="M97 312l16 64h-61l31 124h60l35 139l168 29l-43 -168h109l-31 -124h-108l-42 -166q-12 -48 -13 -64t6 -22q9 -9 30 -9q24 0 64 9l-31 -123q-43 -17 -101 -17q-174 0 -128 181q2 8 7.5 27.5t13.5 49.5t18 70z" />
    <glyph glyph-name="u" unicode="u" horiz-adv-x="610" 
d="M488 0h-149l13 60h-1q-71 -76 -161 -76q-88 0 -129.5 57.5t-14.5 162.5l74 296h160l-63 -251q-19 -79 -15 -102q9 -37 54 -37q38 0 69 25q42 34 63 118l62 247h160l-61 -241q-44 -173 -61 -259z" />
    <glyph glyph-name="v" unicode="v" horiz-adv-x="538" 
d="M306 0h-194l-50 500h170l9 -196q5 -91 0 -158h3q46 102 75 158l99 196h188z" />
    <glyph glyph-name="w" unicode="w" horiz-adv-x="836" 
d="M619 0h-191l1 169q0 76 6 140h-2q-27 -69 -62 -140l-84 -169h-190l-26 500h165l4 -204q1 -77 -4 -149h3q42 106 64 150l101 203h157v-204q0 -85 -6 -149h3q41 98 65 149l98 204h174z" />
    <glyph glyph-name="x" unicode="x" horiz-adv-x="546" 
d="M67 500h188l53 -127l99 127h190l-216 -248l113 -252h-188l-62 149l-114 -149h-200l241 270z" />
    <glyph glyph-name="y" unicode="y" horiz-adv-x="538" 
d="M199 -180h-189l104 150l-52 530h169l9 -195q3 -99 -1 -157h3q25 57 76 157l100 195h188z" />
    <glyph glyph-name="z" unicode="z" horiz-adv-x="535" 
d="M463 128l-32 -128h-447l31 128l276 249q-78 -2 -123 -2h-80l32 125h424l-32 -125l-275 -249q96 2 143 2h83z" />
    <glyph glyph-name="braceleft" unicode="{" horiz-adv-x="474" 
d="M28 258l32 128h31q48 0 67 17t34 80l35 139q27 109 86.5 155.5t176.5 46.5h99l-33 -130h-89q-37 0 -56.5 -18t-30.5 -62l-33 -131q-20 -78 -50.5 -114t-81.5 -48l-1 -2q46 -12 58 -47t-6 -115l-32 -126q-11 -44 0 -62.5t48 -18.5h88l-33 -130h-85q-117 0 -158 53.5
t-13 162.5l30 123q14 65 4 82t-58 17h-29z" />
    <glyph glyph-name="bar" unicode="|" horiz-adv-x="341" 
d="M144 -180h-159l252 1004h159z" />
    <glyph glyph-name="braceright" unicode="}" horiz-adv-x="474" 
d="M486 386l-32 -128h-31q-48 0 -67 -17t-34 -80l-35 -139q-27 -109 -86.5 -155.5t-176.5 -46.5h-99l33 130h89q37 0 56.5 18t30.5 62l33 131q20 78 50.5 114t81.5 48l1 2q-46 12 -58 47t6 115l32 126q11 44 0 62.5t-48 18.5h-88l33 130h85q117 0 158 -53.5t13 -162.5
l-30 -123q-14 -65 -4 -82t58 -17h29z" />
    <glyph glyph-name="asciitilde" unicode="~" 
d="M201 215h-143q0 100 51.5 162t150.5 62q46 0 79 -15t47 -32.5t28.5 -32.5t27.5 -15q15 0 27 20.5t12 64.5h143q0 -100 -51.5 -162t-150.5 -62q-46 0 -79 15t-47 32.5t-28.5 32.5t-27.5 15q-15 0 -27 -20.5t-12 -64.5z" />
    <glyph glyph-name="exclamdown" unicode="&#xa1;" horiz-adv-x="372" 
d="M187 606h180l-41 -164h-180zM146 390h154l-104 -486h-190z" />
    <glyph glyph-name="cent" unicode="&#xa2;" horiz-adv-x="566" 
d="M346 693h142l-29 -111q108 -32 120 -143l-146 -44q-5 34 -21.5 49.5t-49.5 15.5q-43 0 -75 -31.5t-45 -84.5q-14 -55 1.5 -86t60.5 -31q65 0 120 79l107 -67q-66 -106 -192 -137l-27 -112h-142l30 114q-84 16 -117.5 84.5t-7.5 170.5q23 92 88 151t157 76z" />
    <glyph glyph-name="sterling" unicode="&#xa3;" 
d="M580 149l-37 -149h-548l32 132q56 23 83 45.5t36 57.5q4 15 5 26l-100 -1l33 129h68q-2 63 11 111q50 200 291 200q103 0 161.5 -46t64.5 -127l-157 -60q-14 90 -87 90q-34 0 -59 -20.5t-34 -56.5q-9 -35 -7 -91h178l-32 -128h-147q-1 -11 -6 -30q-7 -30 -22 -48t-44 -35
l-1 -5q84 6 163 6h155z" />
    <glyph glyph-name="currency" unicode="&#xa4;" horiz-adv-x="668" 
d="M596 130l-116 -88l-70 102q-45 -17 -104 -17q-56 0 -94 16l-120 -101l-74 104l112 87q-10 38 4 96q14 57 46 96l-70 89l115 89l70 -103q48 17 104 17t94 -16l119 102l75 -105l-113 -87q11 -41 -3 -96q-13 -55 -46 -97zM433 322q10 39 -6 63.5t-54 24.5q-40 0 -65.5 -24
t-35.5 -64q-10 -39 6 -63.5t54 -24.5q79 0 101 88z" />
    <glyph glyph-name="yen" unicode="&#xa5;" 
d="M350 0h-170l19 79h-158l28 111h158l14 55h-158l28 111h157l2 6l-145 320h199l63 -171l143 171h215l-305 -320l-2 -6h158l-27 -111h-158l-14 -55h158l-28 -111h-158z" />
    <glyph glyph-name="brokenbar" unicode="&#xa6;" horiz-adv-x="341" 
d="M291 405h-159l105 419h159zM144 -180h-159l106 420h159z" />
    <glyph glyph-name="section" unicode="&#xa7;" horiz-adv-x="651" 
d="M10 -98l77 123q78 -66 161 -66q85 0 98 49q7 29 -25 45.5t-81 28t-96 29t-73 59t-10 105.5q11 44 44.5 82t82.5 63q-15 18 -20.5 50.5t2.5 70.5q44 175 275 175q124 0 206 -59l-75 -125q-78 56 -149 56q-84 0 -97 -49q-6 -24 15.5 -40t57.5 -24t77 -22t74.5 -32
t49.5 -56.5t2 -92.5q-24 -93 -123 -144q16 -20 23.5 -52t-0.5 -70q-20 -80 -89.5 -127.5t-186.5 -47.5q-66 0 -127.5 20t-92.5 51zM445 273q4 17 -2.5 28.5t-24 19t-35 12.5t-47 12t-48.5 13q-54 -37 -66 -83q-4 -17 2 -29t24 -20.5t34.5 -13t48 -12t49.5 -12.5q53 38 65 85
z" />
    <glyph glyph-name="dieresis" unicode="&#xa8;" horiz-adv-x="494" 
d="M290 552h-150l37 150h150zM510 552h-150l37 150h150z" />
    <glyph glyph-name="copyright" unicode="&#xa9;" horiz-adv-x="980" 
d="M949 344q-14 -186 -149.5 -311.5t-329.5 -125.5q-195 0 -309.5 122.5t-100.5 308.5t148.5 311t329.5 125t310 -122.5t101 -307.5zM808 340q10 134 -67 222.5t-213 88.5q-137 0 -226.5 -87.5t-99.5 -223.5q-10 -133 66 -221.5t212 -88.5q137 0 227.5 87.5t100.5 222.5z
M600 313l108 -64q-83 -136 -244 -136q-108 0 -159 67t-25 172q26 106 100 162.5t183 56.5q75 0 128.5 -37t59.5 -105l-138 -42q-8 32 -23.5 46.5t-47.5 14.5q-40 0 -68.5 -29t-40.5 -78q-12 -47 2.5 -76t54.5 -29q63 0 110 77z" />
    <glyph glyph-name="ordfeminine" unicode="&#xaa;" horiz-adv-x="524" 
d="M551 613l-17 -70q-40 -165 -45 -203h-125l14 48h-1q-46 -62 -147 -62q-76 0 -110.5 43t-19.5 103q18 71 86.5 107.5t226.5 36.5l2 9q14 63 -57 63q-54 0 -144 -50l-47 82q105 70 222 70q97 0 139.5 -47t22.5 -130zM387 515l3 10q-77 0 -107 -13t-37 -39q-11 -43 37 -43
q32 0 63.5 24t40.5 61zM434 146h-396l29 114h396z" />
    <glyph glyph-name="guillemotleft" unicode="&#xab;" horiz-adv-x="684" 
d="M305 85l-145 -54l-92 261l213 246l118 -71l-143 -190zM576 101l-145 -54l-83 245l197 230l119 -70l-128 -175z" />
    <glyph glyph-name="logicalnot" unicode="&#xac;" 
d="M542 67h-157l49 189h-385l33 132h541z" />
    <glyph glyph-name="registered" unicode="&#xae;" horiz-adv-x="736" 
d="M735 529q-9 -124 -100 -210.5t-219 -86.5t-205 84.5t-68 208.5t100 210.5t219 86.5t205 -84.5t68 -208.5zM648 527q7 96 -46 158.5t-146 62.5t-156 -63t-70 -158q-7 -96 46 -158.5t146 -62.5t156 63t70 158zM563 385l-109 -1l-22 96h-36l-24 -95h-100l74 296
q17 0 69.5 0.5t62.5 0.5q69 0 105 -26.5t22 -82.5q-14 -55 -77 -79zM428 610l-15 -60h41q41 0 48 29q4 16 -3.5 23.5t-30.5 7.5h-40z" />
    <glyph glyph-name="macron" unicode="&#xaf;" horiz-adv-x="470" 
d="M519 687l-32 -128h-346l32 128h346z" />
    <glyph glyph-name="macron" unicode="&#x2c9;" horiz-adv-x="470" 
d="M519 687l-32 -128h-346l32 128h346z" />
    <glyph glyph-name="degree" unicode="&#xb0;" horiz-adv-x="455" 
d="M386 615q2 30 -13.5 47t-47.5 17t-50 -17t-20 -47q-5 -65 62 -65q64 0 69 65zM521 616q-5 -77 -63 -123t-152 -46q-95 0 -143.5 44.5t-42.5 122.5q5 76 62.5 122t151.5 46t143 -44.5t44 -121.5z" />
    <glyph glyph-name="plusminus" unicode="&#xb1;" 
d="M388 184h-156l47 184h-193l34 132h192l44 182h157l-45 -182h192l-34 -132h-191zM568 132l-33 -132h-540l33 132h540z" />
    <glyph glyph-name="twosuperior" unicode="&#xb2;" horiz-adv-x="543" 
d="M534 458l-30 -120h-418l35 139q180 76 229 103t56 58q10 41 -36 41q-45 0 -55 -39q-5 -21 -5 -41h-149q-2 17 4 45q18 74 79 110t153 36q103 0 149.5 -42t28.5 -116q-14 -55 -74 -95t-182 -77l-1 -5q81 3 139 3h77z" />
    <glyph glyph-name="threesuperior" unicode="&#xb3;" horiz-adv-x="543" 
d="M106 474l150 12q-4 -58 53 -58q46 0 57 41q6 23 -8.5 34t-48.5 11h-47l23 92h41q43 0 62 16q13 10 18 28t-4 28.5t-30 10.5q-55 0 -80 -46l-138 27q58 120 241 120q96 0 146.5 -35t35.5 -99q-19 -71 -107 -90l-1 -3q91 -22 68 -109q-15 -61 -78 -94.5t-169 -33.5
q-98 0 -147 37.5t-37 110.5z" />
    <glyph glyph-name="acute" unicode="&#xb4;" horiz-adv-x="394" 
d="M129 552l120 150h210l-179 -150h-151z" />
    <glyph glyph-name="mu" unicode="&#xb5;" horiz-adv-x="620" 
d="M349 0l13 60h-1q-28 -36 -69 -54.5t-79 -18.5q-39 0 -58 15h-1l-15 -105l-12 -77h-167l170 680h160l-63 -251q-20 -76 -15 -102q7 -37 54 -37q38 0 69 25q42 34 63 118l62 247h160l-61 -241q-44 -173 -61 -259h-149z" />
    <glyph glyph-name="mu" unicode="&#x3bc;" horiz-adv-x="620" 
d="M349 0l13 60h-1q-28 -36 -69 -54.5t-79 -18.5q-39 0 -58 15h-1l-15 -105l-12 -77h-167l170 680h160l-63 -251q-20 -76 -15 -102q7 -37 54 -37q38 0 69 25q42 34 63 118l62 247h160l-61 -241q-44 -173 -61 -259h-149z" />
    <glyph glyph-name="paragraph" unicode="&#xb6;" horiz-adv-x="793" 
d="M615 -180h-154l180 719h-93l-180 -719h-154l95 376h-18q-121 0 -175.5 64.5t-25.5 181.5t119.5 178.5t221.5 61.5h400z" />
    <glyph glyph-name="periodcentered" unicode="&#xb7;" horiz-adv-x="320" 
d="M251 231h-188l46 182h187z" />
    <glyph glyph-name="periodcentered" unicode="&#x22c5;" horiz-adv-x="320" 
d="M251 231h-188l46 182h187z" />
    <glyph glyph-name="periodcentered" unicode="&#x2219;" horiz-adv-x="320" 
d="M251 231h-188l46 182h187z" />
    <glyph glyph-name="cedilla" unicode="&#xb8;" horiz-adv-x="322" 
d="M109 -180h-157q63 46 63 74q0 18 -25 35l66 79h127l-37 -44q29 -26 29 -55q0 -47 -66 -89z" />
    <glyph glyph-name="onesuperior" unicode="&#xb9;" horiz-adv-x="390" 
d="M341 338h-162l69 279q-39 -28 -124 -28l30 122q50 0 90.5 18t59.5 49h145z" />
    <glyph glyph-name="ordmasculine" unicode="&#xba;" horiz-adv-x="555" 
d="M444 558q14 55 -1.5 86.5t-56.5 31.5t-72 -31.5t-45 -86.5q-13 -55 2 -86.5t56 -31.5t72.5 31.5t44.5 86.5zM589 550q-27 -109 -102.5 -166.5t-180.5 -57.5q-107 0 -158.5 64t-23.5 176q27 109 102.5 166.5t180.5 57.5q107 0 158.5 -64t23.5 -176zM469 146h-431l29 114
h431z" />
    <glyph glyph-name="guillemotright" unicode="&#xbb;" horiz-adv-x="684" 
d="M400 483l145 54l92 -261l-213 -246l-118 71l143 190zM129 467l145 54l83 -245l-197 -230l-119 70l128 175z" />
    <glyph glyph-name="onequarter" unicode="&#xbc;" horiz-adv-x="995" 
d="M771 778h170l-761 -874h-169zM341 338h-162l69 279q-39 -28 -124 -28l30 122q50 0 90.5 18t59.5 49h145zM807 -96h-160l20 78h-245l32 129l225 233h237l-61 -244h69l-29 -118h-69zM594 97q52 3 102 3l19 76q6 24 16 59h-4z" />
    <glyph glyph-name="onehalf" unicode="&#xbd;" horiz-adv-x="1024" 
d="M771 778h170l-761 -874h-169zM341 338h-162l69 279q-39 -28 -124 -28l30 122q50 0 90.5 18t59.5 49h145zM907 24l-30 -120h-418l35 139q180 76 229 103t56 58q10 41 -36 41q-45 0 -55 -39q-5 -21 -5 -41h-149q-2 17 4 45q18 74 79 110t153 36q103 0 149.5 -42t28.5 -116
q-14 -55 -74 -95t-182 -77l-1 -5q81 3 139 3h77z" />
    <glyph glyph-name="threequarters" unicode="&#xbe;" horiz-adv-x="1127" 
d="M903 778h170l-761 -874h-169zM938 -96h-160l20 78h-245l32 129l225 233h237l-61 -244h69l-29 -118h-69zM725 97q53 3 102 3l19 76q6 24 16 59h-4zM106 474l150 12q-4 -58 53 -58q46 0 57 41q6 23 -8.5 34t-48.5 11h-47l23 92h41q43 0 62 16q13 10 18 28t-4 28.5t-30 10.5
q-55 0 -80 -46l-138 27q58 120 241 120q96 0 146.5 -35t35.5 -99q-19 -71 -107 -90l-1 -3q91 -22 68 -109q-15 -61 -78 -94.5t-169 -33.5q-98 0 -147 37.5t-37 110.5z" />
    <glyph glyph-name="questiondown" unicode="&#xbf;" horiz-adv-x="647" 
d="M317 606h180l-41 -164h-180zM429 390l-10 -57q-7 -41 -30 -71.5t-51 -48.5t-56.5 -33.5t-50.5 -35.5t-29 -46q-8 -30 12 -50.5t60 -20.5q41 0 71 25.5t39 63.5q6 23 10 51h170q0 -25 -8 -57q-26 -104 -106.5 -162t-201.5 -58q-126 0 -189 60t-40 152q12 50 39.5 85.5
t58.5 54.5t61.5 34t54 33.5t30.5 42.5l11 38h155z" />
    <glyph glyph-name="Agrave" unicode="&#xc0;" horiz-adv-x="713" 
d="M357 682h219l68 -682h-193l-7 126h-231l-68 -126h-197zM345 369l-62 -115h155l-6 114q-4 90 0 174h-4q-31 -77 -83 -173zM535 884l44 -150h-147l-105 150h208z" />
    <glyph glyph-name="Aacute" unicode="&#xc1;" horiz-adv-x="713" 
d="M357 682h219l68 -682h-193l-7 126h-231l-68 -126h-197zM345 369l-62 -115h155l-6 114q-4 90 0 174h-4q-31 -77 -83 -173zM374 734l121 150h221l-180 -150h-162z" />
    <glyph glyph-name="Acircumflex" unicode="&#xc2;" horiz-adv-x="713" 
d="M357 682h219l68 -682h-193l-7 126h-231l-68 -126h-197zM345 369l-62 -115h155l-6 114q-4 90 0 174h-4q-31 -77 -83 -173zM267 737l144 150h212l71 -150h-148l-44 66l-76 -66h-159z" />
    <glyph glyph-name="Atilde" unicode="&#xc3;" horiz-adv-x="713" 
d="M357 682h219l68 -682h-193l-7 126h-231l-68 -126h-197zM345 369l-62 -115h155l-6 114q-4 90 0 174h-4q-31 -77 -83 -173zM382 734h-126q17 80 61.5 119.5t122.5 39.5q38 0 67.5 -11t47 -22t27.5 -11q11 0 18.5 7.5t13.5 27.5h126q-17 -80 -61.5 -119.5t-122.5 -39.5
q-38 0 -67.5 11t-47 22t-27.5 11q-11 0 -18.5 -7.5t-13.5 -27.5z" />
    <glyph glyph-name="Adieresis" unicode="&#xc4;" horiz-adv-x="713" 
d="M357 682h219l68 -682h-193l-7 126h-231l-68 -126h-197zM345 369l-62 -115h155l-6 114q-4 90 0 174h-4q-31 -77 -83 -173zM434 734h-160l38 150h160zM684 734h-160l38 150h160z" />
    <glyph glyph-name="Aring" unicode="&#xc5;" horiz-adv-x="713" 
d="M357 682h219l68 -682h-193l-7 126h-231l-68 -126h-197zM345 369l-62 -115h155l-6 114q-4 90 0 174h-4q-31 -77 -83 -173zM655 827q-12 -48 -56 -78.5t-117 -30.5q-75 0 -108.5 34.5t-20.5 88.5q12 48 56 78.5t117 30.5q75 0 109 -34.5t20 -88.5zM536 834q9 38 -22 38
q-33 0 -42 -38t23 -38t41 38z" />
    <glyph glyph-name="AE" unicode="&#xc6;" horiz-adv-x="996" 
d="M389 682h658l-33 -132h-322l-35 -139h275l-31 -128h-276l-37 -150h339l-33 -133h-513l27 109h-215l-67 -109h-199zM481 550l-204 -314h163l78 314h-37z" />
    <glyph glyph-name="Ccedilla" unicode="&#xc7;" horiz-adv-x="715" 
d="M322 -180h-168q63 46 63 74q0 18 -25 35l51 62q-114 26 -163.5 123t-14.5 238q43 173 156 260.5t253 87.5q110 0 183 -57t83 -160l-173 -53q-10 117 -113 117q-68 0 -126 -55t-83 -153q-23 -93 7 -147.5t103 -54.5q53 0 96 32t82 106l145 -65q-93 -202 -302 -225l-17 -21
q29 -26 29 -55q0 -47 -66 -89z" />
    <glyph glyph-name="Egrave" unicode="&#xc8;" horiz-adv-x="655" 
d="M12 0l170 682h524l-33 -132h-349l-36 -139h304l-33 -128h-303l-37 -150h367l-33 -133h-541zM524 884l44 -150h-147l-105 150h208z" />
    <glyph glyph-name="Eacute" unicode="&#xc9;" horiz-adv-x="655" 
d="M12 0l170 682h524l-33 -132h-349l-36 -139h304l-33 -128h-303l-37 -150h367l-33 -133h-541zM363 734l121 150h221l-180 -150h-162z" />
    <glyph glyph-name="Ecircumflex" unicode="&#xca;" horiz-adv-x="655" 
d="M12 0l170 682h524l-33 -132h-349l-36 -139h304l-33 -128h-303l-37 -150h367l-33 -133h-541zM256 737l144 150h212l71 -150h-148l-44 66l-76 -66h-159z" />
    <glyph glyph-name="Edieresis" unicode="&#xcb;" horiz-adv-x="655" 
d="M12 0l170 682h524l-33 -132h-349l-36 -139h304l-33 -128h-303l-37 -150h367l-33 -133h-541zM423 734h-160l38 150h160zM673 734h-160l38 150h160z" />
    <glyph glyph-name="Igrave" unicode="&#xcc;" horiz-adv-x="318" 
d="M12 0l170 682h174l-170 -682h-174zM338 884l44 -150h-147l-105 150h208z" />
    <glyph glyph-name="Iacute" unicode="&#xcd;" horiz-adv-x="318" 
d="M12 0l170 682h174l-170 -682h-174zM179 734l121 150h221l-180 -150h-162z" />
    <glyph glyph-name="Icircumflex" unicode="&#xce;" horiz-adv-x="318" 
d="M12 0l170 682h174l-170 -682h-174zM70 737l144 150h212l71 -150h-148l-44 66l-76 -66h-159z" />
    <glyph glyph-name="Idieresis" unicode="&#xcf;" horiz-adv-x="318" 
d="M12 0l170 682h174l-170 -682h-174zM237 734h-160l38 150h160zM487 734h-160l38 150h160z" />
    <glyph glyph-name="Eth" unicode="&#xd0;" horiz-adv-x="765" 
d="M265 282l-35 -141q42 -3 86 -3q102 0 160 46q67 54 93 157q25 105 -14 158q-21 28 -53.5 36.5t-90.5 8.5q-56 0 -81 -1l-32 -131h166l-33 -130h-166zM22 0l70 282h-80l33 130h80l67 270q140 2 251 2q197 0 273 -101q74 -100 36 -251q-38 -157 -148 -244
q-113 -90 -309 -90q-101 0 -273 2z" />
    <glyph glyph-name="Ntilde" unicode="&#xd1;" horiz-adv-x="762" 
d="M629 0h-199l-109 343q-20 65 -31 141h-4q-23 -135 -60 -281l-50 -203h-164l170 682h214l101 -318q21 -68 31 -141h4q19 115 59 280l44 179h165zM418 734h-126q17 80 61.5 119.5t122.5 39.5q38 0 67.5 -11t47 -22t27.5 -11q11 0 18.5 7.5t13.5 27.5h126
q-17 -80 -61.5 -119.5t-122.5 -39.5q-38 0 -67.5 11t-47 22t-27.5 11q-11 0 -18.5 -7.5t-13.5 -27.5z" />
    <glyph glyph-name="Ograve" unicode="&#xd2;" horiz-adv-x="794" 
d="M598 341q23 93 -10 149t-115 56t-143 -56t-84 -149q-23 -92 10 -148.5t115 -56.5q81 0 142 56t85 149zM779 331q-40 -162 -159.5 -255.5t-279.5 -93.5q-161 0 -239 103t-37 266q40 161 160 255t280 94q161 0 238.5 -103t36.5 -266zM575 884l44 -150h-147l-105 150h208z
" />
    <glyph glyph-name="Oacute" unicode="&#xd3;" horiz-adv-x="794" 
d="M598 341q23 93 -10 149t-115 56t-143 -56t-84 -149q-23 -92 10 -148.5t115 -56.5q81 0 142 56t85 149zM779 331q-40 -162 -159.5 -255.5t-279.5 -93.5q-161 0 -239 103t-37 266q40 161 160 255t280 94q161 0 238.5 -103t36.5 -266zM414 734l121 150h221l-180 -150h-162z
" />
    <glyph glyph-name="Ocircumflex" unicode="&#xd4;" horiz-adv-x="794" 
d="M598 341q23 93 -10 149t-115 56t-143 -56t-84 -149q-23 -92 10 -148.5t115 -56.5q81 0 142 56t85 149zM779 331q-40 -162 -159.5 -255.5t-279.5 -93.5q-161 0 -239 103t-37 266q40 161 160 255t280 94q161 0 238.5 -103t36.5 -266zM308 737l144 150h212l71 -150h-148
l-44 66l-76 -66h-159z" />
    <glyph glyph-name="Otilde" unicode="&#xd5;" horiz-adv-x="794" 
d="M598 341q23 93 -10 149t-115 56t-143 -56t-84 -149q-23 -92 10 -148.5t115 -56.5q81 0 142 56t85 149zM779 331q-40 -162 -159.5 -255.5t-279.5 -93.5q-161 0 -239 103t-37 266q40 161 160 255t280 94q161 0 238.5 -103t36.5 -266zM423 734h-126q17 80 61.5 119.5
t122.5 39.5q38 0 67.5 -11t47 -22t27.5 -11q11 0 18.5 7.5t13.5 27.5h126q-17 -80 -61.5 -119.5t-122.5 -39.5q-38 0 -67.5 11t-47 22t-27.5 11q-11 0 -18.5 -7.5t-13.5 -27.5z" />
    <glyph glyph-name="Odieresis" unicode="&#xd6;" horiz-adv-x="794" 
d="M598 341q23 93 -10 149t-115 56t-143 -56t-84 -149q-23 -92 10 -148.5t115 -56.5q81 0 142 56t85 149zM779 331q-40 -162 -159.5 -255.5t-279.5 -93.5q-161 0 -239 103t-37 266q40 161 160 255t280 94q161 0 238.5 -103t36.5 -266zM475 734h-160l38 150h160zM725 734
h-160l38 150h160z" />
    <glyph glyph-name="multiply" unicode="&#xd7;" 
d="M572 148l-122 -95l-123 169l-207 -169l-84 111l210 166l-126 166l123 95l122 -169l207 169l84 -111l-210 -166z" />
    <glyph glyph-name="Oslash" unicode="&#xd8;" horiz-adv-x="794" 
d="M71 -49l-86 97l90 81q-43 92 -11 222q41 162 160.5 255.5t279.5 93.5q105 0 176 -46l88 75l90 -98l-90 -78q44 -91 11 -222q-40 -162 -159.5 -255.5t-279.5 -93.5q-104 0 -177 46zM612 423l-319 -278q30 -15 76 -15q84 0 146.5 57.5t86.5 153.5q10 41 10 82zM231 261
l319 276q-29 15 -75 15q-84 0 -146.5 -57.5t-86.5 -153.5q-9 -38 -11 -80z" />
    <glyph glyph-name="Ugrave" unicode="&#xd9;" horiz-adv-x="746" 
d="M349 682l-99 -396q-17 -69 9 -110t93 -41q138 0 176 151l99 396h164l-105 -418q-32 -130 -123 -206t-240 -76q-152 0 -216.5 86t-31.5 216l100 398h174zM551 884l44 -150h-147l-105 150h208z" />
    <glyph glyph-name="Uacute" unicode="&#xda;" horiz-adv-x="746" 
d="M349 682l-99 -396q-17 -69 9 -110t93 -41q138 0 176 151l99 396h164l-105 -418q-32 -130 -123 -206t-240 -76q-152 0 -216.5 86t-31.5 216l100 398h174zM390 734l121 150h221l-180 -150h-162z" />
    <glyph glyph-name="Ucircumflex" unicode="&#xdb;" horiz-adv-x="746" 
d="M349 682l-99 -396q-17 -69 9 -110t93 -41q138 0 176 151l99 396h164l-105 -418q-32 -130 -123 -206t-240 -76q-152 0 -216.5 86t-31.5 216l100 398h174zM284 737l144 150h212l71 -150h-148l-44 66l-76 -66h-159z" />
    <glyph glyph-name="Udieresis" unicode="&#xdc;" horiz-adv-x="746" 
d="M349 682l-99 -396q-17 -69 9 -110t93 -41q138 0 176 151l99 396h164l-105 -418q-32 -130 -123 -206t-240 -76q-152 0 -216.5 86t-31.5 216l100 398h174zM451 734h-160l38 150h160zM701 734h-160l38 150h160z" />
    <glyph glyph-name="Yacute" unicode="&#xdd;" horiz-adv-x="658" 
d="M356 0h-174l67 271l-139 411h201l66 -235l178 235h213l-344 -410zM340 734l121 150h221l-180 -150h-162z" />
    <glyph glyph-name="Thorn" unicode="&#xde;" horiz-adv-x="689" 
d="M186 0h-174l170 682h174l-22 -90q12 0 47 0.5t57 0.5q51 0 93.5 -7.5t81.5 -24.5t61 -45t31.5 -70.5t-6.5 -99.5q-31 -122 -124 -173.5t-242 -51.5q-88 0 -117 1zM299 452l-48 -190q35 -1 108 -1q135 0 158 95q12 48 -11.5 72.5t-97.5 24.5t-109 -1z" />
    <glyph glyph-name="germandbls" unicode="&#xdf;" horiz-adv-x="678" 
d="M4 0l121 481q30 120 110.5 177.5t221.5 57.5q137 0 190 -52.5t33 -135.5q-11 -44 -43 -73t-65 -39.5t-61 -23.5t-32 -28q-4 -16 13.5 -31t44 -27.5t52 -35t37 -54t-0.5 -83.5q-39 -149 -240 -149q-100 0 -155 31l52 122q64 -34 122 -34q48 0 55 29q4 17 -13.5 32.5
t-44 28.5t-52 35.5t-36.5 54.5t2 85q11 39 42.5 67.5t63.5 41.5t60 31t33 38q6 23 -14.5 37.5t-66.5 14.5q-119 0 -150 -124l-119 -474h-160z" />
    <glyph glyph-name="agrave" unicode="&#xe0;" horiz-adv-x="555" 
d="M521 320l-23 -87q-19 -76 -55 -233h-145l13 51h-1q-71 -67 -166 -67q-87 0 -124.5 49.5t-19.5 119.5q19 79 101.5 121t257.5 42l3 12q8 34 -9.5 52.5t-60.5 18.5q-75 0 -163 -58l-46 100q117 75 249 75q111 0 162 -51.5t27 -144.5zM330 201l3 11q-89 0 -124 -15.5
t-43 -45.5q-11 -48 43 -48q38 0 74 27t47 71zM401 706l46 -150h-138l-103 150h195z" />
    <glyph glyph-name="aacute" unicode="&#xe1;" horiz-adv-x="555" 
d="M521 320l-23 -87q-19 -76 -55 -233h-145l13 51h-1q-71 -67 -166 -67q-87 0 -124.5 49.5t-19.5 119.5q19 79 101.5 121t257.5 42l3 12q8 34 -9.5 52.5t-60.5 18.5q-75 0 -163 -58l-46 100q117 75 249 75q111 0 162 -51.5t27 -144.5zM330 201l3 11q-89 0 -124 -15.5
t-43 -45.5q-11 -48 43 -48q38 0 74 27t47 71zM256 556l120 150h210l-179 -150h-151z" />
    <glyph glyph-name="acircumflex" unicode="&#xe2;" horiz-adv-x="555" 
d="M521 320l-23 -87q-19 -76 -55 -233h-145l13 51h-1q-71 -67 -166 -67q-87 0 -124.5 49.5t-19.5 119.5q19 79 101.5 121t257.5 42l3 12q8 34 -9.5 52.5t-60.5 18.5q-75 0 -163 -58l-46 100q117 75 249 75q111 0 162 -51.5t27 -144.5zM330 201l3 11q-89 0 -124 -15.5
t-43 -45.5q-11 -48 43 -48q38 0 74 27t47 71zM150 556l146 150h192l70 -150h-137l-44 66l-76 -66h-151z" />
    <glyph glyph-name="atilde" unicode="&#xe3;" horiz-adv-x="555" 
d="M521 320l-23 -87q-19 -76 -55 -233h-145l13 51h-1q-71 -67 -166 -67q-87 0 -124.5 49.5t-19.5 119.5q19 79 101.5 121t257.5 42l3 12q8 34 -9.5 52.5t-60.5 18.5q-75 0 -163 -58l-46 100q117 75 249 75q111 0 162 -51.5t27 -144.5zM330 201l3 11q-89 0 -124 -15.5
t-43 -45.5q-11 -48 43 -48q38 0 74 27t47 71zM260 560h-113q15 79 56.5 117.5t116.5 38.5q36 0 63.5 -10t45 -20.5t27.5 -10.5q23 0 33 35h113q-15 -79 -56.5 -117.5t-116.5 -38.5q-36 0 -63.5 10t-45 20.5t-27.5 10.5q-23 0 -33 -35z" />
    <glyph glyph-name="adieresis" unicode="&#xe4;" horiz-adv-x="555" 
d="M521 320l-23 -87q-19 -76 -55 -233h-145l13 51h-1q-71 -67 -166 -67q-87 0 -124.5 49.5t-19.5 119.5q19 79 101.5 121t257.5 42l3 12q8 34 -9.5 52.5t-60.5 18.5q-75 0 -163 -58l-46 100q117 75 249 75q111 0 162 -51.5t27 -144.5zM330 201l3 11q-89 0 -124 -15.5
t-43 -45.5q-11 -48 43 -48q38 0 74 27t47 71zM321 556h-150l37 150h150zM541 556h-150l37 150h150z" />
    <glyph glyph-name="aring" unicode="&#xe5;" horiz-adv-x="555" 
d="M521 320l-23 -87q-19 -76 -55 -233h-145l13 51h-1q-71 -67 -166 -67q-87 0 -124.5 49.5t-19.5 119.5q19 79 101.5 121t257.5 42l3 12q8 34 -9.5 52.5t-60.5 18.5q-75 0 -163 -58l-46 100q117 75 249 75q111 0 162 -51.5t27 -144.5zM330 201l3 11q-89 0 -124 -15.5
t-43 -45.5q-11 -48 43 -48q38 0 74 27t47 71zM533 659q-12 -48 -56 -78.5t-117 -30.5q-75 0 -108.5 34.5t-20.5 88.5q12 48 56 78.5t117 30.5q75 0 109 -34.5t20 -88.5zM414 666q9 38 -22 38q-33 0 -42 -38t23 -38t41 38z" />
    <glyph glyph-name="ae" unicode="&#xe6;" horiz-adv-x="890" 
d="M757 158l43 -104q-113 -70 -243 -70q-153 0 -192 101q-81 -101 -221 -101q-87 0 -124.5 49.5t-19.5 119.5q19 79 101.5 121t257.5 42l3 12q8 34 -9.5 52.5t-60.5 18.5q-75 0 -163 -58l-46 100q117 75 249 75q114 0 153 -54q68 54 176 54q120 0 175 -72t24 -196
q-8 -34 -17 -48h-351q-4 -51 20.5 -73.5t76.5 -22.5q87 0 168 54zM640 400q-81 0 -121 -96h186q9 45 -8 70.5t-57 25.5zM330 201l3 11q-89 0 -124 -15.5t-43 -45.5q-11 -48 43 -48q38 0 74 27t47 71z" />
    <glyph glyph-name="ccedilla" unicode="&#xe7;" horiz-adv-x="547" 
d="M221 -180h-157q63 46 63 74q0 18 -25 35l55 67q-79 24 -112 94.5t-8 170.5q31 124 114.5 189.5t196.5 65.5q97 0 152 -42t64 -116l-155 -42q-7 71 -75 71q-44 0 -79 -36t-51 -101q-15 -62 1 -99.5t62 -37.5q74 0 124 95l110 -74q-83 -133 -225 -148l-18 -22
q29 -26 29 -55q0 -47 -66 -89z" />
    <glyph glyph-name="egrave" unicode="&#xe8;" horiz-adv-x="591" 
d="M458 158l43 -104q-113 -70 -243 -70q-132 0 -192.5 74t-27.5 203q31 124 117.5 189.5t206.5 65.5t175 -72t24 -196q-8 -34 -17 -48h-351q-4 -51 20.5 -73.5t76.5 -22.5q87 0 168 54zM341 400q-81 0 -121 -96h186q9 45 -8 70.5t-57 25.5zM419 706l46 -150h-138l-103 150
h195z" />
    <glyph glyph-name="eacute" unicode="&#xe9;" horiz-adv-x="591" 
d="M458 158l43 -104q-113 -70 -243 -70q-132 0 -192.5 74t-27.5 203q31 124 117.5 189.5t206.5 65.5t175 -72t24 -196q-8 -34 -17 -48h-351q-4 -51 20.5 -73.5t76.5 -22.5q87 0 168 54zM341 400q-81 0 -121 -96h186q9 45 -8 70.5t-57 25.5zM274 556l120 150h210l-179 -150
h-151z" />
    <glyph glyph-name="ecircumflex" unicode="&#xea;" horiz-adv-x="591" 
d="M458 158l43 -104q-113 -70 -243 -70q-132 0 -192.5 74t-27.5 203q31 124 117.5 189.5t206.5 65.5t175 -72t24 -196q-8 -34 -17 -48h-351q-4 -51 20.5 -73.5t76.5 -22.5q87 0 168 54zM341 400q-81 0 -121 -96h186q9 45 -8 70.5t-57 25.5zM168 556l146 150h192l70 -150
h-137l-44 66l-76 -66h-151z" />
    <glyph glyph-name="edieresis" unicode="&#xeb;" horiz-adv-x="591" 
d="M458 158l43 -104q-113 -70 -243 -70q-132 0 -192.5 74t-27.5 203q31 124 117.5 189.5t206.5 65.5t175 -72t24 -196q-8 -34 -17 -48h-351q-4 -51 20.5 -73.5t76.5 -22.5q87 0 168 54zM341 400q-81 0 -121 -96h186q9 45 -8 70.5t-57 25.5zM338 556h-150l37 150h150z
M558 556h-150l37 150h150z" />
    <glyph glyph-name="igrave" unicode="&#xec;" horiz-adv-x="290" 
d="M165 0h-160l125 500h160zM269 702l46 -150h-138l-103 150h195z" />
    <glyph glyph-name="iacute" unicode="&#xed;" horiz-adv-x="290" 
d="M165 0h-160l125 500h160zM124 552l120 150h210l-179 -150h-151z" />
    <glyph glyph-name="icircumflex" unicode="&#xee;" horiz-adv-x="290" 
d="M165 0h-160l125 500h160zM18 552l146 150h192l70 -150h-137l-44 66l-76 -66h-151z" />
    <glyph glyph-name="idieresis" unicode="&#xef;" horiz-adv-x="290" 
d="M165 0h-160l125 500h160zM203 552h-140l37 150h140zM383 552h-140l37 150h140z" />
    <glyph glyph-name="eth" unicode="&#xf0;" horiz-adv-x="606" 
d="M244 686l167 42q33 -22 60 -49l137 39l16 -90l-93 -27q92 -152 49 -322q-74 -295 -335 -295q-122 0 -181.5 74t-27.5 198q29 118 110.5 181t183.5 63q58 0 84 -20l3 1q-11 32 -42 76l-146 -42l-17 91l97 27q-27 27 -65 53zM401 242q15 60 -3 93.5t-65 33.5t-81.5 -33.5
t-49.5 -93.5t3 -93.5t65 -33.5t81.5 33.5t49.5 93.5z" />
    <glyph glyph-name="ntilde" unicode="&#xf1;" horiz-adv-x="614" 
d="M498 0h-159l62 250q20 81 14 103q-9 37 -58 37q-38 0 -68 -24q-41 -33 -62 -115l-63 -251h-159l60 241q36 144 61 259h150l-13 -60h1q70 76 164 76q90 0 131 -58.5t15 -161.5zM290 560h-113q15 79 56.5 117.5t116.5 38.5q36 0 63.5 -10t45 -20.5t27.5 -10.5q23 0 33 35
h113q-15 -79 -56.5 -117.5t-116.5 -38.5q-36 0 -63.5 10t-45 20.5t-27.5 10.5q-23 0 -33 -35z" />
    <glyph glyph-name="ograve" unicode="&#xf2;" horiz-adv-x="604" 
d="M403 250q16 63 -2 99t-65 36q-46 0 -81 -36t-51 -99t2 -99t65 -36q46 0 81 36t51 99zM570 239q-31 -125 -117 -190t-206 -65q-122 0 -182 74.5t-28 202.5q31 125 117 190t206 65q122 0 182 -74.5t28 -202.5zM426 706l46 -150h-138l-103 150h195z" />
    <glyph glyph-name="oacute" unicode="&#xf3;" horiz-adv-x="604" 
d="M403 250q16 63 -2 99t-65 36q-46 0 -81 -36t-51 -99t2 -99t65 -36q46 0 81 36t51 99zM570 239q-31 -125 -117 -190t-206 -65q-122 0 -182 74.5t-28 202.5q31 125 117 190t206 65q122 0 182 -74.5t28 -202.5zM281 556l120 150h210l-179 -150h-151z" />
    <glyph glyph-name="ocircumflex" unicode="&#xf4;" horiz-adv-x="604" 
d="M403 250q16 63 -2 99t-65 36q-46 0 -81 -36t-51 -99t2 -99t65 -36q46 0 81 36t51 99zM570 239q-31 -125 -117 -190t-206 -65q-122 0 -182 74.5t-28 202.5q31 125 117 190t206 65q122 0 182 -74.5t28 -202.5zM175 556l146 150h192l70 -150h-137l-44 66l-76 -66h-151z" />
    <glyph glyph-name="otilde" unicode="&#xf5;" horiz-adv-x="604" 
d="M403 250q16 63 -2 99t-65 36q-46 0 -81 -36t-51 -99t2 -99t65 -36q46 0 81 36t51 99zM570 239q-31 -125 -117 -190t-206 -65q-122 0 -182 74.5t-28 202.5q31 125 117 190t206 65q122 0 182 -74.5t28 -202.5zM285 560h-113q15 79 56.5 117.5t116.5 38.5q36 0 63.5 -10
t45 -20.5t27.5 -10.5q23 0 33 35h113q-15 -79 -56.5 -117.5t-116.5 -38.5q-36 0 -63.5 10t-45 20.5t-27.5 10.5q-23 0 -33 -35z" />
    <glyph glyph-name="odieresis" unicode="&#xf6;" horiz-adv-x="604" 
d="M403 250q16 63 -2 99t-65 36q-46 0 -81 -36t-51 -99t2 -99t65 -36q46 0 81 36t51 99zM570 239q-31 -125 -117 -190t-206 -65q-122 0 -182 74.5t-28 202.5q31 125 117 190t206 65q122 0 182 -74.5t28 -202.5zM345 556h-150l37 150h150zM565 556h-150l37 150h150z" />
    <glyph glyph-name="divide" unicode="&#xf7;" 
d="M352 36h-157l39 159h157zM642 388l-34 -132h-560l34 132h560zM455 449h-156l40 159h156z" />
    <glyph glyph-name="oslash" unicode="&#xf8;" horiz-adv-x="604" 
d="M43 -49l-69 82l70 60q-32 68 -7 168q31 125 117 190t206 65q80 0 131 -32l74 65l69 -82l-71 -61q32 -70 7 -167q-31 -125 -117 -190t-206 -65q-79 0 -131 31zM183 210l197 172q-20 10 -43 10q-50 0 -87.5 -36.5t-53.5 -103.5q-6 -29 -13 -42zM426 290l-198 -172
q16 -10 44 -10q50 0 87 36.5t53 103.5q9 31 14 42z" />
    <glyph glyph-name="ugrave" unicode="&#xf9;" horiz-adv-x="610" 
d="M488 0h-149l13 60h-1q-71 -76 -161 -76q-88 0 -129.5 57.5t-14.5 162.5l74 296h160l-63 -251q-19 -79 -15 -102q9 -37 54 -37q38 0 69 25q42 34 63 118l62 247h160l-61 -241q-44 -173 -61 -259zM429 702l46 -150h-138l-103 150h195z" />
    <glyph glyph-name="uacute" unicode="&#xfa;" horiz-adv-x="610" 
d="M488 0h-149l13 60h-1q-71 -76 -161 -76q-88 0 -129.5 57.5t-14.5 162.5l74 296h160l-63 -251q-19 -79 -15 -102q9 -37 54 -37q38 0 69 25q42 34 63 118l62 247h160l-61 -241q-44 -173 -61 -259zM284 552l120 150h210l-179 -150h-151z" />
    <glyph glyph-name="ucircumflex" unicode="&#xfb;" horiz-adv-x="610" 
d="M488 0h-149l13 60h-1q-71 -76 -161 -76q-88 0 -129.5 57.5t-14.5 162.5l74 296h160l-63 -251q-19 -79 -15 -102q9 -37 54 -37q38 0 69 25q42 34 63 118l62 247h160l-61 -241q-44 -173 -61 -259zM178 552l146 150h192l70 -150h-137l-44 66l-76 -66h-151z" />
    <glyph glyph-name="udieresis" unicode="&#xfc;" horiz-adv-x="610" 
d="M488 0h-149l13 60h-1q-71 -76 -161 -76q-88 0 -129.5 57.5t-14.5 162.5l74 296h160l-63 -251q-19 -79 -15 -102q9 -37 54 -37q38 0 69 25q42 34 63 118l62 247h160l-61 -241q-44 -173 -61 -259zM348 552h-150l37 150h150zM568 552h-150l37 150h150z" />
    <glyph glyph-name="yacute" unicode="&#xfd;" horiz-adv-x="538" 
d="M199 -180h-189l104 150l-52 530h169l9 -195q3 -99 -1 -157h3q25 57 76 157l100 195h188zM241 552l120 150h210l-179 -150h-151z" />
    <glyph glyph-name="thorn" unicode="&#xfe;" horiz-adv-x="621" 
d="M226 257l-4 -15q-15 -58 1.5 -95t61.5 -37q47 0 83.5 38.5t52.5 101.5q17 60 1.5 100t-63.5 40q-44 0 -80.5 -35.5t-52.5 -97.5zM-41 -180l221 882h160l-40 -159q-16 -60 -32 -97h2q68 70 160 70q102 0 145 -79.5t13 -197.5q-29 -118 -106 -186.5t-183 -68.5
q-44 0 -79 15t-49 40h-1q-5 -40 -16 -82l-35 -137h-160z" />
    <glyph glyph-name="ydieresis" unicode="&#xff;" horiz-adv-x="538" 
d="M199 -180h-189l104 150l-52 530h169l9 -195q3 -99 -1 -157h3q25 57 76 157l100 195h188zM306 552h-150l37 150h150zM526 552h-150l37 150h150z" />
    <glyph glyph-name="Amacron" unicode="&#x100;" horiz-adv-x="713" 
d="M357 682h219l68 -682h-193l-7 126h-231l-68 -126h-197zM345 369l-62 -115h155l-6 114q-4 90 0 174h-4q-31 -77 -83 -173zM697 873l-33 -132h-366l33 132h366z" />
    <glyph glyph-name="amacron" unicode="&#x101;" horiz-adv-x="555" 
d="M521 320l-23 -87q-19 -76 -55 -233h-145l13 51h-1q-71 -67 -166 -67q-87 0 -124.5 49.5t-19.5 119.5q19 79 101.5 121t257.5 42l3 12q8 34 -9.5 52.5t-60.5 18.5q-75 0 -163 -58l-46 100q117 75 249 75q111 0 162 -51.5t27 -144.5zM330 201l3 11q-89 0 -124 -15.5
t-43 -45.5q-11 -48 43 -48q38 0 74 27t47 71zM561 691l-32 -128h-346l32 128h346z" />
    <glyph glyph-name="Abreve" unicode="&#x102;" horiz-adv-x="713" 
d="M357 682h219l68 -682h-193l-7 126h-231l-68 -126h-197zM345 369l-62 -115h155l-6 114q-4 90 0 174h-4q-31 -77 -83 -173zM582 908h130q-22 -96 -79.5 -136.5t-146.5 -40.5q-88 0 -134 42.5t-18 134.5h129q-22 -59 45 -59t74 59z" />
    <glyph glyph-name="abreve" unicode="&#x103;" horiz-adv-x="555" 
d="M521 320l-23 -87q-19 -76 -55 -233h-145l13 51h-1q-71 -67 -166 -67q-87 0 -124.5 49.5t-19.5 119.5q19 79 101.5 121t257.5 42l3 12q8 34 -9.5 52.5t-60.5 18.5q-75 0 -163 -58l-46 100q117 75 249 75q111 0 162 -51.5t27 -144.5zM330 201l3 11q-89 0 -124 -15.5
t-43 -45.5q-11 -48 43 -48q38 0 74 27t47 71zM453 724h119q-35 -170 -212 -170q-83 0 -124 42t-15 128h119q-17 -57 42 -57t71 57z" />
    <glyph glyph-name="Aogonek" unicode="&#x104;" horiz-adv-x="713" 
d="M613 -99l-21 -83q-24 -12 -74 -12q-139 0 -139 70q0 57 93 124h-21l-7 126h-231l-68 -126h-197l409 682h219l68 -681q-41 -18 -65.5 -43t-24.5 -42q0 -15 26 -15h33zM345 369l-63 -115h156l-6 114q-4 90 0 174h-4q-31 -77 -83 -173z" />
    <glyph glyph-name="aogonek" unicode="&#x105;" horiz-adv-x="555" 
d="M429 -103l-21 -79q-27 -12 -74 -12q-129 0 -129 70q0 60 95 126l11 49h-1q-71 -67 -166 -67q-87 0 -124.5 49.5t-19.5 119.5q19 79 101.5 121t257.5 42l3 12q8 34 -9.5 52.5t-60.5 18.5q-75 0 -163 -58l-46 100q117 75 249 75q111 0 162 -51.5t27 -144.5l-23 -87
q-40 -151 -55 -233q-74 -61 -74 -88q0 -15 26 -15h34zM330 201l3 11q-89 0 -124 -15.5t-43 -45.5q-11 -48 43 -48q38 0 74 27t47 71z" />
    <glyph glyph-name="Cacute" unicode="&#x106;" horiz-adv-x="715" 
d="M533 275l145 -65q-104 -228 -354 -228q-153 0 -226.5 102.5t-32.5 267.5q43 173 156 260.5t253 87.5q110 0 183 -57t83 -160l-173 -53q-10 117 -113 117q-68 0 -126 -55t-83 -153q-23 -93 7 -147.5t103 -54.5q53 0 96 32t82 106zM399 734l121 150h221l-180 -150h-162z
" />
    <glyph glyph-name="cacute" unicode="&#x107;" horiz-adv-x="547" 
d="M391 208l110 -74q-94 -150 -260 -150q-120 0 -177.5 76t-26.5 201q31 124 114.5 189.5t196.5 65.5q97 0 152 -42t64 -116l-155 -42q-7 71 -75 71q-44 0 -79 -36t-51 -101q-15 -62 1 -99.5t62 -37.5q74 0 124 95zM274 556l120 150h210l-179 -150h-151z" />
    <glyph glyph-name="Ccircumflex" unicode="&#x108;" horiz-adv-x="715" 
d="M533 275l145 -65q-104 -228 -354 -228q-153 0 -226.5 102.5t-32.5 267.5q43 173 156 260.5t253 87.5q110 0 183 -57t83 -160l-173 -53q-10 117 -113 117q-68 0 -126 -55t-83 -153q-23 -93 7 -147.5t103 -54.5q53 0 96 32t82 106zM292 737l144 150h212l71 -150h-148
l-44 66l-76 -66h-159z" />
    <glyph glyph-name="ccircumflex" unicode="&#x109;" horiz-adv-x="547" 
d="M391 208l110 -74q-94 -150 -260 -150q-120 0 -177.5 76t-26.5 201q31 124 114.5 189.5t196.5 65.5q97 0 152 -42t64 -116l-155 -42q-7 71 -75 71q-44 0 -79 -36t-51 -101q-15 -62 1 -99.5t62 -37.5q74 0 124 95zM168 556l146 150h192l70 -150h-137l-44 66l-76 -66h-151z
" />
    <glyph glyph-name="Cdotaccent" unicode="&#x10a;" horiz-adv-x="715" 
d="M533 275l145 -65q-104 -228 -354 -228q-153 0 -226.5 102.5t-32.5 267.5q43 173 156 260.5t253 87.5q110 0 183 -57t83 -160l-173 -53q-10 117 -113 117q-68 0 -126 -55t-83 -153q-23 -93 7 -147.5t103 -54.5q53 0 96 32t82 106zM590 734h-172l38 150h172z" />
    <glyph glyph-name="cdotaccent" unicode="&#x10b;" horiz-adv-x="547" 
d="M391 208l110 -74q-94 -150 -260 -150q-120 0 -177.5 76t-26.5 201q31 124 114.5 189.5t196.5 65.5q97 0 152 -42t64 -116l-155 -42q-7 71 -75 71q-44 0 -79 -36t-51 -101q-15 -62 1 -99.5t62 -37.5q74 0 124 95zM455 556h-162l37 150h162z" />
    <glyph glyph-name="Ccaron" unicode="&#x10c;" horiz-adv-x="715" 
d="M533 275l145 -65q-104 -228 -354 -228q-153 0 -226.5 102.5t-32.5 267.5q43 173 156 260.5t253 87.5q110 0 183 -57t83 -160l-173 -53q-10 117 -113 117q-68 0 -126 -55t-83 -153q-23 -93 7 -147.5t103 -54.5q53 0 96 32t82 106zM757 887l-146 -150h-212l-70 150h147
l44 -66l76 66h161z" />
    <glyph glyph-name="ccaron" unicode="&#x10d;" horiz-adv-x="547" 
d="M391 208l110 -74q-94 -150 -260 -150q-120 0 -177.5 76t-26.5 201q31 124 114.5 189.5t196.5 65.5q97 0 152 -42t64 -116l-155 -42q-7 71 -75 71q-44 0 -79 -36t-51 -101q-15 -62 1 -99.5t62 -37.5q74 0 124 95zM614 706l-145 -150h-192l-71 150h138l44 -66l76 66h150z
" />
    <glyph glyph-name="Dcaron" unicode="&#x10e;" horiz-adv-x="755" 
d="M320 543l-100 -402q42 -3 86 -3q102 0 160 46q67 54 93 157q25 105 -14 158q-21 28 -53.5 36.5t-90.5 8.5q-56 0 -81 -1zM12 0l170 682q140 2 251 2q197 0 273 -101q74 -100 36 -251q-38 -157 -148 -244q-113 -90 -309 -90q-101 0 -273 2zM733 887l-146 -150h-212
l-70 150h147l44 -66l76 66h161z" />
    <glyph glyph-name="dcaron" unicode="&#x10f;" horiz-adv-x="706" 
d="M399 243l4 15q15 58 -1.5 95t-61.5 37q-47 0 -83.5 -38.5t-52.5 -101.5q-17 -60 -1.5 -100t63.5 -40q44 0 80.5 35.5t52.5 97.5zM499 0h-149l12 60h-1q-70 -76 -166 -76q-102 0 -145 79.5t-13 197.5q29 118 106 186.5t183 68.5q44 0 79 -15t49 -40h1q8 51 16 82l40 159
h160l-113 -452q-37 -146 -59 -250zM675 566l69 194h163l-101 -194h-131z" />
    <glyph glyph-name="Dcroat" unicode="&#x110;" horiz-adv-x="765" 
d="M265 282l-35 -141q42 -3 86 -3q102 0 160 46q67 54 93 157q25 105 -14 158q-21 28 -53.5 36.5t-90.5 8.5q-56 0 -81 -1l-32 -131h166l-33 -130h-166zM22 0l70 282h-80l33 130h80l67 270q140 2 251 2q197 0 273 -101q74 -100 36 -251q-38 -157 -148 -244
q-113 -90 -309 -90q-101 0 -273 2z" />
    <glyph glyph-name="dcroat" unicode="&#x111;" horiz-adv-x="621" 
d="M499 0h-149l12 60h-1q-70 -76 -166 -76q-102 0 -145 79.5t-13 197.5q29 118 106 186.5t183 68.5q44 0 79 -15t49 -40h1q6 44 14 73l5 19h-96l29 117h96l12 49h160l-12 -49h61l-29 -117h-61l-76 -303q-37 -146 -59 -250zM399 243l4 15q15 58 -1.5 95t-61.5 37
q-47 0 -83.5 -38.5t-52.5 -101.5q-17 -60 -1.5 -100t63.5 -40q44 0 81 35.5t52 97.5z" />
    <glyph glyph-name="Emacron" unicode="&#x112;" horiz-adv-x="655" 
d="M12 0l170 682h524l-33 -132h-349l-36 -139h304l-33 -128h-303l-37 -150h367l-33 -133h-541zM686 873l-33 -132h-366l33 132h366z" />
    <glyph glyph-name="emacron" unicode="&#x113;" horiz-adv-x="591" 
d="M458 158l43 -104q-113 -70 -243 -70q-132 0 -192.5 74t-27.5 203q31 124 117.5 189.5t206.5 65.5t175 -72t24 -196q-8 -34 -17 -48h-351q-4 -51 20.5 -73.5t76.5 -22.5q87 0 168 54zM341 400q-81 0 -121 -96h186q9 45 -8 70.5t-57 25.5zM579 691l-32 -128h-346l32 128
h346z" />
    <glyph glyph-name="Ebreve" unicode="&#x114;" horiz-adv-x="655" 
d="M12 0l170 682h524l-33 -132h-349l-36 -139h304l-33 -128h-303l-37 -150h367l-33 -133h-541zM571 908h130q-22 -96 -79.5 -136.5t-146.5 -40.5q-88 0 -134 42.5t-18 134.5h129q-22 -59 45 -59t74 59z" />
    <glyph glyph-name="ebreve" unicode="&#x115;" horiz-adv-x="591" 
d="M458 158l43 -104q-113 -70 -243 -70q-132 0 -192.5 74t-27.5 203q31 124 117.5 189.5t206.5 65.5t175 -72t24 -196q-8 -34 -17 -48h-351q-4 -51 20.5 -73.5t76.5 -22.5q87 0 168 54zM341 400q-81 0 -121 -96h186q9 45 -8 70.5t-57 25.5zM471 724h119q-35 -170 -212 -170
q-83 0 -124 42t-15 128h119q-17 -57 42 -57t71 57z" />
    <glyph glyph-name="Edotaccent" unicode="&#x116;" horiz-adv-x="655" 
d="M12 0l170 682h524l-33 -132h-349l-36 -139h304l-33 -128h-303l-37 -150h367l-33 -133h-541zM554 734h-172l38 150h172z" />
    <glyph glyph-name="edotaccent" unicode="&#x117;" horiz-adv-x="591" 
d="M458 158l43 -104q-113 -70 -243 -70q-132 0 -192.5 74t-27.5 203q31 124 117.5 189.5t206.5 65.5t175 -72t24 -196q-8 -34 -17 -48h-351q-4 -51 20.5 -73.5t76.5 -22.5q87 0 168 54zM341 400q-81 0 -121 -96h186q9 45 -8 70.5t-57 25.5zM455 556h-162l37 150h162z" />
    <glyph glyph-name="Eogonek" unicode="&#x118;" horiz-adv-x="655" 
d="M528 -99l-21 -83q-24 -12 -74 -12q-139 0 -139 70q0 66 103 124h-385l170 682h524l-33 -132h-349l-36 -139h304l-33 -128h-303l-37 -150h367l-34 -133q-83 -48 -83 -84q0 -15 26 -15h33z" />
    <glyph glyph-name="eogonek" unicode="&#x119;" horiz-adv-x="591" 
d="M430 -103l-20 -79q-29 -12 -74 -12q-129 0 -129 70q0 56 76 110q-12 -2 -25 -2q-132 0 -192.5 74t-27.5 203q31 124 117.5 189.5t206.5 65.5t175 -72t24 -196q-8 -34 -17 -48h-351q-4 -51 20.5 -73.5t76.5 -22.5q82 0 168 54l40 -97q-10 -13 -43 -44q-49 -46 -66.5 -68
t-17.5 -37t26 -15h33zM220 304h186q9 45 -8 70.5t-57 25.5q-81 0 -121 -96z" />
    <glyph glyph-name="Ecaron" unicode="&#x11a;" horiz-adv-x="655" 
d="M12 0l170 682h524l-33 -132h-349l-36 -139h304l-33 -128h-303l-37 -150h367l-33 -133h-541zM721 887l-146 -150h-212l-70 150h147l44 -66l76 66h161z" />
    <glyph glyph-name="ecaron" unicode="&#x11b;" horiz-adv-x="591" 
d="M458 158l43 -104q-113 -70 -243 -70q-132 0 -192.5 74t-27.5 203q31 124 117.5 189.5t206.5 65.5t175 -72t24 -196q-8 -34 -17 -48h-351q-4 -51 20.5 -73.5t76.5 -22.5q87 0 168 54zM341 400q-81 0 -121 -96h186q9 45 -8 70.5t-57 25.5zM614 706l-145 -150h-192l-71 150
h138l44 -66l76 66h150z" />
    <glyph glyph-name="Gcircumflex" unicode="&#x11c;" horiz-adv-x="777" 
d="M652 0h-144l16 60h-1q-44 -39 -90 -58.5t-116 -19.5q-146 0 -220 102.5t-33 266.5q40 162 156.5 255.5t277.5 93.5q203 0 281 -140l-161 -101q-37 88 -145 88q-81 0 -142.5 -58t-85.5 -152q-24 -96 9 -151t115 -55q71 0 117.5 35.5t58.5 85.5v2h-131l32 128h303zM311 737
l144 150h212l71 -150h-148l-44 66l-76 -66h-159z" />
    <glyph glyph-name="gcircumflex" unicode="&#x11d;" horiz-adv-x="621" 
d="M482 500h147q-26 -70 -71 -251q-10 -37 -28 -115t-28 -119q-51 -209 -312 -209q-136 0 -216 44l70 121q76 -47 178 -47q48 0 74.5 21.5t42.5 62.5q10 27 21 56h-2q-67 -68 -160 -68q-103 0 -146.5 75.5t-13.5 194.5q29 114 106 182t182 68q50 0 86.5 -18.5t49.5 -51.5h1z
M402 254l1 4q15 59 -1.5 95.5t-61.5 36.5q-47 0 -83.5 -38t-51.5 -97q-14 -59 1.5 -97t62.5 -38q44 0 81.5 38t51.5 96zM176 556l146 150h192l70 -150h-137l-44 66l-76 -66h-151z" />
    <glyph glyph-name="Gbreve" unicode="&#x11e;" horiz-adv-x="777" 
d="M652 0h-144l16 60h-1q-44 -39 -90 -58.5t-116 -19.5q-146 0 -220 102.5t-33 266.5q40 162 156.5 255.5t277.5 93.5q203 0 281 -140l-161 -101q-37 88 -145 88q-81 0 -142.5 -58t-85.5 -152q-24 -96 9 -151t115 -55q71 0 117.5 35.5t58.5 85.5v2h-131l32 128h303zM626 908
h130q-22 -96 -79.5 -136.5t-146.5 -40.5q-88 0 -134 42.5t-18 134.5h129q-22 -59 45 -59t74 59z" />
    <glyph glyph-name="gbreve" unicode="&#x11f;" horiz-adv-x="621" 
d="M482 500h147q-26 -70 -71 -251q-10 -37 -28 -115t-28 -119q-51 -209 -312 -209q-136 0 -216 44l70 121q76 -47 178 -47q48 0 74.5 21.5t42.5 62.5q10 27 21 56h-2q-67 -68 -160 -68q-103 0 -146.5 75.5t-13.5 194.5q29 114 106 182t182 68q50 0 86.5 -18.5t49.5 -51.5h1z
M402 254l1 4q15 59 -1.5 95.5t-61.5 36.5q-47 0 -83.5 -38t-51.5 -97q-14 -59 1.5 -97t62.5 -38q44 0 81.5 38t51.5 96zM479 724h119q-35 -170 -212 -170q-83 0 -124 42t-15 128h119q-17 -57 42 -57t71 57z" />
    <glyph glyph-name="Gdotaccent" unicode="&#x120;" horiz-adv-x="777" 
d="M652 0h-144l16 60h-1q-44 -39 -90 -58.5t-116 -19.5q-146 0 -220 102.5t-33 266.5q40 162 156.5 255.5t277.5 93.5q203 0 281 -140l-161 -101q-37 88 -145 88q-81 0 -142.5 -58t-85.5 -152q-24 -96 9 -151t115 -55q71 0 117.5 35.5t58.5 85.5v2h-131l32 128h303zM609 734
h-172l38 150h172z" />
    <glyph glyph-name="gdotaccent" unicode="&#x121;" horiz-adv-x="621" 
d="M482 500h147q-26 -70 -71 -251q-10 -37 -28 -115t-28 -119q-51 -209 -312 -209q-136 0 -216 44l70 121q76 -47 178 -47q48 0 74.5 21.5t42.5 62.5q10 27 21 56h-2q-67 -68 -160 -68q-103 0 -146.5 75.5t-13.5 194.5q29 114 106 182t182 68q50 0 86.5 -18.5t49.5 -51.5h1z
M402 254l1 4q15 59 -1.5 95.5t-61.5 36.5q-47 0 -83.5 -38t-51.5 -97q-14 -59 1.5 -97t62.5 -38q44 0 81.5 38t51.5 96zM463 556h-162l37 150h162z" />
    <glyph glyph-name="Gcommaaccent" unicode="&#x122;" horiz-adv-x="777" 
d="M652 0h-144l16 60h-1q-44 -39 -90 -58.5t-116 -19.5q-146 0 -220 102.5t-33 266.5q40 162 156.5 255.5t277.5 93.5q203 0 281 -140l-161 -101q-37 88 -145 88q-81 0 -142.5 -58t-85.5 -152q-24 -96 9 -151t115 -55q71 0 117.5 35.5t58.5 85.5v2h-131l32 128h303zM245 -42
h168l-18 -71q-11 -44 -49 -62.5t-125 -18.5h-34l14 54h16q35 0 40 24h-31z" />
    <glyph glyph-name="gcommaaccent" unicode="&#x123;" horiz-adv-x="621" 
d="M482 500h147q-26 -70 -71 -251q-10 -37 -28 -115t-28 -119q-51 -209 -312 -209q-136 0 -216 44l70 121q76 -47 178 -47q48 0 74.5 21.5t42.5 62.5q10 27 21 56h-2q-67 -68 -160 -68q-103 0 -146.5 75.5t-13.5 194.5q29 114 106 182t182 68q50 0 86.5 -18.5t49.5 -51.5h1z
M402 254l1 4q15 59 -1.5 95.5t-61.5 36.5q-47 0 -83.5 -38t-51.5 -97q-14 -59 1.5 -97t62.5 -38q44 0 81.5 38t51.5 96zM449 556h-158l20 77q11 44 49 63t119 19h31l-15 -57h-19q-31 0 -38 -24h31z" />
    <glyph glyph-name="Hcircumflex" unicode="&#x124;" horiz-adv-x="770" 
d="M12 0l170 682h174l-64 -255h278l64 255h174l-170 -682h-174l70 282h-278l-70 -282h-174zM296 737l144 150h212l71 -150h-148l-44 66l-76 -66h-159z" />
    <glyph glyph-name="hcircumflex" unicode="&#x125;" horiz-adv-x="614" 
d="M4 0l177 702h159l-40 -159q-13 -52 -32 -97h2q68 70 158 70t131.5 -57.5t14.5 -162.5l-76 -296h-160l63 250q20 80 14 103q-9 37 -58 37q-38 0 -68 -24q-42 -33 -62 -115l-62 -251h-161zM220 755l146 150h192l70 -150h-137l-44 66l-76 -66h-151z" />
    <glyph glyph-name="Hbar" unicode="&#x126;" horiz-adv-x="790" 
d="M22 0l118 476h-79l32 130h80l19 76h174l-19 -76h278l19 76h174l-19 -76h80l-33 -130h-80l-118 -476h-174l64 256h-278l-64 -256h-174zM293 390h278l22 86h-278z" />
    <glyph glyph-name="hbar" unicode="&#x127;" horiz-adv-x="614" 
d="M5 0l137 552h-61l30 118h61l12 49h160l-12 -49h96l-30 -118h-96l-2 -10q-17 -59 -32 -96h2q68 70 158 70t131.5 -57.5t14.5 -162.5l-75 -296h-160l62 250q20 80 14 103q-9 37 -58 37q-38 0 -68 -24q-42 -33 -62 -115l-62 -251h-160z" />
    <glyph glyph-name="Itilde" unicode="&#x128;" horiz-adv-x="318" 
d="M12 0l170 682h174l-170 -682h-174zM185 734h-126q17 80 61.5 119.5t122.5 39.5q38 0 67.5 -11t47 -22t27.5 -11q11 0 18.5 7.5t13.5 27.5h126q-17 -80 -61.5 -119.5t-122.5 -39.5q-38 0 -67.5 11t-47 22t-27.5 11q-11 0 -18.5 -7.5t-13.5 -27.5z" />
    <glyph glyph-name="itilde" unicode="&#x129;" horiz-adv-x="290" 
d="M165 0h-160l125 500h160zM145 556h-100q16 81 52.5 120.5t103.5 39.5q26 0 45 -7.5t27.5 -17t17.5 -17t17 -7.5q20 0 32 39h100q-16 -81 -52.5 -120.5t-103.5 -39.5q-26 0 -45 7.5t-27.5 17t-17.5 17t-17 7.5q-20 0 -32 -39z" />
    <glyph glyph-name="Imacron" unicode="&#x12a;" horiz-adv-x="318" 
d="M12 0l170 682h174l-170 -682h-174zM500 873l-33 -132h-366l33 132h366z" />
    <glyph glyph-name="imacron" unicode="&#x12b;" horiz-adv-x="290" 
d="M165 0h-160l125 500h160zM429 687l-32 -128h-346l32 128h346z" />
    <glyph glyph-name="Ibreve" unicode="&#x12c;" horiz-adv-x="318" 
d="M12 0l170 682h174l-170 -682h-174zM385 908h130q-22 -96 -79.5 -136.5t-146.5 -40.5q-88 0 -134 42.5t-18 134.5h129q-22 -59 45 -59t74 59z" />
    <glyph glyph-name="ibreve" unicode="&#x12d;" horiz-adv-x="290" 
d="M165 0h-160l125 500h160zM321 720h119q-35 -170 -212 -170q-83 0 -124 42t-15 128h119q-17 -57 42 -57t71 57z" />
    <glyph glyph-name="Iogonek" unicode="&#x12e;" horiz-adv-x="318" 
d="M177 -99l-21 -83q-24 -12 -74 -12q-139 0 -139 70q0 57 92 124h-23l170 682h174l-170 -682q-68 -57 -68 -84q0 -15 26 -15h33z" />
    <glyph glyph-name="iogonek" unicode="&#x12f;" horiz-adv-x="290" 
d="M303 552h-162l39 150h161zM144 -103l-11 -79q-21 -12 -71 -12q-129 0 -129 70q0 57 92 124h-20l125 500h159l-125 -500q-67 -65 -67 -88q0 -15 26 -15h21z" />
    <glyph glyph-name="Idotaccent" unicode="&#x130;" horiz-adv-x="318" 
d="M12 0l170 682h174l-170 -682h-174zM368 734h-172l38 150h172z" />
    <glyph glyph-name="dotlessi" unicode="&#x131;" horiz-adv-x="290" 
d="M165 0h-160l125 500h160z" />
    <glyph glyph-name="IJ" unicode="&#x132;" horiz-adv-x="895" 
d="M12 0l170 682h174l-170 -682h-174zM766 682h174l-115 -459q-60 -241 -299 -241q-52 0 -94 14t-72.5 43.5t-42.5 80t0 117.5l177 28q-12 -69 1 -100t56 -31q78 0 102 97z" />
    <glyph glyph-name="ij" unicode="&#x133;" horiz-adv-x="592" 
d="M165 0h-160l125 500h160zM304 552h-163l39 150h161zM606 552h-162l37 150h162zM432 500h160l-126 -499q-26 -102 -77.5 -147t-142.5 -45q-38 0 -61 9l31 122h31q29 0 41 17t28 80z" />
    <glyph glyph-name="Jcircumflex" unicode="&#x134;" horiz-adv-x="577" 
d="M448 682h174l-115 -459q-60 -241 -299 -241q-52 0 -94 14t-72.5 43.5t-42.5 80t0 117.5l177 28q-12 -69 1 -100t56 -31q78 0 102 97zM332 737l144 150h212l71 -150h-148l-44 66l-76 -66h-159z" />
    <glyph glyph-name="jcircumflex" unicode="&#x135;" horiz-adv-x="294" 
d="M134 500h160l-126 -499q-26 -102 -77.5 -147t-142.5 -45q-38 0 -61 9l31 122h31q29 0 41 17.5t28 79.5zM20 552l146 150h192l70 -150h-137l-44 66l-76 -66h-151z" />
    <glyph glyph-name="Kcommaaccent" unicode="&#x136;" horiz-adv-x="718" 
d="M594 682h230l-293 -240l133 -442h-189l-92 321l-147 -120l-50 -201h-174l170 682h174l-65 -258zM214 -42h168l-18 -71q-11 -44 -49 -62.5t-125 -18.5h-34l14 54h16q35 0 40 24h-31z" />
    <glyph glyph-name="kcommaaccent" unicode="&#x137;" horiz-adv-x="574" 
d="M531 0h-175l-72 207l-85 -71l-34 -136h-160l175 702h160l-93 -371l187 169h205l-222 -183zM147 -42h158l-18 -70q-11 -44 -49 -62t-118 -18h-31l14 53h19q31 0 38 24h-32z" />
    <glyph glyph-name="kgreenlandic" unicode="&#x138;" horiz-adv-x="573" 
d="M531 0h-175l-75 182l-92 -82l-25 -100h-159l125 500h159l-47 -187l191 187h205l-230 -205z" />
    <glyph glyph-name="Lacute" unicode="&#x139;" horiz-adv-x="571" 
d="M12 0l170 682h174l-134 -535h305l-36 -147h-479zM183 734l121 150h221l-180 -150h-162z" />
    <glyph glyph-name="lacute" unicode="&#x13a;" horiz-adv-x="290" 
d="M5 0l175 702h160l-175 -702h-160zM174 755l120 150h210l-179 -150h-151z" />
    <glyph glyph-name="Lcommaaccent" unicode="&#x13b;" horiz-adv-x="571" 
d="M12 0l170 682h174l-134 -535h305l-36 -147h-479zM146 -42h168l-18 -71q-11 -44 -49 -62.5t-125 -18.5h-34l14 54h16q35 0 40 24h-31z" />
    <glyph glyph-name="lcommaaccent" unicode="&#x13c;" horiz-adv-x="290" 
d="M5 0l175 702h160l-175 -702h-160zM-5 -42h158l-18 -70q-11 -44 -49 -62t-118 -18h-31l14 53h19q31 0 38 24h-32z" />
    <glyph glyph-name="Lcaron" unicode="&#x13d;" horiz-adv-x="571" 
d="M12 0l170 682h174l-134 -535h305l-36 -147h-479zM380 566l69 194h163l-101 -194h-131z" />
    <glyph glyph-name="lcaron" unicode="&#x13e;" horiz-adv-x="375" 
d="M5 0l175 702h160l-175 -702h-160zM344 566l69 194h163l-101 -194h-131z" />
    <glyph glyph-name="Ldot" unicode="&#x13f;" horiz-adv-x="571" 
d="M12 0l170 682h174l-134 -535h305l-36 -147h-479zM546 281h-188l46 182h187z" />
    <glyph glyph-name="ldot" unicode="&#x140;" horiz-adv-x="448" 
d="M5 0l175 702h160l-175 -702h-160zM461 231h-188l46 182h187z" />
    <glyph glyph-name="Lslash" unicode="&#x141;" horiz-adv-x="581" 
d="M503 514l-35 -138l-197 -74l-39 -155h305l-36 -147h-479l57 231l-89 -35l35 138l89 34l78 314h174l-61 -243z" />
    <glyph glyph-name="lslash" unicode="&#x142;" horiz-adv-x="310" 
d="M15 0l59 235l-71 -35l33 135l71 34l84 333h158l-62 -250l71 35l-33 -135l-71 -34l-80 -318h-159z" />
    <glyph glyph-name="Nacute" unicode="&#x143;" horiz-adv-x="762" 
d="M629 0h-199l-109 343q-20 65 -31 141h-4q-23 -135 -60 -281l-50 -203h-164l170 682h214l101 -318q21 -68 31 -141h4q19 115 59 280l44 179h165zM406 734l121 150h221l-180 -150h-162z" />
    <glyph glyph-name="nacute" unicode="&#x144;" horiz-adv-x="614" 
d="M498 0h-159l62 250q20 81 14 103q-9 37 -58 37q-38 0 -68 -24q-41 -33 -62 -115l-63 -251h-159l60 241q36 144 61 259h150l-13 -60h1q70 76 164 76q90 0 131 -58.5t15 -161.5zM286 556l120 150h210l-179 -150h-151z" />
    <glyph glyph-name="Ncommaaccent" unicode="&#x145;" horiz-adv-x="762" 
d="M629 0h-199l-109 343q-20 65 -31 141h-4q-23 -135 -60 -281l-50 -203h-164l170 682h214l101 -318q21 -68 31 -141h4q19 115 59 280l44 179h165zM244 -42h168l-18 -71q-11 -44 -49 -62.5t-125 -18.5h-34l14 54h16q35 0 40 24h-31z" />
    <glyph glyph-name="ncommaaccent" unicode="&#x146;" horiz-adv-x="614" 
d="M498 0h-159l62 250q20 81 14 103q-9 37 -58 37q-38 0 -68 -24q-41 -33 -62 -115l-63 -251h-159l60 241q36 144 61 259h150l-13 -60h1q70 76 164 76q90 0 131 -58.5t15 -161.5zM167 -42h158l-18 -70q-11 -44 -49 -62t-118 -18h-31l14 53h19q31 0 38 24h-32z" />
    <glyph glyph-name="Ncaron" unicode="&#x147;" horiz-adv-x="762" 
d="M629 0h-199l-109 343q-20 65 -31 141h-4q-23 -135 -60 -281l-50 -203h-164l170 682h214l101 -318q21 -68 31 -141h4q19 115 59 280l44 179h165zM765 887l-146 -150h-212l-70 150h147l44 -66l76 66h161z" />
    <glyph glyph-name="ncaron" unicode="&#x148;" horiz-adv-x="614" 
d="M498 0h-159l62 250q20 81 14 103q-9 37 -58 37q-38 0 -68 -24q-41 -33 -62 -115l-63 -251h-159l60 241q36 144 61 259h150l-13 -60h1q70 76 164 76q90 0 131 -58.5t15 -161.5zM626 706l-145 -150h-192l-71 150h138l44 -66l76 66h150z" />
    <glyph glyph-name="Eng" unicode="&#x14a;" horiz-adv-x="762" 
d="M377 -54h34q24 0 35 9.5t16 33.5l6 26l-134 325q-31 79 -46 143h-3q-18 -116 -59 -280l-49 -203h-165l171 682h197l109 -262q41 -101 50 -158h4q8 77 48 241l44 179h165l-172 -686q-47 -185 -226 -185q-37 0 -57 8z" />
    <glyph glyph-name="eng" unicode="&#x14b;" horiz-adv-x="614" 
d="M348 37l53 213q20 80 14 103q-9 37 -58 37q-38 0 -68 -24q-42 -33 -62 -115l-63 -251h-159l60 241q48 191 61 259h150l-13 -60h1q70 76 164 76q89 0 130.5 -57.5t15.5 -162.5l-76 -300q-24 -96 -76.5 -141.5t-141.5 -45.5q-39 0 -64 9l31 122h32q29 0 41 16.5t28 80.5z
" />
    <glyph glyph-name="Omacron" unicode="&#x14c;" horiz-adv-x="794" 
d="M598 341q23 93 -10 149t-115 56t-143 -56t-84 -149q-23 -92 10 -148.5t115 -56.5q81 0 142 56t85 149zM779 331q-40 -162 -159.5 -255.5t-279.5 -93.5q-161 0 -239 103t-37 266q40 161 160 255t280 94q161 0 238.5 -103t36.5 -266zM738 873l-33 -132h-366l33 132h366z
" />
    <glyph glyph-name="omacron" unicode="&#x14d;" horiz-adv-x="604" 
d="M403 250q16 63 -2 99t-65 36q-46 0 -81 -36t-51 -99t2 -99t65 -36q46 0 81 36t51 99zM570 239q-31 -125 -117 -190t-206 -65q-122 0 -182 74.5t-28 202.5q31 125 117 190t206 65q122 0 182 -74.5t28 -202.5zM586 691l-32 -128h-346l32 128h346z" />
    <glyph glyph-name="Obreve" unicode="&#x14e;" horiz-adv-x="794" 
d="M598 341q23 93 -10 149t-115 56t-143 -56t-84 -149q-23 -92 10 -148.5t115 -56.5q81 0 142 56t85 149zM779 331q-40 -162 -159.5 -255.5t-279.5 -93.5q-161 0 -239 103t-37 266q40 161 160 255t280 94q161 0 238.5 -103t36.5 -266zM623 908h130q-22 -96 -79.5 -136.5
t-146.5 -40.5q-88 0 -134 42.5t-18 134.5h129q-22 -59 45 -59t74 59z" />
    <glyph glyph-name="obreve" unicode="&#x14f;" horiz-adv-x="604" 
d="M403 250q16 63 -2 99t-65 36q-46 0 -81 -36t-51 -99t2 -99t65 -36q46 0 81 36t51 99zM570 239q-31 -125 -117 -190t-206 -65q-122 0 -182 74.5t-28 202.5q31 125 117 190t206 65q122 0 182 -74.5t28 -202.5zM478 724h119q-35 -170 -212 -170q-83 0 -124 42t-15 128h119
q-17 -57 42 -57t71 57z" />
    <glyph glyph-name="Ohungarumlaut" unicode="&#x150;" horiz-adv-x="794" 
d="M598 341q23 93 -10 149t-115 56t-143 -56t-84 -149q-23 -92 10 -148.5t115 -56.5q81 0 142 56t85 149zM779 331q-40 -162 -159.5 -255.5t-279.5 -93.5q-161 0 -239 103t-37 266q40 161 160 255t280 94q161 0 238.5 -103t36.5 -266zM310 734l92 150h206l-140 -150h-158z
M555 734l120 150h219l-177 -150h-162z" />
    <glyph glyph-name="ohungarumlaut" unicode="&#x151;" horiz-adv-x="604" 
d="M403 250q16 63 -2 99t-65 36q-46 0 -81 -36t-51 -99t2 -99t65 -36q46 0 81 36t51 99zM570 239q-31 -125 -117 -190t-206 -65q-122 0 -182 74.5t-28 202.5q31 125 117 190t206 65q122 0 182 -74.5t28 -202.5zM175 556l93 150h201l-145 -150h-149zM400 556l121 150h210
l-178 -150h-153z" />
    <glyph glyph-name="OE" unicode="&#x152;" horiz-adv-x="1138" 
d="M1036 0h-522l14 56h-1q-66 -70 -196 -70q-155 0 -231 101.5t-36 262.5q40 159 156.5 252.5t266.5 93.5q69 0 116.5 -23.5t63.5 -56.5h1l16 66h505l-33 -132h-330l-36 -139h284l-32 -128h-284l-37 -150h348zM598 341q23 94 -10 150t-115 56t-143 -56t-84 -150t9.5 -150
t114.5 -56t143.5 56t84.5 150z" />
    <glyph glyph-name="oe" unicode="&#x153;" horiz-adv-x="953" 
d="M820 158l43 -104q-113 -70 -243 -70q-136 0 -174 81q-78 -81 -199 -81q-122 0 -182 74.5t-28 202.5q31 125 117 190t206 65q58 0 102 -21t61 -60q78 81 201 81q120 0 175 -72t24 -196q-8 -34 -17 -48h-351q-4 -51 20.5 -73.5t76.5 -22.5q87 0 168 54zM403 250
q16 63 -2 99t-65 36q-46 0 -81 -36t-51 -99t2 -99t65 -36q46 0 81 36t51 99zM703 400q-81 0 -121 -96h186q9 45 -8 70.5t-57 25.5z" />
    <glyph glyph-name="Racute" unicode="&#x154;" horiz-adv-x="713" 
d="M641 0h-194l-81 231h-123l-57 -231h-174l170 682q53 0 151.5 1t135.5 1q55 0 103 -11.5t89 -37.5t57 -74.5t0 -114.5q-36 -144 -179 -191zM321 543l-43 -173q37 -1 119 -1q117 0 140 92q9 39 -11.5 61t-87.5 22q-22 0 -61 -0.5t-56 -0.5zM374 734l121 150h221l-180 -150
h-162z" />
    <glyph glyph-name="racute" unicode="&#x155;" horiz-adv-x="408" 
d="M165 0h-160l60 240q42 170 61 260h149l-17 -82h1q72 98 175 98q22 0 34 -4l-39 -153q-1 0 -16 0.5t-21 0.5q-59 0 -104 -36q-34 -27 -50.5 -62.5t-32.5 -100.5zM215 552l120 150h210l-179 -150h-151z" />
    <glyph glyph-name="Rcommaaccent" unicode="&#x156;" horiz-adv-x="713" 
d="M641 0h-194l-81 231h-123l-57 -231h-174l170 682q53 0 151.5 1t135.5 1q55 0 103 -11.5t89 -37.5t57 -74.5t0 -114.5q-36 -144 -179 -191zM321 543l-43 -173q37 -1 119 -1q117 0 140 92q9 39 -11.5 61t-87.5 22q-22 0 -61 -0.5t-56 -0.5zM211 -42h168l-18 -71
q-11 -44 -49 -62.5t-125 -18.5h-34l14 54h16q35 0 40 24h-31z" />
    <glyph glyph-name="rcommaaccent" unicode="&#x157;" horiz-adv-x="408" 
d="M165 0h-160l60 240q42 170 61 260h149l-17 -82h1q72 98 175 98q22 0 34 -4l-39 -153q-1 0 -16 0.5t-21 0.5q-59 0 -104 -36q-34 -27 -50.5 -62.5t-32.5 -100.5zM-5 -42h158l-18 -70q-11 -44 -49 -62t-118 -18h-31l14 53h19q31 0 38 24h-32z" />
    <glyph glyph-name="Rcaron" unicode="&#x158;" horiz-adv-x="713" 
d="M641 0h-194l-81 231h-123l-57 -231h-174l170 682q53 0 151.5 1t135.5 1q55 0 103 -11.5t89 -37.5t57 -74.5t0 -114.5q-36 -144 -179 -191zM321 543l-43 -173q37 -1 119 -1q117 0 140 92q9 39 -11.5 61t-87.5 22q-22 0 -61 -0.5t-56 -0.5zM732 887l-146 -150h-212l-70 150
h147l44 -66l76 66h161z" />
    <glyph glyph-name="rcaron" unicode="&#x159;" horiz-adv-x="408" 
d="M165 0h-160l60 240q42 170 61 260h149l-17 -82h1q72 98 175 98q22 0 34 -4l-39 -153q-1 0 -16 0.5t-21 0.5q-59 0 -104 -36q-34 -27 -50.5 -62.5t-32.5 -100.5zM545 702l-145 -150h-192l-71 150h138l44 -66l76 66h150z" />
    <glyph glyph-name="Sacute" unicode="&#x15a;" horiz-adv-x="688" 
d="M6 69l79 134q121 -81 246 -81q105 0 119 59q6 26 -12.5 43.5t-52 26.5t-75 21t-81.5 26t-70.5 41t-42 67.5t3.5 104.5q22 89 99 139t206 50q157 0 259 -64l-77 -136q-97 61 -198 61q-97 0 -110 -51q-6 -25 12.5 -41.5t53 -25t76 -20t81.5 -25.5t71 -42t42 -69.5
t-4 -107.5q-22 -91 -106 -144t-216 -53q-181 0 -303 87zM361 734l121 150h221l-180 -150h-162z" />
    <glyph glyph-name="sacute" unicode="&#x15b;" horiz-adv-x="528" 
d="M-13 48l70 116q82 -60 180 -60q66 0 73 31q5 21 -21.5 35t-67 25t-79 28.5t-59 56.5t-5.5 97q36 139 244 139q122 0 195 -45l-63 -111q-66 41 -147 41q-61 0 -67 -27q-5 -18 14 -31t50 -20t65.5 -20.5t63 -31.5t41 -54t0.5 -86q-38 -147 -254 -147q-147 0 -233 64z
M247 556l120 150h210l-179 -150h-151z" />
    <glyph glyph-name="Scircumflex" unicode="&#x15c;" horiz-adv-x="688" 
d="M6 69l79 134q121 -81 246 -81q105 0 119 59q6 26 -12.5 43.5t-52 26.5t-75 21t-81.5 26t-70.5 41t-42 67.5t3.5 104.5q22 89 99 139t206 50q157 0 259 -64l-77 -136q-97 61 -198 61q-97 0 -110 -51q-6 -25 12.5 -41.5t53 -25t76 -20t81.5 -25.5t71 -42t42 -69.5
t-4 -107.5q-22 -91 -106 -144t-216 -53q-181 0 -303 87zM255 737l144 150h212l71 -150h-148l-44 66l-76 -66h-159z" />
    <glyph glyph-name="scircumflex" unicode="&#x15d;" horiz-adv-x="528" 
d="M-13 48l70 116q82 -60 180 -60q66 0 73 31q5 21 -21.5 35t-67 25t-79 28.5t-59 56.5t-5.5 97q36 139 244 139q122 0 195 -45l-63 -111q-66 41 -147 41q-61 0 -67 -27q-5 -18 14 -31t50 -20t65.5 -20.5t63 -31.5t41 -54t0.5 -86q-38 -147 -254 -147q-147 0 -233 64z
M139 556l146 150h192l70 -150h-137l-44 66l-76 -66h-151z" />
    <glyph glyph-name="Scedilla" unicode="&#x15e;" horiz-adv-x="688" 
d="M287 -180h-168q63 46 63 74q0 18 -25 35l50 61q-118 18 -201 79l79 134q121 -81 246 -81q105 0 119 59q6 26 -12.5 43.5t-52 26.5t-75 21t-81.5 26t-70.5 41t-42 67.5t3.5 104.5q22 89 99 139t206 50q157 0 259 -64l-77 -136q-97 61 -198 61q-97 0 -110 -51
q-6 -25 12.5 -41.5t53 -25t76 -20t81.5 -25.5t71 -42t42 -69.5t-4 -107.5q-21 -85 -96.5 -137t-194.5 -59l-16 -19q29 -26 29 -55q0 -47 -66 -89z" />
    <glyph glyph-name="scedilla" unicode="&#x15f;" horiz-adv-x="528" 
d="M206 -180h-157q63 46 63 74q0 18 -25 35l51 62q-95 14 -151 57l70 116q82 -60 180 -60q66 0 73 31q5 21 -21.5 35t-67 25t-79 28.5t-59 56.5t-5.5 97q36 139 244 139q122 0 195 -45l-63 -111q-66 41 -147 41q-61 0 -67 -27q-5 -18 14 -31t50 -20t65.5 -20.5t63 -31.5
t41 -54t0.5 -86q-34 -132 -213 -145l-18 -22q29 -26 29 -55q0 -47 -66 -89z" />
    <glyph glyph-name="Scaron" unicode="&#x160;" horiz-adv-x="688" 
d="M6 69l79 134q121 -81 246 -81q105 0 119 59q6 26 -12.5 43.5t-52 26.5t-75 21t-81.5 26t-70.5 41t-42 67.5t3.5 104.5q22 89 99 139t206 50q157 0 259 -64l-77 -136q-97 61 -198 61q-97 0 -110 -51q-6 -25 12.5 -41.5t53 -25t76 -20t81.5 -25.5t71 -42t42 -69.5
t-4 -107.5q-22 -91 -106 -144t-216 -53q-181 0 -303 87zM720 887l-146 -150h-212l-70 150h147l44 -66l76 66h161z" />
    <glyph glyph-name="scaron" unicode="&#x161;" horiz-adv-x="528" 
d="M-13 48l70 116q82 -60 180 -60q66 0 73 31q5 21 -21.5 35t-67 25t-79 28.5t-59 56.5t-5.5 97q36 139 244 139q122 0 195 -45l-63 -111q-66 41 -147 41q-61 0 -67 -27q-5 -18 14 -31t50 -20t65.5 -20.5t63 -31.5t41 -54t0.5 -86q-38 -147 -254 -147q-147 0 -233 64z
M585 706l-145 -150h-192l-71 150h138l44 -66l76 66h150z" />
    <glyph glyph-name="Tcommaaccent" unicode="&#x162;" horiz-adv-x="542" 
d="M122 0l135 542h-185l35 140h548l-35 -140h-185l-135 -542h-178zM116 -42h168l-18 -71q-11 -44 -49 -62.5t-125 -18.5h-34l14 54h16q35 0 40 24h-31z" />
    <glyph glyph-name="tcommaaccent" unicode="&#x163;" horiz-adv-x="376" 
d="M97 312l16 64h-61l31 124h60l35 139l168 29l-43 -168h109l-31 -124h-108l-42 -166q-12 -48 -13 -64t6 -22q9 -9 30 -9q24 0 64 9l-31 -123q-43 -17 -101 -17q-174 0 -128 181q2 8 7.5 27.5t13.5 49.5t18 70zM66 -42h158l-18 -70q-11 -44 -49 -62t-118 -18h-31l14 53h19
q31 0 38 24h-32z" />
    <glyph glyph-name="Tcaron" unicode="&#x164;" horiz-adv-x="542" 
d="M122 0l135 542h-185l35 140h548l-35 -140h-185l-135 -542h-178zM646 887l-146 -150h-212l-70 150h147l44 -66l76 66h161z" />
    <glyph glyph-name="tcaron" unicode="&#x165;" horiz-adv-x="376" 
d="M97 312l16 64h-61l31 124h60l35 139l168 29l-43 -168h109l-31 -124h-108l-42 -166q-12 -48 -13 -64t6 -22q9 -9 30 -9q24 0 64 9l-31 -123q-43 -17 -101 -17q-174 0 -128 181q2 8 7.5 27.5t13.5 49.5t18 70zM353 566l69 194h163l-101 -194h-131z" />
    <glyph glyph-name="Tbar" unicode="&#x166;" horiz-adv-x="542" 
d="M300 0h-178l64 257h-141l33 130h140l39 155h-185l35 140h548l-35 -140h-185l-39 -155h142l-33 -130h-141z" />
    <glyph glyph-name="tbar" unicode="&#x167;" horiz-adv-x="376" 
d="M95 307l18 69h-61l31 124h60l35 139l168 29l-43 -168h109l-32 -124h-107l-18 -69h79l-30 -116h-78q-8 -34 -8.5 -47.5t6.5 -19.5q9 -9 30 -9q24 0 64 9l-31 -123q-43 -17 -101 -17q-173 0 -127 181l7 26h-48l30 116h47z" />
    <glyph glyph-name="Utilde" unicode="&#x168;" horiz-adv-x="746" 
d="M349 682l-99 -396q-17 -69 9 -110t93 -41q138 0 176 151l99 396h164l-105 -418q-32 -130 -123 -206t-240 -76q-152 0 -216.5 86t-31.5 216l100 398h174zM399 734h-126q17 80 61.5 119.5t122.5 39.5q38 0 67.5 -11t47 -22t27.5 -11q11 0 18.5 7.5t13.5 27.5h126
q-17 -80 -61.5 -119.5t-122.5 -39.5q-38 0 -67.5 11t-47 22t-27.5 11q-11 0 -18.5 -7.5t-13.5 -27.5z" />
    <glyph glyph-name="utilde" unicode="&#x169;" horiz-adv-x="610" 
d="M488 0h-149l13 60h-1q-71 -76 -161 -76q-88 0 -129.5 57.5t-14.5 162.5l74 296h160l-63 -251q-19 -79 -15 -102q9 -37 54 -37q38 0 69 25q42 34 63 118l62 247h160l-61 -241q-44 -173 -61 -259zM288 556h-113q15 79 56.5 117.5t116.5 38.5q36 0 63.5 -10t45 -20.5
t27.5 -10.5q23 0 33 35h113q-15 -79 -56.5 -117.5t-116.5 -38.5q-36 0 -63.5 10t-45 20.5t-27.5 10.5q-23 0 -33 -35z" />
    <glyph glyph-name="Umacron" unicode="&#x16a;" horiz-adv-x="746" 
d="M349 682l-99 -396q-17 -69 9 -110t93 -41q138 0 176 151l99 396h164l-105 -418q-32 -130 -123 -206t-240 -76q-152 0 -216.5 86t-31.5 216l100 398h174zM714 873l-33 -132h-366l33 132h366z" />
    <glyph glyph-name="umacron" unicode="&#x16b;" horiz-adv-x="610" 
d="M488 0h-149l13 60h-1q-71 -76 -161 -76q-88 0 -129.5 57.5t-14.5 162.5l74 296h160l-63 -251q-19 -79 -15 -102q9 -37 54 -37q38 0 69 25q42 34 63 118l62 247h160l-61 -241q-44 -173 -61 -259zM589 687l-32 -128h-346l32 128h346z" />
    <glyph glyph-name="Ubreve" unicode="&#x16c;" horiz-adv-x="746" 
d="M349 682l-99 -396q-17 -69 9 -110t93 -41q138 0 176 151l99 396h164l-105 -418q-32 -130 -123 -206t-240 -76q-152 0 -216.5 86t-31.5 216l100 398h174zM599 908h130q-22 -96 -79.5 -136.5t-146.5 -40.5q-88 0 -134 42.5t-18 134.5h129q-22 -59 45 -59t74 59z" />
    <glyph glyph-name="ubreve" unicode="&#x16d;" horiz-adv-x="610" 
d="M488 0h-149l13 60h-1q-71 -76 -161 -76q-88 0 -129.5 57.5t-14.5 162.5l74 296h160l-63 -251q-19 -79 -15 -102q9 -37 54 -37q38 0 69 25q42 34 63 118l62 247h160l-61 -241q-44 -173 -61 -259zM481 720h119q-35 -170 -212 -170q-83 0 -124 42t-15 128h119
q-17 -57 42 -57t71 57z" />
    <glyph glyph-name="Uring" unicode="&#x16e;" horiz-adv-x="746" 
d="M349 682l-99 -396q-17 -69 9 -110t93 -41q138 0 176 151l99 396h164l-105 -418q-32 -130 -123 -206t-240 -76q-152 0 -216.5 86t-31.5 216l100 398h174zM672 827q-12 -48 -56 -78.5t-117 -30.5q-75 0 -108.5 34.5t-20.5 88.5q12 48 56 78.5t117 30.5q75 0 109 -34.5
t20 -88.5zM553 834q9 38 -22 38q-33 0 -42 -38t23 -38t41 38z" />
    <glyph glyph-name="uring" unicode="&#x16f;" horiz-adv-x="610" 
d="M488 0h-149l13 60h-1q-71 -76 -161 -76q-88 0 -129.5 57.5t-14.5 162.5l74 296h160l-63 -251q-19 -79 -15 -102q9 -37 54 -37q38 0 69 25q42 34 63 118l62 247h160l-61 -241q-44 -173 -61 -259zM561 655q-12 -48 -56 -78.5t-117 -30.5q-75 0 -108.5 34.5t-20.5 88.5
q12 48 56 78.5t117 30.5q75 0 109 -34.5t20 -88.5zM442 662q9 38 -22 38q-33 0 -42 -38t23 -38t41 38z" />
    <glyph glyph-name="Uhungarumlaut" unicode="&#x170;" horiz-adv-x="746" 
d="M349 682l-99 -396q-17 -69 9 -110t93 -41q138 0 176 151l99 396h164l-105 -418q-32 -130 -123 -206t-240 -76q-152 0 -216.5 86t-31.5 216l100 398h174zM296 734l92 150h206l-140 -150h-158zM541 734l120 150h219l-177 -150h-162z" />
    <glyph glyph-name="uhungarumlaut" unicode="&#x171;" horiz-adv-x="610" 
d="M488 0h-149l13 60h-1q-71 -76 -161 -76q-88 0 -129.5 57.5t-14.5 162.5l74 296h160l-63 -251q-19 -79 -15 -102q9 -37 54 -37q38 0 69 25q42 34 63 118l62 247h160l-61 -241q-44 -173 -61 -259zM176 552l93 150h201l-145 -150h-149zM401 552l121 150h210l-178 -150h-153z
" />
    <glyph glyph-name="Uogonek" unicode="&#x172;" horiz-adv-x="746" 
d="M491 -99l-21 -83q-24 -12 -74 -12q-139 0 -139 70q0 54 71 107q-3 -1 -5 -1q-152 0 -216 86t-32 216l101 398h173l-99 -396q-17 -69 9 -110t93 -41q138 0 176 151l99 396h163l-102 -418q-33 -132 -127 -207q-8 -6 -25.5 -18.5t-25.5 -18.5q-29 -23 -53.5 -56t-24.5 -48
t26 -15h33z" />
    <glyph glyph-name="uogonek" unicode="&#x173;" horiz-adv-x="610" 
d="M338 -3l14 63h-1q-71 -76 -161 -76q-88 0 -129.5 57.5t-15.5 162.5l75 296h160l-63 -251q-20 -81 -15 -102q7 -37 54 -37q38 0 69 25q42 34 63 118l62 247h160l-61 -241q-18 -70 -61 -258q-74 -62 -74 -89q0 -15 26 -15h33l-20 -79q-28 -12 -74 -12q-129 0 -129 70
q0 57 88 121z" />
    <glyph glyph-name="Wcircumflex" unicode="&#x174;" horiz-adv-x="1077" 
d="M818 0h-227l-3 252q-2 143 3 195h-4q-25 -67 -92 -195l-129 -252h-227l-13 682h190l-9 -279q-3 -79 -11 -237h4q50 114 114 238l142 278h190l2 -281q2 -140 -3 -235h4q70 156 106 234l132 282h184zM436 737l144 150h212l71 -150h-148l-44 66l-76 -66h-159z" />
    <glyph glyph-name="wcircumflex" unicode="&#x175;" horiz-adv-x="836" 
d="M619 0h-191l1 169q0 76 6 140h-2q-27 -69 -62 -140l-84 -169h-190l-26 500h165l4 -204q1 -77 -4 -149h3q42 106 64 150l101 203h157v-204q0 -85 -6 -149h3q41 98 65 149l98 204h174zM277 552l146 150h192l70 -150h-137l-44 66l-76 -66h-151z" />
    <glyph glyph-name="Ycircumflex" unicode="&#x176;" horiz-adv-x="658" 
d="M356 0h-174l67 271l-139 411h201l66 -235l178 235h213l-344 -410zM225 737l144 150h212l71 -150h-148l-44 66l-76 -66h-159z" />
    <glyph glyph-name="ycircumflex" unicode="&#x177;" horiz-adv-x="538" 
d="M199 -180h-189l104 150l-52 530h169l9 -195q3 -99 -1 -157h3q25 57 76 157l100 195h188zM126 552l146 150h192l70 -150h-137l-44 66l-76 -66h-151z" />
    <glyph glyph-name="Ydieresis" unicode="&#x178;" horiz-adv-x="658" 
d="M356 0h-174l67 271l-139 411h201l66 -235l178 235h213l-344 -410zM401 734h-160l38 150h160zM651 734h-160l38 150h160z" />
    <glyph glyph-name="Zacute" unicode="&#x179;" horiz-adv-x="628" 
d="M571 142l-35 -142h-564l35 142l412 402q-124 -2 -199 -2h-98l35 140h534l-35 -140l-412 -402q138 2 229 2h98zM331 734l121 150h221l-180 -150h-162z" />
    <glyph glyph-name="zacute" unicode="&#x17a;" horiz-adv-x="535" 
d="M463 128l-32 -128h-447l31 128l276 249q-78 -2 -123 -2h-80l32 125h424l-32 -125l-275 -249q96 2 143 2h83zM246 552l120 150h210l-179 -150h-151z" />
    <glyph glyph-name="Zdotaccent" unicode="&#x17b;" horiz-adv-x="628" 
d="M571 142l-35 -142h-564l35 142l412 402q-124 -2 -199 -2h-98l35 140h534l-35 -140l-412 -402q138 2 229 2h98zM523 734h-172l38 150h172z" />
    <glyph glyph-name="zdotaccent" unicode="&#x17c;" horiz-adv-x="535" 
d="M463 128l-32 -128h-447l31 128l276 249q-78 -2 -123 -2h-80l32 125h424l-32 -125l-275 -249q96 2 143 2h83zM426 552h-162l37 150h162z" />
    <glyph glyph-name="Zcaron" unicode="&#x17d;" horiz-adv-x="628" 
d="M571 142l-35 -142h-564l35 142l412 402q-124 -2 -199 -2h-98l35 140h534l-35 -140l-412 -402q138 2 229 2h98zM690 887l-146 -150h-212l-70 150h147l44 -66l76 66h161z" />
    <glyph glyph-name="zcaron" unicode="&#x17e;" horiz-adv-x="535" 
d="M463 128l-32 -128h-447l31 128l276 249q-78 -2 -123 -2h-80l32 125h424l-32 -125l-275 -249q96 2 143 2h83zM586 702l-145 -150h-192l-71 150h138l44 -66l76 66h150z" />
    <glyph glyph-name="longs" unicode="&#x17f;" horiz-adv-x="290" 
d="M165 0h-160l134 536q45 180 216 180q46 0 86 -10l-37 -125q-22 7 -51 7q-41 0 -52 -42z" />
    <glyph glyph-name="uni018F" unicode="&#x18f;" horiz-adv-x="729" 
d="M244 460l-114 81q121 159 331 159q146 0 220 -103.5t33 -267.5q-39 -158 -154.5 -252.5t-260.5 -94.5q-83 0 -141.5 29t-85 78.5t-32.5 115t15 139.5q6 22 21 56h467q5 73 -27 110.5t-90 37.5q-113 0 -182 -88zM329 136q59 0 106.5 36.5t76.5 105.5h-289q-15 -64 12 -103
t94 -39z" />
    <glyph glyph-name="florin" unicode="&#x192;" horiz-adv-x="543" 
d="M537 436l-33 -128h-151l-85 -240q-46 -127 -107 -173.5t-179 -46.5q-50 0 -87 10l44 131q34 -10 65 -10q30 0 53 21.5t44 79.5l81 228h-118l33 128h131l25 68q50 135 112.5 183.5t176.5 48.5q48 0 90 -10l-46 -130q-30 9 -61 9q-33 0 -56 -20t-45 -81l-25 -68h138z" />
    <glyph glyph-name="Gcaron" unicode="&#x1e6;" horiz-adv-x="777" 
d="M652 0h-144l16 60h-1q-44 -39 -90 -58.5t-116 -19.5q-146 0 -220 102.5t-33 266.5q40 162 156.5 255.5t277.5 93.5q203 0 281 -140l-161 -101q-37 88 -145 88q-81 0 -142.5 -58t-85.5 -152q-24 -96 9 -151t115 -55q71 0 117.5 35.5t58.5 85.5v2h-131l32 128h303zM776 887
l-146 -150h-212l-70 150h147l44 -66l76 66h161z" />
    <glyph glyph-name="gcaron" unicode="&#x1e7;" horiz-adv-x="621" 
d="M482 500h147q-26 -70 -71 -251q-10 -37 -28 -115t-28 -119q-51 -209 -312 -209q-136 0 -216 44l70 121q76 -47 178 -47q48 0 74.5 21.5t42.5 62.5q10 27 21 56h-2q-67 -68 -160 -68q-103 0 -146.5 75.5t-13.5 194.5q29 114 106 182t182 68q50 0 86.5 -18.5t49.5 -51.5h1z
M402 254l1 4q15 59 -1.5 95.5t-61.5 36.5q-47 0 -83.5 -38t-51.5 -97q-14 -59 1.5 -97t62.5 -38q44 0 81.5 38t51.5 96zM622 706l-145 -150h-192l-71 150h138l44 -66l76 66h150z" />
    <glyph glyph-name="Aringacute" unicode="&#x1fa;" horiz-adv-x="713" 
d="M627 714q-11 -43 -47 -72l64 -642h-193l-7 126h-231l-68 -126h-197l389 648q-24 33 -12 80q12 48 56.5 78.5t117.5 30.5q75 0 108 -34.5t20 -88.5zM345 369l-62 -115h155l-6 114q-4 90 0 174h-4q-31 -77 -83 -173zM427 860l103 120h202l-157 -120h-148zM508 721
q9 38 -23 38t-41 -38t22 -38q33 0 42 38z" />
    <glyph glyph-name="aringacute" unicode="&#x1fb;" horiz-adv-x="555" 
d="M521 320l-23 -87q-19 -76 -55 -233h-145l13 51h-1q-71 -67 -166 -67q-87 0 -124.5 49.5t-19.5 119.5q19 79 101.5 121t257.5 42l3 12q8 34 -9.5 52.5t-60.5 18.5q-75 0 -163 -58l-46 100q117 75 249 75q111 0 162 -51.5t27 -144.5zM330 201l3 11q-89 0 -124 -15.5
t-43 -45.5q-11 -48 43 -48q38 0 74 27t47 71zM524 650q-10 -43 -52.5 -71.5t-111.5 -28.5q-72 0 -104 32t-20 82q10 43 52.5 71.5t111.5 28.5q72 0 104 -32t20 -82zM410 657q9 35 -21 35t-39 -35t21 -35t39 35zM341 797l108 133h185l-156 -133h-137z" />
    <glyph glyph-name="AEacute" unicode="&#x1fc;" horiz-adv-x="996" 
d="M389 682h658l-33 -132h-322l-35 -139h275l-31 -128h-276l-37 -150h339l-33 -133h-513l27 109h-215l-67 -109h-199zM481 550l-204 -314h163l78 314h-37zM629 734l121 150h221l-180 -150h-162z" />
    <glyph glyph-name="aeacute" unicode="&#x1fd;" horiz-adv-x="890" 
d="M757 158l43 -104q-113 -70 -243 -70q-153 0 -192 101q-81 -101 -221 -101q-87 0 -124.5 49.5t-19.5 119.5q19 79 101.5 121t257.5 42l3 12q8 34 -9.5 52.5t-60.5 18.5q-75 0 -163 -58l-46 100q117 75 249 75q114 0 153 -54q68 54 176 54q120 0 175 -72t24 -196
q-8 -34 -17 -48h-351q-4 -51 20.5 -73.5t76.5 -22.5q87 0 168 54zM640 400q-81 0 -121 -96h186q9 45 -8 70.5t-57 25.5zM330 201l3 11q-89 0 -124 -15.5t-43 -45.5q-11 -48 43 -48q38 0 74 27t47 71zM437 552l120 150h210l-179 -150h-151z" />
    <glyph glyph-name="Oslashacute" unicode="&#x1fe;" horiz-adv-x="794" 
d="M71 -49l-86 97l90 81q-43 92 -11 222q41 162 160.5 255.5t279.5 93.5q105 0 176 -46l88 75l90 -98l-90 -78q44 -91 11 -222q-40 -162 -159.5 -255.5t-279.5 -93.5q-104 0 -177 46zM612 423l-319 -278q30 -15 76 -15q84 0 146.5 57.5t86.5 153.5q10 41 10 82zM231 261
l319 276q-29 15 -75 15q-84 0 -146.5 -57.5t-86.5 -153.5q-9 -38 -11 -80zM414 734l121 150h221l-180 -150h-162z" />
    <glyph glyph-name="oslashacute" unicode="&#x1ff;" horiz-adv-x="604" 
d="M43 -49l-69 82l70 60q-32 68 -7 168q31 125 117 190t206 65q80 0 131 -32l74 65l69 -82l-71 -61q32 -70 7 -167q-31 -125 -117 -190t-206 -65q-79 0 -131 31zM183 210l197 172q-20 10 -43 10q-50 0 -87.5 -36.5t-53.5 -103.5q-6 -29 -13 -42zM426 290l-198 -172
q16 -10 44 -10q50 0 87 36.5t53 103.5q9 31 14 42zM281 556l120 150h210l-179 -150h-151z" />
    <glyph glyph-name="Scommaaccent" unicode="&#x218;" horiz-adv-x="688" 
d="M6 69l79 134q121 -81 246 -81q105 0 119 59q6 26 -12.5 43.5t-52 26.5t-75 21t-81.5 26t-70.5 41t-42 67.5t3.5 104.5q22 89 99 139t206 50q157 0 259 -64l-77 -136q-97 61 -198 61q-97 0 -110 -51q-6 -25 12.5 -41.5t53 -25t76 -20t81.5 -25.5t71 -42t42 -69.5
t-4 -107.5q-22 -91 -106 -144t-216 -53q-181 0 -303 87zM199 -42h168l-18 -71q-11 -44 -49 -62.5t-125 -18.5h-34l14 54h16q35 0 40 24h-31z" />
    <glyph glyph-name="scommaaccent" unicode="&#x219;" horiz-adv-x="528" 
d="M-13 48l70 116q82 -60 180 -60q66 0 73 31q5 21 -21.5 35t-67 25t-79 28.5t-59 56.5t-5.5 97q36 139 244 139q122 0 195 -45l-63 -111q-66 41 -147 41q-61 0 -67 -27q-5 -18 14 -31t50 -20t65.5 -20.5t63 -31.5t41 -54t0.5 -86q-38 -147 -254 -147q-147 0 -233 64z
M124 -42h158l-18 -70q-11 -44 -49 -62t-118 -18h-31l14 53h19q31 0 38 24h-32z" />
    <glyph glyph-name="uni021A" unicode="&#x21a;" horiz-adv-x="542" 
d="M122 0l135 542h-185l35 140h548l-35 -140h-185l-135 -542h-178zM116 -42h168l-18 -71q-11 -44 -49 -62.5t-125 -18.5h-34l14 54h16q35 0 40 24h-31z" />
    <glyph glyph-name="uni021B" unicode="&#x21b;" horiz-adv-x="376" 
d="M97 312l16 64h-61l31 124h60l35 139l168 29l-43 -168h109l-31 -124h-108l-42 -166q-12 -48 -13 -64t6 -22q9 -9 30 -9q24 0 64 9l-31 -123q-43 -17 -101 -17q-174 0 -128 181q2 8 7.5 27.5t13.5 49.5t18 70zM66 -42h158l-18 -70q-11 -44 -49 -62t-118 -18h-31l14 53h19
q31 0 38 24h-32z" />
    <glyph glyph-name="dotlessj" unicode="&#x237;" horiz-adv-x="294" 
d="M134 500h160l-126 -499q-26 -102 -77.5 -147t-142.5 -45q-38 0 -61 9l31 122h31q29 0 41 17.5t28 79.5z" />
    <glyph glyph-name="uni0259" unicode="&#x259;" horiz-adv-x="591" 
d="M133 342l-43 104q113 70 243 70q132 0 192.5 -74t27.5 -203q-31 -124 -117.5 -189.5t-206.5 -65.5t-175 72t-24 196q8 34 17 48h350q10 96 -96 96q-87 0 -168 -54zM250 100q80 0 121 96h-186q-9 -45 8 -70.5t57 -25.5z" />
    <glyph glyph-name="quoteleft" unicode="&#x2bb;" horiz-adv-x="320" 
d="M316 490h-188l37 146q23 90 70 136.5t147 77.5l17 -88q-50 -20 -71.5 -38.5t-30.5 -56.5h64z" />
    <glyph glyph-name="quoteleft" unicode="&#x2018;" horiz-adv-x="320" 
d="M316 490h-188l37 146q23 90 70 136.5t147 77.5l17 -88q-50 -20 -71.5 -38.5t-30.5 -56.5h64z" />
    <glyph glyph-name="quoteright" unicode="&#x2bc;" horiz-adv-x="320" 
d="M212 821h188l-37 -146q-22 -91 -70.5 -137.5t-148.5 -75.5l-16 87q49 14 71.5 36t31.5 59h-64z" />
    <glyph glyph-name="quoteright" unicode="&#x2019;" horiz-adv-x="320" 
d="M212 821h188l-37 -146q-22 -91 -70.5 -137.5t-148.5 -75.5l-16 87q49 14 71.5 36t31.5 59h-64z" />
    <glyph glyph-name="circumflex" unicode="&#x2c6;" horiz-adv-x="512" 
d="M129 552l146 150h192l70 -150h-137l-44 66l-76 -66h-151z" />
    <glyph glyph-name="caron" unicode="&#x2c7;" horiz-adv-x="512" 
d="M575 702l-145 -150h-192l-71 150h138l44 -66l76 66h150z" />
    <glyph glyph-name="breve" unicode="&#x2d8;" horiz-adv-x="476" 
d="M414 720h119q-35 -170 -212 -170q-83 0 -124 42t-15 128h119q-17 -57 42 -57t71 57z" />
    <glyph glyph-name="dotaccent" unicode="&#x2d9;" horiz-adv-x="286" 
d="M302 552h-162l37 150h162z" />
    <glyph glyph-name="ring" unicode="&#x2da;" horiz-adv-x="450" 
d="M481 655q-12 -48 -56 -78.5t-117 -30.5q-75 0 -108.5 34.5t-20.5 88.5q12 48 56 78.5t117 30.5q75 0 109 -34.5t20 -88.5zM362 662q9 38 -22 38q-33 0 -42 -38t23 -38t41 38z" />
    <glyph glyph-name="ogonek" unicode="&#x2db;" horiz-adv-x="344" 
d="M65 0h139q-67 -63 -67 -88q0 -15 26 -15h33l-20 -79q-28 -12 -74 -12q-129 0 -129 70q0 57 92 124z" />
    <glyph glyph-name="tilde" unicode="&#x2dc;" horiz-adv-x="544" 
d="M255 556h-113q15 79 56.5 117.5t116.5 38.5q36 0 63.5 -10t45 -20.5t27.5 -10.5q23 0 33 35h113q-15 -79 -56.5 -117.5t-116.5 -38.5q-36 0 -63.5 10t-45 20.5t-27.5 10.5q-23 0 -33 -35z" />
    <glyph glyph-name="hungarumlaut" unicode="&#x2dd;" horiz-adv-x="625" 
d="M131 552l93 150h201l-145 -150h-149zM356 552l121 150h210l-178 -150h-153z" />
    <glyph glyph-name="uni0312" unicode="&#x312;" horiz-adv-x="302" 
d="M297 552h-158l20 77q11 44 49 63t119 19h31l-15 -57h-19q-31 0 -38 -24h31z" />
    <glyph glyph-name="uni0315" unicode="&#x315;" horiz-adv-x="304" 
d="M142 566l69 194h163l-101 -194h-131z" />
    <glyph glyph-name="uni0326" unicode="&#x326;" horiz-adv-x="302" 
d="M11 -42h158l-18 -70q-11 -44 -49 -62t-118 -18h-31l14 53h19q31 0 38 24h-32z" />
    <glyph glyph-name="uni037E" unicode="&#x37e;" horiz-adv-x="346" 
d="M67 182h182l-38 -152q-24 -96 -72 -145t-152 -80l-16 88q55 27 77 48.5t32 58.5h-59zM283 318h-182l45 182h182z" />
    <glyph glyph-name="tonos" unicode="&#x384;" horiz-adv-x="324" 
d="M140 552l68 150h169l-98 -150h-139z" />
    <glyph glyph-name="dieresistonos" unicode="&#x385;" horiz-adv-x="580" 
d="M270 552h-130l37 150h130zM597 552h-130l37 150h130zM290 552l66 182h149l-96 -182h-119z" />
    <glyph glyph-name="Alphatonos" unicode="&#x386;" horiz-adv-x="713" 
d="M357 682h219l68 -682h-193l-7 126h-231l-68 -126h-197zM345 369l-62 -115h155l-6 114q-4 90 0 174h-4q-31 -77 -83 -173zM57 512l87 220h164l-117 -220h-134z" />
    <glyph glyph-name="anoteleia" unicode="&#x387;" horiz-adv-x="320" 
d="M274 318h-188l46 182h187z" />
    <glyph glyph-name="Epsilontonos" unicode="&#x388;" horiz-adv-x="781" 
d="M138 0l170 682h524l-33 -132h-349l-36 -139h304l-33 -128h-303l-37 -150h367l-33 -133h-541zM42 512l87 220h164l-117 -220h-134z" />
    <glyph glyph-name="Etatonos" unicode="&#x389;" horiz-adv-x="896" 
d="M138 0l170 682h174l-64 -255h278l64 255h174l-170 -682h-174l70 282h-278l-70 -282h-174zM42 512l87 220h164l-117 -220h-134z" />
    <glyph glyph-name="Iotatonos" unicode="&#x38a;" horiz-adv-x="444" 
d="M138 0l170 682h174l-170 -682h-174zM42 512l87 220h164l-117 -220h-134z" />
    <glyph glyph-name="Omicrontonos" unicode="&#x38c;" horiz-adv-x="874" 
d="M677 341q23 93 -10 149t-115 56t-143 -56t-84 -149q-23 -92 10 -148.5t115 -56.5q81 0 142 56t85 149zM858 331q-40 -162 -159.5 -255.5t-279.5 -93.5q-161 0 -239 103t-37 266q40 161 160 255t280 94q161 0 238.5 -103t36.5 -266zM41 512l87 220h164l-117 -220h-134z
" />
    <glyph glyph-name="Upsilontonos" unicode="&#x38e;" horiz-adv-x="850" 
d="M548 0h-174l67 271l-139 411h201l66 -235l178 235h213l-344 -410zM56 512l87 220h164l-117 -220h-134z" />
    <glyph glyph-name="Omegatonos" unicode="&#x38f;" horiz-adv-x="893" 
d="M783 0h-311l47 191q138 65 167 184q19 75 -13.5 123.5t-108.5 48.5t-132.5 -48.5t-75.5 -123.5q-29 -120 75 -184l-47 -191h-311l34 139h57q27 0 89 -2l1 2q-115 99 -74 263q34 139 146.5 218.5t271.5 79.5q158 0 233.5 -89t40.5 -229q-20 -80 -69 -136.5t-131 -106.5v-2
q54 2 89 2h56zM50 512l87 220h164l-117 -220h-134z" />
    <glyph glyph-name="iotadieresistonos" unicode="&#x390;" horiz-adv-x="298" 
d="M258 120l-29 -120q-38 -16 -92 -16q-139 0 -100 156l90 360h160l-83 -329q-14 -57 20 -57q18 0 34 6zM138 552h-130l37 150h130zM465 552h-130l37 150h130zM158 552l66 182h149l-96 -182h-119z" />
    <glyph glyph-name="Alpha" unicode="&#x391;" horiz-adv-x="713" 
d="M357 682h219l68 -682h-193l-7 126h-231l-68 -126h-197zM345 369l-62 -115h155l-6 114q-4 90 0 174h-4q-31 -77 -83 -173z" />
    <glyph glyph-name="Beta" unicode="&#x392;" horiz-adv-x="729" 
d="M257 284l-38 -150q92 -2 125 -2q131 0 149 74q2 19 2.5 32t-9.5 21.5t-17.5 13.5t-23 7.5t-25 3t-22.5 0.5h-141zM323 548l-34 -135h112q82 0 111 23q23 20 29 46q7 29 -5 45q-10 13 -33.5 18t-81.5 5q-44 0 -98 -2zM12 0l170 682q140 2 286 2q185 0 241 -74
q33 -46 17 -110q-28 -108 -147 -143q58 -14 84.5 -58t10.5 -105q-15 -62 -50.5 -102.5t-88.5 -60t-106.5 -26.5t-125.5 -7q-125 0 -291 2z" />
    <glyph glyph-name="Gamma" unicode="&#x393;" horiz-adv-x="525" 
d="M12 0l170 682h445l-35 -140h-271l-135 -542h-174z" />
    <glyph glyph-name="Delta" unicode="&#x394;" horiz-adv-x="711" 
d="M615 0h-639l30 123l347 559h225l67 -559zM459 133l-25 286q-6 70 -6 121h-3q-29 -59 -66 -121l-164 -286h264z" />
    <glyph glyph-name="Delta" unicode="&#x2206;" horiz-adv-x="711" 
d="M615 0h-639l30 123l347 559h225l67 -559zM459 133l-25 286q-6 70 -6 121h-3q-29 -59 -66 -121l-164 -286h264z" />
    <glyph glyph-name="Epsilon" unicode="&#x395;" horiz-adv-x="655" 
d="M12 0l170 682h524l-33 -132h-349l-36 -139h304l-33 -128h-303l-37 -150h367l-33 -133h-541z" />
    <glyph glyph-name="Zeta" unicode="&#x396;" horiz-adv-x="628" 
d="M571 142l-35 -142h-564l35 142l412 402q-124 -2 -199 -2h-98l35 140h534l-35 -140l-412 -402q138 2 229 2h98z" />
    <glyph glyph-name="Eta" unicode="&#x397;" horiz-adv-x="770" 
d="M12 0l170 682h174l-64 -255h278l64 255h174l-170 -682h-174l70 282h-278l-70 -282h-174z" />
    <glyph glyph-name="Theta" unicode="&#x398;" horiz-adv-x="794" 
d="M506 283h-196l32 127h196zM598 341q23 93 -10 149t-115 56t-143 -56t-84 -149q-23 -92 10 -148.5t115 -56.5q81 0 142 56t85 149zM779 331q-40 -162 -159.5 -255.5t-279.5 -93.5q-161 0 -239 103t-37 266q40 161 160 255t280 94q161 0 238.5 -103t36.5 -266z" />
    <glyph glyph-name="Iota" unicode="&#x399;" horiz-adv-x="318" 
d="M12 0l170 682h174l-170 -682h-174z" />
    <glyph glyph-name="Kappa" unicode="&#x39a;" horiz-adv-x="718" 
d="M594 682h230l-293 -240l133 -442h-189l-92 321l-147 -120l-50 -201h-174l170 682h174l-65 -258z" />
    <glyph glyph-name="Lambda" unicode="&#x39b;" horiz-adv-x="686" 
d="M617 0h-187l-18 330q-6 109 1 187h-4q-35 -82 -92 -189l-175 -328h-194l399 682h212z" />
    <glyph glyph-name="Mu" unicode="&#x39c;" horiz-adv-x="972" 
d="M12 0l170 682h283l19 -283q7 -98 -1 -156h3q24 65 75 156l161 283h288l-170 -682h-174l60 240q48 194 84 308h-6q-42 -89 -91 -174l-213 -374h-159l-26 374q-6 99 -3 174h-6q-18 -100 -70 -308l-60 -240h-164z" />
    <glyph glyph-name="Nu" unicode="&#x39d;" horiz-adv-x="762" 
d="M629 0h-199l-109 343q-20 65 -31 141h-4q-23 -135 -60 -281l-50 -203h-164l170 682h214l101 -318q21 -68 31 -141h4q19 115 59 280l44 179h165z" />
    <glyph glyph-name="Xi" unicode="&#x39e;" horiz-adv-x="580" 
d="M558 421l-39 -154h-446l39 154h446zM611 528h-496l38 154h496zM6 154h526l-39 -154h-526z" />
    <glyph glyph-name="Omicron" unicode="&#x39f;" horiz-adv-x="794" 
d="M598 341q23 93 -10 149t-115 56t-143 -56t-84 -149q-23 -92 10 -148.5t115 -56.5q81 0 142 56t85 149zM779 331q-40 -162 -159.5 -255.5t-279.5 -93.5q-161 0 -239 103t-37 266q40 161 160 255t280 94q161 0 238.5 -103t36.5 -266z" />
    <glyph glyph-name="Pi" unicode="&#x3a0;" horiz-adv-x="755" 
d="M12 0l170 682h611l-170 -682h-174l135 542h-263l-135 -542h-174z" />
    <glyph glyph-name="Rho" unicode="&#x3a1;" horiz-adv-x="689" 
d="M539 447q12 48 -11.5 72.5t-97.5 24.5q-73 0 -108 -1l-48 -190q35 -1 107 -1q135 0 158 95zM12 0l170 682q50 0 139.5 1t138.5 1q51 0 93.5 -7.5t81.5 -24.5t61 -45t31.5 -70.5t-6.5 -99.5q-31 -122 -124 -173.5t-242 -51.5q-87 0 -116 1l-53 -213h-174z" />
    <glyph glyph-name="Sigma" unicode="&#x3a3;" horiz-adv-x="649" 
d="M557 0h-559l37 149l253 198l-155 198l35 137h542l-36 -140h-116q-134 0 -201 2l153 -202l-254 -202q69 2 180 2h157z" />
    <glyph glyph-name="Tau" unicode="&#x3a4;" horiz-adv-x="542" 
d="M122 0l135 542h-185l35 140h548l-35 -140h-185l-135 -542h-178z" />
    <glyph glyph-name="Upsilon" unicode="&#x3a5;" horiz-adv-x="658" 
d="M356 0h-174l67 271l-139 411h201l66 -235l178 235h213l-344 -410z" />
    <glyph glyph-name="Phi" unicode="&#x3a6;" horiz-adv-x="958" 
d="M491 -59h-174l19 76q-168 18 -243 103.5t-39 228.5q72 288 444 318l19 74h174l-19 -76q168 -19 242 -104t39 -228q-36 -145 -149.5 -224.5t-294.5 -93.5zM236 341q-21 -81 11 -128.5t128 -60.5l94 377q-193 -25 -233 -188zM772 341q20 81 -12 128t-127 60l-94 -376
q192 25 233 188z" />
    <glyph glyph-name="Chi" unicode="&#x3a7;" horiz-adv-x="647" 
d="M594 0h-200l-74 230l-186 -230h-202l311 360l-126 322h200l65 -201l159 201h202l-284 -331z" />
    <glyph glyph-name="Psi" unicode="&#x3a8;" horiz-adv-x="909" 
d="M483 0h-174l37 150q-294 35 -228 303l57 229h174l-56 -225q-21 -72 -1.5 -116t87.5 -58l100 399h174l-100 -400q78 13 119 51.5t57 103.5l61 245h164l-67 -265q-60 -242 -367 -269z" />
    <glyph glyph-name="Omega" unicode="&#x3a9;" horiz-adv-x="810" 
d="M700 0h-311l47 191q138 65 167 184q19 75 -13.5 123.5t-108.5 48.5t-132.5 -48.5t-75.5 -123.5q-29 -120 75 -184l-47 -191h-311l34 139h57q27 0 89 -2l1 2q-115 99 -74 263q34 139 146.5 218.5t271.5 79.5q158 0 233.5 -89t40.5 -229q-20 -80 -69 -136.5t-131 -106.5v-2
q54 2 89 2h56z" />
    <glyph glyph-name="Omega" unicode="&#x2126;" horiz-adv-x="810" 
d="M700 0h-311l47 191q138 65 167 184q19 75 -13.5 123.5t-108.5 48.5t-132.5 -48.5t-75.5 -123.5q-29 -120 75 -184l-47 -191h-311l34 139h57q27 0 89 -2l1 2q-115 99 -74 263q34 139 146.5 218.5t271.5 79.5q158 0 233.5 -89t40.5 -229q-20 -80 -69 -136.5t-131 -106.5v-2
q54 2 89 2h56z" />
    <glyph glyph-name="Iotadieresis" unicode="&#x3aa;" horiz-adv-x="318" 
d="M12 0l170 682h174l-170 -682h-174zM237 734h-160l38 150h160zM487 734h-160l38 150h160z" />
    <glyph glyph-name="Upsilondieresis" unicode="&#x3ab;" horiz-adv-x="658" 
d="M356 0h-174l67 271l-139 411h201l66 -235l178 235h213l-344 -410zM407 734h-160l38 150h160zM657 734h-160l38 150h160z" />
    <glyph glyph-name="alphatonos" unicode="&#x3ac;" horiz-adv-x="632" 
d="M592 119l-30 -121q-33 -14 -82 -14q-102 0 -114 76h-1q-70 -76 -170 -76q-102 0 -145 79.5t-13 197.5q29 118 106 186.5t183 68.5q50 0 86.5 -18.5t49.5 -51.5h1l18 54h147q-25 -77 -66 -236l-24 -93q-8 -33 -3.5 -44.5t25.5 -11.5q22 0 32 4zM399 243l4 15
q15 58 -1.5 95t-61.5 37q-47 0 -83.5 -38.5t-52.5 -101.5q-17 -60 -1.5 -100t63.5 -40q44 0 80.5 35.5t52.5 97.5zM305 556l68 150h169l-98 -150h-139z" />
    <glyph glyph-name="epsilontonos" unicode="&#x3ad;" horiz-adv-x="533" 
d="M422 156l76 -88q-103 -84 -272 -84q-129 0 -181.5 49t-32.5 127q10 38 40 65t68 35l1 2q-52 38 -35 105q37 149 267 149q141 0 214 -66l-92 -99q-52 49 -133 49q-79 0 -90 -47q-6 -22 8.5 -34.5t55.5 -12.5h77l-27 -106h-80q-51 0 -72.5 -9t-28.5 -34q-6 -25 13.5 -40
t69.5 -15q81 0 154 54zM297 556l68 150h169l-98 -150h-139z" />
    <glyph glyph-name="etatonos" unicode="&#x3ae;" horiz-adv-x="614" 
d="M453 -180h-160l108 430q20 81 14 103q-9 37 -58 37q-38 0 -68 -24q-41 -33 -62 -115l-63 -251h-159l60 241q44 175 62 259h148l-12 -60h1q70 76 164 76q90 0 130.5 -58.5t14.5 -161.5zM318 556l68 150h169l-98 -150h-139z" />
    <glyph glyph-name="iotatonos" unicode="&#x3af;" horiz-adv-x="298" 
d="M258 120l-29 -120q-38 -16 -92 -16q-139 0 -100 156l90 360h160l-83 -329q-14 -57 20 -57q18 0 34 6zM141 552l68 150h169l-98 -150h-139z" />
    <glyph glyph-name="upsilondieresistonos" unicode="&#x3b0;" horiz-adv-x="594" 
d="M280 500l-61 -244q-15 -61 -15.5 -86.5t13.5 -37.5q16 -16 49 -16q42 0 67 25q27 27 50 115l61 244h160l-72 -284q-32 -128 -103 -180t-190 -52q-118 0 -167 63t-19 185l67 268h160zM277 552h-130l37 150h130zM604 552h-130l37 150h130zM297 552l66 182h149l-96 -182
h-119z" />
    <glyph glyph-name="alpha" unicode="&#x3b1;" horiz-adv-x="632" 
d="M592 119l-30 -121q-33 -14 -82 -14q-102 0 -114 76h-1q-70 -76 -170 -76q-102 0 -145 79.5t-13 197.5q29 118 106 186.5t183 68.5q50 0 86.5 -18.5t49.5 -51.5h1l18 54h147q-25 -77 -66 -236l-24 -93q-8 -33 -3.5 -44.5t25.5 -11.5q22 0 32 4zM399 243l4 15
q15 58 -1.5 95t-61.5 37q-47 0 -83.5 -38.5t-52.5 -101.5q-17 -60 -1.5 -100t63.5 -40q44 0 80.5 35.5t52.5 97.5z" />
    <glyph glyph-name="beta" unicode="&#x3b2;" horiz-adv-x="597" 
d="M119 -180h-160l170 675q55 221 279 221q63 0 106.5 -18.5t62 -48.5t25 -67.5t-5.5 -75.5q-12 -48 -45 -83t-76 -50v-2q49 -16 71.5 -62.5t6.5 -109.5q-27 -107 -97 -161t-167 -54q-90 0 -120 42h-1q-3 -21 -14 -69zM321 423h17q33 0 56 23.5t32 58.5q9 36 -3 60.5
t-43 24.5q-68 0 -92 -95l-71 -287q-11 -45 5 -71.5t56 -26.5q39 0 68 26.5t40 71.5q24 97 -66 97h-29z" />
    <glyph glyph-name="gamma" unicode="&#x3b3;" horiz-adv-x="547" 
d="M243 -180h-160l46 179l-67 501h176l14 -187q6 -105 4 -159h3q97 172 149 346h176q-41 -136 -114.5 -256t-181.5 -245z" />
    <glyph glyph-name="delta" unicode="&#x3b4;" horiz-adv-x="604" 
d="M630 671l-81 -116q-57 41 -133 41q-62 0 -71 -37q-6 -23 11 -40q14 -14 79.5 -45t95.5 -63q65 -65 34 -196q-26 -107 -113.5 -169t-206.5 -62q-122 0 -181.5 72t-28.5 195q34 136 157 193q-33 52 -16 122q17 68 79.5 109t171.5 41q122 0 203 -45zM373 321q-7 6 -14 11.5
t-16.5 10.5t-16 8t-19.5 8.5t-19 8.5q-64 -36 -86 -125q-14 -58 3.5 -93t64.5 -35q45 0 80.5 31.5t46.5 75.5q15 60 -24 99z" />
    <glyph glyph-name="epsilon" unicode="&#x3b5;" horiz-adv-x="533" 
d="M422 156l76 -88q-103 -84 -272 -84q-129 0 -181.5 49t-32.5 127q10 38 40 65t68 35l1 2q-52 38 -35 105q37 149 267 149q141 0 214 -66l-92 -99q-52 49 -133 49q-79 0 -90 -47q-6 -22 8.5 -34.5t55.5 -12.5h77l-27 -106h-80q-51 0 -72.5 -9t-28.5 -34q-6 -25 13.5 -40
t69.5 -15q81 0 154 54z" />
    <glyph glyph-name="zeta" unicode="&#x3b6;" horiz-adv-x="448" 
d="M148 563l34 139h375l-14 -56l-18 -73q-108 -65 -206.5 -161.5t-116.5 -170.5q-13 -48 10 -71q12 -12 67 -34.5t77 -44.5q47 -47 24 -140q-17 -65 -71 -145l-150 28q39 65 49 108q7 28 -11 46q-10 10 -61 30.5t-78 47.5q-55 55 -27 169q18 75 87 161t201 173
q-60 -6 -119 -6h-52z" />
    <glyph glyph-name="eta" unicode="&#x3b7;" horiz-adv-x="614" 
d="M453 -180h-160l108 430q20 81 14 103q-9 37 -58 37q-38 0 -68 -24q-41 -33 -62 -115l-63 -251h-159l60 241q44 175 62 259h148l-12 -60h1q70 76 164 76q90 0 130.5 -58.5t14.5 -161.5z" />
    <glyph glyph-name="theta" unicode="&#x3b8;" horiz-adv-x="594" 
d="M586 341q-44 -178 -134.5 -267.5t-215.5 -89.5q-127 0 -173.5 96.5t-1.5 275.5q45 180 136.5 270t220.5 90q123 0 168 -97.5t0 -277.5zM268 112q88 0 144 183h-204q-32 -183 60 -183zM386 588q-90 0 -148 -173h203q29 173 -55 173z" />
    <glyph glyph-name="iota" unicode="&#x3b9;" horiz-adv-x="298" 
d="M258 120l-29 -120q-38 -16 -92 -16q-139 0 -100 156l90 360h160l-83 -329q-14 -57 20 -57q18 0 34 6z" />
    <glyph glyph-name="kappa" unicode="&#x3ba;" horiz-adv-x="573" 
d="M531 0h-175l-75 182l-92 -82l-25 -100h-159l125 500h159l-47 -187l191 187h205l-230 -205z" />
    <glyph glyph-name="lambda" unicode="&#x3bb;" horiz-adv-x="540" 
d="M482 0h-172l-10 195q-4 124 -2 152h-3q-27 -62 -73 -152l-99 -195h-185l320 535l-1 12q-3 41 -52 41q-29 0 -62 -13l32 125q34 16 83 16q90 0 126 -42.5t46 -144.5z" />
    <glyph glyph-name="nu" unicode="&#x3bd;" horiz-adv-x="547" 
d="M130 0l-68 500h172l14 -187q6 -104 4 -156h3q99 175 149 343h180q-41 -136 -114 -256t-180 -244h-160z" />
    <glyph glyph-name="xi" unicode="&#x3be;" horiz-adv-x="497" 
d="M337 -194l-151 28q39 65 49 108q7 28 -9 44q-11 11 -73.5 31.5t-89.5 47.5q-59 59 -34 160q15 60 57.5 99.5t100.5 55.5v2q-31 16 -48 55.5t-3 93.5q23 91 95.5 138t178.5 47q48 0 94 -15t75 -41l-105 -102q-29 34 -81 34q-34 0 -60 -20.5t-34 -52.5q-9 -38 10 -59
t61 -21h63l-32 -125h-82q-48 0 -78.5 -23.5t-40.5 -59.5q-10 -40 12 -62q16 -16 80.5 -34.5t93.5 -47.5q44 -44 20 -136q-13 -56 -69 -145z" />
    <glyph glyph-name="omicron" unicode="&#x3bf;" horiz-adv-x="604" 
d="M403 250q16 63 -2 99t-65 36q-46 0 -81 -36t-51 -99t2 -99t65 -36q46 0 81 36t51 99zM570 239q-31 -125 -117 -190t-206 -65q-122 0 -182 74.5t-28 202.5q31 125 117 190t206 65q122 0 182 -74.5t28 -202.5z" />
    <glyph glyph-name="pi" unicode="&#x3c0;" horiz-adv-x="683" 
d="M617 120l-30 -122q-40 -14 -90 -14q-87 0 -114 51.5t-7 149.5l36 175h-101l-128 -360h-165l130 360h-80l35 140h602l-35 -140h-101l-25 -149q-9 -54 1 -75t37 -21q20 0 35 5z" />
    <glyph glyph-name="rho" unicode="&#x3c1;" horiz-adv-x="612" 
d="M213 250q-15 -62 2 -100t63 -38q47 0 82.5 37.5t51.5 100.5q15 62 -2 100t-65 38q-44 0 -80 -36.5t-52 -101.5zM107 -180h-160l112 446q32 127 114 188.5t197 61.5q133 0 186.5 -77.5t22.5 -197.5q-29 -118 -109.5 -187.5t-186.5 -69.5q-93 0 -124 55h-1q-5 -33 -16 -82z
" />
    <glyph glyph-name="sigma1" unicode="&#x3c2;" horiz-adv-x="516" 
d="M346 -194l-151 28q39 65 49 108q7 29 -6 42q-8 8 -74 29t-94 49q-67 67 -32 207q31 121 111 184t193 63q78 0 128 -38.5t58 -104.5l-147 -53q3 67 -62 67q-38 0 -68 -33t-45 -91q-16 -67 12 -95q14 -14 81.5 -34t95.5 -47q43 -42 20 -137q-17 -65 -69 -144z" />
    <glyph glyph-name="sigma" unicode="&#x3c3;" horiz-adv-x="628" 
d="M683 500l-36 -142h-44q-21 0 -44 3l-2 -2q33 -47 13 -122q-11 -44 -35 -86t-62 -81t-98 -62.5t-132 -23.5q-122 0 -180 73.5t-26 201.5q31 125 118.5 191t207.5 66q31 0 98 -8t123 -8h99zM404 250q16 64 -2 99.5t-65 35.5t-82 -35.5t-51 -99.5t1.5 -99.5t64.5 -35.5
t82.5 35.5t51.5 99.5z" />
    <glyph glyph-name="tau" unicode="&#x3c4;" horiz-adv-x="457" 
d="M364 124l-31 -123q-43 -17 -101 -17q-176 0 -128 181q2 8 13 49t22 83t16 63h-108l36 140h421l-36 -140h-153l-38 -150q-12 -48 -13 -64t6 -22q9 -9 30 -9q24 0 64 9z" />
    <glyph glyph-name="upsilon" unicode="&#x3c5;" horiz-adv-x="594" 
d="M280 500l-61 -244q-15 -61 -15.5 -86.5t13.5 -37.5q16 -16 49 -16q42 0 67 25q27 27 50 115l61 244h160l-72 -284q-32 -128 -103 -180t-190 -52q-118 0 -167 63t-19 185l67 268h160z" />
    <glyph glyph-name="phi" unicode="&#x3c6;" horiz-adv-x="827" 
d="M387 -180h-160l42 167q-133 11 -197 83t-35 188q28 114 125 182.5t239 71.5l47 190h160l-47 -190q133 -11 198 -83t36 -187q-29 -114 -126 -183t-240 -72zM303 109l70 281q-66 -5 -109.5 -41t-59.5 -99q-31 -128 99 -141zM528 390l-70 -281q66 6 110 42t59 99
q32 128 -99 140z" />
    <glyph glyph-name="chi" unicode="&#x3c7;" horiz-adv-x="569" 
d="M473 -180h-183l-57 236h-3l-153 -236h-192l282 369l-94 311h183l42 -198h3l129 198h187l-253 -331z" />
    <glyph glyph-name="psi" unicode="&#x3c8;" horiz-adv-x="845" 
d="M401 -180h-160l42 168q-148 12 -201 78t-19 200l59 234h160l-61 -244q-17 -70 5.5 -103t87.5 -42l148 591h160l-147 -588q70 14 112 56t61 119q26 99 24 211h172q3 -93 -28 -219q-35 -138 -124.5 -209.5t-248.5 -84.5z" />
    <glyph glyph-name="omega" unicode="&#x3c9;" horiz-adv-x="866" 
d="M377 338h160l-30 -119q-13 -53 2 -78.5t47 -25.5q34 0 61.5 31t42.5 93q16 63 0.5 105t-59.5 49l73 123q98 -13 142 -87.5t13 -195.5q-61 -248 -275 -248q-67 0 -109.5 33t-42.5 86h-2q-27 -55 -80.5 -87.5t-118.5 -32.5q-108 0 -151 73t-13 196q31 121 108 188t185 75
l11 -123q-49 -7 -84.5 -48t-52.5 -106q-30 -124 44 -124q32 0 59 25.5t40 78.5z" />
    <glyph glyph-name="iotadieresis" unicode="&#x3ca;" horiz-adv-x="298" 
d="M258 120l-29 -120q-38 -16 -92 -16q-139 0 -100 156l90 360h160l-83 -329q-14 -57 20 -57q18 0 34 6zM202 552h-140l37 150h140zM382 552h-140l37 150h140z" />
    <glyph glyph-name="upsilondieresis" unicode="&#x3cb;" horiz-adv-x="594" 
d="M280 500l-61 -244q-15 -61 -15.5 -86.5t13.5 -37.5q16 -16 49 -16q42 0 67 25q27 27 50 115l61 244h160l-72 -284q-32 -128 -103 -180t-190 -52q-118 0 -167 63t-19 185l67 268h160zM340 552h-150l37 150h150zM560 552h-150l37 150h150z" />
    <glyph glyph-name="omicrontonos" unicode="&#x3cc;" horiz-adv-x="604" 
d="M304 552l68 150h169l-98 -150h-139zM403 250q16 63 -2 99t-65 36q-46 0 -81 -36t-51 -99t2 -99t65 -36q46 0 81 36t51 99zM570 239q-31 -125 -117 -190t-206 -65q-122 0 -182 74.5t-28 202.5q31 125 117 190t206 65q122 0 182 -74.5t28 -202.5z" />
    <glyph glyph-name="upsilontonos" unicode="&#x3cd;" horiz-adv-x="594" 
d="M280 500l-61 -244q-15 -61 -15.5 -86.5t13.5 -37.5q16 -16 49 -16q42 0 67 25q27 27 50 115l61 244h160l-72 -284q-32 -128 -103 -180t-190 -52q-118 0 -167 63t-19 185l67 268h160zM306 552l68 150h169l-98 -150h-139z" />
    <glyph glyph-name="omegatonos" unicode="&#x3ce;" horiz-adv-x="866" 
d="M377 338h160l-30 -119q-13 -53 2 -78.5t47 -25.5q34 0 61.5 31t42.5 93q16 63 0.5 105t-59.5 49l73 123q98 -13 142 -87.5t13 -195.5q-61 -248 -275 -248q-67 0 -109.5 33t-42.5 86h-2q-27 -55 -80.5 -87.5t-118.5 -32.5q-108 0 -151 73t-13 196q31 121 108 188t185 75
l11 -123q-49 -7 -84.5 -48t-52.5 -106q-30 -124 44 -124q32 0 59 25.5t40 78.5zM435 512l86 190h169l-124 -190h-131z" />
    <glyph glyph-name="uni0400" unicode="&#x400;" horiz-adv-x="655" 
d="M12 0l170 682h524l-33 -132h-349l-36 -139h304l-33 -128h-303l-37 -150h367l-33 -133h-541zM514 884l44 -150h-147l-105 150h208z" />
    <glyph glyph-name="uni0401" unicode="&#x401;" horiz-adv-x="655" 
d="M12 0l170 682h524l-33 -132h-349l-36 -139h304l-33 -128h-303l-37 -150h367l-33 -133h-541zM410 734h-160l38 150h160zM660 734h-160l38 150h160z" />
    <glyph glyph-name="uni0402" unicode="&#x402;" horiz-adv-x="782" 
d="M124 0l135 542h-187l35 140h548l-35 -140h-187l-28 -114q64 2 100 2q147 0 211.5 -63t36.5 -176q-25 -101 -99 -153.5t-184 -52.5q-47 0 -95 4l35 142q26 -6 55 -6q86 0 106 80q11 44 -14.5 64.5t-91.5 20.5q-41 0 -95 -2l-72 -288h-174z" />
    <glyph glyph-name="uni0403" unicode="&#x403;" horiz-adv-x="525" 
d="M12 0l170 682h445l-35 -140h-271l-135 -542h-174zM319 734l121 150h221l-180 -150h-162z" />
    <glyph glyph-name="uni0404" unicode="&#x404;" horiz-adv-x="704" 
d="M471 280h-239q-5 -68 26.5 -107t94.5 -39q121 0 199 95l97 -102q-122 -145 -324 -145q-156 0 -229 102.5t-31 268.5q22 88 66 156t100.5 109t119 61.5t128.5 20.5q201 0 269 -156l-153 -79q-45 83 -143 83q-56 0 -104.5 -34t-78.5 -98h235z" />
    <glyph glyph-name="uni0405" unicode="&#x405;" horiz-adv-x="688" 
d="M6 69l79 134q121 -81 246 -81q105 0 119 59q6 26 -12.5 43.5t-52 26.5t-75 21t-81.5 26t-70.5 41t-42 67.5t3.5 104.5q22 89 99 139t206 50q157 0 259 -64l-77 -136q-97 61 -198 61q-97 0 -110 -51q-6 -25 12.5 -41.5t53 -25t76 -20t81.5 -25.5t71 -42t42 -69.5
t-4 -107.5q-22 -91 -106 -144t-216 -53q-181 0 -303 87z" />
    <glyph glyph-name="uni0406" unicode="&#x406;" horiz-adv-x="318" 
d="M12 0l170 682h174l-170 -682h-174z" />
    <glyph glyph-name="uni0407" unicode="&#x407;" horiz-adv-x="318" 
d="M12 0l170 682h174l-170 -682h-174zM238 734h-160l38 150h160zM488 734h-160l38 150h160z" />
    <glyph glyph-name="uni0408" unicode="&#x408;" horiz-adv-x="577" 
d="M448 682h174l-115 -459q-60 -241 -299 -241q-52 0 -94 14t-72.5 43.5t-42.5 80t0 117.5l177 28q-12 -69 1 -100t56 -31q78 0 102 97z" />
    <glyph glyph-name="uni0409" unicode="&#x409;" horiz-adv-x="1104" 
d="M437 0l135 542h-182l-35 -124q-51 -179 -93 -269t-95.5 -127.5t-138.5 -37.5q-53 0 -80 9l34 139h44q50 0 87.5 67t90.5 255l64 228h513l-51 -203q60 2 94 2q51 0 93.5 -7.5t81.5 -24.5t61 -46t31.5 -72t-7.5 -102q-31 -125 -124.5 -178t-243.5 -53q-11 0 -279 2z
M696 340l-51 -201q35 -1 101 -1q73 0 108.5 25.5t47.5 75.5q13 52 -10 77t-98 25q-64 0 -98 -1z" />
    <glyph glyph-name="uni040A" unicode="&#x40a;" horiz-adv-x="1115" 
d="M454 0l70 283h-268l-70 -283h-174l170 682h174l-64 -255h268l64 255h174l-51 -203q60 2 91 2q51 0 93 -7.5t81 -24.5t60.5 -46t31 -72t-7.5 -102q-31 -125 -124 -178t-242 -53q-22 0 -57 0.5t-99 1t-120 0.5zM713 340l-51 -201q35 -1 98 -1q72 0 107 25.5t47 75.5
q13 52 -9 77t-97 25q-61 0 -95 -1z" />
    <glyph glyph-name="uni040B" unicode="&#x40b;" horiz-adv-x="787" 
d="M124 0l135 542h-187l35 140h548l-35 -140h-187l-34 -137h90q153 0 207.5 -60.5t20.5 -198.5l-36 -146h-174l33 135q19 76 -3 103t-101 27h-72l-66 -265h-174z" />
    <glyph glyph-name="uni040C" unicode="&#x40c;" horiz-adv-x="724" 
d="M665 0h-202l-126 284h-81l-70 -284h-174l170 682h174l-64 -257h68l258 257h215l-338 -316zM400 734l121 150h221l-180 -150h-162z" />
    <glyph glyph-name="uni040D" unicode="&#x40d;" horiz-adv-x="782" 
d="M650 0h-174l107 430l-385 -430h-186l170 682h174l-107 -430l385 430h186zM550 884l44 -150h-147l-105 150h208z" />
    <glyph glyph-name="uni040E" unicode="&#x40e;" horiz-adv-x="658" 
d="M13 -3l34 136h79q82 0 128 63l-134 486h187l77 -317l204 317h191l-338 -482q-87 -124 -162.5 -170.5t-167.5 -46.5q-72 0 -98 14zM571 908h135q-42 -176 -237 -176q-96 0 -139 45t-28 131h135q-9 -83 46 -83q32 0 54.5 23.5t33.5 59.5z" />
    <glyph glyph-name="uni040F" unicode="&#x40f;" horiz-adv-x="742" 
d="M347 -151h-148l38 151h-225l170 682h174l-135 -542h250l135 542h174l-170 -682h-225z" />
    <glyph glyph-name="uni0410" unicode="&#x410;" horiz-adv-x="713" 
d="M357 682h219l68 -682h-193l-7 126h-231l-68 -126h-197zM345 369l-62 -115h155l-6 114q-4 90 0 174h-4q-31 -77 -83 -173z" />
    <glyph glyph-name="uni0411" unicode="&#x411;" horiz-adv-x="698" 
d="M258 288l-38 -147q66 -2 113 -2q59 0 94 15.5t46 59.5t-16.5 60t-89.5 16q-59 0 -109 -2zM684 542h-363l-28 -113q72 2 111 2q150 0 215 -56.5t36 -171.5q-28 -112 -112.5 -158.5t-237.5 -46.5q-211 0 -293 2l170 682h537z" />
    <glyph glyph-name="uni0412" unicode="&#x412;" horiz-adv-x="729" 
d="M257 284l-38 -150q92 -2 125 -2q131 0 149 74q2 19 2.5 32t-9.5 21.5t-17.5 13.5t-23 7.5t-25 3t-22.5 0.5h-141zM323 548l-34 -135h112q82 0 111 23q23 20 29 46q7 29 -5 45q-10 13 -33.5 18t-81.5 5q-44 0 -98 -2zM12 0l170 682q140 2 286 2q185 0 241 -74
q33 -46 17 -110q-28 -108 -147 -143q58 -14 84.5 -58t10.5 -105q-15 -62 -50.5 -102.5t-88.5 -60t-106.5 -26.5t-125.5 -7q-125 0 -291 2z" />
    <glyph glyph-name="uni0413" unicode="&#x413;" horiz-adv-x="525" 
d="M12 0l170 682h445l-35 -140h-271l-135 -542h-174z" />
    <glyph glyph-name="uni0414" unicode="&#x414;" horiz-adv-x="800" 
d="M687 -151h-148l38 151h-477l-38 -151h-147l72 291h72q51 54 87 131.5t70 199.5l58 211h516l-135 -542h105zM481 140l100 402h-184l-24 -87q-32 -116 -64 -189t-78 -126h250z" />
    <glyph glyph-name="uni0415" unicode="&#x415;" horiz-adv-x="655" 
d="M12 0l170 682h524l-33 -132h-349l-36 -139h304l-33 -128h-303l-37 -150h367l-33 -133h-541z" />
    <glyph glyph-name="uni0416" unicode="&#x416;" horiz-adv-x="1092" 
d="M1033 0h-195l-114 284h-80l-70 -284h-174l70 284h-77l-253 -284h-208l342 377l-157 305h194l116 -257h79l64 257h174l-64 -257h73l241 257h205l-313 -319z" />
    <glyph glyph-name="uni0417" unicode="&#x417;" horiz-adv-x="649" 
d="M-12 89l115 112q64 -77 176 -77q56 0 90 21t43 56q11 41 -21 59.5t-118 18.5h-85l35 136h85q134 0 153 72q9 36 -15.5 53.5t-75.5 17.5q-112 0 -201 -55l-38 126q124 71 281 71q136 0 197 -52.5t38 -146.5q-13 -51 -52.5 -90t-92.5 -52v-1q119 -30 91 -167
q-19 -95 -111 -152t-217 -57q-185 0 -277 107z" />
    <glyph glyph-name="uni0418" unicode="&#x418;" horiz-adv-x="782" 
d="M650 0h-174l107 430l-385 -430h-186l170 682h174l-107 -430l385 430h186z" />
    <glyph glyph-name="uni0419" unicode="&#x419;" horiz-adv-x="782" 
d="M650 0h-174l107 430l-385 -430h-186l170 682h174l-107 -430l385 430h186zM616 908h135q-42 -176 -237 -176q-96 0 -139 45t-28 131h135q-9 -83 46 -83q32 0 54.5 23.5t33.5 59.5z" />
    <glyph glyph-name="uni041A" unicode="&#x41a;" horiz-adv-x="724" 
d="M665 0h-202l-126 284h-81l-70 -284h-174l170 682h174l-64 -257h68l258 257h215l-338 -316z" />
    <glyph glyph-name="uni041B" unicode="&#x41b;" horiz-adv-x="753" 
d="M621 0h-174l135 542h-192l-35 -124q-51 -179 -93 -269t-95.5 -127.5t-138.5 -37.5q-53 0 -80 9l34 139h44q50 0 87.5 67t90.5 255l64 228h523z" />
    <glyph glyph-name="uni041C" unicode="&#x41c;" horiz-adv-x="972" 
d="M12 0l170 682h283l19 -283q7 -98 -1 -156h3q24 65 75 156l161 283h288l-170 -682h-174l60 240q48 194 84 308h-6q-42 -89 -91 -174l-213 -374h-159l-26 374q-6 99 -3 174h-6q-18 -100 -70 -308l-60 -240h-164z" />
    <glyph glyph-name="uni041D" unicode="&#x41d;" horiz-adv-x="770" 
d="M12 0l170 682h174l-64 -255h278l64 255h174l-170 -682h-174l70 282h-278l-70 -282h-174z" />
    <glyph glyph-name="uni041E" unicode="&#x41e;" horiz-adv-x="794" 
d="M598 341q23 93 -10 149t-115 56t-143 -56t-84 -149q-23 -92 10 -148.5t115 -56.5q81 0 142 56t85 149zM779 331q-40 -162 -159.5 -255.5t-279.5 -93.5q-161 0 -239 103t-37 266q40 161 160 255t280 94q161 0 238.5 -103t36.5 -266z" />
    <glyph glyph-name="uni041F" unicode="&#x41f;" horiz-adv-x="755" 
d="M12 0l170 682h611l-170 -682h-174l135 542h-263l-135 -542h-174z" />
    <glyph glyph-name="uni0420" unicode="&#x420;" horiz-adv-x="689" 
d="M539 447q12 48 -11.5 72.5t-97.5 24.5q-73 0 -108 -1l-48 -190q35 -1 107 -1q135 0 158 95zM12 0l170 682q50 0 139.5 1t138.5 1q51 0 93.5 -7.5t81.5 -24.5t61 -45t31.5 -70.5t-6.5 -99.5q-31 -122 -124 -173.5t-242 -51.5q-87 0 -116 1l-53 -213h-174z" />
    <glyph glyph-name="uni0421" unicode="&#x421;" horiz-adv-x="715" 
d="M533 275l145 -65q-104 -228 -354 -228q-153 0 -226.5 102.5t-32.5 267.5q43 173 156 260.5t253 87.5q110 0 183 -57t83 -160l-173 -53q-10 117 -113 117q-68 0 -126 -55t-83 -153q-23 -93 7 -147.5t103 -54.5q53 0 96 32t82 106z" />
    <glyph glyph-name="uni0422" unicode="&#x422;" horiz-adv-x="542" 
d="M122 0l135 542h-185l35 140h548l-35 -140h-185l-135 -542h-178z" />
    <glyph glyph-name="uni0423" unicode="&#x423;" horiz-adv-x="658" 
d="M13 -3l34 136h79q82 0 128 63l-134 486h187l77 -317l204 317h191l-338 -482q-87 -124 -162.5 -170.5t-167.5 -46.5q-72 0 -98 14z" />
    <glyph glyph-name="uni0424" unicode="&#x424;" horiz-adv-x="1022" 
d="M529 -42h-178l26 103l-40 1q-157 4 -234.5 79.5t-40.5 224.5q30 120 139.5 194t280.5 78l40 1l23 97h178l-23 -97l39 -1q166 -5 238 -83.5t38 -217.5q-33 -131 -145 -200.5t-278 -74.5l-37 -1zM409 191l80 318l-40 -1q-80 -2 -135 -43.5t-73 -113.5q-18 -73 16 -115
t113 -44zM667 509l-80 -318l37 1q76 2 135 45.5t76 113.5q18 72 -16.5 113.5t-114.5 43.5z" />
    <glyph glyph-name="uni0425" unicode="&#x425;" horiz-adv-x="647" 
d="M594 0h-200l-74 230l-186 -230h-202l311 360l-126 322h200l65 -201l159 201h202l-284 -331z" />
    <glyph glyph-name="uni0426" unicode="&#x426;" horiz-adv-x="790" 
d="M677 -151h-148l38 151h-555l170 682h174l-135 -542h250l135 542h174l-135 -542h105z" />
    <glyph glyph-name="uni0427" unicode="&#x427;" horiz-adv-x="695" 
d="M563 0h-174l58 234h-110q-151 0 -205.5 66t-19.5 205l44 177h174l-41 -166q-21 -81 1 -111.5t100 -30.5h92l77 308h174z" />
    <glyph glyph-name="uni0428" unicode="&#x428;" horiz-adv-x="1082" 
d="M950 0h-938l170 682h174l-135 -542h208l135 542h174l-135 -542h208l135 542h174z" />
    <glyph glyph-name="uni0429" unicode="&#x429;" horiz-adv-x="1130" 
d="M1017 -151h-148l38 151h-895l170 682h174l-135 -542h208l135 542h174l-135 -542h208l135 542h174l-135 -542h104z" />
    <glyph glyph-name="uni042A" unicode="&#x42a;" horiz-adv-x="779" 
d="M360 340l-49 -200q35 -1 110 -1q73 0 109 25t48 75q13 50 -13 76t-102 26q-69 0 -103 -1zM102 0l137 549h-166l34 133h339l-50 -202q60 2 104 2q51 0 93 -7.5t81 -25t61 -46.5t31.5 -72t-7.5 -102q-31 -125 -124.5 -178t-243.5 -53q-21 0 -289 2z" />
    <glyph glyph-name="uni042B" unicode="&#x42b;" horiz-adv-x="985" 
d="M271 340l-51 -201q35 -1 101 -1q73 0 108.5 25.5t47.5 75.5q13 51 -10 76.5t-98 25.5q-64 0 -98 -1zM12 0l170 682h174l-51 -203q60 2 95 2q51 0 93 -7.5t81 -24.5t61 -46t31.5 -72t-7.5 -102q-31 -125 -124.5 -178t-243.5 -53q-11 0 -279 2zM679 0l170 682h174
l-170 -682h-174z" />
    <glyph glyph-name="uni042C" unicode="&#x42c;" horiz-adv-x="689" 
d="M270 340l-50 -201q35 -1 111 -1q73 0 108.5 25.5t47.5 75.5q13 51 -12.5 76.5t-101.5 25.5q-69 0 -103 -1zM12 0l170 682h174l-50 -201q60 2 103 2q51 0 93.5 -7.5t81.5 -25t61 -47t31.5 -72.5t-7.5 -102q-31 -125 -124.5 -178t-243.5 -53q-21 0 -289 2z" />
    <glyph glyph-name="uni042D" unicode="&#x42d;" horiz-adv-x="696" 
d="M245 282l33 132h237q2 66 -30 100t-90 34q-106 0 -178 -80l-110 85q134 147 326 147q157 0 223.5 -101.5t24.5 -269.5q-29 -116 -95 -196.5t-145 -115.5t-167 -35q-109 0 -177.5 48t-93.5 136l165 58q25 -90 126 -90q131 0 191 148h-240z" />
    <glyph glyph-name="uni042E" unicode="&#x42e;" horiz-adv-x="1084" 
d="M1069 330q-40 -162 -154 -255t-267 -93q-136 0 -210 82.5t-60 219.5h-121l-71 -284h-174l170 682h174l-64 -257h121q53 130 159 202.5t240 72.5q153 0 225.5 -103.5t31.5 -266.5zM888 341q24 94 -4.5 150t-102.5 56t-129.5 -56t-79.5 -150t4 -150t102 -56t130 56t80 150z
" />
    <glyph glyph-name="uni042F" unicode="&#x42f;" horiz-adv-x="713" 
d="M581 0h-174l57 231h-91l-205 -231h-216l236 253q-55 29 -79 88t-6 129q52 214 345 214q34 0 142 -1t161 -1zM499 370l43 173q-17 0 -55 0.5t-60 0.5q-68 0 -100 -19.5t-42 -57.5q-10 -41 10.5 -69.5t84.5 -28.5q82 0 119 1z" />
    <glyph glyph-name="uni0430" unicode="&#x430;" horiz-adv-x="555" 
d="M521 320l-23 -87q-19 -76 -55 -233h-145l13 51h-1q-71 -67 -166 -67q-87 0 -124.5 49.5t-19.5 119.5q19 79 101.5 121t257.5 42l3 12q8 34 -9.5 52.5t-60.5 18.5q-75 0 -163 -58l-46 100q117 75 249 75q111 0 162 -51.5t27 -144.5zM330 201l3 11q-89 0 -124 -15.5
t-43 -45.5q-11 -48 43 -48q38 0 74 27t47 71z" />
    <glyph glyph-name="uni0431" unicode="&#x431;" horiz-adv-x="600" 
d="M645 716l-36 -140q-93 -2 -200 -14q-74 -8 -119 -44t-76 -120h3q80 80 180 80q102 0 148 -70t15 -197q-26 -106 -109.5 -166.5t-200.5 -60.5q-130 0 -183.5 85.5t-11.5 253.5q44 177 129.5 266.5t229.5 108.5q119 15 231 18zM272 115q46 0 79 34t44 82q12 52 -6 84
t-66 32q-46 0 -78.5 -32t-43.5 -79l-1 -3q-13 -52 5.5 -85t66.5 -33z" />
    <glyph glyph-name="uni0432" unicode="&#x432;" horiz-adv-x="615" 
d="M5 2l124 496q105 18 219 18q176 0 223 -56q34 -40 19 -101q-18 -78 -109 -98v-2q97 -26 74 -118q-22 -88 -99 -122.5t-203 -34.5q-135 0 -248 18zM215 202l-23 -96q35 -6 80 -6q95 0 109 52q7 29 -17 39.5t-73 10.5h-76zM263 395l-22 -92h68q67 0 87 20q11 11 15 27
q5 22 -7 34q-16 16 -71 16q-35 0 -70 -5z" />
    <glyph glyph-name="uni0433" unicode="&#x433;" horiz-adv-x="435" 
d="M5 0l125 500h365l-31 -124h-205l-94 -376h-160z" />
    <glyph glyph-name="uni0434" unicode="&#x434;" horiz-adv-x="668" 
d="M559 -141h-140l36 141h-370l-36 -141h-139l66 265h63q76 73 120 224l44 152h434l-93 -376h82zM384 124l62 252h-130l-18 -60q-41 -134 -95 -192h181z" />
    <glyph glyph-name="uni0435" unicode="&#x435;" horiz-adv-x="591" 
d="M458 158l43 -104q-113 -70 -243 -70q-132 0 -192.5 74t-27.5 203q31 124 117.5 189.5t206.5 65.5t175 -72t24 -196q-8 -34 -17 -48h-351q-4 -51 20.5 -73.5t76.5 -22.5q87 0 168 54zM341 400q-81 0 -121 -96h186q9 45 -8 70.5t-57 25.5z" />
    <glyph glyph-name="uni0436" unicode="&#x436;" horiz-adv-x="838" 
d="M780 0h-174l-66 199h-52l-49 -199h-160l49 199h-49l-161 -199h-193l236 271l-101 229h179l63 -178h57l45 178h160l-45 -178h52l150 178h185l-218 -239z" />
    <glyph glyph-name="uni0437" unicode="&#x437;" horiz-adv-x="540" 
d="M-22 59l78 104q58 -60 157 -60q79 0 91 48q7 26 -16 37.5t-82 11.5h-65l27 104h72q89 0 101 48q5 21 -11 34t-52 13q-96 0 -168 -51l-33 101q104 67 239 67q118 0 170 -42.5t34 -113.5q-21 -81 -111 -99v-2q45 -10 63 -42.5t6 -78.5q-40 -154 -272 -154q-148 0 -228 75z
" />
    <glyph glyph-name="uni0438" unicode="&#x438;" horiz-adv-x="649" 
d="M524 0h-160l72 291l-248 -291h-183l125 500h160l-73 -291l249 291h183z" />
    <glyph glyph-name="uni0439" unicode="&#x439;" horiz-adv-x="649" 
d="M524 0h-160l72 291l-248 -291h-183l125 500h160l-73 -291l249 291h183zM492 720h131q-47 -170 -220 -170q-186 0 -159 170h134q-14 -78 40 -78q47 0 74 78z" />
    <glyph glyph-name="uni043A" unicode="&#x43a;" horiz-adv-x="584" 
d="M528 0h-181l-71 199h-62l-49 -199h-160l125 500h160l-45 -178h59l154 178h191l-221 -234z" />
    <glyph glyph-name="uni043B" unicode="&#x43b;" horiz-adv-x="636" 
d="M511 0h-160l93 376h-131l-26 -87q-38 -127 -73 -192t-76 -89t-106 -24q-51 0 -79 11l30 118h34q40 0 68.5 45.5t61.5 160.5l52 181h436z" />
    <glyph glyph-name="uni043C" unicode="&#x43c;" horiz-adv-x="862" 
d="M593 0l33 198q17 100 34 175h-5l-206 -373h-161l-20 373h-5q-17 -67 -53 -175l-66 -198h-156l182 500h230l11 -208q1 -56 -1 -106h3q26 61 52 106l115 208h242l-68 -500h-161z" />
    <glyph glyph-name="uni043D" unicode="&#x43d;" horiz-adv-x="634" 
d="M349 0l49 198h-184l-49 -198h-160l125 500h160l-45 -178h184l45 178h160l-125 -500h-160z" />
    <glyph glyph-name="uni043E" unicode="&#x43e;" horiz-adv-x="604" 
d="M403 250q16 63 -2 99t-65 36q-46 0 -81 -36t-51 -99t2 -99t65 -36q46 0 81 36t51 99zM570 239q-31 -125 -117 -190t-206 -65q-122 0 -182 74.5t-28 202.5q31 125 117 190t206 65q122 0 182 -74.5t28 -202.5z" />
    <glyph glyph-name="uni043F" unicode="&#x43f;" horiz-adv-x="631" 
d="M506 0h-160l93 376h-181l-93 -376h-160l125 500h501z" />
    <glyph glyph-name="uni0440" unicode="&#x440;" horiz-adv-x="621" 
d="M226 257l-4 -15q-15 -58 1.5 -95t61.5 -37q47 0 83.5 38.5t52.5 101.5q17 60 1.5 100t-63.5 40q-44 0 -80.5 -35.5t-52.5 -97.5zM120 -180h-161l108 430q23 91 59 250h151l-14 -60h1q70 76 166 76q102 0 145 -79.5t13 -197.5q-29 -118 -106 -186.5t-183 -68.5
q-44 0 -79 15t-49 40h-1q-4 -36 -16 -82z" />
    <glyph glyph-name="uni0441" unicode="&#x441;" horiz-adv-x="547" 
d="M391 208l110 -74q-94 -150 -260 -150q-120 0 -177.5 76t-26.5 201q31 124 114.5 189.5t196.5 65.5q97 0 152 -42t64 -116l-155 -42q-7 71 -75 71q-44 0 -79 -36t-51 -101q-15 -62 1 -99.5t62 -37.5q74 0 124 95z" />
    <glyph glyph-name="uni0442" unicode="&#x442;" horiz-adv-x="494" 
d="M267 0h-160l94 376h-152l31 124h464l-31 -124h-152z" />
    <glyph glyph-name="uni0443" unicode="&#x443;" horiz-adv-x="548" 
d="M184 -180h-174l118 156l-66 524h177l10 -195q1 -18 3.5 -60.5t3.5 -68.5h3q4 9 69 129l108 195h180z" />
    <glyph glyph-name="uni0444" unicode="&#x444;" horiz-adv-x="827" 
d="M387 -180h-160l42 167q-133 11 -197 83t-35 188q28 114 125 182.5t239 71.5l47 190h160l-47 -190q133 -11 198 -83t36 -187q-29 -114 -126 -183t-240 -72zM303 109l70 281q-66 -5 -109.5 -41t-59.5 -99q-31 -128 99 -141zM528 390l-70 -281q66 6 110 42t59 99
q32 128 -99 140z" />
    <glyph glyph-name="uni0445" unicode="&#x445;" horiz-adv-x="546" 
d="M67 500h188l53 -127l99 127h190l-216 -248l113 -252h-188l-62 149l-114 -149h-200l241 270z" />
    <glyph glyph-name="uni0446" unicode="&#x446;" 
d="M541 -141h-140l36 141h-432l124 500h160l-93 -376h170l93 376h160l-93 -376h82z" />
    <glyph glyph-name="uni0447" unicode="&#x447;" horiz-adv-x="572" 
d="M447 0h-160l46 184q-56 -47 -136 -47q-195 0 -141 220l36 143h160l-32 -125q-15 -53 -6 -82.5t51 -29.5q43 0 73 31.5t44 86.5l30 119h160z" />
    <glyph glyph-name="uni0448" unicode="&#x448;" horiz-adv-x="910" 
d="M785 0h-780l125 500h160l-94 -376h150l94 376h160l-94 -376h150l94 376h160z" />
    <glyph glyph-name="uni0449" unicode="&#x449;" horiz-adv-x="940" 
d="M831 -141h-140l36 141h-722l124 500h160l-93 -376h150l93 376h160l-93 -376h150l93 376h160l-93 -376h82z" />
    <glyph glyph-name="uni044A" unicode="&#x44a;" horiz-adv-x="642" 
d="M77 2l94 374h-122l30 124h283l-33 -130q40 2 63 2q126 0 179 -57t31 -148q-45 -183 -284 -183q-140 0 -241 18zM299 250l-35 -140q28 -6 68 -6q84 0 102 74q9 35 -10 54.5t-62 19.5q-41 0 -63 -2z" />
    <glyph glyph-name="uni044B" unicode="&#x44b;" horiz-adv-x="815" 
d="M5 2l125 498h160l-33 -130q40 2 58 2q126 0 176.5 -56.5t28.5 -148.5q-45 -183 -279 -183q-135 0 -236 18zM227 250l-35 -140q28 -6 63 -6q79 0 97 74q9 35 -8 54.5t-59 19.5q-36 0 -58 -2zM690 0h-160l125 500h160z" />
    <glyph glyph-name="uni044C" unicode="&#x44c;" horiz-adv-x="570" 
d="M5 2l125 498h160l-33 -130q40 2 63 2q126 0 179 -57t31 -148q-45 -183 -284 -183q-140 0 -241 18zM227 250l-35 -140q29 -6 68 -6q84 0 102 74q9 35 -10 54.5t-62 19.5q-41 0 -63 -2z" />
    <glyph glyph-name="uni044D" unicode="&#x44d;" horiz-adv-x="542" 
d="M158 200l27 104h175q2 93 -86 93q-76 0 -135 -59l-77 89q101 89 241 89q123 0 180.5 -74.5t22.5 -211.5q-29 -118 -113.5 -182t-198.5 -64q-167 0 -216 135l139 41q24 -55 88 -55q88 0 130 95h-177z" />
    <glyph glyph-name="uni044E" unicode="&#x44e;" horiz-adv-x="874" 
d="M841 240q-31 -124 -117 -190t-204 -66q-105 0 -163.5 57t-50.5 158h-92l-49 -199h-160l125 500h160l-45 -178h93q40 94 118.5 144t180.5 50q120 0 178 -74.5t26 -201.5zM674 249q16 63 0 99.5t-61 36.5q-44 0 -78.5 -36t-50.5 -99q-16 -64 0 -99.5t61 -35.5t79 35.5
t50 98.5z" />
    <glyph glyph-name="uni044F" unicode="&#x44f;" horiz-adv-x="601" 
d="M476 0h-160l40 162h-72l-144 -162h-193l184 190q-38 19 -56.5 61t-3.5 102q40 163 279 163q124 0 250 -18zM384 272l30 125q-38 7 -74 7q-88 0 -103 -64q-8 -34 9.5 -53t64.5 -19q38 0 73 4z" />
    <glyph glyph-name="uni0450" unicode="&#x450;" horiz-adv-x="591" 
d="M458 158l43 -104q-113 -70 -243 -70q-132 0 -192.5 74t-27.5 203q31 124 117.5 189.5t206.5 65.5t175 -72t24 -196q-8 -34 -17 -48h-351q-4 -51 20.5 -73.5t76.5 -22.5q87 0 168 54zM341 400q-81 0 -121 -96h186q9 45 -8 70.5t-57 25.5zM419 702l46 -150h-138l-103 150
h195z" />
    <glyph glyph-name="uni0451" unicode="&#x451;" horiz-adv-x="591" 
d="M458 158l43 -104q-113 -70 -243 -70q-132 0 -192.5 74t-27.5 203q31 124 117.5 189.5t206.5 65.5t175 -72t24 -196q-8 -34 -17 -48h-351q-4 -51 20.5 -73.5t76.5 -22.5q87 0 168 54zM341 400q-81 0 -121 -96h186q9 45 -8 70.5t-57 25.5zM341 552h-150l37 150h150z
M561 552h-150l37 150h150z" />
    <glyph glyph-name="uni0452" unicode="&#x452;" horiz-adv-x="614" 
d="M165 0h-160l137 552h-61l30 118h61l12 49h160l-12 -49h96l-30 -118h-96l-2 -11q-17 -59 -32 -95h2q68 70 165 70q85 0 125.5 -58t13.5 -162l-76 -295q-25 -102 -77.5 -146.5t-144.5 -44.5q-37 0 -60 9l30 122h33q29 0 41 17.5t28 81.5l53 210q20 80 14 103q-9 37 -58 37
q-38 0 -68 -24q-42 -33 -62 -115z" />
    <glyph glyph-name="uni0453" unicode="&#x453;" horiz-adv-x="435" 
d="M5 0l125 500h365l-31 -124h-205l-94 -376h-160zM229 552l120 150h210l-179 -150h-151z" />
    <glyph glyph-name="uni0454" unicode="&#x454;" horiz-adv-x="533" 
d="M362 200h-177q-5 -95 85 -95q79 0 141 62l76 -81q-98 -102 -241 -102q-124 0 -183 72.5t-27 200.5q32 127 119 193t214 66q70 0 120.5 -30t74.5 -87l-125 -57q-27 55 -94 55q-85 0 -131 -93h175z" />
    <glyph glyph-name="uni0455" unicode="&#x455;" horiz-adv-x="528" 
d="M-13 48l70 116q82 -60 180 -60q66 0 73 31q5 21 -21.5 35t-67 25t-79 28.5t-59 56.5t-5.5 97q36 139 244 139q122 0 195 -45l-63 -111q-66 41 -147 41q-61 0 -67 -27q-5 -18 14 -31t50 -20t65.5 -20.5t63 -31.5t41 -54t0.5 -86q-38 -147 -254 -147q-147 0 -233 64z" />
    <glyph glyph-name="uni0456" unicode="&#x456;" horiz-adv-x="290" 
d="M165 0h-160l125 500h160zM304 552h-163l39 150h161z" />
    <glyph glyph-name="uni0457" unicode="&#x457;" horiz-adv-x="290" 
d="M165 0h-160l125 500h160zM203 552h-140l37 150h140zM383 552h-140l37 150h140z" />
    <glyph glyph-name="uni0458" unicode="&#x458;" horiz-adv-x="294" 
d="M308 552h-162l37 150h162zM134 500h160l-126 -499q-26 -102 -77.5 -147t-142.5 -45q-38 0 -61 9l31 122h31q29 0 41 17t28 80z" />
    <glyph glyph-name="uni0459" unicode="&#x459;" horiz-adv-x="906" 
d="M340 2l94 374h-121l-26 -87q-38 -127 -73 -192t-76 -89t-106 -24q-51 0 -79 11l30 118h34q40 0 68.5 45.5t61.5 160.5l52 181h426l-33 -130q40 2 63 2q126 0 179 -57t31 -148q-45 -183 -284 -183q-140 0 -241 18zM562 250l-35 -140q29 -6 68 -6q84 0 102 74
q9 35 -10 54.5t-62 19.5q-41 0 -63 -2z" />
    <glyph glyph-name="uni045A" unicode="&#x45a;" horiz-adv-x="904" 
d="M339 2l49 196h-174l-49 -198h-160l125 500h160l-45 -178h175l44 178h160l-33 -130q40 2 63 2q126 0 179 -57t31 -148q-45 -183 -284 -183q-140 0 -241 18zM561 250l-35 -140q28 -6 68 -6q84 0 102 74q9 35 -10 54.5t-62 19.5q-41 0 -63 -2z" />
    <glyph glyph-name="uni045B" unicode="&#x45b;" horiz-adv-x="614" 
d="M5 0l137 552h-61l30 118h61l12 49h160l-12 -49h96l-30 -118h-96l-2 -10q-17 -59 -32 -96h2q68 70 158 70t131.5 -57.5t14.5 -162.5l-75 -296h-160l62 250q20 80 14 103q-9 37 -58 37q-38 0 -68 -24q-42 -33 -62 -115l-62 -251h-160z" />
    <glyph glyph-name="uni045C" unicode="&#x45c;" horiz-adv-x="584" 
d="M528 0h-181l-71 199h-62l-49 -199h-160l125 500h160l-45 -178h59l154 178h191l-221 -234zM290 552l120 150h210l-179 -150h-151z" />
    <glyph glyph-name="uni045D" unicode="&#x45d;" horiz-adv-x="649" 
d="M524 0h-160l72 291l-248 -291h-183l125 500h160l-73 -291l249 291h183zM447 702l46 -150h-138l-103 150h195z" />
    <glyph glyph-name="uni045E" unicode="&#x45e;" horiz-adv-x="548" 
d="M184 -180h-174l118 156l-66 524h177l10 -195q1 -18 3.5 -60.5t3.5 -68.5h3q4 9 69 129l108 195h180zM444 720h131q-47 -170 -220 -170q-186 0 -159 170h134q-14 -78 40 -78q47 0 74 78z" />
    <glyph glyph-name="uni045F" unicode="&#x45f;" horiz-adv-x="620" 
d="M284 -141h-140l36 141h-175l124 500h160l-93 -376h170l93 376h160l-124 -500h-175z" />
    <glyph glyph-name="uni0472" unicode="&#x472;" horiz-adv-x="794" 
d="M779 331q-40 -162 -159.5 -255.5t-279.5 -93.5q-161 0 -239 103t-37 266q40 161 160 255t280 94q161 0 238.5 -103t36.5 -266zM369 130q70 0 126.5 41t88.5 112h-354q-4 -71 32 -112t107 -41zM474 552q-68 0 -122.5 -38t-86.5 -104h348q0 66 -36 104t-103 38z" />
    <glyph glyph-name="uni0473" unicode="&#x473;" horiz-adv-x="604" 
d="M570 239q-31 -125 -117 -190t-206 -65q-122 0 -182 74.5t-28 202.5q31 125 117 190t206 65q122 0 182 -74.5t28 -202.5zM268 105q87 0 128 95h-209q-6 -95 81 -95zM340 395q-85 0 -127 -91h208q5 91 -81 91z" />
    <glyph glyph-name="uni0490" unicode="&#x490;" horiz-adv-x="525" 
d="M12 0l170 682h297l38 151h148l-73 -291h-271l-135 -542h-174z" />
    <glyph glyph-name="uni0491" unicode="&#x491;" horiz-adv-x="435" 
d="M5 0l125 500h225l35 141h140l-66 -265h-205l-94 -376h-160z" />
    <glyph glyph-name="uni0492" unicode="&#x492;" horiz-adv-x="535" 
d="M22 0l64 258h-77l32 126h77l74 298h445l-35 -141h-271l-39 -157h136l-32 -126h-136l-64 -258h-174z" />
    <glyph glyph-name="uni0493" unicode="&#x493;" horiz-adv-x="435" 
d="M5 0l41 168h-65l30 115h65l54 217h365l-31 -124h-205l-23 -93h118l-29 -115h-119l-41 -168h-160z" />
    <glyph glyph-name="uni0494" unicode="&#x494;" horiz-adv-x="670" 
d="M12 0l170 682h451l-35 -140h-277l-28 -114q64 2 100 2q148 0 208 -77t22 -230q-35 -141 -116.5 -209t-194.5 -68q-57 0 -94 5l35 140q28 -5 55 -5q97 0 135 151q21 85 -2.5 119t-88.5 34q-40 0 -94 -2l-72 -288h-174z" />
    <glyph glyph-name="uni0495" unicode="&#x495;" horiz-adv-x="585" 
d="M165 0h-160l125 500h443l-31 -121h-283l-11 -47q-11 -41 -25 -73h2q58 46 136 46q93 0 139.5 -68t18.5 -183q-29 -113 -104 -178.5t-190 -65.5q-43 0 -62 5l32 127q15 -5 39 -5q86 0 117 123q14 52 0 85.5t-56 33.5q-85 0 -116 -122z" />
    <glyph glyph-name="uni0496" unicode="&#x496;" horiz-adv-x="1112" 
d="M574 0h-174l70 284h-77l-253 -284h-208l342 377l-157 305h194l116 -257h79l64 257h174l-64 -257h73l241 257h205l-313 -319l90 -223h112l-74 -291h-148l38 151h-66l-114 284h-80z" />
    <glyph glyph-name="uni0497" unicode="&#x497;" horiz-adv-x="860" 
d="M764 -141h-140l36 141h-54l-66 199h-52l-49 -199h-160l49 199h-49l-161 -199h-193l236 271l-101 229h179l63 -178h57l45 178h160l-45 -178h52l150 178h185l-218 -239l48 -137h95z" />
    <glyph glyph-name="uni0498" unicode="&#x498;" horiz-adv-x="649" 
d="M296 -151h-148l35 140q-123 17 -195 102l115 112q64 -77 176 -77q56 0 90 21t43 56q11 41 -20.5 59t-118.5 18h-85l35 136h85q73 0 108.5 17.5t44.5 53.5t-15.5 53.5t-75.5 17.5q-112 0 -201 -55l-38 126q124 71 281 71q136 0 197 -52.5t38 -146.5q-13 -51 -52.5 -89
t-92.5 -52v-1q119 -30 91 -166q-17 -82 -88.5 -136t-173.5 -68z" />
    <glyph glyph-name="uni0499" unicode="&#x499;" horiz-adv-x="540" 
d="M237 -141h-140l33 131q-97 16 -152 69l78 104q58 -60 157 -60q79 0 91 48q7 26 -16 37.5t-82 11.5h-65l27 104h72q89 0 101 48q5 21 -11 34t-52 13q-96 0 -168 -51l-33 101q104 67 239 67q118 0 170 -42.5t34 -113.5q-21 -81 -111 -99v-2q45 -10 63 -42.5t6 -78.5
q-34 -131 -208 -150z" />
    <glyph glyph-name="uni049A" unicode="&#x49a;" horiz-adv-x="734" 
d="M636 -151h-148l38 151h-63l-126 284h-81l-70 -284h-174l170 682h174l-64 -257h68l258 257h215l-338 -316l105 -226h110z" />
    <glyph glyph-name="uni049B" unicode="&#x49b;" horiz-adv-x="602" 
d="M165 0h-160l125 500h160l-44 -177h59l153 177h191l-221 -234l53 -142h92l-67 -265h-140l36 141h-55l-71 198h-62z" />
    <glyph glyph-name="uni049C" unicode="&#x49c;" horiz-adv-x="844" 
d="M408 147h-138l34 137h-48l-70 -284h-174l170 682h174l-64 -257h47l35 137h138l-35 -137h32l223 257h211l-307 -323l136 -359h-202l-94 284h-34z" />
    <glyph glyph-name="uni049D" unicode="&#x49d;" horiz-adv-x="675" 
d="M340 95h-112l26 103h-40l-49 -198h-160l125 500h160l-44 -177h39l26 103h112l-26 -103h31l116 177h183l-181 -236l61 -264h-177l-31 198h-33z" />
    <glyph glyph-name="uni04A0" unicode="&#x4a0;" horiz-adv-x="814" 
d="M755 0h-202l-126 284h-81l-70 -284h-174l137 550h-165l33 132h339l-64 -257h68l258 257h215l-338 -316z" />
    <glyph glyph-name="uni04A1" unicode="&#x4a1;" horiz-adv-x="656" 
d="M600 0h-181l-71 198h-62l-49 -198h-160l94 375h-122l31 125h282l-44 -177h59l153 177h191l-221 -235z" />
    <glyph glyph-name="uni04A2" unicode="&#x4a2;" horiz-adv-x="818" 
d="M705 -151h-148l38 151h-131l70 282h-278l-70 -282h-174l170 682h174l-64 -255h278l64 255h174l-136 -542h105z" />
    <glyph glyph-name="uni04A3" unicode="&#x4a3;" horiz-adv-x="664" 
d="M555 -141h-140l36 141h-102l49 198h-184l-49 -198h-160l125 500h160l-45 -178h184l45 178h160l-95 -376h83z" />
    <glyph glyph-name="uni04A4" unicode="&#x4a4;" horiz-adv-x="957" 
d="M638 0h-174l70 282h-278l-70 -282h-174l170 682h174l-63 -255h278l63 255h425l-34 -133h-251z" />
    <glyph glyph-name="uni04A5" unicode="&#x4a5;" horiz-adv-x="776" 
d="M509 0h-160l49 198h-184l-49 -198h-160l125 500h160l-44 -178h183l45 178h365l-31 -124h-205z" />
    <glyph glyph-name="uni04AA" unicode="&#x4aa;" horiz-adv-x="715" 
d="M347 -151h-148l36 144q-110 28 -157.5 124t-12.5 235q43 173 156 260.5t253 87.5q110 0 183 -57t83 -160l-173 -53q-10 117 -113 117q-68 0 -126 -55t-83 -153q-23 -93 7 -147.5t103 -54.5q53 0 96 32t82 106l145 -65q-91 -200 -297 -224z" />
    <glyph glyph-name="uni04AB" unicode="&#x4ab;" horiz-adv-x="547" 
d="M267 -141h-148l34 138q-77 25 -109 95t-7 169q31 124 114.5 189.5t196.5 65.5q97 0 152 -42t64 -116l-155 -42q-7 71 -75 71q-44 0 -79 -36t-51 -101q-15 -62 1 -99.5t62 -37.5q74 0 124 95l110 -74q-78 -124 -202 -145z" />
    <glyph glyph-name="uni04AE" unicode="&#x4ae;" horiz-adv-x="658" 
d="M356 0h-174l67 271l-139 411h201l66 -235l178 235h213l-344 -410z" />
    <glyph glyph-name="uni04AF" unicode="&#x4af;" horiz-adv-x="538" 
d="M243 -180h-160l46 180l-68 500h173l14 -176q5 -68 2 -143h3q30 65 73 143l94 176h185l-316 -500z" />
    <glyph glyph-name="uni04B0" unicode="&#x4b0;" horiz-adv-x="658" 
d="M356 0h-174l33 135h-122l33 129h121l2 7l-139 411h201l66 -235l178 235h213l-344 -410l-2 -8h122l-33 -129h-122z" />
    <glyph glyph-name="uni04B1" unicode="&#x4b1;" horiz-adv-x="538" 
d="M426 0h-137l-46 -180h-160l46 180h-137l29 115h92l-51 385h173l14 -176q7 -82 4 -139h3q25 54 71 139l95 176h184l-244 -385h93z" />
    <glyph glyph-name="uni04B2" unicode="&#x4b2;" horiz-adv-x="693" 
d="M595 -151h-148l38 151h-91l-74 230l-186 -230h-202l311 360l-126 322h200l65 -201l159 201h202l-284 -331l81 -211h129z" />
    <glyph glyph-name="uni04B3" unicode="&#x4b3;" horiz-adv-x="571" 
d="M130 0h-200l241 270l-104 230h188l53 -127l99 127h190l-216 -248l57 -128h104l-67 -265h-140l36 141h-65l-62 149z" />
    <glyph glyph-name="uni04B6" unicode="&#x4b6;" horiz-adv-x="743" 
d="M630 -151h-148l38 151h-131l58 234h-110q-151 0 -205.5 66t-19.5 205l44 177h174l-41 -166q-21 -81 1 -111.5t100 -30.5h92l77 308h174l-136 -542h105z" />
    <glyph glyph-name="uni04B7" unicode="&#x4b7;" horiz-adv-x="604" 
d="M493 -141h-140l36 141h-102l46 185q-60 -48 -137 -48q-95 0 -130.5 56.5t-9.5 163.5l36 143h160l-32 -125q-15 -53 -6.5 -82.5t50.5 -29.5t73.5 34t44.5 84l30 119h160l-95 -376h82z" />
    <glyph glyph-name="uni04B8" unicode="&#x4b8;" horiz-adv-x="725" 
d="M391 117h-138l30 122q-119 11 -160.5 76t-10.5 190l44 177h174l-41 -166q-15 -58 -8.5 -88.5t39.5 -41.5l36 146h138l-39 -155h58l76 305h174l-170 -682h-174l58 237h-56z" />
    <glyph glyph-name="uni04B9" unicode="&#x4b9;" horiz-adv-x="626" 
d="M301 53h-112l21 84q-93 6 -135.5 63.5t-18.5 156.5l36 143h160l-32 -125q-22 -87 23 -105l28 113h112l-26 -104q61 31 79 103l30 118h160l-125 -500h-160l47 189q-27 -25 -63 -39z" />
    <glyph glyph-name="uni04BA" unicode="&#x4ba;" horiz-adv-x="695" 
d="M589 0h-174l41 166q21 81 -0.5 110.5t-100.5 29.5h-92l-77 -306h-174l170 682h174l-59 -236h111q151 0 205.5 -65t19.5 -204z" />
    <glyph glyph-name="uni04BB" unicode="&#x4bb;" horiz-adv-x="614" 
d="M4 0l177 702h159l-40 -159q-13 -52 -32 -97h2q68 70 158 70t131.5 -57.5t14.5 -162.5l-76 -296h-160l63 250q20 80 14 103q-9 37 -58 37q-38 0 -68 -24q-42 -33 -62 -115l-62 -251h-161z" />
    <glyph glyph-name="uni04C0" unicode="&#x4c0;" horiz-adv-x="318" 
d="M12 0l170 682h174l-170 -682h-174z" />
    <glyph glyph-name="uni04C1" unicode="&#x4c1;" horiz-adv-x="1092" 
d="M1033 0h-195l-114 284h-80l-70 -284h-174l70 284h-77l-253 -284h-208l342 377l-157 305h194l116 -257h79l64 257h174l-64 -257h73l241 257h205l-313 -319zM776 908h135q-42 -176 -237 -176q-96 0 -139 45t-28 131h135q-9 -83 46 -83q32 0 54.5 23.5t33.5 59.5z" />
    <glyph glyph-name="uni04C2" unicode="&#x4c2;" horiz-adv-x="838" 
d="M780 0h-174l-66 199h-52l-49 -199h-160l49 199h-49l-161 -199h-193l236 271l-101 229h179l63 -178h57l45 178h160l-45 -178h52l150 178h185l-218 -239zM597 720h131q-47 -170 -220 -170q-186 0 -159 170h134q-14 -78 40 -78q47 0 74 78z" />
    <glyph glyph-name="uni04CF" unicode="&#x4cf;" horiz-adv-x="290" 
d="M5 0l175 702h160l-175 -702h-160z" />
    <glyph glyph-name="uni04D0" unicode="&#x4d0;" horiz-adv-x="713" 
d="M357 682h219l68 -682h-193l-7 126h-231l-68 -126h-197zM345 369l-62 -115h155l-6 114q-4 90 0 174h-4q-31 -77 -83 -173zM583 908h135q-42 -176 -237 -176q-96 0 -139 45t-28 131h135q-9 -83 46 -83q32 0 54.5 23.5t33.5 59.5z" />
    <glyph glyph-name="uni04D1" unicode="&#x4d1;" horiz-adv-x="555" 
d="M521 320l-23 -87q-19 -76 -55 -233h-145l13 51h-1q-71 -67 -166 -67q-87 0 -124.5 49.5t-19.5 119.5q19 79 101.5 121t257.5 42l3 12q8 34 -9.5 52.5t-60.5 18.5q-75 0 -163 -58l-46 100q117 75 249 75q111 0 162 -51.5t27 -144.5zM330 201l3 11q-89 0 -124 -15.5
t-43 -45.5q-11 -48 43 -48q38 0 74 27t47 71zM449 720h131q-47 -170 -220 -170q-186 0 -159 170h134q-14 -78 40 -78q47 0 74 78z" />
    <glyph glyph-name="uni04D2" unicode="&#x4d2;" horiz-adv-x="713" 
d="M357 682h219l68 -682h-193l-7 126h-231l-68 -126h-197zM345 369l-62 -115h155l-6 114q-4 90 0 174h-4q-31 -77 -83 -173zM428 734h-160l38 150h160zM678 734h-160l38 150h160z" />
    <glyph glyph-name="uni04D3" unicode="&#x4d3;" horiz-adv-x="555" 
d="M521 320l-23 -87q-19 -76 -55 -233h-145l13 51h-1q-71 -67 -166 -67q-87 0 -124.5 49.5t-19.5 119.5q19 79 101.5 121t257.5 42l3 12q8 34 -9.5 52.5t-60.5 18.5q-75 0 -163 -58l-46 100q117 75 249 75q111 0 162 -51.5t27 -144.5zM330 201l3 11q-89 0 -124 -15.5
t-43 -45.5q-11 -48 43 -48q38 0 74 27t47 71zM314 552h-150l37 150h150zM534 552h-150l37 150h150z" />
    <glyph glyph-name="uni04D4" unicode="&#x4d4;" horiz-adv-x="996" 
d="M389 682h658l-33 -132h-322l-35 -139h275l-31 -128h-276l-37 -150h339l-33 -133h-513l27 109h-215l-67 -109h-199zM481 550l-204 -314h163l78 314h-37z" />
    <glyph glyph-name="uni04D5" unicode="&#x4d5;" horiz-adv-x="890" 
d="M757 158l43 -104q-113 -70 -243 -70q-153 0 -192 101q-81 -101 -221 -101q-87 0 -124.5 49.5t-19.5 119.5q19 79 101.5 121t257.5 42l3 12q8 34 -9.5 52.5t-60.5 18.5q-75 0 -163 -58l-46 100q117 75 249 75q114 0 153 -54q68 54 176 54q120 0 175 -72t24 -196
q-8 -34 -17 -48h-351q-4 -51 20.5 -73.5t76.5 -22.5q87 0 168 54zM640 400q-81 0 -121 -96h186q9 45 -8 70.5t-57 25.5zM330 201l3 11q-89 0 -124 -15.5t-43 -45.5q-11 -48 43 -48q38 0 74 27t47 71z" />
    <glyph glyph-name="uni04D6" unicode="&#x4d6;" horiz-adv-x="655" 
d="M12 0l170 682h524l-33 -132h-349l-36 -139h304l-33 -128h-303l-37 -150h367l-33 -133h-541zM566 908h135q-42 -176 -237 -176q-96 0 -139 45t-28 131h135q-9 -83 46 -83q32 0 54.5 23.5t33.5 59.5z" />
    <glyph glyph-name="uni04D7" unicode="&#x4d7;" horiz-adv-x="591" 
d="M458 158l43 -104q-113 -70 -243 -70q-132 0 -192.5 74t-27.5 203q31 124 117.5 189.5t206.5 65.5t175 -72t24 -196q-8 -34 -17 -48h-351q-4 -51 20.5 -73.5t76.5 -22.5q87 0 168 54zM341 400q-81 0 -121 -96h186q9 45 -8 70.5t-57 25.5zM469 720h131q-47 -170 -220 -170
q-186 0 -159 170h134q-14 -78 40 -78q47 0 74 78z" />
    <glyph glyph-name="uni04D8" unicode="&#x4d8;" horiz-adv-x="729" 
d="M244 460l-114 81q121 159 331 159q146 0 220 -103.5t33 -267.5q-39 -158 -154.5 -252.5t-260.5 -94.5q-83 0 -141.5 29t-85 78.5t-32.5 115t15 139.5q6 22 21 56h467q5 73 -27 110.5t-90 37.5q-113 0 -182 -88zM329 136q59 0 106.5 36.5t76.5 105.5h-289q-15 -64 12 -103
t94 -39z" />
    <glyph glyph-name="uni04D9" unicode="&#x4d9;" horiz-adv-x="591" 
d="M133 342l-43 104q113 70 243 70q132 0 192.5 -74t27.5 -203q-31 -124 -117.5 -189.5t-206.5 -65.5t-175 72t-24 196q8 34 17 48h350q10 96 -96 96q-87 0 -168 -54zM250 100q80 0 121 96h-186q-9 -45 8 -70.5t57 -25.5z" />
    <glyph glyph-name="uni04DC" unicode="&#x4dc;" horiz-adv-x="1092" 
d="M1033 0h-195l-114 284h-80l-70 -284h-174l70 284h-77l-253 -284h-208l342 377l-157 305h194l116 -257h79l64 257h174l-64 -257h73l241 257h205l-313 -319zM624 734h-160l38 150h160zM874 734h-160l38 150h160z" />
    <glyph glyph-name="uni04DD" unicode="&#x4dd;" horiz-adv-x="838" 
d="M780 0h-174l-66 199h-52l-49 -199h-160l49 199h-49l-161 -199h-193l236 271l-101 229h179l63 -178h57l45 178h160l-45 -178h52l150 178h185l-218 -239zM462 552h-150l37 150h150zM682 552h-150l37 150h150z" />
    <glyph glyph-name="uni04DE" unicode="&#x4de;" horiz-adv-x="649" 
d="M-12 89l115 112q64 -77 176 -77q56 0 90 21t43 56q11 41 -21 59.5t-118 18.5h-85l35 136h85q134 0 153 72q9 36 -15.5 53.5t-75.5 17.5q-112 0 -201 -55l-38 126q124 71 281 71q136 0 197 -52.5t38 -146.5q-13 -51 -52.5 -90t-92.5 -52v-1q119 -30 91 -167
q-19 -95 -111 -152t-217 -57q-185 0 -277 107zM381 734h-160l38 150h160zM631 734h-160l38 150h160z" />
    <glyph glyph-name="uni04DF" unicode="&#x4df;" horiz-adv-x="540" 
d="M-22 59l78 104q58 -60 157 -60q79 0 91 48q7 26 -16 37.5t-82 11.5h-65l27 104h72q89 0 101 48q5 21 -11 34t-52 13q-96 0 -168 -51l-33 101q104 67 239 67q118 0 170 -42.5t34 -113.5q-21 -81 -111 -99v-2q45 -10 63 -42.5t6 -78.5q-40 -154 -272 -154q-148 0 -228 75z
M309 552h-150l37 150h150zM529 552h-150l37 150h150z" />
    <glyph glyph-name="uni04E2" unicode="&#x4e2;" horiz-adv-x="782" 
d="M650 0h-174l107 430l-385 -430h-186l170 682h174l-107 -430l385 430h186zM726 873l-33 -132h-366l33 132h366z" />
    <glyph glyph-name="uni04E3" unicode="&#x4e3;" horiz-adv-x="649" 
d="M524 0h-160l72 291l-248 -291h-183l125 500h160l-73 -291l249 291h183zM601 687l-32 -128h-346l32 128h346z" />
    <glyph glyph-name="uni04E4" unicode="&#x4e4;" horiz-adv-x="782" 
d="M650 0h-174l107 430l-385 -430h-186l170 682h174l-107 -430l385 430h186zM462 734h-160l38 150h160zM712 734h-160l38 150h160z" />
    <glyph glyph-name="uni04E5" unicode="&#x4e5;" horiz-adv-x="649" 
d="M524 0h-160l72 291l-248 -291h-183l125 500h160l-73 -291l249 291h183zM361 552h-150l37 150h150zM581 552h-150l37 150h150z" />
    <glyph glyph-name="uni04E6" unicode="&#x4e6;" horiz-adv-x="794" 
d="M598 341q23 93 -10 149t-115 56t-143 -56t-84 -149q-23 -92 10 -148.5t115 -56.5q81 0 142 56t85 149zM779 331q-40 -162 -159.5 -255.5t-279.5 -93.5q-161 0 -239 103t-37 266q40 161 160 255t280 94q161 0 238.5 -103t36.5 -266zM475 734h-160l38 150h160zM725 734
h-160l38 150h160z" />
    <glyph glyph-name="uni04E7" unicode="&#x4e7;" horiz-adv-x="604" 
d="M403 250q16 63 -2 99t-65 36q-46 0 -81 -36t-51 -99t2 -99t65 -36q46 0 81 36t51 99zM570 239q-31 -125 -117 -190t-206 -65q-122 0 -182 74.5t-28 202.5q31 125 117 190t206 65q122 0 182 -74.5t28 -202.5zM345 552h-150l37 150h150zM565 552h-150l37 150h150z" />
    <glyph glyph-name="uni04E8" unicode="&#x4e8;" horiz-adv-x="794" 
d="M779 331q-40 -162 -159.5 -255.5t-279.5 -93.5q-161 0 -239 103t-37 266q40 161 160 255t280 94q161 0 238.5 -103t36.5 -266zM369 130q70 0 126.5 41t88.5 112h-354q-4 -71 32 -112t107 -41zM474 552q-68 0 -122.5 -38t-86.5 -104h348q0 66 -36 104t-103 38z" />
    <glyph glyph-name="uni04E9" unicode="&#x4e9;" horiz-adv-x="604" 
d="M570 239q-31 -125 -117 -190t-206 -65q-122 0 -182 74.5t-28 202.5q31 125 117 190t206 65q122 0 182 -74.5t28 -202.5zM268 105q87 0 128 95h-209q-6 -95 81 -95zM340 395q-85 0 -127 -91h208q5 91 -81 91z" />
    <glyph glyph-name="uni04EE" unicode="&#x4ee;" horiz-adv-x="658" 
d="M13 -3l34 136h79q82 0 128 63l-134 486h187l77 -317l204 317h191l-338 -482q-87 -124 -162.5 -170.5t-167.5 -46.5q-72 0 -98 14zM685 873l-33 -132h-366l33 132h366z" />
    <glyph glyph-name="uni04EF" unicode="&#x4ef;" horiz-adv-x="548" 
d="M184 -180h-174l118 156l-66 524h177l10 -195q1 -18 3.5 -60.5t3.5 -68.5h3q4 9 69 129l108 195h180zM555 687l-32 -128h-346l32 128h346z" />
    <glyph glyph-name="uni04F0" unicode="&#x4f0;" horiz-adv-x="658" 
d="M13 -3l34 136h79q82 0 128 63l-134 486h187l77 -317l204 317h191l-338 -482q-87 -124 -162.5 -170.5t-167.5 -46.5q-72 0 -98 14zM426 734h-160l38 150h160zM676 734h-160l38 150h160z" />
    <glyph glyph-name="uni04F1" unicode="&#x4f1;" horiz-adv-x="548" 
d="M184 -180h-174l118 156l-66 524h177l10 -195q1 -18 3.5 -60.5t3.5 -68.5h3q4 9 69 129l108 195h180zM314 552h-150l37 150h150zM534 552h-150l37 150h150z" />
    <glyph glyph-name="uni04F2" unicode="&#x4f2;" horiz-adv-x="658" 
d="M13 -3l34 136h79q82 0 128 63l-134 486h187l77 -317l204 317h191l-338 -482q-87 -124 -162.5 -170.5t-167.5 -46.5q-72 0 -98 14zM249 734l92 150h206l-140 -150h-158zM494 734l120 150h219l-177 -150h-162z" />
    <glyph glyph-name="uni04F3" unicode="&#x4f3;" horiz-adv-x="548" 
d="M184 -180h-174l118 156l-66 524h177l10 -195q1 -18 3.5 -60.5t3.5 -68.5h3q4 9 69 129l108 195h180zM147 552l93 150h201l-145 -150h-149zM372 552l121 150h210l-178 -150h-153z" />
    <glyph glyph-name="uni04F4" unicode="&#x4f4;" horiz-adv-x="695" 
d="M563 0h-174l58 234h-110q-151 0 -205.5 66t-19.5 205l44 177h174l-41 -166q-21 -81 1 -111.5t100 -30.5h92l77 308h174zM413 734h-160l38 150h160zM663 734h-160l38 150h160z" />
    <glyph glyph-name="uni04F5" unicode="&#x4f5;" horiz-adv-x="572" 
d="M447 0h-160l46 184q-56 -47 -136 -47q-195 0 -141 220l36 143h160l-32 -125q-15 -53 -6 -82.5t51 -29.5q43 0 73 31.5t44 86.5l30 119h160zM308 552h-150l37 150h150zM528 552h-150l37 150h150z" />
    <glyph glyph-name="uni04F8" unicode="&#x4f8;" horiz-adv-x="985" 
d="M271 340l-51 -201q35 -1 101 -1q73 0 108.5 25.5t47.5 75.5q13 51 -10 76.5t-98 25.5q-64 0 -98 -1zM12 0l170 682h174l-51 -203q60 2 95 2q51 0 93 -7.5t81 -24.5t61 -46t31.5 -72t-7.5 -102q-31 -125 -124.5 -178t-243.5 -53q-11 0 -279 2zM679 0l170 682h174
l-170 -682h-174zM570 734h-160l38 150h160zM820 734h-160l38 150h160z" />
    <glyph glyph-name="uni04F9" unicode="&#x4f9;" horiz-adv-x="815" 
d="M5 2l125 498h160l-33 -130q40 2 58 2q126 0 176.5 -56.5t28.5 -148.5q-45 -183 -279 -183q-135 0 -236 18zM227 250l-35 -140q28 -6 63 -6q79 0 97 74q9 35 -8 54.5t-59 19.5q-36 0 -58 -2zM690 0h-160l125 500h160zM451 552h-150l37 150h150zM671 552h-150l37 150h150z
" />
    <glyph glyph-name="uni0E3F" unicode="&#xe3f;" 
d="M307 -107h-150l26 105q-61 0 -181 2l170 682q60 0 182 2l28 109h150l-29 -113q102 -12 139 -61q37 -51 19 -120q-27 -106 -140 -139q57 -14 81 -57.5t8 -108.5q-17 -69 -59 -112t-93 -60t-124 -22zM246 284l-37 -151q34 -2 93 -2q112 0 132 77q10 43 -15 59.5t-72 16.5
h-101zM313 549l-34 -137h82q63 0 90 22q24 19 30 49q8 29 -4 44q-17 24 -95 24q-25 0 -69 -2z" />
    <glyph glyph-name="uni1E02" unicode="&#x1e02;" horiz-adv-x="729" 
d="M257 284l-38 -150q92 -2 125 -2q131 0 149 74q2 19 2.5 32t-9.5 21.5t-17.5 13.5t-23 7.5t-25 3t-22.5 0.5h-141zM323 548l-34 -135h112q82 0 111 23q23 20 29 46q7 29 -5 45q-10 13 -33.5 18t-81.5 5q-44 0 -98 -2zM12 0l170 682q140 2 286 2q185 0 241 -74
q33 -46 17 -110q-28 -108 -147 -143q58 -14 84.5 -58t10.5 -105q-15 -62 -50.5 -102.5t-88.5 -60t-106.5 -26.5t-125.5 -7q-125 0 -291 2zM573 734h-172l38 150h172z" />
    <glyph glyph-name="uni1E03" unicode="&#x1e03;" horiz-adv-x="621" 
d="M68 252l112 450h161l-41 -159q-16 -59 -32 -97h2q68 70 160 70q102 0 145 -79.5t13 -197.5q-29 -118 -106 -186.5t-183 -68.5q-50 0 -86.5 18.5t-49.5 51.5h-1l-17 -54h-148q51 173 71 252zM226 257l-4 -15q-15 -58 1.5 -95t61.5 -37q47 0 83.5 38.5t52.5 101.5
q17 60 1.5 100t-63.5 40q-44 0 -80.5 -35.5t-52.5 -97.5zM521 556h-162l37 150h162z" />
    <glyph glyph-name="uni1E0A" unicode="&#x1e0a;" horiz-adv-x="755" 
d="M320 543l-100 -402q42 -3 86 -3q102 0 160 46q67 54 93 157q25 105 -14 158q-21 28 -53.5 36.5t-90.5 8.5q-56 0 -81 -1zM12 0l170 682q140 2 251 2q197 0 273 -101q74 -100 36 -251q-38 -157 -148 -244q-113 -90 -309 -90q-101 0 -273 2zM566 734h-172l38 150h172z" />
    <glyph glyph-name="uni1E0B" unicode="&#x1e0b;" horiz-adv-x="621" 
d="M399 243l4 15q15 58 -1.5 95t-61.5 37q-47 0 -83.5 -38.5t-52.5 -101.5q-17 -60 -1.5 -100t63.5 -40q44 0 80.5 35.5t52.5 97.5zM499 0h-149l12 60h-1q-70 -76 -166 -76q-102 0 -145 79.5t-13 197.5q29 118 106 186.5t183 68.5q44 0 79 -15t49 -40h1q8 51 16 82l40 159
h160l-113 -452q-37 -146 -59 -250zM420 556h-162l37 150h162z" />
    <glyph glyph-name="uni1E1E" unicode="&#x1e1e;" horiz-adv-x="607" 
d="M12 0l170 682h501l-34 -134h-326l-41 -161h284l-33 -130h-283l-64 -257h-174zM525 734h-172l38 150h172z" />
    <glyph glyph-name="uni1E1F" unicode="&#x1e1f;" horiz-adv-x="337" 
d="M175 0h-160l94 376h-62l31 124h61l18 74q34 142 199 142q61 0 105 -11l-37 -125q-32 8 -61 8q-41 0 -52 -42l-12 -46h92l-32 -124h-90zM447 754h-162l37 150h162z" />
    <glyph glyph-name="uni1E40" unicode="&#x1e40;" horiz-adv-x="972" 
d="M12 0l170 682h283l19 -283q7 -98 -1 -156h3q24 65 75 156l161 283h288l-170 -682h-174l60 240q48 194 84 308h-6q-42 -89 -91 -174l-213 -374h-159l-26 374q-6 99 -3 174h-6q-18 -100 -70 -308l-60 -240h-164zM695 734h-172l38 150h172z" />
    <glyph glyph-name="uni1E41" unicode="&#x1e41;" horiz-adv-x="940" 
d="M824 0h-159l63 252q19 79 14 101q-9 37 -56 37q-36 0 -67 -24q-42 -34 -62 -115l-63 -251h-159l63 252q19 79 14 101q-9 37 -57 37q-35 0 -66 -24q-42 -34 -62 -115l-63 -251h-159l60 241q17 69 29.5 122t20.5 88.5t11 48.5h149l-12 -60h1q70 76 164 76q106 0 134 -80
q83 80 192 80q88 0 129 -57.5t15 -161.5zM629 552h-162l37 150h162z" />
    <glyph glyph-name="uni1E56" unicode="&#x1e56;" horiz-adv-x="689" 
d="M539 447q12 48 -11.5 72.5t-97.5 24.5q-73 0 -108 -1l-48 -190q35 -1 107 -1q135 0 158 95zM12 0l170 682q50 0 139.5 1t138.5 1q51 0 93.5 -7.5t81.5 -24.5t61 -45t31.5 -70.5t-6.5 -99.5q-31 -122 -124 -173.5t-242 -51.5q-87 0 -116 1l-53 -213h-174zM562 734h-172
l38 150h172z" />
    <glyph glyph-name="uni1E57" unicode="&#x1e57;" horiz-adv-x="621" 
d="M226 257l-4 -15q-15 -58 1.5 -95t61.5 -37q47 0 83.5 38.5t52.5 101.5q17 60 1.5 100t-63.5 40q-44 0 -80.5 -35.5t-52.5 -97.5zM120 -180h-161l108 430q23 91 59 250h151l-14 -60h1q70 76 166 76q102 0 145 -79.5t13 -197.5q-29 -118 -106 -186.5t-183 -68.5
q-44 0 -79 15t-49 40h-1q-4 -36 -16 -82zM479 556h-162l37 150h162z" />
    <glyph glyph-name="uni1E60" unicode="&#x1e60;" horiz-adv-x="688" 
d="M6 69l79 134q121 -81 246 -81q105 0 119 59q6 26 -12.5 43.5t-52 26.5t-75 21t-81.5 26t-70.5 41t-42 67.5t3.5 104.5q22 89 99 139t206 50q157 0 259 -64l-77 -136q-97 61 -198 61q-97 0 -110 -51q-6 -25 12.5 -41.5t53 -25t76 -20t81.5 -25.5t71 -42t42 -69.5
t-4 -107.5q-22 -91 -106 -144t-216 -53q-181 0 -303 87zM553 734h-172l38 150h172z" />
    <glyph glyph-name="uni1E61" unicode="&#x1e61;" horiz-adv-x="528" 
d="M-13 48l70 116q82 -60 180 -60q66 0 73 31q5 21 -21.5 35t-67 25t-79 28.5t-59 56.5t-5.5 97q36 139 244 139q122 0 195 -45l-63 -111q-66 41 -147 41q-61 0 -67 -27q-5 -18 14 -31t50 -20t65.5 -20.5t63 -31.5t41 -54t0.5 -86q-38 -147 -254 -147q-147 0 -233 64z
M424 556h-162l37 150h162z" />
    <glyph glyph-name="uni1E6A" unicode="&#x1e6a;" horiz-adv-x="542" 
d="M122 0l135 542h-185l35 140h548l-35 -140h-185l-135 -542h-178zM479 734h-172l38 150h172z" />
    <glyph glyph-name="uni1E6B" unicode="&#x1e6b;" horiz-adv-x="376" 
d="M97 312l16 64h-61l31 124h60l35 139l168 29l-43 -168h109l-31 -124h-108l-42 -166q-12 -48 -13 -64t6 -22q9 -9 30 -9q24 0 64 9l-31 -123q-43 -17 -101 -17q-174 0 -128 181q2 8 7.5 27.5t13.5 49.5t18 70zM359 714h-162l37 150h162z" />
    <glyph glyph-name="Wgrave" unicode="&#x1e80;" horiz-adv-x="1077" 
d="M818 0h-227l-3 252q-2 143 3 195h-4q-25 -67 -92 -195l-129 -252h-227l-13 682h190l-9 -279q-3 -79 -11 -237h4q50 114 114 238l142 278h190l2 -281q2 -140 -3 -235h4q70 156 106 234l132 282h184zM708 884l44 -150h-147l-105 150h208z" />
    <glyph glyph-name="wgrave" unicode="&#x1e81;" horiz-adv-x="836" 
d="M619 0h-191l1 169q0 76 6 140h-2q-27 -69 -62 -140l-84 -169h-190l-26 500h165l4 -204q1 -77 -4 -149h3q42 106 64 150l101 203h157v-204q0 -85 -6 -149h3q41 98 65 149l98 204h174zM537 702l46 -150h-138l-103 150h195z" />
    <glyph glyph-name="Wacute" unicode="&#x1e82;" horiz-adv-x="1077" 
d="M818 0h-227l-3 252q-2 143 3 195h-4q-25 -67 -92 -195l-129 -252h-227l-13 682h190l-9 -279q-3 -79 -11 -237h4q50 114 114 238l142 278h190l2 -281q2 -140 -3 -235h4q70 156 106 234l132 282h184zM553 734l121 150h221l-180 -150h-162z" />
    <glyph glyph-name="wacute" unicode="&#x1e83;" horiz-adv-x="836" 
d="M619 0h-191l1 169q0 76 6 140h-2q-27 -69 -62 -140l-84 -169h-190l-26 500h165l4 -204q1 -77 -4 -149h3q42 106 64 150l101 203h157v-204q0 -85 -6 -149h3q41 98 65 149l98 204h174zM391 552l120 150h210l-179 -150h-151z" />
    <glyph glyph-name="Wdieresis" unicode="&#x1e84;" horiz-adv-x="1077" 
d="M818 0h-227l-3 252q-2 143 3 195h-4q-25 -67 -92 -195l-129 -252h-227l-13 682h190l-9 -279q-3 -79 -11 -237h4q50 114 114 238l142 278h190l2 -281q2 -140 -3 -235h4q70 156 106 234l132 282h184zM616 734h-160l38 150h160zM866 734h-160l38 150h160z" />
    <glyph glyph-name="wdieresis" unicode="&#x1e85;" horiz-adv-x="836" 
d="M619 0h-191l1 169q0 76 6 140h-2q-27 -69 -62 -140l-84 -169h-190l-26 500h165l4 -204q1 -77 -4 -149h3q42 106 64 150l101 203h157v-204q0 -85 -6 -149h3q41 98 65 149l98 204h174zM461 552h-150l37 150h150zM681 552h-150l37 150h150z" />
    <glyph glyph-name="uni1E9E" unicode="&#x1e9e;" horiz-adv-x="805" 
d="M5 0l110 443q32 130 126.5 193.5t262.5 63.5q162 0 301 -36l-34 -130l-167 -143q84 -16 125.5 -71t21.5 -135q-51 -203 -329 -203q-90 0 -156 23l46 136q59 -19 131 -19q109 0 125 69q6 23 -2.5 38t-45 25t-105.5 10h-61l33 129l189 162q-47 6 -94 6q-164 0 -196 -131
l-107 -430h-174z" />
    <glyph glyph-name="Ygrave" unicode="&#x1ef2;" horiz-adv-x="658" 
d="M356 0h-174l67 271l-139 411h201l66 -235l178 235h213l-344 -410zM498 884l44 -150h-147l-105 150h208z" />
    <glyph glyph-name="ygrave" unicode="&#x1ef3;" horiz-adv-x="538" 
d="M199 -180h-189l104 150l-52 530h169l9 -195q3 -99 -1 -157h3q25 57 76 157l100 195h188zM385 702l46 -150h-138l-103 150h195z" />
    <glyph glyph-name="endash" unicode="&#x2013;" 
d="M633 355l-36 -142h-559l35 142h560z" />
    <glyph glyph-name="emdash" unicode="&#x2014;" horiz-adv-x="984" 
d="M976 355l-36 -142h-910l36 142h910z" />
    <glyph glyph-name="emdash" unicode="&#x2015;" horiz-adv-x="984" 
d="M976 355l-36 -142h-910l36 142h910z" />
    <glyph glyph-name="quotesinglbase" unicode="&#x201a;" horiz-adv-x="320" 
d="M51 177h188l-37 -146q-22 -91 -70.5 -137.5t-148.5 -75.5l-16 87q49 14 71.5 36t31.5 59h-64z" />
    <glyph glyph-name="quotedblleft" unicode="&#x201c;" horiz-adv-x="553" 
d="M549 490h-173l37 146q24 94 70 141t132 73l17 -88q-51 -21 -72.5 -41t-29.5 -54h64zM301 490h-173l37 146q24 94 70 141t132 73l17 -88q-51 -21 -72.5 -41t-29.5 -54h64z" />
    <glyph glyph-name="quotedblright" unicode="&#x201d;" horiz-adv-x="553" 
d="M212 821h173l-38 -147q-23 -90 -69 -138.5t-133 -75.5l-17 89q44 12 67.5 33.5t35.5 61.5h-64zM460 821h173l-38 -147q-23 -90 -69 -138.5t-133 -75.5l-17 89q44 12 67.5 33.5t35.5 61.5h-64z" />
    <glyph glyph-name="quotedblbase" unicode="&#x201e;" horiz-adv-x="553" 
d="M51 177h173l-38 -147q-23 -90 -69 -138.5t-133 -75.5l-17 89q44 12 67.5 33.5t35.5 61.5h-64zM299 177h173l-38 -147q-23 -90 -69 -138.5t-133 -75.5l-17 89q44 12 67.5 33.5t35.5 61.5h-64z" />
    <glyph glyph-name="dagger" unicode="&#x2020;" horiz-adv-x="556" 
d="M323 100h-161l103 408h-161l33 130h160l42 168h160l-42 -168h160l-33 -130h-159z" />
    <glyph glyph-name="daggerdbl" unicode="&#x2021;" horiz-adv-x="556" 
d="M545 349l-33 -131h-160l-41 -168h-162l43 168h-160l33 131h160l40 159h-161l33 130h160l42 168h160l-42 -168h160l-33 -130h-159l-40 -159h160z" />
    <glyph glyph-name="bullet" unicode="&#x2022;" horiz-adv-x="434" 
d="M398 337q0 -75 -52.5 -126t-121.5 -51q-65 0 -107 43.5t-42 103.5q0 75 52.5 126t121.5 51q65 0 107 -43.5t42 -103.5z" />
    <glyph glyph-name="ellipsis" unicode="&#x2026;" horiz-adv-x="992" 
d="M194 0h-188l47 184h188zM530 0h-188l47 184h188zM866 0h-188l47 184h188z" />
    <glyph glyph-name="perthousand" unicode="&#x2030;" horiz-adv-x="1652" 
d="M889 778h170l-761 -874h-169zM909 124q27 108 -45 108t-99 -108t45 -108t99 108zM1063 118q-27 -109 -99 -167.5t-181 -58.5q-108 0 -153 64.5t-18 173.5t98.5 167.5t180.5 58.5q108 0 153.5 -64.5t18.5 -173.5zM1423 124q27 108 -45 108t-99 -108t45 -108t99 108z
M1577 118q-27 -109 -99 -167.5t-181 -58.5q-108 0 -153 64.5t-18 173.5t98.5 167.5t180.5 58.5q108 0 153.5 -64.5t18.5 -173.5zM423 558q27 108 -45 108t-99 -108t45 -108t99 108zM577 552q-27 -109 -99 -167.5t-181 -58.5q-108 0 -153 64.5t-18 173.5t98.5 167.5
t180.5 58.5q108 0 153.5 -64.5t18.5 -173.5z" />
    <glyph glyph-name="guilsinglleft" unicode="&#x2039;" horiz-adv-x="416" 
d="M305 90l-143 -60l-94 262l211 246l122 -66l-145 -195z" />
    <glyph glyph-name="guilsinglright" unicode="&#x203a;" horiz-adv-x="416" 
d="M132 478l143 60l94 -262l-211 -246l-122 66l145 195z" />
    <glyph glyph-name="fraction" unicode="&#x2044;" horiz-adv-x="416" 
d="M533 778h170l-761 -874h-169z" />
    <glyph glyph-name="zero.superior" unicode="&#x2070;" horiz-adv-x="544" 
d="M423 558q27 108 -45 108t-99 -108t45 -108t99 108zM577 552q-27 -109 -99 -167.5t-181 -58.5q-108 0 -153 64.5t-18 173.5t98.5 167.5t180.5 58.5q108 0 153.5 -64.5t18.5 -173.5z" />
    <glyph glyph-name="four.superior" unicode="&#x2074;" horiz-adv-x="545" 
d="M465 338h-160l20 78h-245l32 129l225 233h237l-61 -244h69l-29 -118h-69zM252 531q52 3 102 3l19 76q6 24 16 59h-4z" />
    <glyph glyph-name="uni2081" unicode="&#x2081;" horiz-adv-x="390" 
d="M232 -96h-162l69 279q-39 -28 -124 -28l30 122q50 0 90.5 18t59.5 49h145z" />
    <glyph glyph-name="uni2082" unicode="&#x2082;" horiz-adv-x="543" 
d="M425 24l-30 -120h-418l35 139q180 76 229 103t56 58q10 41 -36 41q-45 0 -55 -39q-5 -21 -5 -41h-149q-2 17 4 45q18 74 79 110t153 36q103 0 149.5 -42t28.5 -116q-14 -55 -74 -95t-182 -77l-1 -5q81 3 139 3h77z" />
    <glyph glyph-name="uni2083" unicode="&#x2083;" horiz-adv-x="543" 
d="M-3 40l150 12q-4 -58 53 -58q46 0 57 41q6 23 -8.5 34t-48.5 11h-47l23 92h41q43 0 62 16q13 10 18 28t-4 28.5t-30 10.5q-55 0 -80 -46l-138 27q58 120 241 120q96 0 146.5 -35t35.5 -99q-19 -71 -107 -90l-1 -3q91 -22 68 -109q-15 -61 -78 -94.5t-169 -33.5
q-98 0 -147 37.5t-37 110.5z" />
    <glyph glyph-name="uni2084" unicode="&#x2084;" horiz-adv-x="545" 
d="M356 -96h-160l20 78h-245l32 129l225 233h237l-61 -244h69l-29 -118h-69zM143 97q53 3 102 3l19 76q6 24 16 59h-4z" />
    <glyph glyph-name="Euro" unicode="&#x20ac;" horiz-adv-x="720" 
d="M490 312l-28 -110h-174q19 -76 109 -76q41 0 85 19.5t76 48.5l73 -114q-119 -98 -262 -98q-112 0 -183 57t-81 163h-93l28 110h70q1 2 4 17t5 23l4 16h-69l27 110h83q108 222 364 222q70 0 129 -24.5t95 -67.5l-125 -104q-39 54 -122 54q-90 0 -148 -80h174l-27 -110
h-200q-4 -11 -7 -26q-1 -4 -7 -30h200z" />
    <glyph glyph-name="uni20AE" unicode="&#x20ae;" 
d="M109 369l170 35l35 139h-217l34 139h608l-34 -139h-217l-26 -101l170 35l-28 -112l-170 -35l-13 -54l169 35l-28 -112l-169 -35l-41 -164h-174l31 126l-170 -35l28 112l170 35l14 54l-170 -35z" />
    <glyph glyph-name="uni20B4" unicode="&#x20b4;" 
d="M87 484h343q1 2 3.5 7.5t3.5 8.5q9 32 -5.5 51.5t-55.5 19.5q-66 0 -136 -45l-27 124q97 50 212 50q113 0 163 -56.5t28 -144.5l-5 -15h74l-28 -109h-141q-32 -23 -92 -56h220l-28 -109h-342q-7 -11 -10 -24q-9 -37 6 -55.5t60 -18.5q76 0 160 54l29 -121
q-99 -63 -238 -63q-119 0 -169 56t-27 149q3 13 7 23h-74l28 109h150q24 16 96 56h-233z" />
    <glyph glyph-name="uni20B8" unicode="&#x20b8;" 
d="M683 496l-32 -129h-207l-92 -367h-174l92 367h-207l32 129h588zM141 682h588l-33 -129h-588z" />
    <glyph glyph-name="uni20BA" unicode="&#x20ba;" 
d="M93 457l96 23l51 202h174l-40 -159l209 50l-28 -109l-208 -50l-15 -60l209 50l-28 -109l-209 -50l-26 -106q14 -1 25 -1q146 0 268 63l-38 -153q-110 -55 -278 -55q-85 0 -185 7l50 201l-97 -23l28 110l96 23l15 58l-98 -23z" />
    <glyph glyph-name="uni20BD" unicode="&#x20bd;" 
d="M224 0h-174l23 94h-76l27 109h76l17 65h-76l28 114h76l75 300q168 2 231 2q136 0 202 -53t37 -167q-15 -58 -45 -97.5t-74.5 -60.5t-93.5 -29.5t-113 -8.5q-52 0 -74 1l-16 -66h203l-27 -109h-203zM509 472q23 94 -82 94q-40 0 -63 -1l-45 -182q29 -1 67 -1q48 0 80 24
t43 66z" />
    <glyph glyph-name="afii61289" unicode="&#x2113;" horiz-adv-x="529" 
d="M376 152l41 -101q-95 -67 -195 -67q-136 0 -156 132l-42 -14l-23 127l69 25q9 57 24 116q26 105 58 175t71.5 106.5t79.5 50.5t93 14q55 0 91 -20t48.5 -52.5t14.5 -72t-10 -78.5q-28 -110 -97.5 -186t-222.5 -137q1 -29 12.5 -41t36.5 -12q47 0 107 35zM255 365l-10 -41
q60 33 89.5 74.5t44.5 102.5q21 85 -14 85q-17 0 -31.5 -14t-35 -65t-43.5 -142z" />
    <glyph glyph-name="uni2116" unicode="&#x2116;" horiz-adv-x="1223" 
d="M995 313q-99 0 -146 58t-26 145q21 84 89.5 134t163.5 50q99 0 146 -57.5t26 -144.5q-21 -84 -89.5 -134.5t-163.5 -50.5zM1013 417q34 0 58.5 24t35.5 65q10 43 -3 66.5t-47 23.5t-58.5 -23.5t-35.5 -65.5t2.5 -66t47.5 -24zM1142 158h-388l29 114h388zM629 0h-199
l-109 343q-20 65 -31 141h-4q-23 -135 -60 -281l-50 -203h-164l170 682h214l101 -318q21 -68 31 -141h4q19 115 59 280l44 179h165z" />
    <glyph glyph-name="trademark" unicode="&#x2122;" horiz-adv-x="1044" 
d="M140 312l67 266h-108l26 104h348l-26 -104h-108l-67 -266h-132zM424 312l94 370h209l10 -160q3 -34 1 -91h3l49 91l91 160h209l-91 -370h-122l33 130q28 112 38 146h-4q-34 -63 -63 -110l-99 -166h-141l-16 167q-7 81 -9 109h-4q-5 -21 -36 -146l-32 -130h-120z" />
    <glyph glyph-name="estimated" unicode="&#x212e;" horiz-adv-x="946" 
d="M339 411h352l18 69q4 18 -1 24q-49 51 -157 51q-103 0 -181 -51q-7 -4 -13 -24zM405 -18q-194 0 -289.5 97t-54.5 260q40 162 187.5 261.5t341.5 99.5q110 0 190 -32t119 -87.5t45.5 -132t-29.5 -164.5h-607l-21 -82q-5 -18 1 -24q49 -51 159 -51q125 0 206 72h232
q-67 -96 -196 -156.5t-284 -60.5z" />
    <glyph glyph-name="partialdiff" unicode="&#x2202;" horiz-adv-x="635" 
d="M270 115q46 0 81.5 35.5t50.5 96.5q16 62 -2 96.5t-65 34.5q-46 0 -81 -35t-51 -97q-15 -62 2.5 -96.5t64.5 -34.5zM236 568l23 132q58 15 138 15q307 0 209 -388q-44 -176 -134 -259.5t-231 -83.5q-124 0 -180 74.5t-25 197.5q30 118 110 185t197 67q100 0 136 -59h1
q-1 5 -7 42.5t-18 56.5q-28 37 -91 37q-74 0 -128 -17z" />
    <glyph glyph-name="product" unicode="&#x220f;" horiz-adv-x="870" 
d="M642 -180h-174l203 811h-278l-203 -811h-174l203 811h-120l37 147h866l-37 -147h-120z" />
    <glyph glyph-name="summation" unicode="&#x2211;" horiz-adv-x="708" 
d="M-59 -180l36 142l332 353l-152 323l34 140h574l-35 -140h-161q-77 0 -195 2l154 -327l-331 -353q150 2 215 2h172l-36 -142h-607z" />
    <glyph glyph-name="minus" unicode="&#x2212;" 
d="M642 388l-34 -132h-560l34 132h560z" />
    <glyph glyph-name="radical" unicode="&#x221a;" horiz-adv-x="718" 
d="M350 -96h-212l-25 307h-104l34 133h238l3 -91q3 -105 0 -184h4q27 63 96 189l284 520h191z" />
    <glyph glyph-name="infinity" unicode="&#x221e;" horiz-adv-x="1038" 
d="M248 96q-104 0 -156.5 66t-27.5 166q26 104 102 162t187 58q132 0 213 -122q143 122 265 122q104 0 156.5 -65.5t27.5 -164.5q-26 -105 -102.5 -163.5t-188.5 -58.5q-134 0 -212 121q-141 -121 -264 -121zM794 418q-39 0 -78.5 -24.5t-90.5 -71.5q26 -47 52 -71.5
t64 -24.5q37 0 65.5 26t39.5 70t-2 70t-50 26zM284 226q64 0 169 96q-26 47 -52 71.5t-64 24.5q-37 0 -65.5 -26t-39.5 -70q-11 -45 2 -70.5t50 -25.5z" />
    <glyph glyph-name="integral" unicode="&#x222b;" horiz-adv-x="390" 
d="M-96 -181l31 124q36 -8 64 -8q22 0 32.5 9.5t17.5 36.5l166 663q17 71 70 108.5t136 37.5q59 0 95 -12l-31 -126q-30 10 -64 10q-40 0 -53 -47l-165 -658q-21 -78 -70.5 -114t-133.5 -36q-56 0 -95 12z" />
    <glyph glyph-name="approxequal" unicode="&#x2248;" 
d="M108 117l-79 87q38 46 89.5 75.5t103.5 29.5t112 -29.5t90 -29.5q44 0 101 52l79 -87q-89 -105 -193 -105q-52 0 -112 29.5t-90 29.5q-46 0 -101 -52zM164 342l-79 87q38 46 89.5 75.5t103.5 29.5t112 -29.5t90 -29.5q44 0 101 52l79 -87q-89 -105 -193 -105
q-52 0 -112 29.5t-90 29.5q-46 0 -101 -52z" />
    <glyph glyph-name="notequal" unicode="&#x2260;" 
d="M205 21h-162l97 131h-108l34 131h170l57 78h-208l34 131h271l88 123h163l-91 -123h109l-34 -131h-173l-56 -78h210l-34 -131h-272z" />
    <glyph glyph-name="lessequal" unicode="&#x2264;" 
d="M567 132l-32 -132h-540l33 132h539zM613 310l-39 -152l-489 201l37 148l589 200l-41 -166l-233 -74q-87 -28 -152 -40l-1 -2q58 -12 133 -40z" />
    <glyph glyph-name="greaterequal" unicode="&#x2265;" 
d="M567 132l-32 -132h-540l32 132h540zM132 555l39 152l489 -201l-37 -148l-589 -200l41 166l233 74q89 28 152 40l1 2q-68 16 -133 40z" />
    <glyph glyph-name="lozenge" unicode="&#x25ca;" horiz-adv-x="664" 
d="M372 0h-201l-127 340l297 342h201l128 -340zM303 150h2q33 50 167 204q-52 141 -61 178h-2q-41 -58 -167 -204q52 -141 61 -178z" />
    <glyph glyph-name="uniF8FF" unicode="&#xf8ff;" horiz-adv-x="828" 
d="M148 608v-532h532v532h-532zM72 0v684h684v-684h-684zM224 152v380h76v-304h152v-76h-228zM528 152v152h-152v76h152v76h-152v76h228v-380h-76z" />
    <glyph glyph-name="fi" unicode="&#xfb01;" horiz-adv-x="635" 
d="M175 0h-160l94 376h-62l31 124h61l18 74q34 142 199 142q61 0 105 -11l-37 -125q-32 8 -61 8q-41 0 -52 -42l-12 -46h92l-32 -124h-90zM510 0h-160l125 500h160zM649 552h-163l39 150h161z" />
    <glyph glyph-name="fl" unicode="&#xfb02;" horiz-adv-x="635" 
d="M175 0h-160l94 376h-62l31 124h61l18 74q34 142 199 142q61 0 105 -11l-37 -125q-32 8 -61 8q-41 0 -52 -42l-12 -46h92l-32 -124h-90zM350 0l175 702h160l-175 -702h-160z" />
    <glyph glyph-name="a.2" horiz-adv-x="621" 
d="M481 500h148q-28 -78 -71 -250q-37 -146 -59 -250h-149l12 60h-1q-70 -76 -166 -76q-102 0 -145 79.5t-13 197.5q29 118 106 186.5t183 68.5q50 0 86.5 -18.5t49.5 -51.5h1zM399 243l4 15q15 58 -1.5 95t-61.5 37q-47 0 -83.5 -38.5t-52.5 -101.5q-17 -60 -1.5 -100
t63.5 -40q44 0 80.5 35.5t52.5 97.5z" />
    <glyph glyph-name="agrave.2" horiz-adv-x="621" 
d="M481 500h148q-28 -78 -71 -250q-37 -146 -59 -250h-149l12 60h-1q-70 -76 -166 -76q-102 0 -145 79.5t-13 197.5q29 118 106 186.5t183 68.5q50 0 86.5 -18.5t49.5 -51.5h1zM399 243l4 15q15 58 -1.5 95t-61.5 37q-47 0 -83.5 -38.5t-52.5 -101.5q-17 -60 -1.5 -100
t63.5 -40q44 0 80.5 35.5t52.5 97.5zM431 706l46 -150h-138l-103 150h195z" />
    <glyph glyph-name="aacute.2" horiz-adv-x="621" 
d="M481 500h148q-28 -78 -71 -250q-37 -146 -59 -250h-149l12 60h-1q-70 -76 -166 -76q-102 0 -145 79.5t-13 197.5q29 118 106 186.5t183 68.5q50 0 86.5 -18.5t49.5 -51.5h1zM399 243l4 15q15 58 -1.5 95t-61.5 37q-47 0 -83.5 -38.5t-52.5 -101.5q-17 -60 -1.5 -100
t63.5 -40q44 0 80.5 35.5t52.5 97.5zM286 556l120 150h210l-179 -150h-151z" />
    <glyph glyph-name="acircumflex.2" horiz-adv-x="621" 
d="M481 500h148q-28 -78 -71 -250q-37 -146 -59 -250h-149l12 60h-1q-70 -76 -166 -76q-102 0 -145 79.5t-13 197.5q29 118 106 186.5t183 68.5q50 0 86.5 -18.5t49.5 -51.5h1zM399 243l4 15q15 58 -1.5 95t-61.5 37q-47 0 -83.5 -38.5t-52.5 -101.5q-17 -60 -1.5 -100
t63.5 -40q44 0 80.5 35.5t52.5 97.5zM180 556l146 150h192l70 -150h-137l-44 66l-76 -66h-151z" />
    <glyph glyph-name="atilde.2" horiz-adv-x="621" 
d="M481 500h148q-28 -78 -71 -250q-37 -146 -59 -250h-149l12 60h-1q-70 -76 -166 -76q-102 0 -145 79.5t-13 197.5q29 118 106 186.5t183 68.5q50 0 86.5 -18.5t49.5 -51.5h1zM399 243l4 15q15 58 -1.5 95t-61.5 37q-47 0 -83.5 -38.5t-52.5 -101.5q-17 -60 -1.5 -100
t63.5 -40q44 0 80.5 35.5t52.5 97.5zM290 560h-113q15 79 56.5 117.5t116.5 38.5q36 0 63.5 -10t45 -20.5t27.5 -10.5q23 0 33 35h113q-15 -79 -56.5 -117.5t-116.5 -38.5q-36 0 -63.5 10t-45 20.5t-27.5 10.5q-23 0 -33 -35z" />
    <glyph glyph-name="adieresis.2" horiz-adv-x="621" 
d="M481 500h148q-28 -78 -71 -250q-37 -146 -59 -250h-149l12 60h-1q-70 -76 -166 -76q-102 0 -145 79.5t-13 197.5q29 118 106 186.5t183 68.5q50 0 86.5 -18.5t49.5 -51.5h1zM399 243l4 15q15 58 -1.5 95t-61.5 37q-47 0 -83.5 -38.5t-52.5 -101.5q-17 -60 -1.5 -100
t63.5 -40q44 0 80.5 35.5t52.5 97.5zM351 556h-150l37 150h150zM571 556h-150l37 150h150z" />
    <glyph glyph-name="amacron.2" horiz-adv-x="621" 
d="M481 500h148q-28 -78 -71 -250q-37 -146 -59 -250h-149l12 60h-1q-70 -76 -166 -76q-102 0 -145 79.5t-13 197.5q29 118 106 186.5t183 68.5q50 0 86.5 -18.5t49.5 -51.5h1zM399 243l4 15q15 58 -1.5 95t-61.5 37q-47 0 -83.5 -38.5t-52.5 -101.5q-17 -60 -1.5 -100
t63.5 -40q44 0 80.5 35.5t52.5 97.5zM591 691l-32 -128h-346l32 128h346z" />
    <glyph glyph-name="abreve.2" horiz-adv-x="621" 
d="M481 500h148q-28 -78 -71 -250q-37 -146 -59 -250h-149l12 60h-1q-70 -76 -166 -76q-102 0 -145 79.5t-13 197.5q29 118 106 186.5t183 68.5q50 0 86.5 -18.5t49.5 -51.5h1zM399 243l4 15q15 58 -1.5 95t-61.5 37q-47 0 -83.5 -38.5t-52.5 -101.5q-17 -60 -1.5 -100
t63.5 -40q44 0 80.5 35.5t52.5 97.5zM483 724h119q-35 -170 -212 -170q-83 0 -124 42t-15 128h119q-17 -57 42 -57t71 57z" />
    <glyph glyph-name="aring.2" horiz-adv-x="621" 
d="M481 500h148q-28 -78 -71 -250q-37 -146 -59 -250h-149l12 60h-1q-70 -76 -166 -76q-102 0 -145 79.5t-13 197.5q29 118 106 186.5t183 68.5q50 0 86.5 -18.5t49.5 -51.5h1zM399 243l4 15q15 58 -1.5 95t-61.5 37q-47 0 -83.5 -38.5t-52.5 -101.5q-17 -60 -1.5 -100
t63.5 -40q44 0 80.5 35.5t52.5 97.5zM563 659q-12 -48 -56 -78.5t-117 -30.5q-75 0 -108.5 34.5t-20.5 88.5q12 48 56 78.5t117 30.5q75 0 109 -34.5t20 -88.5zM444 666q9 38 -22 38q-33 0 -42 -38t23 -38t41 38z" />
    <glyph glyph-name="aringacute.2" horiz-adv-x="621" 
d="M481 500h148q-28 -78 -71 -250q-37 -146 -59 -250h-149l12 60h-1q-70 -76 -166 -76q-102 0 -145 79.5t-13 197.5q29 118 106 186.5t183 68.5q50 0 86.5 -18.5t49.5 -51.5h1zM399 243l4 15q15 58 -1.5 95t-61.5 37q-47 0 -83.5 -38.5t-52.5 -101.5q-17 -60 -1.5 -100
t63.5 -40q44 0 80.5 35.5t52.5 97.5zM554 650q-10 -43 -52.5 -71.5t-111.5 -28.5q-72 0 -104 32t-20 82q10 43 52.5 71.5t111.5 28.5q72 0 104 -32t20 -82zM440 657q9 35 -21 35t-39 -35t21 -35t39 35zM371 797l108 133h185l-156 -133h-137z" />
    <glyph glyph-name="aogonek.2" horiz-adv-x="621" 
d="M399 243l4 15q15 58 -1.5 95t-61.5 37q-47 0 -83.5 -38.5t-52.5 -101.5q-17 -60 -1.5 -100t63.5 -40q44 0 80.5 35.5t52.5 97.5zM484 -103l-20 -79q-28 -12 -74 -12q-129 0 -129 70q0 57 88 121l13 63h-1q-70 -76 -166 -76q-102 0 -145 79.5t-13 197.5q29 118 106 186.5
t183 68.5q50 0 86.5 -18.5t49.5 -51.5h1l18 54h148q-28 -78 -71 -250q-37 -146 -59 -250q-74 -62 -74 -88q0 -15 26 -15h33z" />
    <glyph glyph-name="ae.2" horiz-adv-x="885" 
d="M757 158l43 -104q-113 -70 -243 -70q-153 0 -192 101q-81 -101 -221 -101q-87 0 -124.5 49.5t-19.5 119.5q13 51 48 85t112 54.5t197 20.5h1l4 15q8 34 -9.5 52.5t-60.5 18.5q-80 0 -163 -57l-46 98q114 76 249 76q114 0 153 -54q68 54 176 54q102 0 155.5 -44.5
t53.5 -112.5q0 -74 -67 -115.5t-229 -41.5h-82q-5 -52 19.5 -75t77.5 -23q83 0 168 54zM640 400q-80 0 -120 -94h67q68 0 92.5 12.5t24.5 38.5q0 18 -16 30.5t-48 12.5zM209 103q38 0 74 27t47 71l2 8h-1q-89 0 -123.5 -14t-41.5 -44q-11 -48 43 -48z" />
    <glyph glyph-name="aeacute.2" horiz-adv-x="885" 
d="M757 158l43 -104q-113 -70 -243 -70q-153 0 -192 101q-81 -101 -221 -101q-87 0 -124.5 49.5t-19.5 119.5q13 51 48 85t112 54.5t197 20.5h1l4 15q8 34 -9.5 52.5t-60.5 18.5q-80 0 -163 -57l-46 98q114 76 249 76q114 0 153 -54q68 54 176 54q102 0 155.5 -44.5
t53.5 -112.5q0 -74 -67 -115.5t-229 -41.5h-82q-5 -52 19.5 -75t77.5 -23q83 0 168 54zM640 400q-80 0 -120 -94h67q68 0 92.5 12.5t24.5 38.5q0 18 -16 30.5t-48 12.5zM209 103q38 0 74 27t47 71l2 8h-1q-89 0 -123.5 -14t-41.5 -44q-11 -48 43 -48zM437 552l120 150h210
l-179 -150h-151z" />
    <glyph glyph-name="e.2" horiz-adv-x="586" 
d="M458 158l43 -104q-113 -70 -243 -70q-132 0 -192.5 74t-27.5 203q31 124 117.5 189.5t206.5 65.5q102 0 155.5 -44.5t53.5 -112.5q0 -161 -300 -161h-78q-4 -50 20.5 -72t76.5 -22q82 0 168 54zM341 400q-82 0 -122 -98h65q121 0 121 55q0 18 -16 30.5t-48 12.5z" />
    <glyph glyph-name="egrave.2" horiz-adv-x="586" 
d="M458 158l43 -104q-113 -70 -243 -70q-132 0 -192.5 74t-27.5 203q31 124 117.5 189.5t206.5 65.5q102 0 155.5 -44.5t53.5 -112.5q0 -161 -300 -161h-78q-4 -50 20.5 -72t76.5 -22q82 0 168 54zM341 400q-82 0 -122 -98h65q121 0 121 55q0 18 -16 30.5t-48 12.5zM419 706
l46 -150h-138l-103 150h195z" />
    <glyph glyph-name="eacute.2" horiz-adv-x="586" 
d="M458 158l43 -104q-113 -70 -243 -70q-132 0 -192.5 74t-27.5 203q31 124 117.5 189.5t206.5 65.5q102 0 155.5 -44.5t53.5 -112.5q0 -161 -300 -161h-78q-4 -50 20.5 -72t76.5 -22q82 0 168 54zM341 400q-82 0 -122 -98h65q121 0 121 55q0 18 -16 30.5t-48 12.5zM274 556
l120 150h210l-179 -150h-151z" />
    <glyph glyph-name="ecircumflex.2" horiz-adv-x="586" 
d="M458 158l43 -104q-113 -70 -243 -70q-132 0 -192.5 74t-27.5 203q31 124 117.5 189.5t206.5 65.5q102 0 155.5 -44.5t53.5 -112.5q0 -161 -300 -161h-78q-4 -50 20.5 -72t76.5 -22q82 0 168 54zM341 400q-82 0 -122 -98h65q121 0 121 55q0 18 -16 30.5t-48 12.5zM168 556
l146 150h192l70 -150h-137l-44 66l-76 -66h-151z" />
    <glyph glyph-name="ecaron.2" horiz-adv-x="586" 
d="M458 158l43 -104q-113 -70 -243 -70q-132 0 -192.5 74t-27.5 203q31 124 117.5 189.5t206.5 65.5q102 0 155.5 -44.5t53.5 -112.5q0 -161 -300 -161h-78q-4 -50 20.5 -72t76.5 -22q82 0 168 54zM341 400q-82 0 -122 -98h65q121 0 121 55q0 18 -16 30.5t-48 12.5zM614 706
l-145 -150h-192l-71 150h138l44 -66l76 66h150z" />
    <glyph glyph-name="edieresis.2" horiz-adv-x="586" 
d="M458 158l43 -104q-113 -70 -243 -70q-132 0 -192.5 74t-27.5 203q31 124 117.5 189.5t206.5 65.5q102 0 155.5 -44.5t53.5 -112.5q0 -161 -300 -161h-78q-4 -50 20.5 -72t76.5 -22q82 0 168 54zM341 400q-82 0 -122 -98h65q121 0 121 55q0 18 -16 30.5t-48 12.5zM338 556
h-150l37 150h150zM558 556h-150l37 150h150z" />
    <glyph glyph-name="emacron.2" horiz-adv-x="586" 
d="M458 158l43 -104q-113 -70 -243 -70q-132 0 -192.5 74t-27.5 203q31 124 117.5 189.5t206.5 65.5q102 0 155.5 -44.5t53.5 -112.5q0 -161 -300 -161h-78q-4 -50 20.5 -72t76.5 -22q82 0 168 54zM341 400q-82 0 -122 -98h65q121 0 121 55q0 18 -16 30.5t-48 12.5zM579 691
l-32 -128h-346l32 128h346z" />
    <glyph glyph-name="edotaccent.2" horiz-adv-x="586" 
d="M458 158l43 -104q-113 -70 -243 -70q-132 0 -192.5 74t-27.5 203q31 124 117.5 189.5t206.5 65.5q102 0 155.5 -44.5t53.5 -112.5q0 -161 -300 -161h-78q-4 -50 20.5 -72t76.5 -22q82 0 168 54zM341 400q-82 0 -122 -98h65q121 0 121 55q0 18 -16 30.5t-48 12.5zM455 556
h-162l37 150h162z" />
    <glyph glyph-name="ebreve.2" horiz-adv-x="586" 
d="M458 158l43 -104q-113 -70 -243 -70q-132 0 -192.5 74t-27.5 203q31 124 117.5 189.5t206.5 65.5q102 0 155.5 -44.5t53.5 -112.5q0 -161 -300 -161h-78q-4 -50 20.5 -72t76.5 -22q82 0 168 54zM341 400q-82 0 -122 -98h65q121 0 121 55q0 18 -16 30.5t-48 12.5zM471 724
h119q-35 -170 -212 -170q-83 0 -124 42t-15 128h119q-17 -57 42 -57t71 57z" />
    <glyph glyph-name="eogonek.2" horiz-adv-x="586" 
d="M430 -103l-20 -79q-31 -12 -74 -12q-129 0 -129 70q0 56 76 110q-12 -2 -25 -2q-132 0 -192.5 74t-27.5 203q31 124 117.5 189.5t206.5 65.5q102 0 155.5 -44.5t53.5 -112.5q0 -161 -300 -161h-78q-4 -50 20.5 -72t76.5 -22q89 0 167 55l42 -99q-7 -8 -44 -43
q-49 -46 -66.5 -68t-17.5 -37t26 -15h33zM219 302h65q121 0 121 55q0 18 -16 30.5t-48 12.5q-82 0 -122 -98z" />
    <glyph glyph-name="uni0259.001" horiz-adv-x="591" 
d="M133 342l-43 104q113 70 243 70q132 0 192.5 -74t27.5 -203q-31 -124 -117.5 -189.5t-206.5 -65.5q-102 0 -155.5 44.5t-53.5 112.5q0 170 300 170h78q3 85 -97 85q-83 0 -168 -54zM250 100q85 0 125 107h-68q-121 0 -121 -64q0 -18 16 -30.5t48 -12.5z" />
    <glyph glyph-name="f.2" horiz-adv-x="337" 
d="M269 376l-94 -375q-25 -102 -77 -147t-144 -45q-38 0 -60 9l29 122h32q29 0 41 16.5t28 80.5l85 339h-62l31 124h61l18 74q34 142 199 142q61 0 105 -11l-37 -125q-32 8 -61 8q-41 0 -52 -42l-12 -46h92l-32 -124h-90z" />
    <glyph glyph-name="uni1E1F.2" horiz-adv-x="327" 
d="M269 376l-94 -375q-25 -102 -77 -147t-144 -45q-38 0 -60 9l29 122h32q29 0 41 16.5t28 80.5l85 339h-62l31 124h61l18 74q34 142 199 142q61 0 105 -11l-37 -125q-32 8 -61 8q-41 0 -52 -42l-12 -46h92l-32 -124h-90zM447 754h-162l37 150h162z" />
    <glyph glyph-name="fi.2" horiz-adv-x="635" 
d="M269 376l-94 -375q-25 -102 -77 -147t-144 -45q-38 0 -60 9l29 122h32q29 0 41 16.5t28 80.5l85 339h-62l31 124h61l18 74q34 142 199 142q61 0 105 -11l-37 -125q-32 8 -61 8q-41 0 -52 -42l-12 -46h92l-32 -124h-90zM510 0h-160l125 500h160zM649 552h-163l39 150h161z
" />
    <glyph glyph-name="fl.2" horiz-adv-x="635" 
d="M269 376l-94 -375q-25 -102 -77 -147t-144 -45q-38 0 -60 9l29 122h32q29 0 41 16.5t28 80.5l85 339h-62l31 124h61l18 74q34 142 199 142q61 0 105 -11l-37 -125q-32 8 -61 8q-41 0 -52 -42l-12 -46h92l-32 -124h-90zM350 0l175 702h160l-175 -702h-160z" />
    <glyph glyph-name="oe.2" horiz-adv-x="948" 
d="M820 158l43 -104q-113 -70 -243 -70q-136 0 -174 81q-78 -81 -199 -81q-122 0 -182 74.5t-28 202.5q31 125 117 190t206 65q58 0 102 -21t61 -60q78 81 201 81q102 0 155.5 -44.5t53.5 -112.5q0 -161 -300 -161h-77q-4 -50 20 -72t76 -22q82 0 168 54zM403 250
q16 63 -2 99t-65 36q-46 0 -81 -36t-51 -99t2 -99t65 -36q46 0 81 36t51 99zM703 400q-82 0 -122 -98h65q121 0 121 55q0 18 -16 30.5t-48 12.5z" />
    <glyph glyph-name="germandbls.2" horiz-adv-x="678" 
d="M283 474l-119 -473q-26 -102 -77.5 -147t-142.5 -45q-38 0 -61 9l31 122h31q29 0 41 16.5t28 80.5l111 444q30 120 110.5 177.5t221.5 57.5q137 0 190 -52.5t33 -135.5q-11 -44 -43 -73t-65 -39.5t-61 -23.5t-32 -28q-4 -16 13.5 -31t44 -27.5t52 -35t37 -54t-0.5 -83.5
q-39 -149 -240 -149q-100 0 -155 31l52 122q64 -34 122 -34q48 0 55 29q4 17 -13.5 32.5t-44 28.5t-52 35.5t-36.5 54.5t2 85q11 39 42.5 67.5t63.5 41.5t60 31t33 38q6 23 -14.5 37.5t-66.5 14.5q-119 0 -150 -124z" />
    <glyph glyph-name="longs.2" horiz-adv-x="290" 
d="M301 546l-136 -545q-25 -102 -77 -147t-144 -45q-38 0 -61 9l31 122h31q29 0 41 16.5t28 80.5l125 499q45 180 216 180q46 0 86 -10l-37 -125q-22 7 -51 7q-41 0 -52 -42z" />
    <glyph glyph-name="uni0430.2" horiz-adv-x="621" 
d="M481 500h148q-28 -78 -71 -250q-37 -146 -59 -250h-149l12 60h-1q-70 -76 -166 -76q-102 0 -145 79.5t-13 197.5q29 118 106 186.5t183 68.5q50 0 86.5 -18.5t49.5 -51.5h1zM399 243l4 15q15 58 -1.5 95t-61.5 37q-47 0 -83.5 -38.5t-52.5 -101.5q-17 -60 -1.5 -100
t63.5 -40q44 0 80.5 35.5t52.5 97.5z" />
    <glyph glyph-name="uni04D3.2" horiz-adv-x="621" 
d="M481 500h148q-28 -78 -71 -250q-37 -146 -59 -250h-149l12 60h-1q-70 -76 -166 -76q-102 0 -145 79.5t-13 197.5q29 118 106 186.5t183 68.5q50 0 86.5 -18.5t49.5 -51.5h1zM399 243l4 15q15 58 -1.5 95t-61.5 37q-47 0 -83.5 -38.5t-52.5 -101.5q-17 -60 -1.5 -100
t63.5 -40q44 0 80.5 35.5t52.5 97.5zM341 552h-150l37 150h150zM561 552h-150l37 150h150z" />
    <glyph glyph-name="uni04D1.2" horiz-adv-x="621" 
d="M481 500h148q-28 -78 -71 -250q-37 -146 -59 -250h-149l12 60h-1q-70 -76 -166 -76q-102 0 -145 79.5t-13 197.5q29 118 106 186.5t183 68.5q50 0 86.5 -18.5t49.5 -51.5h1zM399 243l4 15q15 58 -1.5 95t-61.5 37q-47 0 -83.5 -38.5t-52.5 -101.5q-17 -60 -1.5 -100
t63.5 -40q44 0 80.5 35.5t52.5 97.5zM470 720h131q-47 -170 -220 -170q-186 0 -159 170h134q-14 -78 40 -78q47 0 74 78z" />
    <glyph glyph-name="uni04D5.2" horiz-adv-x="885" 
d="M757 158l43 -104q-113 -70 -243 -70q-153 0 -192 101q-81 -101 -221 -101q-87 0 -124.5 49.5t-19.5 119.5q13 51 48 85t112 54.5t197 20.5h1l4 15q8 34 -9.5 52.5t-60.5 18.5q-80 0 -163 -57l-46 98q114 76 249 76q114 0 153 -54q68 54 176 54q102 0 155.5 -44.5
t53.5 -112.5q0 -74 -67 -115.5t-229 -41.5h-82q-5 -52 19.5 -75t77.5 -23q83 0 168 54zM640 400q-80 0 -120 -94h67q68 0 92.5 12.5t24.5 38.5q0 18 -16 30.5t-48 12.5zM209 103q38 0 74 27t47 71l2 8h-1q-89 0 -123.5 -14t-41.5 -44q-11 -48 43 -48z" />
    <glyph glyph-name="uni0431.SRB" horiz-adv-x="604" 
d="M637 702l-33 -136h-201q-57 0 -63 -18q-3 -13 8 -21t33 -14t47.5 -13.5t56.5 -24t55 -39.5q66 -64 32 -201q-30 -121 -118 -186t-208 -65q-122 0 -181 72t-28 196q36 147 159 207q-34 48 -18 107q16 67 77.5 101.5t179.5 34.5h202zM337 375q-100 0 -133 -132
q-14 -58 3.5 -93t64.5 -35q46 0 82 35t50 93q15 60 -1 96t-66 36z" />
    <glyph glyph-name="uni0432.bul" horiz-adv-x="592" 
d="M52 231l58 232q34 134 101.5 193.5t193.5 59.5q117 0 164 -60t25 -151q-22 -89 -128 -132q107 -44 75 -181q-50 -208 -295 -208q-120 0 -172 64t-22 183zM230 303l-17 -70q-16 -69 -3 -98t56 -29q82 0 107 99q11 47 -7.5 72.5t-64.5 25.5h-71zM274 478l-14 -58h58
q86 3 108 90q10 41 -3 62.5t-47 21.5q-39 0 -62.5 -27t-39.5 -89z" />
    <glyph glyph-name="uni0433.bul" horiz-adv-x="505" 
d="M400 163l40 -109q-113 -70 -264 -70q-101 0 -145.5 45t-26.5 118q12 50 49 84.5t82 50.5t88.5 27t75.5 25t37 34q4 14 -7 22.5t-35 8.5q-89 0 -170 -60l-36 108q108 69 236 69q100 0 148.5 -42t30.5 -117q-12 -50 -49 -84.5t-81.5 -50.5t-87.5 -28t-75.5 -25.5
t-37.5 -32.5q-5 -17 5.5 -25.5t37.5 -8.5q91 0 185 61z" />
    <glyph glyph-name="uni0433.MKD" horiz-adv-x="290" 
d="M165 0h-160l125 500h160zM427 687l-32 -128h-346l32 128h346z" />
    <glyph glyph-name="uni0453.2" horiz-adv-x="505" 
d="M400 163l40 -109q-113 -70 -264 -70q-101 0 -145.5 45t-26.5 118q12 50 49 84.5t82 50.5t88.5 27t75.5 25t37 34q4 14 -7 22.5t-35 8.5q-89 0 -170 -60l-36 108q108 69 236 69q100 0 148.5 -42t30.5 -117q-12 -50 -49 -84.5t-81.5 -50.5t-87.5 -28t-75.5 -25.5
t-37.5 -32.5q-5 -17 5.5 -25.5t37.5 -8.5q91 0 185 61zM223 552l120 150h210l-179 -150h-151z" />
    <glyph glyph-name="uni0453.MKD" horiz-adv-x="290" 
d="M165 0h-160l125 500h160zM145 552l120 150h210l-179 -150h-151z" />
    <glyph glyph-name="uni0491.2" horiz-adv-x="435" 
d="M5 0l80 318q28 112 79.5 147t184.5 35h6l35 141h140l-66 -265h-143q-35 0 -52 -13.5t-26 -48.5l-78 -314h-160z" />
    <glyph glyph-name="uni0493.2" horiz-adv-x="505" 
d="M406 133l28 -109q-106 -40 -234 -40q-109 0 -156 45t-30 118q13 58 70 98l-75 22l27 97l197 -57q28 10 44.5 16.5t31 18t17.5 24.5q4 15 -7 24t-35 9q-86 0 -167 -36l-21 108q97 45 218 45q100 0 148.5 -41.5t30.5 -117.5q-14 -61 -76 -102l72 -20l-26 -97l-194 55
q-79 -26 -87 -55q-10 -36 44 -36q93 0 180 31z" />
    <glyph glyph-name="uni0434.bul" horiz-adv-x="621" 
d="M482 500h147q-26 -70 -71 -251q-10 -37 -28 -115t-28 -119q-51 -209 -312 -209q-136 0 -216 44l70 121q76 -47 178 -47q48 0 74.5 21.5t42.5 62.5q10 27 21 56h-2q-67 -68 -160 -68q-103 0 -146.5 75.5t-13.5 194.5q29 114 106 182t182 68q50 0 86.5 -18.5t49.5 -51.5h1z
M402 254l1 4q15 59 -1.5 95.5t-61.5 36.5q-47 0 -83.5 -38t-51.5 -97q-14 -59 1.5 -97t62.5 -38q44 0 81.5 38t51.5 96z" />
    <glyph glyph-name="uni0435.2" horiz-adv-x="586" 
d="M458 158l43 -104q-113 -70 -243 -70q-132 0 -192.5 74t-27.5 203q31 124 117.5 189.5t206.5 65.5q102 0 155.5 -44.5t53.5 -112.5q0 -161 -300 -161h-78q-4 -50 20.5 -72t76.5 -22q82 0 168 54zM341 400q-82 0 -122 -98h65q121 0 121 55q0 18 -16 30.5t-48 12.5z" />
    <glyph glyph-name="uni0450.2" horiz-adv-x="586" 
d="M458 158l43 -104q-113 -70 -243 -70q-132 0 -192.5 74t-27.5 203q31 124 117.5 189.5t206.5 65.5q102 0 155.5 -44.5t53.5 -112.5q0 -161 -300 -161h-78q-4 -50 20.5 -72t76.5 -22q82 0 168 54zM341 400q-82 0 -122 -98h65q121 0 121 55q0 18 -16 30.5t-48 12.5zM405 702
l46 -150h-138l-103 150h195z" />
    <glyph glyph-name="uni0451.2" horiz-adv-x="586" 
d="M458 158l43 -104q-113 -70 -243 -70q-132 0 -192.5 74t-27.5 203q31 124 117.5 189.5t206.5 65.5q102 0 155.5 -44.5t53.5 -112.5q0 -161 -300 -161h-78q-4 -50 20.5 -72t76.5 -22q82 0 168 54zM341 400q-82 0 -122 -98h65q121 0 121 55q0 18 -16 30.5t-48 12.5zM341 552
h-150l37 150h150zM561 552h-150l37 150h150z" />
    <glyph glyph-name="uni04D7.2" horiz-adv-x="586" 
d="M458 158l43 -104q-113 -70 -243 -70q-132 0 -192.5 74t-27.5 203q31 124 117.5 189.5t206.5 65.5q102 0 155.5 -44.5t53.5 -112.5q0 -161 -300 -161h-78q-4 -50 20.5 -72t76.5 -22q82 0 168 54zM341 400q-82 0 -122 -98h65q121 0 121 55q0 18 -16 30.5t-48 12.5zM463 720
h131q-47 -170 -220 -170q-186 0 -159 170h134q-14 -78 40 -78q47 0 74 78z" />
    <glyph glyph-name="uni04D9.2" horiz-adv-x="591" 
d="M133 342l-43 104q113 70 243 70q132 0 192.5 -74t27.5 -203q-31 -124 -117.5 -189.5t-206.5 -65.5q-102 0 -155.5 44.5t-53.5 112.5q0 170 300 170h78q3 85 -97 85q-83 0 -168 -54zM250 100q85 0 125 107h-68q-121 0 -121 -64q0 -18 16 -30.5t48 -12.5z" />
    <glyph glyph-name="uni0436.bul" horiz-adv-x="838" 
d="M790 0h-179l-63 206h-58l-51 -206h-160l51 206h-51l-164 -206h-193l240 275l-105 225h183l67 -171h54l93 373h160l-93 -373h51l151 171h190l-222 -231z" />
    <glyph glyph-name="uni0438.bul" horiz-adv-x="610" 
d="M488 0h-149l13 60h-1q-71 -76 -161 -76q-88 0 -129.5 57.5t-14.5 162.5l74 296h160l-63 -251q-19 -79 -15 -102q9 -37 54 -37q38 0 69 25q42 34 63 118l62 247h160l-61 -241q-44 -173 -61 -259z" />
    <glyph glyph-name="uni0419.bul" horiz-adv-x="782" 
d="M650 0h-174l107 430l-385 -430h-186l170 682h174l-107 -430l385 430h186zM712 890l16 -105q-83 -44 -206 -44q-135 0 -208 45l75 104q76 -30 154 -30q91 0 169 30z" />
    <glyph glyph-name="uni0439.bul" horiz-adv-x="610" 
d="M488 0h-149l13 60h-1q-71 -76 -161 -76q-88 0 -129.5 57.5t-14.5 162.5l74 296h160l-63 -251q-19 -79 -15 -102q9 -37 54 -37q38 0 69 25q42 34 63 118l62 247h160l-61 -241q-44 -173 -61 -259zM579 707l16 -104q-73 -37 -196 -37q-133 0 -196 37l65 104q76 -22 152 -22
q77 0 159 22z" />
    <glyph glyph-name="uni0439.2" horiz-adv-x="610" 
d="M488 0h-149l13 60h-1q-71 -76 -161 -76q-88 0 -129.5 57.5t-14.5 162.5l74 296h160l-63 -251q-19 -79 -15 -102q9 -37 54 -37q38 0 69 25q42 34 63 118l62 247h160l-61 -241q-44 -173 -61 -259zM470 720h131q-47 -170 -220 -170q-186 0 -159 170h134q-14 -78 40 -78
q47 0 74 78z" />
    <glyph glyph-name="uni04E3.2" horiz-adv-x="610" 
d="M488 0h-149l13 60h-1q-71 -76 -161 -76q-88 0 -129.5 57.5t-14.5 162.5l74 296h160l-63 -251q-19 -79 -15 -102q9 -37 54 -37q38 0 69 25q42 34 63 118l62 247h160l-61 -241q-44 -173 -61 -259zM580 687l-32 -128h-346l32 128h346z" />
    <glyph glyph-name="uni045D.bul" horiz-adv-x="610" 
d="M488 0h-149l13 60h-1q-71 -76 -161 -76q-88 0 -129.5 57.5t-14.5 162.5l74 296h160l-63 -251q-19 -79 -15 -102q9 -37 54 -37q38 0 69 25q42 34 63 118l62 247h160l-61 -241q-44 -173 -61 -259zM403 702l46 -150h-138l-103 150h195z" />
    <glyph glyph-name="uni04E5.2" horiz-adv-x="610" 
d="M488 0h-149l13 60h-1q-71 -76 -161 -76q-88 0 -129.5 57.5t-14.5 162.5l74 296h160l-63 -251q-19 -79 -15 -102q9 -37 54 -37q38 0 69 25q42 34 63 118l62 247h160l-61 -241q-44 -173 -61 -259zM343 552h-150l37 150h150zM563 552h-150l37 150h150z" />
    <glyph glyph-name="uni043A.bul" horiz-adv-x="584" 
d="M528 0h-181l-69 206h-62l-51 -206h-160l175 702h160l-93 -373h58l151 171h193l-219 -233z" />
    <glyph glyph-name="uni041B.alt" horiz-adv-x="685" 
d="M617 0h-187l-18 330q-6 109 1 187h-4q-35 -82 -92 -189l-175 -328h-194l399 682h212z" />
    <glyph glyph-name="uni043B.alt" horiz-adv-x="538" 
d="M481 0h-172l-9 195q-3 97 0 160h-3q-25 -61 -75 -160l-99 -195h-186l299 500h194z" />
    <glyph glyph-name="uni043F.bul" horiz-adv-x="614" 
d="M498 0h-159l62 250q20 81 14 103q-9 37 -58 37q-38 0 -68 -24q-41 -33 -62 -115l-63 -251h-159l60 241q36 144 61 259h150l-13 -60h1q70 76 164 76q90 0 131 -58.5t15 -161.5z" />
    <glyph glyph-name="uni043F.MKD" horiz-adv-x="610" 
d="M488 0h-149l13 60h-1q-71 -76 -161 -76q-88 0 -129.5 57.5t-14.5 162.5l74 296h160l-63 -251q-19 -79 -15 -102q9 -37 54 -37q38 0 69 25q42 34 63 118l62 247h160l-61 -241q-44 -173 -61 -259zM583 687l-32 -128h-346l32 128h346z" />
    <glyph glyph-name="uni0442.bul" horiz-adv-x="940" 
d="M824 0h-159l63 252q19 79 14 101q-9 37 -56 37q-36 0 -67 -24q-42 -34 -62 -115l-63 -251h-159l63 252q19 79 14 101q-9 37 -57 37q-35 0 -66 -24q-42 -34 -62 -115l-63 -251h-159l60 241q17 69 29.5 122t20.5 88.5t11 48.5h149l-12 -60h1q70 76 164 76q106 0 134 -80
q83 80 192 80q88 0 129 -57.5t15 -161.5z" />
    <glyph glyph-name="uni0442.MKD" horiz-adv-x="940" 
d="M811 687l-32 -128h-486l32 128h486zM669 0l12 60h-1q-70 -76 -164 -76q-106 0 -134 80q-83 -80 -192 -80q-88 0 -129 57.5t-15 161.5l74 297h159l-63 -252q-19 -77 -13 -101q9 -37 55 -37q36 0 67 24q42 34 62 115l63 251h160l-63 -252q-19 -79 -14 -101q9 -37 56 -37
q35 0 66 24q42 34 62 115l63 251h160l-60 -241q-2 -6 -62 -259h-149z" />
    <glyph glyph-name="uni0446.bul" horiz-adv-x="640" 
d="M531 -141h-140l36 141q-66 0 -75 60h-1q-71 -76 -161 -76q-88 0 -129.5 57.5t-14.5 162.5l74 296h160l-63 -251q-19 -79 -15 -102q9 -37 54 -37q38 0 69 25q42 34 63 118l62 247h160l-80 -320q-8 -31 0.5 -43.5t36.5 -12.5h31z" />
    <glyph glyph-name="uni045F.2" horiz-adv-x="610" 
d="M244 -180h-140l33 128h140zM488 0h-149l13 60h-1q-71 -76 -161 -76q-88 0 -129.5 57.5t-14.5 162.5l74 296h160l-63 -251q-19 -79 -15 -102q9 -37 54 -37q38 0 69 25q42 34 63 118l62 247h160l-61 -241q-44 -173 -61 -259z" />
    <glyph glyph-name="uni0448.bul" horiz-adv-x="940" 
d="M669 0l12 60h-1q-70 -76 -164 -76q-106 0 -134 80q-83 -80 -192 -80q-88 0 -129 57.5t-15 161.5l74 297h159l-63 -252q-19 -77 -13 -101q9 -37 55 -37q36 0 67 24q42 34 62 115l63 251h160l-63 -252q-19 -79 -14 -101q9 -37 56 -37q35 0 66 24q42 34 62 115l63 251h160
l-60 -241q-2 -6 -62 -259h-149z" />
    <glyph glyph-name="uni0449.bul" horiz-adv-x="970" 
d="M861 -141h-140l36 141q-34 0 -54 15.5t-21 44.5h-1q-70 -76 -165 -76q-106 0 -134 80q-83 -80 -192 -80q-88 0 -129 57.5t-15 161.5l74 297h160l-63 -250q-20 -82 -15 -103q9 -37 56 -37q36 0 67 24q42 34 62 115l63 251h160l-63 -250q-20 -82 -15 -103q9 -37 57 -37
q35 0 66 24q42 34 62 115l63 251h160l-80 -318q-8 -31 0.5 -44.5t36.5 -13.5h31z" />
    <glyph glyph-name="uni044A.bul" horiz-adv-x="642" 
d="M361 500l-35 -139q35 6 70 6q128 0 177.5 -55.5t26.5 -149.5q-45 -178 -276 -178q-119 0 -171.5 58t-28.5 153l46 181h-122l31 124h282zM296 241l-16 -65q-17 -72 58 -72q78 0 95 70q9 34 -9.5 53.5t-60.5 19.5q-34 0 -67 -6z" />
    <glyph glyph-name="uni044B.bul" horiz-adv-x="811" 
d="M43 195l77 305h160l-35 -139q35 6 68 6q127 0 174.5 -55.5t24.5 -149.5q-45 -178 -271 -178q-118 0 -170 58t-28 153zM215 241l-16 -65q-17 -72 55 -72q74 0 91 70q19 73 -65 73q-32 0 -65 -6zM686 0h-160l125 500h160z" />
    <glyph glyph-name="uni044C.bul" horiz-adv-x="560" 
d="M43 195l77 305h160l-35 -139q35 6 70 6q128 0 177.5 -55.5t26.5 -149.5q-45 -178 -276 -178q-119 0 -171.5 58t-28.5 153zM215 241l-16 -65q-17 -72 58 -72q78 0 95 70q9 34 -9.5 53.5t-60.5 19.5q-34 0 -67 -6z" />
    </font>
</defs>
</svg>
