<?xml version="1.0" standalone="no"?>
<!DOCTYPE svg PUBLIC "-//W3C//DTD SVG 1.1//EN" "http://www.w3.org/Graphics/SVG/1.1/DTD/svg11.dtd" >
<svg xmlns="http://www.w3.org/2000/svg" xmlns:xlink="http://www.w3.org/1999/xlink" version="1.1">
<metadata>
Created by FontForge 20170731 at Wed Jun 12 15:42:06 2019
 By Aleksey,,,
Volvo Novum is created exclusively for Volvo Trademark Holding Aktiebolag. Copyright 2019 Volvo Trademark Holding Aktiebolag. All rights reserved.
</metadata>
<defs>
<font id="VolvoNovum-Bold" horiz-adv-x="650" >
  <font-face 
    font-family="Volvo Novum"
    font-weight="700"
    font-stretch="normal"
    units-per-em="1000"
    panose-1="2 11 8 3 4 5 2 6 2 4"
    ascent="780"
    descent="-220"
    x-height="500"
    cap-height="682"
    bbox="-145 -195 1607 980"
    underline-thickness="134"
    underline-position="-394"
    unicode-range="U+000D-FB02"
  />
<missing-glyph horiz-adv-x="1095" 
d="M1019 -194h-943q-12 0 -12 11v36v91.5t0.5 122t0.5 142v138.5v141.5t-0.5 149.5t-0.5 130.5v98.5v39q0 11 12 11h943q12 0 12 -11v-39t-0.5 -98.5t-0.5 -130.5v-149.5v-141.5v-138.5v-142t0.5 -122t0.5 -91.5v-36q0 -11 -12 -11zM225 775v-827h645v827h-645zM644 0h-180
v164h180v-164zM476 216l-2 54q-2 41 13.5 72t39 49.5t47 34.5t40.5 36t17 46q0 30 -24.5 49.5t-64.5 19.5q-41 0 -64.5 -25t-23.5 -62q0 -33 5 -51h-173q-6 22 -6 49q0 104 71.5 166t197.5 62q122 0 194 -56.5t72 -147.5q0 -50 -18 -86t-44.5 -56t-53 -35.5t-45.5 -34
t-20 -41.5l-2 -43h-156z" />
    <glyph glyph-name=".notdef" horiz-adv-x="1095" 
d="M1019 -194h-943q-12 0 -12 11v36v91.5t0.5 122t0.5 142v138.5v141.5t-0.5 149.5t-0.5 130.5v98.5v39q0 11 12 11h943q12 0 12 -11v-39t-0.5 -98.5t-0.5 -130.5v-149.5v-141.5v-138.5v-142t0.5 -122t0.5 -91.5v-36q0 -11 -12 -11zM225 775v-827h645v827h-645zM644 0h-180
v164h180v-164zM476 216l-2 54q-2 41 13.5 72t39 49.5t47 34.5t40.5 36t17 46q0 30 -24.5 49.5t-64.5 19.5q-41 0 -64.5 -25t-23.5 -62q0 -33 5 -51h-173q-6 22 -6 49q0 104 71.5 166t197.5 62q122 0 194 -56.5t72 -147.5q0 -50 -18 -86t-44.5 -56t-53 -35.5t-45.5 -34
t-20 -41.5l-2 -43h-156z" />
    <glyph glyph-name=".null" horiz-adv-x="0" 
 />
    <glyph glyph-name=".null" horiz-adv-x="0" 
 />
    <glyph glyph-name="nonmarkingreturn" horiz-adv-x="333" 
 />
    <glyph glyph-name="CR" unicode="&#xd;" horiz-adv-x="262" 
 />
    <glyph glyph-name="space" unicode=" " horiz-adv-x="254" 
 />
    <glyph glyph-name="space" unicode="&#xa0;" horiz-adv-x="254" 
 />
    <glyph glyph-name="exclam" unicode="!" horiz-adv-x="372" 
d="M276 0h-180v164h180v-164zM263 216h-154l-18 486h190z" />
    <glyph glyph-name="quotedbl" unicode="&#x22;" horiz-adv-x="514" 
d="M215 449h-140l-10 281h160zM439 449h-140l-10 281h160z" />
    <glyph glyph-name="numbersign" unicode="#" horiz-adv-x="700" 
d="M219 0h-140l29 152h-84v130h110l23 118h-84v130h109l30 152h140l-29 -152h128l30 152h140l-29 -152h84v-130h-110l-23 -118h84v-130h-110l-29 -152h-140l29 152h-129zM274 282h129l23 118h-129z" />
    <glyph glyph-name="dollar" unicode="$" horiz-adv-x="685" 
d="M414 -107h-150v114q-120 17 -215 82l62 136q124 -84 240 -84q50 0 76.5 17.5t26.5 45.5q0 27 -29 42t-73 18.5t-94.5 13.5t-94.5 26.5t-73 59.5t-29 109q0 79 54 132t149 69v119h150v-119q95 -13 169 -57l-59 -139q-104 64 -197 64q-43 0 -64.5 -14.5t-21.5 -37.5t22 -36
t56.5 -18.5t77 -10.5t84.5 -16t76.5 -31t56.5 -60.5t22 -98.5q0 -83 -61 -140t-161 -72v-114z" />
    <glyph glyph-name="percent" unicode="%" horiz-adv-x="1138" 
d="M344 558q0 106 -72 106t-72 -106t72 -106t72 106zM499 560q0 -109 -61 -171.5t-170 -62.5q-108 0 -165.5 60.5t-57.5 169.5t61 171.5t170 62.5q108 0 165.5 -60.5t57.5 -169.5zM753 778h174l-542 -874h-174zM938 124q0 106 -72 106t-72 -106t72 -106t72 106zM1093 126
q0 -109 -61 -171.5t-170 -62.5q-108 0 -165.5 60.5t-57.5 169.5t61 171.5t170 62.5q108 0 165.5 -60.5t57.5 -169.5z" />
    <glyph glyph-name="ampersand" unicode="&#x26;" horiz-adv-x="809" 
d="M800 97l-95 -123q-104 71 -130 89q-106 -81 -247 -81q-136 0 -215 54.5t-79 158.5q0 121 129 188q-73 77 -73 146q0 85 66.5 136t184.5 51q114 0 179 -46t65 -128q0 -64 -42 -104.5t-118 -74.5q45 -34 128 -93q20 55 20 110h160q0 -108 -53 -200zM339 112q64 0 117 35
q-115 82 -189 143q-58 -38 -58 -88q0 -41 32 -65.5t98 -24.5zM260 534q0 -34 60 -87q47 19 71 38t24 47q0 26 -22.5 40t-57.5 14q-36 0 -55.5 -14t-19.5 -38z" />
    <glyph glyph-name="quotesingle" unicode="'" horiz-adv-x="296" 
d="M221 449h-146l-10 281h166z" />
    <glyph glyph-name="parenleft" unicode="(" horiz-adv-x="364" 
d="M364 -180h-174q-139 227 -139 501q0 273 139 503h175q-146 -233 -146 -501q0 -265 145 -503z" />
    <glyph glyph-name="parenright" unicode=")" horiz-adv-x="364" 
d="M0 824h174q139 -227 139 -501q0 -273 -139 -503h-175q146 233 146 501q0 265 -145 503z" />
    <glyph glyph-name="asterisk" unicode="*" horiz-adv-x="514" 
d="M325 740l-18 -147l134 63l43 -130l-146 -29l101 -108l-110 -80l-72 129l-72 -129l-110 80l100 108l-145 29l43 130l133 -63l-17 147h136z" />
    <glyph glyph-name="plus" unicode="+" 
d="M403 42h-156v213h-202v134h202v211h156v-211h202v-134h-202v-213z" />
    <glyph glyph-name="comma" unicode="," horiz-adv-x="320" 
d="M66 184h188v-154q0 -96 -38 -144.5t-134 -80.5l-33 88q45 25 63 47t18 60h-64v184z" />
    <glyph glyph-name="hyphen" unicode="-" horiz-adv-x="376" 
d="M336 206h-296v156h296v-156z" />
    <glyph glyph-name="hyphen" unicode="&#x2010;" horiz-adv-x="376" 
d="M336 206h-296v156h296v-156z" />
    <glyph glyph-name="hyphen" unicode="&#xad;" horiz-adv-x="376" 
d="M336 206h-296v156h296v-156z" />
    <glyph glyph-name="period" unicode="." horiz-adv-x="320" 
d="M254 0h-188v184h188v-184z" />
    <glyph glyph-name="slash" unicode="/" horiz-adv-x="465" 
d="M121 -142h-172l376 920h172z" />
    <glyph glyph-name="zero" unicode="0" horiz-adv-x="712" 
d="M483 340q0 106 -30.5 158t-96.5 52q-127 0 -127 -208q0 -106 30.5 -158t96.5 -52q127 0 127 208zM667 344q0 -172 -84.5 -267t-231.5 -95q-146 0 -226 92.5t-80 263.5q0 172 84.5 267t231.5 95q146 0 226 -92.5t80 -263.5z" />
    <glyph glyph-name="one" unicode="1" horiz-adv-x="462" 
d="M202 0v486q-61 -35 -165 -35v141q64 0 105 13.5t57 30.5t30 46h156v-682h-183z" />
    <glyph glyph-name="two" unicode="2" horiz-adv-x="626" 
d="M591 154v-154h-561v150q215 139 288 207.5t73 121.5q0 38 -22.5 60t-65.5 22q-41 0 -64.5 -25t-23.5 -62t9 -68h-170q-13 24 -13 67q0 108 74.5 167.5t193.5 59.5q124 0 195 -58t71 -155q0 -84 -60.5 -157t-238.5 -177v-5q84 6 164 6h151z" />
    <glyph glyph-name="three" unicode="3" horiz-adv-x="646" 
d="M26 203l176 30q7 -59 35.5 -88t84.5 -29q44 0 68.5 21t24.5 61q0 85 -125 82h-54v132h55q64 -1 93 28q20 20 20 54t-24.5 53t-64.5 19q-99 0 -111 -109l-170 23q18 108 92.5 164t189.5 56q128 0 198.5 -50.5t70.5 -136.5q0 -60 -32 -101t-82 -57v-3q62 -12 97 -50
t35 -101q0 -107 -75.5 -163t-211.5 -56q-138 0 -207.5 55t-82.5 166z" />
    <glyph glyph-name="four" unicode="4" horiz-adv-x="662" 
d="M192 289q83 3 166 3v143q0 43 2 119h-7zM532 0h-174v153h-328v133l243 396h259v-390h100v-139h-100v-153z" />
    <glyph glyph-name="five" unicode="5" horiz-adv-x="634" 
d="M554 682v-141h-322l-17 -127h3q54 50 145 50q105 0 170 -59t65 -171q0 -118 -78.5 -185t-213.5 -67q-111 0 -180.5 47.5t-91.5 136.5l164 43q27 -92 111 -92q49 0 77 29.5t28 79.5q0 46 -30 76t-75 30q-63 0 -97 -57h-156l40 407h458z" />
    <glyph glyph-name="six" unicode="6" horiz-adv-x="658" 
d="M610 543l-158 -51q-17 42 -40.5 58t-63.5 16q-56 0 -85.5 -46.5t-37.5 -156.5q51 72 165 72q113 0 170.5 -55.5t57.5 -157.5q0 -107 -77.5 -173.5t-204.5 -66.5q-143 0 -217.5 85.5t-74.5 250.5q0 182 77.5 282t229.5 100q104 0 163.5 -34t95.5 -123zM345 306
q-46 0 -71.5 -25.5t-25.5 -68.5q0 -45 25 -70.5t64 -25.5q97 0 97 102q0 41 -24.5 64.5t-64.5 23.5z" />
    <glyph glyph-name="seven" unicode="7" horiz-adv-x="630" 
d="M349 0h-193q19 272 239 538l-355 -1v145h550v-141q-125 -149 -183 -278t-58 -263z" />
    <glyph glyph-name="eight" unicode="8" horiz-adv-x="670" 
d="M628 198q0 -107 -79.5 -161.5t-217.5 -54.5q-137 0 -213 51t-76 154q0 56 32 99.5t87 63.5v3q-47 16 -75.5 54.5t-28.5 89.5q0 95 77 149t203 54q127 0 201 -51t74 -148q0 -46 -28 -86t-75 -59v-3q119 -38 119 -155zM444 198q0 37 -28.5 59.5t-81.5 22.5t-80.5 -22.5
t-27.5 -59.5t28 -59.5t81 -22.5t81 22.5t28 59.5zM432 489q0 34 -26.5 55.5t-71.5 21.5t-71 -21.5t-26 -55.5t26 -55.5t71 -21.5t71.5 21.5t26.5 55.5z" />
    <glyph glyph-name="nine" unicode="9" horiz-adv-x="658" 
d="M40 142l158 51q18 -42 44 -59.5t68 -17.5q56 0 85.5 46.5t37.5 156.5q-47 -72 -165 -72q-113 0 -170.5 55.5t-57.5 157.5q0 107 77.5 173.5t204.5 66.5q143 0 217.5 -85.5t74.5 -250.5q0 -182 -77.5 -282t-229.5 -100q-101 0 -166 36.5t-101 123.5zM313 376
q46 0 71.5 25.5t25.5 68.5q0 45 -25 70.5t-64 25.5q-97 0 -97 -102q0 -41 24.5 -64.5t64.5 -23.5z" />
    <glyph glyph-name="colon" unicode=":" horiz-adv-x="346" 
d="M264 0h-182v182h182v-182zM264 318h-182v182h182v-182z" />
    <glyph glyph-name="semicolon" unicode=";" horiz-adv-x="346" 
d="M82 182h182v-152q0 -96 -38.5 -145.5t-133.5 -78.5l-33 88q43 21 62.5 45t18.5 61h-58v182zM264 318h-182v182h182v-182z" />
    <glyph glyph-name="less" unicode="&#x3c;" 
d="M595 209v-162l-540 200v150l540 201v-161q-288 -101 -357 -113v-2q69 -12 357 -113z" />
    <glyph glyph-name="equal" unicode="=" 
d="M595 284v-134h-540v134h540zM595 494v-134h-540v134h540z" />
    <glyph glyph-name="greater" unicode="&#x3e;" 
d="M55 435v163l540 -201v-150l-540 -200v161q283 99 357 112v2q-69 12 -357 113z" />
    <glyph glyph-name="question" unicode="?" horiz-adv-x="647" 
d="M422 0h-180v164h180v-164zM254 216l-2 54q-2 41 13.5 72t39 49.5t47 34.5t40.5 36t17 46q0 30 -24.5 49.5t-64.5 19.5q-41 0 -64.5 -25t-23.5 -62q0 -33 5 -51h-173q-6 22 -6 49q0 104 71.5 166t197.5 62q122 0 194 -56.5t72 -147.5q0 -50 -18 -86t-44.5 -56t-53 -35.5
t-45.5 -34t-20 -41.5l-2 -43h-156z" />
    <glyph glyph-name="at" unicode="@" horiz-adv-x="1045" 
d="M1008 340q0 -133 -73.5 -217t-195.5 -84q-118 0 -147 66h-1q-24 -31 -61.5 -48.5t-78.5 -17.5q-188 0 -188 190q0 44 12 87.5t37 83.5t70.5 65t105.5 25q81 0 115 -53h2l10 46h153l-44 -238q-9 -49 -3.5 -67.5t32.5 -18.5q53 0 84 47t31 122q0 128 -81 200t-232 72
q-174 0 -276 -102t-102 -251q0 -143 89.5 -231t243.5 -88q120 0 236 29l15 -114q-110 -31 -258 -31q-220 0 -343 122t-123 310q0 204 147 338t374 134q192 0 321 -103.5t129 -272.5zM576 298q0 72 -64 72q-43 0 -66.5 -37.5t-23.5 -90.5q0 -83 63 -83q48 0 69.5 45t21.5 94z
" />
    <glyph glyph-name="A" unicode="A" horiz-adv-x="713" 
d="M247 682h219l238 -682h-202l-36 124h-232l-35 -124h-190zM314 401l-42 -147h156l-43 147q-22 79 -35 137h-1q-15 -67 -35 -137z" />
    <glyph glyph-name="B" unicode="B" horiz-adv-x="729" 
d="M246 283v-147q92 -2 134 -2q56 0 89 14.5t33 58.5q0 26 -11 42.5t-31.5 23t-36 8.5t-36.5 2h-141zM246 546v-132h112q82 0 105 23q18 18 18 46q0 26 -16 42q-14 14 -38.5 18.5t-82.5 4.5q-32 0 -98 -2zM72 0v682q140 2 297 2q185 0 249 -64q43 -43 43 -108
q0 -112 -111 -147q62 -14 99 -55.5t37 -102.5q0 -51 -18.5 -89t-48.5 -60.5t-75 -36.5t-89.5 -18.5t-100.5 -4.5q-199 0 -282 2z" />
    <glyph glyph-name="C" unicode="C" horiz-adv-x="715" 
d="M525 259l165 -38q-31 -116 -114.5 -177.5t-202.5 -61.5q-149 0 -242.5 96.5t-93.5 261.5q0 88 29 158.5t77.5 113.5t107.5 65.5t123 22.5q239 0 309 -227l-168 -39q-33 110 -143 110q-65 0 -108 -53.5t-43 -148.5q0 -92 43 -147t112 -55q56 0 95 30.5t54 88.5z" />
    <glyph glyph-name="D" unicode="D" horiz-adv-x="755" 
d="M245 540v-396q56 -2 90 -2q54 0 86.5 7.5t59.5 34.5q53 53 53 157q0 100 -55 155q-28 28 -62 36.5t-92 8.5q-56 0 -80 -1zM72 0v682q46 0 133.5 0.5t123.5 0.5q99 0 171 -20t126 -74q92 -92 92 -245q0 -158 -93 -251q-94 -94 -287 -94q-36 0 -126.5 0.5t-139.5 0.5z" />
    <glyph glyph-name="E" unicode="E" horiz-adv-x="655" 
d="M72 0v682h524v-135h-350v-135h303v-130h-303v-146h367v-136h-541z" />
    <glyph glyph-name="F" unicode="F" horiz-adv-x="607" 
d="M72 0v682h501v-137h-327v-158h283v-132h-283v-255h-174z" />
    <glyph glyph-name="G" unicode="G" horiz-adv-x="777" 
d="M713 0h-144v58h-1q-68 -76 -196 -76q-146 0 -240.5 96.5t-94.5 260.5q0 162 101 261.5t261 99.5q204 0 305 -123l-133 -117q-57 86 -174 86q-82 0 -129 -55.5t-47 -147.5q0 -95 47 -151t129 -56q71 0 108 33t37 80v5h-132v131h303v-385z" />
    <glyph glyph-name="H" unicode="H" horiz-adv-x="770" 
d="M72 0v682h174v-254h278v254h174v-682h-174v281h-278v-281h-174z" />
    <glyph glyph-name="I" unicode="I" horiz-adv-x="318" 
d="M72 0v682h174v-682h-174z" />
    <glyph glyph-name="J" unicode="J" horiz-adv-x="577" 
d="M338 682h174v-447q0 -118 -64 -185.5t-189 -67.5q-109 0 -179 60.5t-80 194.5l170 28q5 -69 26 -100t64 -31q78 0 78 97v451z" />
    <glyph glyph-name="K" unicode="K" horiz-adv-x="718" 
d="M495 682h220l-231 -235l242 -447h-203l-167 318l-110 -112v-206h-174v682h174v-266z" />
    <glyph glyph-name="L" unicode="L" horiz-adv-x="571" 
d="M72 0v682h174v-532h305v-150h-479z" />
    <glyph glyph-name="M" unicode="M" horiz-adv-x="972" 
d="M72 0v682h290l90 -281q32 -100 38 -153h3q7 63 36 153l90 281h281v-682h-174v240q0 201 7 306h-6q-17 -82 -47 -173l-120 -373h-158l-120 373q-30 91 -47 173h-6q7 -105 7 -306v-240h-164z" />
    <glyph glyph-name="N" unicode="N" horiz-adv-x="778" 
d="M706 0h-216l-194 341q-39 70 -67 139h-4q11 -125 11 -278v-202h-164v682h230l180 -316q39 -70 67 -139h4q-11 125 -11 278v177h164v-682z" />
    <glyph glyph-name="O" unicode="O" horiz-adv-x="794" 
d="M573 341q0 92 -47 147.5t-129 55.5t-129 -55.5t-47 -147.5t47 -147.5t129 -55.5t129 55.5t47 147.5zM757 343q0 -162 -101 -261.5t-261 -99.5q-161 0 -259.5 97t-98.5 260q0 162 101 261.5t261 99.5q161 0 259.5 -97t98.5 -260z" />
    <glyph glyph-name="P" unicode="P" horiz-adv-x="689" 
d="M488 446q0 47 -29.5 71t-104.5 24q-74 0 -108 -1v-187q35 -1 111 -1q72 0 101.5 24t29.5 70zM72 0v682q50 0 144 1t143 1q52 0 94.5 -5.5t84.5 -21.5t70.5 -42t46 -68.5t17.5 -98.5q0 -123 -86 -180.5t-234 -57.5q-77 0 -106 1v-211h-174z" />
    <glyph glyph-name="Q" unicode="Q" horiz-adv-x="794" 
d="M757 343q0 -135 -74 -231l59 -58l-100 -100l-69 68q-82 -40 -178 -40q-161 0 -259.5 97t-98.5 260q0 162 101 261.5t261 99.5q161 0 259.5 -97t98.5 -260zM396 200l100 100l59 -59q18 42 18 100q0 92 -47 147.5t-129 55.5t-129 -55.5t-47 -147.5t47 -147.5t129 -55.5
q30 0 54 7z" />
    <glyph glyph-name="R" unicode="R" horiz-adv-x="713" 
d="M701 0h-213l-137 229h-105v-229h-174v682q53 0 157.5 1t141.5 1q44 0 83 -5.5t79.5 -20.5t69 -38.5t46.5 -63.5t18 -92q0 -148 -134 -205zM246 540v-169q37 -1 119 -1q118 0 118 90q0 81 -121 81q-22 0 -60.5 -0.5t-55.5 -0.5z" />
    <glyph glyph-name="S" unicode="S" horiz-adv-x="688" 
d="M39 68l63 136q126 -80 250 -80q60 0 86.5 17.5t26.5 44.5q0 25 -23 40.5t-59 23.5t-80.5 15t-88.5 20.5t-80 35.5t-59 64t-23 102q0 94 76 153.5t210 59.5q125 0 256 -63l-60 -139q-101 61 -200 61q-55 0 -78.5 -16t-23.5 -39q0 -24 23 -38.5t59.5 -21.5t81 -13.5
t88.5 -20.5t80.5 -36t59.5 -66t23 -105q0 -96 -80 -158.5t-219 -62.5q-74 0 -158 23t-151 63z" />
    <glyph glyph-name="T" unicode="T" horiz-adv-x="542" 
d="M182 0v539h-185v143h548v-143h-185v-539h-178z" />
    <glyph glyph-name="U" unicode="U" horiz-adv-x="746" 
d="M239 682v-395q0 -68 36 -108.5t104 -40.5q138 0 138 149v395h164v-405q0 -130 -78 -212.5t-227 -82.5q-152 0 -231.5 80t-79.5 211v409h174z" />
    <glyph glyph-name="V" unicode="V" horiz-adv-x="658" 
d="M434 0h-212l-227 682h192l99 -330q35 -119 46 -184h4q15 76 45 186l91 328h191z" />
    <glyph glyph-name="W" unicode="W" horiz-adv-x="1077" 
d="M426 0h-227l-183 682h194l71 -314q18 -79 39 -199h4q17 91 45 198l82 315h191l80 -315q36 -139 47 -198h4q14 87 40 204l70 309h178l-183 -682h-227l-66 252q-39 149 -45 192h-4q-7 -51 -44 -192z" />
    <glyph glyph-name="X" unicode="X" horiz-adv-x="647" 
d="M-8 0l227 351l-209 331h209l110 -193l115 193h193l-209 -325l226 -357h-210l-126 219l-132 -219h-194z" />
    <glyph glyph-name="Y" unicode="Y" horiz-adv-x="658" 
d="M416 0h-174v271l-242 411h209l125 -238l121 238h203l-242 -411v-271z" />
    <glyph glyph-name="Z" unicode="Z" horiz-adv-x="628" 
d="M596 145v-145h-564v144l325 397q-134 -2 -202 -2h-108v143h534v-143l-326 -396q128 2 179 2h162z" />
    <glyph glyph-name="bracketleft" unicode="[" horiz-adv-x="414" 
d="M383 -48v-132h-311v1004h311v-132h-156v-740h156z" />
    <glyph glyph-name="backslash" unicode="\" horiz-adv-x="465" 
d="M517 -142h-173l-376 920h173z" />
    <glyph glyph-name="bracketright" unicode="]" horiz-adv-x="414" 
d="M342 -180h-311v132h156v740h-156v132h311v-1004z" />
    <glyph glyph-name="asciicircum" unicode="^" 
d="M620 344h-200q-76 148 -96 210h-2q-20 -62 -96 -210h-196l203 338h184z" />
    <glyph glyph-name="underscore" unicode="_" 
d="M650 -59v-134h-650v134h650z" />
    <glyph glyph-name="grave" unicode="`" horiz-adv-x="382" 
d="M251 702l83 -150h-145l-141 150h203z" />
    <glyph glyph-name="a" unicode="a" horiz-adv-x="555" 
d="M340 201v10q-89 0 -120 -15t-31 -44q0 -47 55 -47q38 0 67 26.5t29 69.5zM101 341l-67 96q103 79 239 79q111 0 169 -47.5t58 -141.5v-90q0 -96 3 -237h-149l-2 51h-1q-57 -67 -152 -67q-87 0 -132 44t-45 113q0 176 318 176v10q0 70 -87 70q-85 0 -152 -56z" />
    <glyph glyph-name="b" unicode="b" horiz-adv-x="621" 
d="M65 252v450h160v-159q0 -49 -8 -97h2q24 34 65 52t87 18q102 0 160 -73.5t58 -191.5q0 -119 -64.5 -193t-170.5 -74q-99 0 -144 70h-1l-3 -54h-148q7 142 7 252zM222 256v-14q0 -59 26.5 -94.5t72.5 -35.5q47 0 72.5 37t25.5 101q0 62 -26.5 100t-74.5 38q-44 0 -70 -35
t-26 -97z" />
    <glyph glyph-name="c" unicode="c" horiz-adv-x="547" 
d="M391 192l149 -46q-77 -162 -246 -162q-120 0 -191 70t-71 195t74.5 196t191.5 71q188 0 235 -153l-146 -54q-8 34 -31 55t-58 21q-44 0 -70 -35t-26 -99q0 -61 25.5 -98t71.5 -37q65 0 92 76z" />
    <glyph glyph-name="d" unicode="d" horiz-adv-x="621" 
d="M399 244v14q0 59 -26.5 94.5t-72.5 35.5q-47 0 -72.5 -37t-25.5 -101q0 -62 26.5 -100t74.5 -38q44 0 70 35t26 97zM559 0h-149l-2 60h-1q-52 -76 -157 -76q-102 0 -160 73.5t-58 191.5q0 119 64.5 193t170.5 74q88 0 132 -55h1q-4 40 -4 82v159h160v-452q0 -124 3 -250z
" />
    <glyph glyph-name="e" unicode="e" horiz-adv-x="591" 
d="M487 157l55 -104q-104 -69 -229 -69q-133 0 -207 68t-74 197q0 125 75.5 196t195.5 71t188 -67.5t68 -193.5q0 -33 -5 -56h-350q16 -93 123 -93q90 0 160 51zM205 305h185q-2 45 -26 69t-63 24q-81 0 -96 -93z" />
    <glyph glyph-name="f" unicode="f" horiz-adv-x="337" 
d="M75 0v374h-62v126h62v61q-2 73 43 114t128 41q62 0 97 -12v-125q-39 7 -69 7q-39 0 -39 -41v-45h91v-126h-91v-374h-160z" />
    <glyph glyph-name="g" unicode="g" horiz-adv-x="621" 
d="M417 500h147q-8 -88 -8 -252v-232q0 -210 -257 -210q-127 0 -227 39l38 126q95 -42 191 -42q95 0 95 71q0 25 3 57h-2q-48 -61 -147 -61q-103 0 -160.5 69.5t-57.5 188.5q0 115 65 188.5t170 73.5q99 0 144 -70h1zM399 254v4q0 59 -26.5 94.5t-72.5 35.5
q-47 0 -72.5 -36.5t-25.5 -96.5q0 -58 26.5 -95.5t74.5 -37.5q43 0 69.5 36.5t26.5 95.5z" />
    <glyph glyph-name="h" unicode="h" horiz-adv-x="614" 
d="M65 0v702h160v-159q0 -49 -8 -97h2q24 34 65 52t87 18q89 0 138.5 -51.5t49.5 -156.5v-308h-160v250q0 79 -11 101q-18 37 -68 37q-39 0 -62 -23q-33 -33 -33 -114v-251h-160z" />
    <glyph glyph-name="i" unicode="i" horiz-adv-x="290" 
d="M225 0h-160v500h160v-500zM64 552v150h162v-150h-162z" />
    <glyph glyph-name="j" unicode="j" horiz-adv-x="294" 
d="M69 500h160v-485q0 -205 -179 -205q-40 0 -58 9v124h33q29 0 36.5 16.5t7.5 79.5v461zM230 552h-162v150h162v-150z" />
    <glyph glyph-name="k" unicode="k" horiz-adv-x="574" 
d="M591 0h-192l-123 207l-51 -52v-155h-160v702h160v-365l144 163h197l-173 -175z" />
    <glyph glyph-name="l" unicode="l" horiz-adv-x="290" 
d="M65 0v702h160v-702h-160z" />
    <glyph glyph-name="m" unicode="m" horiz-adv-x="940" 
d="M885 0h-160v250q0 79 -11 101q-18 37 -66 37q-38 0 -61 -23q-32 -32 -32 -114v-251h-160v250q0 79 -11 101q-18 37 -66 37q-38 0 -61 -23q-32 -32 -32 -114v-251h-160v240q0 122 -3 260h148l3 -60h1q52 76 155 76q111 0 158 -80q63 80 172 80q88 0 137 -51.5t49 -156.5
v-308z" />
    <glyph glyph-name="n" unicode="n" horiz-adv-x="614" 
d="M559 0h-160v250q0 79 -11 101q-18 37 -68 37q-39 0 -62 -23q-33 -33 -33 -114v-251h-160v240q0 122 -3 260h148l3 -60h1q52 76 157 76q89 0 138.5 -51.5t49.5 -156.5v-308z" />
    <glyph glyph-name="o" unicode="o" horiz-adv-x="604" 
d="M402 250q0 63 -26.5 98t-73.5 35t-73.5 -35t-26.5 -98t26.5 -98t73.5 -35t73.5 35t26.5 98zM572 251q0 -125 -76 -196t-196 -71q-123 0 -195.5 68.5t-72.5 196.5q0 125 76 196t196 71q123 0 195.5 -68.5t72.5 -196.5z" />
    <glyph glyph-name="p" unicode="p" horiz-adv-x="621" 
d="M222 256v-14q0 -59 26.5 -94.5t72.5 -35.5q47 0 72.5 37t25.5 101q0 62 -26.5 100t-74.5 38q-44 0 -70 -35t-26 -97zM225 -180h-160v430q0 133 -3 250h148l3 -60h1q52 76 157 76q102 0 160 -73.5t58 -191.5q0 -119 -64.5 -193t-170.5 -74q-88 0 -132 55h-1q4 -40 4 -82
v-137z" />
    <glyph glyph-name="q" unicode="q" horiz-adv-x="621" 
d="M556 -180h-160v137q0 49 8 97h-2q-24 -34 -65 -52t-87 -18q-102 0 -160 73.5t-58 191.5q0 119 64.5 193t170.5 74q99 0 144 -70h1l5 54h146q-7 -137 -7 -236v-444zM399 244v14q0 59 -26.5 94.5t-72.5 35.5q-47 0 -72.5 -37t-25.5 -101q0 -62 26.5 -100t74.5 -38
q44 0 70 35t26 97z" />
    <glyph glyph-name="r" unicode="r" horiz-adv-x="408" 
d="M225 0h-160v240q0 122 -3 260h148l4 -82h1q29 52 65 75t85 23q21 0 35 -2v-159q-18 2 -38 2q-65 0 -97 -32q-26 -26 -33 -61.5t-7 -102.5v-161z" />
    <glyph glyph-name="s" unicode="s" horiz-adv-x="528" 
d="M28 47l55 116q93 -57 188 -57q66 0 66 33q0 18 -21.5 28.5t-54.5 14t-70.5 13t-70.5 23.5t-54.5 48t-21.5 84q0 77 59.5 121.5t165.5 44.5q109 0 199 -45l-51 -111q-69 39 -150 39q-60 0 -60 -30q0 -18 22 -28t54.5 -13t71 -12.5t71 -24t54.5 -48.5t22 -85
q0 -81 -62 -127.5t-171 -46.5q-123 0 -241 63z" />
    <glyph glyph-name="t" unicode="t" horiz-adv-x="376" 
d="M79 373h-61v127h61v139l160 29v-168h108v-127h-108v-162q0 -45 2 -60t10 -23q11 -11 35 -11q35 0 61 7v-123q-44 -17 -106 -17q-88 0 -125.5 40t-36.5 130v219z" />
    <glyph glyph-name="u" unicode="u" horiz-adv-x="610" 
d="M548 0h-148l-3 60h-1q-52 -76 -155 -76q-88 0 -137 51.5t-49 156.5v308h160v-250q0 -79 11 -101q18 -37 66 -37q38 0 61 23q32 32 32 114v251h160v-253q0 -118 3 -247z" />
    <glyph glyph-name="v" unicode="v" horiz-adv-x="538" 
d="M366 0h-194l-175 500h180l57 -195q27 -94 38 -157h3q10 52 37 157l51 195h178z" />
    <glyph glyph-name="w" unicode="w" horiz-adv-x="836" 
d="M679 0h-190l-42 165q-17 65 -28 142h-2q-11 -77 -28 -142l-42 -165h-190l-151 500h170l56 -202q18 -67 32 -149h3q14 96 28 150l51 201h156l51 -202q15 -59 30 -149h3q8 57 29 149l47 202h168z" />
    <glyph glyph-name="x" unicode="x" horiz-adv-x="546" 
d="M178 0h-186l179 266l-163 234h192l80 -123l75 123h182l-166 -240l183 -260h-196l-96 146z" />
    <glyph glyph-name="y" unicode="y" horiz-adv-x="538" 
d="M305 -180h-179l79 180h-34l-174 500h179l58 -195q27 -94 38 -157h3q10 52 37 157l51 195h178z" />
    <glyph glyph-name="z" unicode="z" horiz-adv-x="535" 
d="M491 130v-130h-447v130l222 244q-76 -2 -128 -2h-83v128h424v-128l-222 -244q84 2 129 2h105z" />
    <glyph glyph-name="braceleft" unicode="{" horiz-adv-x="474" 
d="M24 257v130h31q48 0 62.5 16.5t14.5 79.5v130q0 109 51.5 160t168.5 51h91v-132h-89q-37 0 -52 -17.5t-15 -61.5v-126q0 -77 -22 -113.5t-70 -48.5v-2q48 -12 70 -48.5t22 -113.5v-129q0 -44 15.5 -62t52.5 -18h88v-132h-93q-117 0 -167.5 50t-50.5 159v130
q0 63 -15.5 80.5t-63.5 17.5h-29z" />
    <glyph glyph-name="bar" unicode="|" horiz-adv-x="341" 
d="M250 -180h-159v1004h159v-1004z" />
    <glyph glyph-name="braceright" unicode="}" horiz-adv-x="474" 
d="M122 -180h-91v132h89q37 0 52 17.5t15 61.5v126q0 77 22 113.5t70 48.5v2q-48 12 -70 48.5t-22 113.5v129q0 44 -15.5 62t-52.5 18h-88v132h93q117 0 167.5 -50t50.5 -159v-130q0 -63 15.5 -80.5t63.5 -17.5h29v-130h-31q-48 0 -62.5 -16.5t-14.5 -79.5v-130
q0 -109 -51.5 -160t-168.5 -51z" />
    <glyph glyph-name="asciitilde" unicode="~" 
d="M194 214h-144q0 103 44.5 164.5t141.5 61.5q37 0 66.5 -9.5t46.5 -23.5t29.5 -28t23.5 -23.5t22 -9.5q32 0 32 84h144q0 -103 -44.5 -164.5t-141.5 -61.5q-37 0 -66.5 9.5t-46.5 23.5t-29.5 28t-23.5 23.5t-22 9.5q-32 0 -32 -84z" />
    <glyph glyph-name="exclamdown" unicode="&#xa1;" horiz-adv-x="372" 
d="M96 606h180v-164h-180v164zM109 390h154l18 -486h-190z" />
    <glyph glyph-name="cent" unicode="&#xa2;" horiz-adv-x="566" 
d="M234 693h140v-111q115 -27 156 -134l-135 -59q-26 69 -88 69q-43 0 -67 -31.5t-24 -82.5q0 -54 23.5 -84.5t68.5 -30.5q71 0 98 74l126 -54q-43 -113 -158 -143v-116h-140v114q-90 17 -139 78t-49 161q0 92 51 155.5t137 83.5v111z" />
    <glyph glyph-name="sterling" unicode="&#xa3;" 
d="M603 154v-154h-548v122q50 29 71.5 54t21.5 59q0 7 -2 25h-99v130h68q-16 57 -16 98q0 101 66.5 156.5t193.5 55.5q178 0 251 -166l-144 -73q-32 94 -109 94q-35 0 -54.5 -19.5t-19.5 -55.5q0 -33 16 -90h178v-130h-147q2 -18 2 -25q0 -50 -41 -80v-5q98 4 167 4h145z
" />
    <glyph glyph-name="currency" unicode="&#xa4;" horiz-adv-x="668" 
d="M553 323q0 -54 -22 -96l92 -88l-97 -98l-96 102q-42 -16 -99 -16q-56 0 -98 15l-94 -100l-97 97l90 87q-20 40 -20 95t22 95l-92 89l97 98l95 -102q46 16 100 16q55 0 98 -15l94 101l97 -98l-91 -87q21 -44 21 -95zM413 322q0 38 -21.5 62t-59.5 24q-37 0 -58.5 -24
t-21.5 -62q0 -39 21.5 -62.5t59.5 -23.5q37 0 58.5 23.5t21.5 62.5z" />
    <glyph glyph-name="yen" unicode="&#xa5;" 
d="M410 0h-170v79h-158v112h158v54h-158v112h158v6l-225 319h214l52 -89q26 -43 49 -78q28 41 47 76l51 91h207l-225 -319v-6h158v-112h-158v-54h158v-112h-158v-79z" />
    <glyph glyph-name="brokenbar" unicode="&#xa6;" horiz-adv-x="341" 
d="M250 405h-159v419h159v-419zM250 -180h-159v420h159v-420z" />
    <glyph glyph-name="section" unicode="&#xa7;" horiz-adv-x="651" 
d="M53 266q0 89 90 141q-48 45 -48 120q0 85 63 137t180 52q121 0 215 -58l-55 -126q-71 54 -163 54q-79 0 -79 -47q0 -24 25.5 -39t63.5 -22t82 -20t82 -30t63.5 -55t25.5 -92q0 -89 -87 -140q54 -44 54 -122q0 -81 -63.5 -134.5t-180.5 -53.5q-125 0 -232 70l58 124
q88 -64 177 -64q80 0 80 47q0 24 -26 39.5t-65 22.5t-84.5 19.5t-84.5 29.5t-65 55t-26 92zM437 269q0 16 -9.5 28t-30.5 20t-40 13t-51.5 12t-52.5 13q-39 -31 -39 -77q0 -16 9.5 -28t30.5 -20t39.5 -13t52.5 -12t53 -12q38 31 38 76z" />
    <glyph glyph-name="dieresis" unicode="&#xa8;" horiz-adv-x="494" 
d="M212 552h-150v150h150v-150zM432 552h-150v150h150v-150z" />
    <glyph glyph-name="copyright" unicode="&#xa9;" horiz-adv-x="980" 
d="M934 344q0 -186 -126 -311.5t-320 -125.5q-195 0 -318.5 122.5t-123.5 308.5t125.5 311t320.5 125t318.5 -122.5t123.5 -307.5zM793 340q0 134 -83 221.5t-219 87.5q-138 0 -221 -87t-83 -222q0 -133 83 -220.5t219 -87.5q138 0 221 86.5t83 221.5zM592 309l124 -53
q-26 -68 -84 -105.5t-136 -37.5q-108 0 -171 61t-63 166q0 106 66 168.5t175 62.5q77 0 131 -34.5t78 -100.5l-126 -53q-20 63 -86 63q-40 0 -61 -28t-21 -77q0 -47 21.5 -75t61.5 -28q32 0 56.5 18.5t34.5 52.5z" />
    <glyph glyph-name="ordfeminine" unicode="&#xaa;" horiz-adv-x="524" 
d="M459 625v-146q0 -61 4 -139h-130l-3 45q-51 -59 -134 -59q-76 0 -115 38.5t-39 98.5q0 153 277 153v9q0 61 -76 61q-66 0 -132 -48l-59 83q105 69 209 69q198 0 198 -165zM319 515v9q-77 0 -104 -13t-27 -38q0 -41 48 -41q33 0 58 23t25 60zM458 145h-396v116h396v-116z
" />
    <glyph glyph-name="guillemotleft" unicode="&#xab;" horiz-adv-x="684" 
d="M343 94l-134 -64l-154 254l156 253l133 -61l-97 -191zM611 110l-134 -64l-142 238l144 238l132 -62l-84 -175z" />
    <glyph glyph-name="logicalnot" unicode="&#xac;" 
d="M586 66h-156v189h-385v134h541v-323z" />
    <glyph glyph-name="registered" unicode="&#xae;" horiz-adv-x="736" 
d="M664 529q0 -124 -85 -210.5t-213 -86.5t-211 84.5t-83 208.5t85 210.5t213 86.5t211 -84.5t83 -208.5zM577 527q0 95 -58 157.5t-151 62.5t-151 -62.5t-58 -157.5t58 -157.5t151 -62.5t151 62.5t58 157.5zM522 385h-118l-42 95h-30v-95h-100v296q17 0 74 0.5t67 0.5
q145 0 145 -98q0 -56 -60 -86zM332 610v-60h41q41 0 41 32q0 28 -42 28h-40z" />
    <glyph glyph-name="macron" unicode="&#xaf;" horiz-adv-x="470" 
d="M408 687v-128h-346v128h346z" />
    <glyph glyph-name="macron" unicode="&#x2c9;" horiz-adv-x="470" 
d="M408 687v-128h-346v128h346z" />
    <glyph glyph-name="degree" unicode="&#xb0;" horiz-adv-x="455" 
d="M293 615q0 30 -17 47t-49 17t-48.5 -17t-16.5 -47q0 -64 66 -64q65 0 65 64zM428 616q0 -77 -54 -123t-148 -46q-95 0 -147 44.5t-52 122.5q0 77 54 123t148 46t146.5 -44.5t52.5 -122.5z" />
    <glyph glyph-name="plusminus" unicode="&#xb1;" 
d="M403 184h-156v183h-192v134h192v181h156v-181h192v-134h-192v-183zM595 134v-134h-540v134h540z" />
    <glyph glyph-name="twosuperior" unicode="&#xb2;" horiz-adv-x="543" 
d="M480 460v-122h-418v137q159 74 202 102.5t43 60.5q0 18 -12.5 28.5t-33.5 10.5q-46 0 -46 -41q0 -19 6 -37h-151q-6 15 -6 36q0 72 56.5 113.5t147.5 41.5q103 0 156 -39t53 -111q0 -56 -49 -99t-160 -78v-5q78 2 110 2h102z" />
    <glyph glyph-name="threesuperior" unicode="&#xb3;" horiz-adv-x="543" 
d="M48 468l148 20q4 -58 66 -58q47 0 47 39q0 44 -68 44h-47v94h41q43 0 58 15q11 11 11 28t-11.5 27t-32.5 10q-27 0 -43 -15.5t-19 -42.5l-144 20q10 66 65.5 103.5t145.5 37.5q97 0 152.5 -31.5t55.5 -94.5q0 -34 -23.5 -59.5t-60.5 -34.5v-3q95 -20 95 -105
q0 -62 -58 -99t-164 -37q-198 0 -214 142z" />
    <glyph glyph-name="acute" unicode="&#xb4;" horiz-adv-x="394" 
d="M54 552l83 150h203l-141 -150h-145z" />
    <glyph glyph-name="mu" unicode="&#xb5;" horiz-adv-x="620" 
d="M558 0h-148l-3 60h-1q-22 -33 -59.5 -53t-76.5 -20q-28 0 -54 10h-1q5 -45 10 -100l7 -77h-167v680h160v-250q0 -79 11 -101q18 -37 66 -37q38 0 61 23q32 32 32 114v251h160v-253q0 -118 3 -247z" />
    <glyph glyph-name="mu" unicode="&#x3bc;" horiz-adv-x="620" 
d="M558 0h-148l-3 60h-1q-22 -33 -59.5 -53t-76.5 -20q-28 0 -54 10h-1q5 -45 10 -100l7 -77h-167v680h160v-250q0 -79 11 -101q18 -37 66 -37q38 0 61 23q32 32 32 114v251h160v-253q0 -118 3 -247z" />
    <glyph glyph-name="paragraph" unicode="&#xb6;" horiz-adv-x="793" 
d="M721 -180h-154v717h-93v-717h-154v376h-18q-121 0 -191.5 64.5t-70.5 181.5q0 118 75 179.5t206 61.5q24 0 106 -0.5t116 -0.5h178v-862z" />
    <glyph glyph-name="periodcentered" unicode="&#xb7;" horiz-adv-x="320" 
d="M254 230h-188v184h188v-184z" />
    <glyph glyph-name="periodcentered" unicode="&#x22c5;" horiz-adv-x="320" 
d="M254 230h-188v184h188v-184z" />
    <glyph glyph-name="periodcentered" unicode="&#x2219;" horiz-adv-x="320" 
d="M254 230h-188v184h188v-184z" />
    <glyph glyph-name="cedilla" unicode="&#xb8;" horiz-adv-x="322" 
d="M212 -180h-152q43 43 43 65q0 9 -7 17.5t-11.5 11.5l-16.5 11l48 83h123l-23 -40q44 -34 44 -71q0 -41 -48 -77z" />
    <glyph glyph-name="onesuperior" unicode="&#xb9;" horiz-adv-x="390" 
d="M316 338h-162v279q-32 -28 -117 -28v122q50 0 86.5 18.5t46.5 48.5h146v-440z" />
    <glyph glyph-name="ordmasculine" unicode="&#xba;" horiz-adv-x="555" 
d="M365 558q0 55 -23.5 85.5t-64.5 30.5t-64 -30.5t-23 -85.5t23 -85.5t64 -30.5t64.5 30.5t23.5 85.5zM513 559q0 -109 -66 -171t-171 -62q-107 0 -170.5 59.5t-63.5 171.5q0 109 66 171t171 62q107 0 170.5 -59.5t63.5 -171.5zM493 145h-431v116h431v-116z" />
    <glyph glyph-name="guillemotright" unicode="&#xbb;" horiz-adv-x="684" 
d="M341 474l134 64l154 -254l-156 -253l-133 61l97 191zM73 458l134 64l142 -238l-144 -238l-132 62l84 175z" />
    <glyph glyph-name="onequarter" unicode="&#xbc;" horiz-adv-x="995" 
d="M316 338h-162v279q-32 -28 -117 -28v122q50 0 86.5 18.5t46.5 48.5h146v-440zM635 778h174l-542 -874h-174zM891 -96h-160v77h-245v126l174 237h231v-242h68v-121h-68v-77zM629 99q36 2 102 2v76q0 41 1 57h-4z" />
    <glyph glyph-name="onehalf" unicode="&#xbd;" horiz-adv-x="1024" 
d="M316 338h-162v279q-32 -28 -117 -28v122q50 0 86.5 18.5t46.5 48.5h146v-440zM635 778h174l-542 -874h-174zM961 26v-122h-418v137q159 74 202 102.5t43 60.5q0 18 -12.5 28.5t-33.5 10.5q-46 0 -46 -41q0 -19 6 -37h-151q-6 15 -6 36q0 72 56.5 113.5t147.5 41.5
q103 0 156 -39t53 -111q0 -56 -49 -99t-160 -78v-5q78 2 110 2h102z" />
    <glyph glyph-name="threequarters" unicode="&#xbe;" horiz-adv-x="1127" 
d="M48 468l148 20q4 -58 66 -58q47 0 47 39q0 44 -68 44h-47v94h41q43 0 58 15q11 11 11 28t-11.5 27t-32.5 10q-27 0 -43 -15.5t-19 -42.5l-144 20q10 66 65.5 103.5t145.5 37.5q97 0 152.5 -31.5t55.5 -94.5q0 -34 -23.5 -59.5t-60.5 -34.5v-3q95 -20 95 -105
q0 -62 -58 -99t-164 -37q-198 0 -214 142zM767 778h174l-542 -874h-174zM1023 -96h-160v77h-245v126l174 237h231v-242h68v-121h-68v-77zM761 99q36 2 102 2v76q0 41 1 57h-4z" />
    <glyph glyph-name="questiondown" unicode="&#xbf;" horiz-adv-x="647" 
d="M225 606h180v-164h-180v164zM393 390l2 -54q2 -41 -13.5 -71.5t-39 -49t-47 -34.5t-40.5 -36.5t-17 -46.5q0 -30 24.5 -49.5t64.5 -19.5q41 0 64.5 25t23.5 62q0 33 -5 51h173q6 -22 6 -49q0 -104 -71.5 -166t-197.5 -62q-122 0 -194 56.5t-72 147.5q0 50 18 86t44 55.5
t52.5 35t45.5 34t21 42.5l2 43h156z" />
    <glyph glyph-name="Agrave" unicode="&#xc0;" horiz-adv-x="713" 
d="M247 682h219l238 -682h-202l-36 124h-232l-35 -124h-190zM314 401l-42 -147h156l-43 147q-22 79 -35 137h-1q-15 -67 -35 -137zM376 884l83 -150h-155l-141 150h213z" />
    <glyph glyph-name="Aacute" unicode="&#xc1;" horiz-adv-x="713" 
d="M247 682h219l238 -682h-202l-36 124h-232l-35 -124h-190zM314 401l-42 -147h156l-43 147q-22 79 -35 137h-1q-15 -67 -35 -137zM252 734l83 150h213l-141 -150h-155z" />
    <glyph glyph-name="Acircumflex" unicode="&#xc2;" horiz-adv-x="713" 
d="M247 682h219l238 -682h-202l-36 124h-232l-35 -124h-190zM314 401l-42 -147h156l-43 147q-22 79 -35 137h-1q-15 -67 -35 -137zM142 737l108 150h212l108 -150h-156l-60 66l-60 -66h-152z" />
    <glyph glyph-name="Atilde" unicode="&#xc3;" horiz-adv-x="713" 
d="M247 682h219l238 -682h-202l-36 124h-232l-35 -124h-190zM314 401l-42 -147h156l-43 147q-22 79 -35 137h-1q-15 -67 -35 -137zM280 769q-22 0 -22 -35h-126q0 74 37 116.5t116 42.5q38 0 68.5 -11t49.5 -22t29 -11q22 0 22 35h126q0 -74 -37 -116.5t-116 -42.5
q-38 0 -68.5 11t-49.5 22t-29 11z" />
    <glyph glyph-name="Adieresis" unicode="&#xc4;" horiz-adv-x="713" 
d="M247 682h219l238 -682h-202l-36 124h-232l-35 -124h-190zM314 401l-42 -147h156l-43 147q-22 79 -35 137h-1q-15 -67 -35 -137zM311 734h-160v150h160v-150zM561 734h-160v150h160v-150z" />
    <glyph glyph-name="Aring" unicode="&#xc5;" horiz-adv-x="713" 
d="M247 682h219l238 -682h-202l-36 124h-232l-35 -124h-190zM314 401l-42 -147h156l-43 147q-22 79 -35 137h-1q-15 -67 -35 -137zM509 835q0 -51 -40.5 -84t-113.5 -33q-74 0 -113 32t-39 83t40.5 84t113.5 33q74 0 113 -32t39 -83zM388 834q0 38 -32 38t-32 -38t32 -38
t32 38z" />
    <glyph glyph-name="AE" unicode="&#xc6;" horiz-adv-x="996" 
d="M279 682h658v-135h-322v-135h275v-130h-275v-146h339v-136h-513v106h-222l-41 -106h-191zM396 547l-125 -311h170v311h-45z" />
    <glyph glyph-name="Ccedilla" unicode="&#xc7;" horiz-adv-x="715" 
d="M418 -180h-159q46 43 46 65q0 20 -35 39l36 64q-123 22 -196 115t-73 237q0 88 29 158.5t77.5 113.5t107.5 65.5t123 22.5q239 0 309 -227l-168 -39q-33 110 -143 110q-65 0 -108 -53.5t-43 -148.5q0 -92 43 -147t112 -55q56 0 95 30.5t54 88.5l165 -38
q-27 -104 -96 -162.5t-156 -72.5l-10 -18q44 -34 44 -71q0 -43 -54 -77z" />
    <glyph glyph-name="Egrave" unicode="&#xc8;" horiz-adv-x="655" 
d="M72 0v682h524v-135h-350v-135h303v-130h-303v-146h367v-136h-541zM365 884l83 -150h-155l-141 150h213z" />
    <glyph glyph-name="Eacute" unicode="&#xc9;" horiz-adv-x="655" 
d="M72 0v682h524v-135h-350v-135h303v-130h-303v-146h367v-136h-541zM243 734l83 150h213l-141 -150h-155z" />
    <glyph glyph-name="Ecircumflex" unicode="&#xca;" horiz-adv-x="655" 
d="M72 0v682h524v-135h-350v-135h303v-130h-303v-146h367v-136h-541zM131 737l108 150h212l108 -150h-156l-60 66l-60 -66h-152z" />
    <glyph glyph-name="Edieresis" unicode="&#xcb;" horiz-adv-x="655" 
d="M72 0v682h524v-135h-350v-135h303v-130h-303v-146h367v-136h-541zM300 734h-160v150h160v-150zM550 734h-160v150h160v-150z" />
    <glyph glyph-name="Igrave" unicode="&#xcc;" horiz-adv-x="318" 
d="M72 0v682h174v-682h-174zM179 884l83 -150h-155l-141 150h213z" />
    <glyph glyph-name="Iacute" unicode="&#xcd;" horiz-adv-x="318" 
d="M72 0v682h174v-682h-174zM59 734l83 150h213l-141 -150h-155z" />
    <glyph glyph-name="Icircumflex" unicode="&#xce;" horiz-adv-x="318" 
d="M72 0v682h174v-682h-174zM-55 737l108 150h212l108 -150h-156l-60 66l-60 -66h-152z" />
    <glyph glyph-name="Idieresis" unicode="&#xcf;" horiz-adv-x="318" 
d="M72 0v682h174v-682h-174zM114 734h-160v150h160v-150zM364 734h-160v150h160v-150z" />
    <glyph glyph-name="Eth" unicode="&#xd0;" horiz-adv-x="765" 
d="M255 282v-140q56 -2 90 -2q53 0 86 8t60 35q53 53 53 158q0 101 -55 156q-28 28 -62.5 37t-91.5 9q-56 0 -80 -1v-130h166v-130h-166zM82 0v282h-80v130h80v270q46 0 133.5 0.5t123.5 0.5q99 0 171 -20t126 -74q92 -92 92 -245q0 -158 -93 -251q-94 -94 -287 -94
q-36 0 -126.5 0.5t-139.5 0.5z" />
    <glyph glyph-name="Ntilde" unicode="&#xd1;" horiz-adv-x="778" 
d="M706 0h-216l-194 341q-39 70 -67 139h-4q11 -125 11 -278v-202h-164v682h230l180 -316q39 -70 67 -139h4q-11 125 -11 278v177h164v-682zM316 769q-22 0 -22 -35h-126q0 74 37 116.5t116 42.5q38 0 68.5 -11t49.5 -22t29 -11q22 0 22 35h126q0 -74 -37 -116.5t-116 -42.5
q-38 0 -68.5 11t-49.5 22t-29 11z" />
    <glyph glyph-name="Ograve" unicode="&#xd2;" horiz-adv-x="794" 
d="M573 341q0 92 -47 147.5t-129 55.5t-129 -55.5t-47 -147.5t47 -147.5t129 -55.5t129 55.5t47 147.5zM757 343q0 -162 -101 -261.5t-261 -99.5q-161 0 -259.5 97t-98.5 260q0 162 101 261.5t261 99.5q161 0 259.5 -97t98.5 -260zM416 884l83 -150h-155l-141 150h213z" />
    <glyph glyph-name="Oacute" unicode="&#xd3;" horiz-adv-x="794" 
d="M573 341q0 92 -47 147.5t-129 55.5t-129 -55.5t-47 -147.5t47 -147.5t129 -55.5t129 55.5t47 147.5zM757 343q0 -162 -101 -261.5t-261 -99.5q-161 0 -259.5 97t-98.5 260q0 162 101 261.5t261 99.5q161 0 259.5 -97t98.5 -260zM294 734l83 150h213l-141 -150h-155z" />
    <glyph glyph-name="Ocircumflex" unicode="&#xd4;" horiz-adv-x="794" 
d="M573 341q0 92 -47 147.5t-129 55.5t-129 -55.5t-47 -147.5t47 -147.5t129 -55.5t129 55.5t47 147.5zM757 343q0 -162 -101 -261.5t-261 -99.5q-161 0 -259.5 97t-98.5 260q0 162 101 261.5t261 99.5q161 0 259.5 -97t98.5 -260zM183 737l108 150h212l108 -150h-156
l-60 66l-60 -66h-152z" />
    <glyph glyph-name="Otilde" unicode="&#xd5;" horiz-adv-x="794" 
d="M573 341q0 92 -47 147.5t-129 55.5t-129 -55.5t-47 -147.5t47 -147.5t129 -55.5t129 55.5t47 147.5zM757 343q0 -162 -101 -261.5t-261 -99.5q-161 0 -259.5 97t-98.5 260q0 162 101 261.5t261 99.5q161 0 259.5 -97t98.5 -260zM321 769q-22 0 -22 -35h-126
q0 74 37 116.5t116 42.5q38 0 68.5 -11t49.5 -22t29 -11q22 0 22 35h126q0 -74 -37 -116.5t-116 -42.5q-38 0 -68.5 11t-49.5 22t-29 11z" />
    <glyph glyph-name="Odieresis" unicode="&#xd6;" horiz-adv-x="794" 
d="M573 341q0 92 -47 147.5t-129 55.5t-129 -55.5t-47 -147.5t47 -147.5t129 -55.5t129 55.5t47 147.5zM757 343q0 -162 -101 -261.5t-261 -99.5q-161 0 -259.5 97t-98.5 260q0 162 101 261.5t261 99.5q161 0 259.5 -97t98.5 -260zM352 734h-160v150h160v-150zM602 734h-160
v150h160v-150z" />
    <glyph glyph-name="multiply" unicode="&#xd7;" 
d="M595 157l-105 -105l-165 168l-165 -168l-105 105l168 165l-168 165l105 105l165 -168l165 168l105 -105l-168 -165z" />
    <glyph glyph-name="Oslash" unicode="&#xd8;" horiz-adv-x="794" 
d="M144 -49l-111 97l68 75q-64 91 -64 216q0 162 101 261.5t261 99.5q101 0 184 -44l67 75l111 -97l-68 -75q64 -91 64 -216q0 -162 -101 -261.5t-261 -99.5q-101 0 -184 44zM567 424l-250 -276q37 -15 80 -15q84 0 132 56.5t48 151.5q0 39 -10 83zM227 258l250 276
q-37 15 -80 15q-84 0 -132 -56.5t-48 -151.5q0 -39 10 -83z" />
    <glyph glyph-name="Ugrave" unicode="&#xd9;" horiz-adv-x="746" 
d="M239 682v-395q0 -68 36 -108.5t104 -40.5q138 0 138 149v395h164v-405q0 -130 -78 -212.5t-227 -82.5q-152 0 -231.5 80t-79.5 211v409h174zM392 884l83 -150h-155l-141 150h213z" />
    <glyph glyph-name="Uacute" unicode="&#xda;" horiz-adv-x="746" 
d="M239 682v-395q0 -68 36 -108.5t104 -40.5q138 0 138 149v395h164v-405q0 -130 -78 -212.5t-227 -82.5q-152 0 -231.5 80t-79.5 211v409h174zM270 734l83 150h213l-141 -150h-155z" />
    <glyph glyph-name="Ucircumflex" unicode="&#xdb;" horiz-adv-x="746" 
d="M239 682v-395q0 -68 36 -108.5t104 -40.5q138 0 138 149v395h164v-405q0 -130 -78 -212.5t-227 -82.5q-152 0 -231.5 80t-79.5 211v409h174zM159 737l108 150h212l108 -150h-156l-60 66l-60 -66h-152z" />
    <glyph glyph-name="Udieresis" unicode="&#xdc;" horiz-adv-x="746" 
d="M239 682v-395q0 -68 36 -108.5t104 -40.5q138 0 138 149v395h164v-405q0 -130 -78 -212.5t-227 -82.5q-152 0 -231.5 80t-79.5 211v409h174zM328 734h-160v150h160v-150zM578 734h-160v150h160v-150z" />
    <glyph glyph-name="Yacute" unicode="&#xdd;" horiz-adv-x="658" 
d="M416 0h-174v271l-242 411h209l125 -238l121 238h203l-242 -411v-271zM226 734l83 150h213l-141 -150h-155z" />
    <glyph glyph-name="Thorn" unicode="&#xde;" horiz-adv-x="689" 
d="M246 0h-174v682h174v-89q12 0 51.5 0.5t61.5 0.5q52 0 94.5 -5.5t84.5 -21.5t70.5 -42t46 -68.5t17.5 -98.5q0 -123 -86 -180.5t-234 -57.5q-77 0 -106 1v-121zM246 450v-187q35 -1 111 -1q72 0 101.5 24t29.5 70q0 47 -29.5 71t-104.5 24q-73 0 -108 -1z" />
    <glyph glyph-name="germandbls" unicode="&#xdf;" horiz-adv-x="678" 
d="M65 0v469q0 121 71 184t212 63q136 0 198.5 -47t62.5 -121q0 -41 -16.5 -71.5t-39.5 -46t-46 -26.5t-39.5 -21.5t-16.5 -23.5t15 -23t37 -16.5t48.5 -18.5t48.5 -28t37 -46.5t15 -71.5q0 -79 -58 -125t-154 -46q-82 0 -160 31l35 125q62 -34 128 -34q43 0 43 32
q0 16 -20.5 27.5t-50 21.5t-59 25.5t-50 50t-20.5 84.5q0 40 16 69.5t38 45t44.5 27.5t38.5 25t16 29q0 53 -95 53q-58 0 -88.5 -28t-30.5 -94v-474h-160z" />
    <glyph glyph-name="agrave" unicode="&#xe0;" horiz-adv-x="555" 
d="M340 201v10q-89 0 -120 -15t-31 -44q0 -47 55 -47q38 0 67 26.5t29 69.5zM101 341l-67 96q103 79 239 79q111 0 169 -47.5t58 -141.5v-90q0 -96 3 -237h-149l-2 51h-1q-57 -67 -152 -67q-87 0 -132 44t-45 113q0 176 318 176v10q0 70 -87 70q-85 0 -152 -56zM290 706
l83 -150h-145l-141 150h203z" />
    <glyph glyph-name="aacute" unicode="&#xe1;" horiz-adv-x="555" 
d="M340 201v10q-89 0 -120 -15t-31 -44q0 -47 55 -47q38 0 67 26.5t29 69.5zM101 341l-67 96q103 79 239 79q111 0 169 -47.5t58 -141.5v-90q0 -96 3 -237h-149l-2 51h-1q-57 -67 -152 -67q-87 0 -132 44t-45 113q0 176 318 176v10q0 70 -87 70q-85 0 -152 -56zM181 556
l83 150h203l-141 -150h-145z" />
    <glyph glyph-name="acircumflex" unicode="&#xe2;" horiz-adv-x="555" 
d="M340 201v10q-89 0 -120 -15t-31 -44q0 -47 55 -47q38 0 67 26.5t29 69.5zM101 341l-67 96q103 79 239 79q111 0 169 -47.5t58 -141.5v-90q0 -96 3 -237h-149l-2 51h-1q-57 -67 -152 -67q-87 0 -132 44t-45 113q0 176 318 176v10q0 70 -87 70q-85 0 -152 -56zM72 556
l108 150h192l108 -150h-146l-60 66l-60 -66h-142z" />
    <glyph glyph-name="atilde" unicode="&#xe3;" horiz-adv-x="555" 
d="M340 201v10q-89 0 -120 -15t-31 -44q0 -47 55 -47q38 0 67 26.5t29 69.5zM101 341l-67 96q103 79 239 79q111 0 169 -47.5t58 -141.5v-90q0 -96 3 -237h-149l-2 51h-1q-57 -67 -152 -67q-87 0 -132 44t-45 113q0 176 318 176v10q0 70 -87 70q-85 0 -152 -56zM203 595
q-22 0 -22 -35h-115q0 156 143 156q36 0 64.5 -10t47 -20.5t28.5 -10.5q22 0 22 35h115q0 -156 -143 -156q-36 0 -64.5 10t-47 20.5t-28.5 10.5z" />
    <glyph glyph-name="adieresis" unicode="&#xe4;" horiz-adv-x="555" 
d="M340 201v10q-89 0 -120 -15t-31 -44q0 -47 55 -47q38 0 67 26.5t29 69.5zM101 341l-67 96q103 79 239 79q111 0 169 -47.5t58 -141.5v-90q0 -96 3 -237h-149l-2 51h-1q-57 -67 -152 -67q-87 0 -132 44t-45 113q0 176 318 176v10q0 70 -87 70q-85 0 -152 -56zM242 556
h-150v150h150v-150zM462 556h-150v150h150v-150z" />
    <glyph glyph-name="aring" unicode="&#xe5;" horiz-adv-x="555" 
d="M340 201v10q-89 0 -120 -15t-31 -44q0 -47 55 -47q38 0 67 26.5t29 69.5zM101 341l-67 96q103 79 239 79q111 0 169 -47.5t58 -141.5v-90q0 -96 3 -237h-149l-2 51h-1q-57 -67 -152 -67q-87 0 -132 44t-45 113q0 176 318 176v10q0 70 -87 70q-85 0 -152 -56zM430 667
q0 -51 -40.5 -84t-113.5 -33q-74 0 -113 32t-39 83t40.5 84t113.5 33q74 0 113 -32t39 -83zM309 666q0 38 -32 38t-32 -38t32 -38t32 38z" />
    <glyph glyph-name="ae" unicode="&#xe6;" horiz-adv-x="890" 
d="M101 341l-67 96q103 79 239 79q114 0 167 -53q56 53 162 53q120 0 188 -67.5t68 -193.5q0 -33 -5 -56h-350q16 -93 123 -93q90 0 160 51l55 -104q-103 -69 -229 -69q-148 0 -211 100q-27 -49 -79 -74.5t-117 -25.5q-91 0 -137 43.5t-46 113.5q0 176 318 176v10
q0 70 -87 70q-85 0 -152 -56zM504 305h185q-2 45 -26 69t-63 24q-80 0 -96 -93zM244 105q38 0 67 26.5t29 69.5v10q-89 0 -120 -15t-31 -44q0 -47 55 -47z" />
    <glyph glyph-name="ccedilla" unicode="&#xe7;" horiz-adv-x="547" 
d="M324 -180h-152q43 43 43 65q0 9 -7 17.5t-11.5 11.5l-16.5 11l39 68q-88 20 -137.5 86.5t-49.5 169.5q0 125 74.5 196t191.5 71q188 0 235 -153l-146 -54q-8 34 -31 55t-58 21q-44 0 -70 -35.5t-26 -99.5q0 -61 25.5 -97.5t71.5 -36.5q65 0 92 76l149 -46
q-65 -140 -201 -159l-11 -19q44 -34 44 -71q0 -41 -48 -77z" />
    <glyph glyph-name="egrave" unicode="&#xe8;" horiz-adv-x="591" 
d="M487 157l55 -104q-104 -69 -229 -69q-133 0 -207 68t-74 197q0 125 75.5 196t195.5 71t188 -67.5t68 -193.5q0 -33 -5 -56h-350q16 -93 123 -93q90 0 160 51zM205 305h185q-2 45 -26 69t-63 24q-81 0 -96 -93zM308 706l83 -150h-145l-141 150h203z" />
    <glyph glyph-name="eacute" unicode="&#xe9;" horiz-adv-x="591" 
d="M487 157l55 -104q-104 -69 -229 -69q-133 0 -207 68t-74 197q0 125 75.5 196t195.5 71t188 -67.5t68 -193.5q0 -33 -5 -56h-350q16 -93 123 -93q90 0 160 51zM205 305h185q-2 45 -26 69t-63 24q-81 0 -96 -93zM199 556l83 150h203l-141 -150h-145z" />
    <glyph glyph-name="ecircumflex" unicode="&#xea;" horiz-adv-x="591" 
d="M487 157l55 -104q-104 -69 -229 -69q-133 0 -207 68t-74 197q0 125 75.5 196t195.5 71t188 -67.5t68 -193.5q0 -33 -5 -56h-350q16 -93 123 -93q90 0 160 51zM205 305h185q-2 45 -26 69t-63 24q-81 0 -96 -93zM91 556l108 150h192l108 -150h-146l-60 66l-60 -66h-142z
" />
    <glyph glyph-name="edieresis" unicode="&#xeb;" horiz-adv-x="591" 
d="M487 157l55 -104q-104 -69 -229 -69q-133 0 -207 68t-74 197q0 125 75.5 196t195.5 71t188 -67.5t68 -193.5q0 -33 -5 -56h-350q16 -93 123 -93q90 0 160 51zM205 305h185q-2 45 -26 69t-63 24q-81 0 -96 -93zM260 556h-150v150h150v-150zM480 556h-150v150h150v-150z
" />
    <glyph glyph-name="igrave" unicode="&#xec;" horiz-adv-x="290" 
d="M225 0h-160v500h160v-500zM158 702l83 -150h-145l-141 150h203z" />
    <glyph glyph-name="iacute" unicode="&#xed;" horiz-adv-x="290" 
d="M225 0h-160v500h160v-500zM49 552l83 150h203l-141 -150h-145z" />
    <glyph glyph-name="icircumflex" unicode="&#xee;" horiz-adv-x="290" 
d="M225 0h-160v500h160v-500zM-59 552l108 150h192l108 -150h-146l-60 66l-60 -66h-142z" />
    <glyph glyph-name="idieresis" unicode="&#xef;" horiz-adv-x="290" 
d="M225 0h-160v500h160v-500zM125 552h-140v150h140v-150zM305 552h-140v150h140v-150z" />
    <glyph glyph-name="eth" unicode="&#xf0;" horiz-adv-x="606" 
d="M129 681l171 47q39 -24 70 -48l125 38l30 -90l-76 -23q122 -141 122 -313q0 -154 -74 -231t-197 -77q-122 0 -195 67.5t-73 192.5q0 119 69.5 187.5t168.5 68.5q48 0 80 -18l3 1q-20 34 -60 74l-139 -42l-31 91l84 25q-42 30 -78 50zM401 242q0 59 -26.5 92t-73.5 33
t-73 -33t-26 -92t26.5 -92t73.5 -33t73 33t26 92z" />
    <glyph glyph-name="ntilde" unicode="&#xf1;" horiz-adv-x="614" 
d="M559 0h-160v250q0 79 -11 101q-18 37 -68 37q-39 0 -62 -23q-33 -33 -33 -114v-251h-160v240q0 122 -3 260h148l3 -60h1q52 76 157 76q89 0 138.5 -51.5t49.5 -156.5v-308zM234 595q-22 0 -22 -35h-115q0 156 143 156q36 0 64.5 -10t47 -20.5t28.5 -10.5q22 0 22 35h115
q0 -156 -143 -156q-36 0 -64.5 10t-47 20.5t-28.5 10.5z" />
    <glyph glyph-name="ograve" unicode="&#xf2;" horiz-adv-x="604" 
d="M402 250q0 63 -26.5 98t-73.5 35t-73.5 -35t-26.5 -98t26.5 -98t73.5 -35t73.5 35t26.5 98zM572 251q0 -125 -76 -196t-196 -71q-123 0 -195.5 68.5t-72.5 196.5q0 125 76 196t196 71q123 0 195.5 -68.5t72.5 -196.5zM315 706l83 -150h-145l-141 150h203z" />
    <glyph glyph-name="oacute" unicode="&#xf3;" horiz-adv-x="604" 
d="M402 250q0 63 -26.5 98t-73.5 35t-73.5 -35t-26.5 -98t26.5 -98t73.5 -35t73.5 35t26.5 98zM572 251q0 -125 -76 -196t-196 -71q-123 0 -195.5 68.5t-72.5 196.5q0 125 76 196t196 71q123 0 195.5 -68.5t72.5 -196.5zM206 556l83 150h203l-141 -150h-145z" />
    <glyph glyph-name="ocircumflex" unicode="&#xf4;" horiz-adv-x="604" 
d="M402 250q0 63 -26.5 98t-73.5 35t-73.5 -35t-26.5 -98t26.5 -98t73.5 -35t73.5 35t26.5 98zM572 251q0 -125 -76 -196t-196 -71q-123 0 -195.5 68.5t-72.5 196.5q0 125 76 196t196 71q123 0 195.5 -68.5t72.5 -196.5zM98 556l108 150h192l108 -150h-146l-60 66l-60 -66
h-142z" />
    <glyph glyph-name="otilde" unicode="&#xf5;" horiz-adv-x="604" 
d="M402 250q0 63 -26.5 98t-73.5 35t-73.5 -35t-26.5 -98t26.5 -98t73.5 -35t73.5 35t26.5 98zM572 251q0 -125 -76 -196t-196 -71q-123 0 -195.5 68.5t-72.5 196.5q0 125 76 196t196 71q123 0 195.5 -68.5t72.5 -196.5zM229 595q-22 0 -22 -35h-115q0 156 143 156
q36 0 64.5 -10t47 -20.5t28.5 -10.5q22 0 22 35h115q0 -156 -143 -156q-36 0 -64.5 10t-47 20.5t-28.5 10.5z" />
    <glyph glyph-name="odieresis" unicode="&#xf6;" horiz-adv-x="604" 
d="M402 250q0 63 -26.5 98t-73.5 35t-73.5 -35t-26.5 -98t26.5 -98t73.5 -35t73.5 35t26.5 98zM572 251q0 -125 -76 -196t-196 -71q-123 0 -195.5 68.5t-72.5 196.5q0 125 76 196t196 71q123 0 195.5 -68.5t72.5 -196.5zM267 556h-150v150h150v-150zM487 556h-150v150h150
v-150z" />
    <glyph glyph-name="divide" unicode="&#xf7;" 
d="M403 35h-156v160h156v-160zM605 389v-134h-560v134h560zM403 449h-156v160h156v-160z" />
    <glyph glyph-name="oslash" unicode="&#xf8;" horiz-adv-x="604" 
d="M113 -49l-86 80l50 55q-45 65 -45 163q0 125 76 196t196 71q74 0 134 -27l53 60l86 -80l-50 -55q45 -65 45 -163q0 -125 -76 -196t-196 -71q-74 0 -134 27zM191 208l156 173q-20 9 -45 9q-51 0 -79.5 -37t-28.5 -103q0 -30 -3 -42zM413 292l-156 -173q16 -9 45 -9
q51 0 79.5 37t28.5 103q0 30 3 42z" />
    <glyph glyph-name="ugrave" unicode="&#xf9;" horiz-adv-x="610" 
d="M548 0h-148l-3 60h-1q-52 -76 -155 -76q-88 0 -137 51.5t-49 156.5v308h160v-250q0 -79 11 -101q18 -37 66 -37q38 0 61 23q32 32 32 114v251h160v-253q0 -118 3 -247zM318 702l83 -150h-145l-141 150h203z" />
    <glyph glyph-name="uacute" unicode="&#xfa;" horiz-adv-x="610" 
d="M548 0h-148l-3 60h-1q-52 -76 -155 -76q-88 0 -137 51.5t-49 156.5v308h160v-250q0 -79 11 -101q18 -37 66 -37q38 0 61 23q32 32 32 114v251h160v-253q0 -118 3 -247zM209 552l83 150h203l-141 -150h-145z" />
    <glyph glyph-name="ucircumflex" unicode="&#xfb;" horiz-adv-x="610" 
d="M548 0h-148l-3 60h-1q-52 -76 -155 -76q-88 0 -137 51.5t-49 156.5v308h160v-250q0 -79 11 -101q18 -37 66 -37q38 0 61 23q32 32 32 114v251h160v-253q0 -118 3 -247zM101 552l108 150h192l108 -150h-146l-60 66l-60 -66h-142z" />
    <glyph glyph-name="udieresis" unicode="&#xfc;" horiz-adv-x="610" 
d="M548 0h-148l-3 60h-1q-52 -76 -155 -76q-88 0 -137 51.5t-49 156.5v308h160v-250q0 -79 11 -101q18 -37 66 -37q38 0 61 23q32 32 32 114v251h160v-253q0 -118 3 -247zM270 552h-150v150h150v-150zM490 552h-150v150h150v-150z" />
    <glyph glyph-name="yacute" unicode="&#xfd;" horiz-adv-x="538" 
d="M305 -180h-179l79 180h-34l-174 500h179l58 -195q27 -94 38 -157h3q10 52 37 157l51 195h178zM173 552l83 150h203l-141 -150h-145z" />
    <glyph glyph-name="thorn" unicode="&#xfe;" horiz-adv-x="621" 
d="M222 256v-14q0 -59 26.5 -94.5t72.5 -35.5q47 0 72.5 37t25.5 101q0 62 -26.5 100t-74.5 38q-44 0 -70 -35t-26 -97zM65 -180v882h160v-159q0 -49 -8 -97h2q24 34 65 52t87 18q102 0 160 -73.5t58 -191.5q0 -119 -64.5 -193t-170.5 -74q-88 0 -132 55h-1q4 -40 4 -82
v-137h-160z" />
    <glyph glyph-name="ydieresis" unicode="&#xff;" horiz-adv-x="538" 
d="M305 -180h-179l79 180h-34l-174 500h179l58 -195q27 -94 38 -157h3q10 52 37 157l51 195h178zM234 552h-150v150h150v-150zM454 552h-150v150h150v-150z" />
    <glyph glyph-name="Amacron" unicode="&#x100;" horiz-adv-x="713" 
d="M247 682h219l238 -682h-202l-36 124h-232l-35 -124h-190zM314 401l-42 -147h156l-43 147q-22 79 -35 137h-1q-15 -67 -35 -137zM539 873v-132h-366v132h366z" />
    <glyph glyph-name="amacron" unicode="&#x101;" horiz-adv-x="555" 
d="M340 201v10q-89 0 -120 -15t-31 -44q0 -47 55 -47q38 0 67 26.5t29 69.5zM101 341l-67 96q103 79 239 79q111 0 169 -47.5t58 -141.5v-90q0 -96 3 -237h-149l-2 51h-1q-57 -67 -152 -67q-87 0 -132 44t-45 113q0 176 318 176v10q0 70 -87 70q-85 0 -152 -56zM450 691
v-128h-346v128h346z" />
    <glyph glyph-name="Abreve" unicode="&#x102;" horiz-adv-x="713" 
d="M247 682h219l238 -682h-202l-36 124h-232l-35 -124h-190zM314 401l-42 -147h156l-43 147q-22 79 -35 137h-1q-15 -67 -35 -137zM417 908h129q0 -177 -192 -177q-188 0 -188 177h129q0 -29 13 -44t48 -15t48 15t13 44z" />
    <glyph glyph-name="abreve" unicode="&#x103;" horiz-adv-x="555" 
d="M340 201v10q-89 0 -120 -15t-31 -44q0 -47 55 -47q38 0 67 26.5t29 69.5zM101 341l-67 96q103 79 239 79q111 0 169 -47.5t58 -141.5v-90q0 -96 3 -237h-149l-2 51h-1q-57 -67 -152 -67q-87 0 -132 44t-45 113q0 176 318 176v10q0 70 -87 70q-85 0 -152 -56zM334 724h120
q0 -170 -179 -170q-55 0 -92 15.5t-54 43t-23 53.5t-6 58h120q0 -57 57 -57t57 57z" />
    <glyph glyph-name="Aogonek" unicode="&#x104;" horiz-adv-x="713" 
d="M698 -99v-84q-33 -11 -92 -11q-138 0 -138 83q0 54 64 111h-30l-36 124h-231l-36 -124h-190l238 682h219l238 -682q-69 -36 -69 -76q0 -23 32 -23h31zM314 401l-42 -147h156l-43 147q-22 79 -35 137h-1q-15 -67 -35 -137z" />
    <glyph glyph-name="aogonek" unicode="&#x105;" horiz-adv-x="555" 
d="M340 201v10q-89 0 -120 -15t-31 -44q0 -47 55 -47q38 0 67 26.5t29 69.5zM101 341l-67 96q103 79 239 79q111 0 169.5 -47.5t57.5 -141.5v-90q0 -197 1 -237q-29 -36 -39 -52.5t-10 -29.5q0 -21 30 -21h33v-81q-35 -10 -79 -10q-78 0 -109.5 20.5t-31.5 62.5q0 53 59 111
l-2 51h-1q-57 -67 -152 -67q-87 0 -132 44t-45 113q0 176 318 176v10q0 70 -87 70q-85 0 -152 -56z" />
    <glyph glyph-name="Cacute" unicode="&#x106;" horiz-adv-x="715" 
d="M525 259l165 -38q-31 -116 -114.5 -177.5t-202.5 -61.5q-149 0 -242.5 96.5t-93.5 261.5q0 88 29 158.5t77.5 113.5t107.5 65.5t123 22.5q239 0 309 -227l-168 -39q-33 110 -143 110q-65 0 -108 -53.5t-43 -148.5q0 -92 43 -147t112 -55q56 0 95 30.5t54 88.5zM278 734
l83 150h213l-141 -150h-155z" />
    <glyph glyph-name="cacute" unicode="&#x107;" horiz-adv-x="547" 
d="M391 192l149 -46q-77 -162 -246 -162q-120 0 -191 70t-71 195t74.5 196t191.5 71q188 0 235 -153l-146 -54q-8 34 -31 55t-58 21q-44 0 -70 -35t-26 -99q0 -61 25.5 -98t71.5 -37q65 0 92 76zM203 556l83 150h203l-141 -150h-145z" />
    <glyph glyph-name="Ccircumflex" unicode="&#x108;" horiz-adv-x="715" 
d="M525 259l165 -38q-31 -116 -114.5 -177.5t-202.5 -61.5q-149 0 -242.5 96.5t-93.5 261.5q0 88 29 158.5t77.5 113.5t107.5 65.5t123 22.5q239 0 309 -227l-168 -39q-33 110 -143 110q-65 0 -108 -53.5t-43 -148.5q0 -92 43 -147t112 -55q56 0 95 30.5t54 88.5zM167 737
l108 150h212l108 -150h-156l-60 66l-60 -66h-152z" />
    <glyph glyph-name="ccircumflex" unicode="&#x109;" horiz-adv-x="547" 
d="M391 192l149 -46q-77 -162 -246 -162q-120 0 -191 70t-71 195t74.5 196t191.5 71q188 0 235 -153l-146 -54q-8 34 -31 55t-58 21q-44 0 -70 -35t-26 -99q0 -61 25.5 -98t71.5 -37q65 0 92 76zM94 556l108 150h192l108 -150h-146l-60 66l-60 -66h-142z" />
    <glyph glyph-name="Cdotaccent" unicode="&#x10a;" horiz-adv-x="715" 
d="M525 259l165 -38q-31 -116 -114.5 -177.5t-202.5 -61.5q-149 0 -242.5 96.5t-93.5 261.5q0 88 29 158.5t77.5 113.5t107.5 65.5t123 22.5q239 0 309 -227l-168 -39q-33 110 -143 110q-65 0 -108 -53.5t-43 -148.5q0 -92 43 -147t112 -55q56 0 95 30.5t54 88.5zM467 734
h-172v150h172v-150z" />
    <glyph glyph-name="cdotaccent" unicode="&#x10b;" horiz-adv-x="547" 
d="M391 192l149 -46q-77 -162 -246 -162q-120 0 -191 70t-71 195t74.5 196t191.5 71q188 0 235 -153l-146 -54q-8 34 -31 55t-58 21q-44 0 -70 -35t-26 -99q0 -61 25.5 -98t71.5 -37q65 0 92 76zM376 556h-162v150h162v-150z" />
    <glyph glyph-name="Ccaron" unicode="&#x10c;" horiz-adv-x="715" 
d="M525 259l165 -38q-31 -116 -114.5 -177.5t-202.5 -61.5q-149 0 -242.5 96.5t-93.5 261.5q0 88 29 158.5t77.5 113.5t107.5 65.5t123 22.5q239 0 309 -227l-168 -39q-33 110 -143 110q-65 0 -108 -53.5t-43 -148.5q0 -92 43 -147t112 -55q56 0 95 30.5t54 88.5zM595 887
l-108 -150h-212l-108 150h156l60 -66l60 66h152z" />
    <glyph glyph-name="ccaron" unicode="&#x10d;" horiz-adv-x="547" 
d="M391 192l149 -46q-77 -162 -246 -162q-120 0 -191 70t-71 195t74.5 196t191.5 71q188 0 235 -153l-146 -54q-8 34 -31 55t-58 21q-44 0 -70 -35t-26 -99q0 -61 25.5 -98t71.5 -37q65 0 92 76zM499 706l-108 -150h-192l-108 150h146l60 -66l60 66h142z" />
    <glyph glyph-name="Dcaron" unicode="&#x10e;" horiz-adv-x="755" 
d="M245 540v-396q56 -2 90 -2q54 0 86.5 7.5t59.5 34.5q53 53 53 157q0 100 -55 155q-28 28 -62 36.5t-92 8.5q-56 0 -80 -1zM72 0v682q46 0 133.5 0.5t123.5 0.5q99 0 171 -20t126 -74q92 -92 92 -245q0 -158 -93 -251q-94 -94 -287 -94q-36 0 -126.5 0.5t-139.5 0.5z
M571 887l-108 -150h-212l-108 150h156l60 -66l60 66h152z" />
    <glyph glyph-name="dcaron" unicode="&#x10f;" horiz-adv-x="706" 
d="M399 244v14q0 59 -26.5 94.5t-72.5 35.5q-47 0 -72.5 -37t-25.5 -101q0 -62 26.5 -100t74.5 -38q44 0 70 35t26 97zM559 0h-149l-2 60h-1q-52 -76 -157 -76q-102 0 -160 73.5t-58 191.5q0 119 64.5 193t170.5 74q88 0 132 -55h1q-4 40 -4 82v159h160v-452q0 -124 3 -250z
M594 566l23 194h161l-57 -194h-127z" />
    <glyph glyph-name="Dcroat" unicode="&#x110;" horiz-adv-x="765" 
d="M255 282v-140q56 -2 90 -2q53 0 86 8t60 35q53 53 53 158q0 101 -55 156q-28 28 -62.5 37t-91.5 9q-56 0 -80 -1v-130h166v-130h-166zM82 0v282h-80v130h80v270q46 0 133.5 0.5t123.5 0.5q99 0 171 -20t126 -74q92 -92 92 -245q0 -158 -93 -251q-94 -94 -287 -94
q-36 0 -126.5 0.5t-139.5 0.5z" />
    <glyph glyph-name="dcroat" unicode="&#x111;" horiz-adv-x="621" 
d="M559 0h-149l-2 60h-1q-52 -76 -157 -76q-102 0 -160 73.5t-58 191.5q0 119 64.5 193t170.5 74q88 0 132 -55h1q-4 40 -4 82v8h-96v120h96v48h160v-48h61v-120h-61v-301q0 -124 3 -250zM399 244v14q0 59 -26.5 94.5t-72.5 35.5q-47 0 -72.5 -37t-25.5 -101
q0 -62 26.5 -100t74.5 -38q44 0 70 35t26 97z" />
    <glyph glyph-name="Emacron" unicode="&#x112;" horiz-adv-x="655" 
d="M72 0v682h524v-135h-350v-135h303v-130h-303v-146h367v-136h-541zM528 873v-132h-366v132h366z" />
    <glyph glyph-name="emacron" unicode="&#x113;" horiz-adv-x="591" 
d="M487 157l55 -104q-104 -69 -229 -69q-133 0 -207 68t-74 197q0 125 75.5 196t195.5 71t188 -67.5t68 -193.5q0 -33 -5 -56h-350q16 -93 123 -93q90 0 160 51zM205 305h185q-2 45 -26 69t-63 24q-81 0 -96 -93zM468 691v-128h-346v128h346z" />
    <glyph glyph-name="Ebreve" unicode="&#x114;" horiz-adv-x="655" 
d="M72 0v682h524v-135h-350v-135h303v-130h-303v-146h367v-136h-541zM406 908h129q0 -177 -192 -177q-188 0 -188 177h129q0 -29 13 -44t48 -15t48 15t13 44z" />
    <glyph glyph-name="ebreve" unicode="&#x115;" horiz-adv-x="591" 
d="M487 157l55 -104q-104 -69 -229 -69q-133 0 -207 68t-74 197q0 125 75.5 196t195.5 71t188 -67.5t68 -193.5q0 -33 -5 -56h-350q16 -93 123 -93q90 0 160 51zM205 305h185q-2 45 -26 69t-63 24q-81 0 -96 -93zM352 724h120q0 -170 -179 -170q-55 0 -92 15.5t-54 43
t-23 53.5t-6 58h120q0 -57 57 -57t57 57z" />
    <glyph glyph-name="Edotaccent" unicode="&#x116;" horiz-adv-x="655" 
d="M72 0v682h524v-135h-350v-135h303v-130h-303v-146h367v-136h-541zM431 734h-172v150h172v-150z" />
    <glyph glyph-name="edotaccent" unicode="&#x117;" horiz-adv-x="591" 
d="M487 157l55 -104q-104 -69 -229 -69q-133 0 -207 68t-74 197q0 125 75.5 196t195.5 71t188 -67.5t68 -193.5q0 -33 -5 -56h-350q16 -93 123 -93q90 0 160 51zM205 305h185q-2 45 -26 69t-63 24q-81 0 -96 -93zM376 556h-162v150h162v-150z" />
    <glyph glyph-name="Eogonek" unicode="&#x118;" horiz-adv-x="655" 
d="M613 -99v-84q-33 -11 -92 -11q-138 0 -138 83q0 62 75 111h-386v682h524v-135h-350v-135h303v-130h-303v-146h367v-135q-63 -42 -63 -77q0 -23 32 -23h31z" />
    <glyph glyph-name="eogonek" unicode="&#x119;" horiz-adv-x="591" 
d="M516 -103v-81q-35 -10 -79 -10q-78 0 -109.5 20.5t-31.5 62.5q0 52 56 99q-17 -4 -39 -4q-133 0 -207 68t-74 197q0 125 75.5 196t195.5 71t188 -67.5t68 -193.5q0 -33 -5 -56h-350q16 -93 123 -93q90 0 160 51l54 -103q-3 -4 -12.5 -14.5t-13.5 -15.5t-13 -15.5
t-13.5 -16.5t-11 -15t-10 -16t-7.5 -14.5t-5.5 -14t-1.5 -12.5q0 -23 30 -23h33zM205 305h185q-2 44 -26 68.5t-63 24.5q-81 0 -96 -93z" />
    <glyph glyph-name="Ecaron" unicode="&#x11a;" horiz-adv-x="655" 
d="M72 0v682h524v-135h-350v-135h303v-130h-303v-146h367v-136h-541zM559 887l-108 -150h-212l-108 150h156l60 -66l60 66h152z" />
    <glyph glyph-name="ecaron" unicode="&#x11b;" horiz-adv-x="591" 
d="M487 157l55 -104q-104 -69 -229 -69q-133 0 -207 68t-74 197q0 125 75.5 196t195.5 71t188 -67.5t68 -193.5q0 -33 -5 -56h-350q16 -93 123 -93q90 0 160 51zM205 305h185q-2 45 -26 69t-63 24q-81 0 -96 -93zM499 706l-108 -150h-192l-108 150h146l60 -66l60 66h142z
" />
    <glyph glyph-name="Gcircumflex" unicode="&#x11c;" horiz-adv-x="777" 
d="M713 0h-144v58h-1q-68 -76 -196 -76q-146 0 -240.5 96.5t-94.5 260.5q0 162 101 261.5t261 99.5q204 0 305 -123l-133 -117q-57 86 -174 86q-82 0 -129 -55.5t-47 -147.5q0 -95 47 -151t129 -56q71 0 108 33t37 80v5h-132v131h303v-385zM186 737l108 150h212l108 -150
h-156l-60 66l-60 -66h-152z" />
    <glyph glyph-name="gcircumflex" unicode="&#x11d;" horiz-adv-x="621" 
d="M417 500h147q-8 -88 -8 -252v-232q0 -210 -257 -210q-127 0 -227 39l38 126q95 -42 191 -42q95 0 95 71q0 25 3 57h-2q-48 -61 -147 -61q-103 0 -160.5 69.5t-57.5 188.5q0 115 65 188.5t170 73.5q99 0 144 -70h1zM399 254v4q0 59 -26.5 94.5t-72.5 35.5
q-47 0 -72.5 -36.5t-25.5 -96.5q0 -58 26.5 -95.5t74.5 -37.5q43 0 69.5 36.5t26.5 95.5zM99 556l108 150h192l108 -150h-146l-60 66l-60 -66h-142z" />
    <glyph glyph-name="Gbreve" unicode="&#x11e;" horiz-adv-x="777" 
d="M713 0h-144v58h-1q-68 -76 -196 -76q-146 0 -240.5 96.5t-94.5 260.5q0 162 101 261.5t261 99.5q204 0 305 -123l-133 -117q-57 86 -174 86q-82 0 -129 -55.5t-47 -147.5q0 -95 47 -151t129 -56q71 0 108 33t37 80v5h-132v131h303v-385zM461 908h129q0 -177 -192 -177
q-188 0 -188 177h129q0 -29 13 -44t48 -15t48 15t13 44z" />
    <glyph glyph-name="gbreve" unicode="&#x11f;" horiz-adv-x="621" 
d="M417 500h147q-8 -88 -8 -252v-232q0 -210 -257 -210q-127 0 -227 39l38 126q95 -42 191 -42q95 0 95 71q0 25 3 57h-2q-48 -61 -147 -61q-103 0 -160.5 69.5t-57.5 188.5q0 115 65 188.5t170 73.5q99 0 144 -70h1zM399 254v4q0 59 -26.5 94.5t-72.5 35.5
q-47 0 -72.5 -36.5t-25.5 -96.5q0 -58 26.5 -95.5t74.5 -37.5q43 0 69.5 36.5t26.5 95.5zM360 724h120q0 -170 -179 -170q-55 0 -92 15.5t-54 43t-23 53.5t-6 58h120q0 -57 57 -57t57 57z" />
    <glyph glyph-name="Gdotaccent" unicode="&#x120;" horiz-adv-x="777" 
d="M713 0h-144v58h-1q-68 -76 -196 -76q-146 0 -240.5 96.5t-94.5 260.5q0 162 101 261.5t261 99.5q204 0 305 -123l-133 -117q-57 86 -174 86q-82 0 -129 -55.5t-47 -147.5q0 -95 47 -151t129 -56q71 0 108 33t37 80v5h-132v131h303v-385zM486 734h-172v150h172v-150z" />
    <glyph glyph-name="gdotaccent" unicode="&#x121;" horiz-adv-x="621" 
d="M417 500h147q-8 -88 -8 -252v-232q0 -210 -257 -210q-127 0 -227 39l38 126q95 -42 191 -42q95 0 95 71q0 25 3 57h-2q-48 -61 -147 -61q-103 0 -160.5 69.5t-57.5 188.5q0 115 65 188.5t170 73.5q99 0 144 -70h1zM399 254v4q0 59 -26.5 94.5t-72.5 35.5
q-47 0 -72.5 -36.5t-25.5 -96.5q0 -58 26.5 -95.5t74.5 -37.5q43 0 69.5 36.5t26.5 95.5zM384 556h-162v150h162v-150z" />
    <glyph glyph-name="Gcommaaccent" unicode="&#x122;" horiz-adv-x="777" 
d="M713 0h-144v58h-1q-68 -76 -196 -76q-146 0 -240.5 96.5t-94.5 260.5q0 162 101 261.5t261 99.5q204 0 305 -123l-133 -117q-57 86 -174 86q-82 0 -129 -55.5t-47 -147.5q0 -95 47 -151t129 -56q71 0 108 33t37 80v5h-132v131h303v-385zM316 -42h168v-63q0 -45 -36.5 -67
t-122.5 -22h-29v54h17q34 0 34 24h-31v74z" />
    <glyph glyph-name="gcommaaccent" unicode="&#x123;" horiz-adv-x="621" 
d="M417 500h147q-8 -88 -8 -252v-232q0 -210 -257 -210q-127 0 -227 39l38 126q95 -42 191 -42q95 0 95 71q0 25 3 57h-2q-48 -61 -147 -61q-103 0 -160.5 69.5t-57.5 188.5q0 115 65 188.5t170 73.5q99 0 144 -70h1zM399 254v4q0 59 -26.5 94.5t-72.5 35.5
q-47 0 -72.5 -36.5t-25.5 -96.5q0 -58 26.5 -95.5t74.5 -37.5q43 0 69.5 36.5t26.5 95.5zM372 556h-158v69q0 90 149 90h29v-57h-17q-34 0 -34 -24h31v-78z" />
    <glyph glyph-name="Hcircumflex" unicode="&#x124;" horiz-adv-x="770" 
d="M72 0v682h174v-254h278v254h174v-682h-174v281h-278v-281h-174zM171 737l108 150h212l108 -150h-156l-60 66l-60 -66h-152z" />
    <glyph glyph-name="hcircumflex" unicode="&#x125;" horiz-adv-x="614" 
d="M65 0v702h160v-159q0 -49 -8 -97h2q24 34 65 52t87 18q89 0 138.5 -51.5t49.5 -156.5v-308h-160v250q0 79 -11 101q-18 37 -68 37q-39 0 -62 -23q-33 -33 -33 -114v-251h-160zM92 754l108 150h192l108 -150h-146l-60 66l-60 -66h-142z" />
    <glyph glyph-name="Hbar" unicode="&#x126;" horiz-adv-x="790" 
d="M82 0v475h-80v132h80v75h174v-75h278v75h174v-75h80v-132h-80v-475h-174v254h-278v-254h-174zM256 391h278v84h-278v-84z" />
    <glyph glyph-name="hbar" unicode="&#x127;" horiz-adv-x="614" 
d="M65 0v551h-61v120h61v48h160v-48h96v-120h-96v-8q0 -49 -8 -97h2q24 34 65 52t87 18q89 0 138.5 -51t49.5 -157v-308h-160v250q0 79 -11 101q-18 37 -68 37q-39 0 -62 -23q-33 -33 -33 -114v-251h-160z" />
    <glyph glyph-name="Itilde" unicode="&#x128;" horiz-adv-x="318" 
d="M72 0v682h174v-682h-174zM83 769q-22 0 -22 -35h-126q0 74 37 116.5t116 42.5q38 0 68.5 -11t49.5 -22t29 -11q22 0 22 35h126q0 -74 -37 -116.5t-116 -42.5q-38 0 -68.5 11t-49.5 22t-29 11z" />
    <glyph glyph-name="itilde" unicode="&#x129;" horiz-adv-x="290" 
d="M225 0h-160v500h160v-500zM86 595q-19 0 -19 -39h-102q0 79 28.5 119.5t94.5 40.5q26 0 46 -7.5t30.5 -17t21 -17t18.5 -7.5q19 0 19 39h102q0 -79 -28.5 -119.5t-94.5 -40.5q-26 0 -46 7.5t-30.5 17t-21 17t-18.5 7.5z" />
    <glyph glyph-name="Imacron" unicode="&#x12a;" horiz-adv-x="318" 
d="M72 0v682h174v-682h-174zM342 873v-132h-366v132h366z" />
    <glyph glyph-name="imacron" unicode="&#x12b;" horiz-adv-x="290" 
d="M225 0h-160v500h160v-500zM318 687v-128h-346v128h346z" />
    <glyph glyph-name="Ibreve" unicode="&#x12c;" horiz-adv-x="318" 
d="M72 0v682h174v-682h-174zM220 908h129q0 -177 -192 -177q-188 0 -188 177h129q0 -29 13 -44t48 -15t48 15t13 44z" />
    <glyph glyph-name="ibreve" unicode="&#x12d;" horiz-adv-x="290" 
d="M225 0h-160v500h160v-500zM202 720h120q0 -170 -179 -170q-55 0 -92 15.5t-54 43t-23 53.5t-6 58h120q0 -57 57 -57t57 57z" />
    <glyph glyph-name="Iogonek" unicode="&#x12e;" horiz-adv-x="318" 
d="M263 -99v-84q-33 -11 -83 -11q-82 0 -114.5 20t-32.5 63q0 49 66 111h-27v682h174v-678q-46 -59 -46 -82q0 -21 30 -21h33z" />
    <glyph glyph-name="iogonek" unicode="&#x12f;" horiz-adv-x="290" 
d="M226 552h-162v150h162v-150zM242 -103v-81q-35 -10 -79 -10q-78 0 -109.5 20.5t-31.5 62.5q0 48 63 111h-20v500h160v-495q-46 -60 -46 -87q0 -21 30 -21h33z" />
    <glyph glyph-name="Idotaccent" unicode="&#x130;" horiz-adv-x="318" 
d="M72 0v682h174v-682h-174zM245 734h-172v150h172v-150z" />
    <glyph glyph-name="dotlessi" unicode="&#x131;" horiz-adv-x="290" 
d="M225 0h-160v500h160v-500z" />
    <glyph glyph-name="IJ" unicode="&#x132;" horiz-adv-x="895" 
d="M72 0v682h174v-682h-174zM656 682h174v-447q0 -118 -64 -185.5t-189 -67.5q-109 0 -179 60.5t-80 194.5l170 28q5 -69 26 -100t64 -31q78 0 78 97v451z" />
    <glyph glyph-name="ij" unicode="&#x133;" horiz-adv-x="592" 
d="M225 0h-160v500h160v-500zM64 552v150h162v-150h-162zM367 500h160v-485q0 -205 -179 -205q-40 0 -58 9v124h33q29 0 36.5 16.5t7.5 79.5v461zM528 552h-162v150h162v-150z" />
    <glyph glyph-name="Jcircumflex" unicode="&#x134;" horiz-adv-x="577" 
d="M338 682h174v-447q0 -118 -64 -185.5t-189 -67.5q-109 0 -179 60.5t-80 194.5l170 28q5 -69 26 -100t64 -31q78 0 78 97v451zM207 737l108 150h212l108 -150h-156l-60 66l-60 -66h-152z" />
    <glyph glyph-name="jcircumflex" unicode="&#x135;" horiz-adv-x="294" 
d="M69 500h160v-485q0 -205 -179 -205q-40 0 -58 9v124h33q29 0 36.5 16.5t7.5 79.5v461zM-57 552l108 150h192l108 -150h-146l-60 66l-60 -66h-142z" />
    <glyph glyph-name="Kcommaaccent" unicode="&#x136;" horiz-adv-x="718" 
d="M495 682h220l-231 -235l242 -447h-203l-167 318l-110 -112v-206h-174v682h174v-266zM285 -42h168v-63q0 -45 -36.5 -67t-122.5 -22h-29v54h17q34 0 34 24h-31v74z" />
    <glyph glyph-name="kcommaaccent" unicode="&#x137;" horiz-adv-x="574" 
d="M591 0h-192l-123 207l-51 -52v-155h-160v702h160v-365l144 163h197l-173 -175zM218 -42h158v-62q0 -44 -35 -66t-114 -22h-29v53h17q34 0 34 24h-31v73z" />
    <glyph glyph-name="kgreenlandic" unicode="&#x138;" horiz-adv-x="573" 
d="M590 0h-190l-122 187l-53 -58v-129h-160v500h160v-176l144 176h194l-176 -194z" />
    <glyph glyph-name="Lacute" unicode="&#x139;" horiz-adv-x="571" 
d="M72 0v682h174v-532h305v-150h-479zM63 734l83 150h213l-141 -150h-155z" />
    <glyph glyph-name="lacute" unicode="&#x13a;" horiz-adv-x="290" 
d="M65 0v702h160v-702h-160zM49 754l83 150h203l-141 -150h-145z" />
    <glyph glyph-name="Lcommaaccent" unicode="&#x13b;" horiz-adv-x="571" 
d="M72 0v682h174v-532h305v-150h-479zM217 -42h168v-63q0 -45 -36.5 -67t-122.5 -22h-29v54h17q34 0 34 24h-31v74z" />
    <glyph glyph-name="lcommaaccent" unicode="&#x13c;" horiz-adv-x="290" 
d="M65 0v702h160v-702h-160zM66 -42h158v-62q0 -44 -35 -66t-114 -22h-29v53h17q34 0 34 24h-31v73z" />
    <glyph glyph-name="Lcaron" unicode="&#x13d;" horiz-adv-x="571" 
d="M72 0v682h174v-532h305v-150h-479zM299 566l23 194h161l-57 -194h-127z" />
    <glyph glyph-name="lcaron" unicode="&#x13e;" horiz-adv-x="375" 
d="M65 0v702h160v-702h-160zM263 566l23 194h161l-57 -194h-127z" />
    <glyph glyph-name="Ldot" unicode="&#x13f;" horiz-adv-x="571" 
d="M72 0v682h174v-532h305v-150h-479zM536 280h-188v184h188v-184z" />
    <glyph glyph-name="ldot" unicode="&#x140;" horiz-adv-x="448" 
d="M65 0v702h160v-702h-160zM463 230h-188v184h188v-184z" />
    <glyph glyph-name="Lslash" unicode="&#x141;" horiz-adv-x="581" 
d="M434 516v-140l-178 -74v-152h305v-150h-479v230l-80 -35v141l80 33v313h174v-240z" />
    <glyph glyph-name="lslash" unicode="&#x142;" horiz-adv-x="310" 
d="M235 0h-160v222l-62 -39v141l62 39v339h160v-239l62 40v-142l-62 -39v-322z" />
    <glyph glyph-name="Nacute" unicode="&#x143;" horiz-adv-x="778" 
d="M706 0h-216l-194 341q-39 70 -67 139h-4q11 -125 11 -278v-202h-164v682h230l180 -316q39 -70 67 -139h4q-11 125 -11 278v177h164v-682zM286 734l83 150h213l-141 -150h-155z" />
    <glyph glyph-name="nacute" unicode="&#x144;" horiz-adv-x="614" 
d="M559 0h-160v250q0 79 -11 101q-18 37 -68 37q-39 0 -62 -23q-33 -33 -33 -114v-251h-160v240q0 122 -3 260h148l3 -60h1q52 76 157 76q89 0 138.5 -51.5t49.5 -156.5v-308zM211 556l83 150h203l-141 -150h-145z" />
    <glyph glyph-name="Ncommaaccent" unicode="&#x145;" horiz-adv-x="778" 
d="M706 0h-216l-194 341q-39 70 -67 139h-4q11 -125 11 -278v-202h-164v682h230l180 -316q39 -70 67 -139h4q-11 125 -11 278v177h164v-682zM315 -42h168v-63q0 -45 -36.5 -67t-122.5 -22h-29v54h17q34 0 34 24h-31v74z" />
    <glyph glyph-name="ncommaaccent" unicode="&#x146;" horiz-adv-x="614" 
d="M559 0h-160v250q0 79 -11 101q-18 37 -68 37q-39 0 -62 -23q-33 -33 -33 -114v-251h-160v240q0 122 -3 260h148l3 -60h1q52 76 157 76q89 0 138.5 -51.5t49.5 -156.5v-308zM238 -42h158v-62q0 -44 -35 -66t-114 -22h-29v53h17q34 0 34 24h-31v73z" />
    <glyph glyph-name="Ncaron" unicode="&#x147;" horiz-adv-x="778" 
d="M706 0h-216l-194 341q-39 70 -67 139h-4q11 -125 11 -278v-202h-164v682h230l180 -316q39 -70 67 -139h4q-11 125 -11 278v177h164v-682zM603 887l-108 -150h-212l-108 150h156l60 -66l60 66h152z" />
    <glyph glyph-name="ncaron" unicode="&#x148;" horiz-adv-x="614" 
d="M559 0h-160v250q0 79 -11 101q-18 37 -68 37q-39 0 -62 -23q-33 -33 -33 -114v-251h-160v240q0 122 -3 260h148l3 -60h1q52 76 157 76q89 0 138.5 -51.5t49.5 -156.5v-308zM511 706l-108 -150h-192l-108 150h146l60 -66l60 66h142z" />
    <glyph glyph-name="Eng" unicode="&#x14a;" horiz-adv-x="778" 
d="M468 -53h33q25 0 33 9t8 33v3l-233 346q-50 76 -81 141h-3q11 -128 11 -277v-202h-164v682h214l175 -259q58 -87 90 -156h4q-13 88 -13 233v182h164v-686q0 -186 -180 -186q-37 0 -58 9v128z" />
    <glyph glyph-name="eng" unicode="&#x14b;" horiz-adv-x="614" 
d="M399 39v211q0 79 -11 101q-18 37 -68 37q-39 0 -62 -23q-33 -33 -33 -114v-251h-160v240q0 122 -3 260h148l3 -60h1q52 76 157 76q89 0 138.5 -51.5t49.5 -156.5v-299q0 -199 -179 -199q-42 0 -58 9v124h33q29 0 36.5 16.5t7.5 79.5z" />
    <glyph glyph-name="Omacron" unicode="&#x14c;" horiz-adv-x="794" 
d="M573 341q0 92 -47 147.5t-129 55.5t-129 -55.5t-47 -147.5t47 -147.5t129 -55.5t129 55.5t47 147.5zM757 343q0 -162 -101 -261.5t-261 -99.5q-161 0 -259.5 97t-98.5 260q0 162 101 261.5t261 99.5q161 0 259.5 -97t98.5 -260zM580 873v-132h-366v132h366z" />
    <glyph glyph-name="omacron" unicode="&#x14d;" horiz-adv-x="604" 
d="M402 250q0 63 -26.5 98t-73.5 35t-73.5 -35t-26.5 -98t26.5 -98t73.5 -35t73.5 35t26.5 98zM572 251q0 -125 -76 -196t-196 -71q-123 0 -195.5 68.5t-72.5 196.5q0 125 76 196t196 71q123 0 195.5 -68.5t72.5 -196.5zM475 691v-128h-346v128h346z" />
    <glyph glyph-name="Obreve" unicode="&#x14e;" horiz-adv-x="794" 
d="M573 341q0 92 -47 147.5t-129 55.5t-129 -55.5t-47 -147.5t47 -147.5t129 -55.5t129 55.5t47 147.5zM757 343q0 -162 -101 -261.5t-261 -99.5q-161 0 -259.5 97t-98.5 260q0 162 101 261.5t261 99.5q161 0 259.5 -97t98.5 -260zM458 908h129q0 -177 -192 -177
q-188 0 -188 177h129q0 -29 13 -44t48 -15t48 15t13 44z" />
    <glyph glyph-name="obreve" unicode="&#x14f;" horiz-adv-x="604" 
d="M402 250q0 63 -26.5 98t-73.5 35t-73.5 -35t-26.5 -98t26.5 -98t73.5 -35t73.5 35t26.5 98zM572 251q0 -125 -76 -196t-196 -71q-123 0 -195.5 68.5t-72.5 196.5q0 125 76 196t196 71q123 0 195.5 -68.5t72.5 -196.5zM359 724h120q0 -170 -179 -170q-55 0 -92 15.5
t-54 43t-23 53.5t-6 58h120q0 -57 57 -57t57 57z" />
    <glyph glyph-name="Ohungarumlaut" unicode="&#x150;" horiz-adv-x="794" 
d="M573 341q0 92 -47 147.5t-129 55.5t-129 -55.5t-47 -147.5t47 -147.5t129 -55.5t129 55.5t47 147.5zM757 343q0 -162 -101 -261.5t-261 -99.5q-161 0 -259.5 97t-98.5 260q0 162 101 261.5t261 99.5q161 0 259.5 -97t98.5 -260zM190 734l54 150h200l-102 -150h-152z
M434 734l83 150h213l-141 -150h-155z" />
    <glyph glyph-name="ohungarumlaut" unicode="&#x151;" horiz-adv-x="604" 
d="M402 250q0 63 -26.5 98t-73.5 35t-73.5 -35t-26.5 -98t26.5 -98t73.5 -35t73.5 35t26.5 98zM572 251q0 -125 -76 -196t-196 -71q-123 0 -195.5 68.5t-72.5 196.5q0 125 76 196t196 71q123 0 195.5 -68.5t72.5 -196.5zM101 556l54 150h195l-107 -150h-142zM326 556l84 150
h202l-141 -150h-145z" />
    <glyph glyph-name="OE" unicode="&#x152;" horiz-adv-x="1138" 
d="M1096 0h-522v59h-1q-25 -34 -75 -53.5t-113 -19.5q-155 0 -251.5 96t-96.5 257q0 160 99 258.5t253 98.5q117 0 184 -64h1v50h505v-135h-331v-135h284v-130h-284v-146h348v-136zM573 341q0 92 -47 147.5t-129 55.5t-129 -55.5t-47 -147.5t47 -147.5t129 -55.5t129 55.5
t47 147.5z" />
    <glyph glyph-name="oe" unicode="&#x153;" horiz-adv-x="953" 
d="M849 157l55 -104q-104 -69 -229 -69q-137 0 -195 80q-28 -39 -76 -59.5t-104 -20.5q-123 0 -195.5 68.5t-72.5 196.5q0 125 75.5 196t195.5 71q127 0 182 -80q28 39 76 59.5t104 20.5q120 0 188 -67.5t68 -193.5q0 -33 -5 -56h-350q16 -93 123 -93q90 0 160 51zM302 117
q47 0 73 35t26 98t-26.5 98t-73.5 35t-73 -35t-26 -98t26.5 -98t73.5 -35zM567 305h185q-2 45 -26 69t-63 24q-81 0 -96 -93z" />
    <glyph glyph-name="Racute" unicode="&#x154;" horiz-adv-x="713" 
d="M701 0h-213l-137 229h-105v-229h-174v682q53 0 157.5 1t141.5 1q44 0 83 -5.5t79.5 -20.5t69 -38.5t46.5 -63.5t18 -92q0 -148 -134 -205zM246 540v-169q37 -1 119 -1q118 0 118 90q0 81 -121 81q-22 0 -60.5 -0.5t-55.5 -0.5zM254 734l83 150h213l-141 -150h-155z" />
    <glyph glyph-name="racute" unicode="&#x155;" horiz-adv-x="408" 
d="M225 0h-160v240q0 122 -3 260h148l4 -82h1q29 52 65 75t85 23q21 0 35 -2v-159q-18 2 -38 2q-65 0 -97 -32q-26 -26 -33 -61.5t-7 -102.5v-161zM140 552l83 150h203l-141 -150h-145z" />
    <glyph glyph-name="Rcommaaccent" unicode="&#x156;" horiz-adv-x="713" 
d="M701 0h-213l-137 229h-105v-229h-174v682q53 0 157.5 1t141.5 1q44 0 83 -5.5t79.5 -20.5t69 -38.5t46.5 -63.5t18 -92q0 -148 -134 -205zM246 540v-169q37 -1 119 -1q118 0 118 90q0 81 -121 81q-22 0 -60.5 -0.5t-55.5 -0.5zM282 -42h168v-63q0 -45 -36.5 -67
t-122.5 -22h-29v54h17q34 0 34 24h-31v74z" />
    <glyph glyph-name="rcommaaccent" unicode="&#x157;" horiz-adv-x="408" 
d="M225 0h-160v240q0 122 -3 260h148l4 -82h1q29 52 65 75t85 23q21 0 35 -2v-159q-18 2 -38 2q-65 0 -97 -32q-26 -26 -33 -61.5t-7 -102.5v-161zM66 -42h158v-62q0 -44 -35 -66t-114 -22h-29v53h17q34 0 34 24h-31v73z" />
    <glyph glyph-name="Rcaron" unicode="&#x158;" horiz-adv-x="713" 
d="M701 0h-213l-137 229h-105v-229h-174v682q53 0 157.5 1t141.5 1q44 0 83 -5.5t79.5 -20.5t69 -38.5t46.5 -63.5t18 -92q0 -148 -134 -205zM246 540v-169q37 -1 119 -1q118 0 118 90q0 81 -121 81q-22 0 -60.5 -0.5t-55.5 -0.5zM570 887l-108 -150h-212l-108 150h156
l60 -66l60 66h152z" />
    <glyph glyph-name="rcaron" unicode="&#x159;" horiz-adv-x="408" 
d="M225 0h-160v240q0 122 -3 260h148l4 -82h1q29 52 65 75t85 23q21 0 35 -2v-159q-18 2 -38 2q-65 0 -97 -32q-26 -26 -33 -61.5t-7 -102.5v-161zM430 702l-108 -150h-192l-108 150h146l60 -66l60 66h142z" />
    <glyph glyph-name="Sacute" unicode="&#x15a;" horiz-adv-x="688" 
d="M39 68l63 136q126 -80 250 -80q60 0 86.5 17.5t26.5 44.5q0 25 -23 40.5t-59 23.5t-80.5 15t-88.5 20.5t-80 35.5t-59 64t-23 102q0 94 76 153.5t210 59.5q125 0 256 -63l-60 -139q-101 61 -200 61q-55 0 -78.5 -16t-23.5 -39q0 -24 23 -38.5t59.5 -21.5t81 -13.5
t88.5 -20.5t80.5 -36t59.5 -66t23 -105q0 -96 -80 -158.5t-219 -62.5q-74 0 -158 23t-151 63zM241 734l83 150h213l-141 -150h-155z" />
    <glyph glyph-name="sacute" unicode="&#x15b;" horiz-adv-x="528" 
d="M28 47l55 116q93 -57 188 -57q66 0 66 33q0 18 -21.5 28.5t-54.5 14t-70.5 13t-70.5 23.5t-54.5 48t-21.5 84q0 77 59.5 121.5t165.5 44.5q109 0 199 -45l-51 -111q-69 39 -150 39q-60 0 -60 -30q0 -18 22 -28t54.5 -13t71 -12.5t71 -24t54.5 -48.5t22 -85
q0 -81 -62 -127.5t-171 -46.5q-123 0 -241 63zM172 556l83 150h203l-141 -150h-145z" />
    <glyph glyph-name="Scircumflex" unicode="&#x15c;" horiz-adv-x="688" 
d="M39 68l63 136q126 -80 250 -80q60 0 86.5 17.5t26.5 44.5q0 25 -23 40.5t-59 23.5t-80.5 15t-88.5 20.5t-80 35.5t-59 64t-23 102q0 94 76 153.5t210 59.5q125 0 256 -63l-60 -139q-101 61 -200 61q-55 0 -78.5 -16t-23.5 -39q0 -24 23 -38.5t59.5 -21.5t81 -13.5
t88.5 -20.5t80.5 -36t59.5 -66t23 -105q0 -96 -80 -158.5t-219 -62.5q-74 0 -158 23t-151 63zM130 737l108 150h212l108 -150h-156l-60 66l-60 -66h-152z" />
    <glyph glyph-name="scircumflex" unicode="&#x15d;" horiz-adv-x="528" 
d="M28 47l55 116q93 -57 188 -57q66 0 66 33q0 18 -21.5 28.5t-54.5 14t-70.5 13t-70.5 23.5t-54.5 48t-21.5 84q0 77 59.5 121.5t165.5 44.5q109 0 199 -45l-51 -111q-69 39 -150 39q-60 0 -60 -30q0 -18 22 -28t54.5 -13t71 -12.5t71 -24t54.5 -48.5t22 -85
q0 -81 -62 -127.5t-171 -46.5q-123 0 -241 63zM62 556l108 150h192l108 -150h-146l-60 66l-60 -66h-142z" />
    <glyph glyph-name="Scedilla" unicode="&#x15e;" horiz-adv-x="688" 
d="M384 -180h-159q46 43 46 65q0 20 -35 39l35 62q-129 25 -232 82l63 136q126 -80 250 -80q60 0 86.5 17.5t26.5 44.5q0 25 -23 40.5t-59 23.5t-80.5 15t-88.5 20.5t-80 35.5t-59 64t-23 102q0 94 76 153.5t210 59.5q125 0 256 -63l-60 -139q-101 61 -200 61
q-55 0 -78.5 -16t-23.5 -39q0 -24 23 -38.5t59.5 -21.5t81 -13.5t88.5 -20.5t80.5 -36t59.5 -66t23 -105q0 -86 -64 -146t-179 -72l-10 -17q44 -34 44 -71q0 -43 -54 -77z" />
    <glyph glyph-name="scedilla" unicode="&#x15f;" horiz-adv-x="528" 
d="M309 -180h-152q43 43 43 65q0 9 -7 17.5t-11.5 11.5l-16.5 11l36 64q-92 13 -173 58l55 116q93 -57 188 -57q66 0 66 33q0 18 -21.5 28.5t-54.5 14t-70.5 13t-70.5 23.5t-54.5 48t-21.5 84q0 77 59.5 121.5t165.5 44.5q109 0 199 -45l-51 -111q-69 39 -150 39
q-60 0 -60 -30q0 -18 22 -28t54.5 -13t71 -12.5t71 -24t54.5 -48.5t22 -85q0 -70 -47 -114.5t-131 -55.5l-11 -20q44 -34 44 -71q0 -41 -48 -77z" />
    <glyph glyph-name="Scaron" unicode="&#x160;" horiz-adv-x="688" 
d="M39 68l63 136q126 -80 250 -80q60 0 86.5 17.5t26.5 44.5q0 25 -23 40.5t-59 23.5t-80.5 15t-88.5 20.5t-80 35.5t-59 64t-23 102q0 94 76 153.5t210 59.5q125 0 256 -63l-60 -139q-101 61 -200 61q-55 0 -78.5 -16t-23.5 -39q0 -24 23 -38.5t59.5 -21.5t81 -13.5
t88.5 -20.5t80.5 -36t59.5 -66t23 -105q0 -96 -80 -158.5t-219 -62.5q-74 0 -158 23t-151 63zM558 887l-108 -150h-212l-108 150h156l60 -66l60 66h152z" />
    <glyph glyph-name="scaron" unicode="&#x161;" horiz-adv-x="528" 
d="M28 47l55 116q93 -57 188 -57q66 0 66 33q0 18 -21.5 28.5t-54.5 14t-70.5 13t-70.5 23.5t-54.5 48t-21.5 84q0 77 59.5 121.5t165.5 44.5q109 0 199 -45l-51 -111q-69 39 -150 39q-60 0 -60 -30q0 -18 22 -28t54.5 -13t71 -12.5t71 -24t54.5 -48.5t22 -85
q0 -81 -62 -127.5t-171 -46.5q-123 0 -241 63zM470 706l-108 -150h-192l-108 150h146l60 -66l60 66h142z" />
    <glyph glyph-name="Tcommaaccent" unicode="&#x162;" horiz-adv-x="542" 
d="M182 0v539h-185v143h548v-143h-185v-539h-178zM187 -42h168v-63q0 -45 -36.5 -67t-122.5 -22h-29v54h17q34 0 34 24h-31v74z" />
    <glyph glyph-name="tcommaaccent" unicode="&#x163;" horiz-adv-x="376" 
d="M79 373h-61v127h61v139l160 29v-168h108v-127h-108v-162q0 -45 2 -60t10 -23q11 -11 35 -11q35 0 61 7v-123q-44 -17 -106 -17q-88 0 -125.5 40t-36.5 130v219zM137 -42h158v-62q0 -44 -35 -66t-114 -22h-29v53h17q34 0 34 24h-31v73z" />
    <glyph glyph-name="Tcaron" unicode="&#x164;" horiz-adv-x="542" 
d="M182 0v539h-185v143h548v-143h-185v-539h-178zM485 887l-108 -150h-212l-108 150h156l60 -66l60 66h152z" />
    <glyph glyph-name="tcaron" unicode="&#x165;" horiz-adv-x="376" 
d="M79 373h-61v127h61v139l160 29v-168h108v-127h-108v-162q0 -45 2 -60t10 -23q11 -11 35 -11q35 0 61 7v-123q-44 -17 -106 -17q-88 0 -125.5 40t-36.5 130v219zM272 566l23 194h161l-57 -194h-127z" />
    <glyph glyph-name="Tbar" unicode="&#x166;" horiz-adv-x="542" 
d="M360 0h-178v255h-141v132h141v152h-185v143h548v-143h-185v-152h141v-132h-141v-255z" />
    <glyph glyph-name="tbar" unicode="&#x167;" horiz-adv-x="376" 
d="M79 308v65h-61v127h61v139l160 29v-168h108v-127h-108v-65h78v-118h-78v-1q0 -49 12 -61q11 -11 35 -11q35 0 61 7v-123q-44 -17 -106 -17q-88 0 -125.5 40t-36.5 130v36h-48v118h48z" />
    <glyph glyph-name="Utilde" unicode="&#x168;" horiz-adv-x="746" 
d="M239 682v-395q0 -68 36 -108.5t104 -40.5q138 0 138 149v395h164v-405q0 -130 -78 -212.5t-227 -82.5q-152 0 -231.5 80t-79.5 211v409h174zM297 769q-22 0 -22 -35h-126q0 74 37 116.5t116 42.5q38 0 68.5 -11t49.5 -22t29 -11q22 0 22 35h126q0 -74 -37 -116.5
t-116 -42.5q-38 0 -68.5 11t-49.5 22t-29 11z" />
    <glyph glyph-name="utilde" unicode="&#x169;" horiz-adv-x="610" 
d="M548 0h-148l-3 60h-1q-52 -76 -155 -76q-88 0 -137 51.5t-49 156.5v308h160v-250q0 -79 11 -101q18 -37 66 -37q38 0 61 23q32 32 32 114v251h160v-253q0 -118 3 -247zM232 591q-22 0 -22 -35h-115q0 156 143 156q36 0 64.5 -10t47 -20.5t28.5 -10.5q22 0 22 35h115
q0 -156 -143 -156q-36 0 -64.5 10t-47 20.5t-28.5 10.5z" />
    <glyph glyph-name="Umacron" unicode="&#x16a;" horiz-adv-x="746" 
d="M239 682v-395q0 -68 36 -108.5t104 -40.5q138 0 138 149v395h164v-405q0 -130 -78 -212.5t-227 -82.5q-152 0 -231.5 80t-79.5 211v409h174zM556 873v-132h-366v132h366z" />
    <glyph glyph-name="umacron" unicode="&#x16b;" horiz-adv-x="610" 
d="M548 0h-148l-3 60h-1q-52 -76 -155 -76q-88 0 -137 51.5t-49 156.5v308h160v-250q0 -79 11 -101q18 -37 66 -37q38 0 61 23q32 32 32 114v251h160v-253q0 -118 3 -247zM478 687v-128h-346v128h346z" />
    <glyph glyph-name="Ubreve" unicode="&#x16c;" horiz-adv-x="746" 
d="M239 682v-395q0 -68 36 -108.5t104 -40.5q138 0 138 149v395h164v-405q0 -130 -78 -212.5t-227 -82.5q-152 0 -231.5 80t-79.5 211v409h174zM434 908h129q0 -177 -192 -177q-188 0 -188 177h129q0 -29 13 -44t48 -15t48 15t13 44z" />
    <glyph glyph-name="ubreve" unicode="&#x16d;" horiz-adv-x="610" 
d="M548 0h-148l-3 60h-1q-52 -76 -155 -76q-88 0 -137 51.5t-49 156.5v308h160v-250q0 -79 11 -101q18 -37 66 -37q38 0 61 23q32 32 32 114v251h160v-253q0 -118 3 -247zM362 720h120q0 -170 -179 -170q-55 0 -92 15.5t-54 43t-23 53.5t-6 58h120q0 -57 57 -57t57 57z" />
    <glyph glyph-name="Uring" unicode="&#x16e;" horiz-adv-x="746" 
d="M239 682v-395q0 -68 36 -108.5t104 -40.5q138 0 138 149v395h164v-405q0 -130 -78 -212.5t-227 -82.5q-152 0 -231.5 80t-79.5 211v409h174zM526 835q0 -51 -40.5 -84t-113.5 -33q-74 0 -113 32t-39 83t40.5 84t113.5 33q74 0 113 -32t39 -83zM405 834q0 38 -32 38
t-32 -38t32 -38t32 38z" />
    <glyph glyph-name="uring" unicode="&#x16f;" horiz-adv-x="610" 
d="M548 0h-148l-3 60h-1q-52 -76 -155 -76q-88 0 -137 51.5t-49 156.5v308h160v-250q0 -79 11 -101q18 -37 66 -37q38 0 61 23q32 32 32 114v251h160v-253q0 -118 3 -247zM458 663q0 -51 -40.5 -84t-113.5 -33q-74 0 -113 32t-39 83t40.5 84t113.5 33q74 0 113 -32t39 -83z
M337 662q0 38 -32 38t-32 -38t32 -38t32 38z" />
    <glyph glyph-name="Uhungarumlaut" unicode="&#x170;" horiz-adv-x="746" 
d="M239 682v-395q0 -68 36 -108.5t104 -40.5q138 0 138 149v395h164v-405q0 -130 -78 -212.5t-227 -82.5q-152 0 -231.5 80t-79.5 211v409h174zM176 734l54 150h200l-102 -150h-152zM420 734l83 150h213l-141 -150h-155z" />
    <glyph glyph-name="uhungarumlaut" unicode="&#x171;" horiz-adv-x="610" 
d="M548 0h-148l-3 60h-1q-52 -76 -155 -76q-88 0 -137 51.5t-49 156.5v308h160v-250q0 -79 11 -101q18 -37 66 -37q38 0 61 23q32 32 32 114v251h160v-253q0 -118 3 -247zM102 552l54 150h195l-107 -150h-142zM327 552l84 150h202l-141 -150h-145z" />
    <glyph glyph-name="Uogonek" unicode="&#x172;" horiz-adv-x="746" 
d="M577 -99v-84q-44 -11 -83 -11q-82 0 -114.5 20t-32.5 63q0 46 46 95q-10 -2 -17 -2q-152 0 -231.5 80t-79.5 211v409h174v-395q0 -68 36 -108.5t104 -40.5q138 0 138 149v395h164v-405q0 -135 -79 -214q-6 -6 -18.5 -17t-19.5 -18q-22 -22 -36 -53t-14 -53q0 -21 32 -21
h31z" />
    <glyph glyph-name="uogonek" unicode="&#x173;" horiz-adv-x="610" 
d="M400 -4l-3 64h-1q-52 -76 -155 -76q-88 0 -137 51.5t-49 156.5v308h160v-250q0 -79 11 -101q18 -37 66 -37q38 0 61 23q32 32 32 114v251h160v-240q0 -170 3 -260q-52 -49 -52 -82q0 -21 30 -21h33v-81q-35 -10 -79 -10q-78 0 -109.5 20.5t-31.5 62.5q0 47 61 107z" />
    <glyph glyph-name="Wcircumflex" unicode="&#x174;" horiz-adv-x="1077" 
d="M426 0h-227l-183 682h194l71 -314q18 -79 39 -199h4q17 91 45 198l82 315h191l80 -315q36 -139 47 -198h4q14 87 40 204l70 309h178l-183 -682h-227l-66 252q-39 149 -45 192h-4q-7 -51 -44 -192zM324 737l108 150h212l108 -150h-156l-60 66l-60 -66h-152z" />
    <glyph glyph-name="wcircumflex" unicode="&#x175;" horiz-adv-x="836" 
d="M679 0h-190l-42 165q-17 65 -28 142h-2q-11 -77 -28 -142l-42 -165h-190l-151 500h170l56 -202q18 -67 32 -149h3q14 96 28 150l51 201h156l51 -202q15 -59 30 -149h3q8 57 29 149l47 202h168zM214 552l108 150h192l108 -150h-146l-60 66l-60 -66h-142z" />
    <glyph glyph-name="Ycircumflex" unicode="&#x176;" horiz-adv-x="658" 
d="M416 0h-174v271l-242 411h209l125 -238l121 238h203l-242 -411v-271zM115 737l108 150h212l108 -150h-156l-60 66l-60 -66h-152z" />
    <glyph glyph-name="ycircumflex" unicode="&#x177;" horiz-adv-x="538" 
d="M305 -180h-179l79 180h-34l-174 500h179l58 -195q27 -94 38 -157h3q10 52 37 157l51 195h178zM65 552l108 150h192l108 -150h-146l-60 66l-60 -66h-142z" />
    <glyph glyph-name="Ydieresis" unicode="&#x178;" horiz-adv-x="658" 
d="M416 0h-174v271l-242 411h209l125 -238l121 238h203l-242 -411v-271zM284 734h-160v150h160v-150zM534 734h-160v150h160v-150z" />
    <glyph glyph-name="Zacute" unicode="&#x179;" horiz-adv-x="628" 
d="M596 145v-145h-564v144l325 397q-134 -2 -202 -2h-108v143h534v-143l-326 -396q128 2 179 2h162zM211 734l83 150h213l-141 -150h-155z" />
    <glyph glyph-name="zacute" unicode="&#x17a;" horiz-adv-x="535" 
d="M491 130v-130h-447v130l222 244q-76 -2 -128 -2h-83v128h424v-128l-222 -244q84 2 129 2h105zM171 552l83 150h203l-141 -150h-145z" />
    <glyph glyph-name="Zdotaccent" unicode="&#x17b;" horiz-adv-x="628" 
d="M596 145v-145h-564v144l325 397q-134 -2 -202 -2h-108v143h534v-143l-326 -396q128 2 179 2h162zM400 734h-172v150h172v-150z" />
    <glyph glyph-name="zdotaccent" unicode="&#x17c;" horiz-adv-x="535" 
d="M491 130v-130h-447v130l222 244q-76 -2 -128 -2h-83v128h424v-128l-222 -244q84 2 129 2h105zM348 552h-162v150h162v-150z" />
    <glyph glyph-name="Zcaron" unicode="&#x17d;" horiz-adv-x="628" 
d="M596 145v-145h-564v144l325 397q-134 -2 -202 -2h-108v143h534v-143l-326 -396q128 2 179 2h162zM528 887l-108 -150h-212l-108 150h156l60 -66l60 66h152z" />
    <glyph glyph-name="zcaron" unicode="&#x17e;" horiz-adv-x="535" 
d="M491 130v-130h-447v130l222 244q-76 -2 -128 -2h-83v128h424v-128l-222 -244q84 2 129 2h105zM471 702l-108 -150h-192l-108 150h146l60 -66l60 66h142z" />
    <glyph glyph-name="longs" unicode="&#x17f;" horiz-adv-x="290" 
d="M225 0h-160v536q0 180 199 180q34 0 54 -3v-130q-24 3 -43 3q-26 0 -38 -13.5t-12 -50.5v-522z" />
    <glyph glyph-name="uni018F" unicode="&#x18f;" horiz-adv-x="729" 
d="M201 459l-144 73q104 168 298 168q146 0 241.5 -97t95.5 -261q0 -159 -96.5 -259.5t-241.5 -100.5q-164 0 -244 96t-80 253q0 35 6 70h467q-12 73 -54 109t-101 36q-100 0 -147 -87zM356 138q59 0 97 36t50 103h-289q0 -62 37.5 -100.5t104.5 -38.5z" />
    <glyph glyph-name="florin" unicode="&#x192;" horiz-adv-x="543" 
d="M488 438v-130h-152l-24 -229q-13 -127 -69.5 -179.5t-174.5 -52.5q-51 0 -86 10l26 132q38 -8 65 -8q30 0 46 20t22 78l24 229h-117v130h131l8 67q14 127 70 179.5t174 52.5q45 0 85 -10l-26 -132q-34 8 -64 8t-46 -20t-22 -78l-8 -67h138z" />
    <glyph glyph-name="Gcaron" unicode="&#x1e6;" horiz-adv-x="777" 
d="M713 0h-144v58h-1q-68 -76 -196 -76q-146 0 -240.5 96.5t-94.5 260.5q0 162 101 261.5t261 99.5q204 0 305 -123l-133 -117q-57 86 -174 86q-82 0 -129 -55.5t-47 -147.5q0 -95 47 -151t129 -56q71 0 108 33t37 80v5h-132v131h303v-385zM614 887l-108 -150h-212l-108 150
h156l60 -66l60 66h152z" />
    <glyph glyph-name="gcaron" unicode="&#x1e7;" horiz-adv-x="621" 
d="M417 500h147q-8 -88 -8 -252v-232q0 -210 -257 -210q-127 0 -227 39l38 126q95 -42 191 -42q95 0 95 71q0 25 3 57h-2q-48 -61 -147 -61q-103 0 -160.5 69.5t-57.5 188.5q0 115 65 188.5t170 73.5q99 0 144 -70h1zM399 254v4q0 59 -26.5 94.5t-72.5 35.5
q-47 0 -72.5 -36.5t-25.5 -96.5q0 -58 26.5 -95.5t74.5 -37.5q43 0 69.5 36.5t26.5 95.5zM507 706l-108 -150h-192l-108 150h146l60 -66l60 66h142z" />
    <glyph glyph-name="Aringacute" unicode="&#x1fa;" horiz-adv-x="713" 
d="M509 722q0 -44 -31 -75l226 -647h-202l-36 124h-232l-35 -124h-190l224 644q-30 30 -30 76q0 51 40.5 84t113.5 33q74 0 113 -32t39 -83zM314 401l-42 -147h156l-43 147q-22 79 -35 137h-1q-15 -67 -35 -137zM275 860l73 120h195l-127 -120h-141zM388 721q0 38 -32 38
t-32 -38t32 -38t32 38z" />
    <glyph glyph-name="aringacute" unicode="&#x1fb;" horiz-adv-x="555" 
d="M340 201v10q-89 0 -120 -15t-31 -44q0 -47 55 -47q38 0 67 26.5t29 69.5zM101 341l-67 96q103 79 239 79q111 0 169 -47.5t58 -141.5v-90q0 -96 3 -237h-149l-2 51h-1q-57 -67 -152 -67q-87 0 -132 44t-45 113q0 176 318 176v10q0 70 -87 70q-85 0 -152 -56zM423 658
q0 -46 -38.5 -77t-108.5 -31q-71 0 -108 29.5t-37 76.5q0 46 38.5 77t108.5 31q71 0 108 -29.5t37 -76.5zM307 657q0 35 -30 35t-30 -35t30 -35t30 35zM207 797l73 133h179l-124 -133h-128z" />
    <glyph glyph-name="AEacute" unicode="&#x1fc;" horiz-adv-x="996" 
d="M279 682h658v-135h-322v-135h275v-130h-275v-146h339v-136h-513v106h-222l-41 -106h-191zM396 547l-125 -311h170v311h-45zM508 734l83 150h213l-141 -150h-155z" />
    <glyph glyph-name="aeacute" unicode="&#x1fd;" horiz-adv-x="890" 
d="M101 341l-67 96q103 79 239 79q114 0 167 -53q56 53 162 53q120 0 188 -67.5t68 -193.5q0 -33 -5 -56h-350q16 -93 123 -93q90 0 160 51l55 -104q-103 -69 -229 -69q-148 0 -211 100q-27 -49 -79 -74.5t-117 -25.5q-91 0 -137 43.5t-46 113.5q0 176 318 176v10
q0 70 -87 70q-85 0 -152 -56zM504 305h185q-2 45 -26 69t-63 24q-80 0 -96 -93zM244 105q38 0 67 26.5t29 69.5v10q-89 0 -120 -15t-31 -44q0 -47 55 -47zM362 552l83 150h203l-141 -150h-145z" />
    <glyph glyph-name="Oslashacute" unicode="&#x1fe;" horiz-adv-x="794" 
d="M144 -49l-111 97l68 75q-64 91 -64 216q0 162 101 261.5t261 99.5q101 0 184 -44l67 75l111 -97l-68 -75q64 -91 64 -216q0 -162 -101 -261.5t-261 -99.5q-101 0 -184 44zM567 424l-250 -276q37 -15 80 -15q84 0 132 56.5t48 151.5q0 39 -10 83zM227 258l250 276
q-37 15 -80 15q-84 0 -132 -56.5t-48 -151.5q0 -39 10 -83zM294 734l83 150h213l-141 -150h-155z" />
    <glyph glyph-name="oslashacute" unicode="&#x1ff;" horiz-adv-x="604" 
d="M113 -49l-86 80l50 55q-45 65 -45 163q0 125 76 196t196 71q74 0 134 -27l53 60l86 -80l-50 -55q45 -65 45 -163q0 -125 -76 -196t-196 -71q-74 0 -134 27zM191 208l156 173q-20 9 -45 9q-51 0 -79.5 -37t-28.5 -103q0 -30 -3 -42zM413 292l-156 -173q16 -9 45 -9
q51 0 79.5 37t28.5 103q0 30 3 42zM206 556l83 150h203l-141 -150h-145z" />
    <glyph glyph-name="Scommaaccent" unicode="&#x218;" horiz-adv-x="688" 
d="M39 68l63 136q126 -80 250 -80q60 0 86.5 17.5t26.5 44.5q0 25 -23 40.5t-59 23.5t-80.5 15t-88.5 20.5t-80 35.5t-59 64t-23 102q0 94 76 153.5t210 59.5q125 0 256 -63l-60 -139q-101 61 -200 61q-55 0 -78.5 -16t-23.5 -39q0 -24 23 -38.5t59.5 -21.5t81 -13.5
t88.5 -20.5t80.5 -36t59.5 -66t23 -105q0 -96 -80 -158.5t-219 -62.5q-74 0 -158 23t-151 63zM270 -42h168v-63q0 -45 -36.5 -67t-122.5 -22h-29v54h17q34 0 34 24h-31v74z" />
    <glyph glyph-name="scommaaccent" unicode="&#x219;" horiz-adv-x="528" 
d="M28 47l55 116q93 -57 188 -57q66 0 66 33q0 18 -21.5 28.5t-54.5 14t-70.5 13t-70.5 23.5t-54.5 48t-21.5 84q0 77 59.5 121.5t165.5 44.5q109 0 199 -45l-51 -111q-69 39 -150 39q-60 0 -60 -30q0 -18 22 -28t54.5 -13t71 -12.5t71 -24t54.5 -48.5t22 -85
q0 -81 -62 -127.5t-171 -46.5q-123 0 -241 63zM195 -42h158v-62q0 -44 -35 -66t-114 -22h-29v53h17q34 0 34 24h-31v73z" />
    <glyph glyph-name="uni021A" unicode="&#x21a;" horiz-adv-x="542" 
d="M182 0v539h-185v143h548v-143h-185v-539h-178zM187 -42h168v-63q0 -45 -36.5 -67t-122.5 -22h-29v54h17q34 0 34 24h-31v74z" />
    <glyph glyph-name="uni021B" unicode="&#x21b;" horiz-adv-x="376" 
d="M79 373h-61v127h61v139l160 29v-168h108v-127h-108v-162q0 -45 2 -60t10 -23q11 -11 35 -11q35 0 61 7v-123q-44 -17 -106 -17q-88 0 -125.5 40t-36.5 130v219zM137 -42h158v-62q0 -44 -35 -66t-114 -22h-29v53h17q34 0 34 24h-31v73z" />
    <glyph glyph-name="dotlessj" unicode="&#x237;" horiz-adv-x="294" 
d="M69 500h160v-485q0 -205 -179 -205q-40 0 -58 9v124h33q29 0 36.5 16.5t7.5 79.5v461z" />
    <glyph glyph-name="uni0259" unicode="&#x259;" horiz-adv-x="591" 
d="M104 343l-55 104q104 69 229 69q133 0 207 -68t74 -197q0 -125 -75.5 -196t-195.5 -71t-188 67.5t-68 193.5q0 33 5 56h350q-16 93 -123 93q-90 0 -160 -51zM386 195h-185q2 -45 26 -69t63 -24q80 0 96 93z" />
    <glyph glyph-name="quoteleft" unicode="&#x2bb;" horiz-adv-x="320" 
d="M254 490h-188v147q0 89 37 136t132 78l32 -88q-47 -25 -62 -44.5t-15 -51.5h64v-177z" />
    <glyph glyph-name="quoteleft" unicode="&#x2018;" horiz-adv-x="320" 
d="M254 490h-188v147q0 89 37 136t132 78l32 -88q-47 -25 -62 -44.5t-15 -51.5h64v-177z" />
    <glyph glyph-name="quoteright" unicode="&#x2bc;" horiz-adv-x="320" 
d="M66 821h188v-147q0 -93 -39 -138.5t-130 -75.5l-32 87q46 27 61.5 45.5t15.5 51.5h-64v177z" />
    <glyph glyph-name="quoteright" unicode="&#x2019;" horiz-adv-x="320" 
d="M66 821h188v-147q0 -93 -39 -138.5t-130 -75.5l-32 87q46 27 61.5 45.5t15.5 51.5h-64v177z" />
    <glyph glyph-name="circumflex" unicode="&#x2c6;" horiz-adv-x="512" 
d="M52 552l108 150h192l108 -150h-146l-60 66l-60 -66h-142z" />
    <glyph glyph-name="caron" unicode="&#x2c7;" horiz-adv-x="512" 
d="M460 702l-108 -150h-192l-108 150h146l60 -66l60 66h142z" />
    <glyph glyph-name="breve" unicode="&#x2d8;" horiz-adv-x="476" 
d="M295 720h120q0 -170 -179 -170q-55 0 -92 15.5t-54 43t-23 53.5t-6 58h120q0 -57 57 -57t57 57z" />
    <glyph glyph-name="dotaccent" unicode="&#x2d9;" horiz-adv-x="286" 
d="M224 552h-162v150h162v-150z" />
    <glyph glyph-name="ring" unicode="&#x2da;" horiz-adv-x="450" 
d="M378 663q0 -51 -40.5 -84t-113.5 -33q-74 0 -113 32t-39 83t40.5 84t113.5 33q74 0 113 -32t39 -83zM257 662q0 38 -32 38t-32 -38t32 -38t32 38z" />
    <glyph glyph-name="ogonek" unicode="&#x2db;" horiz-adv-x="344" 
d="M128 0h136q-45 -56 -45 -82q0 -21 30 -21h33v-81q-35 -10 -79 -10q-78 0 -109.5 20.5t-31.5 62.5q0 49 66 111z" />
    <glyph glyph-name="tilde" unicode="&#x2dc;" horiz-adv-x="544" 
d="M199 591q-22 0 -22 -35h-115q0 156 143 156q36 0 64.5 -10t47 -20.5t28.5 -10.5q22 0 22 35h115q0 -156 -143 -156q-36 0 -64.5 10t-47 20.5t-28.5 10.5z" />
    <glyph glyph-name="hungarumlaut" unicode="&#x2dd;" horiz-adv-x="625" 
d="M57 552l54 150h195l-107 -150h-142zM282 552l84 150h202l-141 -150h-145z" />
    <glyph glyph-name="uni0312" unicode="&#x312;" horiz-adv-x="302" 
d="M220 552h-158v69q0 90 149 90h29v-57h-17q-34 0 -34 -24h31v-78z" />
    <glyph glyph-name="uni0315" unicode="&#x315;" horiz-adv-x="304" 
d="M61 566l23 194h161l-57 -194h-127z" />
    <glyph glyph-name="uni0326" unicode="&#x326;" horiz-adv-x="302" 
d="M82 -42h158v-62q0 -44 -35 -66t-114 -22h-29v53h17q34 0 34 24h-31v73z" />
    <glyph glyph-name="uni037E" unicode="&#x37e;" horiz-adv-x="346" 
d="M82 182h182v-152q0 -96 -38.5 -145.5t-133.5 -78.5l-33 88q43 21 62.5 45t18.5 61h-58v182zM264 318h-182v182h182v-182z" />
    <glyph glyph-name="tonos" unicode="&#x384;" horiz-adv-x="324" 
d="M62 552l31 150h169l-61 -150h-139z" />
    <glyph glyph-name="dieresistonos" unicode="&#x385;" horiz-adv-x="580" 
d="M192 552h-130v150h130v-150zM518 552h-130v150h130v-150zM212 552l21 182h149l-51 -182h-119z" />
    <glyph glyph-name="Alphatonos" unicode="&#x386;" horiz-adv-x="713" 
d="M247 682h219l238 -682h-202l-36 124h-232l-35 -124h-190zM314 401l-42 -147h156l-43 147q-22 79 -35 137h-1q-15 -67 -35 -137zM-11 512l32 220h164l-62 -220h-134z" />
    <glyph glyph-name="anoteleia" unicode="&#x387;" horiz-adv-x="320" 
d="M254 316h-188v184h188v-184z" />
    <glyph glyph-name="Epsilontonos" unicode="&#x388;" horiz-adv-x="781" 
d="M198 0v682h524v-135h-350v-135h303v-130h-303v-146h367v-136h-541zM-26 512l32 220h164l-62 -220h-134z" />
    <glyph glyph-name="Etatonos" unicode="&#x389;" horiz-adv-x="896" 
d="M198 0v682h174v-254h278v254h174v-682h-174v281h-278v-281h-174zM-26 512l32 220h164l-62 -220h-134z" />
    <glyph glyph-name="Iotatonos" unicode="&#x38a;" horiz-adv-x="444" 
d="M198 0v682h174v-682h-174zM-26 512l32 220h164l-62 -220h-134z" />
    <glyph glyph-name="Omicrontonos" unicode="&#x38c;" horiz-adv-x="874" 
d="M653 341q0 92 -47 147.5t-129 55.5t-129 -55.5t-47 -147.5t47 -147.5t129 -55.5t129 55.5t47 147.5zM837 343q0 -162 -101 -261.5t-261 -99.5q-161 0 -259.5 97t-98.5 260q0 162 101 261.5t261 99.5q161 0 259.5 -97t98.5 -260zM-12 512l32 220h164l-62 -220h-134z" />
    <glyph glyph-name="Upsilontonos" unicode="&#x38e;" horiz-adv-x="850" 
d="M608 0h-174v271l-242 411h209l125 -238l121 238h203l-242 -411v-271zM-12 512l32 220h164l-62 -220h-134z" />
    <glyph glyph-name="Omegatonos" unicode="&#x38f;" horiz-adv-x="893" 
d="M444 0h-311v142h146v2q-66 43 -103 108t-37 140q0 139 96.5 223.5t255.5 84.5t252.5 -84t93.5 -224q0 -75 -37 -140t-103 -108v-2h146v-142h-311v191q121 65 121 184q0 75 -44.5 122t-120.5 47t-120.5 -47t-44.5 -122q0 -119 121 -184v-191zM-12 512l32 220h164l-62 -220
h-134z" />
    <glyph glyph-name="iotadieresistonos" unicode="&#x390;" horiz-adv-x="298" 
d="M289 123v-122q-37 -17 -91 -17q-72 0 -104 34.5t-32 109.5v372h160v-329q0 -32 7 -43t25 -11q13 0 35 6zM61 552h-130v150h130v-150zM387 552h-130v150h130v-150zM81 552l21 182h149l-51 -182h-119z" />
    <glyph glyph-name="Alpha" unicode="&#x391;" horiz-adv-x="713" 
d="M247 682h219l238 -682h-202l-36 124h-232l-35 -124h-190zM314 401l-42 -147h156l-43 147q-22 79 -35 137h-1q-15 -67 -35 -137z" />
    <glyph glyph-name="Beta" unicode="&#x392;" horiz-adv-x="729" 
d="M246 283v-147q92 -2 134 -2q56 0 89 14.5t33 58.5q0 26 -11 42.5t-31.5 23t-36 8.5t-36.5 2h-141zM246 546v-132h112q82 0 105 23q18 18 18 46q0 26 -16 42q-14 14 -38.5 18.5t-82.5 4.5q-32 0 -98 -2zM72 0v682q140 2 297 2q185 0 249 -64q43 -43 43 -108
q0 -112 -111 -147q62 -14 99 -55.5t37 -102.5q0 -51 -18.5 -89t-48.5 -60.5t-75 -36.5t-89.5 -18.5t-100.5 -4.5q-199 0 -282 2z" />
    <glyph glyph-name="Gamma" unicode="&#x393;" horiz-adv-x="525" 
d="M72 0v682h445v-143h-271v-539h-174z" />
    <glyph glyph-name="Delta" unicode="&#x394;" horiz-adv-x="711" 
d="M675 123v-123h-639v123l207 559h225zM310 419l-94 -283h264l-95 283q-24 70 -36 119h-3q-12 -49 -36 -119z" />
    <glyph glyph-name="Delta" unicode="&#x2206;" horiz-adv-x="711" 
d="M675 123v-123h-639v123l207 559h225zM310 419l-94 -283h264l-95 283q-24 70 -36 119h-3q-12 -49 -36 -119z" />
    <glyph glyph-name="Epsilon" unicode="&#x395;" horiz-adv-x="655" 
d="M72 0v682h524v-135h-350v-135h303v-130h-303v-146h367v-136h-541z" />
    <glyph glyph-name="Zeta" unicode="&#x396;" horiz-adv-x="628" 
d="M596 145v-145h-564v144l325 397q-134 -2 -202 -2h-108v143h534v-143l-326 -396q128 2 179 2h162z" />
    <glyph glyph-name="Eta" unicode="&#x397;" horiz-adv-x="770" 
d="M72 0v682h174v-254h278v254h174v-682h-174v281h-278v-281h-174z" />
    <glyph glyph-name="Theta" unicode="&#x398;" horiz-adv-x="794" 
d="M495 281h-196v130h196v-130zM573 341q0 92 -47 147.5t-129 55.5t-129 -55.5t-47 -147.5t47 -147.5t129 -55.5t129 55.5t47 147.5zM757 343q0 -162 -101 -261.5t-261 -99.5q-161 0 -259.5 97t-98.5 260q0 162 101 261.5t261 99.5q161 0 259.5 -97t98.5 -260z" />
    <glyph glyph-name="Iota" unicode="&#x399;" horiz-adv-x="318" 
d="M72 0v682h174v-682h-174z" />
    <glyph glyph-name="Kappa" unicode="&#x39a;" horiz-adv-x="718" 
d="M495 682h220l-231 -235l242 -447h-203l-167 318l-110 -112v-206h-174v682h174v-266z" />
    <glyph glyph-name="Lambda" unicode="&#x39b;" horiz-adv-x="686" 
d="M238 682h212l227 -682h-192l-99 330q-33 106 -46 184h-4q-15 -79 -45 -186l-91 -328h-191z" />
    <glyph glyph-name="Mu" unicode="&#x39c;" horiz-adv-x="972" 
d="M72 0v682h290l90 -281q32 -100 38 -153h3q7 63 36 153l90 281h281v-682h-174v240q0 201 7 306h-6q-17 -82 -47 -173l-120 -373h-158l-120 373q-30 91 -47 173h-6q7 -105 7 -306v-240h-164z" />
    <glyph glyph-name="Nu" unicode="&#x39d;" horiz-adv-x="778" 
d="M706 0h-216l-194 341q-39 70 -67 139h-4q11 -125 11 -278v-202h-164v682h230l180 -316q39 -70 67 -139h4q-11 125 -11 278v177h164v-682z" />
    <glyph glyph-name="Xi" unicode="&#x39e;" horiz-adv-x="580" 
d="M513 422v-156h-446v156h446zM538 526h-496v156h496v-156zM27 156h526v-156h-526v156z" />
    <glyph glyph-name="Omicron" unicode="&#x39f;" horiz-adv-x="794" 
d="M573 341q0 92 -47 147.5t-129 55.5t-129 -55.5t-47 -147.5t47 -147.5t129 -55.5t129 55.5t47 147.5zM757 343q0 -162 -101 -261.5t-261 -99.5q-161 0 -259.5 97t-98.5 260q0 162 101 261.5t261 99.5q161 0 259.5 -97t98.5 -260z" />
    <glyph glyph-name="Pi" unicode="&#x3a0;" horiz-adv-x="755" 
d="M683 0h-174v539h-263v-539h-174v682h611v-682z" />
    <glyph glyph-name="Rho" unicode="&#x3a1;" horiz-adv-x="689" 
d="M488 446q0 47 -29.5 71t-104.5 24q-74 0 -108 -1v-187q35 -1 111 -1q72 0 101.5 24t29.5 70zM72 0v682q50 0 144 1t143 1q52 0 94.5 -5.5t84.5 -21.5t70.5 -42t46 -68.5t17.5 -98.5q0 -123 -86 -180.5t-234 -57.5q-77 0 -106 1v-211h-174z" />
    <glyph glyph-name="Sigma" unicode="&#x3a3;" horiz-adv-x="649" 
d="M617 145v-145h-559v144l204 197l-204 198v143h542v-143h-116q-72 0 -202 2l203 -199l-204 -199q128 2 179 2h157z" />
    <glyph glyph-name="Tau" unicode="&#x3a4;" horiz-adv-x="542" 
d="M182 0v539h-185v143h548v-143h-185v-539h-178z" />
    <glyph glyph-name="Upsilon" unicode="&#x3a5;" horiz-adv-x="658" 
d="M416 0h-174v271l-242 411h209l125 -238l121 238h203l-242 -411v-271z" />
    <glyph glyph-name="Phi" unicode="&#x3a6;" horiz-adv-x="958" 
d="M566 -59h-174v74q-176 16 -270.5 97.5t-94.5 226.5q0 143 95.5 226t269.5 100v76h174v-75q176 -15 270.5 -96.5t94.5 -226.5q0 -143 -95.5 -226t-269.5 -101v-75zM747 341q0 81 -43.5 128t-142.5 60v-376q186 25 186 188zM211 341q0 -81 43.5 -128.5t142.5 -60.5v377
q-186 -25 -186 -188z" />
    <glyph glyph-name="Chi" unicode="&#x3a7;" horiz-adv-x="647" 
d="M-8 0l227 351l-209 331h209l110 -193l115 193h193l-209 -325l226 -357h-210l-126 219l-132 -219h-194z" />
    <glyph glyph-name="Psi" unicode="&#x3a8;" horiz-adv-x="909" 
d="M369 0v149q-304 30 -304 294v239h174v-225q0 -76 29 -117t101 -54v396h174v-397q74 12 105.5 49.5t31.5 102.5v245h164v-255q0 -115 -72 -188.5t-229 -89.5v-149h-174z" />
    <glyph glyph-name="Omega" unicode="&#x3a9;" horiz-adv-x="810" 
d="M361 0h-311v142h146v2q-66 43 -103 108t-37 140q0 139 96.5 223.5t255.5 84.5t252.5 -84t93.5 -224q0 -75 -37 -140t-103 -108v-2h146v-142h-311v191q121 65 121 184q0 75 -44.5 122t-120.5 47t-120.5 -47t-44.5 -122q0 -119 121 -184v-191z" />
    <glyph glyph-name="Omega" unicode="&#x2126;" horiz-adv-x="810" 
d="M361 0h-311v142h146v2q-66 43 -103 108t-37 140q0 139 96.5 223.5t255.5 84.5t252.5 -84t93.5 -224q0 -75 -37 -140t-103 -108v-2h146v-142h-311v191q121 65 121 184q0 75 -44.5 122t-120.5 47t-120.5 -47t-44.5 -122q0 -119 121 -184v-191z" />
    <glyph glyph-name="Iotadieresis" unicode="&#x3aa;" horiz-adv-x="318" 
d="M72 0v682h174v-682h-174zM114 734h-160v150h160v-150zM364 734h-160v150h160v-150z" />
    <glyph glyph-name="Upsilondieresis" unicode="&#x3ab;" horiz-adv-x="658" 
d="M416 0h-174v271l-242 411h209l125 -238l121 238h203l-242 -411v-271zM284 734h-160v150h160v-150zM534 734h-160v150h160v-150z" />
    <glyph glyph-name="alphatonos" unicode="&#x3ac;" horiz-adv-x="632" 
d="M623 123v-122q-37 -17 -91 -17q-108 0 -124 76h-1q-52 -76 -157 -76q-102 0 -160 73.5t-58 191.5q0 119 64.5 193t170.5 74q99 0 144 -70h1l5 54h146q-7 -137 -7 -236v-93q0 -32 7 -43t25 -11q13 0 35 6zM399 244v14q0 59 -26.5 94.5t-72.5 35.5q-47 0 -72.5 -37
t-25.5 -101q0 -62 26.5 -100t74.5 -38q44 0 70 35t26 97zM226 556l31 150h169l-61 -150h-139z" />
    <glyph glyph-name="epsilontonos" unicode="&#x3ad;" horiz-adv-x="533" 
d="M377 306v-106h-80q-51 0 -70.5 -9.5t-19.5 -34.5q0 -52 96 -52q83 0 144 61l86 -98q-101 -83 -248 -83q-129 0 -191 44t-62 121q0 39 24.5 69t60.5 38v2q-28 11 -45.5 37.5t-17.5 61.5q0 75 58 117t178 42q137 0 236 -72l-87 -98q-59 52 -136 52q-79 0 -79 -45
q0 -47 76 -47h77zM218 556l31 150h169l-61 -150h-139z" />
    <glyph glyph-name="etatonos" unicode="&#x3ae;" horiz-adv-x="614" 
d="M559 -180h-160v430q0 79 -11 101q-18 37 -68 37q-39 0 -62 -23q-33 -33 -33 -114v-251h-160v240q0 122 -3 260h148l3 -60h1q52 76 157 76q89 0 138.5 -51.5t49.5 -156.5v-488zM239 556l31 150h169l-61 -150h-139z" />
    <glyph glyph-name="iotatonos" unicode="&#x3af;" horiz-adv-x="298" 
d="M289 123v-122q-37 -17 -91 -17q-72 0 -104 34.5t-32 109.5v372h160v-329q0 -32 7 -43t25 -11q13 0 35 6zM63 552l31 150h169l-61 -150h-139z" />
    <glyph glyph-name="upsilondieresistonos" unicode="&#x3b0;" horiz-adv-x="594" 
d="M215 500v-244q0 -79 11 -101q20 -39 71 -39t71 39q11 22 11 101v244h160v-274q0 -242 -245 -242q-239 0 -239 238v278h160zM199 552h-130v150h130v-150zM525 552h-130v150h130v-150zM219 552l21 182h149l-51 -182h-119z" />
    <glyph glyph-name="alpha" unicode="&#x3b1;" horiz-adv-x="632" 
d="M623 123v-122q-37 -17 -91 -17q-108 0 -124 76h-1q-52 -76 -157 -76q-102 0 -160 73.5t-58 191.5q0 119 64.5 193t170.5 74q99 0 144 -70h1l5 54h146q-7 -137 -7 -236v-93q0 -32 7 -43t25 -11q13 0 35 6zM399 244v14q0 59 -26.5 94.5t-72.5 35.5q-47 0 -72.5 -37
t-25.5 -101q0 -62 26.5 -100t74.5 -38q44 0 70 35t26 97z" />
    <glyph glyph-name="beta" unicode="&#x3b2;" horiz-adv-x="597" 
d="M225 -180h-160v665q0 101 57 166t173 65q118 0 176.5 -58t58.5 -142q0 -48 -24.5 -85.5t-63.5 -52.5v-2q54 -16 88 -60t34 -107q0 -108 -60.5 -166.5t-159.5 -58.5q-81 0 -121 42h-1q3 -30 3 -69v-137zM225 495v-287q0 -45 22.5 -70.5t62.5 -25.5q39 0 61.5 26t22.5 70
q0 97 -90 97h-29v120h17q33 0 50.5 23t17.5 57q0 35 -18 59t-49 24q-68 0 -68 -93z" />
    <glyph glyph-name="gamma" unicode="&#x3b3;" horiz-adv-x="547" 
d="M349 -180h-160v179l-192 501h182l61 -187q32 -100 43 -156h3q55 170 63 343h170q-7 -136 -50 -256t-120 -245v-179z" />
    <glyph glyph-name="delta" unicode="&#x3b4;" horiz-adv-x="604" 
d="M523 671l-52 -118q-67 41 -146 41q-60 0 -60 -41q0 -15 11 -26q15 -15 58 -27.5t94 -33.5t85 -55q59 -59 59 -167q0 -120 -76 -190t-196 -70q-122 0 -195 67t-73 190q0 134 103 196q-40 49 -40 113q0 69 56.5 117.5t163.5 48.5q115 0 208 -45zM373 319q-8 8 -17.5 14.5
t-23.5 11.5t-22.5 8t-28 8t-25.5 7q-54 -41 -54 -125q0 -58 26.5 -92t73.5 -34q46 0 73 34t27 91q0 48 -29 77z" />
    <glyph glyph-name="epsilon" unicode="&#x3b5;" horiz-adv-x="533" 
d="M377 306v-106h-80q-51 0 -70.5 -9.5t-19.5 -34.5q0 -52 96 -52q83 0 144 61l86 -98q-101 -83 -248 -83q-129 0 -191 44t-62 121q0 39 24.5 69t60.5 38v2q-28 11 -45.5 37.5t-17.5 61.5q0 75 58 117t178 42q137 0 236 -72l-87 -98q-59 52 -136 52q-79 0 -79 -45
q0 -47 76 -47h77z" />
    <glyph glyph-name="zeta" unicode="&#x3b6;" horiz-adv-x="448" 
d="M67 560v142h375v-129q-92 -65 -166 -161.5t-74 -170.5q0 -44 23 -67q11 -11 43 -20t72 -26t69 -46q44 -44 44 -122q0 -60 -36 -154l-156 28q22 62 22 108q0 24 -16 40q-11 11 -77.5 33.5t-102.5 58.5q-55 55 -55 151q0 180 209 344q-63 -9 -121 -9h-53z" />
    <glyph glyph-name="eta" unicode="&#x3b7;" horiz-adv-x="614" 
d="M559 -180h-160v430q0 79 -11 101q-18 37 -68 37q-39 0 -62 -23q-33 -33 -33 -114v-251h-160v240q0 122 -3 260h148l3 -60h1q52 76 157 76q89 0 138.5 -51.5t49.5 -156.5v-488z" />
    <glyph glyph-name="theta" unicode="&#x3b8;" horiz-adv-x="594" 
d="M562 351q0 -178 -71 -272.5t-196 -94.5q-128 0 -195.5 91.5t-67.5 270.5q0 180 72 275t201 95q124 0 190.5 -92.5t66.5 -272.5zM300 114q88 0 99 180h-204q13 -180 105 -180zM300 586q-89 0 -105 -170h203q-14 170 -98 170z" />
    <glyph glyph-name="iota" unicode="&#x3b9;" horiz-adv-x="298" 
d="M289 123v-122q-37 -17 -91 -17q-72 0 -104 34.5t-32 109.5v372h160v-329q0 -32 7 -43t25 -11q13 0 35 6z" />
    <glyph glyph-name="kappa" unicode="&#x3ba;" horiz-adv-x="573" 
d="M590 0h-190l-122 187l-53 -58v-129h-160v500h160v-176l144 176h194l-176 -194z" />
    <glyph glyph-name="lambda" unicode="&#x3bb;" horiz-adv-x="540" 
d="M358 529l184 -529h-179l-58 195q-34 117 -40 152h-3q-12 -63 -35 -152l-51 -195h-178l184 530l-4 12q-9 25 -22 34.5t-37 9.5q-30 0 -59 -13v127q30 16 79 16q90 0 137 -42.5t82 -144.5z" />
    <glyph glyph-name="nu" unicode="&#x3bd;" horiz-adv-x="547" 
d="M179 500l61 -187q32 -100 43 -156h3q55 170 63 343h170q-13 -247 -169 -500h-160l-193 500h182z" />
    <glyph glyph-name="xi" unicode="&#x3be;" horiz-adv-x="497" 
d="M383 441v-128h-82q-49 0 -73.5 -23t-24.5 -59q0 -34 22 -56q16 -16 55.5 -26t84 -25t71.5 -42q44 -44 44 -122q0 -60 -36 -154l-156 28q22 62 22 108q0 24 -16 40q-12 12 -50 21t-82.5 25.5t-73.5 45.5q-55 55 -55 141q0 61 33 103t86 58v2q-36 17 -62.5 53.5t-26.5 89.5
q0 91 65.5 143t171.5 52q101 0 175 -52l-79 -110q-38 36 -90 36q-34 0 -55 -19.5t-21 -51.5q0 -38 23.5 -58t66.5 -20h63z" />
    <glyph glyph-name="omicron" unicode="&#x3bf;" horiz-adv-x="604" 
d="M402 250q0 63 -26.5 98t-73.5 35t-73.5 -35t-26.5 -98t26.5 -98t73.5 -35t73.5 35t26.5 98zM572 251q0 -125 -76 -196t-196 -71q-123 0 -195.5 68.5t-72.5 196.5q0 125 76 196t196 71q123 0 195.5 -68.5t72.5 -196.5z" />
    <glyph glyph-name="pi" unicode="&#x3c0;" horiz-adv-x="683" 
d="M648 123v-125q-37 -14 -86 -14q-88 0 -128.5 48t-44.5 143l-8 183h-102l-38 -358h-163l40 358h-80v142h602v-142h-100l12 -147q7 -94 61 -94q23 0 35 6z" />
    <glyph glyph-name="rho" unicode="&#x3c1;" horiz-adv-x="612" 
d="M211 250q0 -62 26.5 -99t72.5 -37q47 0 73.5 36.5t26.5 99.5q0 62 -26.5 99t-74.5 37q-45 0 -71.5 -35.5t-26.5 -100.5zM213 -180h-160v436q0 127 72 193.5t187 66.5q132 0 200 -72t68 -193q0 -118 -66 -192.5t-172 -74.5q-88 0 -132 55h-1q4 -40 4 -82v-137z" />
    <glyph glyph-name="sigma1" unicode="&#x3c2;" horiz-adv-x="516" 
d="M454 -194l-156 28q22 62 22 108q0 24 -16 40q-9 9 -46.5 17.5t-82 23.5t-70.5 41q-73 73 -73 195q0 121 70 189t182 68q77 0 134 -37t81 -101l-136 -63q-15 70 -79 70q-38 0 -60 -32t-22 -90q0 -60 31 -91q15 -15 54 -23t84 -22.5t75 -44.5q44 -44 44 -122
q0 -60 -36 -154z" />
    <glyph glyph-name="sigma" unicode="&#x3c3;" horiz-adv-x="628" 
d="M618 500v-142h-44q-17 0 -41 3l-1 -2q40 -42 40 -112q0 -114 -72 -188.5t-200 -74.5q-123 0 -195.5 68.5t-72.5 196.5q0 125 76 196t196 71q25 0 87.5 -8t127.5 -8h99zM402 250q0 63 -26.5 98t-73.5 35t-73.5 -35t-26.5 -98t26.5 -98t73.5 -35t73.5 35t26.5 98z" />
    <glyph glyph-name="tau" unicode="&#x3c4;" horiz-adv-x="457" 
d="M439 358h-154v-147q0 -63 8.5 -78.5t49.5 -15.5q24 0 50 7v-123q-44 -17 -106 -17q-90 0 -128 42t-38 137q0 79 10 195h-113v142h421v-142z" />
    <glyph glyph-name="upsilon" unicode="&#x3c5;" horiz-adv-x="594" 
d="M215 500v-244q0 -79 11 -101q20 -39 71 -39t71 39q11 22 11 101v244h160v-274q0 -242 -245 -242q-239 0 -239 238v278h160z" />
    <glyph glyph-name="phi" unicode="&#x3c6;" horiz-adv-x="827" 
d="M493 -180h-160v167q-140 8 -220.5 76t-80.5 185q0 112 83 184.5t218 80.5v189h160v-189q141 -8 221.5 -76t80.5 -185q0 -112 -83.5 -184.5t-218.5 -80.5v-167zM336 111v278q-134 -6 -134 -139q0 -131 134 -139zM491 389v-278q134 8 134 139q0 69 -33.5 102t-100.5 37z
" />
    <glyph glyph-name="chi" unicode="&#x3c7;" horiz-adv-x="569" 
d="M553 500l-172 -326l198 -354h-196l-109 223l-98 -223h-186l193 363l-175 317h192l89 -187l82 187h182z" />
    <glyph glyph-name="psi" unicode="&#x3c8;" horiz-adv-x="845" 
d="M507 702v-583q66 13 98 54.5t32 118.5q0 98 -30 208h172q28 -99 28 -206q0 -277 -300 -306v-168h-160v167q-155 10 -222.5 72t-67.5 200v241h160v-241q0 -71 31.5 -103t98.5 -40v586h160z" />
    <glyph glyph-name="omega" unicode="&#x3c9;" horiz-adv-x="866" 
d="M353 338h160v-119q0 -51 21.5 -76.5t52.5 -25.5q74 0 74 122q0 64 -25.5 105.5t-72.5 48.5l42 123q101 -8 164 -80t63 -193q0 -123 -57.5 -191t-165.5 -68q-66 0 -113.5 32.5t-61.5 86.5h-2q-14 -54 -61.5 -86.5t-113.5 -32.5q-108 0 -165.5 68t-57.5 191q0 121 63 193
t164 80l42 -123q-47 -7 -72.5 -48.5t-25.5 -105.5q0 -122 74 -122q31 0 52.5 25.5t21.5 76.5v119z" />
    <glyph glyph-name="iotadieresis" unicode="&#x3ca;" horiz-adv-x="298" 
d="M289 123v-122q-37 -17 -91 -17q-72 0 -104 34.5t-32 109.5v372h160v-329q0 -32 7 -43t25 -11q13 0 35 6zM124 552h-140v150h140v-150zM304 552h-140v150h140v-150z" />
    <glyph glyph-name="upsilondieresis" unicode="&#x3cb;" horiz-adv-x="594" 
d="M215 500v-244q0 -79 11 -101q20 -39 71 -39t71 39q11 22 11 101v244h160v-274q0 -242 -245 -242q-239 0 -239 238v278h160zM262 552h-150v150h150v-150zM482 552h-150v150h150v-150z" />
    <glyph glyph-name="omicrontonos" unicode="&#x3cc;" horiz-adv-x="604" 
d="M226 552l31 150h169l-61 -150h-139zM402 250q0 63 -26.5 98t-73.5 35t-73.5 -35t-26.5 -98t26.5 -98t73.5 -35t73.5 35t26.5 98zM572 251q0 -125 -76 -196t-196 -71q-123 0 -195.5 68.5t-72.5 196.5q0 125 76 196t196 71q123 0 195.5 -68.5t72.5 -196.5z" />
    <glyph glyph-name="upsilontonos" unicode="&#x3cd;" horiz-adv-x="594" 
d="M215 500v-244q0 -79 11 -101q20 -39 71 -39t71 39q11 22 11 101v244h160v-274q0 -242 -245 -242q-239 0 -239 238v278h160zM228 552l31 150h169l-61 -150h-139z" />
    <glyph glyph-name="omegatonos" unicode="&#x3ce;" horiz-adv-x="866" 
d="M353 338h160v-119q0 -51 21.5 -76.5t52.5 -25.5q74 0 74 122q0 64 -25.5 105.5t-72.5 48.5l42 123q101 -8 164 -80t63 -193q0 -123 -57.5 -191t-165.5 -68q-66 0 -113.5 32.5t-61.5 86.5h-2q-14 -54 -61.5 -86.5t-113.5 -32.5q-108 0 -165.5 68t-57.5 191q0 121 63 193
t164 80l42 -123q-47 -7 -72.5 -48.5t-25.5 -105.5q0 -122 74 -122q31 0 52.5 25.5t21.5 76.5v119zM367 512l39 190h169l-77 -190h-131z" />
    <glyph glyph-name="uni0400" unicode="&#x400;" horiz-adv-x="655" 
d="M72 0v682h524v-135h-350v-135h303v-130h-303v-146h367v-136h-541zM355 884l83 -150h-155l-141 150h213z" />
    <glyph glyph-name="uni0401" unicode="&#x401;" horiz-adv-x="655" 
d="M72 0v682h524v-135h-350v-135h303v-130h-303v-146h367v-136h-541zM287 734h-160v150h160v-150zM537 734h-160v150h160v-150z" />
    <glyph glyph-name="uni0402" unicode="&#x402;" horiz-adv-x="782" 
d="M184 0v539h-187v143h548v-143h-187v-110q64 2 110 2q145 0 221 -57.5t76 -169.5q0 -101 -66 -160t-175 -59q-55 0 -86 4v144q28 -5 56 -5q87 0 87 79q0 81 -129 81q-40 0 -94 -2v-286h-174z" />
    <glyph glyph-name="uni0403" unicode="&#x403;" horiz-adv-x="525" 
d="M72 0v682h445v-143h-271v-539h-174zM199 734l83 150h213l-141 -150h-155z" />
    <glyph glyph-name="uni0404" unicode="&#x404;" horiz-adv-x="704" 
d="M461 279h-239q13 -70 55 -106.5t104 -36.5q51 0 95 24.5t69 70.5l134 -87q-108 -162 -301 -162q-152 0 -246.5 95.5t-94.5 262.5q0 115 50 199t126 122.5t166 38.5q101 0 170.5 -34.5t122.5 -108.5l-130 -101q-61 90 -165 90q-54 0 -94.5 -33t-56.5 -96h235v-138z" />
    <glyph glyph-name="uni0405" unicode="&#x405;" horiz-adv-x="688" 
d="M39 68l63 136q126 -80 250 -80q60 0 86.5 17.5t26.5 44.5q0 25 -23 40.5t-59 23.5t-80.5 15t-88.5 20.5t-80 35.5t-59 64t-23 102q0 94 76 153.5t210 59.5q125 0 256 -63l-60 -139q-101 61 -200 61q-55 0 -78.5 -16t-23.5 -39q0 -24 23 -38.5t59.5 -21.5t81 -13.5
t88.5 -20.5t80.5 -36t59.5 -66t23 -105q0 -96 -80 -158.5t-219 -62.5q-74 0 -158 23t-151 63z" />
    <glyph glyph-name="uni0406" unicode="&#x406;" horiz-adv-x="318" 
d="M72 0v682h174v-682h-174z" />
    <glyph glyph-name="uni0407" unicode="&#x407;" horiz-adv-x="318" 
d="M72 0v682h174v-682h-174zM114 734h-160v150h160v-150zM364 734h-160v150h160v-150z" />
    <glyph glyph-name="uni0408" unicode="&#x408;" horiz-adv-x="577" 
d="M338 682h174v-447q0 -118 -64 -185.5t-189 -67.5q-109 0 -179 60.5t-80 194.5l170 28q5 -69 26 -100t64 -31q78 0 78 97v451z" />
    <glyph glyph-name="uni0409" unicode="&#x409;" horiz-adv-x="1104" 
d="M497 0v539h-182l-4 -122q-6 -169 -29.5 -262t-70 -132t-128.5 -39q-43 0 -73 9v142h44q36 0 54 20t30 90t15 209l5 228h513v-201q58 2 103 2q52 0 94.5 -6t84.5 -22t70.5 -42t46 -69.5t17.5 -101.5q0 -127 -85.5 -185.5t-234.5 -58.5zM671 339v-197q35 -1 101 -1
q73 0 102 25t29 74q0 50 -29.5 75t-104.5 25q-64 0 -98 -1z" />
    <glyph glyph-name="uni040A" unicode="&#x40a;" horiz-adv-x="1115" 
d="M514 0v281h-268v-281h-174v682h174v-254h268v254h174v-201q58 2 100 2q52 0 94 -6t83.5 -22t69.5 -42t45.5 -69.5t17.5 -101.5q0 -127 -84.5 -185.5t-232.5 -58.5q-21 0 -54.5 0.5t-94 1t-118.5 0.5zM688 339v-197q35 -1 98 -1q72 0 100 25t28 74q0 51 -28 75.5
t-103 24.5q-61 0 -95 -1z" />
    <glyph glyph-name="uni040B" unicode="&#x40b;" horiz-adv-x="787" 
d="M741 0h-174v134q0 75 -29 102t-108 27h-72v-263h-174v539h-187v143h548v-143h-187v-133h100q153 0 218 -55.5t65 -193.5v-157z" />
    <glyph glyph-name="uni040C" unicode="&#x40c;" horiz-adv-x="724" 
d="M732 0h-215l-195 283h-76v-283h-174v682h174v-256h76l197 256h204l-254 -311zM280 734l83 150h213l-141 -150h-155z" />
    <glyph glyph-name="uni040D" unicode="&#x40d;" horiz-adv-x="770" 
d="M698 0h-174v430l-278 -430h-174v682h174v-430l278 430h174v-682zM392 884l83 -150h-155l-141 150h213z" />
    <glyph glyph-name="uni040E" unicode="&#x40e;" horiz-adv-x="658" 
d="M668 682l-219 -481q-57 -126 -124.5 -172t-156.5 -46q-56 0 -95 14v138h80q85 0 115 57l-258 490h202l151 -306l122 306h183zM430 908h135q-11 -177 -205 -177q-102 0 -147.5 45.5t-51.5 131.5h135q13 -83 67 -83t67 83z" />
    <glyph glyph-name="uni040F" unicode="&#x40f;" horiz-adv-x="742" 
d="M445 -151h-148v151h-225v682h174v-539h250v539h174v-682h-225v-151z" />
    <glyph glyph-name="uni0410" unicode="&#x410;" horiz-adv-x="713" 
d="M247 682h219l238 -682h-202l-36 124h-232l-35 -124h-190zM314 401l-42 -147h156l-43 147q-22 79 -35 137h-1q-15 -67 -35 -137z" />
    <glyph glyph-name="uni0411" unicode="&#x411;" horiz-adv-x="698" 
d="M246 286v-143q92 -2 119 -2q58 0 87 15.5t29 58.5t-28.5 58t-87.5 15q-75 0 -119 -2zM72 0v682h537v-143h-363v-110q84 2 123 2q151 0 223.5 -50t72.5 -164t-76 -166.5t-227 -52.5q-207 0 -290 2z" />
    <glyph glyph-name="uni0412" unicode="&#x412;" horiz-adv-x="729" 
d="M246 283v-147q92 -2 134 -2q56 0 89 14.5t33 58.5q0 26 -11 42.5t-31.5 23t-36 8.5t-36.5 2h-141zM246 546v-132h112q82 0 105 23q18 18 18 46q0 26 -16 42q-14 14 -38.5 18.5t-82.5 4.5q-32 0 -98 -2zM72 0v682q140 2 297 2q185 0 249 -64q43 -43 43 -108
q0 -112 -111 -147q62 -14 99 -55.5t37 -102.5q0 -51 -18.5 -89t-48.5 -60.5t-75 -36.5t-89.5 -18.5t-100.5 -4.5q-199 0 -282 2z" />
    <glyph glyph-name="uni0413" unicode="&#x413;" horiz-adv-x="525" 
d="M72 0v682h445v-143h-271v-539h-174z" />
    <glyph glyph-name="uni0414" unicode="&#x414;" horiz-adv-x="800" 
d="M785 -151h-148v151h-477v-151h-148v294h75q65 103 71 313l6 226h516v-539h105v-294zM506 143v396h-183l-3 -84q-4 -112 -17 -185.5t-43 -126.5h246z" />
    <glyph glyph-name="uni0415" unicode="&#x415;" horiz-adv-x="655" 
d="M72 0v682h524v-135h-350v-135h303v-130h-303v-146h367v-136h-541z" />
    <glyph glyph-name="uni0416" unicode="&#x416;" horiz-adv-x="1092" 
d="M1100 0h-205l-184 283h-77v-283h-174v283h-77l-188 -283h-203l249 369l-238 313h200l180 -256h77v256h174v-256h77l185 256h193l-233 -309z" />
    <glyph glyph-name="uni0417" unicode="&#x417;" horiz-adv-x="649" 
d="M12 93l113 113q70 -78 182 -78q55 0 85 19.5t30 55.5q0 40 -32 58t-102 18h-109v138h107q114 0 114 70q0 31 -27 50t-84 19q-96 0 -177 -54l-79 120q52 36 124 57t143 21q138 0 209.5 -51t71.5 -142q0 -52 -29.5 -89t-79.5 -53v-1q63 -14 98.5 -56.5t35.5 -104.5
q0 -104 -84.5 -162.5t-215.5 -58.5q-183 0 -294 111z" />
    <glyph glyph-name="uni0418" unicode="&#x418;" horiz-adv-x="770" 
d="M698 0h-174v430l-278 -430h-174v682h174v-430l278 430h174v-682z" />
    <glyph glyph-name="uni0419" unicode="&#x419;" horiz-adv-x="770" 
d="M698 0h-174v430l-278 -430h-174v682h174v-430l278 430h174v-682zM452 908h135q-11 -177 -205 -177q-102 0 -147.5 45.5t-51.5 131.5h135q13 -83 67 -83t67 83z" />
    <glyph glyph-name="uni041A" unicode="&#x41a;" horiz-adv-x="724" 
d="M732 0h-215l-195 283h-76v-283h-174v682h174v-256h76l197 256h204l-254 -311z" />
    <glyph glyph-name="uni041B" unicode="&#x41b;" horiz-adv-x="753" 
d="M681 0h-174v539h-192l-4 -122q-6 -169 -29.5 -262t-70 -132t-128.5 -39q-43 0 -73 9v141h41q33 0 51.5 21t31.5 92t17 207l7 228h523v-682z" />
    <glyph glyph-name="uni041C" unicode="&#x41c;" horiz-adv-x="972" 
d="M72 0v682h290l90 -281q32 -100 38 -153h3q7 63 36 153l90 281h281v-682h-174v240q0 201 7 306h-6q-17 -82 -47 -173l-120 -373h-158l-120 373q-30 91 -47 173h-6q7 -105 7 -306v-240h-164z" />
    <glyph glyph-name="uni041D" unicode="&#x41d;" horiz-adv-x="770" 
d="M72 0v682h174v-254h278v254h174v-682h-174v281h-278v-281h-174z" />
    <glyph glyph-name="uni041E" unicode="&#x41e;" horiz-adv-x="794" 
d="M573 341q0 92 -47 147.5t-129 55.5t-129 -55.5t-47 -147.5t47 -147.5t129 -55.5t129 55.5t47 147.5zM757 343q0 -162 -101 -261.5t-261 -99.5q-161 0 -259.5 97t-98.5 260q0 162 101 261.5t261 99.5q161 0 259.5 -97t98.5 -260z" />
    <glyph glyph-name="uni041F" unicode="&#x41f;" horiz-adv-x="755" 
d="M683 0h-174v539h-263v-539h-174v682h611v-682z" />
    <glyph glyph-name="uni0420" unicode="&#x420;" horiz-adv-x="689" 
d="M488 446q0 47 -29.5 71t-104.5 24q-74 0 -108 -1v-187q35 -1 111 -1q72 0 101.5 24t29.5 70zM72 0v682q50 0 144 1t143 1q52 0 94.5 -5.5t84.5 -21.5t70.5 -42t46 -68.5t17.5 -98.5q0 -123 -86 -180.5t-234 -57.5q-77 0 -106 1v-211h-174z" />
    <glyph glyph-name="uni0421" unicode="&#x421;" horiz-adv-x="715" 
d="M525 259l165 -38q-31 -116 -114.5 -177.5t-202.5 -61.5q-149 0 -242.5 96.5t-93.5 261.5q0 88 29 158.5t77.5 113.5t107.5 65.5t123 22.5q239 0 309 -227l-168 -39q-33 110 -143 110q-65 0 -108 -53.5t-43 -148.5q0 -92 43 -147t112 -55q56 0 95 30.5t54 88.5z" />
    <glyph glyph-name="uni0422" unicode="&#x422;" horiz-adv-x="542" 
d="M182 0v539h-185v143h548v-143h-185v-539h-178z" />
    <glyph glyph-name="uni0423" unicode="&#x423;" horiz-adv-x="658" 
d="M668 682l-219 -481q-57 -126 -124.5 -172t-156.5 -46q-56 0 -95 14v138h80q85 0 115 57l-258 490h202l151 -306l122 306h183z" />
    <glyph glyph-name="uni0424" unicode="&#x424;" horiz-adv-x="1022" 
d="M600 -42h-178v100l-40 1q-162 4 -257 77.5t-95 208.5q0 133 97 212.5t256 83.5l39 1v94h178v-94l39 -1q163 -4 258 -76.5t95 -207.5q0 -133 -97.5 -213t-257.5 -85l-37 -1v-100zM422 194v312l-39 -1q-77 -2 -123 -42.5t-46 -111.5q0 -72 44.5 -113t124.5 -43zM600 506
v-312l37 1q76 2 123.5 43.5t47.5 112.5q0 72 -44.5 112t-124.5 42z" />
    <glyph glyph-name="uni0425" unicode="&#x425;" horiz-adv-x="647" 
d="M-8 0l227 351l-209 331h209l110 -193l115 193h193l-209 -325l226 -357h-210l-126 219l-132 -219h-194z" />
    <glyph glyph-name="uni0426" unicode="&#x426;" horiz-adv-x="790" 
d="M775 -151h-148v151h-555v682h174v-539h250v539h174v-539h105v-294z" />
    <glyph glyph-name="uni0427" unicode="&#x427;" horiz-adv-x="695" 
d="M623 0h-174v235h-120q-152 0 -217.5 60t-65.5 199v188h174v-165q0 -81 29 -110t108 -29h92v304h174v-682z" />
    <glyph glyph-name="uni0428" unicode="&#x428;" horiz-adv-x="1082" 
d="M1010 0h-938v682h174v-539h208v539h174v-539h208v539h174v-682z" />
    <glyph glyph-name="uni0429" unicode="&#x429;" horiz-adv-x="1130" 
d="M1115 -151h-148v151h-895v682h174v-539h208v539h174v-539h208v539h174v-539h105v-294z" />
    <glyph glyph-name="uni042A" unicode="&#x42a;" horiz-adv-x="779" 
d="M336 339v-197q35 -1 111 -1q73 0 102 25t29 74q0 50 -29.5 75t-104.5 25q-74 0 -108 -1zM162 0v547h-165v135h339v-201q58 2 113 2q52 0 94.5 -6t84.5 -22t70.5 -42t46 -69.5t17.5 -101.5q0 -127 -85.5 -185.5t-234.5 -58.5q-10 0 -280 2z" />
    <glyph glyph-name="uni042B" unicode="&#x42b;" horiz-adv-x="985" 
d="M246 339v-197q35 -1 101 -1q73 0 102 25t29 74q0 50 -29.5 75t-104.5 25q-64 0 -98 -1zM72 0v682h174v-201q58 2 103 2q52 0 94.5 -6t84.5 -22t70.5 -42t46 -69.5t17.5 -101.5q0 -127 -85.5 -185.5t-234.5 -58.5zM913 0h-174v682h174v-682z" />
    <glyph glyph-name="uni042C" unicode="&#x42c;" horiz-adv-x="689" 
d="M246 339v-197q35 -1 111 -1q73 0 102 25t29 74q0 50 -29.5 75t-104.5 25q-74 0 -108 -1zM72 0v682h174v-201q58 2 113 2q52 0 94.5 -6t84.5 -22t70.5 -42t46 -69.5t17.5 -101.5q0 -127 -85.5 -185.5t-234.5 -58.5q-10 0 -280 2z" />
    <glyph glyph-name="uni042D" unicode="&#x42d;" horiz-adv-x="696" 
d="M235 279v138h236q-15 65 -55.5 97t-96.5 32q-100 0 -147 -87l-144 73q104 168 298 168q93 0 166.5 -37.5t120 -120t46.5 -199.5q0 -170 -99.5 -265.5t-240.5 -95.5q-206 0 -295 168l148 79q49 -93 149 -93q59 0 100 35t53 108h-239z" />
    <glyph glyph-name="uni042E" unicode="&#x42e;" horiz-adv-x="1084" 
d="M1047 343q0 -162 -96 -261.5t-248 -99.5q-139 0 -230 81t-107 220h-120v-283h-174v682h174v-256h125q25 126 115.5 200t220.5 74q153 0 246.5 -97t93.5 -260zM863 341q0 93 -42 148t-116 55t-116 -55t-42 -148t42 -148t116 -55t116 55t42 148z" />
    <glyph glyph-name="uni042F" unicode="&#x42f;" horiz-adv-x="713" 
d="M641 0h-174v229h-97l-147 -229h-206l173 253q-67 23 -105.5 76t-38.5 126q0 112 80 170.5t225 58.5q34 0 135.5 -1t154.5 -1v-682zM467 371v169q-17 0 -55.5 0.5t-60.5 0.5q-121 0 -121 -85q0 -38 29 -62t92 -24q79 0 116 1z" />
    <glyph glyph-name="uni0430" unicode="&#x430;" horiz-adv-x="555" 
d="M340 201v10q-89 0 -120 -15t-31 -44q0 -47 55 -47q38 0 67 26.5t29 69.5zM101 341l-67 96q103 79 239 79q111 0 169 -47.5t58 -141.5v-90q0 -96 3 -237h-149l-2 51h-1q-57 -67 -152 -67q-87 0 -132 44t-45 113q0 176 318 176v10q0 70 -87 70q-85 0 -152 -56z" />
    <glyph glyph-name="uni0431" unicode="&#x431;" horiz-adv-x="600" 
d="M526 716v-142q-98 -4 -187 -14q-78 -9 -115.5 -46t-47.5 -116h3q27 37 71.5 58.5t95.5 21.5q108 0 165 -61t57 -182q0 -111 -73 -181t-197 -70q-263 0 -263 323q0 183 70.5 278t222.5 115q80 10 198 16zM202 233v-3q0 -52 24.5 -82.5t73.5 -30.5t73.5 30.5t24.5 83.5
t-24.5 83.5t-73.5 30.5t-73.5 -30.5t-24.5 -81.5z" />
    <glyph glyph-name="uni0432" unicode="&#x432;" horiz-adv-x="615" 
d="M225 201v-93q36 -6 76 -6q52 0 77 10.5t25 39.5q0 26 -24.5 37.5t-77.5 11.5h-76zM225 393v-89h69q47 0 68.5 10t21.5 37q0 47 -89 47q-33 0 -70 -5zM65 2v496q133 18 233 18q264 0 264 -141q0 -83 -84 -109v-2q44 -9 73.5 -38.5t29.5 -71.5q0 -170 -281 -170
q-117 0 -235 18z" />
    <glyph glyph-name="uni0433" unicode="&#x433;" horiz-adv-x="435" 
d="M65 0v500h365v-127h-205v-373h-160z" />
    <glyph glyph-name="uni0434" unicode="&#x434;" horiz-adv-x="668" 
d="M655 -141h-140v141h-370v-141h-140v268h66q53 74 60 222l8 151h434v-373h82v-268zM413 127v246h-131l-3 -57q-6 -123 -44 -189h178z" />
    <glyph glyph-name="uni0435" unicode="&#x435;" horiz-adv-x="591" 
d="M487 157l55 -104q-104 -69 -229 -69q-133 0 -207 68t-74 197q0 125 75.5 196t195.5 71t188 -67.5t68 -193.5q0 -33 -5 -56h-350q16 -93 123 -93q90 0 160 51zM205 305h185q-2 45 -26 69t-63 24q-81 0 -96 -93z" />
    <glyph glyph-name="uni0436" unicode="&#x436;" horiz-adv-x="838" 
d="M848 0h-185l-112 198h-52v-198h-160v198h-52l-111 -198h-186l164 269l-161 231h188l107 -177h51v177h160v-177h51l108 177h184l-156 -224z" />
    <glyph glyph-name="uni0437" unicode="&#x437;" horiz-adv-x="540" 
d="M152 199v106h72q45 0 66 10.5t21 36.5q0 45 -70 45q-83 0 -150 -56l-67 96q103 79 237 79q114 0 171 -38t57 -108q0 -79 -86 -104v-2q48 -10 75.5 -39.5t27.5 -70.5q0 -82 -69.5 -126t-189.5 -44q-137 0 -231 73l67 105q71 -57 165 -57q80 0 80 48q0 25 -26 35.5
t-85 10.5h-65z" />
    <glyph glyph-name="uni0438" unicode="&#x438;" horiz-adv-x="636" 
d="M571 0h-160v291l-176 -291h-170v500h160v-291l176 291h170v-500z" />
    <glyph glyph-name="uni0439" unicode="&#x439;" horiz-adv-x="636" 
d="M571 0h-160v291l-176 -291h-170v500h160v-291l176 291h170v-500zM375 720h130q-8 -88 -55 -129t-134 -41q-92 0 -136.5 40t-52.5 130h134q6 -77 57 -77t57 77z" />
    <glyph glyph-name="uni043A" unicode="&#x43a;" horiz-adv-x="584" 
d="M594 0h-190l-120 198h-59v-198h-160v500h160v-177h59l116 177h185l-162 -227z" />
    <glyph glyph-name="uni043B" unicode="&#x43b;" horiz-adv-x="636" 
d="M571 0h-160v373h-132l-4 -87q-5 -119 -27.5 -186t-59.5 -91.5t-100 -24.5q-42 0 -73 11v120h34q40 0 56.5 44.5t21.5 158.5l7 182h437v-500z" />
    <glyph glyph-name="uni043C" unicode="&#x43c;" horiz-adv-x="862" 
d="M653 0l-16 198q-7 91 -10 175h-5l-113 -373h-161l-113 373h-5q0 -63 -9 -175l-17 -198h-156l57 500h236l63 -208q16 -54 26 -106h3q11 60 25 106l63 208h236l57 -500h-161z" />
    <glyph glyph-name="uni043D" unicode="&#x43d;" horiz-adv-x="634" 
d="M409 0v197h-184v-197h-160v500h160v-176h184v176h160v-500h-160z" />
    <glyph glyph-name="uni043E" unicode="&#x43e;" horiz-adv-x="604" 
d="M402 250q0 63 -26.5 98t-73.5 35t-73.5 -35t-26.5 -98t26.5 -98t73.5 -35t73.5 35t26.5 98zM572 251q0 -125 -76 -196t-196 -71q-123 0 -195.5 68.5t-72.5 196.5q0 125 76 196t196 71q123 0 195.5 -68.5t72.5 -196.5z" />
    <glyph glyph-name="uni043F" unicode="&#x43f;" horiz-adv-x="631" 
d="M566 0h-160v373h-181v-373h-160v500h501v-500z" />
    <glyph glyph-name="uni0440" unicode="&#x440;" horiz-adv-x="621" 
d="M222 256v-14q0 -59 26.5 -94.5t72.5 -35.5q47 0 72.5 37t25.5 101q0 62 -26.5 100t-74.5 38q-44 0 -70 -35t-26 -97zM225 -180h-160v430q0 133 -3 250h148l3 -60h1q52 76 157 76q102 0 160 -73.5t58 -191.5q0 -119 -64.5 -193t-170.5 -74q-88 0 -132 55h-1q4 -40 4 -82
v-137z" />
    <glyph glyph-name="uni0441" unicode="&#x441;" horiz-adv-x="547" 
d="M391 192l149 -46q-77 -162 -246 -162q-120 0 -191 70t-71 195t74.5 196t191.5 71q188 0 235 -153l-146 -54q-8 34 -31 55t-58 21q-44 0 -70 -35t-26 -99q0 -61 25.5 -98t71.5 -37q65 0 92 76z" />
    <glyph glyph-name="uni0442" unicode="&#x442;" horiz-adv-x="494" 
d="M327 0h-160v373h-152v127h464v-127h-152v-373z" />
    <glyph glyph-name="uni0443" unicode="&#x443;" horiz-adv-x="548" 
d="M285 -180h-169l82 162l-201 518h182l59 -195q37 -123 39 -129h3q6 25 19.5 69.5t17.5 59.5l59 195h175z" />
    <glyph glyph-name="uni0444" unicode="&#x444;" horiz-adv-x="827" 
d="M493 -180h-160v167q-140 8 -220.5 76t-80.5 185q0 112 83 184.5t218 80.5v189h160v-189q141 -8 221.5 -76t80.5 -185q0 -112 -83.5 -184.5t-218.5 -80.5v-167zM336 111v278q-134 -6 -134 -139q0 -131 134 -139zM491 389v-278q134 8 134 139q0 69 -33.5 102t-100.5 37z
" />
    <glyph glyph-name="uni0445" unicode="&#x445;" horiz-adv-x="546" 
d="M178 0h-186l179 266l-163 234h192l80 -123l75 123h182l-166 -240l183 -260h-196l-96 146z" />
    <glyph glyph-name="uni0446" unicode="&#x446;" 
d="M637 -141h-140v141h-432v500h160v-373h170v373h160v-373h82v-268z" />
    <glyph glyph-name="uni0447" unicode="&#x447;" horiz-adv-x="572" 
d="M507 0h-160v181q-50 -44 -124 -44q-196 0 -196 208v155h160v-125q0 -56 15.5 -83t57.5 -27t64.5 33t22.5 83v119h160v-500z" />
    <glyph glyph-name="uni0448" unicode="&#x448;" horiz-adv-x="910" 
d="M845 0h-780v500h160v-373h150v373h160v-373h150v373h160v-500z" />
    <glyph glyph-name="uni0449" unicode="&#x449;" horiz-adv-x="940" 
d="M927 -141h-140v141h-722v500h160v-373h150v373h160v-373h150v373h160v-373h82v-268z" />
    <glyph glyph-name="uni044A" unicode="&#x44a;" horiz-adv-x="642" 
d="M137 2v371h-122v127h282v-130q40 2 66 2q127 0 192 -49t65 -143t-66.5 -145t-191.5 -51q-128 0 -225 18zM297 250v-140q30 -6 67 -6q42 0 64 19.5t22 54.5t-23.5 54.5t-65.5 19.5q-20 0 -64 -2z" />
    <glyph glyph-name="uni044B" unicode="&#x44b;" horiz-adv-x="815" 
d="M65 2v498h160v-130q40 2 61 2q125 0 188.5 -49t63.5 -143t-66 -145t-190 -51q-120 0 -217 18zM225 250v-140q30 -6 59 -6q40 0 62 19.5t22 54.5t-22 54.5t-62 19.5q-15 0 -59 -2zM750 0h-160v500h160v-500z" />
    <glyph glyph-name="uni044C" unicode="&#x44c;" horiz-adv-x="570" 
d="M65 2v498h160v-130q40 2 66 2q127 0 192 -49t65 -143t-66.5 -145t-191.5 -51q-128 0 -225 18zM225 250v-140q30 -6 67 -6q42 0 64 19.5t22 54.5t-23.5 54.5t-65.5 19.5q-20 0 -64 -2z" />
    <glyph glyph-name="uni044D" unicode="&#x44d;" horiz-adv-x="542" 
d="M169 199v106h175q-21 90 -109 90q-65 0 -104 -59l-111 79q82 101 222 101q123 0 195.5 -68.5t72.5 -196.5q0 -125 -76 -196t-196 -71q-161 0 -229 125l126 59q28 -61 104 -61q87 0 106 92h-176z" />
    <glyph glyph-name="uni044E" unicode="&#x44e;" horiz-adv-x="874" 
d="M842 251q0 -125 -74.5 -196t-192.5 -71q-107 0 -176 55t-84 159h-90v-198h-160v500h160v-177h94q21 92 91 142.5t169 50.5q120 0 191.5 -68.5t71.5 -196.5zM672 250q0 63 -25 98t-70 35t-70 -34.5t-25 -97.5t25 -98.5t70 -35.5q44 0 69.5 35t25.5 98z" />
    <glyph glyph-name="uni044F" unicode="&#x44f;" horiz-adv-x="601" 
d="M536 0h-160v161h-77l-105 -161h-184l134 187q-49 19 -75.5 57.5t-26.5 90.5q0 86 65.5 133.5t194.5 47.5q105 0 234 -18v-498zM376 273v122q-41 7 -76 7q-88 0 -88 -65q0 -68 86 -68q46 0 78 4z" />
    <glyph glyph-name="uni0450" unicode="&#x450;" horiz-adv-x="591" 
d="M487 157l55 -104q-104 -69 -229 -69q-133 0 -207 68t-74 197q0 125 75.5 196t195.5 71t188 -67.5t68 -193.5q0 -33 -5 -56h-350q16 -93 123 -93q90 0 160 51zM205 305h185q-2 45 -26 69t-63 24q-81 0 -96 -93zM305 702l83 -150h-145l-141 150h203z" />
    <glyph glyph-name="uni0451" unicode="&#x451;" horiz-adv-x="591" 
d="M487 157l55 -104q-104 -69 -229 -69q-133 0 -207 68t-74 197q0 125 75.5 196t195.5 71t188 -67.5t68 -193.5q0 -33 -5 -56h-350q16 -93 123 -93q90 0 160 51zM205 305h185q-2 45 -26 69t-63 24q-81 0 -96 -93zM263 552h-150v150h150v-150zM483 552h-150v150h150v-150z
" />
    <glyph glyph-name="uni0452" unicode="&#x452;" horiz-adv-x="614" 
d="M225 0h-160v551h-61v120h61v48h160v-48h96v-120h-96v-8q0 -49 -8 -97h2q24 34 65 52t87 18q89 0 138.5 -51t49.5 -157v-293q0 -205 -179 -205q-40 0 -58 9v124h33q29 0 36.5 16.5t7.5 79.5v211q0 79 -11 101q-18 37 -68 37q-39 0 -62 -23q-33 -33 -33 -114v-251z" />
    <glyph glyph-name="uni0453" unicode="&#x453;" horiz-adv-x="435" 
d="M65 0v500h365v-127h-205v-373h-160zM155 552l83 150h203l-141 -150h-145z" />
    <glyph glyph-name="uni0454" unicode="&#x454;" horiz-adv-x="533" 
d="M373 199h-177q19 -92 108 -92q75 0 117 61l105 -72q-32 -54 -92 -83t-132 -29q-124 0 -197 67.5t-73 195.5q0 127 75.5 198t202.5 71q133 0 211 -96l-104 -84q-43 59 -110 59q-88 0 -109 -90h175v-106z" />
    <glyph glyph-name="uni0455" unicode="&#x455;" horiz-adv-x="528" 
d="M28 47l55 116q93 -57 188 -57q66 0 66 33q0 18 -21.5 28.5t-54.5 14t-70.5 13t-70.5 23.5t-54.5 48t-21.5 84q0 77 59.5 121.5t165.5 44.5q109 0 199 -45l-51 -111q-69 39 -150 39q-60 0 -60 -30q0 -18 22 -28t54.5 -13t71 -12.5t71 -24t54.5 -48.5t22 -85
q0 -81 -62 -127.5t-171 -46.5q-123 0 -241 63z" />
    <glyph glyph-name="uni0456" unicode="&#x456;" horiz-adv-x="290" 
d="M225 0h-160v500h160v-500zM64 552v150h162v-150h-162z" />
    <glyph glyph-name="uni0457" unicode="&#x457;" horiz-adv-x="290" 
d="M225 0h-160v500h160v-500zM125 552h-140v150h140v-150zM305 552h-140v150h140v-150z" />
    <glyph glyph-name="uni0458" unicode="&#x458;" horiz-adv-x="294" 
d="M69 500h160v-485q0 -205 -179 -205q-40 0 -58 9v124h33q29 0 36.5 16.5t7.5 79.5v461zM230 552h-162v150h162v-150z" />
    <glyph glyph-name="uni0459" unicode="&#x459;" horiz-adv-x="906" 
d="M401 2v371h-123l-4 -86q-5 -119 -27.5 -186t-59.5 -92t-99 -25q-47 0 -73 11v120h34q39 0 55.5 44t21.5 159l7 182h428v-130q40 2 66 2q127 0 192 -49t65 -143t-66.5 -145t-191.5 -51q-128 0 -225 18zM561 250v-140q30 -6 67 -6q42 0 64 19.5t22 54.5t-23.5 54.5
t-65.5 19.5q-20 0 -64 -2z" />
    <glyph glyph-name="uni045A" unicode="&#x45a;" horiz-adv-x="904" 
d="M399 2v195h-174v-197h-160v500h160v-176h174v176h160v-130q40 2 66 2q127 0 192 -49t65 -143t-66.5 -145t-191.5 -51q-128 0 -225 18zM559 250v-140q30 -6 67 -6q42 0 64 19.5t22 54.5t-23.5 54.5t-65.5 19.5q-20 0 -64 -2z" />
    <glyph glyph-name="uni045B" unicode="&#x45b;" horiz-adv-x="614" 
d="M65 0v551h-61v120h61v48h160v-48h96v-120h-96v-8q0 -49 -8 -97h2q24 34 65 52t87 18q89 0 138.5 -51t49.5 -157v-308h-160v250q0 79 -11 101q-18 37 -68 37q-39 0 -62 -23q-33 -33 -33 -114v-251h-160z" />
    <glyph glyph-name="uni045C" unicode="&#x45c;" horiz-adv-x="584" 
d="M594 0h-190l-120 198h-59v-198h-160v500h160v-177h59l116 177h185l-162 -227zM215 552l83 150h203l-141 -150h-145z" />
    <glyph glyph-name="uni045D" unicode="&#x45d;" horiz-adv-x="636" 
d="M571 0h-160v291l-176 -291h-170v500h160v-291l176 291h170v-500zM331 702l83 -150h-145l-141 150h203z" />
    <glyph glyph-name="uni045E" unicode="&#x45e;" horiz-adv-x="548" 
d="M285 -180h-169l82 162l-201 518h182l59 -195q37 -123 39 -129h3q6 25 19.5 69.5t17.5 59.5l59 195h175zM339 720h130q-8 -88 -55 -129t-134 -41q-92 0 -136.5 40t-52.5 130h134q6 -77 57 -77t57 77z" />
    <glyph glyph-name="uni045F" unicode="&#x45f;" horiz-adv-x="620" 
d="M380 -141h-140v141h-175v500h160v-373h170v373h160v-500h-175v-141z" />
    <glyph glyph-name="uni0472" unicode="&#x472;" horiz-adv-x="794" 
d="M757 343q0 -162 -101 -261.5t-261 -99.5q-161 0 -259.5 97t-98.5 260q0 162 101 261.5t261 99.5q161 0 259.5 -97t98.5 -260zM397 132q70 0 116 40t60 110h-353q14 -70 60.5 -110t116.5 -40zM397 550q-67 0 -112.5 -36.5t-61.5 -101.5h347q-16 65 -61 101.5t-112 36.5z
" />
    <glyph glyph-name="uni0473" unicode="&#x473;" horiz-adv-x="604" 
d="M572 251q0 -125 -76 -196t-196 -71q-123 0 -195.5 68.5t-72.5 196.5q0 125 76 196t196 71q123 0 195.5 -68.5t72.5 -196.5zM302 107q86 0 104 92h-209q18 -92 105 -92zM302 393q-86 0 -104 -88h208q-20 88 -104 88z" />
    <glyph glyph-name="uni0490" unicode="&#x490;" horiz-adv-x="525" 
d="M72 0v682h297v151h148v-294h-271v-539h-174z" />
    <glyph glyph-name="uni0491" unicode="&#x491;" horiz-adv-x="435" 
d="M65 0v500h225v141h140v-268h-205v-373h-160z" />
    <glyph glyph-name="uni0492" unicode="&#x492;" horiz-adv-x="535" 
d="M256 0h-174v257h-77v128h77v297h445v-143h-271v-154h136v-128h-136v-257z" />
    <glyph glyph-name="uni0493" unicode="&#x493;" horiz-adv-x="435" 
d="M225 0h-160v167h-65v117h65v216h365v-127h-205v-89h118v-117h-118v-167z" />
    <glyph glyph-name="uni0494" unicode="&#x494;" horiz-adv-x="670" 
d="M246 0h-174v682h451v-143h-277v-110q64 2 110 2q148 0 222.5 -71.5t74.5 -225.5q0 -142 -69 -215.5t-182 -73.5q-55 0 -86 4v144q28 -5 56 -5q97 0 97 149q0 84 -32 117.5t-97 33.5q-40 0 -94 -2v-286z" />
    <glyph glyph-name="uni0495" unicode="&#x495;" horiz-adv-x="585" 
d="M225 0h-160v500h443v-123h-283v-45q0 -37 -6 -73h2q48 46 128 46q94 0 155.5 -63.5t61.5 -177.5q0 -113 -61.5 -183.5t-176.5 -70.5q-38 0 -58 5v129q15 -5 40 -5q86 0 86 121q0 54 -21.5 85.5t-63.5 31.5q-43 0 -64.5 -33.5t-21.5 -86.5v-57z" />
    <glyph glyph-name="uni0496" unicode="&#x496;" horiz-adv-x="1112" 
d="M1112 -151h-148v151h-69l-184 283h-77v-283h-174v283h-77l-188 -283h-203l249 369l-238 313h200l180 -256h77v256h174v-256h77l185 256h193l-233 -309l150 -230h106v-294z" />
    <glyph glyph-name="uni0497" unicode="&#x497;" horiz-adv-x="860" 
d="M860 -141h-140v141h-57l-112 198h-52v-198h-160v198h-52l-111 -198h-186l164 269l-161 231h188l107 -177h51v177h160v-177h51l108 177h184l-156 -224l87 -149h87v-268z" />
    <glyph glyph-name="uni0498" unicode="&#x498;" horiz-adv-x="649" 
d="M394 -151h-148v137q-142 15 -234 107l113 113q70 -78 182 -78q55 0 85 19.5t30 55.5q0 40 -32 58t-102 18h-109v138h107q114 0 114 70q0 31 -27 50t-84 19q-96 0 -177 -54l-79 120q52 36 124 57t143 21q138 0 209.5 -51t71.5 -142q0 -52 -29.5 -89t-79.5 -53v-1
q63 -14 98.5 -56.5t35.5 -104.5q0 -86 -57.5 -141t-154.5 -72v-141z" />
    <glyph glyph-name="uni0499" unicode="&#x499;" horiz-adv-x="540" 
d="M332 -141h-140v129q-104 13 -176 69l67 105q71 -57 165 -57q80 0 80 48q0 25 -26 35.5t-85 10.5h-65v106h72q45 0 66 10.5t21 36.5q0 45 -70 45q-83 0 -150 -56l-67 96q103 79 237 79q114 0 171 -38t57 -108q0 -79 -86 -104v-2q48 -10 75.5 -39.5t27.5 -70.5
q0 -66 -46 -108t-128 -55v-132z" />
    <glyph glyph-name="uni049A" unicode="&#x49a;" horiz-adv-x="734" 
d="M734 -151h-148v151h-69l-195 283h-76v-283h-174v682h174v-256h76l197 256h204l-254 -311l161 -228h104v-294z" />
    <glyph glyph-name="uni049B" unicode="&#x49b;" horiz-adv-x="602" 
d="M602 -141h-140v141h-58l-120 197h-59v-197h-160v500h160v-176h59l116 176h185l-162 -227l91 -146h88v-268z" />
    <glyph glyph-name="uni049C" unicode="&#x49c;" horiz-adv-x="844" 
d="M294 562h138v-136h31l166 256h204l-224 -311l233 -371h-215l-164 283h-31v-136h-138v136h-48v-283h-174v682h174v-256h48v136z" />
    <glyph glyph-name="uni049D" unicode="&#x49d;" horiz-adv-x="675" 
d="M265 426h112v-102h31l76 176h178l-122 -227l131 -273h-183l-80 197h-31v-102h-112v102h-40v-197h-160v500h160v-176h40v102z" />
    <glyph glyph-name="uni04A0" unicode="&#x4a0;" horiz-adv-x="814" 
d="M822 0h-215l-195 283h-76v-283h-174v547h-165v135h339v-256h76l197 256h204l-254 -311z" />
    <glyph glyph-name="uni04A1" unicode="&#x4a1;" horiz-adv-x="656" 
d="M666 0h-190l-120 197h-59v-197h-160v373h-122v127h282v-176h59l116 176h185l-162 -227z" />
    <glyph glyph-name="uni04A2" unicode="&#x4a2;" horiz-adv-x="818" 
d="M803 -151h-148v151h-131v281h-278v-281h-174v682h174v-254h278v254h174v-539h105v-294z" />
    <glyph glyph-name="uni04A3" unicode="&#x4a3;" horiz-adv-x="664" 
d="M651 -141h-140v141h-102v197h-184v-197h-160v500h160v-176h184v176h160v-373h82v-268z" />
    <glyph glyph-name="uni04A4" unicode="&#x4a4;" horiz-adv-x="957" 
d="M698 0h-174v281h-278v-281h-174v682h174v-254h278v254h425v-135h-251v-547z" />
    <glyph glyph-name="uni04A5" unicode="&#x4a5;" horiz-adv-x="776" 
d="M569 0h-160v197h-184v-197h-160v500h160v-176h184v176h365v-127h-205v-373z" />
    <glyph glyph-name="uni04AA" unicode="&#x4aa;" horiz-adv-x="715" 
d="M445 -151h-148v140q-119 24 -189.5 116.5t-70.5 234.5q0 88 29 158.5t77.5 113.5t107.5 65.5t123 22.5q239 0 309 -227l-168 -39q-33 110 -143 110q-65 0 -108 -53.5t-43 -148.5q0 -92 43 -147t112 -55q56 0 95 30.5t54 88.5l165 -38q-27 -98 -90.5 -157t-154.5 -75v-140
z" />
    <glyph glyph-name="uni04AB" unicode="&#x4ab;" horiz-adv-x="547" 
d="M362 -141h-148v135q-85 21 -133.5 87t-48.5 168q0 125 74.5 196t191.5 71q188 0 235 -153l-146 -54q-8 34 -31 55t-58 21q-44 0 -70 -35t-26 -99q0 -61 25.5 -98t71.5 -37q65 0 92 76l149 -46q-62 -130 -178 -155v-132z" />
    <glyph glyph-name="uni04AE" unicode="&#x4ae;" horiz-adv-x="658" 
d="M416 0h-174v271l-242 411h209l125 -238l121 238h203l-242 -411v-271z" />
    <glyph glyph-name="uni04AF" unicode="&#x4af;" horiz-adv-x="538" 
d="M349 -180h-160v180l-192 500h180l57 -174q24 -75 38 -141h3q10 49 37 141l51 174h178l-192 -500v-180z" />
    <glyph glyph-name="uni04B0" unicode="&#x4b0;" horiz-adv-x="658" 
d="M416 0h-174v133h-122v132h122v6l-242 411h209l125 -238l121 238h203l-242 -411v-6h122v-132h-122v-133z" />
    <glyph glyph-name="uni04B1" unicode="&#x4b1;" horiz-adv-x="538" 
d="M486 0h-137v-180h-160v180h-137v117h92l-147 383h180l57 -174q24 -75 38 -141h3q10 49 37 141l51 174h178l-147 -383h92v-117z" />
    <glyph glyph-name="uni04B2" unicode="&#x4b2;" horiz-adv-x="693" 
d="M693 -151h-148v151h-101l-126 219l-132 -219h-194l227 351l-209 331h209l110 -193l115 193h193l-209 -325l135 -214h130v-294z" />
    <glyph glyph-name="uni04B3" unicode="&#x4b3;" horiz-adv-x="571" 
d="M571 -141h-140v141h-73l-96 146l-84 -146h-186l179 266l-163 234h192l80 -123l75 123h182l-166 -240l93 -133h107v-268z" />
    <glyph glyph-name="uni04B6" unicode="&#x4b6;" horiz-adv-x="743" 
d="M728 -151h-148v151h-131v235h-120q-152 0 -217.5 60t-65.5 199v188h174v-165q0 -81 29 -110t108 -29h92v304h174v-539h105v-294z" />
    <glyph glyph-name="uni04B7" unicode="&#x4b7;" horiz-adv-x="604" 
d="M589 -141h-140v141h-102v181q-50 -44 -124 -44q-196 0 -196 208v155h160v-125q0 -56 15.5 -83t57.5 -27t64.5 33t22.5 83v119h160v-373h82v-268z" />
    <glyph glyph-name="uni04B8" unicode="&#x4b8;" horiz-adv-x="725" 
d="M284 532h138v-154h57v304h174v-682h-174v235h-57v-118h-138v120q-128 10 -183 70t-55 187v188h174v-165q0 -58 14 -87.5t50 -41.5v144z" />
    <glyph glyph-name="uni04B9" unicode="&#x4b9;" horiz-adv-x="626" 
d="M236 383h112v-103q53 30 53 101v119h160v-500h-160v181q-23 -19 -53 -29v-99h-112v84q-102 5 -155.5 57.5t-53.5 150.5v155h160v-125q0 -83 49 -103v111z" />
    <glyph glyph-name="uni04BA" unicode="&#x4ba;" horiz-adv-x="695" 
d="M649 0h-174v165q0 81 -29 110t-108 29h-92v-304h-174v682h174v-235h120q152 0 217.5 -60t65.5 -199v-188z" />
    <glyph glyph-name="uni04BB" unicode="&#x4bb;" horiz-adv-x="614" 
d="M65 0v702h160v-159q0 -49 -8 -97h2q24 34 65 52t87 18q89 0 138.5 -51.5t49.5 -156.5v-308h-160v250q0 79 -11 101q-18 37 -68 37q-39 0 -62 -23q-33 -33 -33 -114v-251h-160z" />
    <glyph glyph-name="uni04C0" unicode="&#x4c0;" horiz-adv-x="318" 
d="M72 0v682h174v-682h-174z" />
    <glyph glyph-name="uni04C1" unicode="&#x4c1;" horiz-adv-x="1092" 
d="M1100 0h-205l-184 283h-77v-283h-174v283h-77l-188 -283h-203l249 369l-238 313h200l180 -256h77v256h174v-256h77l185 256h193l-233 -309zM613 908h135q-11 -177 -205 -177q-102 0 -147.5 45.5t-51.5 131.5h135q13 -83 67 -83t67 83z" />
    <glyph glyph-name="uni04C2" unicode="&#x4c2;" horiz-adv-x="838" 
d="M848 0h-185l-112 198h-52v-198h-160v198h-52l-111 -198h-186l164 269l-161 231h188l107 -177h51v177h160v-177h51l108 177h184l-156 -224zM478 720h130q-8 -88 -55 -129t-134 -41q-92 0 -136.5 40t-52.5 130h134q6 -77 57 -77t57 77z" />
    <glyph glyph-name="uni04CF" unicode="&#x4cf;" horiz-adv-x="290" 
d="M65 0v702h160v-702h-160z" />
    <glyph glyph-name="uni04D0" unicode="&#x4d0;" horiz-adv-x="713" 
d="M247 682h219l238 -682h-202l-36 124h-232l-35 -124h-190zM314 401l-42 -147h156l-43 147q-22 79 -35 137h-1q-15 -67 -35 -137zM417 908h135q-11 -177 -205 -177q-102 0 -147.5 45.5t-51.5 131.5h135q13 -83 67 -83t67 83z" />
    <glyph glyph-name="uni04D1" unicode="&#x4d1;" horiz-adv-x="555" 
d="M340 201v10q-89 0 -120 -15t-31 -44q0 -47 55 -47q38 0 67 26.5t29 69.5zM101 341l-67 96q103 79 239 79q111 0 169 -47.5t58 -141.5v-90q0 -96 3 -237h-149l-2 51h-1q-57 -67 -152 -67q-87 0 -132 44t-45 113q0 176 318 176v10q0 70 -87 70q-85 0 -152 -56zM330 720h130
q-8 -88 -55 -129t-134 -41q-92 0 -136.5 40t-52.5 130h134q6 -77 57 -77t57 77z" />
    <glyph glyph-name="uni04D2" unicode="&#x4d2;" horiz-adv-x="713" 
d="M247 682h219l238 -682h-202l-36 124h-232l-35 -124h-190zM314 401l-42 -147h156l-43 147q-22 79 -35 137h-1q-15 -67 -35 -137zM305 734h-160v150h160v-150zM555 734h-160v150h160v-150z" />
    <glyph glyph-name="uni04D3" unicode="&#x4d3;" horiz-adv-x="555" 
d="M340 201v10q-89 0 -120 -15t-31 -44q0 -47 55 -47q38 0 67 26.5t29 69.5zM101 341l-67 96q103 79 239 79q111 0 169 -47.5t58 -141.5v-90q0 -96 3 -237h-149l-2 51h-1q-57 -67 -152 -67q-87 0 -132 44t-45 113q0 176 318 176v10q0 70 -87 70q-85 0 -152 -56zM236 552
h-150v150h150v-150zM456 552h-150v150h150v-150z" />
    <glyph glyph-name="uni04D4" unicode="&#x4d4;" horiz-adv-x="996" 
d="M279 682h658v-135h-322v-135h275v-130h-275v-146h339v-136h-513v106h-222l-41 -106h-191zM396 547l-125 -311h170v311h-45z" />
    <glyph glyph-name="uni04D5" unicode="&#x4d5;" horiz-adv-x="890" 
d="M101 341l-67 96q103 79 239 79q114 0 167 -53q56 53 162 53q120 0 188 -67.5t68 -193.5q0 -33 -5 -56h-350q16 -93 123 -93q90 0 160 51l55 -104q-103 -69 -229 -69q-148 0 -211 100q-27 -49 -79 -74.5t-117 -25.5q-91 0 -137 43.5t-46 113.5q0 176 318 176v10
q0 70 -87 70q-85 0 -152 -56zM504 305h185q-2 45 -26 69t-63 24q-80 0 -96 -93zM244 105q38 0 67 26.5t29 69.5v10q-89 0 -120 -15t-31 -44q0 -47 55 -47z" />
    <glyph glyph-name="uni04D6" unicode="&#x4d6;" horiz-adv-x="655" 
d="M72 0v682h524v-135h-350v-135h303v-130h-303v-146h367v-136h-541zM404 908h135q-11 -177 -205 -177q-102 0 -147.5 45.5t-51.5 131.5h135q13 -83 67 -83t67 83z" />
    <glyph glyph-name="uni04D7" unicode="&#x4d7;" horiz-adv-x="591" 
d="M487 157l55 -104q-104 -69 -229 -69q-133 0 -207 68t-74 197q0 125 75.5 196t195.5 71t188 -67.5t68 -193.5q0 -33 -5 -56h-350q16 -93 123 -93q90 0 160 51zM205 305h185q-2 45 -26 69t-63 24q-81 0 -96 -93zM352 720h130q-8 -88 -55 -129t-134 -41q-92 0 -136.5 40
t-52.5 130h134q6 -77 57 -77t57 77z" />
    <glyph glyph-name="uni04D8" unicode="&#x4d8;" horiz-adv-x="729" 
d="M201 459l-144 73q104 168 298 168q146 0 241.5 -97t95.5 -261q0 -159 -96.5 -259.5t-241.5 -100.5q-164 0 -244 96t-80 253q0 35 6 70h467q-12 73 -54 109t-101 36q-100 0 -147 -87zM356 138q59 0 97 36t50 103h-289q0 -62 37.5 -100.5t104.5 -38.5z" />
    <glyph glyph-name="uni04D9" unicode="&#x4d9;" horiz-adv-x="591" 
d="M104 343l-55 104q104 69 229 69q133 0 207 -68t74 -197q0 -125 -75.5 -196t-195.5 -71t-188 67.5t-68 193.5q0 33 5 56h350q-16 93 -123 93q-90 0 -160 -51zM386 195h-185q2 -45 26 -69t63 -24q80 0 96 93z" />
    <glyph glyph-name="uni04DC" unicode="&#x4dc;" horiz-adv-x="1092" 
d="M1100 0h-205l-184 283h-77v-283h-174v283h-77l-188 -283h-203l249 369l-238 313h200l180 -256h77v256h174v-256h77l185 256h193l-233 -309zM501 734h-160v150h160v-150zM751 734h-160v150h160v-150z" />
    <glyph glyph-name="uni04DD" unicode="&#x4dd;" horiz-adv-x="838" 
d="M848 0h-185l-112 198h-52v-198h-160v198h-52l-111 -198h-186l164 269l-161 231h188l107 -177h51v177h160v-177h51l108 177h184l-156 -224zM384 552h-150v150h150v-150zM604 552h-150v150h150v-150z" />
    <glyph glyph-name="uni04DE" unicode="&#x4de;" horiz-adv-x="649" 
d="M12 93l113 113q70 -78 182 -78q55 0 85 19.5t30 55.5q0 40 -32 58t-102 18h-109v138h107q114 0 114 70q0 31 -27 50t-84 19q-96 0 -177 -54l-79 120q52 36 124 57t143 21q138 0 209.5 -51t71.5 -142q0 -52 -29.5 -89t-79.5 -53v-1q63 -14 98.5 -56.5t35.5 -104.5
q0 -104 -84.5 -162.5t-215.5 -58.5q-183 0 -294 111zM258 734h-160v150h160v-150zM508 734h-160v150h160v-150z" />
    <glyph glyph-name="uni04DF" unicode="&#x4df;" horiz-adv-x="540" 
d="M152 199v106h72q45 0 66 10.5t21 36.5q0 45 -70 45q-83 0 -150 -56l-67 96q103 79 237 79q114 0 171 -38t57 -108q0 -79 -86 -104v-2q48 -10 75.5 -39.5t27.5 -70.5q0 -82 -69.5 -126t-189.5 -44q-137 0 -231 73l67 105q71 -57 165 -57q80 0 80 48q0 25 -26 35.5
t-85 10.5h-65zM231 552h-150v150h150v-150zM451 552h-150v150h150v-150z" />
    <glyph glyph-name="uni04E2" unicode="&#x4e2;" horiz-adv-x="770" 
d="M698 0h-174v430l-278 -430h-174v682h174v-430l278 430h174v-682zM568 873v-132h-366v132h366z" />
    <glyph glyph-name="uni04E3" unicode="&#x4e3;" horiz-adv-x="636" 
d="M571 0h-160v291l-176 -291h-170v500h160v-291l176 291h170v-500zM491 687v-128h-346v128h346z" />
    <glyph glyph-name="uni04E4" unicode="&#x4e4;" horiz-adv-x="770" 
d="M698 0h-174v430l-278 -430h-174v682h174v-430l278 430h174v-682zM340 734h-160v150h160v-150zM590 734h-160v150h160v-150z" />
    <glyph glyph-name="uni04E5" unicode="&#x4e5;" horiz-adv-x="636" 
d="M571 0h-160v291l-176 -291h-170v500h160v-291l176 291h170v-500zM283 552h-150v150h150v-150zM503 552h-150v150h150v-150z" />
    <glyph glyph-name="uni04E6" unicode="&#x4e6;" horiz-adv-x="794" 
d="M573 341q0 92 -47 147.5t-129 55.5t-129 -55.5t-47 -147.5t47 -147.5t129 -55.5t129 55.5t47 147.5zM757 343q0 -162 -101 -261.5t-261 -99.5q-161 0 -259.5 97t-98.5 260q0 162 101 261.5t261 99.5q161 0 259.5 -97t98.5 -260zM352 734h-160v150h160v-150zM602 734h-160
v150h160v-150z" />
    <glyph glyph-name="uni04E7" unicode="&#x4e7;" horiz-adv-x="604" 
d="M402 250q0 63 -26.5 98t-73.5 35t-73.5 -35t-26.5 -98t26.5 -98t73.5 -35t73.5 35t26.5 98zM572 251q0 -125 -76 -196t-196 -71q-123 0 -195.5 68.5t-72.5 196.5q0 125 76 196t196 71q123 0 195.5 -68.5t72.5 -196.5zM267 552h-150v150h150v-150zM487 552h-150v150h150
v-150z" />
    <glyph glyph-name="uni04E8" unicode="&#x4e8;" horiz-adv-x="794" 
d="M757 343q0 -162 -101 -261.5t-261 -99.5q-161 0 -259.5 97t-98.5 260q0 162 101 261.5t261 99.5q161 0 259.5 -97t98.5 -260zM397 132q70 0 116 40t60 110h-353q14 -70 60.5 -110t116.5 -40zM397 550q-67 0 -112.5 -36.5t-61.5 -101.5h347q-16 65 -61 101.5t-112 36.5z
" />
    <glyph glyph-name="uni04E9" unicode="&#x4e9;" horiz-adv-x="604" 
d="M572 251q0 -125 -76 -196t-196 -71q-123 0 -195.5 68.5t-72.5 196.5q0 125 76 196t196 71q123 0 195.5 -68.5t72.5 -196.5zM302 107q86 0 104 92h-209q18 -92 105 -92zM302 393q-86 0 -104 -88h208q-20 88 -104 88z" />
    <glyph glyph-name="uni04EE" unicode="&#x4ee;" horiz-adv-x="658" 
d="M668 682l-219 -481q-57 -126 -124.5 -172t-156.5 -46q-56 0 -95 14v138h80q85 0 115 57l-258 490h202l151 -306l122 306h183zM532 873v-132h-366v132h366z" />
    <glyph glyph-name="uni04EF" unicode="&#x4ef;" horiz-adv-x="548" 
d="M285 -180h-169l82 162l-201 518h182l59 -195q37 -123 39 -129h3q6 25 19.5 69.5t17.5 59.5l59 195h175zM451 687v-128h-346v128h346z" />
    <glyph glyph-name="uni04F0" unicode="&#x4f0;" horiz-adv-x="658" 
d="M668 682l-219 -481q-57 -126 -124.5 -172t-156.5 -46q-56 0 -95 14v138h80q85 0 115 57l-258 490h202l151 -306l122 306h183zM318 734h-160v150h160v-150zM568 734h-160v150h160v-150z" />
    <glyph glyph-name="uni04F1" unicode="&#x4f1;" horiz-adv-x="548" 
d="M285 -180h-169l82 162l-201 518h182l59 -195q37 -123 39 -129h3q6 25 19.5 69.5t17.5 59.5l59 195h175zM244 552h-150v150h150v-150zM464 552h-150v150h150v-150z" />
    <glyph glyph-name="uni04F2" unicode="&#x4f2;" horiz-adv-x="658" 
d="M668 682l-219 -481q-57 -126 -124.5 -172t-156.5 -46q-56 0 -95 14v138h80q85 0 115 57l-258 490h202l151 -306l122 306h183zM148 734l54 150h200l-102 -150h-152zM392 734l83 150h213l-141 -150h-155z" />
    <glyph glyph-name="uni04F3" unicode="&#x4f3;" horiz-adv-x="548" 
d="M285 -180h-169l82 162l-201 518h182l59 -195q37 -123 39 -129h3q6 25 19.5 69.5t17.5 59.5l59 195h175zM81 552l54 150h195l-107 -150h-142zM306 552l84 150h202l-141 -150h-145z" />
    <glyph glyph-name="uni04F4" unicode="&#x4f4;" horiz-adv-x="695" 
d="M623 0h-174v235h-120q-152 0 -217.5 60t-65.5 199v188h174v-165q0 -81 29 -110t108 -29h92v304h174v-682zM292 734h-160v150h160v-150zM542 734h-160v150h160v-150z" />
    <glyph glyph-name="uni04F5" unicode="&#x4f5;" horiz-adv-x="572" 
d="M507 0h-160v181q-50 -44 -124 -44q-196 0 -196 208v155h160v-125q0 -56 15.5 -83t57.5 -27t64.5 33t22.5 83v119h160v-500zM231 552h-150v150h150v-150zM451 552h-150v150h150v-150z" />
    <glyph glyph-name="uni04F8" unicode="&#x4f8;" horiz-adv-x="985" 
d="M246 339v-197q35 -1 101 -1q73 0 102 25t29 74q0 50 -29.5 75t-104.5 25q-64 0 -98 -1zM72 0v682h174v-201q58 2 103 2q52 0 94.5 -6t84.5 -22t70.5 -42t46 -69.5t17.5 -101.5q0 -127 -85.5 -185.5t-234.5 -58.5zM913 0h-174v682h174v-682zM447 734h-160v150h160v-150z
M697 734h-160v150h160v-150z" />
    <glyph glyph-name="uni04F9" unicode="&#x4f9;" horiz-adv-x="815" 
d="M65 2v498h160v-130q40 2 61 2q125 0 188.5 -49t63.5 -143t-66 -145t-190 -51q-120 0 -217 18zM225 250v-140q30 -6 59 -6q40 0 62 19.5t22 54.5t-22 54.5t-62 19.5q-15 0 -59 -2zM750 0h-160v500h160v-500zM372 552h-150v150h150v-150zM592 552h-150v150h150v-150z" />
    <glyph glyph-name="uni0E3F" unicode="&#xe3f;" 
d="M244 793h150v-112q106 -9 160 -61q43 -43 43 -108q0 -113 -107 -147q62 -14 97 -55t35 -102q0 -104 -59.5 -151t-168.5 -56v-108h-150v105q-60 0 -182 2v682q46 0 182 2v109zM236 283v-147q35 -2 94 -2q53 0 82.5 15.5t29.5 58.5q0 75 -105 75h-101zM236 546v-132h82
q64 0 85 21q18 18 18 48q0 27 -16 43q-22 22 -101 22q-24 0 -68 -2z" />
    <glyph glyph-name="uni1E02" unicode="&#x1e02;" horiz-adv-x="729" 
d="M246 283v-147q92 -2 134 -2q56 0 89 14.5t33 58.5q0 26 -11 42.5t-31.5 23t-36 8.5t-36.5 2h-141zM246 546v-132h112q82 0 105 23q18 18 18 46q0 26 -16 42q-14 14 -38.5 18.5t-82.5 4.5q-32 0 -98 -2zM72 0v682q140 2 297 2q185 0 249 -64q43 -43 43 -108
q0 -112 -111 -147q62 -14 99 -55.5t37 -102.5q0 -51 -18.5 -89t-48.5 -60.5t-75 -36.5t-89.5 -18.5t-100.5 -4.5q-199 0 -282 2zM450 734h-172v150h172v-150z" />
    <glyph glyph-name="uni1E03" unicode="&#x1e03;" horiz-adv-x="621" 
d="M65 252v450h160v-159q0 -49 -8 -97h2q24 34 65 52t87 18q102 0 160 -73.5t58 -191.5q0 -119 -64.5 -193t-170.5 -74q-99 0 -144 70h-1l-3 -54h-148q7 142 7 252zM222 256v-14q0 -59 26.5 -94.5t72.5 -35.5q47 0 72.5 37t25.5 101q0 62 -26.5 100t-74.5 38q-44 0 -70 -35
t-26 -97zM442 556h-162v150h162v-150z" />
    <glyph glyph-name="uni1E0A" unicode="&#x1e0a;" horiz-adv-x="755" 
d="M245 540v-396q56 -2 90 -2q54 0 86.5 7.5t59.5 34.5q53 53 53 157q0 100 -55 155q-28 28 -62 36.5t-92 8.5q-56 0 -80 -1zM72 0v682q46 0 133.5 0.5t123.5 0.5q99 0 171 -20t126 -74q92 -92 92 -245q0 -158 -93 -251q-94 -94 -287 -94q-36 0 -126.5 0.5t-139.5 0.5z
M443 734h-172v150h172v-150z" />
    <glyph glyph-name="uni1E0B" unicode="&#x1e0b;" horiz-adv-x="621" 
d="M399 244v14q0 59 -26.5 94.5t-72.5 35.5q-47 0 -72.5 -37t-25.5 -101q0 -62 26.5 -100t74.5 -38q44 0 70 35t26 97zM559 0h-149l-2 60h-1q-52 -76 -157 -76q-102 0 -160 73.5t-58 191.5q0 119 64.5 193t170.5 74q88 0 132 -55h1q-4 40 -4 82v159h160v-452q0 -124 3 -250z
M341 556h-162v150h162v-150z" />
    <glyph glyph-name="uni1E1E" unicode="&#x1e1e;" horiz-adv-x="607" 
d="M72 0v682h501v-137h-327v-158h283v-132h-283v-255h-174zM402 734h-172v150h172v-150z" />
    <glyph glyph-name="uni1E1F" unicode="&#x1e1f;" horiz-adv-x="337" 
d="M75 0v374h-62v126h62v61q-2 73 43 114t128 41q62 0 97 -12v-125q-39 7 -69 7q-39 0 -39 -41v-45h91v-126h-91v-374h-160zM319 754h-162v150h162v-150z" />
    <glyph glyph-name="uni1E40" unicode="&#x1e40;" horiz-adv-x="972" 
d="M72 0v682h290l90 -281q32 -100 38 -153h3q7 63 36 153l90 281h281v-682h-174v240q0 201 7 306h-6q-17 -82 -47 -173l-120 -373h-158l-120 373q-30 91 -47 173h-6q7 -105 7 -306v-240h-164zM572 734h-172v150h172v-150z" />
    <glyph glyph-name="uni1E41" unicode="&#x1e41;" horiz-adv-x="940" 
d="M885 0h-160v250q0 79 -11 101q-18 37 -66 37q-38 0 -61 -23q-32 -32 -32 -114v-251h-160v250q0 79 -11 101q-18 37 -66 37q-38 0 -61 -23q-32 -32 -32 -114v-251h-160v240q0 122 -3 260h148l3 -60h1q52 76 155 76q111 0 158 -80q63 80 172 80q88 0 137 -51.5t49 -156.5
v-308zM551 552h-162v150h162v-150z" />
    <glyph glyph-name="uni1E56" unicode="&#x1e56;" horiz-adv-x="689" 
d="M488 446q0 47 -29.5 71t-104.5 24q-74 0 -108 -1v-187q35 -1 111 -1q72 0 101.5 24t29.5 70zM72 0v682q50 0 144 1t143 1q52 0 94.5 -5.5t84.5 -21.5t70.5 -42t46 -68.5t17.5 -98.5q0 -123 -86 -180.5t-234 -57.5q-77 0 -106 1v-211h-174zM439 734h-172v150h172v-150z
" />
    <glyph glyph-name="uni1E57" unicode="&#x1e57;" horiz-adv-x="621" 
d="M222 256v-14q0 -59 26.5 -94.5t72.5 -35.5q47 0 72.5 37t25.5 101q0 62 -26.5 100t-74.5 38q-44 0 -70 -35t-26 -97zM225 -180h-160v430q0 133 -3 250h148l3 -60h1q52 76 157 76q102 0 160 -73.5t58 -191.5q0 -119 -64.5 -193t-170.5 -74q-88 0 -132 55h-1q4 -40 4 -82
v-137zM401 556h-162v150h162v-150z" />
    <glyph glyph-name="uni1E60" unicode="&#x1e60;" horiz-adv-x="688" 
d="M39 68l63 136q126 -80 250 -80q60 0 86.5 17.5t26.5 44.5q0 25 -23 40.5t-59 23.5t-80.5 15t-88.5 20.5t-80 35.5t-59 64t-23 102q0 94 76 153.5t210 59.5q125 0 256 -63l-60 -139q-101 61 -200 61q-55 0 -78.5 -16t-23.5 -39q0 -24 23 -38.5t59.5 -21.5t81 -13.5
t88.5 -20.5t80.5 -36t59.5 -66t23 -105q0 -96 -80 -158.5t-219 -62.5q-74 0 -158 23t-151 63zM430 734h-172v150h172v-150z" />
    <glyph glyph-name="uni1E61" unicode="&#x1e61;" horiz-adv-x="528" 
d="M28 47l55 116q93 -57 188 -57q66 0 66 33q0 18 -21.5 28.5t-54.5 14t-70.5 13t-70.5 23.5t-54.5 48t-21.5 84q0 77 59.5 121.5t165.5 44.5q109 0 199 -45l-51 -111q-69 39 -150 39q-60 0 -60 -30q0 -18 22 -28t54.5 -13t71 -12.5t71 -24t54.5 -48.5t22 -85
q0 -81 -62 -127.5t-171 -46.5q-123 0 -241 63zM346 556h-162v150h162v-150z" />
    <glyph glyph-name="uni1E6A" unicode="&#x1e6a;" horiz-adv-x="542" 
d="M182 0v539h-185v143h548v-143h-185v-539h-178zM357 734h-172v150h172v-150z" />
    <glyph glyph-name="uni1E6B" unicode="&#x1e6b;" horiz-adv-x="376" 
d="M79 373h-61v127h61v139l160 29v-168h108v-127h-108v-162q0 -45 2 -60t10 -23q11 -11 35 -11q35 0 61 7v-123q-44 -17 -106 -17q-88 0 -125.5 40t-36.5 130v219zM241 714h-162v150h162v-150z" />
    <glyph glyph-name="Wgrave" unicode="&#x1e80;" horiz-adv-x="1077" 
d="M426 0h-227l-183 682h194l71 -314q18 -79 39 -199h4q17 91 45 198l82 315h191l80 -315q36 -139 47 -198h4q14 87 40 204l70 309h178l-183 -682h-227l-66 252q-39 149 -45 192h-4q-7 -51 -44 -192zM555 884l83 -150h-155l-141 150h213z" />
    <glyph glyph-name="wgrave" unicode="&#x1e81;" horiz-adv-x="836" 
d="M679 0h-190l-42 165q-17 65 -28 142h-2q-11 -77 -28 -142l-42 -165h-190l-151 500h170l56 -202q18 -67 32 -149h3q14 96 28 150l51 201h156l51 -202q15 -59 30 -149h3q8 57 29 149l47 202h168zM431 702l83 -150h-145l-141 150h203z" />
    <glyph glyph-name="Wacute" unicode="&#x1e82;" horiz-adv-x="1077" 
d="M426 0h-227l-183 682h194l71 -314q18 -79 39 -199h4q17 91 45 198l82 315h191l80 -315q36 -139 47 -198h4q14 87 40 204l70 309h178l-183 -682h-227l-66 252q-39 149 -45 192h-4q-7 -51 -44 -192zM438 734l83 150h213l-141 -150h-155z" />
    <glyph glyph-name="wacute" unicode="&#x1e83;" horiz-adv-x="836" 
d="M679 0h-190l-42 165q-17 65 -28 142h-2q-11 -77 -28 -142l-42 -165h-190l-151 500h170l56 -202q18 -67 32 -149h3q14 96 28 150l51 201h156l51 -202q15 -59 30 -149h3q8 57 29 149l47 202h168zM322 552l83 150h203l-141 -150h-145z" />
    <glyph glyph-name="Wdieresis" unicode="&#x1e84;" horiz-adv-x="1077" 
d="M426 0h-227l-183 682h194l71 -314q18 -79 39 -199h4q17 91 45 198l82 315h191l80 -315q36 -139 47 -198h4q14 87 40 204l70 309h178l-183 -682h-227l-66 252q-39 149 -45 192h-4q-7 -51 -44 -192zM493 734h-160v150h160v-150zM743 734h-160v150h160v-150z" />
    <glyph glyph-name="wdieresis" unicode="&#x1e85;" horiz-adv-x="836" 
d="M679 0h-190l-42 165q-17 65 -28 142h-2q-11 -77 -28 -142l-42 -165h-190l-151 500h170l56 -202q18 -67 32 -149h3q14 96 28 150l51 201h156l51 -202q15 -59 30 -149h3q8 57 29 149l47 202h168zM383 552h-150v150h150v-150zM603 552h-150v150h150v-150z" />
    <glyph glyph-name="uni1E9E" unicode="&#x1e9e;" horiz-adv-x="805" 
d="M65 0v431q0 130 83.5 199.5t250.5 69.5q156 0 300 -36v-131l-140 -138q206 -33 206 -195q0 -96 -72 -157t-216 -61q-83 0 -159 24l25 136q63 -18 135 -18q103 0 103 67q0 35 -36 53t-136 18h-60v132l161 157q-53 8 -113 8q-75 0 -116.5 -29t-41.5 -100v-430h-174z" />
    <glyph glyph-name="Ygrave" unicode="&#x1ef2;" horiz-adv-x="658" 
d="M416 0h-174v271l-242 411h209l125 -238l121 238h203l-242 -411v-271zM347 884l83 -150h-155l-141 150h213z" />
    <glyph glyph-name="ygrave" unicode="&#x1ef3;" horiz-adv-x="538" 
d="M305 -180h-179l79 180h-34l-174 500h179l58 -195q27 -94 38 -157h3q10 52 37 157l51 195h178zM282 702l83 -150h-145l-141 150h203z" />
    <glyph glyph-name="endash" unicode="&#x2013;" 
d="M605 356v-144h-560v144h560z" />
    <glyph glyph-name="emdash" unicode="&#x2014;" horiz-adv-x="984" 
d="M947 356v-144h-910v144h910z" />
    <glyph glyph-name="emdash" unicode="&#x2015;" horiz-adv-x="984" 
d="M947 356v-144h-910v144h910z" />
    <glyph glyph-name="quotesinglbase" unicode="&#x201a;" horiz-adv-x="320" 
d="M66 177h188v-147q0 -93 -39 -138.5t-130 -75.5l-32 87q46 27 61.5 45.5t15.5 51.5h-64v177z" />
    <glyph glyph-name="quotedblleft" unicode="&#x201c;" horiz-adv-x="553" 
d="M487 490h-173v147q0 86 34.5 136.5t119.5 77.5l32 -88q-46 -25 -61.5 -44.5t-15.5 -51.5h64v-177zM239 490h-173v147q0 86 34.5 136.5t119.5 77.5l32 -88q-46 -25 -61.5 -44.5t-15.5 -51.5h64v-177z" />
    <glyph glyph-name="quotedblright" unicode="&#x201d;" horiz-adv-x="553" 
d="M66 821h173v-147q0 -91 -37.5 -140.5t-116.5 -73.5l-32 88q46 25 61.5 44.5t15.5 51.5h-64v177zM314 821h173v-147q0 -91 -37.5 -140.5t-116.5 -73.5l-32 88q46 25 61.5 44.5t15.5 51.5h-64v177z" />
    <glyph glyph-name="quotedblbase" unicode="&#x201e;" horiz-adv-x="553" 
d="M66 177h173v-147q0 -91 -37.5 -140.5t-116.5 -73.5l-32 88q46 25 61.5 44.5t15.5 51.5h-64v177zM314 177h173v-147q0 -91 -37.5 -140.5t-116.5 -73.5l-32 88q46 25 61.5 44.5t15.5 51.5h-64v177z" />
    <glyph glyph-name="dagger" unicode="&#x2020;" horiz-adv-x="556" 
d="M358 100h-160v408h-160v132h160v166h160v-166h160v-132h-160v-408z" />
    <glyph glyph-name="daggerdbl" unicode="&#x2021;" horiz-adv-x="556" 
d="M518 349v-132h-160v-167h-160v167h-160v132h160v159h-160v132h160v166h160v-166h160v-132h-160v-159h160z" />
    <glyph glyph-name="bullet" unicode="&#x2022;" horiz-adv-x="434" 
d="M379 323q0 -67 -48 -115t-115 -48t-114 47t-47 114t48 115t115 48t114 -47t47 -114z" />
    <glyph glyph-name="ellipsis" unicode="&#x2026;" horiz-adv-x="992" 
d="M254 0h-188v184h188v-184zM590 0h-188v184h188v-184zM926 0h-188v184h188v-184z" />
    <glyph glyph-name="perthousand" unicode="&#x2030;" horiz-adv-x="1652" 
d="M344 558q0 106 -72 106t-72 -106t72 -106t72 106zM499 560q0 -109 -61 -171.5t-170 -62.5q-108 0 -165.5 60.5t-57.5 169.5t61 171.5t170 62.5q108 0 165.5 -60.5t57.5 -169.5zM753 778h174l-542 -874h-174zM938 124q0 106 -72 106t-72 -106t72 -106t72 106zM1093 126
q0 -109 -61 -171.5t-170 -62.5q-108 0 -165.5 60.5t-57.5 169.5t61 171.5t170 62.5q108 0 165.5 -60.5t57.5 -169.5zM1452 124q0 106 -72 106t-72 -106t72 -106t72 106zM1607 126q0 -109 -61 -171.5t-170 -62.5q-108 0 -165.5 60.5t-57.5 169.5t61 171.5t170 62.5
q108 0 165.5 -60.5t57.5 -169.5z" />
    <glyph glyph-name="guilsinglleft" unicode="&#x2039;" horiz-adv-x="416" 
d="M343 94l-134 -64l-154 254l156 253l133 -61l-97 -191z" />
    <glyph glyph-name="guilsinglright" unicode="&#x203a;" horiz-adv-x="416" 
d="M73 473l134 64l154 -254l-156 -253l-133 61l97 191z" />
    <glyph glyph-name="fraction" unicode="&#x2044;" horiz-adv-x="416" 
d="M397 778h174l-542 -874h-174z" />
    <glyph glyph-name="zero.superior" unicode="&#x2070;" horiz-adv-x="544" 
d="M344 558q0 106 -72 106t-72 -106t72 -106t72 106zM499 560q0 -109 -61 -171.5t-170 -62.5q-108 0 -165.5 60.5t-57.5 169.5t61 171.5t170 62.5q108 0 165.5 -60.5t57.5 -169.5z" />
    <glyph glyph-name="four.superior" unicode="&#x2074;" horiz-adv-x="545" 
d="M441 338h-160v77h-245v126l174 237h231v-242h68v-121h-68v-77zM179 533q36 2 102 2v76q0 41 1 57h-4z" />
    <glyph glyph-name="uni2081" unicode="&#x2081;" horiz-adv-x="390" 
d="M316 -96h-162v279q-32 -28 -117 -28v122q50 0 86.5 18.5t46.5 48.5h146v-440z" />
    <glyph glyph-name="uni2082" unicode="&#x2082;" horiz-adv-x="543" 
d="M480 26v-122h-418v137q159 74 202 102.5t43 60.5q0 18 -12.5 28.5t-33.5 10.5q-46 0 -46 -41q0 -19 6 -37h-151q-6 15 -6 36q0 72 56.5 113.5t147.5 41.5q103 0 156 -39t53 -111q0 -56 -49 -99t-160 -78v-5q78 2 110 2h102z" />
    <glyph glyph-name="uni2083" unicode="&#x2083;" horiz-adv-x="543" 
d="M48 34l148 20q4 -58 66 -58q47 0 47 39q0 44 -68 44h-47v94h41q43 0 58 15q11 11 11 28t-11.5 27t-32.5 10q-27 0 -43 -15.5t-19 -42.5l-144 20q10 66 65.5 103.5t145.5 37.5q97 0 152.5 -31.5t55.5 -94.5q0 -34 -23.5 -59.5t-60.5 -34.5v-3q95 -20 95 -105
q0 -62 -58 -99t-164 -37q-198 0 -214 142z" />
    <glyph glyph-name="uni2084" unicode="&#x2084;" horiz-adv-x="545" 
d="M441 -96h-160v77h-245v126l174 237h231v-242h68v-121h-68v-77zM179 99q36 2 102 2v76q0 41 1 57h-4z" />
    <glyph glyph-name="Euro" unicode="&#x20ac;" horiz-adv-x="720" 
d="M473 313v-112h-173q39 -72 127 -72q90 0 146 61l98 -106q-43 -47 -108.5 -74.5t-137.5 -27.5q-115 0 -198 56t-116 163h-88v112h70q-1 9 -1 27t1 27h-70v112h88q24 75 75.5 126.5t113 73t130.5 21.5q136 0 228 -86l-94 -116q-55 57 -137 57q-87 0 -127 -76h173v-112h-200
v-25q0 -20 1 -29h199z" />
    <glyph glyph-name="uni20AE" unicode="&#x20ae;" 
d="M77 369l161 35v135h-217v143h608v-143h-217v-97l161 35v-112l-161 -35v-54l161 35v-112l-161 -35v-164h-174v126l-161 -35v112l161 35v54l-161 -35v112z" />
    <glyph glyph-name="uni20B4" unicode="&#x20b4;" 
d="M26 486h344q2 8 2 14q0 69 -78 69q-65 0 -125 -45l-56 122q91 54 208 54q113 0 172 -51.5t59 -139.5q0 -9 -2 -23h74v-112h-141q-18 -17 -70 -54h211v-112h-342q-4 -9 -4 -22q0 -37 19.5 -54.5t64.5 -17.5q75 0 146 54l57 -118q-41 -31 -103.5 -49.5t-122.5 -18.5
q-120 0 -180.5 51.5t-60.5 143.5q0 16 3 31h-75v112h149q30 25 73 54h-222v112z" />
    <glyph glyph-name="uni20B8" unicode="&#x20b8;" 
d="M619 496v-132h-207v-364h-174v364h-207v132h588zM31 682h588v-132h-588v132z" />
    <glyph glyph-name="uni20BA" unicode="&#x20ba;" 
d="M39 457l91 23v202h174v-159l196 50v-112l-196 -50v-54l196 50v-112l-196 -50v-103q14 -1 25 -1q146 0 252 63v-156q-96 -55 -264 -55q-84 0 -187 7v201l-91 -23v113l91 23v52l-91 -23v114z" />
    <glyph glyph-name="uni20BD" unicode="&#x20bd;" 
d="M487 94h-203v-94h-174v94h-76v112h76v60h-76v116h76v300q50 0 123.5 1t122.5 1q279 0 279 -208q0 -210 -286 -210h-65v-60h203v-112zM451 474q0 42 -26 66t-74 24q-44 0 -67 -1v-181h67q48 0 74 24.5t26 67.5z" />
    <glyph glyph-name="afii61289" unicode="&#x2113;" horiz-adv-x="529" 
d="M279 -16q-140 0 -187 132l-38 -14l-49 124l60 23q-3 35 -3 109q0 105 16 177t47.5 110.5t70.5 54.5t91 16q190 0 190 -211q0 -110 -51.5 -190t-187.5 -143q9 -30 24 -41.5t41 -11.5q51 0 98 37l60 -105q-74 -67 -182 -67zM224 365v-46q51 34 70.5 77t19.5 105
q0 45 -8 63.5t-27 18.5q-17 0 -28 -13t-19 -63.5t-8 -141.5z" />
    <glyph glyph-name="uni2116" unicode="&#x2116;" horiz-adv-x="1236" 
d="M977 313q-100 0 -156.5 53t-56.5 140q0 84 61 139t156 55q99 0 156 -52.5t57 -139.5q0 -84 -61 -139.5t-156 -55.5zM979 419q34 0 53 23t19 64q0 42 -19 65t-53 23q-35 0 -53.5 -22.5t-18.5 -64.5t19 -65t53 -23zM1173 157h-388v116h388v-116zM706 0h-216l-194 341
q-39 70 -67 139h-4q11 -125 11 -278v-202h-164v682h230l180 -316q39 -70 67 -139h4q-11 125 -11 278v177h164v-682z" />
    <glyph glyph-name="trademark" unicode="&#x2122;" horiz-adv-x="1044" 
d="M123 312v264h-108v106h348v-106h-108v-264h-132zM407 312v370h215l51 -158q11 -34 24 -92h3q14 56 26 92l50 158h205v-370h-121v130q0 111 1 144h-4q-18 -62 -35 -111l-58 -163h-140l-58 164q-13 35 -37 110h-4q1 -30 1 -144v-130h-119z" />
    <glyph glyph-name="estimated" unicode="&#x212e;" horiz-adv-x="946" 
d="M297 412h352v66q0 17 -7 23q-62 51 -169 51q-103 0 -169 -51q-7 -6 -7 -23v-66zM470 -18q-194 0 -313.5 97t-119.5 260q0 162 122 261.5t316 99.5t314 -97t120 -260q0 -39 -5 -61h-607v-78q0 -17 7 -23q60 -51 172 -51q123 0 189 71h231q-47 -100 -161.5 -159.5
t-264.5 -59.5z" />
    <glyph glyph-name="partialdiff" unicode="&#x2202;" horiz-adv-x="635" 
d="M302 117q47 0 73 34t26 95t-26.5 95t-73.5 34t-73 -34t-26 -95t26.5 -95t73.5 -34zM298 -16q-124 0 -195 70.5t-71 193.5q0 118 68.5 189t185.5 71q90 0 141 -58h1q-5 10 -13.5 30.5t-17.5 36.5t-22 29q-37 37 -101 37q-76 0 -125 -18v136q56 15 134 15q158 0 230 -95.5
t72 -282.5q0 -176 -73 -265t-214 -89z" />
    <glyph glyph-name="product" unicode="&#x220f;" horiz-adv-x="870" 
d="M748 -180h-174v811h-278v-811h-174v811h-120v147h866v-147h-120v-811z" />
    <glyph glyph-name="summation" unicode="&#x2211;" horiz-adv-x="708" 
d="M47 -180v141l246 345l-236 332v140h574v-143q-184 0 -346 3l230 -321l-256 -356q177 3 395 3v-144h-607z" />
    <glyph glyph-name="minus" unicode="&#x2212;" 
d="M605 389v-134h-560v134h560z" />
    <glyph glyph-name="radical" unicode="&#x221a;" horiz-adv-x="718" 
d="M434 -96h-211l-102 304h-104v136h243l26 -88q34 -112 46 -184h4q13 66 49 186l155 520h186z" />
    <glyph glyph-name="infinity" unicode="&#x221e;" horiz-adv-x="1038" 
d="M274 95q-104 0 -168 62t-64 163q0 104 66.5 166.5t177.5 62.5q134 0 241 -122q113 122 237 122q104 0 168 -61.5t64 -161.5q0 -106 -66.5 -168.5t-179.5 -62.5q-132 0 -240 121q-114 -121 -236 -121zM748 416q-63 0 -141 -89q38 -48 70.5 -73.5t70.5 -25.5
q37 0 57.5 25.5t20.5 68.5t-20.5 68.5t-57.5 25.5zM290 228q37 0 70 22.5t71 66.5q-39 49 -71 74t-70 25q-37 0 -57.5 -25.5t-20.5 -68.5t20.5 -68.5t57.5 -25.5z" />
    <glyph glyph-name="integral" unicode="&#x222b;" horiz-adv-x="390" 
d="M104 -192q-60 0 -102 11l10 127q30 -8 64 -8q39 0 39 41v656q0 73 44.5 114t126.5 41q63 0 102 -12l-10 -126q-29 8 -64 8q-39 0 -39 -41v-656q1 -73 -43.5 -114t-127.5 -41z" />
    <glyph glyph-name="approxequal" unicode="&#x2248;" 
d="M427 334q-52 0 -114.5 29.5t-92.5 29.5q-46 0 -96 -52l-86 88q35 47 84 76.5t101 29.5t114.5 -29.5t92.5 -29.5q43 0 97 52l85 -88q-35 -47 -84 -76.5t-101 -29.5zM427 109q-52 0 -114.5 29.5t-92.5 29.5q-46 0 -96 -52l-86 88q35 47 84 76.5t101 29.5t114.5 -29.5
t92.5 -29.5q43 0 97 52l85 -88q-35 -47 -84 -76.5t-101 -29.5z" />
    <glyph glyph-name="notequal" unicode="&#x2260;" 
d="M257 21h-156l65 129h-111v134h175l37 76h-212v134h276l57 121h155l-60 -121h112v-134h-177l-36 -76h213v-134h-277z" />
    <glyph glyph-name="lessequal" unicode="&#x2264;" 
d="M595 134v-134h-540v134h540zM595 319v-162l-540 200v150l540 201v-161q-288 -101 -357 -113v-2q69 -12 357 -113z" />
    <glyph glyph-name="greaterequal" unicode="&#x2265;" 
d="M595 134v-134h-540v134h540zM55 547v161l540 -201v-150l-540 -200v162q288 101 357 113v2q-69 12 -357 113z" />
    <glyph glyph-name="lozenge" unicode="&#x25ca;" horiz-adv-x="664" 
d="M432 0h-200l-213 341l213 341h200l213 -341zM334 153h2q21 50 108 185q-84 130 -114 191h-2q-21 -50 -108 -185q84 -130 114 -191z" />
    <glyph glyph-name="uniF8FF" unicode="&#xf8ff;" horiz-adv-x="828" 
d="M148 608v-532h532v532h-532zM72 0v684h684v-684h-684zM224 152v380h76v-304h152v-76h-228zM528 152v152h-152v76h152v76h-152v76h228v-380h-76z" />
    <glyph glyph-name="fi" unicode="&#xfb01;" horiz-adv-x="635" 
d="M75 0v374h-62v126h62v61q-2 73 43 114t128 41q62 0 97 -12v-125q-39 7 -69 7q-39 0 -39 -41v-45h91v-126h-91v-374h-160zM570 0h-160v500h160v-500zM409 552v150h162v-150h-162z" />
    <glyph glyph-name="fl" unicode="&#xfb02;" horiz-adv-x="635" 
d="M410 0v702h160v-702h-160zM75 0v374h-62v126h62v61q-2 73 43 114t128 41q62 0 97 -12v-125q-39 7 -69 7q-39 0 -39 -41v-45h91v-126h-91v-374h-160z" />
    <glyph glyph-name="uni0431.SRB" horiz-adv-x="604" 
d="M522 702v-138h-203q-56 0 -56 -21q0 -15 23.5 -23t57 -12t80 -25t82.5 -57q30 -30 48 -79t18 -102q0 -121 -76 -191t-196 -70q-122 0 -195 67.5t-73 190.5q0 146 103 212q-40 38 -40 90q0 74 56 116t173 42h198zM302 373q-100 0 -100 -130q0 -58 26.5 -92t73.5 -34
q46 0 73 34t27 92q0 60 -25 95t-75 35z" />
    <glyph glyph-name="uni0432.bul" horiz-adv-x="592" 
d="M526 519q0 -95 -92 -141q118 -37 118 -171q0 -103 -69 -163t-188 -60q-120 0 -180 64t-60 177v238q0 122 59 187.5t177 65.5q117 0 176 -54t59 -143zM215 302v-69q0 -67 20.5 -96t63.5 -29q83 0 83 97q0 47 -25 72t-71 25h-71zM215 474v-52h54q43 0 66.5 24.5t23.5 64.5
q0 38 -18.5 59.5t-53.5 21.5q-36 0 -54 -27.5t-18 -90.5z" />
    <glyph glyph-name="uni0433.bul" horiz-adv-x="505" 
d="M420 163l65 -107q-95 -72 -256 -72q-93 0 -147 40t-54 110q0 44 20.5 77t51 50.5t66.5 31.5t66.5 22.5t51 22t20.5 30.5q0 29 -49 29q-83 0 -156 -57l-61 104q42 34 105 53t125 19q99 0 152.5 -38.5t53.5 -108.5q0 -52 -28.5 -88t-69 -54t-81 -30.5t-69 -27t-28.5 -33.5
q0 -17 11.5 -24.5t40.5 -7.5q93 0 170 59z" />
    <glyph glyph-name="uni0434.bul" horiz-adv-x="621" 
d="M417 500h147q-8 -88 -8 -252v-232q0 -210 -257 -210q-127 0 -227 39l38 126q95 -42 191 -42q95 0 95 71q0 25 3 57h-2q-48 -61 -147 -61q-103 0 -160.5 69.5t-57.5 188.5q0 115 65 188.5t170 73.5q99 0 144 -70h1zM399 254v4q0 59 -26.5 94.5t-72.5 35.5
q-47 0 -72.5 -36.5t-25.5 -96.5q0 -58 26.5 -95.5t74.5 -37.5q43 0 69.5 36.5t26.5 95.5z" />
    <glyph glyph-name="uni0436.bul" horiz-adv-x="838" 
d="M848 0h-185l-112 205h-52v-205h-160v205h-51l-112 -205h-186l165 272l-162 228h188l109 -170h49v372h160v-372h51l108 170h184l-156 -221z" />
    <glyph glyph-name="uni0438.bul" horiz-adv-x="610" 
d="M548 0h-148l-3 60h-1q-52 -76 -155 -76q-88 0 -137 51.5t-49 156.5v308h160v-250q0 -79 11 -101q18 -37 66 -37q38 0 61 23q32 32 32 114v251h160v-253q0 -118 3 -247z" />
    <glyph glyph-name="uni0419.bul" horiz-adv-x="770" 
d="M698 0h-174v430l-278 -430h-174v682h174v-430l278 430h174v-682zM550 892l42 -107q-32 -20 -88.5 -32t-116.5 -12q-136 0 -209 45l49 106q84 -30 161 -30q92 0 162 30z" />
    <glyph glyph-name="uni0439.bul" horiz-adv-x="610" 
d="M548 0h-148l-3 60h-1q-52 -76 -155 -76q-88 0 -137 51.5t-49 156.5v308h160v-250q0 -79 11 -101q18 -37 66 -37q38 0 61 23q32 32 32 114v251h160v-253q0 -118 3 -247zM465 711l37 -109q-80 -36 -196 -36t-196 36l37 109q72 -24 159 -24t159 24z" />
    <glyph glyph-name="uni045D.bul" horiz-adv-x="610" 
d="M548 0h-148l-3 60h-1q-52 -76 -155 -76q-88 0 -137 51.5t-49 156.5v308h160v-250q0 -79 11 -101q18 -37 66 -37q38 0 61 23q32 32 32 114v251h160v-253q0 -118 3 -247zM291 702l83 -150h-145l-141 150h203z" />
    <glyph glyph-name="uni043A.bul" horiz-adv-x="584" 
d="M594 0h-190l-120 205h-59v-205h-160v702h160v-372h59l116 170h185l-162 -220z" />
    <glyph glyph-name="uni041B.alt" horiz-adv-x="686" 
d="M677 0h-192l-99 330q-34 112 -46 184h-4q-15 -76 -45 -186l-91 -328h-191l229 682h212z" />
    <glyph glyph-name="uni043B.alt" horiz-adv-x="538" 
d="M541 0h-180l-57 195q-27 94 -38 157h-3q-10 -52 -37 -157l-51 -195h-178l175 500h194z" />
    <glyph glyph-name="uni043F.bul" horiz-adv-x="614" 
d="M559 0h-160v250q0 79 -11 101q-18 37 -68 37q-39 0 -62 -23q-33 -33 -33 -114v-251h-160v240q0 122 -3 260h148l3 -60h1q52 76 157 76q89 0 138.5 -51.5t49.5 -156.5v-308z" />
    <glyph glyph-name="uni0442.bul" horiz-adv-x="940" 
d="M885 0h-160v250q0 79 -11 101q-18 37 -66 37q-38 0 -61 -23q-32 -32 -32 -114v-251h-160v250q0 79 -11 101q-18 37 -66 37q-38 0 -61 -23q-32 -32 -32 -114v-251h-160v240q0 122 -3 260h148l3 -60h1q52 76 155 76q111 0 158 -80q63 80 172 80q88 0 137 -51.5t49 -156.5
v-308z" />
    <glyph glyph-name="uni0446.bul" horiz-adv-x="640" 
d="M627 -141h-140v141q-65 0 -90 60h-1q-52 -76 -155 -76q-88 0 -137 51.5t-49 156.5v308h160v-250q0 -79 11 -101q18 -37 66 -37q38 0 61 23q32 32 32 114v251h160v-318q0 -31 11.5 -43t39.5 -12h31v-268z" />
    <glyph glyph-name="uni0448.bul" horiz-adv-x="940" 
d="M875 500v-240q0 -122 3 -260h-148l-3 60h-1q-52 -76 -155 -76q-111 0 -158 80q-63 -80 -172 -80q-88 0 -137 51.5t-49 156.5v308h160v-250q0 -79 11 -101q18 -37 66 -37q38 0 61 23q32 32 32 114v251h160v-250q0 -79 11 -101q18 -37 66 -37q38 0 61 23q32 32 32 114v251
h160z" />
    <glyph glyph-name="uni0449.bul" horiz-adv-x="970" 
d="M957 -141h-140v141q-72 0 -90 60h-1q-52 -76 -155 -76q-111 0 -158 80q-63 -80 -172 -80q-88 0 -137 51.5t-49 156.5v308h160v-250q0 -79 11 -101q18 -37 66 -37q38 0 61 23q32 32 32 114v251h160v-250q0 -79 11 -101q18 -37 66 -37q38 0 61 23q32 32 32 114v251h160
v-318q0 -31 11.5 -43t39.5 -12h31v-268z" />
    <glyph glyph-name="uni044A.bul" horiz-adv-x="642" 
d="M15 373v127h282v-138q40 6 79 6q123 0 183.5 -49.5t60.5 -137.5q0 -85 -63 -141t-187 -56q-233 0 -233 191v198h-122zM297 240v-64q0 -70 76 -70q77 0 77 70t-86 70q-29 0 -67 -6z" />
    <glyph glyph-name="uni044B.bul" horiz-adv-x="811" 
d="M55 175v325h160v-138q40 6 77 6q120 0 179.5 -49.5t59.5 -137.5q0 -85 -62 -141t-184 -56q-230 0 -230 191zM215 240v-64q0 -70 73 -70t73 70t-82 70q-28 0 -64 -6zM746 0h-160v500h160v-500z" />
    <glyph glyph-name="uni044C.bul" horiz-adv-x="560" 
d="M55 175v325h160v-138q40 6 79 6q123 0 183.5 -49.5t60.5 -137.5q0 -85 -63 -141t-187 -56q-233 0 -233 191zM215 240v-64q0 -70 76 -70q77 0 77 70t-86 70q-29 0 -67 -6z" />
    <glyph glyph-name="uni044E.bul" horiz-adv-x="874" 
d="M842 251q0 -125 -74.5 -196t-192.5 -71q-109 0 -178.5 57.5t-82.5 165.5h-89v-207h-160v702h160v-370h97q23 88 91.5 136t165.5 48q120 0 191.5 -68.5t71.5 -196.5zM672 250q0 63 -25 98t-70 35t-70 -34.5t-25 -97.5t25 -98.5t70 -35.5q44 0 69.5 35t25.5 98z" />
    <glyph glyph-name="grave.cap" horiz-adv-x="392" 
d="M261 884l83 -150h-155l-141 150h213z" />
    <glyph glyph-name="acute.cap" horiz-adv-x="404" 
d="M54 734l83 150h213l-141 -150h-155z" />
    <glyph glyph-name="circumflex.cap" horiz-adv-x="532" 
d="M52 737l108 150h212l108 -150h-156l-60 66l-60 -66h-152z" />
    <glyph glyph-name="caron.cap" horiz-adv-x="532" 
d="M480 887l-108 -150h-212l-108 150h156l60 -66l60 66h152z" />
    <glyph glyph-name="tilde.narrow" horiz-adv-x="484" 
d="M183 595q-19 0 -19 -39h-102q0 79 28.5 119.5t94.5 40.5q26 0 46 -7.5t30.5 -17t21 -17t18.5 -7.5q19 0 19 39h102q0 -79 -28.5 -119.5t-94.5 -40.5q-26 0 -46 7.5t-30.5 17t-21 17t-18.5 7.5z" />
    <glyph glyph-name="tilde.cap" horiz-adv-x="570" 
d="M209 769q-22 0 -22 -35h-126q0 74 37 116.5t116 42.5q38 0 68.5 -11t49.5 -22t29 -11q22 0 22 35h126q0 -74 -37 -116.5t-116 -42.5q-38 0 -68.5 11t-49.5 22t-29 11z" />
    <glyph glyph-name="dieresis.narrow" horiz-adv-x="444" 
d="M202 552h-140v150h140v-150zM382 552h-140v150h140v-150z" />
    <glyph glyph-name="dieresis.cap" horiz-adv-x="534" 
d="M222 734h-160v150h160v-150zM472 734h-160v150h160v-150z" />
    <glyph glyph-name="macron.cap" horiz-adv-x="490" 
d="M428 873v-132h-366v132h366z" />
    <glyph glyph-name="breve.cap" horiz-adv-x="502" 
d="M312 908h129q0 -177 -192 -177q-188 0 -188 177h129q0 -29 13 -44t48 -15t48 15t13 44z" />
    <glyph glyph-name="ring.cap" horiz-adv-x="474" 
d="M390 835q0 -51 -40.5 -84t-113.5 -33q-74 0 -113 32t-39 83t40.5 84t113.5 33q74 0 113 -32t39 -83zM269 834q0 38 -32 38t-32 -38t32 -38t32 38z" />
    <glyph glyph-name="ringacute" horiz-adv-x="461" 
d="M363 654q0 -46 -38.5 -77t-108.5 -31q-71 0 -108 29.5t-37 76.5q0 46 38.5 77t108.5 31q71 0 108 -29.5t37 -76.5zM247 653q0 35 -30 35t-30 -35t30 -35t30 35zM147 793l73 133h179l-124 -133h-128z" />
    <glyph glyph-name="ringacute.cap" horiz-adv-x="487" 
d="M391 722q0 -51 -40.5 -84t-113.5 -33q-74 0 -113 32t-39 83t40.5 84t113.5 33q74 0 113 -32t39 -83zM270 721q0 38 -32 38t-32 -38t32 -38t32 38zM157 860l73 120h195l-127 -120h-141z" />
    <glyph glyph-name="hungarumlaut.cap" horiz-adv-x="654" 
d="M57 734l54 150h200l-102 -150h-152zM301 734l83 150h213l-141 -150h-155z" />
    <glyph glyph-name="dotaccent.cap" horiz-adv-x="296" 
d="M234 734h-172v150h172v-150z" />
    <glyph glyph-name="uni0326.cap" horiz-adv-x="312" 
d="M82 -42h168v-63q0 -45 -36.5 -67t-122.5 -22h-29v54h17q34 0 34 24h-31v74z" />
    <glyph glyph-name="cedilla.cap" horiz-adv-x="340" 
d="M220 -180h-159q46 43 46 65q0 20 -35 39l48 84h133l-23 -40q44 -34 44 -71q0 -43 -54 -77z" />
    <glyph glyph-name="ogonek.cap" horiz-adv-x="352" 
d="M132 0h146q-45 -56 -45 -76q0 -23 32 -23h31v-84q-33 -11 -92 -11q-138 0 -138 83q0 49 66 111z" />
    <glyph glyph-name="tonos.cap" horiz-adv-x="324" 
d="M68 532l32 220h164l-62 -220h-134z" />
    <glyph glyph-name="tonos.long" horiz-adv-x="324" 
d="M62 512l39 190h169l-77 -190h-131z" />
    <glyph glyph-name="anoteleia.cap" horiz-adv-x="340" 
d="M264 260h-188v184h188v-184z" />
    <glyph glyph-name="breve.cyr" horiz-adv-x="502" 
d="M310 720h130q-8 -88 -55 -129t-134 -41q-92 0 -136.5 40t-52.5 130h134q6 -77 57 -77t57 77z" />
    <glyph glyph-name="breve.cyr.cap" horiz-adv-x="528" 
d="M331 908h135q-11 -177 -205 -177q-102 0 -147.5 45.5t-51.5 131.5h135q13 -83 67 -83t67 83z" />
    <glyph glyph-name="breve.bul" horiz-adv-x="516" 
d="M417 711l37 -109q-80 -36 -196 -36t-196 36l37 109q72 -24 159 -24t159 24z" />
    <glyph glyph-name="breve.bul.cap" horiz-adv-x="538" 
d="M434 892l42 -107q-32 -20 -88.5 -32t-116.5 -12q-136 0 -209 45l49 106q84 -30 161 -30q92 0 162 30z" />
    <glyph glyph-name="guilsinglleft.cap" horiz-adv-x="436" 
d="M353 151l-134 -64l-154 254l156 253l133 -61l-97 -191z" />
    <glyph glyph-name="guilsinglright.cap" horiz-adv-x="436" 
d="M83 530l134 64l154 -254l-156 -253l-133 61l97 191z" />
    <glyph glyph-name="guillemotleft.cap" horiz-adv-x="704" 
d="M353 151l-134 -64l-154 254l156 253l133 -61l-97 -191zM621 167l-134 -64l-142 238l144 238l132 -62l-84 -175z" />
    <glyph glyph-name="guillemotright.cap" horiz-adv-x="704" 
d="M351 531l134 64l154 -254l-156 -253l-133 61l97 191zM83 515l134 64l142 -238l-144 -238l-132 62l84 175z" />
    <glyph glyph-name="slash.cap" horiz-adv-x="485" 
d="M182 -18h-172l293 718h172z" />
    <glyph glyph-name="backslash.cap" horiz-adv-x="485" 
d="M475 -18h-173l-293 718h173z" />
    <glyph glyph-name="hyphen.cap" horiz-adv-x="396" 
d="M346 263h-296v156h296v-156z" />
    <glyph glyph-name="endash.cap" horiz-adv-x="670" 
d="M615 413v-144h-560v144h560z" />
    <glyph glyph-name="emdash.cap" horiz-adv-x="1004" 
d="M957 413v-144h-910v144h910z" />
    <glyph glyph-name="bullet.cap" horiz-adv-x="454" 
d="M389 353q0 -67 -48 -115t-115 -48t-114 47t-47 114t48 115t115 48t114 -47t47 -114z" />
    <glyph glyph-name="periodcentered.cap" horiz-adv-x="340" 
d="M264 260h-188v184h188v-184z" />
    <glyph glyph-name="zero.oldstyle" horiz-adv-x="670" 
d="M443 280q0 155 -108 155q-53 0 -80.5 -39.5t-27.5 -113.5q0 -155 108 -155q53 0 80.5 39.5t27.5 113.5zM624 284q0 -147 -79.5 -224.5t-214.5 -77.5q-134 0 -209 74t-75 222q0 147 79.5 224.5t214.5 77.5q134 0 209 -74t75 -222z" />
    <glyph glyph-name="one.oldstyle" horiz-adv-x="462" 
d="M202 0v366q-64 -35 -165 -35v141q82 0 126 20.5t65 69.5h157v-562h-183z" />
    <glyph glyph-name="two.oldstyle" horiz-adv-x="640" 
d="M595 150v-150h-544v170q91 39 156 71.5t99.5 54.5t54 41.5t24 30.5t4.5 25q0 52 -75 52q-78 0 -78 -60q0 -29 11 -47h-172q-13 20 -13 55q0 91 69 139t189 48q125 0 192 -48t67 -130q0 -35 -11.5 -66t-40.5 -66.5t-89 -67.5t-148 -57v-5q104 10 305 10z" />
    <glyph glyph-name="three.oldstyle" horiz-adv-x="646" 
d="M26 83l176 30q7 -59 35.5 -88t84.5 -29q44 0 68.5 21t24.5 61q0 85 -125 82h-54v132h55q64 -1 93 28q20 20 20 54t-24.5 53t-64.5 19q-99 0 -111 -109l-170 23q18 108 92.5 164t189.5 56q128 0 198.5 -50.5t70.5 -136.5q0 -60 -32 -101t-82 -57v-3q62 -12 97 -50t35 -101
q0 -107 -75.5 -163t-211.5 -56q-138 0 -207.5 55t-82.5 166z" />
    <glyph glyph-name="four.oldstyle" 
d="M186 169q82 3 166 3v143q0 43 2 119h-7zM526 -120h-174v153h-328v133l243 396h259v-390h100v-139h-100v-153z" />
    <glyph glyph-name="five.oldstyle" horiz-adv-x="634" 
d="M554 562v-141h-322l-17 -127h3q54 50 145 50q105 0 170 -59t65 -171q0 -118 -78.5 -185t-213.5 -67q-111 0 -180.5 47.5t-91.5 136.5l164 43q27 -92 111 -92q49 0 77 29.5t28 79.5q0 46 -30 76t-75 30q-63 0 -97 -57h-156l40 407h458z" />
    <glyph glyph-name="six.oldstyle" horiz-adv-x="658" 
d="M610 543l-158 -51q-17 42 -40.5 58t-63.5 16q-56 0 -85.5 -46.5t-37.5 -156.5q51 72 165 72q113 0 170.5 -55.5t57.5 -157.5q0 -107 -77.5 -173.5t-204.5 -66.5q-143 0 -217.5 85.5t-74.5 250.5q0 182 77.5 282t229.5 100q104 0 163.5 -34t95.5 -123zM345 306
q-46 0 -71.5 -25.5t-25.5 -68.5q0 -45 25 -70.5t64 -25.5q97 0 97 102q0 41 -24.5 64.5t-64.5 23.5z" />
    <glyph glyph-name="seven.oldstyle" horiz-adv-x="630" 
d="M349 -120h-193q19 272 239 538l-355 -1v145h550v-141q-125 -149 -183 -278t-58 -263z" />
    <glyph glyph-name="eight.oldstyle" horiz-adv-x="670" 
d="M628 198q0 -107 -79.5 -161.5t-217.5 -54.5q-137 0 -213 51t-76 154q0 56 32 99.5t87 63.5v3q-47 16 -75.5 54.5t-28.5 89.5q0 95 77 149t203 54q127 0 201 -51t74 -148q0 -46 -28 -86t-75 -59v-3q119 -38 119 -155zM444 198q0 37 -28.5 59.5t-81.5 22.5t-80.5 -22.5
t-27.5 -59.5t28 -59.5t81 -22.5t81 22.5t28 59.5zM432 489q0 34 -26.5 55.5t-71.5 21.5t-71 -21.5t-26 -55.5t26 -55.5t71 -21.5t71.5 21.5t26.5 55.5z" />
    <glyph glyph-name="nine.oldstyle" horiz-adv-x="658" 
d="M40 22l158 51q18 -42 44 -59.5t68 -17.5q56 0 85.5 46.5t37.5 156.5q-47 -72 -165 -72q-113 0 -170.5 55.5t-57.5 157.5q0 107 77.5 173.5t204.5 66.5q143 0 217.5 -85.5t74.5 -250.5q0 -182 -77.5 -282t-229.5 -100q-101 0 -166 36.5t-101 123.5zM313 256
q46 0 71.5 25.5t25.5 68.5q0 45 -25 70.5t-64 25.5q-97 0 -97 -102q0 -41 24.5 -64.5t64.5 -23.5z" />
    <glyph glyph-name="zero.LinTab" 
d="M430 340q0 108 -22.5 160t-82.5 52t-82.5 -51.5t-22.5 -158.5q0 -108 22.5 -160t82.5 -52t82.5 51.5t22.5 158.5zM614 344q0 -172 -75 -267t-219 -95q-143 0 -213.5 92t-70.5 264t75 267t219 95q143 0 213.5 -92t70.5 -264z" />
    <glyph glyph-name="one.LinTab" 
d="M451 0h-183v459q-67 -43 -185 -43v146q82 0 132 27.5t79 92.5h157v-682z" />
    <glyph glyph-name="one.LinTab.001" 
d="M599 0h-536v147h185v312q-67 -43 -185 -43v146q82 0 132 27.5t79 92.5h157v-535h168v-147z" />
    <glyph glyph-name="two.LinTab" 
d="M611 154v-154h-571v149q220 144 295.5 211t75.5 119q0 38 -24 60t-69 22q-44 0 -68.5 -25t-24.5 -62q0 -39 9 -68h-171q-12 27 -12 67q0 109 75.5 168t197.5 59q126 0 198.5 -57.5t72.5 -155.5q0 -81 -64.5 -154.5t-238.5 -175.5v-5q92 2 147 2h172z" />
    <glyph glyph-name="three.LinTab" 
d="M29 203l177 30q8 -60 38 -88.5t88 -28.5q45 0 73 21t28 61q0 82 -133 82h-60v132h61q73 0 101 28q20 20 20 54q0 33 -28 52.5t-69 19.5q-105 0 -117 -109l-169 24q17 107 94.5 163t192.5 56q129 0 203 -51t74 -136q0 -114 -109 -157v-3q58 -14 93 -54t35 -100
q0 -106 -79 -161.5t-217 -55.5q-137 0 -208 54.5t-89 166.5z" />
    <glyph glyph-name="four.LinTab" 
d="M186 289q82 3 166 3v143q0 43 2 119h-7zM526 0h-174v153h-328v133l243 396h259v-390h100v-139h-100v-153z" />
    <glyph glyph-name="five.LinTab" 
d="M562 682v-141h-322l-17 -127h3q54 50 145 50q105 0 170 -59t65 -171q0 -118 -78.5 -185t-213.5 -67q-111 0 -180.5 47.5t-91.5 136.5l164 43q27 -92 111 -92q49 0 77 29.5t28 79.5q0 46 -30 76t-75 30q-62 0 -97 -57h-156l40 407h458z" />
    <glyph glyph-name="six.LinTab" 
d="M606 543l-158 -51q-17 42 -40.5 58t-63.5 16q-56 0 -85.5 -46.5t-37.5 -156.5q51 72 165 72q113 0 170.5 -55.5t57.5 -157.5q0 -107 -77.5 -173.5t-204.5 -66.5q-143 0 -217.5 85.5t-74.5 250.5q0 182 77.5 282t229.5 100q104 0 163.5 -34t95.5 -123zM341 306
q-46 0 -71.5 -25.5t-25.5 -68.5q0 -45 25 -70.5t64 -25.5q97 0 97 102q0 41 -24.5 64.5t-64.5 23.5z" />
    <glyph glyph-name="seven.LinTab" 
d="M337 0h-194q20 273 265 538h-363v144h560v-141q-95 -113 -148 -190.5t-86.5 -167.5t-33.5 -183z" />
    <glyph glyph-name="eight.LinTab" 
d="M618 198q0 -107 -79.5 -161.5t-217.5 -54.5q-137 0 -213 51t-76 154q0 56 32 99.5t87 63.5v3q-47 16 -75.5 54.5t-28.5 89.5q0 95 77 149t203 54q127 0 201 -51t74 -148q0 -46 -28 -86t-75 -59v-3q119 -38 119 -155zM434 198q0 37 -28.5 59.5t-81.5 22.5t-80.5 -22.5
t-27.5 -59.5t28 -59.5t81 -22.5t81 22.5t28 59.5zM422 489q0 34 -26.5 55.5t-71.5 21.5t-71 -21.5t-26 -55.5t26 -55.5t71 -21.5t71.5 21.5t26.5 55.5z" />
    <glyph glyph-name="nine.LinTab" 
d="M36 142l158 51q18 -42 44 -59.5t68 -17.5q56 0 85.5 46.5t37.5 156.5q-47 -72 -165 -72q-113 0 -170.5 55.5t-57.5 157.5q0 107 77.5 173.5t204.5 66.5q143 0 217.5 -85.5t74.5 -250.5q0 -182 -77.5 -282t-229.5 -100q-101 0 -166 36.5t-101 123.5zM309 376
q46 0 71.5 25.5t25.5 68.5q0 45 -25 70.5t-64 25.5q-97 0 -97 -102q0 -41 24.5 -64.5t64.5 -23.5z" />
    <glyph glyph-name="zero.OnumTab" 
d="M432 280q0 155 -108 155q-53 0 -80.5 -39.5t-27.5 -113.5q0 -155 108 -155q53 0 80.5 39.5t27.5 113.5zM613 284q0 -147 -79.5 -224.5t-214.5 -77.5q-134 0 -209 74t-75 222q0 147 79.5 224.5t214.5 77.5q134 0 209 -74t75 -222z" />
    <glyph glyph-name="one.OnumTab" 
d="M446 0h-183v366q-61 -35 -165 -35v141q83 0 127 21t64 69h157v-562z" />
    <glyph glyph-name="one.OnumTab.001" 
d="M579 0h-496v142h165v224q-61 -35 -165 -35v141q83 0 127 21t64 69h157v-420h148v-142z" />
    <glyph glyph-name="two.OnumTab" 
d="M604 150v-150h-557v171q153 65 234 110.5t99 66.5t18 45q0 52 -83 52q-43 0 -63 -17t-20 -43q0 -25 8 -47h-170q-12 21 -12 55q0 90 71 138.5t192 48.5q129 0 198 -45.5t69 -132.5q0 -37 -11.5 -68t-41 -63.5t-87 -62.5t-142.5 -55v-5q96 2 155 2h143z" />
    <glyph glyph-name="three.OnumTab" 
d="M29 83l177 30q8 -60 38 -88.5t88 -28.5q45 0 73 21t28 61q0 82 -133 82h-60v132h61q73 0 101 28q20 20 20 54q0 33 -28 52.5t-69 19.5q-105 0 -117 -109l-169 24q17 107 94.5 163t192.5 56q129 0 203 -51t74 -136q0 -114 -109 -157v-3q58 -14 93 -54t35 -100
q0 -106 -79 -161.5t-217 -55.5q-137 0 -208 54.5t-89 166.5z" />
    <glyph glyph-name="four.OnumTab" 
d="M186 169q82 3 166 3v143q0 43 2 119h-7zM526 -120h-174v153h-328v133l243 396h259v-390h100v-139h-100v-153z" />
    <glyph glyph-name="five.OnumTab" 
d="M562 562v-141h-322l-17 -127h3q54 50 145 50q105 0 170 -59t65 -171q0 -118 -78.5 -185t-213.5 -67q-111 0 -180.5 47.5t-91.5 136.5l164 43q27 -92 111 -92q49 0 77 29.5t28 79.5q0 46 -30 76t-75 30q-62 0 -97 -57h-156l40 407h458z" />
    <glyph glyph-name="six.OnumTab" 
d="M606 543l-158 -51q-17 42 -40.5 58t-63.5 16q-56 0 -85.5 -46.5t-37.5 -156.5q51 72 165 72q113 0 170.5 -55.5t57.5 -157.5q0 -107 -77.5 -173.5t-204.5 -66.5q-143 0 -217.5 85.5t-74.5 250.5q0 182 77.5 282t229.5 100q104 0 163.5 -34t95.5 -123zM341 306
q-46 0 -71.5 -25.5t-25.5 -68.5q0 -45 25 -70.5t64 -25.5q97 0 97 102q0 41 -24.5 64.5t-64.5 23.5z" />
    <glyph glyph-name="seven.OnumTab" 
d="M337 -120h-194q20 273 265 538h-363v144h560v-141q-95 -113 -148 -190.5t-86.5 -167.5t-33.5 -183z" />
    <glyph glyph-name="eight.OnumTab" 
d="M618 198q0 -107 -79.5 -161.5t-217.5 -54.5q-137 0 -213 51t-76 154q0 56 32 99.5t87 63.5v3q-47 16 -75.5 54.5t-28.5 89.5q0 95 77 149t203 54q127 0 201 -51t74 -148q0 -46 -28 -86t-75 -59v-3q119 -38 119 -155zM434 198q0 37 -28.5 59.5t-81.5 22.5t-80.5 -22.5
t-27.5 -59.5t28 -59.5t81 -22.5t81 22.5t28 59.5zM422 489q0 34 -26.5 55.5t-71.5 21.5t-71 -21.5t-26 -55.5t26 -55.5t71 -21.5t71.5 21.5t26.5 55.5z" />
    <glyph glyph-name="nine.OnumTab" 
d="M36 22l158 51q18 -42 44 -59.5t68 -17.5q56 0 85.5 46.5t37.5 156.5q-47 -72 -165 -72q-113 0 -170.5 55.5t-57.5 157.5q0 107 77.5 173.5t204.5 66.5q143 0 217.5 -85.5t74.5 -250.5q0 -182 -77.5 -282t-229.5 -100q-101 0 -166 36.5t-101 123.5zM309 256
q46 0 71.5 25.5t25.5 68.5q0 45 -25 70.5t-64 25.5q-97 0 -97 -102q0 -41 24.5 -64.5t64.5 -23.5z" />
    <glyph glyph-name="percent.cap" horiz-adv-x="1103" 
d="M324 495q0 43 -18 68.5t-55 25.5q-36 0 -54 -25.5t-18 -68.5t18 -68.5t55 -25.5q36 0 54 25.5t18 68.5zM467 496q0 -99 -56.5 -152.5t-160.5 -53.5q-105 0 -159.5 52t-54.5 152q0 99 56.5 152.5t160.5 53.5q105 0 159.5 -52t54.5 -152zM924 187q0 43 -18 68.5t-55 25.5
q-36 0 -54 -25.5t-18 -68.5t18 -68.5t55 -25.5q36 0 54 25.5t18 68.5zM1067 188q0 -99 -56.5 -152.5t-160.5 -53.5q-105 0 -159.5 52t-54.5 152q0 99 56.5 152.5t160.5 53.5q105 0 159.5 -52t54.5 -152zM387 0h-162l492 682h162z" />
    <glyph glyph-name="perthousand.cap" horiz-adv-x="1581" 
d="M324 495q0 43 -18 68.5t-55 25.5q-36 0 -54 -25.5t-18 -68.5t18 -68.5t55 -25.5q36 0 54 25.5t18 68.5zM467 496q0 -99 -56.5 -152.5t-160.5 -53.5q-105 0 -159.5 52t-54.5 152q0 99 56.5 152.5t160.5 53.5q105 0 159.5 -52t54.5 -152zM924 187q0 43 -18 68.5t-55 25.5
q-36 0 -54 -25.5t-18 -68.5t18 -68.5t55 -25.5q36 0 54 25.5t18 68.5zM1067 188q0 -99 -56.5 -152.5t-160.5 -53.5q-105 0 -159.5 52t-54.5 152q0 99 56.5 152.5t160.5 53.5q105 0 159.5 -52t54.5 -152zM1402 187q0 43 -18 68.5t-55 25.5q-36 0 -54 -25.5t-18 -68.5
t18 -68.5t55 -25.5q36 0 54 25.5t18 68.5zM1545 188q0 -99 -56.5 -152.5t-160.5 -53.5q-105 0 -159.5 52t-54.5 152q0 99 56.5 152.5t160.5 53.5q105 0 159.5 -52t54.5 -152zM387 0h-162l492 682h162z" />
    </font>
</defs>
</svg>
