<?xml version="1.0" standalone="no"?>
<!DOCTYPE svg PUBLIC "-//W3C//DTD SVG 1.1//EN" "http://www.w3.org/Graphics/SVG/1.1/DTD/svg11.dtd" >
<svg xmlns="http://www.w3.org/2000/svg" xmlns:xlink="http://www.w3.org/1999/xlink" version="1.1">
<metadata>
Created by FontForge 20170731 at Wed Jun 12 15:44:58 2019
 By Aleksey,,,
Volvo Novum is created exclusively for Volvo Trademark Holding Aktiebolag. Copyright 2019 Volvo Trademark Holding Aktiebolag. All rights reserved.
</metadata>
<defs>
<font id="VolvoNovum-SemiLightItalic" horiz-adv-x="650" >
  <font-face 
    font-family="Volvo Novum SemiLight"
    font-weight="350"
    font-style="italic"
    font-stretch="normal"
    units-per-em="1000"
    panose-1="2 11 4 3 4 5 2 13 2 4"
    ascent="780"
    descent="-220"
    x-height="478"
    cap-height="682"
    bbox="-199 -217 1485.15 980"
    underline-thickness="60"
    underline-position="-307"
    slope="-14.04"
    unicode-range="U+000D-FB02"
  />
<missing-glyph horiz-adv-x="1079" 
d="M984 -208h-889q-12 0 -12 11v1113q0 11 12 11h889q12 0 12 -11v-1113q0 -11 -12 -11zM154 865v-1012h771v1012h-771zM473 0h-90l32 129h90zM446 210l15 67q8 36 32.5 64t55.5 46.5t62.5 37.5t57.5 48.5t36 67.5q13 51 -19 87t-101 36q-66 0 -119.5 -36.5t-69.5 -98.5
q-7 -26 -9 -58h-72q-2 24 7 59q23 92 97.5 143.5t177.5 51.5q101 0 153.5 -54t32.5 -135q-12 -45 -40 -80t-60.5 -56.5t-64 -39.5t-56.5 -41t-32 -50l-15 -59h-69z" />
    <glyph glyph-name=".notdef" horiz-adv-x="1079" 
d="M984 -208h-889q-12 0 -12 11v1113q0 11 12 11h889q12 0 12 -11v-1113q0 -11 -12 -11zM154 865v-1012h771v1012h-771zM473 0h-90l32 129h90zM446 210l15 67q8 36 32.5 64t55.5 46.5t62.5 37.5t57.5 48.5t36 67.5q13 51 -19 87t-101 36q-66 0 -119.5 -36.5t-69.5 -98.5
q-7 -26 -9 -58h-72q-2 24 7 59q23 92 97.5 143.5t177.5 51.5q101 0 153.5 -54t32.5 -135q-12 -45 -40 -80t-60.5 -56.5t-64 -39.5t-56.5 -41t-32 -50l-15 -59h-69z" />
    <glyph glyph-name=".null" horiz-adv-x="0" 
 />
    <glyph glyph-name=".null" horiz-adv-x="0" 
 />
    <glyph glyph-name="nonmarkingreturn" horiz-adv-x="333" 
 />
    <glyph glyph-name="CR" unicode="&#xd;" horiz-adv-x="255" 
 />
    <glyph glyph-name="space" unicode=" " horiz-adv-x="254" 
 />
    <glyph glyph-name="space" unicode="&#xa0;" horiz-adv-x="254" 
 />
    <glyph glyph-name="exclam" unicode="!" horiz-adv-x="350" 
d="M159 0h-90l33 129h90zM201 210h-67l112 501h92z" />
    <glyph glyph-name="quotedbl" unicode="&#x22;" horiz-adv-x="436" 
d="M204 449h-61l59 281h81zM397 449h-60l59 281h81z" />
    <glyph glyph-name="numbersign" unicode="#" horiz-adv-x="700" 
d="M325 0l77 174h-204l-77 -174h-69l77 174h-112l15 58h123l97 218h-113l15 58h124l78 174h68l-78 -174h205l78 174h68l-78 -174h114l-15 -58h-124l-97 -218h114l-15 -58h-125l-77 -174h-69zM321 450l-97 -218h204l97 218h-204z" />
    <glyph glyph-name="dollar" unicode="$" horiz-adv-x="664" 
d="M278 -100h-69l30 114q-64 10 -114 43t-75 80l58 45q79 -110 194 -110q69 0 119.5 32.5t63.5 84.5q9 37 -6.5 62.5t-47 38t-71 25.5t-78.5 24t-69 33.5t-42.5 55t0.5 88.5q18 73 81 114.5t153 44.5l27 113h69l-31 -116q108 -18 162 -93l-56 -48q-62 83 -169 83
q-64 0 -107.5 -28t-54.5 -74q-9 -36 6.5 -61.5t47.5 -37.5t71.5 -24.5t78.5 -24t69 -34.5t42.5 -56t-0.5 -90q-19 -77 -90.5 -124t-164.5 -50z" />
    <glyph glyph-name="percent" unicode="%" horiz-adv-x="1100" 
d="M918 778h78l-763 -874h-78zM925 124q21 83 3 128t-74 45q-112 0 -156 -173q-43 -173 70 -173q114 0 157 173zM992 121q-26 -106 -86.5 -165.5t-147.5 -59.5q-89 0 -122 62.5t-6 168.5q27 107 87 166t147 59q89 0 122 -62.5t6 -168.5zM453 558q21 83 3 128t-74 45
q-112 0 -156 -173q-43 -173 70 -173q114 0 157 173zM520 555q-26 -106 -86.5 -165.5t-147.5 -59.5q-89 0 -122 62.5t-6 168.5q27 107 87 166t147 59q89 0 122 -62.5t6 -168.5z" />
    <glyph glyph-name="ampersand" unicode="&#x26;" horiz-adv-x="764" 
d="M701 34l-53 -55q-61 51 -125 109q-126 -102 -281 -102q-114 0 -171 56.5t-33 149.5q18 72 69 117t129 78q-67 97 -47 175q20 79 81.5 121t149.5 42q94 0 135.5 -48.5t25.5 -115.5q-8 -31 -26.5 -57t-37.5 -43.5t-54 -36.5t-56.5 -28.5t-63.5 -26.5q66 -75 189 -187
q81 93 115 231h72q-39 -162 -140 -273q67 -60 122 -106zM251 48q126 0 227 81q-125 113 -206 210q-65 -29 -105.5 -64t-52.5 -87q-16 -65 20.5 -102.5t116.5 -37.5zM264 559q-10 -25 -1 -61t43 -82q36 14 56 22t48 22.5t44 28t30.5 33t20.5 41.5q11 45 -16 72.5t-79 27.5
q-58 0 -96 -28t-50 -76z" />
    <glyph glyph-name="quotesingle" unicode="'" horiz-adv-x="243" 
d="M205 449h-62l60 281h81z" />
    <glyph glyph-name="parenleft" unicode="(" horiz-adv-x="312" 
d="M191 -171h-68q-86 235 -18 502q64 262 259 484h75q-198 -228 -263 -492q-65 -266 15 -494z" />
    <glyph glyph-name="parenright" unicode=")" horiz-adv-x="312" 
d="M160 815h68q86 -231 19 -503q-66 -261 -259 -483h-75q196 225 263 492q65 264 -16 494z" />
    <glyph glyph-name="asterisk" unicode="*" horiz-adv-x="498" 
d="M406 733l-54 -176l176 62l10 -64l-181 -46l75 -135l-60 -40l-60 148l-130 -146l-51 39l145 137l-157 46l35 62l147 -63l36 176h69z" />
    <glyph glyph-name="plus" unicode="+" 
d="M313 60h-67l58 233h-228l15 58h228l58 231h67l-57 -231h228l-15 -58h-228z" />
    <glyph glyph-name="comma" unicode="," horiz-adv-x="256" 
d="M54 142h99l-30 -118q-29 -111 -56 -152t-95 -80l-23 41q50 29 70.5 59.5t39.5 107.5h-41z" />
    <glyph glyph-name="hyphen" unicode="-" horiz-adv-x="360" 
d="M320 238h-282l17 71h282z" />
    <glyph glyph-name="hyphen" unicode="&#x2010;" horiz-adv-x="360" 
d="M320 238h-282l17 71h282z" />
    <glyph glyph-name="hyphen" unicode="&#xad;" horiz-adv-x="360" 
d="M320 238h-282l17 71h282z" />
    <glyph glyph-name="period" unicode="." horiz-adv-x="256" 
d="M117 0h-99l36 142h99z" />
    <glyph glyph-name="slash" unicode="/" horiz-adv-x="392" 
d="M-73 -164h-75l619 942h76z" />
    <glyph glyph-name="zero" unicode="0" horiz-adv-x="678" 
d="M547 341q71 293 -109 293q-182 0 -255 -293q-74 -292 109 -292q181 0 255 292zM622 330q-40 -164 -127.5 -254t-213.5 -90q-128 0 -172.5 98t-1.5 268q41 164 128 254t214 90q128 0 173 -99.5t0 -266.5z" />
    <glyph glyph-name="one" unicode="1" horiz-adv-x="437" 
d="M181 0l141 565q-74 -57 -198 -57l15 62q84 0 137 28t84 88h68l-171 -686h-76z" />
    <glyph glyph-name="two" unicode="2" horiz-adv-x="621" 
d="M509 65l-16 -65h-489l17 70q312 212 392 279.5t99 143.5q16 63 -12.5 101.5t-100.5 38.5q-68 0 -115 -38.5t-60 -92.5q-11 -43 -11 -82h-75q-5 32 9 86q21 87 94 138.5t169 51.5q109 0 156 -58t25 -150q-9 -38 -26.5 -68t-43.5 -60t-85 -75t-125 -90.5t-190 -128.5v-2
q80 1 234 1h154z" />
    <glyph glyph-name="three" unicode="3" horiz-adv-x="639" 
d="M36 192l78 10q-3 -77 32 -115.5t119 -38.5q76 0 127.5 38t67.5 99q16 65 -19.5 99.5t-112.5 34.5h-102l16 59h65q107 0 163 46q40 31 54 86q13 56 -19.5 90.5t-98.5 34.5q-131 0 -196 -135l-67 25q83 171 275 171q101 0 152 -53t30 -134q-29 -118 -162 -158v-1
q63 -13 89.5 -57t11.5 -107q-22 -87 -98.5 -143.5t-186.5 -56.5q-112 0 -169 54t-49 152z" />
    <glyph glyph-name="four" unicode="4" horiz-adv-x="633" 
d="M397 0h-73l43 175h-340l16 62l418 445h106l-111 -445h124l-16 -62h-124zM120 236q86 1 253 1h10l45 180q29 116 55 202h-2z" />
    <glyph glyph-name="five" unicode="5" horiz-adv-x="612" 
d="M616 682l-14 -62h-321l-74 -226h2q60 62 162 62q106 0 153 -68.5t21 -171.5q-25 -103 -104.5 -166.5t-191.5 -63.5q-86 0 -143.5 40t-76.5 118l75 27q25 -123 156 -123q76 0 132 47t76 126q20 78 -12 125.5t-105 47.5q-54 0 -98 -24t-70 -63h-70l124 375h379z" />
    <glyph glyph-name="six" unicode="6" horiz-adv-x="636" 
d="M635 555l-76 -23q-11 56 -43 79.5t-85 23.5q-93 0 -156 -81t-105 -250q35 58 92 89.5t123 31.5q110 0 155 -61.5t21 -156.5t-101 -158t-184 -63q-125 0 -170.5 93t-3.5 258q44 178 131 268.5t211 90.5q76 0 126 -35.5t65 -105.5zM370 365q-75 0 -128 -43t-70 -113
q-18 -70 13.5 -116t101.5 -46q73 0 126 46.5t71 118.5q18 71 -12.5 112t-101.5 41z" />
    <glyph glyph-name="seven" unicode="7" horiz-adv-x="585" 
d="M201 0h-84q52 158 153.5 307.5t265.5 311.5h-385l15 63h474l-15 -60q-316 -293 -424 -622z" />
    <glyph glyph-name="eight" unicode="8" horiz-adv-x="656" 
d="M575 184q-22 -88 -102 -143t-204 -55q-122 0 -179.5 58.5t-36.5 143.5q32 127 179 170l1 1q-45 18 -67 59t-8 96q19 80 94 131t185 51t163 -55t33 -135q-28 -109 -152 -150v-1q59 -20 84 -64t10 -107zM497 186q16 65 -24 101.5t-125 36.5t-143 -36.5t-74 -101.5
q-16 -64 24 -101t125 -37q84 0 142.5 37t74.5 101zM555 509q15 58 -20 92t-109 34t-126 -34t-67 -92q-14 -58 21.5 -92t109.5 -34t125.5 34t65.5 92z" />
    <glyph glyph-name="nine" unicode="9" horiz-adv-x="636" 
d="M43 132l75 22q12 -59 44.5 -83t93.5 -24q93 0 155 79.5t104 247.5q-70 -117 -213 -117q-109 0 -154.5 61.5t-21.5 156.5t101.5 158t183.5 63q122 0 168 -93.5t5 -257.5q-44 -178 -131 -268.5t-211 -90.5q-79 0 -132.5 37t-66.5 109zM320 317q75 0 125.5 42.5t68.5 113.5
q17 69 -13.5 115.5t-100.5 46.5q-74 0 -126 -46t-71 -119q-18 -71 13.5 -112t103.5 -41z" />
    <glyph glyph-name="colon" unicode=":" horiz-adv-x="294" 
d="M134 0h-96l33 133h96zM220 345h-96l34 133h95z" />
    <glyph glyph-name="semicolon" unicode=";" horiz-adv-x="294" 
d="M72 133h96l-28 -113q-28 -110 -54.5 -150t-96.5 -78l-23 41q52 29 72.5 60t37.5 107h-37zM221 345h-96l34 133h95z" />
    <glyph glyph-name="less" unicode="&#x3c;" 
d="M556 156l-18 -69l-454 199l18 72l553 198l-17 -75l-298 -106q-88 -32 -168 -55l-1 -2q102 -38 166 -67z" />
    <glyph glyph-name="equal" unicode="=" 
d="M628 444l-16 -59h-504l16 59h504zM583 259l-16 -59h-504l16 59h504z" />
    <glyph glyph-name="greater" unicode="&#x3e;" 
d="M134 488l18 68l454 -198l-18 -72l-553 -199l17 76l298 106q88 32 168 55l1 2q-104 39 -166 66z" />
    <glyph glyph-name="question" unicode="?" horiz-adv-x="612" 
d="M300 0h-90l32 129h90zM273 210l15 67q8 36 32.5 64t55.5 46.5t62.5 37.5t57.5 48.5t36 67.5q13 51 -19 87t-101 36q-66 0 -119.5 -36.5t-69.5 -98.5q-7 -26 -9 -58h-72q-2 24 7 59q23 92 97.5 143.5t177.5 51.5q101 0 153.5 -54t31.5 -135q-11 -45 -39 -80t-60.5 -56.5
t-64 -39.5t-56.5 -41t-32 -50l-15 -59h-69z" />
    <glyph glyph-name="at" unicode="@" horiz-adv-x="1033" 
d="M725 -94l9 -55q-121 -41 -256 -41q-195 0 -308.5 120.5t-99.5 309.5q9 131 79 240.5t186.5 174.5t254.5 65q185 0 293 -110t95 -278q-9 -125 -73.5 -208t-175.5 -83q-106 0 -111 84h-1q-64 -84 -171 -84q-83 0 -124.5 47.5t-34.5 135.5q8 106 73.5 184.5t176.5 78.5
q94 0 130 -64h1l13 53h71l-59 -226q-21 -91 -10.5 -121.5t55.5 -30.5q78 0 121 66.5t50 165.5q11 144 -75.5 239t-252.5 95q-123 0 -223 -60.5t-155.5 -154.5t-63.5 -202q-12 -169 81.5 -275t264.5 -106q123 0 240 40zM634 303q5 65 -19.5 96.5t-83.5 31.5q-42 0 -75 -19.5
t-52 -51.5t-29.5 -65.5t-12.5 -67.5q-10 -129 95 -129q36 0 65.5 13.5t49 35t33 49.5t20.5 54.5t9 52.5z" />
    <glyph glyph-name="A" unicode="A" horiz-adv-x="643" 
d="M392 682h79l94 -682h-81l-24 190h-300l-117 -190h-86zM289 400l-93 -151h257l-17 146q-18 147 -21 215h-1q-50 -91 -125 -210z" />
    <glyph glyph-name="B" unicode="B" horiz-adv-x="706" 
d="M204 316l-63 -252q106 -2 165 -2q50 0 83.5 3.5t70.5 15.5t60.5 38t33.5 67q5 21 5 38t-3.5 29.5t-13 22.5t-19 16.5t-25.5 11t-28.5 7t-33 3.5t-34 1.5t-34.5 0.5h-164zM279 618l-60 -242h167q64 0 102.5 8t72.5 35q39 30 52 85q12 45 -10 75q-20 25 -55.5 33t-119.5 8
q-65 0 -149 -2zM50 0l171 682q15 0 90 0.5t131 0.5q95 0 149.5 -14t83.5 -53q33 -44 16 -112q-27 -112 -155 -156q64 -15 87.5 -60t7.5 -108q-10 -39 -28 -68.5t-43.5 -49t-54 -32.5t-65.5 -19.5t-71.5 -9t-77.5 -2.5q-171 0 -241 1z" />
    <glyph glyph-name="C" unicode="C" horiz-adv-x="690" 
d="M578 198l55 -35q-108 -177 -310 -177q-141 0 -206 100.5t-24 261.5q22 88 65.5 156.5t98.5 109.5t113.5 61.5t117.5 20.5q91 0 152.5 -47t74.5 -128l-72 -21q-26 133 -167 133q-99 0 -185 -77.5t-121 -214.5q-32 -132 12 -211t154 -79q153 0 242 147z" />
    <glyph glyph-name="D" unicode="D" horiz-adv-x="726" 
d="M279 618l-138 -554q80 -2 120 -2q76 0 132 16.5t108 67.5q59 58 87 139.5t29 144.5q3 93 -46 143q-46 47 -175 47q-49 0 -117 -2zM50 0l170 682q14 0 82 0.5t108 0.5q161 0 227 -69q65 -68 60 -183q-2 -74 -35.5 -165t-105.5 -162q-64 -63 -137.5 -84t-168.5 -21
q-45 0 -114 0.5t-86 0.5z" />
    <glyph glyph-name="E" unicode="E" horiz-adv-x="645" 
d="M50 0l170 682h453l-16 -63h-377l-61 -240h331l-14 -60h-332l-63 -255h395l-17 -64h-469z" />
    <glyph glyph-name="F" unicode="F" horiz-adv-x="598" 
d="M50 0l170 682h440l-16 -63h-365l-60 -242h319l-16 -61h-319l-78 -316h-75z" />
    <glyph glyph-name="G" unicode="G" horiz-adv-x="755" 
d="M597 0h-70l28 111h-1q-42 -57 -106 -91t-138 -34q-134 0 -196.5 98t-21.5 261q39 159 149 255t247 96q96 0 157 -44.5t77 -119.5l-69 -30q-34 131 -181 131q-104 0 -187 -82t-115 -210q-33 -135 11 -213.5t149 -78.5q91 0 163.5 67.5t97.5 166.5l5 20h-200l17 61h275z
" />
    <glyph glyph-name="H" unicode="H" horiz-adv-x="754" 
d="M50 0l170 682h75l-74 -296h384l74 296h75l-170 -682h-75l80 321h-384l-80 -321h-75z" />
    <glyph glyph-name="I" unicode="I" horiz-adv-x="295" 
d="M50 0l170 682h75l-170 -682h-75z" />
    <glyph glyph-name="J" unicode="J" horiz-adv-x="530" 
d="M461 682h75l-120 -483q-26 -105 -91 -159t-158 -54q-88 0 -134.5 52t-28.5 165l79 15q-15 -88 7 -127t88 -39q126 0 165 156z" />
    <glyph glyph-name="K" unicode="K" horiz-adv-x="673" 
d="M655 682h107l-333 -260l183 -422h-87l-156 374l-187 -146l-57 -228h-75l170 682h75l-89 -358z" />
    <glyph glyph-name="L" unicode="L" horiz-adv-x="548" 
d="M50 0l170 682h75l-154 -617h353l-16 -65h-428z" />
    <glyph glyph-name="M" unicode="M" horiz-adv-x="942" 
d="M50 0l170 682h117l60 -344q29 -167 36 -234h1q24 42 151 234l232 344h125l-170 -682h-75l60 240q40 163 97 379h-2q-6 -9 -50 -76t-96 -144l-267 -399h-60l-69 400q-32 182 -36 219h-2q-28 -123 -92 -379l-60 -240h-70z" />
    <glyph glyph-name="N" unicode="N" horiz-adv-x="755" 
d="M584 0h-85l-154 394q-34 87 -78 205h-1q-10 -43 -87 -362l-59 -237h-70l170 682h92l152 -382q20 -51 77 -206h1q35 163 86 362l56 226h71z" />
    <glyph glyph-name="O" unicode="O" horiz-adv-x="778" 
d="M657 341q33 131 -12 210.5t-159 79.5q-113 0 -198 -79.5t-118 -210.5t12.5 -210.5t158.5 -79.5t198 79.5t118 210.5zM736 337q-40 -160 -151.5 -255.5t-254.5 -95.5q-145 0 -211.5 98.5t-26.5 260.5q40 161 151 256t255 95t211 -99t27 -260z" />
    <glyph glyph-name="P" unicode="P" horiz-adv-x="637" 
d="M605 478q17 70 -16.5 105.5t-132.5 35.5q-122 0 -176 -1l-71 -279q56 -1 175 -1q186 0 221 140zM50 0l170 682q35 0 120 0.5t128 0.5q130 0 185 -56t30 -155q-50 -198 -312 -198q-113 0 -178 1l-68 -275h-75z" />
    <glyph glyph-name="Q" unicode="Q" horiz-adv-x="778" 
d="M736 337q-38 -151 -141 -247l59 -77l-53 -40l-58 77q-96 -64 -213 -64q-145 0 -211.5 98.5t-26.5 260.5q40 161 151 256t255 95t211 -99t27 -260zM425 207l52 40l77 -102q73 78 103 196q33 131 -12 210.5t-159 79.5q-113 0 -198 -79.5t-118 -210.5t12.5 -210.5
t158.5 -79.5q89 0 163 51z" />
    <glyph glyph-name="R" unicode="R" horiz-adv-x="691" 
d="M591 0h-87l-152 281h-158l-69 -281h-75l170 682q18 0 108.5 0.5t135.5 0.5q130 0 183.5 -57t30.5 -152q-41 -165 -244 -189zM279 618l-68 -272q52 -2 164 -2q103 0 155.5 35t70.5 103q15 62 -15 99.5t-132 37.5q-120 0 -175 -1z" />
    <glyph glyph-name="S" unicode="S" horiz-adv-x="655" 
d="M31 117l55 49q78 -117 223 -117q69 0 119 30t62 83q10 42 -6 71.5t-49.5 45.5t-75.5 32t-83 30t-72.5 41t-44.5 64t2 99q18 69 85 110t157 41q80 0 142.5 -26.5t97.5 -73.5l-53 -51q-65 88 -194 88q-136 0 -160 -99q-10 -41 6.5 -69.5t50 -43.5t75 -31t82.5 -30t72.5 -41
t44 -65t-2.5 -101q-19 -77 -92.5 -122t-169.5 -45q-176 0 -271 131z" />
    <glyph glyph-name="T" unicode="T" horiz-adv-x="533" 
d="M169 0l154 619h-237l16 63h548l-16 -63h-236l-154 -619h-75z" />
    <glyph glyph-name="U" unicode="U" horiz-adv-x="730" 
d="M288 682l-106 -425q-25 -99 8 -153t127 -54t155.5 54t86.5 153l106 425h70l-105 -432q-30 -125 -113.5 -194.5t-210.5 -69.5q-71 0 -119.5 23t-68 61.5t-24 87t11.5 99.5l107 425h75z" />
    <glyph glyph-name="V" unicode="V" horiz-adv-x="631" 
d="M291 0h-72l-93 682h79l45 -363q23 -186 25 -237h1q33 64 141 237l223 363h84z" />
    <glyph glyph-name="W" unicode="W" horiz-adv-x="1032" 
d="M723 0h-85l-37 448q-3 54 -3 122h-1q-14 -28 -67 -122l-256 -448h-86l-43 682h81l14 -317q9 -176 13 -281h1q56 105 157 282l179 316h67l24 -317q6 -70 20 -281h1q18 35 45 85.5t58.5 109.5t45.5 85l173 318h83z" />
    <glyph glyph-name="X" unicode="X" horiz-adv-x="591" 
d="M526 0h-85l-128 307l-278 -307h-90l337 365l-138 317h85l108 -267l238 267h89l-296 -325z" />
    <glyph glyph-name="Y" unicode="Y" horiz-adv-x="604" 
d="M279 0h-75l73 292l-167 390h86l134 -320l292 320h92l-362 -390z" />
    <glyph glyph-name="Z" unicode="Z" horiz-adv-x="628" 
d="M539 66l-17 -66h-537l16 65l562 553q-30 0 -111 -0.5t-124 -0.5h-174l16 65h507l-16 -64l-561 -553q40 0 130 0.5t135 0.5h174z" />
    <glyph glyph-name="bracketleft" unicode="[" horiz-adv-x="365" 
d="M245 -112l-15 -59h-223l246 986h224l-15 -59h-154l-217 -868h154z" />
    <glyph glyph-name="backslash" unicode="\" horiz-adv-x="392" 
d="M335 -164h-69l-150 942h69z" />
    <glyph glyph-name="bracketright" unicode="]" horiz-adv-x="365" 
d="M152 -171h-223l15 59h154l216 868h-154l15 59h224z" />
    <glyph glyph-name="asciicircum" unicode="^" 
d="M594 351h-82l-41 122q-20 59 -47 153h-2q-59 -81 -101 -129l-123 -146h-87l284 331h78z" />
    <glyph glyph-name="underscore" unicode="_" 
d="M549 -159l-15 -58h-649l15 58h649z" />
    <glyph glyph-name="grave" unicode="`" horiz-adv-x="324" 
d="M279 692l50 -141h-64l-80 141h94z" />
    <glyph glyph-name="a" unicode="a" horiz-adv-x="516" 
d="M460 322l-22 -86q-32 -124 -57 -236h-69l19 71h-1q-69 -83 -176 -83q-74 0 -110.5 41t-20.5 105q19 76 100 114t257 38l9 37q28 110 -85 110q-83 0 -170 -87l-39 45q102 100 221 100q90 0 127 -47t17 -122zM358 197l8 35q-140 0 -198 -24t-71 -77q-11 -40 9 -63t71 -23
q64 0 115.5 47.5t65.5 104.5z" />
    <glyph glyph-name="b" unicode="b" horiz-adv-x="569" 
d="M83 238l119 473h70l-53 -210q-18 -70 -27 -94h1q70 84 171 84q100 0 141 -72t14 -182q-29 -118 -103 -183.5t-170 -65.5q-50 0 -86.5 22t-52.5 59h-1l-21 -69h-70q35 105 68 238zM154 250l-5 -21q-20 -83 6 -133t93 -50q69 0 122 53.5t74 140.5q22 84 -3 138t-95 54
q-64 0 -118 -49.5t-74 -132.5z" />
    <glyph glyph-name="c" unicode="c" horiz-adv-x="515" 
d="M389 150l53 -31q-88 -131 -232 -131q-99 0 -144 70.5t-15 187.5q29 119 102.5 182t170.5 63q71 0 115.5 -34t57.5 -97l-69 -22q-14 52 -40.5 73t-74.5 21q-64 0 -115.5 -51t-74.5 -142q-21 -86 3.5 -139.5t93.5 -53.5q51 0 91 26t78 78z" />
    <glyph glyph-name="d" unicode="d" horiz-adv-x="569" 
d="M413 229l5 19q21 82 -5 133t-94 51q-69 0 -122 -53t-74 -141q-21 -84 3.5 -138t94.5 -54q64 0 117.5 49.5t74.5 133.5zM428 0h-68l15 72q-69 -84 -172 -84q-100 0 -141 72t-13 181q29 118 103 184t170 66q50 0 85.5 -21.5t50.5 -57.5h1q5 30 21 89l53 210h70l-118 -470
q-37 -150 -57 -241z" />
    <glyph glyph-name="e" unicode="e" horiz-adv-x="529" 
d="M402 129l43 -40q-87 -101 -224 -101q-107 0 -152.5 73t-17.5 186q27 112 99.5 178t173.5 66q57 0 96.5 -22.5t54.5 -55.5t20.5 -71.5t-5.5 -70.5q-9 -36 -15 -46h-355q-19 -82 13 -130.5t99 -48.5q99 0 170 83zM318 433q-61 0 -109 -39.5t-74 -112.5h282q16 62 -10 107
t-89 45z" />
    <glyph glyph-name="f" unicode="f" horiz-adv-x="312" 
d="M121 0h-70l105 422h-103l15 56h102l26 103q31 135 158 135q49 0 86 -16l-19 -59q-35 16 -73 16q-34 0 -53.5 -19.5t-29.5 -60.5l-25 -99h129l-15 -56h-128z" />
    <glyph glyph-name="g" unicode="g" horiz-adv-x="571" 
d="M484 478h69q0 -1 -4 -12.5t-10 -32t-14 -46.5t-18.5 -65t-20.5 -81q-9 -35 -30.5 -126.5t-31.5 -133.5q-25 -98 -83.5 -148t-166.5 -50q-146 0 -192 117l60 39q35 -98 140 -98q136 0 170 138q2 6 11 40t14 53h-1q-71 -83 -172 -83q-100 0 -141 71.5t-13 181.5
q29 117 102.5 183t169.5 66q51 0 87 -22t52 -60h1zM415 230l4 18q20 82 -5.5 133t-93.5 51q-69 0 -122 -53t-74 -140q-21 -84 3.5 -138t94.5 -54q64 0 118 49.5t75 133.5z" />
    <glyph glyph-name="h" unicode="h" horiz-adv-x="560" 
d="M24 0l178 711h70l-54 -211q-17 -66 -26 -94h1q70 85 171 85q84 0 119.5 -51.5t11.5 -147.5l-73 -292h-70l68 272q10 44 12 57.5t-2 47.5q-12 55 -86 55q-56 0 -99 -34q-65 -52 -95 -170l-56 -228h-70z" />
    <glyph glyph-name="i" unicode="i" horiz-adv-x="238" 
d="M94 0h-70l119 478h70zM236 563h-73l30 121h72z" />
    <glyph glyph-name="j" unicode="j" horiz-adv-x="248" 
d="M246 563h-72l30 121h72zM154 478h70l-129 -515q-25 -101 -62 -139.5t-106 -38.5q-33 0 -50 5l13 54h45q35 0 54.5 29t36.5 95z" />
    <glyph glyph-name="k" unicode="k" horiz-adv-x="517" 
d="M452 0h-82l-103 266l-131 -96l-42 -170h-70l178 711h70l-114 -455l295 222h102l-230 -169z" />
    <glyph glyph-name="l" unicode="l" horiz-adv-x="238" 
d="M24 0l178 711h70l-178 -711h-70z" />
    <glyph glyph-name="m" unicode="m" horiz-adv-x="881" 
d="M742 0h-70l69 273q18 70 10 104q-14 55 -86 55q-51 0 -96 -34q-66 -54 -94 -170l-57 -228h-70l68 273q17 71 10 104q-12 55 -85 55q-53 0 -96 -34q-66 -54 -95 -170l-56 -228h-70l60 240q31 126 55 238h68l-15 -71h1q68 84 167 84q58 0 93 -25.5t41 -72.5q83 98 191 98
q84 0 119 -51t11 -148z" />
    <glyph glyph-name="n" unicode="n" horiz-adv-x="560" 
d="M422 0h-70l68 272q18 74 10 105q-12 55 -86 55q-56 0 -99 -34q-65 -52 -95 -170l-56 -228h-70l60 240q31 126 55 238h69l-16 -71h1q69 84 171 84q84 0 120 -51.5t12 -147.5z" />
    <glyph glyph-name="o" unicode="o" horiz-adv-x="559" 
d="M434 239q22 84 -6 138.5t-101 54.5q-76 0 -129.5 -54t-74.5 -139q-20 -84 7 -138t100 -54q76 0 129.5 53.5t74.5 138.5zM508 235q-28 -111 -103 -179t-183 -68q-111 0 -155.5 72t-16.5 183q27 111 102 179.5t184 68.5q111 0 155.5 -72.5t16.5 -183.5z" />
    <glyph glyph-name="p" unicode="p" horiz-adv-x="569" 
d="M154 250l-5 -21q-20 -83 5.5 -133t93.5 -50q69 0 122 53.5t74 140.5q22 84 -3 138t-95 54q-64 0 -118 -49.5t-74 -132.5zM42 -207h-70l112 448q29 115 55 237h69l-16 -71h1q69 84 171 84q100 0 141 -72t14 -182q-29 -118 -103 -183.5t-170 -65.5q-50 0 -86 21.5t-51 57.5
h-1q-5 -27 -21 -89z" />
    <glyph glyph-name="q" unicode="q" horiz-adv-x="570" 
d="M372 -207h-69l45 185q15 57 28 93h-1q-71 -83 -172 -83q-100 0 -141 72t-13 181q29 118 103 184t170 66q50 0 86 -22t52 -60h1l22 69h69q-33 -102 -67 -236zM413 229l5 19q21 82 -5 133t-94 51q-69 0 -122 -53t-74 -141q-21 -84 3.5 -138t94.5 -54q64 0 117.5 49.5
t74.5 133.5z" />
    <glyph glyph-name="r" unicode="r" horiz-adv-x="343" 
d="M94 0h-70l60 240q51 208 56 238h68l-22 -97h1q41 57 91 83t96 26q9 0 15 -1l-19 -76h-17q-58 0 -109 -41q-45 -36 -67.5 -83.5t-39.5 -115.5z" />
    <glyph glyph-name="s" unicode="s" horiz-adv-x="487" 
d="M8 74l47 47q54 -76 151 -76q105 0 122 68q9 36 -15.5 59t-64 37.5t-78.5 31.5t-60.5 52t-9.5 88q13 53 62.5 81.5t121.5 28.5q52 0 99 -18t74 -50l-46 -48q-48 58 -133 58q-94 0 -108 -59q-7 -30 9 -51t46 -32t64 -26t62.5 -31t42.5 -49t3 -79q-13 -57 -66.5 -87.5
t-130.5 -30.5q-62 0 -113.5 23.5t-78.5 62.5z" />
    <glyph glyph-name="t" unicode="t" horiz-adv-x="346" 
d="M123 299l31 122h-100l15 57h98l43 167l77 20l-50 -187h144l-14 -57h-143l-59 -233q-18 -71 -20 -93.5t10 -35.5q12 -12 37 -12q43 0 85 18l-14 -60q-42 -17 -88 -17q-66 0 -89.5 35.5t-4.5 113.5q5 18 13 49.5t15 58.5z" />
    <glyph glyph-name="u" unicode="u" horiz-adv-x="554" 
d="M413 0h-69l17 72h-1q-69 -84 -166 -84q-84 0 -119.5 51.5t-11.5 147.5l75 291h69l-68 -273q-19 -69 -10 -104q14 -55 81 -55q56 0 100 35q64 51 93 173l57 224h70l-60 -240q-27 -106 -57 -238z" />
    <glyph glyph-name="v" unicode="v" horiz-adv-x="487" 
d="M217 0h-67l-77 478h77l30 -202q16 -106 21 -200h2q80 140 120 200l130 202h80z" />
    <glyph glyph-name="w" unicode="w" horiz-adv-x="818" 
d="M551 0h-63l-38 290q-4 31 -10 93h-2q-24 -48 -53 -93l-175 -290h-66l-61 478h75l25 -240q12 -104 14 -151h1q36 67 89 153l145 238h61l28 -229q14 -105 19 -162h1q37 67 92 160l137 231h82z" />
    <glyph glyph-name="x" unicode="x" horiz-adv-x="465" 
d="M84 478h80l80 -177l158 177h84l-211 -227l117 -251h-80l-91 206l-182 -206h-87l238 256z" />
    <glyph glyph-name="y" unicode="y" horiz-adv-x="487" 
d="M79 -207h-80l150 208l-76 477h77l30 -202q16 -111 21 -197h1q51 90 120 197l131 202h80z" />
    <glyph glyph-name="z" unicode="z" horiz-adv-x="489" 
d="M397 59l-15 -59h-395l14 59l384 363q-57 -1 -182 -1h-101l15 57h370l-15 -57l-384 -363q60 1 200 1h109z" />
    <glyph glyph-name="braceleft" unicode="{" horiz-adv-x="398" 
d="M51 293l14 58h30q45 0 66 25t41 102l40 162q24 99 72 137t125 38h71l-15 -59h-68q-51 0 -75 -25t-41 -95l-40 -159q-20 -80 -41.5 -111.5t-60.5 -46.5v-1q31 -14 37 -43.5t-13 -111.5l-39 -155q-17 -70 -4.5 -95t63.5 -25h65l-15 -59h-64q-77 0 -108.5 41.5t-5.5 140.5
l39 153q19 80 9.5 104.5t-53.5 24.5h-29z" />
    <glyph glyph-name="bar" unicode="|" horiz-adv-x="314" 
d="M88 -171h-69l247 986h69z" />
    <glyph glyph-name="braceright" unicode="}" horiz-adv-x="398" 
d="M387 351l-14 -58h-29q-45 0 -66.5 -25t-41.5 -102l-40 -162q-24 -99 -71.5 -137t-124.5 -38h-71l15 59h67q51 0 75.5 25t41.5 95l39 159q20 80 41.5 111.5t60.5 46.5v1q-31 14 -37 43.5t13 111.5l39 155q17 70 4.5 95t-62.5 25h-66l15 59h64q77 0 108.5 -41.5t5.5 -140.5
l-38 -153q-19 -80 -10 -104.5t53 -24.5h29z" />
    <glyph glyph-name="asciitilde" unicode="~" 
d="M140 236h-65q4 94 42.5 141t105.5 47q35 0 64.5 -15t49.5 -36t38 -42t39 -36t44 -15q37 0 55 30t22 98h65q-4 -94 -43 -141t-105 -47q-35 0 -64.5 15t-49.5 36t-38 42t-39 36t-44 15q-37 0 -55.5 -30t-21.5 -98z" />
    <glyph glyph-name="exclamdown" unicode="&#xa1;" horiz-adv-x="350" 
d="M224 615h90l-33 -129h-90zM181 405h69l-113 -501h-91z" />
    <glyph glyph-name="cent" unicode="&#xa2;" horiz-adv-x="566" 
d="M373 692h66l-29 -113q105 -16 132 -124l-70 -23q-13 47 -40 69t-74 22q-64 0 -114.5 -47.5t-71.5 -134.5q-20 -81 6 -131.5t95 -50.5q53 0 92 25.5t77 78.5l49 -38q-73 -105 -200 -123l-27 -112h-67l29 112q-83 10 -118.5 76t-9.5 170q27 104 93.5 164t154.5 69z" />
    <glyph glyph-name="sterling" unicode="&#xa3;" 
d="M531 65l-16 -65h-496l16 58q80 49 111 83.5t41 74.5q10 36 8 77h-111l15 58h93q-5 99 11 162q21 84 88 133.5t157 49.5q162 0 187 -151l-72 -28q-11 62 -39.5 89t-83.5 27q-59 0 -103.5 -35.5t-58.5 -94.5q-12 -50 -8 -152h188l-15 -58h-171q-2 -53 -8 -77
q-20 -87 -123 -153v-1q13 0 95 1.5t121 1.5h174z" />
    <glyph glyph-name="currency" unicode="&#xa4;" horiz-adv-x="654" 
d="M555 103l-53 -43l-72 101q-61 -39 -132 -39q-72 0 -112 37l-123 -100l-37 48l127 98q-21 49 -3 119q19 72 64 121l-75 98l55 42l69 -102q63 38 132 38q72 0 111 -36l125 102l36 -49l-128 -99q22 -52 4 -119q-19 -72 -64 -121zM474 322q17 63 -5.5 104.5t-85.5 41.5
t-105.5 -41.5t-58.5 -104.5q-15 -64 6.5 -105t84.5 -41t105.5 41t58.5 105z" />
    <glyph glyph-name="yen" unicode="&#xa5;" 
d="M301 0h-72l22 91h-169l15 56h168l23 90h-169l14 56h168l10 38l-173 351h82l141 -287l279 287h91l-347 -351l-10 -38h168l-14 -56h-167l-23 -90h167l-14 -56h-167z" />
    <glyph glyph-name="brokenbar" unicode="&#xa6;" horiz-adv-x="314" 
d="M238 426h-69l97 389h69zM88 -171h-69l98 389h69z" />
    <glyph glyph-name="section" unicode="&#xa7;" horiz-adv-x="610" 
d="M27 -62l55 50q57 -80 157 -80q58 0 94.5 22.5t46.5 63.5q8 32 -6.5 55t-43.5 37t-66 26t-73 27t-64 34.5t-40 53.5t-1 79q23 90 132 147q-45 41 -26 115q17 70 76.5 109t145.5 39q62 0 112 -21t72 -57l-55 -47q-48 63 -139 63q-55 0 -91.5 -23t-46.5 -64q-8 -32 7 -55
t44 -37t66 -26t72.5 -27t63.5 -34.5t40 -53.5t1 -79q-23 -91 -132 -148q45 -43 28 -115q-18 -68 -79 -108t-149 -40q-64 0 -120 25.5t-81 68.5zM487 256q8 30 -1 53t-36 39.5t-52 26.5t-67.5 24t-64.5 23q-89 -45 -107 -117q-8 -30 1 -53t36 -39.5t51.5 -26.5t67 -24
t64.5 -23q91 46 108 117z" />
    <glyph glyph-name="dieresis" unicode="&#xa8;" horiz-adv-x="417" 
d="M233 567h-71l28 113h71zM417 567h-71l28 113h71z" />
    <glyph glyph-name="copyright" unicode="&#xa9;" horiz-adv-x="879" 
d="M838 344q-12 -165 -126 -274t-280 -109t-260.5 106t-83.5 271q12 165 125.5 274t279.5 109t261.5 -106.5t83.5 -270.5zM770 341q10 139 -66 231t-217 92t-230 -91t-100 -232q-10 -139 65.5 -231t216.5 -92t230.5 91.5t100.5 231.5zM577 273l45 -35q-35 -53 -88.5 -82.5
t-115.5 -29.5q-89 0 -131.5 59.5t-17.5 159.5q25 101 92 156.5t155 55.5q59 0 102 -29t55 -80l-63 -23q-28 75 -106 75q-58 0 -102.5 -41t-63.5 -117q-17 -69 6 -114t85 -45q83 0 148 90z" />
    <glyph glyph-name="ordfeminine" unicode="&#xaa;" horiz-adv-x="498" 
d="M506 626l-18 -71q-29 -117 -49 -213h-62l16 62h-1q-23 -32 -66 -52.5t-92 -20.5q-67 0 -101.5 37t-19.5 96q17 70 91 104t234 34l8 32q21 100 -75 100q-43 0 -79.5 -18.5t-77.5 -60.5l-38 36q96 95 203 95q83 0 114 -43.5t13 -116.5zM418 519l7 33q-127 0 -180.5 -22.5
t-66.5 -70.5q-9 -36 10 -56.5t65 -20.5q59 0 105 41t60 96zM387 182h-325l14 55h325z" />
    <glyph glyph-name="guillemotleft" unicode="&#xab;" horiz-adv-x="644" 
d="M269 72l-60 -28l-123 233l234 226l48 -32l-189 -201zM517 88l-59 -28l-119 218l222 209l47 -32l-175 -185z" />
    <glyph glyph-name="logicalnot" unicode="&#xac;" 
d="M528 89h-68l50 204h-434l15 58h501z" />
    <glyph glyph-name="registered" unicode="&#xae;" horiz-adv-x="709" 
d="M703 528q-9 -117 -94 -197.5t-205 -80.5q-121 0 -193 80t-63 196q8 116 93 197t206 81t192.5 -79.5t63.5 -196.5zM646 527q7 97 -49.5 163t-153.5 66q-98 0 -164.5 -66t-73.5 -163t49.5 -163t153.5 -66q98 0 164.5 66t73.5 163zM532 389l-58 -1l-47 109h-62l-26 -108h-54
l72 286h118q58 0 82.5 -25t14.5 -66q-17 -65 -91 -83zM398 630l-21 -87q22 -1 63 -1q65 0 75 43q6 23 -5 34t-46 11h-66z" />
    <glyph glyph-name="macron" unicode="&#xaf;" horiz-adv-x="430" 
d="M451 647l-15 -58h-269l15 58h269z" />
    <glyph glyph-name="macron" unicode="&#x2c9;" horiz-adv-x="430" 
d="M451 647l-15 -58h-269l15 58h269z" />
    <glyph glyph-name="degree" unicode="&#xb0;" horiz-adv-x="413" 
d="M381 601q2 38 -18.5 63t-60.5 25q-41 0 -65.5 -24.5t-27.5 -63.5q-2 -39 19 -64.5t61 -25.5q41 0 65 25t27 65zM446 602q-5 -63 -50 -104t-113 -41q-66 0 -104.5 40.5t-33.5 102.5t50 102.5t112 40.5q66 0 105 -40t34 -101z" />
    <glyph glyph-name="plusminus" unicode="&#xb1;" 
d="M346 184h-68l55 221h-217l14 58h217l55 219h68l-55 -219h218l-13 -58h-219zM533 59l-15 -59h-504l15 59h504z" />
    <glyph glyph-name="twosuperior" unicode="&#xb2;" horiz-adv-x="502" 
d="M466 395l-15 -57h-342l16 65q180 97 242.5 144.5t75.5 99.5q10 40 -8.5 63t-63.5 23q-92 0 -111 -79q-6 -23 -6 -51h-67q-4 23 4 54q16 64 66 96.5t125 32.5q78 0 112 -40.5t20 -100.5q-17 -66 -82 -118.5t-218 -131.5v-1q28 0 81.5 0.5t77.5 0.5h93z" />
    <glyph glyph-name="threesuperior" unicode="&#xb3;" horiz-adv-x="499" 
d="M123 462l69 6q0 -46 21.5 -65.5t75.5 -19.5q48 0 80 21t41 59q10 38 -11.5 55.5t-72.5 17.5h-65l12 52h49q63 0 92 23q23 19 32 53q8 32 -11 51t-62 19q-87 0 -124 -72l-58 21q50 103 192 103q73 0 110 -34t24 -89q-18 -72 -96 -97v-1q82 -21 60 -109q-13 -54 -67 -90
t-133 -36q-81 0 -121.5 33.5t-36.5 98.5z" />
    <glyph glyph-name="acute" unicode="&#xb4;" horiz-adv-x="332" 
d="M150 551l120 141h102l-151 -141h-71z" />
    <glyph glyph-name="mu" unicode="&#xb5;" horiz-adv-x="561" 
d="M352 0l16 72h-1q-66 -84 -165 -84q-37 0 -65.5 13.5t-38.5 36.5h-1q-12 -57 -15 -70l-40 -175h-70l171 685h70l-68 -273q-17 -70 -10 -103q14 -56 82 -56q56 0 100 35q35 28 55.5 68t36.5 101l57 228h70l-61 -241q-15 -61 -55 -237h-68z" />
    <glyph glyph-name="mu" unicode="&#x3bc;" horiz-adv-x="561" 
d="M352 0l16 72h-1q-66 -84 -165 -84q-37 0 -65.5 13.5t-38.5 36.5h-1q-12 -57 -15 -70l-40 -175h-70l171 685h70l-68 -273q-17 -70 -10 -103q14 -56 82 -56q56 0 100 35q35 28 55.5 68t36.5 101l57 228h70l-61 -241q-15 -61 -55 -237h-68z" />
    <glyph glyph-name="paragraph" unicode="&#xb6;" horiz-adv-x="700" 
d="M478 -207h-67l207 830h-111l-207 -830h-67l110 445h-35q-118 0 -172 59t-27 165q27 107 113 163.5t206 56.5h272z" />
    <glyph glyph-name="periodcentered" unicode="&#xb7;" horiz-adv-x="255" 
d="M181 263h-96l29 118h96z" />
    <glyph glyph-name="periodcentered" unicode="&#x22c5;" horiz-adv-x="255" 
d="M181 263h-96l29 118h96z" />
    <glyph glyph-name="periodcentered" unicode="&#x2219;" horiz-adv-x="255" 
d="M181 263h-96l29 118h96z" />
    <glyph glyph-name="cedilla" unicode="&#xb8;" horiz-adv-x="286" 
d="M45 -207h-79q77 54 77 88q0 22 -39 43l65 77h66l-48 -57q28 -24 28 -56q0 -45 -70 -95z" />
    <glyph glyph-name="onesuperior" unicode="&#xb9;" horiz-adv-x="354" 
d="M281 338h-68l85 340q-47 -33 -140 -33l15 57q125 0 158 78h60z" />
    <glyph glyph-name="ordmasculine" unicode="&#xba;" horiz-adv-x="532" 
d="M486 558q19 75 -6 125t-91 50q-67 0 -116 -49.5t-69 -125.5q-19 -75 7 -125t91 -50q67 0 116 49.5t68 125.5zM552 552q-25 -100 -93 -161t-167 -61q-100 0 -139.5 66.5t-14.5 167.5q26 100 94 161t167 61q101 0 140 -66.5t13 -167.5zM440 182h-378l14 55h378z" />
    <glyph glyph-name="guillemotright" unicode="&#xbb;" horiz-adv-x="644" 
d="M391 473l60 29l123 -233l-234 -226l-48 32l188 201zM142 457l60 29l119 -218l-222 -209l-47 32l175 185z" />
    <glyph glyph-name="onequarter" unicode="&#xbc;" horiz-adv-x="936" 
d="M802 778h78l-763 -874h-78zM281 338h-68l85 340q-47 -33 -140 -33l15 57q125 0 158 78h60zM718 -96h-66l23 96h-230l14 61l269 283h100l-72 -288h80l-14 -56h-80zM524 53q89 3 165 3l30 119q12 48 30 115h-1z" />
    <glyph glyph-name="onehalf" unicode="&#xbd;" horiz-adv-x="980" 
d="M802 778h78l-763 -874h-78zM281 338h-68l85 340q-47 -33 -140 -33l15 57q125 0 158 78h60zM835 -39l-15 -57h-342l16 65q180 97 242.5 144.5t75.5 99.5q10 40 -8.5 63t-63.5 23q-92 0 -111 -79q-6 -23 -6 -51h-67q-4 23 4 54q16 64 66 96.5t125 32.5q78 0 112 -40.5
t20 -100.5q-17 -66 -82 -118.5t-218 -131.5v-1q28 0 81.5 0.5t77.5 0.5h93z" />
    <glyph glyph-name="threequarters" unicode="&#xbe;" horiz-adv-x="1060" 
d="M927 778h78l-763 -874h-78zM843 -96h-66l23 96h-230l14 61l269 283h100l-72 -288h80l-14 -56h-80zM649 53q89 3 165 3l30 119q12 48 30 115h-1zM123 462l69 6q0 -46 21.5 -65.5t75.5 -19.5q48 0 80 21t41 59q10 38 -11.5 55.5t-72.5 17.5h-65l12 52h49q63 0 92 23
q23 19 32 53q8 32 -11 51t-62 19q-87 0 -124 -72l-58 21q50 103 192 103q73 0 110 -34t24 -89q-18 -72 -96 -97v-1q82 -21 60 -109q-13 -54 -67 -90t-133 -36q-81 0 -121.5 33.5t-36.5 98.5z" />
    <glyph glyph-name="questiondown" unicode="&#xbf;" horiz-adv-x="612" 
d="M345 615h90l-32 -129h-90zM371 405l-14 -67q-8 -36 -33 -64t-56 -46.5t-62 -37.5t-57 -48.5t-36 -67.5q-13 -52 19 -87.5t101 -35.5q66 0 119.5 36.5t69.5 98.5q7 26 9 58h72q2 -20 -7 -59q-24 -92 -98 -143.5t-177 -51.5q-101 0 -153.5 54t-32.5 135q12 45 39.5 80
t60 56.5t64 39.5t56.5 41t32 50l16 59h68z" />
    <glyph glyph-name="Agrave" unicode="&#xc0;" horiz-adv-x="643" 
d="M392 682h79l94 -682h-81l-24 190h-300l-117 -190h-86zM289 400l-93 -151h257l-17 146q-18 147 -21 215h-1q-50 -91 -125 -210zM432 881l59 -132h-69l-93 132h103z" />
    <glyph glyph-name="Aacute" unicode="&#xc1;" horiz-adv-x="643" 
d="M392 682h79l94 -682h-81l-24 190h-300l-117 -190h-86zM289 400l-93 -151h257l-17 146q-18 147 -21 215h-1q-50 -91 -125 -210zM396 749l127 132h111l-161 -132h-77z" />
    <glyph glyph-name="Acircumflex" unicode="&#xc2;" horiz-adv-x="643" 
d="M392 682h79l94 -682h-81l-24 190h-300l-117 -190h-86zM289 400l-93 -151h257l-17 146q-18 147 -21 215h-1q-50 -91 -125 -210zM293 750l151 132h72l87 -132h-72l-61 75l-98 -75h-79z" />
    <glyph glyph-name="Atilde" unicode="&#xc3;" horiz-adv-x="643" 
d="M392 682h79l94 -682h-81l-24 190h-300l-117 -190h-86zM289 400l-93 -151h257l-17 146q-18 147 -21 215h-1q-50 -91 -125 -210zM340 755h-61q33 123 128 123q30 0 53.5 -17t40.5 -34t32 -17q36 0 55 63h60q-31 -123 -127 -123q-24 0 -44.5 10.5t-31.5 23.5t-24.5 23.5
t-25.5 10.5q-19 0 -31.5 -14t-23.5 -49z" />
    <glyph glyph-name="Adieresis" unicode="&#xc4;" horiz-adv-x="643" 
d="M392 682h79l94 -682h-81l-24 190h-300l-117 -190h-86zM289 400l-93 -151h257l-17 146q-18 147 -21 215h-1q-50 -91 -125 -210zM377 761h-75l28 112h76zM600 761h-75l28 112h76z" />
    <glyph glyph-name="Aring" unicode="&#xc5;" horiz-adv-x="643" 
d="M392 682h79l94 -682h-81l-24 190h-300l-117 -190h-86zM289 400l-93 -151h257l-17 146q-18 147 -21 215h-1q-50 -91 -125 -210zM570 827q-9 -37 -41.5 -62t-79.5 -25q-49 0 -70.5 29t-9.5 73q9 37 41 61.5t79 24.5q49 0 70.5 -28.5t10.5 -72.5zM515 834q5 20 -3.5 34
t-30.5 14q-21 0 -36 -13.5t-21 -34.5q-5 -21 3.5 -34t30.5 -13t37 13.5t20 33.5z" />
    <glyph glyph-name="AE" unicode="&#xc6;" horiz-adv-x="969" 
d="M441 682h556l-16 -63h-356l-59 -240h308l-15 -60h-309l-63 -254h373l-16 -65h-448l47 188h-290l-141 -188h-89zM475 619l-278 -371h261l92 371h-75z" />
    <glyph glyph-name="Ccedilla" unicode="&#xc7;" horiz-adv-x="690" 
d="M263 -207h-82q76 54 76 88q0 22 -38 43l55 66q-117 17 -167.5 114.5t-13.5 243.5q22 88 65.5 156.5t98.5 109.5t113.5 61.5t117.5 20.5q91 0 152.5 -47t74.5 -128l-72 -21q-26 133 -167 133q-99 0 -185 -77.5t-121 -214.5q-32 -132 12 -211t154 -79q153 0 242 147l55 -35
q-103 -169 -292 -176l-35 -43q27 -24 27 -56q0 -45 -70 -95z" />
    <glyph glyph-name="Egrave" unicode="&#xc8;" horiz-adv-x="645" 
d="M50 0l170 682h453l-16 -63h-377l-61 -240h331l-14 -60h-332l-63 -255h395l-17 -64h-469zM451 881l59 -132h-69l-93 132h103z" />
    <glyph glyph-name="Eacute" unicode="&#xc9;" horiz-adv-x="645" 
d="M50 0l170 682h453l-16 -63h-377l-61 -240h331l-14 -60h-332l-63 -255h395l-17 -64h-469zM406 749l127 132h111l-161 -132h-77z" />
    <glyph glyph-name="Ecircumflex" unicode="&#xca;" horiz-adv-x="645" 
d="M50 0l170 682h453l-16 -63h-377l-61 -240h331l-14 -60h-332l-63 -255h395l-17 -64h-469zM309 750l151 132h72l87 -132h-72l-61 75l-98 -75h-79z" />
    <glyph glyph-name="Edieresis" unicode="&#xcb;" horiz-adv-x="645" 
d="M50 0l170 682h453l-16 -63h-377l-61 -240h331l-14 -60h-332l-63 -255h395l-17 -64h-469zM393 761h-75l28 112h76zM616 761h-75l28 112h76z" />
    <glyph glyph-name="Igrave" unicode="&#xcc;" horiz-adv-x="295" 
d="M50 0l170 682h75l-170 -682h-75zM262 881l59 -132h-69l-93 132h103z" />
    <glyph glyph-name="Iacute" unicode="&#xcd;" horiz-adv-x="295" 
d="M50 0l170 682h75l-170 -682h-75zM223 749l127 132h111l-161 -132h-77z" />
    <glyph glyph-name="Icircumflex" unicode="&#xce;" horiz-adv-x="295" 
d="M50 0l170 682h75l-170 -682h-75zM120 750l151 132h72l87 -132h-72l-61 75l-98 -75h-79z" />
    <glyph glyph-name="Idieresis" unicode="&#xcf;" horiz-adv-x="295" 
d="M50 0l170 682h75l-170 -682h-75zM203 761h-75l28 112h76zM426 761h-75l28 112h76z" />
    <glyph glyph-name="Eth" unicode="&#xd0;" horiz-adv-x="741" 
d="M218 319l-64 -255q80 -2 121 -2q76 0 132 16.5t108 67.5q59 58 86.5 139t29.5 145q3 93 -46 143q-47 47 -176 47q-49 0 -117 -2l-60 -239h206l-16 -60h-204zM63 0l80 319h-113l16 60h112l75 303q13 0 81 0.5t109 0.5q161 0 227 -69q64 -67 61 -183q-3 -75 -36.5 -165.5
t-104.5 -161.5q-65 -63 -138.5 -84t-168.5 -21q-44 0 -113.5 0.5t-86.5 0.5z" />
    <glyph glyph-name="Ntilde" unicode="&#xd1;" horiz-adv-x="755" 
d="M584 0h-85l-154 394q-34 87 -78 205h-1q-10 -43 -87 -362l-59 -237h-70l170 682h92l152 -382q20 -51 77 -206h1q35 163 86 362l56 226h71zM398 755h-61q33 123 128 123q31 0 54 -17t40 -34t32 -17q36 0 55 63h60q-31 -123 -127 -123q-24 0 -44.5 10.5t-31.5 23.5
t-24.5 23.5t-25.5 10.5q-19 0 -31.5 -14t-23.5 -49z" />
    <glyph glyph-name="Ograve" unicode="&#xd2;" horiz-adv-x="778" 
d="M657 341q33 131 -12 210.5t-159 79.5q-113 0 -198 -79.5t-118 -210.5t12.5 -210.5t158.5 -79.5t198 79.5t118 210.5zM736 337q-40 -160 -151.5 -255.5t-254.5 -95.5q-145 0 -211.5 98.5t-26.5 260.5q40 161 151 256t255 95t211 -99t27 -260zM503 881l59 -132h-69l-93 132
h103z" />
    <glyph glyph-name="Oacute" unicode="&#xd3;" horiz-adv-x="778" 
d="M657 341q33 131 -12 210.5t-159 79.5q-113 0 -198 -79.5t-118 -210.5t12.5 -210.5t158.5 -79.5t198 79.5t118 210.5zM736 337q-40 -160 -151.5 -255.5t-254.5 -95.5q-145 0 -211.5 98.5t-26.5 260.5q40 161 151 256t255 95t211 -99t27 -260zM464 749l127 132h111
l-161 -132h-77z" />
    <glyph glyph-name="Ocircumflex" unicode="&#xd4;" horiz-adv-x="778" 
d="M657 341q33 131 -12 210.5t-159 79.5q-113 0 -198 -79.5t-118 -210.5t12.5 -210.5t158.5 -79.5t198 79.5t118 210.5zM736 337q-40 -160 -151.5 -255.5t-254.5 -95.5q-145 0 -211.5 98.5t-26.5 260.5q40 161 151 256t255 95t211 -99t27 -260zM361 750l151 132h72l87 -132
h-72l-61 75l-98 -75h-79z" />
    <glyph glyph-name="Otilde" unicode="&#xd5;" horiz-adv-x="778" 
d="M657 341q33 131 -12 210.5t-159 79.5q-113 0 -198 -79.5t-118 -210.5t12.5 -210.5t158.5 -79.5t198 79.5t118 210.5zM736 337q-40 -160 -151.5 -255.5t-254.5 -95.5q-145 0 -211.5 98.5t-26.5 260.5q40 161 151 256t255 95t211 -99t27 -260zM408 755h-61q33 123 128 123
q30 0 53.5 -17t40.5 -34t32 -17q36 0 55 63h60q-31 -123 -127 -123q-24 0 -44.5 10.5t-31.5 23.5t-24.5 23.5t-25.5 10.5q-19 0 -31.5 -14t-23.5 -49z" />
    <glyph glyph-name="Odieresis" unicode="&#xd6;" horiz-adv-x="778" 
d="M657 341q33 131 -12 210.5t-159 79.5q-113 0 -198 -79.5t-118 -210.5t12.5 -210.5t158.5 -79.5t198 79.5t118 210.5zM736 337q-40 -160 -151.5 -255.5t-254.5 -95.5q-145 0 -211.5 98.5t-26.5 260.5q40 161 151 256t255 95t211 -99t27 -260zM445 761h-75l28 112h76z
M668 761h-75l28 112h76z" />
    <glyph glyph-name="multiply" unicode="&#xd7;" 
d="M531 129l-54 -39l-139 189l-234 -189l-37 49l235 187l-142 188l53 40l139 -189l235 189l37 -48l-236 -188z" />
    <glyph glyph-name="Oslash" unicode="&#xd8;" horiz-adv-x="778" 
d="M47 -16l-39 43l96 81q-47 98 -12 237q40 160 151 255.5t255 95.5q126 0 194 -77l88 78l39 -42l-95 -82q47 -92 12 -236q-40 -160 -151.5 -255.5t-254.5 -95.5q-129 0 -193 76zM660 518l-465 -405q47 -62 146 -62q114 0 199 79t118 211q26 101 2 177zM168 164l465 405
q-47 63 -146 63q-114 0 -199 -79t-118 -212q-27 -104 -2 -177z" />
    <glyph glyph-name="Ugrave" unicode="&#xd9;" horiz-adv-x="730" 
d="M288 682l-106 -425q-25 -99 8 -153t127 -54t155.5 54t86.5 153l106 425h70l-105 -432q-30 -125 -113.5 -194.5t-210.5 -69.5q-71 0 -119.5 23t-68 61.5t-24 87t11.5 99.5l107 425h75zM479 881l59 -132h-69l-93 132h103z" />
    <glyph glyph-name="Uacute" unicode="&#xda;" horiz-adv-x="730" 
d="M288 682l-106 -425q-25 -99 8 -153t127 -54t155.5 54t86.5 153l106 425h70l-105 -432q-30 -125 -113.5 -194.5t-210.5 -69.5q-71 0 -119.5 23t-68 61.5t-24 87t11.5 99.5l107 425h75zM440 749l127 132h111l-161 -132h-77z" />
    <glyph glyph-name="Ucircumflex" unicode="&#xdb;" horiz-adv-x="730" 
d="M288 682l-106 -425q-25 -99 8 -153t127 -54t155.5 54t86.5 153l106 425h70l-105 -432q-30 -125 -113.5 -194.5t-210.5 -69.5q-71 0 -119.5 23t-68 61.5t-24 87t11.5 99.5l107 425h75zM337 750l151 132h72l87 -132h-72l-61 75l-98 -75h-79z" />
    <glyph glyph-name="Udieresis" unicode="&#xdc;" horiz-adv-x="730" 
d="M288 682l-106 -425q-25 -99 8 -153t127 -54t155.5 54t86.5 153l106 425h70l-105 -432q-30 -125 -113.5 -194.5t-210.5 -69.5q-71 0 -119.5 23t-68 61.5t-24 87t11.5 99.5l107 425h75zM421 761h-75l28 112h76zM644 761h-75l28 112h76z" />
    <glyph glyph-name="Yacute" unicode="&#xdd;" horiz-adv-x="604" 
d="M279 0h-75l73 292l-167 390h86l134 -320l292 320h92l-362 -390zM370 749l127 132h111l-161 -132h-77z" />
    <glyph glyph-name="Thorn" unicode="&#xde;" horiz-adv-x="637" 
d="M125 0h-75l170 682h75l-29 -118q24 0 82 0.5t91 0.5q130 0 185 -56t30 -155q-50 -198 -312 -198q-48 0 -178 2zM249 501l-69 -280q55 -1 174 -1q100 0 152 35.5t70 105.5q17 70 -17 105.5t-132 35.5q-34 0 -93 -0.5t-85 -0.5z" />
    <glyph glyph-name="germandbls" unicode="&#xdf;" horiz-adv-x="569" 
d="M24 0l128 513q50 203 252 203q99 0 137 -48t22 -110q-11 -44 -42 -73t-62 -40.5t-58.5 -30t-34.5 -44.5q-6 -25 9 -47.5t39 -38.5t47.5 -41t34.5 -55.5t-1 -82.5q-14 -57 -61.5 -87t-112.5 -30q-83 0 -123 36l31 54q42 -33 97 -33q82 0 100 70q8 31 -6 55.5t-38 43
t-48 38.5t-36.5 51t-2.5 70q10 40 40 66t60.5 37.5t59.5 33t37 52.5q10 39 -13 67.5t-87 28.5q-134 0 -171 -150l-127 -508h-70z" />
    <glyph glyph-name="agrave" unicode="&#xe0;" horiz-adv-x="516" 
d="M460 322l-22 -86q-32 -124 -57 -236h-69l19 71h-1q-69 -83 -176 -83q-74 0 -110.5 41t-20.5 105q19 76 100 114t257 38l9 37q28 110 -85 110q-83 0 -170 -87l-39 45q102 100 221 100q90 0 127 -47t17 -122zM358 197l8 35q-140 0 -198 -24t-71 -77q-11 -40 9 -63t71 -23
q64 0 115.5 47.5t65.5 104.5zM331 692l50 -141h-64l-80 141h94z" />
    <glyph glyph-name="aacute" unicode="&#xe1;" horiz-adv-x="516" 
d="M460 322l-22 -86q-32 -124 -57 -236h-69l19 71h-1q-69 -83 -176 -83q-74 0 -110.5 41t-20.5 105q19 76 100 114t257 38l9 37q28 110 -85 110q-83 0 -170 -87l-39 45q102 100 221 100q90 0 127 -47t17 -122zM358 197l8 35q-140 0 -198 -24t-71 -77q-11 -40 9 -63t71 -23
q64 0 115.5 47.5t65.5 104.5zM293 551l120 141h102l-151 -141h-71z" />
    <glyph glyph-name="acircumflex" unicode="&#xe2;" horiz-adv-x="516" 
d="M460 322l-22 -86q-32 -124 -57 -236h-69l19 71h-1q-69 -83 -176 -83q-74 0 -110.5 41t-20.5 105q19 76 100 114t257 38l9 37q28 110 -85 110q-83 0 -170 -87l-39 45q102 100 221 100q90 0 127 -47t17 -122zM358 197l8 35q-140 0 -198 -24t-71 -77q-11 -40 9 -63t71 -23
q64 0 115.5 47.5t65.5 104.5zM197 551l134 141h87l64 -141h-65l-52 90l-98 -90h-70z" />
    <glyph glyph-name="atilde" unicode="&#xe3;" horiz-adv-x="516" 
d="M460 322l-22 -86q-32 -124 -57 -236h-69l19 71h-1q-69 -83 -176 -83q-74 0 -110.5 41t-20.5 105q19 76 100 114t257 38l9 37q28 110 -85 110q-83 0 -170 -87l-39 45q102 100 221 100q90 0 127 -47t17 -122zM358 197l8 35q-140 0 -198 -24t-71 -77q-11 -40 9 -63t71 -23
q64 0 115.5 47.5t65.5 104.5zM242 563h-56q27 118 121 118q28 0 48 -16.5t34 -33t27 -16.5q19 0 30.5 13.5t24.5 48.5h56q-27 -118 -120 -118q-22 0 -40 10.5t-27 22.5t-20.5 22.5t-21.5 10.5q-19 0 -31 -13.5t-25 -48.5z" />
    <glyph glyph-name="adieresis" unicode="&#xe4;" horiz-adv-x="516" 
d="M460 322l-22 -86q-32 -124 -57 -236h-69l19 71h-1q-69 -83 -176 -83q-74 0 -110.5 41t-20.5 105q19 76 100 114t257 38l9 37q28 110 -85 110q-83 0 -170 -87l-39 45q102 100 221 100q90 0 127 -47t17 -122zM358 197l8 35q-140 0 -198 -24t-71 -77q-11 -40 9 -63t71 -23
q64 0 115.5 47.5t65.5 104.5zM286 567h-71l28 113h71zM470 567h-71l28 113h71z" />
    <glyph glyph-name="aring" unicode="&#xe5;" horiz-adv-x="516" 
d="M460 322l-22 -86q-32 -124 -57 -236h-69l19 71h-1q-69 -83 -176 -83q-74 0 -110.5 41t-20.5 105q19 76 100 114t257 38l9 37q28 110 -85 110q-83 0 -170 -87l-39 45q102 100 221 100q90 0 127 -47t17 -122zM358 197l8 35q-140 0 -198 -24t-71 -77q-11 -40 9 -63t71 -23
q64 0 115.5 47.5t65.5 104.5zM463 638q-10 -40 -42 -65t-79 -25q-49 0 -71 28t-12 70q11 40 42.5 65t78.5 25q49 0 71.5 -28t11.5 -70zM406 641q6 21 -2 34.5t-30 13.5t-38 -13.5t-21 -34.5q-4 -20 4.5 -33.5t29.5 -13.5q22 0 37 13.5t20 33.5z" />
    <glyph glyph-name="ae" unicode="&#xe6;" horiz-adv-x="844" 
d="M717 129l43 -40q-87 -101 -224 -101q-136 0 -166 114q-85 -114 -216 -114q-74 0 -110.5 41t-20.5 105q19 76 100 114t257 38l9 37q27 110 -85 110q-83 0 -170 -87l-39 45q102 100 221 100q123 0 138 -84q70 84 185 84q57 0 96.5 -22.5t54.5 -55.5t20.5 -71.5t-5.5 -70.5
q-9 -36 -15 -46h-355q-19 -82 13 -130.5t100 -48.5q98 0 169 83zM358 197l8 35q-140 0 -198 -24t-71 -77q-11 -40 9 -63t71 -23q65 0 115.5 46t65.5 106zM633 433q-60 0 -108 -39.5t-74 -112.5h281q16 62 -9.5 107t-89.5 45z" />
    <glyph glyph-name="ccedilla" unicode="&#xe7;" horiz-adv-x="515" 
d="M155 -207h-79q77 54 77 88q0 22 -39 43l57 68q-80 14 -113.5 82t-6.5 172q29 119 102.5 182t170.5 63q71 0 115.5 -34t57.5 -97l-69 -22q-14 52 -40.5 73t-74.5 21q-64 0 -115.5 -51t-74.5 -142q-21 -86 3.5 -139.5t93.5 -53.5q51 0 91 26t78 78l53 -31
q-81 -119 -207 -130l-38 -45q28 -24 28 -56q0 -45 -70 -95z" />
    <glyph glyph-name="egrave" unicode="&#xe8;" horiz-adv-x="529" 
d="M402 129l43 -40q-87 -101 -224 -101q-107 0 -152.5 73t-17.5 186q27 112 99.5 178t173.5 66q57 0 96.5 -22.5t54.5 -55.5t20.5 -71.5t-5.5 -70.5q-9 -36 -15 -46h-355q-19 -82 13 -130.5t99 -48.5q99 0 170 83zM318 433q-61 0 -109 -39.5t-74 -112.5h282q16 62 -10 107
t-89 45zM333 692l50 -141h-64l-80 141h94z" />
    <glyph glyph-name="eacute" unicode="&#xe9;" horiz-adv-x="529" 
d="M402 129l43 -40q-87 -101 -224 -101q-107 0 -152.5 73t-17.5 186q27 112 99.5 178t173.5 66q57 0 96.5 -22.5t54.5 -55.5t20.5 -71.5t-5.5 -70.5q-9 -36 -15 -46h-355q-19 -82 13 -130.5t99 -48.5q99 0 170 83zM318 433q-61 0 -109 -39.5t-74 -112.5h282q16 62 -10 107
t-89 45zM296 551l120 141h102l-151 -141h-71z" />
    <glyph glyph-name="ecircumflex" unicode="&#xea;" horiz-adv-x="529" 
d="M402 129l43 -40q-87 -101 -224 -101q-107 0 -152.5 73t-17.5 186q27 112 99.5 178t173.5 66q57 0 96.5 -22.5t54.5 -55.5t20.5 -71.5t-5.5 -70.5q-9 -36 -15 -46h-355q-19 -82 13 -130.5t99 -48.5q99 0 170 83zM318 433q-61 0 -109 -39.5t-74 -112.5h282q16 62 -10 107
t-89 45zM200 551l134 141h87l64 -141h-65l-52 90l-98 -90h-70z" />
    <glyph glyph-name="edieresis" unicode="&#xeb;" horiz-adv-x="529" 
d="M402 129l43 -40q-87 -101 -224 -101q-107 0 -152.5 73t-17.5 186q27 112 99.5 178t173.5 66q57 0 96.5 -22.5t54.5 -55.5t20.5 -71.5t-5.5 -70.5q-9 -36 -15 -46h-355q-19 -82 13 -130.5t99 -48.5q99 0 170 83zM318 433q-61 0 -109 -39.5t-74 -112.5h282q16 62 -10 107
t-89 45zM289 567h-71l28 113h71zM473 567h-71l28 113h71z" />
    <glyph glyph-name="igrave" unicode="&#xec;" horiz-adv-x="238" 
d="M94 0h-70l119 478h70zM188 692l50 -141h-64l-80 141h94z" />
    <glyph glyph-name="iacute" unicode="&#xed;" horiz-adv-x="238" 
d="M94 0h-70l119 478h70zM150 551l120 141h102l-151 -141h-71z" />
    <glyph glyph-name="icircumflex" unicode="&#xee;" horiz-adv-x="238" 
d="M94 0h-70l119 478h70zM54 551l134 141h87l64 -141h-65l-52 90l-98 -90h-70z" />
    <glyph glyph-name="idieresis" unicode="&#xef;" horiz-adv-x="238" 
d="M94 0h-70l119 478h70zM154 567h-70l28 113h70zM316 567h-70l28 113h70z" />
    <glyph glyph-name="eth" unicode="&#xf0;" horiz-adv-x="563" 
d="M267 695l75 30q40 -29 76 -66l134 61l21 -48l-120 -54q115 -152 64 -355q-32 -129 -108.5 -202t-186.5 -73q-111 0 -155.5 71.5t-17.5 182.5q28 111 102.5 179t181.5 68q46 0 84.5 -24t50.5 -58l2 1q-17 98 -83 180l-139 -62l-21 48l123 55q-35 33 -83 66zM434 238
q22 83 -6.5 137.5t-100.5 54.5q-76 0 -129.5 -53.5t-74.5 -138.5q-21 -83 6.5 -137t100.5 -54q76 0 129.5 53t74.5 138z" />
    <glyph glyph-name="ntilde" unicode="&#xf1;" horiz-adv-x="560" 
d="M422 0h-70l68 272q18 74 10 105q-12 55 -86 55q-56 0 -99 -34q-65 -52 -95 -170l-56 -228h-70l60 240q31 126 55 238h69l-16 -71h1q69 84 171 84q84 0 120 -51.5t12 -147.5zM260 563h-56q27 118 121 118q28 0 48 -16.5t34 -33t27 -16.5q19 0 30.5 13.5t24.5 48.5h56
q-27 -118 -120 -118q-22 0 -40 10.5t-27 22.5t-20.5 22.5t-21.5 10.5q-19 0 -31 -13.5t-25 -48.5z" />
    <glyph glyph-name="ograve" unicode="&#xf2;" horiz-adv-x="559" 
d="M434 239q22 84 -6 138.5t-101 54.5q-76 0 -129.5 -54t-74.5 -139q-20 -84 7 -138t100 -54q76 0 129.5 53.5t74.5 138.5zM508 235q-28 -111 -103 -179t-183 -68q-111 0 -155.5 72t-16.5 183q27 111 102 179.5t184 68.5q111 0 155.5 -72.5t16.5 -183.5zM348 692l50 -141
h-64l-80 141h94z" />
    <glyph glyph-name="oacute" unicode="&#xf3;" horiz-adv-x="559" 
d="M434 239q22 84 -6 138.5t-101 54.5q-76 0 -129.5 -54t-74.5 -139q-20 -84 7 -138t100 -54q76 0 129.5 53.5t74.5 138.5zM508 235q-28 -111 -103 -179t-183 -68q-111 0 -155.5 72t-16.5 183q27 111 102 179.5t184 68.5q111 0 155.5 -72.5t16.5 -183.5zM311 551l120 141
h102l-151 -141h-71z" />
    <glyph glyph-name="ocircumflex" unicode="&#xf4;" horiz-adv-x="559" 
d="M434 239q22 84 -6 138.5t-101 54.5q-76 0 -129.5 -54t-74.5 -139q-20 -84 7 -138t100 -54q76 0 129.5 53.5t74.5 138.5zM508 235q-28 -111 -103 -179t-183 -68q-111 0 -155.5 72t-16.5 183q27 111 102 179.5t184 68.5q111 0 155.5 -72.5t16.5 -183.5zM215 551l134 141h87
l64 -141h-65l-52 90l-98 -90h-70z" />
    <glyph glyph-name="otilde" unicode="&#xf5;" horiz-adv-x="559" 
d="M434 239q22 84 -6 138.5t-101 54.5q-76 0 -129.5 -54t-74.5 -139q-20 -84 7 -138t100 -54q76 0 129.5 53.5t74.5 138.5zM508 235q-28 -111 -103 -179t-183 -68q-111 0 -155.5 72t-16.5 183q27 111 102 179.5t184 68.5q111 0 155.5 -72.5t16.5 -183.5zM260 563h-56
q27 118 121 118q28 0 48 -16.5t34 -33t27 -16.5q19 0 30.5 13.5t24.5 48.5h56q-27 -118 -120 -118q-22 0 -40 10.5t-27 22.5t-20.5 22.5t-21.5 10.5q-19 0 -31 -13.5t-25 -48.5z" />
    <glyph glyph-name="odieresis" unicode="&#xf6;" horiz-adv-x="559" 
d="M434 239q22 84 -6 138.5t-101 54.5q-76 0 -129.5 -54t-74.5 -139q-20 -84 7 -138t100 -54q76 0 129.5 53.5t74.5 138.5zM508 235q-28 -111 -103 -179t-183 -68q-111 0 -155.5 72t-16.5 183q27 111 102 179.5t184 68.5q111 0 155.5 -72.5t16.5 -183.5zM304 567h-71l28 113
h71zM488 567h-71l28 113h71z" />
    <glyph glyph-name="divide" unicode="&#xf7;" 
d="M325 55h-92l32 126h91zM615 351l-15 -58h-524l15 58h524zM426 463h-91l31 126h91z" />
    <glyph glyph-name="oslash" unicode="&#xf8;" horiz-adv-x="559" 
d="M5 -34l-35 40l86 73q-32 68 -6 164q27 111 102 179.5t184 68.5q90 0 136 -49l80 70l35 -40l-85 -72q31 -68 6 -165q-27 -111 -102.5 -179t-183.5 -68q-90 0 -137 49zM115 132l304 263q-31 37 -92 37q-76 0 -129 -53.5t-76 -139.5q-14 -55 -7 -107zM442 347l-303 -264
q31 -37 92 -37q76 0 129.5 54t74.5 139q16 57 7 108z" />
    <glyph glyph-name="ugrave" unicode="&#xf9;" horiz-adv-x="554" 
d="M413 0h-69l17 72h-1q-69 -84 -166 -84q-84 0 -119.5 51.5t-11.5 147.5l75 291h69l-68 -273q-19 -69 -10 -104q14 -55 81 -55q56 0 100 35q64 51 93 173l57 224h70l-60 -240q-27 -106 -57 -238zM346 692l50 -141h-64l-80 141h94z" />
    <glyph glyph-name="uacute" unicode="&#xfa;" horiz-adv-x="554" 
d="M413 0h-69l17 72h-1q-69 -84 -166 -84q-84 0 -119.5 51.5t-11.5 147.5l75 291h69l-68 -273q-19 -69 -10 -104q14 -55 81 -55q56 0 100 35q64 51 93 173l57 224h70l-60 -240q-27 -106 -57 -238zM309 551l120 141h102l-151 -141h-71z" />
    <glyph glyph-name="ucircumflex" unicode="&#xfb;" horiz-adv-x="554" 
d="M413 0h-69l17 72h-1q-69 -84 -166 -84q-84 0 -119.5 51.5t-11.5 147.5l75 291h69l-68 -273q-19 -69 -10 -104q14 -55 81 -55q56 0 100 35q64 51 93 173l57 224h70l-60 -240q-27 -106 -57 -238zM213 551l134 141h87l64 -141h-65l-52 90l-98 -90h-70z" />
    <glyph glyph-name="udieresis" unicode="&#xfc;" horiz-adv-x="554" 
d="M413 0h-69l17 72h-1q-69 -84 -166 -84q-84 0 -119.5 51.5t-11.5 147.5l75 291h69l-68 -273q-19 -69 -10 -104q14 -55 81 -55q56 0 100 35q64 51 93 173l57 224h70l-60 -240q-27 -106 -57 -238zM302 567h-71l28 113h71zM486 567h-71l28 113h71z" />
    <glyph glyph-name="yacute" unicode="&#xfd;" horiz-adv-x="487" 
d="M79 -207h-80l150 208l-76 477h77l30 -202q16 -111 21 -197h1q51 90 120 197l131 202h80zM270 551l120 141h102l-151 -141h-71z" />
    <glyph glyph-name="thorn" unicode="&#xfe;" horiz-adv-x="569" 
d="M154 250l-5 -21q-20 -83 5.5 -133t93.5 -50q69 0 122 53.5t74 140.5q22 84 -3 138t-95 54q-64 0 -118 -49.5t-74 -132.5zM-28 -207l230 918h70l-53 -210q-18 -70 -27 -94h1q70 84 171 84q100 0 141 -72t14 -182q-29 -118 -103 -183.5t-170 -65.5q-50 0 -86 21.5t-51 57.5
h-1q-3 -20 -21 -89l-45 -185h-70z" />
    <glyph glyph-name="ydieresis" unicode="&#xff;" horiz-adv-x="487" 
d="M79 -207h-80l150 208l-76 477h77l30 -202q16 -111 21 -197h1q51 90 120 197l131 202h80zM264 567h-71l28 113h71zM448 567h-71l28 113h71z" />
    <glyph glyph-name="Amacron" unicode="&#x100;" horiz-adv-x="643" 
d="M392 682h79l94 -682h-81l-24 190h-300l-117 -190h-86zM289 400l-93 -151h257l-17 146q-18 147 -21 215h-1q-50 -91 -125 -210zM620 843l-16 -62h-297l16 62h297z" />
    <glyph glyph-name="amacron" unicode="&#x101;" horiz-adv-x="516" 
d="M460 322l-22 -86q-32 -124 -57 -236h-69l19 71h-1q-69 -83 -176 -83q-74 0 -110.5 41t-20.5 105q19 76 100 114t257 38l9 37q28 110 -85 110q-83 0 -170 -87l-39 45q102 100 221 100q90 0 127 -47t17 -122zM358 197l8 35q-140 0 -198 -24t-71 -77q-11 -40 9 -63t71 -23
q64 0 115.5 47.5t65.5 104.5zM497 647l-15 -58h-269l15 58h269z" />
    <glyph glyph-name="Abreve" unicode="&#x102;" horiz-adv-x="643" 
d="M392 682h79l94 -682h-81l-24 190h-300l-117 -190h-86zM289 400l-93 -151h257l-17 146q-18 147 -21 215h-1q-50 -91 -125 -210zM565 884h61q-29 -139 -172 -139q-74 0 -105.5 37.5t-10.5 101.5h59q-8 -39 6.5 -58.5t57.5 -19.5q82 0 104 78z" />
    <glyph glyph-name="abreve" unicode="&#x103;" horiz-adv-x="516" 
d="M460 322l-22 -86q-32 -124 -57 -236h-69l19 71h-1q-69 -83 -176 -83q-74 0 -110.5 41t-20.5 105q19 76 100 114t257 38l9 37q28 110 -85 110q-83 0 -170 -87l-39 45q102 100 221 100q90 0 127 -47t17 -122zM358 197l8 35q-140 0 -198 -24t-71 -77q-11 -40 9 -63t71 -23
q64 0 115.5 47.5t65.5 104.5zM453 688h55q-10 -63 -52.5 -98.5t-111.5 -35.5q-64 0 -94.5 34t-11.5 100h55q-6 -39 6 -58t52 -19q78 0 102 77z" />
    <glyph glyph-name="Aogonek" unicode="&#x104;" horiz-adv-x="643" 
d="M530 -158l-13 -47q-18 -9 -54 -9q-94 0 -94 58q0 70 120 156h-5l-23 190h-300l-118 -190h-86l435 682h79l94 -682q-61 -46 -90.5 -83.5t-29.5 -58.5q0 -16 34 -16h51zM289 400l-93 -151h258l-18 146q-18 147 -21 215h-1q-50 -91 -125 -210z" />
    <glyph glyph-name="aogonek" unicode="&#x105;" horiz-adv-x="516" 
d="M349 -161l-11 -45q-22 -8 -54 -8q-89 0 -89 58q0 33 26 68.5t94 91.5l16 67h-1q-69 -83 -176 -83q-74 0 -110.5 41t-20.5 105q19 76 100 114t257 38l9 37q28 110 -85 110q-83 0 -170 -87l-39 45q102 100 221 100q91 0 127 -47t17 -122l-22 -86q-47 -184 -55 -236
q-117 -101 -117 -142q0 -19 33 -19h50zM358 197l8 35q-140 0 -198 -24t-71 -77q-11 -40 9 -63t71 -23q64 0 115.5 47.5t65.5 104.5z" />
    <glyph glyph-name="Cacute" unicode="&#x106;" horiz-adv-x="690" 
d="M578 198l55 -35q-108 -177 -310 -177q-141 0 -206 100.5t-24 261.5q22 88 65.5 156.5t98.5 109.5t113.5 61.5t117.5 20.5q91 0 152.5 -47t74.5 -128l-72 -21q-26 133 -167 133q-99 0 -185 -77.5t-121 -214.5q-32 -132 12 -211t154 -79q153 0 242 147zM456 749l127 132
h111l-161 -132h-77z" />
    <glyph glyph-name="cacute" unicode="&#x107;" horiz-adv-x="515" 
d="M389 150l53 -31q-88 -131 -232 -131q-99 0 -144 70.5t-15 187.5q29 119 102.5 182t170.5 63q71 0 115.5 -34t57.5 -97l-69 -22q-14 52 -40.5 73t-74.5 21q-64 0 -115.5 -51t-74.5 -142q-21 -86 3.5 -139.5t93.5 -53.5q51 0 91 26t78 78zM299 551l120 141h102l-151 -141
h-71z" />
    <glyph glyph-name="Ccircumflex" unicode="&#x108;" horiz-adv-x="690" 
d="M578 198l55 -35q-108 -177 -310 -177q-141 0 -206 100.5t-24 261.5q22 88 65.5 156.5t98.5 109.5t113.5 61.5t117.5 20.5q91 0 152.5 -47t74.5 -128l-72 -21q-26 133 -167 133q-99 0 -185 -77.5t-121 -214.5q-32 -132 12 -211t154 -79q153 0 242 147zM354 750l151 132h72
l87 -132h-72l-61 75l-98 -75h-79z" />
    <glyph glyph-name="ccircumflex" unicode="&#x109;" horiz-adv-x="515" 
d="M389 150l53 -31q-88 -131 -232 -131q-99 0 -144 70.5t-15 187.5q29 119 102.5 182t170.5 63q71 0 115.5 -34t57.5 -97l-69 -22q-14 52 -40.5 73t-74.5 21q-64 0 -115.5 -51t-74.5 -142q-21 -86 3.5 -139.5t93.5 -53.5q51 0 91 26t78 78zM203 551l134 141h87l64 -141h-65
l-52 90l-98 -90h-70z" />
    <glyph glyph-name="Cdotaccent" unicode="&#x10a;" horiz-adv-x="690" 
d="M578 198l55 -35q-108 -177 -310 -177q-141 0 -206 100.5t-24 261.5q22 88 65.5 156.5t98.5 109.5t113.5 61.5t117.5 20.5q91 0 152.5 -47t74.5 -128l-72 -21q-26 133 -167 133q-99 0 -185 -77.5t-121 -214.5q-32 -132 12 -211t154 -79q153 0 242 147zM550 761h-77l28 112
h77z" />
    <glyph glyph-name="cdotaccent" unicode="&#x10b;" horiz-adv-x="515" 
d="M389 150l53 -31q-88 -131 -232 -131q-99 0 -144 70.5t-15 187.5q29 119 102.5 182t170.5 63q71 0 115.5 -34t57.5 -97l-69 -22q-14 52 -40.5 73t-74.5 21q-64 0 -115.5 -51t-74.5 -142q-21 -86 3.5 -139.5t93.5 -53.5q51 0 91 26t78 78zM384 567h-72l28 113h72z" />
    <glyph glyph-name="Ccaron" unicode="&#x10c;" horiz-adv-x="690" 
d="M578 198l55 -35q-108 -177 -310 -177q-141 0 -206 100.5t-24 261.5q22 88 65.5 156.5t98.5 109.5t113.5 61.5t117.5 20.5q91 0 152.5 -47t74.5 -128l-72 -21q-26 133 -167 133q-99 0 -185 -77.5t-121 -214.5q-32 -132 12 -211t154 -79q153 0 242 147zM697 882l-151 -132
h-75l-84 132h69l63 -75l98 75h80z" />
    <glyph glyph-name="ccaron" unicode="&#x10d;" horiz-adv-x="515" 
d="M389 150l53 -31q-88 -131 -232 -131q-99 0 -144 70.5t-15 187.5q29 119 102.5 182t170.5 63q71 0 115.5 -34t57.5 -97l-69 -22q-14 52 -40.5 73t-74.5 21q-64 0 -115.5 -51t-74.5 -142q-21 -86 3.5 -139.5t93.5 -53.5q51 0 91 26t78 78zM523 692l-136 -141h-85l-65 141
h65l52 -91l98 91h71z" />
    <glyph glyph-name="Dcaron" unicode="&#x10e;" horiz-adv-x="726" 
d="M279 618l-138 -554q80 -2 120 -2q76 0 132 16.5t108 67.5q59 58 87 139.5t29 144.5q3 93 -46 143q-46 47 -175 47q-49 0 -117 -2zM50 0l170 682q14 0 82 0.5t108 0.5q161 0 227 -69q65 -68 60 -183q-2 -74 -35.5 -165t-105.5 -162q-64 -63 -137.5 -84t-168.5 -21
q-45 0 -114 0.5t-86 0.5zM658 882l-151 -132h-75l-84 132h69l63 -75l98 75h80z" />
    <glyph glyph-name="dcaron" unicode="&#x10f;" horiz-adv-x="586" 
d="M413 229l5 19q21 82 -5 133t-94 51q-69 0 -122 -53t-74 -141q-21 -84 3.5 -138t94.5 -54q64 0 117.5 49.5t74.5 133.5zM428 0h-68l15 72q-69 -84 -172 -84q-100 0 -141 72t-13 181q29 118 103 184t170 66q50 0 85.5 -21.5t50.5 -57.5h1q5 30 21 89l53 210h70l-118 -470
q-37 -150 -57 -241zM618 569l80 187h78l-98 -187h-60z" />
    <glyph glyph-name="Dcroat" unicode="&#x110;" horiz-adv-x="741" 
d="M218 319l-64 -255q80 -2 121 -2q76 0 132 16.5t108 67.5q59 58 86.5 139t29.5 145q3 93 -46 143q-47 47 -176 47q-49 0 -117 -2l-60 -239h206l-16 -60h-204zM63 0l80 319h-113l16 60h112l75 303q13 0 81 0.5t109 0.5q161 0 227 -69q64 -67 61 -183q-3 -75 -36.5 -165.5
t-104.5 -161.5q-65 -63 -138.5 -84t-168.5 -21q-44 0 -113.5 0.5t-86.5 0.5z" />
    <glyph glyph-name="dcroat" unicode="&#x111;" horiz-adv-x="569" 
d="M428 0h-68l15 72q-69 -84 -172 -84q-100 0 -141 72t-13 181q29 118 103 184t170 66q50 0 85.5 -21.5t50.5 -57.5h1q5 31 21 88l16 62h-144l14 56h143l24 95h70l-24 -95h98l-14 -56h-97l-81 -321q-37 -150 -57 -241zM413 229l5 19q21 82 -5 133t-94 51q-69 0 -122 -53
t-74 -141q-21 -84 3.5 -138t94.5 -54q64 0 117.5 49.5t74.5 133.5z" />
    <glyph glyph-name="Emacron" unicode="&#x112;" horiz-adv-x="645" 
d="M50 0l170 682h453l-16 -63h-377l-61 -240h331l-14 -60h-332l-63 -255h395l-17 -64h-469zM634 843l-16 -62h-297l16 62h297z" />
    <glyph glyph-name="emacron" unicode="&#x113;" horiz-adv-x="529" 
d="M402 129l43 -40q-87 -101 -224 -101q-107 0 -152.5 73t-17.5 186q27 112 99.5 178t173.5 66q57 0 96.5 -22.5t54.5 -55.5t20.5 -71.5t-5.5 -70.5q-9 -36 -15 -46h-355q-19 -82 13 -130.5t99 -48.5q99 0 170 83zM318 433q-61 0 -109 -39.5t-74 -112.5h282q16 62 -10 107
t-89 45zM500 647l-15 -58h-269l15 58h269z" />
    <glyph glyph-name="Ebreve" unicode="&#x114;" horiz-adv-x="645" 
d="M50 0l170 682h453l-16 -63h-377l-61 -240h331l-14 -60h-332l-63 -255h395l-17 -64h-469zM581 884h61q-29 -139 -172 -139q-74 0 -105.5 37.5t-10.5 101.5h59q-8 -39 6.5 -58.5t57.5 -19.5q82 0 104 78z" />
    <glyph glyph-name="ebreve" unicode="&#x115;" horiz-adv-x="529" 
d="M402 129l43 -40q-87 -101 -224 -101q-107 0 -152.5 73t-17.5 186q27 112 99.5 178t173.5 66q57 0 96.5 -22.5t54.5 -55.5t20.5 -71.5t-5.5 -70.5q-9 -36 -15 -46h-355q-19 -82 13 -130.5t99 -48.5q99 0 170 83zM318 433q-61 0 -109 -39.5t-74 -112.5h282q16 62 -10 107
t-89 45zM456 688h55q-10 -63 -52.5 -98.5t-111.5 -35.5q-64 0 -94.5 34t-11.5 100h55q-6 -39 6 -58t52 -19q78 0 102 77z" />
    <glyph glyph-name="Edotaccent" unicode="&#x116;" horiz-adv-x="645" 
d="M50 0l170 682h453l-16 -63h-377l-61 -240h331l-14 -60h-332l-63 -255h395l-17 -64h-469zM504 761h-77l28 112h77z" />
    <glyph glyph-name="edotaccent" unicode="&#x117;" horiz-adv-x="529" 
d="M402 129l43 -40q-87 -101 -224 -101q-107 0 -152.5 73t-17.5 186q27 112 99.5 178t173.5 66q57 0 96.5 -22.5t54.5 -55.5t20.5 -71.5t-5.5 -70.5q-9 -36 -15 -46h-355q-19 -82 13 -130.5t99 -48.5q99 0 170 83zM318 433q-61 0 -109 -39.5t-74 -112.5h282q16 62 -10 107
t-89 45zM382 567h-72l28 113h72z" />
    <glyph glyph-name="Eogonek" unicode="&#x118;" horiz-adv-x="645" 
d="M480 -158l-13 -47q-18 -9 -54 -9q-94 0 -94 58q0 68 118 156h-387l170 682h453l-16 -63h-377l-61 -240h331l-14 -60h-332l-63 -255h395l-16 -59q-125 -102 -125 -147q0 -16 34 -16h51z" />
    <glyph glyph-name="eogonek" unicode="&#x119;" horiz-adv-x="529" 
d="M351 -161l-13 -45q-19 -8 -53 -8q-89 0 -89 58q0 28 20 60t78 92q-29 -8 -73 -8q-107 0 -152.5 73t-17.5 186q27 112 99.5 178t173.5 66q57 0 96.5 -22.5t54.5 -55.5t20.5 -71.5t-5.5 -70.5q-9 -36 -15 -46h-355q-19 -81 13 -130t99 -49q97 0 170 83l43 -39
q-6 -9 -33.5 -42t-40.5 -46q-60 -65 -82 -96t-22 -48q0 -19 33 -19h51zM134 281h283q16 62 -10 107t-89 45q-61 0 -109.5 -40t-74.5 -112z" />
    <glyph glyph-name="Ecaron" unicode="&#x11a;" horiz-adv-x="645" 
d="M50 0l170 682h453l-16 -63h-377l-61 -240h331l-14 -60h-332l-63 -255h395l-17 -64h-469zM652 882l-151 -132h-75l-84 132h69l63 -75l98 75h80z" />
    <glyph glyph-name="ecaron" unicode="&#x11b;" horiz-adv-x="529" 
d="M402 129l43 -40q-87 -101 -224 -101q-107 0 -152.5 73t-17.5 186q27 112 99.5 178t173.5 66q57 0 96.5 -22.5t54.5 -55.5t20.5 -71.5t-5.5 -70.5q-9 -36 -15 -46h-355q-19 -82 13 -130.5t99 -48.5q99 0 170 83zM318 433q-61 0 -109 -39.5t-74 -112.5h282q16 62 -10 107
t-89 45zM520 692l-136 -141h-85l-65 141h65l52 -91l98 91h71z" />
    <glyph glyph-name="Gcircumflex" unicode="&#x11c;" horiz-adv-x="755" 
d="M597 0h-70l28 111h-1q-42 -57 -106 -91t-138 -34q-134 0 -196.5 98t-21.5 261q39 159 149 255t247 96q96 0 157 -44.5t77 -119.5l-69 -30q-34 131 -181 131q-104 0 -187 -82t-115 -210q-33 -135 11 -213.5t149 -78.5q91 0 163.5 67.5t97.5 166.5l5 20h-200l17 61h275z
M353 750l151 132h72l87 -132h-72l-61 75l-98 -75h-79z" />
    <glyph glyph-name="gcircumflex" unicode="&#x11d;" horiz-adv-x="571" 
d="M484 478h69q0 -1 -4 -12.5t-10 -32t-14 -46.5t-18.5 -65t-20.5 -81q-9 -35 -30.5 -126.5t-31.5 -133.5q-25 -98 -83.5 -148t-166.5 -50q-146 0 -192 117l60 39q35 -98 140 -98q136 0 170 138q2 6 11 40t14 53h-1q-71 -83 -172 -83q-100 0 -141 71.5t-13 181.5
q29 117 102.5 183t169.5 66q51 0 87 -22t52 -60h1zM415 230l4 18q20 82 -5.5 133t-93.5 51q-69 0 -122 -53t-74 -140q-21 -84 3.5 -138t94.5 -54q64 0 118 49.5t75 133.5zM212 551l134 141h87l64 -141h-65l-52 90l-98 -90h-70z" />
    <glyph glyph-name="Gbreve" unicode="&#x11e;" horiz-adv-x="755" 
d="M597 0h-70l28 111h-1q-42 -57 -106 -91t-138 -34q-134 0 -196.5 98t-21.5 261q39 159 149 255t247 96q96 0 157 -44.5t77 -119.5l-69 -30q-34 131 -181 131q-104 0 -187 -82t-115 -210q-33 -135 11 -213.5t149 -78.5q91 0 163.5 67.5t97.5 166.5l5 20h-200l17 61h275z
M624 884h61q-29 -139 -172 -139q-74 0 -105.5 37.5t-10.5 101.5h59q-8 -39 6.5 -58.5t57.5 -19.5q82 0 104 78z" />
    <glyph glyph-name="gbreve" unicode="&#x11f;" horiz-adv-x="571" 
d="M484 478h69q0 -1 -4 -12.5t-10 -32t-14 -46.5t-18.5 -65t-20.5 -81q-9 -35 -30.5 -126.5t-31.5 -133.5q-25 -98 -83.5 -148t-166.5 -50q-146 0 -192 117l60 39q35 -98 140 -98q136 0 170 138q2 6 11 40t14 53h-1q-71 -83 -172 -83q-100 0 -141 71.5t-13 181.5
q29 117 102.5 183t169.5 66q51 0 87 -22t52 -60h1zM415 230l4 18q20 82 -5.5 133t-93.5 51q-69 0 -122 -53t-74 -140q-21 -84 3.5 -138t94.5 -54q64 0 118 49.5t75 133.5zM468 688h55q-10 -63 -52.5 -98.5t-111.5 -35.5q-64 0 -94.5 34t-11.5 100h55q-6 -39 6 -58t52 -19
q78 0 102 77z" />
    <glyph glyph-name="Gdotaccent" unicode="&#x120;" horiz-adv-x="755" 
d="M597 0h-70l28 111h-1q-42 -57 -106 -91t-138 -34q-134 0 -196.5 98t-21.5 261q39 159 149 255t247 96q96 0 157 -44.5t77 -119.5l-69 -30q-34 131 -181 131q-104 0 -187 -82t-115 -210q-33 -135 11 -213.5t149 -78.5q91 0 163.5 67.5t97.5 166.5l5 20h-200l17 61h275z
M549 761h-77l28 112h77z" />
    <glyph glyph-name="gdotaccent" unicode="&#x121;" horiz-adv-x="571" 
d="M484 478h69q0 -1 -4 -12.5t-10 -32t-14 -46.5t-18.5 -65t-20.5 -81q-9 -35 -30.5 -126.5t-31.5 -133.5q-25 -98 -83.5 -148t-166.5 -50q-146 0 -192 117l60 39q35 -98 140 -98q136 0 170 138q2 6 11 40t14 53h-1q-71 -83 -172 -83q-100 0 -141 71.5t-13 181.5
q29 117 102.5 183t169.5 66q51 0 87 -22t52 -60h1zM415 230l4 18q20 82 -5.5 133t-93.5 51q-69 0 -122 -53t-74 -140q-21 -84 3.5 -138t94.5 -54q64 0 118 49.5t75 133.5zM393 567h-72l28 113h72z" />
    <glyph glyph-name="Gcommaaccent" unicode="&#x122;" horiz-adv-x="755" 
d="M597 0h-70l28 111h-1q-42 -57 -106 -91t-138 -34q-134 0 -196.5 98t-21.5 261q39 159 149 255t247 96q96 0 157 -44.5t77 -119.5l-69 -30q-34 131 -181 131q-104 0 -187 -82t-115 -210q-33 -135 11 -213.5t149 -78.5q91 0 163.5 67.5t97.5 166.5l5 20h-200l17 61h275z
M264 -54h77l-20 -78q-19 -78 -105 -78h-21l10 37h17q35 0 43 39h-20z" />
    <glyph glyph-name="gcommaaccent" unicode="&#x123;" horiz-adv-x="571" 
d="M484 478h69q0 -1 -4 -12.5t-10 -32t-14 -46.5t-18.5 -65t-20.5 -81q-9 -35 -30.5 -126.5t-31.5 -133.5q-25 -98 -83.5 -148t-166.5 -50q-146 0 -192 117l60 39q35 -98 140 -98q136 0 170 138q2 6 11 40t14 53h-1q-71 -83 -172 -83q-100 0 -141 71.5t-13 181.5
q29 117 102.5 183t169.5 66q51 0 87 -22t52 -60h1zM415 230l4 18q20 82 -5.5 133t-93.5 51q-69 0 -122 -53t-74 -140q-21 -84 3.5 -138t94.5 -54q64 0 118 49.5t75 133.5zM387 567h-72l21 84q21 78 103 78h20l-9 -37h-20q-33 0 -43 -41h20z" />
    <glyph glyph-name="Hcircumflex" unicode="&#x124;" horiz-adv-x="754" 
d="M50 0l170 682h75l-74 -296h384l74 296h75l-170 -682h-75l80 321h-384l-80 -321h-75zM349 750l151 132h72l87 -132h-72l-61 75l-98 -75h-79z" />
    <glyph glyph-name="hcircumflex" unicode="&#x125;" horiz-adv-x="560" 
d="M24 0l178 711h70l-54 -211q-17 -66 -26 -94h1q70 85 171 85q84 0 119.5 -51.5t11.5 -147.5l-73 -292h-70l68 272q10 44 12 57.5t-2 47.5q-12 55 -86 55q-56 0 -99 -34q-65 -52 -95 -170l-56 -228h-70zM273 785l134 141h87l64 -141h-65l-52 90l-98 -90h-70z" />
    <glyph glyph-name="Hbar" unicode="&#x126;" horiz-adv-x="774" 
d="M60 0l125 503h-109l15 61h109l30 118h75l-30 -118h385l29 118h75l-29 -118h108l-15 -61h-109l-125 -503h-75l77 309h-385l-76 -309h-75zM228 373h384l32 130h-384z" />
    <glyph glyph-name="hbar" unicode="&#x127;" horiz-adv-x="560" 
d="M24 0l140 562h-98l13 56h99l24 95h70l-24 -95h141l-14 -56h-141l-15 -61q-14 -54 -27 -95h1q70 85 171 85q84 0 119.5 -51.5t11.5 -147.5l-73 -292h-70l68 272q10 44 12 57.5t-2 47.5q-12 55 -86 55q-56 0 -99 -34q-65 -52 -95 -170l-56 -228h-70z" />
    <glyph glyph-name="Itilde" unicode="&#x128;" horiz-adv-x="295" 
d="M50 0l170 682h75l-170 -682h-75zM166 755h-61q33 123 128 123q30 0 53.5 -17t40.5 -34t32 -17q36 0 55 63h60q-31 -123 -127 -123q-24 0 -44.5 10.5t-31.5 23.5t-24.5 23.5t-25.5 10.5q-19 0 -31.5 -14t-23.5 -49z" />
    <glyph glyph-name="itilde" unicode="&#x129;" horiz-adv-x="238" 
d="M94 0h-70l119 478h70zM116 563h-55q15 59 41 89t70 30q21 0 37 -10.5t23 -22.5t15.5 -22.5t17.5 -10.5q27 0 46 61h55q-15 -58 -41 -88t-70 -30q-21 0 -37 10.5t-23 22.5t-16 22.5t-18 10.5q-27 0 -45 -62z" />
    <glyph glyph-name="Imacron" unicode="&#x12a;" horiz-adv-x="295" 
d="M50 0l170 682h75l-170 -682h-75zM447 843l-16 -62h-297l16 62h297z" />
    <glyph glyph-name="imacron" unicode="&#x12b;" horiz-adv-x="238" 
d="M94 0h-70l119 478h70zM355 647l-15 -58h-269l15 58h269z" />
    <glyph glyph-name="Ibreve" unicode="&#x12c;" horiz-adv-x="295" 
d="M50 0l170 682h75l-170 -682h-75zM391 884h61q-29 -139 -172 -139q-74 0 -105.5 37.5t-10.5 101.5h59q-8 -39 6.5 -58.5t57.5 -19.5q82 0 104 78z" />
    <glyph glyph-name="ibreve" unicode="&#x12d;" horiz-adv-x="238" 
d="M94 0h-70l119 478h70zM310 688h55q-10 -63 -52.5 -98.5t-111.5 -35.5q-64 0 -94.5 34t-11.5 100h55q-6 -39 6 -58t52 -19q78 0 102 77z" />
    <glyph glyph-name="Iogonek" unicode="&#x12e;" horiz-adv-x="295" 
d="M109 -158l-14 -48q-19 -8 -53 -8q-95 0 -95 58q0 29 21.5 62t83.5 94h-2l170 682h75l-170 -682q-102 -107 -102 -142q0 -16 35 -16h51z" />
    <glyph glyph-name="iogonek" unicode="&#x12f;" horiz-adv-x="238" 
d="M236 563h-73l30 121h72zM76 -161l-11 -46q-21 -7 -53 -7q-89 0 -89 58q0 29 20.5 61t82.5 95h-2l119 478h70l-119 -478q-100 -109 -100 -142q0 -19 33 -19h49z" />
    <glyph glyph-name="Idotaccent" unicode="&#x130;" horiz-adv-x="295" 
d="M50 0l170 682h75l-170 -682h-75zM316 761h-77l28 112h77z" />
    <glyph glyph-name="dotlessi" unicode="&#x131;" horiz-adv-x="238" 
d="M94 0h-70l119 478h70z" />
    <glyph glyph-name="IJ" unicode="&#x132;" horiz-adv-x="825" 
d="M50 0l170 682h75l-170 -682h-75zM756 682h75l-120 -483q-26 -105 -91 -159t-158 -54q-88 0 -134.5 52t-28.5 165l79 15q-15 -88 7 -127t88 -39q126 0 165 156z" />
    <glyph glyph-name="ij" unicode="&#x133;" horiz-adv-x="503" 
d="M94 0h-70l119 478h70zM236 563h-73l30 121h72zM501 563h-72l30 121h72zM409 478h70l-129 -515q-25 -101 -62 -139.5t-106 -38.5q-33 0 -50 5l13 54h45q35 0 54.5 29t36.5 95z" />
    <glyph glyph-name="Jcircumflex" unicode="&#x134;" horiz-adv-x="530" 
d="M461 682h75l-120 -483q-26 -105 -91 -159t-158 -54q-88 0 -134.5 52t-28.5 165l79 15q-15 -88 7 -127t88 -39q126 0 165 156zM353 750l151 132h72l87 -132h-72l-61 75l-98 -75h-79z" />
    <glyph glyph-name="jcircumflex" unicode="&#x135;" horiz-adv-x="248" 
d="M154 478h70l-130 -515q-25 -102 -61.5 -140t-105.5 -38q-33 0 -50 5l12 53h45q35 0 55 29t37 96zM64 551l134 141h87l64 -141h-65l-52 90l-98 -90h-70z" />
    <glyph glyph-name="Kcommaaccent" unicode="&#x136;" horiz-adv-x="673" 
d="M655 682h107l-333 -260l183 -422h-87l-156 374l-187 -146l-57 -228h-75l170 682h75l-89 -358zM249 -54h77l-20 -78q-19 -78 -105 -78h-21l10 37h17q35 0 43 39h-20z" />
    <glyph glyph-name="kcommaaccent" unicode="&#x137;" horiz-adv-x="517" 
d="M452 0h-82l-103 266l-131 -96l-42 -170h-70l178 711h70l-114 -455l295 222h102l-230 -169zM166 -54h73l-20 -78q-21 -78 -103 -78h-20l9 37h20q32 0 43 41h-22z" />
    <glyph glyph-name="kgreenlandic" unicode="&#x138;" horiz-adv-x="517" 
d="M452 0h-82l-109 252l-129 -98l-38 -154h-70l43 173l76 305h70l-59 -237l303 237h99l-236 -180z" />
    <glyph glyph-name="Lacute" unicode="&#x139;" horiz-adv-x="548" 
d="M50 0l170 682h75l-154 -617h353l-16 -65h-428zM227 749l127 132h111l-161 -132h-77z" />
    <glyph glyph-name="lacute" unicode="&#x13a;" horiz-adv-x="238" 
d="M24 0l178 711h70l-178 -711h-70zM209 785l120 141h102l-151 -141h-71z" />
    <glyph glyph-name="Lcommaaccent" unicode="&#x13b;" horiz-adv-x="548" 
d="M50 0l170 682h75l-154 -617h353l-16 -65h-428zM207 -54h77l-20 -78q-19 -78 -105 -78h-21l10 37h17q35 0 43 39h-20z" />
    <glyph glyph-name="lcommaaccent" unicode="&#x13c;" horiz-adv-x="238" 
d="M24 0l178 711h70l-178 -711h-70zM8 -54h73l-20 -78q-21 -78 -103 -78h-20l9 37h20q32 0 43 41h-22z" />
    <glyph glyph-name="Lcaron" unicode="&#x13d;" horiz-adv-x="548" 
d="M50 0l170 682h75l-154 -617h353l-16 -65h-428zM346 569l80 187h78l-98 -187h-60z" />
    <glyph glyph-name="lcaron" unicode="&#x13e;" horiz-adv-x="255" 
d="M24 0l178 711h70l-178 -711h-70zM287 569l80 187h78l-98 -187h-60z" />
    <glyph glyph-name="Ldot" unicode="&#x13f;" horiz-adv-x="548" 
d="M50 0l170 682h75l-154 -617h353l-16 -65h-428zM485 313h-96l29 118h96z" />
    <glyph glyph-name="ldot" unicode="&#x140;" horiz-adv-x="340" 
d="M24 0l178 711h70l-178 -711h-70zM342 263h-96l29 118h96z" />
    <glyph glyph-name="Lslash" unicode="&#x141;" horiz-adv-x="558" 
d="M442 447l-17 -65l-216 -86l-58 -231h353l-16 -65h-428l65 263l-121 -48l16 65l122 48l88 354h75l-80 -321z" />
    <glyph glyph-name="lslash" unicode="&#x142;" horiz-adv-x="258" 
d="M34 0l79 317l-94 -41l16 63l94 42l83 330h69l-74 -297l93 41l-15 -63l-93 -42l-88 -350h-70z" />
    <glyph glyph-name="Nacute" unicode="&#x143;" horiz-adv-x="755" 
d="M584 0h-85l-154 394q-34 87 -78 205h-1q-10 -43 -87 -362l-59 -237h-70l170 682h92l152 -382q20 -51 77 -206h1q35 163 86 362l56 226h71zM452 749l127 132h111l-161 -132h-77z" />
    <glyph glyph-name="nacute" unicode="&#x144;" horiz-adv-x="560" 
d="M422 0h-70l68 272q18 74 10 105q-12 55 -86 55q-56 0 -99 -34q-65 -52 -95 -170l-56 -228h-70l60 240q31 126 55 238h69l-16 -71h1q69 84 171 84q84 0 120 -51.5t12 -147.5zM311 551l120 141h102l-151 -141h-71z" />
    <glyph glyph-name="Ncommaaccent" unicode="&#x145;" horiz-adv-x="755" 
d="M584 0h-85l-154 394q-34 87 -78 205h-1q-10 -43 -87 -362l-59 -237h-70l170 682h92l152 -382q20 -51 77 -206h1q35 163 86 362l56 226h71zM257 -54h77l-20 -78q-19 -78 -105 -78h-21l10 37h17q35 0 43 39h-20z" />
    <glyph glyph-name="ncommaaccent" unicode="&#x146;" horiz-adv-x="560" 
d="M422 0h-70l68 272q18 74 10 105q-12 55 -86 55q-56 0 -99 -34q-65 -52 -95 -170l-56 -228h-70l60 240q31 126 55 238h69l-16 -71h1q69 84 171 84q84 0 120 -51.5t12 -147.5zM171 -54h73l-20 -78q-21 -78 -103 -78h-20l9 37h20q32 0 43 41h-22z" />
    <glyph glyph-name="Ncaron" unicode="&#x147;" horiz-adv-x="755" 
d="M584 0h-85l-154 394q-34 87 -78 205h-1q-10 -43 -87 -362l-59 -237h-70l170 682h92l152 -382q20 -51 77 -206h1q35 163 86 362l56 226h71zM694 882l-151 -132h-75l-84 132h69l63 -75l98 75h80z" />
    <glyph glyph-name="ncaron" unicode="&#x148;" horiz-adv-x="560" 
d="M422 0h-70l68 272q18 74 10 105q-12 55 -86 55q-56 0 -99 -34q-65 -52 -95 -170l-56 -228h-70l60 240q31 126 55 238h69l-16 -71h1q69 84 171 84q84 0 120 -51.5t12 -147.5zM545 692l-136 -141h-85l-65 141h65l52 -91l98 91h71z" />
    <glyph glyph-name="Eng" unicode="&#x14a;" horiz-adv-x="754" 
d="M379 -95h41q69 0 91 97l4 14l-161 377q-51 119 -86 206h-1q-9 -39 -25 -106t-35.5 -145.5t-27.5 -110.5l-59 -237h-70l171 682h89l153 -354q44 -101 82 -207h2q17 78 80 335l57 226h70l-171 -682q-20 -80 -61.5 -119t-117.5 -39q-26 0 -39 7z" />
    <glyph glyph-name="eng" unicode="&#x14b;" horiz-adv-x="560" 
d="M343 -30l77 302q18 73 10 105q-12 55 -86 55q-56 0 -99 -34q-65 -52 -95 -170l-56 -228h-70l60 240q31 126 55 238h69l-16 -71h1q69 84 171 84q84 0 120 -51.5t12 -147.5l-81 -323q-7 -29 -14 -50t-21.5 -48t-33 -44t-48.5 -29.5t-68 -12.5q-25 0 -37 5l13 53h32
q45 0 67.5 33t37.5 94z" />
    <glyph glyph-name="Omacron" unicode="&#x14c;" horiz-adv-x="778" 
d="M657 341q33 131 -12 210.5t-159 79.5q-113 0 -198 -79.5t-118 -210.5t12.5 -210.5t158.5 -79.5t198 79.5t118 210.5zM736 337q-40 -160 -151.5 -255.5t-254.5 -95.5q-145 0 -211.5 98.5t-26.5 260.5q40 161 151 256t255 95t211 -99t27 -260zM688 843l-16 -62h-297l16 62
h297z" />
    <glyph glyph-name="omacron" unicode="&#x14d;" horiz-adv-x="559" 
d="M434 239q22 84 -6 138.5t-101 54.5q-76 0 -129.5 -54t-74.5 -139q-20 -84 7 -138t100 -54q76 0 129.5 53.5t74.5 138.5zM508 235q-28 -111 -103 -179t-183 -68q-111 0 -155.5 72t-16.5 183q27 111 102 179.5t184 68.5q111 0 155.5 -72.5t16.5 -183.5zM515 647l-15 -58
h-269l15 58h269z" />
    <glyph glyph-name="Obreve" unicode="&#x14e;" horiz-adv-x="778" 
d="M657 341q33 131 -12 210.5t-159 79.5q-113 0 -198 -79.5t-118 -210.5t12.5 -210.5t158.5 -79.5t198 79.5t118 210.5zM736 337q-40 -160 -151.5 -255.5t-254.5 -95.5q-145 0 -211.5 98.5t-26.5 260.5q40 161 151 256t255 95t211 -99t27 -260zM633 884h61
q-29 -139 -172 -139q-74 0 -105.5 37.5t-10.5 101.5h59q-8 -39 6.5 -58.5t57.5 -19.5q82 0 104 78z" />
    <glyph glyph-name="obreve" unicode="&#x14f;" horiz-adv-x="559" 
d="M434 239q22 84 -6 138.5t-101 54.5q-76 0 -129.5 -54t-74.5 -139q-20 -84 7 -138t100 -54q76 0 129.5 53.5t74.5 138.5zM508 235q-28 -111 -103 -179t-183 -68q-111 0 -155.5 72t-16.5 183q27 111 102 179.5t184 68.5q111 0 155.5 -72.5t16.5 -183.5zM471 688h55
q-10 -63 -52.5 -98.5t-111.5 -35.5q-64 0 -94.5 34t-11.5 100h55q-6 -39 6 -58t52 -19q78 0 102 77z" />
    <glyph glyph-name="Ohungarumlaut" unicode="&#x150;" horiz-adv-x="778" 
d="M657 341q33 131 -12 210.5t-159 79.5q-113 0 -198 -79.5t-118 -210.5t12.5 -210.5t158.5 -79.5t198 79.5t118 210.5zM736 337q-40 -160 -151.5 -255.5t-254.5 -95.5q-145 0 -211.5 98.5t-26.5 260.5q40 161 151 256t255 95t211 -99t27 -260zM366 749l109 132h105
l-142 -132h-72zM569 749l126 132h110l-160 -132h-76z" />
    <glyph glyph-name="ohungarumlaut" unicode="&#x151;" horiz-adv-x="559" 
d="M434 239q22 84 -6 138.5t-101 54.5q-76 0 -129.5 -54t-74.5 -139q-20 -84 7 -138t100 -54q76 0 129.5 53.5t74.5 138.5zM508 235q-28 -111 -103 -179t-183 -68q-111 0 -155.5 72t-16.5 183q27 111 102 179.5t184 68.5q111 0 155.5 -72.5t16.5 -183.5zM228 551l103 141h96
l-130 -141h-69zM402 551l120 141h102l-152 -141h-70z" />
    <glyph glyph-name="OE" unicode="&#x152;" horiz-adv-x="1128" 
d="M1002 0h-448l27 109h-1q-103 -123 -259 -123q-140 0 -204.5 99t-24.5 260q40 160 148 255.5t247 95.5q82 0 135.5 -35.5t72.5 -94.5h1l28 116h432l-16 -63h-355l-62 -240h310l-14 -60h-311l-63 -255h374zM639 341q33 132 -10 212t-152 80q-108 0 -191 -80t-116 -212
t10 -211.5t152 -79.5t191.5 79.5t115.5 211.5z" />
    <glyph glyph-name="oe" unicode="&#x153;" horiz-adv-x="912" 
d="M785 129l43 -40q-88 -101 -224 -101q-69 0 -110 31.5t-52 89.5q-85 -121 -220 -121q-111 0 -155.5 72t-16.5 183q27 111 102 179.5t184 68.5q140 0 163 -120q82 120 208 120q57 0 96.5 -22.5t54.5 -55.5t20.5 -71.5t-5.5 -70.5q-8 -32 -16 -46h-355q-18 -82 13.5 -130.5
t99.5 -48.5q99 0 170 83zM434 239q22 84 -6 138.5t-101 54.5q-76 0 -129.5 -54t-74.5 -139q-20 -84 7 -138t100 -54q76 0 129.5 53.5t74.5 138.5zM700 433q-60 0 -108.5 -40t-73.5 -112h281q17 62 -9.5 107t-89.5 45z" />
    <glyph glyph-name="Racute" unicode="&#x154;" horiz-adv-x="691" 
d="M591 0h-87l-152 281h-158l-69 -281h-75l170 682q18 0 108.5 0.5t135.5 0.5q130 0 183.5 -57t30.5 -152q-41 -165 -244 -189zM279 618l-68 -272q52 -2 164 -2q103 0 155.5 35t70.5 103q15 62 -15 99.5t-132 37.5q-120 0 -175 -1zM422 749l127 132h111l-161 -132h-77z" />
    <glyph glyph-name="racute" unicode="&#x155;" horiz-adv-x="343" 
d="M94 0h-70l60 240q51 208 56 238h68l-22 -97h1q41 57 91 83t96 26q9 0 15 -1l-19 -76h-17q-58 0 -109 -41q-45 -36 -67.5 -83.5t-39.5 -115.5zM231 551l120 141h102l-151 -141h-71z" />
    <glyph glyph-name="Rcommaaccent" unicode="&#x156;" horiz-adv-x="691" 
d="M591 0h-87l-152 281h-158l-69 -281h-75l170 682q18 0 108.5 0.5t135.5 0.5q130 0 183.5 -57t30.5 -152q-41 -165 -244 -189zM279 618l-68 -272q52 -2 164 -2q103 0 155.5 35t70.5 103q15 62 -15 99.5t-132 37.5q-120 0 -175 -1zM249 -54h77l-20 -78q-19 -78 -105 -78h-21
l10 37h17q35 0 43 39h-20z" />
    <glyph glyph-name="rcommaaccent" unicode="&#x157;" horiz-adv-x="343" 
d="M94 0h-70l60 240q51 208 56 238h68l-22 -97h1q41 57 91 83t96 26q9 0 15 -1l-19 -76h-17q-58 0 -109 -41q-45 -36 -67.5 -83.5t-39.5 -115.5zM8 -54h73l-20 -78q-21 -78 -103 -78h-20l9 37h20q32 0 43 41h-22z" />
    <glyph glyph-name="Rcaron" unicode="&#x158;" horiz-adv-x="691" 
d="M591 0h-87l-152 281h-158l-69 -281h-75l170 682q18 0 108.5 0.5t135.5 0.5q130 0 183.5 -57t30.5 -152q-41 -165 -244 -189zM279 618l-68 -272q52 -2 164 -2q103 0 155.5 35t70.5 103q15 62 -15 99.5t-132 37.5q-120 0 -175 -1zM663 882l-151 -132h-75l-84 132h69l63 -75
l98 75h80z" />
    <glyph glyph-name="rcaron" unicode="&#x159;" horiz-adv-x="343" 
d="M94 0h-70l60 240q51 208 56 238h68l-22 -97h1q41 57 91 83t96 26q9 0 15 -1l-19 -76h-17q-58 0 -109 -41q-45 -36 -67.5 -83.5t-39.5 -115.5zM457 692l-136 -141h-85l-65 141h65l52 -91l98 91h71z" />
    <glyph glyph-name="Sacute" unicode="&#x15a;" horiz-adv-x="655" 
d="M31 117l55 49q78 -117 223 -117q69 0 119 30t62 83q10 42 -6 71.5t-49.5 45.5t-75.5 32t-83 30t-72.5 41t-44.5 64t2 99q18 69 85 110t157 41q80 0 142.5 -26.5t97.5 -73.5l-53 -51q-65 88 -194 88q-136 0 -160 -99q-10 -41 6.5 -69.5t50 -43.5t75 -31t82.5 -30t72.5 -41
t44 -65t-2.5 -101q-19 -77 -92.5 -122t-169.5 -45q-176 0 -271 131zM393 749l127 132h111l-161 -132h-77z" />
    <glyph glyph-name="sacute" unicode="&#x15b;" horiz-adv-x="487" 
d="M8 74l47 47q54 -76 151 -76q105 0 122 68q9 36 -15.5 59t-64 37.5t-78.5 31.5t-60.5 52t-9.5 88q13 53 62.5 81.5t121.5 28.5q52 0 99 -18t74 -50l-46 -48q-48 58 -133 58q-94 0 -108 -59q-7 -30 9 -51t46 -32t64 -26t62.5 -31t42.5 -49t3 -79q-13 -57 -66.5 -87.5
t-130.5 -30.5q-62 0 -113.5 23.5t-78.5 62.5zM267 551l120 141h102l-151 -141h-71z" />
    <glyph glyph-name="Scircumflex" unicode="&#x15c;" horiz-adv-x="655" 
d="M31 117l55 49q78 -117 223 -117q69 0 119 30t62 83q10 42 -6 71.5t-49.5 45.5t-75.5 32t-83 30t-72.5 41t-44.5 64t2 99q18 69 85 110t157 41q80 0 142.5 -26.5t97.5 -73.5l-53 -51q-65 88 -194 88q-136 0 -160 -99q-10 -41 6.5 -69.5t50 -43.5t75 -31t82.5 -30t72.5 -41
t44 -65t-2.5 -101q-19 -77 -92.5 -122t-169.5 -45q-176 0 -271 131zM288 750l151 132h72l87 -132h-72l-61 75l-98 -75h-79z" />
    <glyph glyph-name="scircumflex" unicode="&#x15d;" horiz-adv-x="487" 
d="M8 74l47 47q54 -76 151 -76q105 0 122 68q9 36 -15.5 59t-64 37.5t-78.5 31.5t-60.5 52t-9.5 88q13 53 62.5 81.5t121.5 28.5q52 0 99 -18t74 -50l-46 -48q-48 58 -133 58q-94 0 -108 -59q-7 -30 9 -51t46 -32t64 -26t62.5 -31t42.5 -49t3 -79q-13 -57 -66.5 -87.5
t-130.5 -30.5q-62 0 -113.5 23.5t-78.5 62.5zM171 551l134 141h87l64 -141h-65l-52 90l-98 -90h-70z" />
    <glyph glyph-name="Scedilla" unicode="&#x15e;" horiz-adv-x="655" 
d="M229 -207h-82q76 54 76 88q0 22 -38 43l55 67q-131 18 -209 126l55 49q78 -117 223 -117q69 0 119 30t62 83q10 42 -6 71.5t-49.5 45.5t-75.5 32t-83 30t-72.5 41t-44.5 64t2 99q18 69 85 110t157 41q80 0 142.5 -26.5t97.5 -73.5l-53 -51q-65 88 -194 88
q-136 0 -160 -99q-10 -41 6.5 -69.5t50 -43.5t75 -31t82.5 -30t72.5 -41t44 -65t-2.5 -101q-19 -76 -91 -120.5t-167 -46.5l-34 -42q27 -24 27 -56q0 -45 -70 -95z" />
    <glyph glyph-name="scedilla" unicode="&#x15f;" horiz-adv-x="487" 
d="M141 -207h-79q77 54 77 88q0 22 -39 43l56 67q-102 14 -148 83l47 47q54 -76 151 -76q105 0 122 68q9 36 -15.5 59t-64 37.5t-78.5 31.5t-60.5 52t-9.5 88q13 53 62.5 81.5t121.5 28.5q52 0 99 -18t74 -50l-46 -48q-48 58 -133 58q-94 0 -108 -59q-7 -30 9 -51t46 -32
t64 -26t62.5 -31t42.5 -49t3 -79q-12 -54 -59.5 -83.5t-117.5 -33.5l-37 -45q28 -24 28 -56q0 -45 -70 -95z" />
    <glyph glyph-name="Scaron" unicode="&#x160;" horiz-adv-x="655" 
d="M31 117l55 49q78 -117 223 -117q69 0 119 30t62 83q10 42 -6 71.5t-49.5 45.5t-75.5 32t-83 30t-72.5 41t-44.5 64t2 99q18 69 85 110t157 41q80 0 142.5 -26.5t97.5 -73.5l-53 -51q-65 88 -194 88q-136 0 -160 -99q-10 -41 6.5 -69.5t50 -43.5t75 -31t82.5 -30t72.5 -41
t44 -65t-2.5 -101q-19 -77 -92.5 -122t-169.5 -45q-176 0 -271 131zM631 882l-151 -132h-75l-84 132h69l63 -75l98 75h80z" />
    <glyph glyph-name="scaron" unicode="&#x161;" horiz-adv-x="487" 
d="M8 74l47 47q54 -76 151 -76q105 0 122 68q9 36 -15.5 59t-64 37.5t-78.5 31.5t-60.5 52t-9.5 88q13 53 62.5 81.5t121.5 28.5q52 0 99 -18t74 -50l-46 -48q-48 58 -133 58q-94 0 -108 -59q-7 -30 9 -51t46 -32t64 -26t62.5 -31t42.5 -49t3 -79q-13 -57 -66.5 -87.5
t-130.5 -30.5q-62 0 -113.5 23.5t-78.5 62.5zM489 692l-136 -141h-85l-65 141h65l52 -91l98 91h71z" />
    <glyph glyph-name="Tcommaaccent" unicode="&#x162;" horiz-adv-x="533" 
d="M169 0l154 619h-237l16 63h548l-16 -63h-236l-154 -619h-75zM149 -54h77l-20 -78q-19 -78 -105 -78h-21l10 37h17q35 0 43 39h-20z" />
    <glyph glyph-name="tcommaaccent" unicode="&#x163;" horiz-adv-x="346" 
d="M123 299l31 122h-100l15 57h98l43 167l77 20l-50 -187h144l-14 -57h-143l-59 -233q-18 -71 -20 -93.5t10 -35.5q12 -12 37 -12q43 0 85 18l-14 -60q-42 -17 -88 -17q-66 0 -89.5 35.5t-4.5 113.5q5 18 13 49.5t15 58.5zM104 -54h73l-20 -78q-21 -78 -103 -78h-20l9 37h20
q32 0 43 41h-22z" />
    <glyph glyph-name="Tcaron" unicode="&#x164;" horiz-adv-x="533" 
d="M169 0l154 619h-237l16 63h548l-16 -63h-236l-154 -619h-75zM577 882l-151 -132h-75l-84 132h69l63 -75l98 75h80z" />
    <glyph glyph-name="tcaron" unicode="&#x165;" horiz-adv-x="346" 
d="M123 299l31 122h-100l15 57h98l43 167l77 20l-50 -187h144l-14 -57h-143l-59 -233q-18 -71 -20 -93.5t10 -35.5q12 -12 37 -12q43 0 85 18l-14 -60q-42 -17 -88 -17q-66 0 -89.5 35.5t-4.5 113.5q5 18 13 49.5t15 58.5zM322 569l80 187h78l-98 -187h-60z" />
    <glyph glyph-name="Tbar" unicode="&#x166;" horiz-adv-x="533" 
d="M244 0h-75l79 317h-190l15 60h190l60 241h-237l16 64h548l-16 -64h-236l-60 -241h190l-16 -60h-189z" />
    <glyph glyph-name="tbar" unicode="&#x167;" horiz-adv-x="346" 
d="M116 271l38 150h-100l15 57h98l43 167l77 20l-50 -187h144l-15 -57h-142l-38 -150h117l-14 -55h-117q-23 -91 -26 -118t9 -39t37 -12q43 0 85 18l-14 -60q-42 -17 -88 -17q-66 0 -89.5 35.5t-3.5 113.5l19 79h-89l14 55h90z" />
    <glyph glyph-name="Utilde" unicode="&#x168;" horiz-adv-x="730" 
d="M288 682l-106 -425q-25 -99 8 -153t127 -54t155.5 54t86.5 153l106 425h70l-105 -432q-30 -125 -113.5 -194.5t-210.5 -69.5q-71 0 -119.5 23t-68 61.5t-24 87t11.5 99.5l107 425h75zM384 755h-61q33 123 128 123q30 0 53.5 -17t40.5 -34t32 -17q36 0 55 63h60
q-31 -123 -127 -123q-24 0 -44.5 10.5t-31.5 23.5t-24.5 23.5t-25.5 10.5q-19 0 -31.5 -14t-23.5 -49z" />
    <glyph glyph-name="utilde" unicode="&#x169;" horiz-adv-x="554" 
d="M413 0h-69l17 72h-1q-69 -84 -166 -84q-84 0 -119.5 51.5t-11.5 147.5l75 291h69l-68 -273q-19 -69 -10 -104q14 -55 81 -55q56 0 100 35q64 51 93 173l57 224h70l-60 -240q-27 -106 -57 -238zM257 563h-56q27 118 121 118q28 0 48 -16.5t34 -33t27 -16.5q19 0 30.5 13.5
t24.5 48.5h56q-27 -118 -120 -118q-22 0 -40 10.5t-27 22.5t-20.5 22.5t-21.5 10.5q-19 0 -31 -13.5t-25 -48.5z" />
    <glyph glyph-name="Umacron" unicode="&#x16a;" horiz-adv-x="730" 
d="M288 682l-106 -425q-25 -99 8 -153t127 -54t155.5 54t86.5 153l106 425h70l-105 -432q-30 -125 -113.5 -194.5t-210.5 -69.5q-71 0 -119.5 23t-68 61.5t-24 87t11.5 99.5l107 425h75zM664 843l-16 -62h-297l16 62h297z" />
    <glyph glyph-name="umacron" unicode="&#x16b;" horiz-adv-x="554" 
d="M413 0h-69l17 72h-1q-69 -84 -166 -84q-84 0 -119.5 51.5t-11.5 147.5l75 291h69l-68 -273q-19 -69 -10 -104q14 -55 81 -55q56 0 100 35q64 51 93 173l57 224h70l-60 -240q-27 -106 -57 -238zM513 647l-15 -58h-269l15 58h269z" />
    <glyph glyph-name="Ubreve" unicode="&#x16c;" horiz-adv-x="730" 
d="M288 682l-106 -425q-25 -99 8 -153t127 -54t155.5 54t86.5 153l106 425h70l-105 -432q-30 -125 -113.5 -194.5t-210.5 -69.5q-71 0 -119.5 23t-68 61.5t-24 87t11.5 99.5l107 425h75zM609 884h61q-29 -139 -172 -139q-74 0 -105.5 37.5t-10.5 101.5h59q-8 -39 6.5 -58.5
t57.5 -19.5q82 0 104 78z" />
    <glyph glyph-name="ubreve" unicode="&#x16d;" horiz-adv-x="554" 
d="M413 0h-69l17 72h-1q-69 -84 -166 -84q-84 0 -119.5 51.5t-11.5 147.5l75 291h69l-68 -273q-19 -69 -10 -104q14 -55 81 -55q56 0 100 35q64 51 93 173l57 224h70l-60 -240q-27 -106 -57 -238zM469 688h55q-10 -63 -52.5 -98.5t-111.5 -35.5q-64 0 -94.5 34t-11.5 100h55
q-6 -39 6 -58t52 -19q78 0 102 77z" />
    <glyph glyph-name="Uring" unicode="&#x16e;" horiz-adv-x="730" 
d="M288 682l-106 -425q-25 -99 8 -153t127 -54t155.5 54t86.5 153l106 425h70l-105 -432q-30 -125 -113.5 -194.5t-210.5 -69.5q-71 0 -119.5 23t-68 61.5t-24 87t11.5 99.5l107 425h75zM614 827q-9 -37 -41.5 -62t-79.5 -25q-49 0 -70.5 29t-9.5 73q9 37 41 61.5t79 24.5
q49 0 70.5 -28.5t10.5 -72.5zM559 834q5 20 -3.5 34t-30.5 14q-21 0 -36 -13.5t-21 -34.5q-5 -21 3.5 -34t30.5 -13t37 13.5t20 33.5z" />
    <glyph glyph-name="uring" unicode="&#x16f;" horiz-adv-x="554" 
d="M413 0h-69l17 72h-1q-69 -84 -166 -84q-84 0 -119.5 51.5t-11.5 147.5l75 291h69l-68 -273q-19 -69 -10 -104q14 -55 81 -55q56 0 100 35q64 51 93 173l57 224h70l-60 -240q-27 -106 -57 -238zM479 638q-10 -40 -42 -65t-79 -25q-49 0 -71 28t-12 70q11 40 42.5 65
t78.5 25q49 0 71.5 -28t11.5 -70zM422 641q6 21 -2 34.5t-30 13.5t-38 -13.5t-21 -34.5q-4 -20 4.5 -33.5t29.5 -13.5q22 0 37 13.5t20 33.5z" />
    <glyph glyph-name="Uhungarumlaut" unicode="&#x170;" horiz-adv-x="730" 
d="M288 682l-106 -425q-25 -99 8 -153t127 -54t155.5 54t86.5 153l106 425h70l-105 -432q-30 -125 -113.5 -194.5t-210.5 -69.5q-71 0 -119.5 23t-68 61.5t-24 87t11.5 99.5l107 425h75zM340 749l109 132h105l-142 -132h-72zM543 749l126 132h110l-160 -132h-76z" />
    <glyph glyph-name="uhungarumlaut" unicode="&#x171;" horiz-adv-x="554" 
d="M413 0h-69l17 72h-1q-69 -84 -166 -84q-84 0 -119.5 51.5t-11.5 147.5l75 291h69l-68 -273q-19 -69 -10 -104q14 -55 81 -55q56 0 100 35q64 51 93 173l57 224h70l-60 -240q-27 -106 -57 -238zM218 551l103 141h96l-130 -141h-69zM392 551l120 141h102l-152 -141h-70z
" />
    <glyph glyph-name="Uogonek" unicode="&#x172;" horiz-adv-x="730" 
d="M416 -158l-13 -47q-18 -9 -54 -9q-94 0 -94 58q0 61 103 147q-22 -5 -52 -5q-71 0 -119.5 23t-68 61.5t-24 87t11.5 99.5l107 425h75l-106 -425q-25 -99 8 -153t127 -54t155.5 54t86.5 153l106 425h70l-105 -432q-29 -128 -118 -197q-12 -10 -36.5 -27.5t-32.5 -23.5
q-52 -43 -82 -83t-30 -61q0 -16 34 -16h51z" />
    <glyph glyph-name="uogonek" unicode="&#x173;" horiz-adv-x="554" 
d="M349 6l13 66h-1q-69 -84 -167 -84q-84 0 -119.5 51.5t-11.5 147.5l75 291h69l-68 -273q-18 -73 -10 -104q14 -55 81 -55q56 0 100 35q64 51 93 173l57 224h70l-60 -240q-8 -30 -57 -237q-115 -99 -115 -143q0 -19 32 -19h51l-13 -45q-16 -8 -53 -8q-88 0 -88 58
q0 33 27 70t95 92z" />
    <glyph glyph-name="Wcircumflex" unicode="&#x174;" horiz-adv-x="1032" 
d="M723 0h-85l-37 448q-3 54 -3 122h-1q-14 -28 -67 -122l-256 -448h-86l-43 682h81l14 -317q9 -176 13 -281h1q56 105 157 282l179 316h67l24 -317q6 -70 20 -281h1q18 35 45 85.5t58.5 109.5t45.5 85l173 318h83zM480 750l151 132h72l87 -132h-72l-61 75l-98 -75h-79z" />
    <glyph glyph-name="wcircumflex" unicode="&#x175;" horiz-adv-x="818" 
d="M551 0h-63l-38 290q-4 31 -10 93h-2q-24 -48 -53 -93l-175 -290h-66l-61 478h75l25 -240q12 -104 14 -151h1q36 67 89 153l145 238h61l28 -229q14 -105 19 -162h1q37 67 92 160l137 231h82zM335 551l134 141h87l64 -141h-65l-52 90l-98 -90h-70z" />
    <glyph glyph-name="Ycircumflex" unicode="&#x176;" horiz-adv-x="604" 
d="M279 0h-75l73 292l-167 390h86l134 -320l292 320h92l-362 -390zM267 750l151 132h72l87 -132h-72l-61 75l-98 -75h-79z" />
    <glyph glyph-name="ycircumflex" unicode="&#x177;" horiz-adv-x="487" 
d="M79 -207h-80l150 208l-76 477h77l30 -202q16 -111 21 -197h1q51 90 120 197l131 202h80zM170 551l134 141h87l64 -141h-65l-52 90l-98 -90h-70z" />
    <glyph glyph-name="Ydieresis" unicode="&#x178;" horiz-adv-x="604" 
d="M279 0h-75l73 292l-167 390h86l134 -320l292 320h92l-362 -390zM355 761h-75l28 112h76zM578 761h-75l28 112h76z" />
    <glyph glyph-name="Zacute" unicode="&#x179;" horiz-adv-x="628" 
d="M539 66l-17 -66h-537l16 65l562 553q-30 0 -111 -0.5t-124 -0.5h-174l16 65h507l-16 -64l-561 -553q40 0 130 0.5t135 0.5h174zM377 749l127 132h111l-161 -132h-77z" />
    <glyph glyph-name="zacute" unicode="&#x17a;" horiz-adv-x="489" 
d="M397 59l-15 -59h-395l14 59l384 363q-57 -1 -182 -1h-101l15 57h370l-15 -57l-384 -363q60 1 200 1h109zM270 551l120 141h102l-151 -141h-71z" />
    <glyph glyph-name="Zdotaccent" unicode="&#x17b;" horiz-adv-x="628" 
d="M539 66l-17 -66h-537l16 65l562 553q-30 0 -111 -0.5t-124 -0.5h-174l16 65h507l-16 -64l-561 -553q40 0 130 0.5t135 0.5h174zM485 761h-77l28 112h77z" />
    <glyph glyph-name="zdotaccent" unicode="&#x17c;" horiz-adv-x="489" 
d="M397 59l-15 -59h-395l14 59l384 363q-57 -1 -182 -1h-101l15 57h370l-15 -57l-384 -363q60 1 200 1h109zM354 567h-72l28 113h72z" />
    <glyph glyph-name="Zcaron" unicode="&#x17d;" horiz-adv-x="628" 
d="M539 66l-17 -66h-537l16 65l562 553q-30 0 -111 -0.5t-124 -0.5h-174l16 65h507l-16 -64l-561 -553q40 0 130 0.5t135 0.5h174zM630 882l-151 -132h-75l-84 132h69l63 -75l98 75h80z" />
    <glyph glyph-name="zcaron" unicode="&#x17e;" horiz-adv-x="489" 
d="M397 59l-15 -59h-395l14 59l384 363q-57 -1 -182 -1h-101l15 57h370l-15 -57l-384 -363q60 1 200 1h109zM500 692l-136 -141h-85l-65 141h65l52 -91l98 91h71z" />
    <glyph glyph-name="longs" unicode="&#x17f;" horiz-adv-x="257" 
d="M94 0h-69l142 577q33 139 161 139q45 0 84 -15l-19 -60q-34 16 -72 16q-34 0 -53.5 -19.5t-29.5 -60.5z" />
    <glyph glyph-name="uni018F" unicode="&#x18f;" horiz-adv-x="728" 
d="M194 512l-42 42q123 142 305 142q138 0 202.5 -101.5t24.5 -262.5q-39 -156 -143 -251t-239 -95q-147 0 -203 100t-14 265q1 10 7 25h523q21 117 -25 186t-144 69q-76 0 -136.5 -27.5t-115.5 -91.5zM312 51q97 0 173.5 70.5t114.5 192.5h-445q-25 -120 12 -191.5
t145 -71.5z" />
    <glyph glyph-name="florin" unicode="&#x192;" horiz-adv-x="524" 
d="M477 380l-15 -58h-171l-82 -217q-45 -115 -69 -152q-61 -79 -161 -81q-45 0 -85 18l23 61q38 -18 74 -18q48 0 78.5 40t68.5 139l79 210h-142l15 58h149l40 108q45 117 71 154q56 79 159 79q48 0 87 -18l-24 -61q-38 18 -75 18q-48 0 -78 -39.5t-68 -139.5l-38 -101h164z
" />
    <glyph glyph-name="Gcaron" unicode="&#x1e6;" horiz-adv-x="755" 
d="M597 0h-70l28 111h-1q-42 -57 -106 -91t-138 -34q-134 0 -196.5 98t-21.5 261q39 159 149 255t247 96q96 0 157 -44.5t77 -119.5l-69 -30q-34 131 -181 131q-104 0 -187 -82t-115 -210q-33 -135 11 -213.5t149 -78.5q91 0 163.5 67.5t97.5 166.5l5 20h-200l17 61h275z
M696 882l-151 -132h-75l-84 132h69l63 -75l98 75h80z" />
    <glyph glyph-name="gcaron" unicode="&#x1e7;" horiz-adv-x="571" 
d="M484 478h69q0 -1 -4 -12.5t-10 -32t-14 -46.5t-18.5 -65t-20.5 -81q-9 -35 -30.5 -126.5t-31.5 -133.5q-25 -98 -83.5 -148t-166.5 -50q-146 0 -192 117l60 39q35 -98 140 -98q136 0 170 138q2 6 11 40t14 53h-1q-71 -83 -172 -83q-100 0 -141 71.5t-13 181.5
q29 117 102.5 183t169.5 66q51 0 87 -22t52 -60h1zM415 230l4 18q20 82 -5.5 133t-93.5 51q-69 0 -122 -53t-74 -140q-21 -84 3.5 -138t94.5 -54q64 0 118 49.5t75 133.5zM532 692l-136 -141h-85l-65 141h65l52 -91l98 91h71z" />
    <glyph glyph-name="Aringacute" unicode="&#x1fa;" horiz-adv-x="643" 
d="M546 740q-15 -59 -72 -80l91 -660h-81l-24 190h-300l-117 -190h-86l422 662q-49 23 -34 86q9 39 40.5 63t79.5 24q49 0 70.5 -27t10.5 -68zM289 400l-93 -151h257l-17 146q-18 147 -21 215h-1q-50 -91 -125 -210zM435 875l108 105h111l-143 -105h-76zM489 743q6 21 -2 34
t-30 13q-42 0 -55 -46q-5 -20 3.5 -33t29.5 -13t35.5 13t18.5 32z" />
    <glyph glyph-name="aringacute" unicode="&#x1fb;" horiz-adv-x="516" 
d="M460 322l-22 -86q-32 -124 -57 -236h-69l19 71h-1q-69 -83 -176 -83q-74 0 -110.5 41t-20.5 105q19 76 100 114t257 38l9 37q28 110 -85 110q-83 0 -170 -87l-39 45q102 100 221 100q90 0 127 -47t17 -122zM358 197l8 35q-140 0 -198 -24t-71 -77q-11 -40 9 -63t71 -23
q64 0 115.5 47.5t65.5 104.5zM460 624q-9 -39 -40.5 -64t-78.5 -25q-49 0 -70.5 28t-11.5 69q9 39 40.5 64t79.5 25t70 -27.5t11 -69.5zM405 628q5 20 -3.5 33.5t-30.5 13.5q-44 0 -57 -47q-5 -21 3.5 -34t30.5 -13q44 0 57 47zM359 767l113 117h103l-145 -117h-71z" />
    <glyph glyph-name="AEacute" unicode="&#x1fc;" horiz-adv-x="969" 
d="M441 682h556l-16 -63h-356l-59 -240h308l-15 -60h-309l-63 -254h373l-16 -65h-448l47 188h-290l-141 -188h-89zM475 619l-278 -371h261l92 371h-75zM679 749l127 132h111l-161 -132h-77z" />
    <glyph glyph-name="aeacute" unicode="&#x1fd;" horiz-adv-x="844" 
d="M717 129l43 -40q-87 -101 -224 -101q-136 0 -166 114q-85 -114 -216 -114q-74 0 -110.5 41t-20.5 105q19 76 100 114t257 38l9 37q27 110 -85 110q-83 0 -170 -87l-39 45q102 100 221 100q123 0 138 -84q70 84 185 84q57 0 96.5 -22.5t54.5 -55.5t20.5 -71.5t-5.5 -70.5
q-9 -36 -15 -46h-355q-19 -82 13 -130.5t100 -48.5q98 0 169 83zM358 197l8 35q-140 0 -198 -24t-71 -77q-11 -40 9 -63t71 -23q65 0 115.5 46t65.5 106zM633 433q-60 0 -108 -39.5t-74 -112.5h281q16 62 -9.5 107t-89.5 45zM466 551l120 141h102l-151 -141h-71z" />
    <glyph glyph-name="Oslashacute" unicode="&#x1fe;" horiz-adv-x="778" 
d="M47 -16l-39 43l96 81q-47 98 -12 237q40 160 151 255.5t255 95.5q126 0 194 -77l88 78l39 -42l-95 -82q47 -92 12 -236q-40 -160 -151.5 -255.5t-254.5 -95.5q-129 0 -193 76zM660 518l-465 -405q47 -62 146 -62q114 0 199 79t118 211q26 101 2 177zM168 164l465 405
q-47 63 -146 63q-114 0 -199 -79t-118 -212q-27 -104 -2 -177zM464 749l127 132h111l-161 -132h-77z" />
    <glyph glyph-name="oslashacute" unicode="&#x1ff;" horiz-adv-x="559" 
d="M5 -34l-35 40l86 73q-32 68 -6 164q27 111 102 179.5t184 68.5q90 0 136 -49l80 70l35 -40l-85 -72q31 -68 6 -165q-27 -111 -102.5 -179t-183.5 -68q-90 0 -137 49zM115 132l304 263q-31 37 -92 37q-76 0 -129 -53.5t-76 -139.5q-14 -55 -7 -107zM442 347l-303 -264
q31 -37 92 -37q76 0 129.5 54t74.5 139q16 57 7 108zM311 551l120 141h102l-151 -141h-71z" />
    <glyph glyph-name="Scommaaccent" unicode="&#x218;" horiz-adv-x="655" 
d="M31 117l55 49q78 -117 223 -117q69 0 119 30t62 83q10 42 -6 71.5t-49.5 45.5t-75.5 32t-83 30t-72.5 41t-44.5 64t2 99q18 69 85 110t157 41q80 0 142.5 -26.5t97.5 -73.5l-53 -51q-65 88 -194 88q-136 0 -160 -99q-10 -41 6.5 -69.5t50 -43.5t75 -31t82.5 -30t72.5 -41
t44 -65t-2.5 -101q-19 -77 -92.5 -122t-169.5 -45q-176 0 -271 131zM229 -54h77l-20 -78q-19 -78 -105 -78h-21l10 37h17q35 0 43 39h-20z" />
    <glyph glyph-name="scommaaccent" unicode="&#x219;" horiz-adv-x="487" 
d="M8 74l47 47q54 -76 151 -76q105 0 122 68q9 36 -15.5 59t-64 37.5t-78.5 31.5t-60.5 52t-9.5 88q13 53 62.5 81.5t121.5 28.5q52 0 99 -18t74 -50l-46 -48q-48 58 -133 58q-94 0 -108 -59q-7 -30 9 -51t46 -32t64 -26t62.5 -31t42.5 -49t3 -79q-13 -57 -66.5 -87.5
t-130.5 -30.5q-62 0 -113.5 23.5t-78.5 62.5zM144 -54h73l-20 -78q-21 -78 -103 -78h-20l9 37h20q32 0 43 41h-22z" />
    <glyph glyph-name="uni021A" unicode="&#x21a;" horiz-adv-x="533" 
d="M169 0l154 619h-237l16 63h548l-16 -63h-236l-154 -619h-75zM149 -54h77l-20 -78q-19 -78 -105 -78h-21l10 37h17q35 0 43 39h-20z" />
    <glyph glyph-name="uni021B" unicode="&#x21b;" horiz-adv-x="346" 
d="M123 299l31 122h-100l15 57h98l43 167l77 20l-50 -187h144l-14 -57h-143l-59 -233q-18 -71 -20 -93.5t10 -35.5q12 -12 37 -12q43 0 85 18l-14 -60q-42 -17 -88 -17q-66 0 -89.5 35.5t-4.5 113.5q5 18 13 49.5t15 58.5zM104 -54h73l-20 -78q-21 -78 -103 -78h-20l9 37h20
q32 0 43 41h-22z" />
    <glyph glyph-name="dotlessj" unicode="&#x237;" horiz-adv-x="248" 
d="M154 478h70l-130 -515q-25 -102 -61.5 -140t-105.5 -38q-33 0 -50 5l12 53h45q35 0 55 29t37 96z" />
    <glyph glyph-name="uni0259" unicode="&#x259;" horiz-adv-x="529" 
d="M121 349l-36 46q90 96 220 96q108 0 154.5 -73t18.5 -186q-27 -112 -99.5 -178t-173.5 -66q-46 0 -81 14.5t-53 38t-29 52.5t-9.5 58.5t6.5 55.5q9 34 15 46h355q18 82 -14.5 130.5t-100.5 48.5q-102 0 -173 -83zM211 45q60 0 108.5 40.5t74.5 113.5h-282
q-16 -63 10 -108.5t89 -45.5z" />
    <glyph glyph-name="quoteleft" unicode="&#x2bb;" horiz-adv-x="256" 
d="M235 475h-99l28 112q25 94 51 132t95 76l22 -41q-47 -25 -68.5 -54.5t-34.5 -88.5h40z" />
    <glyph glyph-name="quoteleft" unicode="&#x2018;" horiz-adv-x="256" 
d="M235 475h-99l28 112q25 94 51 132t95 76l22 -41q-47 -25 -68.5 -54.5t-34.5 -88.5h40z" />
    <glyph glyph-name="quoteright" unicode="&#x2bc;" horiz-adv-x="256" 
d="M214 780h99l-29 -111q-24 -94 -50.5 -134.5t-95.5 -77.5l-23 40q49 27 69.5 57t34.5 90h-39z" />
    <glyph glyph-name="quoteright" unicode="&#x2019;" horiz-adv-x="256" 
d="M214 780h99l-29 -111q-24 -94 -50.5 -134.5t-95.5 -77.5l-23 40q49 27 69.5 57t34.5 90h-39z" />
    <glyph glyph-name="circumflex" unicode="&#x2c6;" horiz-adv-x="431" 
d="M151 551l134 141h87l64 -141h-65l-52 90l-98 -90h-70z" />
    <glyph glyph-name="caron" unicode="&#x2c7;" horiz-adv-x="431" 
d="M471 692l-136 -141h-85l-65 141h65l52 -91l98 91h71z" />
    <glyph glyph-name="breve" unicode="&#x2d8;" horiz-adv-x="433" 
d="M408 688h55q-10 -63 -52.5 -98.5t-111.5 -35.5q-64 0 -94.5 34t-11.5 100h55q-6 -39 6 -58t52 -19q78 0 102 77z" />
    <glyph glyph-name="dotaccent" unicode="&#x2d9;" horiz-adv-x="234" 
d="M234 567h-72l28 113h72z" />
    <glyph glyph-name="ring" unicode="&#x2da;" horiz-adv-x="391" 
d="M397 638q-10 -40 -42 -65t-79 -25q-49 0 -71 28t-12 70q11 40 42.5 65t78.5 25q49 0 71.5 -28t11.5 -70zM340 641q6 21 -2 34.5t-30 13.5t-38 -13.5t-21 -34.5q-4 -20 4.5 -33.5t29.5 -13.5q22 0 37 13.5t20 33.5z" />
    <glyph glyph-name="ogonek" unicode="&#x2db;" horiz-adv-x="320" 
d="M86 0h71q-102 -110 -102 -142q0 -19 32 -19h51l-12 -45q-18 -8 -54 -8q-88 0 -88 58q0 29 21 62t81 94z" />
    <glyph glyph-name="tilde" unicode="&#x2dc;" horiz-adv-x="474" 
d="M217 563h-56q27 118 121 118q28 0 48 -16.5t34 -33t27 -16.5q19 0 30.5 13.5t24.5 48.5h56q-27 -118 -120 -118q-22 0 -40 10.5t-27 22.5t-20.5 22.5t-21.5 10.5q-19 0 -31 -13.5t-25 -48.5z" />
    <glyph glyph-name="hungarumlaut" unicode="&#x2dd;" horiz-adv-x="511" 
d="M152 551l103 141h96l-130 -141h-69zM326 551l120 141h102l-152 -141h-70z" />
    <glyph glyph-name="uni0312" unicode="&#x312;" horiz-adv-x="252" 
d="M234 567h-72l21 84q21 78 103 78h20l-9 -37h-20q-33 0 -43 -41h20z" />
    <glyph glyph-name="uni0315" unicode="&#x315;" horiz-adv-x="270" 
d="M162 569l80 187h78l-98 -187h-60z" />
    <glyph glyph-name="uni0326" unicode="&#x326;" horiz-adv-x="265" 
d="M38 -54h73l-20 -78q-21 -78 -103 -78h-20l9 37h20q32 0 43 41h-22z" />
    <glyph glyph-name="uni037E" unicode="&#x37e;" horiz-adv-x="294" 
d="M72 133h96l-28 -113q-28 -110 -54.5 -150t-96.5 -78l-23 41q52 29 72.5 60t37.5 107h-37zM221 345h-96l34 133h95z" />
    <glyph glyph-name="tonos" unicode="&#x384;" horiz-adv-x="256" 
d="M158 551l50 141h79l-70 -141h-59z" />
    <glyph glyph-name="dieresistonos" unicode="&#x385;" horiz-adv-x="461" 
d="M231 567h-69l28 113h69zM463 567h-69l28 113h69zM272 567l50 144h77l-70 -144h-57z" />
    <glyph glyph-name="Alphatonos" unicode="&#x386;" horiz-adv-x="643" 
d="M392 682h79l94 -682h-81l-24 190h-300l-117 -190h-86zM289 400l-93 -151h257l-17 146q-18 147 -21 215h-1q-50 -91 -125 -210zM138 538l78 189h79l-98 -189h-59z" />
    <glyph glyph-name="anoteleia" unicode="&#x387;" horiz-adv-x="255" 
d="M205 361h-96l29 118h96z" />
    <glyph glyph-name="Epsilontonos" unicode="&#x388;" horiz-adv-x="658" 
d="M63 0l170 682h453l-16 -63h-377l-61 -240h331l-14 -60h-332l-63 -255h395l-17 -64h-469zM33 538l78 189h79l-98 -189h-59z" />
    <glyph glyph-name="Etatonos" unicode="&#x389;" horiz-adv-x="766" 
d="M63 0l170 682h75l-74 -296h384l74 296h75l-170 -682h-75l80 321h-384l-80 -321h-75zM33 538l78 189h79l-98 -189h-59z" />
    <glyph glyph-name="Iotatonos" unicode="&#x38a;" horiz-adv-x="307" 
d="M63 0l170 682h75l-170 -682h-75zM33 538l78 189h79l-98 -189h-59z" />
    <glyph glyph-name="Omicrontonos" unicode="&#x38c;" horiz-adv-x="786" 
d="M665 341q33 131 -12 210.5t-159 79.5q-113 0 -198 -79.5t-118 -210.5t12.5 -210.5t158.5 -79.5t198 79.5t118 210.5zM744 337q-40 -160 -151.5 -255.5t-254.5 -95.5q-145 0 -211.5 98.5t-26.5 260.5q40 161 151 256t255 95t211 -99t27 -260zM46 538l78 189h79l-98 -189
h-59z" />
    <glyph glyph-name="Upsilontonos" unicode="&#x38e;" horiz-adv-x="699" 
d="M374 0h-75l73 292l-167 390h86l134 -320l292 320h92l-362 -390zM34 538l78 189h79l-98 -189h-59z" />
    <glyph glyph-name="Omegatonos" unicode="&#x38f;" horiz-adv-x="788" 
d="M660 0h-255l21 87q105 57 161.5 122.5t81.5 162.5q28 117 -18 189t-156 72q-111 0 -192 -70.5t-110 -190.5q-24 -98 -1 -163.5t99 -121.5l-21 -87h-255l15 64h72q80 0 120 -1v1q-160 107 -105 323q33 135 141.5 222t249.5 87q142 0 208 -92.5t31 -231.5
q-48 -198 -261 -308v-1q34 1 119 1h71zM47 538l78 189h79l-98 -189h-59z" />
    <glyph glyph-name="iotadieresistonos" unicode="&#x390;" horiz-adv-x="248" 
d="M197 61l-15 -61q-34 -12 -66 -12q-53 0 -69 33t2 101l89 356h70l-89 -355q-11 -41 -6 -58.5t30 -17.5q29 0 54 14zM126 567h-69l28 113h69zM358 567h-69l28 113h69zM167 567l50 144h77l-70 -144h-57z" />
    <glyph glyph-name="Alpha" unicode="&#x391;" horiz-adv-x="643" 
d="M392 682h79l94 -682h-81l-24 190h-300l-117 -190h-86zM289 400l-93 -151h257l-17 146q-18 147 -21 215h-1q-50 -91 -125 -210z" />
    <glyph glyph-name="Beta" unicode="&#x392;" horiz-adv-x="706" 
d="M204 316l-63 -252q106 -2 165 -2q50 0 83.5 3.5t70.5 15.5t60.5 38t33.5 67q5 21 5 38t-3.5 29.5t-13 22.5t-19 16.5t-25.5 11t-28.5 7t-33 3.5t-34 1.5t-34.5 0.5h-164zM279 618l-60 -242h167q64 0 102.5 8t72.5 35q39 30 52 85q12 45 -10 75q-20 25 -55.5 33t-119.5 8
q-65 0 -149 -2zM50 0l171 682q15 0 90 0.5t131 0.5q95 0 149.5 -14t83.5 -53q33 -44 16 -112q-27 -112 -155 -156q64 -15 87.5 -60t7.5 -108q-10 -39 -28 -68.5t-43.5 -49t-54 -32.5t-65.5 -19.5t-71.5 -9t-77.5 -2.5q-171 0 -241 1z" />
    <glyph glyph-name="Gamma" unicode="&#x393;" horiz-adv-x="525" 
d="M50 0l170 682h410l-16 -63h-335l-154 -619h-75z" />
    <glyph glyph-name="Delta" unicode="&#x394;" horiz-adv-x="641" 
d="M544 0h-567l14 58l402 624h77l89 -621zM479 64l-35 274q-30 226 -30 273h-2q-31 -61 -163 -271l-171 -276h401z" />
    <glyph glyph-name="Delta" unicode="&#x2206;" horiz-adv-x="641" 
d="M544 0h-567l14 58l402 624h77l89 -621zM479 64l-35 274q-30 226 -30 273h-2q-31 -61 -163 -271l-171 -276h401z" />
    <glyph glyph-name="Epsilon" unicode="&#x395;" horiz-adv-x="645" 
d="M50 0l170 682h453l-16 -63h-377l-61 -240h331l-14 -60h-332l-63 -255h395l-17 -64h-469z" />
    <glyph glyph-name="Zeta" unicode="&#x396;" horiz-adv-x="628" 
d="M539 66l-17 -66h-537l16 65l562 553q-30 0 -111 -0.5t-124 -0.5h-174l16 65h507l-16 -64l-561 -553q40 0 130 0.5t135 0.5h174z" />
    <glyph glyph-name="Eta" unicode="&#x397;" horiz-adv-x="754" 
d="M50 0l170 682h75l-74 -296h384l74 296h75l-170 -682h-75l80 321h-384l-80 -321h-75z" />
    <glyph glyph-name="Theta" unicode="&#x398;" horiz-adv-x="778" 
d="M544 317h-271l15 62h271zM657 341q33 131 -12 210.5t-159 79.5q-113 0 -198 -79.5t-118 -210.5t12.5 -210.5t158.5 -79.5t198 79.5t118 210.5zM736 337q-40 -160 -151.5 -255.5t-254.5 -95.5q-145 0 -211.5 98.5t-26.5 260.5q40 161 151 256t255 95t211 -99t27 -260z" />
    <glyph glyph-name="Iota" unicode="&#x399;" horiz-adv-x="295" 
d="M50 0l170 682h75l-170 -682h-75z" />
    <glyph glyph-name="Kappa" unicode="&#x39a;" horiz-adv-x="673" 
d="M655 682h107l-333 -260l183 -422h-87l-156 374l-187 -146l-57 -228h-75l170 682h75l-89 -358z" />
    <glyph glyph-name="Lambda" unicode="&#x39b;" horiz-adv-x="634" 
d="M557 0h-80l-47 378q-22 183 -22 222h-2q-25 -49 -133 -226l-231 -374h-85l432 682h75z" />
    <glyph glyph-name="Mu" unicode="&#x39c;" horiz-adv-x="942" 
d="M50 0l170 682h117l60 -344q29 -167 36 -234h1q24 42 151 234l232 344h125l-170 -682h-75l60 240q40 163 97 379h-2q-6 -9 -50 -76t-96 -144l-267 -399h-60l-69 400q-32 182 -36 219h-2q-28 -123 -92 -379l-60 -240h-70z" />
    <glyph glyph-name="Nu" unicode="&#x39d;" horiz-adv-x="755" 
d="M584 0h-85l-154 394q-34 87 -78 205h-1q-10 -43 -87 -362l-59 -237h-70l170 682h92l152 -382q20 -51 77 -206h1q35 163 86 362l56 226h71z" />
    <glyph glyph-name="Xi" unicode="&#x39e;" horiz-adv-x="539" 
d="M490 387l-19 -72h-368l18 72h369zM571 610h-419l18 72h420zM3 72h449l-18 -72h-449z" />
    <glyph glyph-name="Omicron" unicode="&#x39f;" horiz-adv-x="778" 
d="M657 341q33 131 -12 210.5t-159 79.5q-113 0 -198 -79.5t-118 -210.5t12.5 -210.5t158.5 -79.5t198 79.5t118 210.5zM736 337q-40 -160 -151.5 -255.5t-254.5 -95.5q-145 0 -211.5 98.5t-26.5 260.5q40 161 151 256t255 95t211 -99t27 -260z" />
    <glyph glyph-name="Pi" unicode="&#x3a0;" horiz-adv-x="752" 
d="M50 0l170 682h532l-170 -682h-75l154 619h-382l-154 -619h-75z" />
    <glyph glyph-name="Rho" unicode="&#x3a1;" horiz-adv-x="637" 
d="M605 478q17 70 -16.5 105.5t-132.5 35.5q-122 0 -176 -1l-71 -279q56 -1 175 -1q186 0 221 140zM50 0l170 682q35 0 120 0.5t128 0.5q130 0 185 -56t30 -155q-50 -198 -312 -198q-113 0 -178 1l-68 -275h-75z" />
    <glyph glyph-name="Sigma" unicode="&#x3a3;" horiz-adv-x="597" 
d="M491 0h-493l18 72l297 275l-160 271l16 64h475l-17 -65h-189q-128 0 -198 1l164 -276l-303 -277q70 1 191 1h216z" />
    <glyph glyph-name="Tau" unicode="&#x3a4;" horiz-adv-x="533" 
d="M169 0l154 619h-237l16 63h548l-16 -63h-236l-154 -619h-75z" />
    <glyph glyph-name="Upsilon" unicode="&#x3a5;" horiz-adv-x="604" 
d="M279 0h-75l73 292l-167 390h86l134 -320l292 320h92l-362 -390z" />
    <glyph glyph-name="Phi" unicode="&#x3a6;" horiz-adv-x="952" 
d="M440 -51h-75l19 77q-176 8 -253 89t-39 232q72 295 449 308l20 78h75l-20 -78q176 -8 253.5 -88.5t40.5 -231.5q-75 -297 -452 -310zM832 341q60 240 -232 252l-125 -503q297 14 357 251zM169 341q-60 -239 232 -251l125 503q-297 -15 -357 -252z" />
    <glyph glyph-name="Chi" unicode="&#x3a7;" horiz-adv-x="591" 
d="M526 0h-85l-128 307l-278 -307h-90l337 365l-138 317h85l108 -267l238 267h89l-296 -325z" />
    <glyph glyph-name="Psi" unicode="&#x3a8;" horiz-adv-x="924" 
d="M440 0h-75l41 164q-70 4 -122 21t-80.5 43.5t-45 61.5t-15 73t9.5 79l60 240h75l-60 -238q-24 -97 23 -153.5t170 -63.5l114 455h75l-113 -455q250 14 300 215l60 240h74l-64 -255q-61 -251 -386 -264z" />
    <glyph glyph-name="Omega" unicode="&#x3a9;" horiz-adv-x="779" 
d="M652 0h-255l21 87q105 57 161.5 122.5t81.5 162.5q28 117 -18 189t-156 72q-111 0 -192 -70.5t-110 -190.5q-24 -98 -1 -163.5t99 -121.5l-21 -87h-255l15 64h72q80 0 120 -1v1q-160 107 -105 323q33 135 141.5 222t249.5 87q142 0 208 -92.5t31 -231.5
q-48 -198 -261 -308v-1q34 1 119 1h71z" />
    <glyph glyph-name="Omega" unicode="&#x2126;" horiz-adv-x="779" 
d="M652 0h-255l21 87q105 57 161.5 122.5t81.5 162.5q28 117 -18 189t-156 72q-111 0 -192 -70.5t-110 -190.5q-24 -98 -1 -163.5t99 -121.5l-21 -87h-255l15 64h72q80 0 120 -1v1q-160 107 -105 323q33 135 141.5 222t249.5 87q142 0 208 -92.5t31 -231.5
q-48 -198 -261 -308v-1q34 1 119 1h71z" />
    <glyph glyph-name="Iotadieresis" unicode="&#x3aa;" horiz-adv-x="295" 
d="M50 0l170 682h75l-170 -682h-75zM203 761h-75l28 112h76zM426 761h-75l28 112h76z" />
    <glyph glyph-name="Upsilondieresis" unicode="&#x3ab;" horiz-adv-x="604" 
d="M279 0h-75l73 292l-167 390h86l134 -320l292 320h92l-362 -390zM355 761h-75l28 112h76zM578 761h-75l28 112h76z" />
    <glyph glyph-name="alphatonos" unicode="&#x3ac;" horiz-adv-x="584" 
d="M533 61l-14 -60q-30 -13 -66 -13q-39 0 -60.5 21t-16.5 64h-1q-65 -85 -172 -85q-100 0 -141 72t-13 181q29 118 103 184t170 66q50 0 86 -22t52 -60h1l22 69h69q-28 -85 -67 -236l-35 -141q-14 -54 29 -54q28 0 54 14zM413 229l5 19q21 82 -5 133t-94 51q-69 0 -122 -53
t-74 -141q-21 -84 3.5 -138t94.5 -54q64 0 117.5 49.5t74.5 133.5zM318 551l50 141h79l-70 -141h-59z" />
    <glyph glyph-name="epsilontonos" unicode="&#x3ad;" horiz-adv-x="480" 
d="M385 120l50 -38q-91 -94 -240 -94q-99 0 -144 42t-27 111q10 39 42 68t86 40v1q-33 10 -48 40t-5 72q16 60 70 94.5t145 34.5q132 0 184 -84l-54 -42q-42 68 -139 68q-51 0 -87.5 -19.5t-45.5 -58.5q-9 -35 13 -58t81 -23h91l-14 -55h-91q-132 0 -153 -84
q-11 -43 16.5 -66t93.5 -23q105 0 176 74zM300 551l50 141h79l-70 -141h-59z" />
    <glyph glyph-name="etatonos" unicode="&#x3ae;" horiz-adv-x="560" 
d="M370 -207h-70l120 479q18 74 10 106q-12 54 -87 54q-57 0 -100 -34q-63 -50 -93 -170l-56 -228h-70l60 240q14 55 26 106.5t20 86.5t10 45h67l-15 -71h1q69 84 171 84q84 0 119.5 -51.5t11.5 -147.5zM330 551l50 141h79l-70 -141h-59z" />
    <glyph glyph-name="iotatonos" unicode="&#x3af;" horiz-adv-x="248" 
d="M197 61l-15 -61q-34 -12 -66 -12q-53 0 -69 33t2 101l89 356h70l-89 -355q-11 -41 -6 -58.5t30 -17.5q29 0 54 14zM158 551l50 141h79l-70 -141h-59z" />
    <glyph glyph-name="upsilondieresistonos" unicode="&#x3b0;" horiz-adv-x="553" 
d="M207 478l-68 -272q-14 -48 -13 -82t20 -53q22 -23 82 -23q73 0 115 42q33 33 48 95l74 293h70l-77 -303q-46 -187 -241 -187q-202 0 -152 201l72 289h70zM276 567h-69l28 113h69zM508 567h-69l28 113h69zM317 567l50 144h77l-70 -144h-57z" />
    <glyph glyph-name="alpha" unicode="&#x3b1;" horiz-adv-x="584" 
d="M533 61l-14 -60q-30 -13 -66 -13q-39 0 -60.5 21t-16.5 64h-1q-65 -85 -172 -85q-100 0 -141 72t-13 181q29 118 103 184t170 66q50 0 86 -22t52 -60h1l22 69h69q-28 -85 -67 -236l-35 -141q-14 -54 29 -54q28 0 54 14zM413 229l5 19q21 82 -5 133t-94 51q-69 0 -122 -53
t-74 -141q-21 -84 3.5 -138t94.5 -54q64 0 117.5 49.5t74.5 133.5z" />
    <glyph glyph-name="beta" unicode="&#x3b2;" horiz-adv-x="561" 
d="M42 -207h-70l181 726q24 94 84.5 145.5t152.5 51.5q87 0 132.5 -50t23.5 -136q-28 -108 -139 -146v-1q128 -34 88 -192q-22 -90 -90.5 -146.5t-163.5 -56.5q-49 0 -84.5 18.5t-49.5 50.5h-1q-8 -40 -21 -91zM278 408h36q60 0 102.5 36t56.5 91q15 57 -11.5 89.5
t-80.5 32.5q-57 0 -99 -35.5t-60 -107.5l-76 -303q-19 -77 8.5 -121t94.5 -44q64 0 110.5 42.5t62.5 107.5q39 156 -123 156h-35z" />
    <glyph glyph-name="gamma" unicode="&#x3b3;" horiz-adv-x="490" 
d="M164 -207h-70l55 219l-76 466h76l30 -201q20 -135 25 -197h1q184 220 229 398h80q-34 -116 -105 -223.5t-191 -244.5z" />
    <glyph glyph-name="delta" unicode="&#x3b4;" horiz-adv-x="559" 
d="M558 666l-47 -56q-56 48 -131 48q-88 0 -101 -54q-10 -39 16 -63q19 -19 84 -52.5t93 -61.5q67 -67 34 -197q-26 -108 -101.5 -175t-183.5 -67q-111 0 -154.5 73t-16.5 184q44 173 204 233q-16 12 -21 18q-47 47 -27 114q29 106 182 106q104 0 170 -50zM406 390
q-29 29 -87 55q-81 -21 -129 -77.5t-67 -128.5q-20 -83 8 -137.5t100 -54.5q73 0 128 54t75 135q25 103 -28 154z" />
    <glyph glyph-name="epsilon" unicode="&#x3b5;" horiz-adv-x="480" 
d="M385 120l50 -38q-91 -94 -240 -94q-99 0 -144 42t-27 111q10 39 42 68t86 40v1q-33 10 -48 40t-5 72q16 60 70 94.5t145 34.5q132 0 184 -84l-54 -42q-42 68 -139 68q-51 0 -87.5 -19.5t-45.5 -58.5q-9 -35 13 -58t81 -23h91l-14 -55h-91q-132 0 -153 -84
q-11 -43 16.5 -66t93.5 -23q105 0 176 74z" />
    <glyph glyph-name="zeta" unicode="&#x3b6;" horiz-adv-x="423" 
d="M180 651l15 60h326l-15 -58q-140 -95 -249.5 -207t-132.5 -206q-13 -42 -10.5 -73t23.5 -53q19 -19 88.5 -41t92.5 -45q37 -37 21 -94q-15 -59 -73 -148l-65 14q52 83 65 131q7 35 -10 52t-85 36.5t-98 49.5q-53 53 -27 160q28 109 121 211t250 213q-92 -2 -132 -2h-105z
" />
    <glyph glyph-name="eta" unicode="&#x3b7;" horiz-adv-x="560" 
d="M370 -207h-70l120 479q18 74 10 106q-12 54 -87 54q-57 0 -100 -34q-63 -50 -93 -170l-56 -228h-70l60 240q14 55 26 106.5t20 86.5t10 45h67l-15 -71h1q69 84 171 84q84 0 119.5 -51.5t11.5 -147.5z" />
    <glyph glyph-name="theta" unicode="&#x3b8;" horiz-adv-x="563" 
d="M538 356q-93 -368 -316 -368q-115 0 -150 99t11 272q43 173 123 265t192 92q113 0 148 -97t-8 -263zM234 46q147 0 226 289h-312q-66 -289 86 -289zM386 658q-144 0 -223 -266h311q29 125 6.5 195.5t-94.5 70.5z" />
    <glyph glyph-name="iota" unicode="&#x3b9;" horiz-adv-x="248" 
d="M197 61l-15 -61q-34 -12 -66 -12q-53 0 -69 33t2 101l89 356h70l-89 -355q-11 -41 -6 -58.5t30 -17.5q29 0 54 14z" />
    <glyph glyph-name="kappa" unicode="&#x3ba;" horiz-adv-x="517" 
d="M452 0h-82l-109 252l-129 -98l-38 -154h-70l43 173l76 305h70l-59 -237l303 237h99l-236 -180z" />
    <glyph glyph-name="lambda" unicode="&#x3bb;" horiz-adv-x="487" 
d="M414 0h-75l-29 200q-4 32 -14 99.5t-12 84.5h-1q-25 -41 -117 -182l-130 -202h-83l311 469l-14 84q-11 64 -26.5 84t-48.5 20q-20 0 -44 -6l15 58q24 7 49 7q58 0 85 -29.5t40 -109.5z" />
    <glyph glyph-name="nu" unicode="&#x3bd;" horiz-adv-x="490" 
d="M152 0l-79 478h76l31 -201q21 -144 24 -195h1q91 108 147.5 202t82.5 194h79q-34 -117 -106 -225t-198 -253h-58z" />
    <glyph glyph-name="xi" unicode="&#x3be;" horiz-adv-x="458" 
d="M293 -214l-65 14q52 83 65 131q7 31 -8 46q-14 14 -95 37.5t-113 55.5q-53 55 -28 153q15 60 60.5 105t110.5 57v1q-42 16 -57 58.5t-2 93.5q21 82 83 130t152 48q45 0 84 -17.5t62 -46.5l-51 -47q-39 53 -106 53q-55 0 -96.5 -35.5t-55.5 -89.5q-13 -55 14.5 -89.5
t90.5 -34.5h69l-15 -58h-87q-74 0 -122 -39t-61 -93q-17 -65 19 -101q27 -27 105.5 -49.5t100.5 -44.5q34 -34 19 -96q-16 -57 -73 -142z" />
    <glyph glyph-name="omicron" unicode="&#x3bf;" horiz-adv-x="559" 
d="M434 239q22 84 -6 138.5t-101 54.5q-76 0 -129.5 -54t-74.5 -139q-20 -84 7 -138t100 -54q76 0 129.5 53.5t74.5 138.5zM508 235q-28 -111 -103 -179t-183 -68q-111 0 -155.5 72t-16.5 183q27 111 102 179.5t184 68.5q111 0 155.5 -72.5t16.5 -183.5z" />
    <glyph glyph-name="pi" unicode="&#x3c0;" horiz-adv-x="588" 
d="M509 54l-16 -58q-25 -5 -41 -5q-71 0 -84.5 45t11.5 158l44 222h-179l-149 -416h-73l150 416h-92l16 62h509l-16 -62h-101l-37 -210q-6 -36 -9 -59t-4 -42t0.5 -28.5t7 -16t13 -8.5t20.5 -2q15 0 30 4z" />
    <glyph glyph-name="rho" unicode="&#x3c1;" horiz-adv-x="571" 
d="M141 239q-22 -86 7.5 -139.5t98.5 -53.5q73 0 125 51t75 141q22 88 -7 141t-100 53t-123.5 -51.5t-75.5 -141.5zM30 -207h-70l116 464q29 117 105.5 175.5t173.5 58.5q103 0 148 -74t17 -184t-104 -177.5t-176 -67.5q-53 0 -90.5 22t-51.5 60h-1q-4 -24 -21 -89z" />
    <glyph glyph-name="sigma1" unicode="&#x3c2;" horiz-adv-x="472" 
d="M290 -214l-64 14q52 85 64 131q9 34 -9 50q-14 14 -51.5 21.5t-80 19.5t-67.5 38q-64 62 -29 196q29 113 98.5 174t161.5 61q135 0 163 -128l-72 -28q-13 97 -101 97q-59 0 -107.5 -48t-69.5 -133q-26 -101 18 -145q21 -21 98 -38t103 -43q33 -33 17 -97
q-14 -58 -72 -142z" />
    <glyph glyph-name="sigma" unicode="&#x3c3;" horiz-adv-x="579" 
d="M615 478l-17 -62h-58q-13 0 -53 2l-1 -2q50 -69 21 -184q-26 -107 -101.5 -175.5t-186.5 -68.5t-153.5 73t-14.5 184q27 111 103 178.5t185 67.5q24 0 66 -6.5t82 -6.5h128zM435 239q21 84 -7.5 138.5t-100.5 54.5q-73 0 -128 -54.5t-76 -138.5q-20 -83 8 -137.5
t100 -54.5q73 0 128 54t76 138z" />
    <glyph glyph-name="tau" unicode="&#x3c4;" horiz-adv-x="407" 
d="M313 65l-15 -60q-40 -17 -88 -17q-65 0 -89 35.5t-4 113.5q6 26 33 131.5t37 147.5h-129l16 62h379l-17 -62h-179l-57 -228q-17 -69 -19 -93t9 -36q12 -12 37 -12q48 0 86 18z" />
    <glyph glyph-name="upsilon" unicode="&#x3c5;" horiz-adv-x="553" 
d="M207 478l-68 -272q-14 -48 -13 -82t20 -53q22 -23 82 -23q73 0 115 42q33 33 48 95l74 293h70l-77 -303q-46 -187 -241 -187q-202 0 -152 201l72 289h70z" />
    <glyph glyph-name="phi" unicode="&#x3c6;" horiz-adv-x="738" 
d="M292 -207h-70l50 199q-135 10 -193 77t-30 177q27 109 115 171t231 69l57 225h70l-57 -225q134 -9 192 -77t31 -178q-27 -109 -115.5 -170t-230.5 -69zM286 48l95 382q-91 -4 -162.5 -49.5t-95.5 -139.5q-24 -95 23 -141t140 -52zM451 430l-96 -382q91 4 163 49.5
t96 139.5q23 95 -23.5 141t-139.5 52z" />
    <glyph glyph-name="chi" unicode="&#x3c7;" horiz-adv-x="457" 
d="M333 -207h-75l-69 288h-2l-199 -288h-84l259 350l-85 335h75l66 -279h2l197 279h85l-259 -341z" />
    <glyph glyph-name="psi" unicode="&#x3c8;" horiz-adv-x="779" 
d="M319 -207h-70l49 196q-61 4 -106 21t-70 42.5t-37.5 60t-12 72t11.5 79.5l53 214h70l-54 -213q-24 -98 15 -154.5t144 -64.5l166 665h70l-166 -665q222 15 274 220q29 118 29 212h74q0 -96 -30 -216q-34 -135 -122.5 -201.5t-238.5 -71.5z" />
    <glyph glyph-name="omega" unicode="&#x3c9;" horiz-adv-x="828" 
d="M401 329h70l-33 -133q-7 -35 -6.5 -68.5t23.5 -57t65 -23.5q64 0 112.5 49t71.5 142q45 176 -106 202l32 56q95 -9 135.5 -79t11.5 -187q-29 -116 -99.5 -179t-159.5 -63q-56 0 -96.5 28t-44.5 73h-2q-25 -47 -75.5 -74t-106.5 -27q-94 0 -133.5 69.5t-9.5 187.5
q29 117 100 179.5t175 71.5l4 -60q-81 -11 -131.5 -55.5t-75.5 -142.5q-23 -92 1 -141.5t86 -49.5q65 0 104.5 44.5t54.5 104.5z" />
    <glyph glyph-name="iotadieresis" unicode="&#x3ca;" horiz-adv-x="248" 
d="M197 61l-15 -61q-34 -12 -66 -12q-53 0 -69 33t2 101l89 356h70l-89 -355q-11 -41 -6 -58.5t30 -17.5q29 0 54 14zM148 567h-70l28 113h70zM310 567h-70l28 113h70z" />
    <glyph glyph-name="upsilondieresis" unicode="&#x3cb;" horiz-adv-x="553" 
d="M207 478l-68 -272q-14 -48 -13 -82t20 -53q22 -23 82 -23q73 0 115 42q33 33 48 95l74 293h70l-77 -303q-46 -187 -241 -187q-202 0 -152 201l72 289h70zM299 567h-71l28 113h71zM483 567h-71l28 113h71z" />
    <glyph glyph-name="omicrontonos" unicode="&#x3cc;" horiz-adv-x="559" 
d="M327 551l50 141h79l-70 -141h-59zM434 239q22 84 -6 138.5t-101 54.5q-76 0 -129.5 -54t-74.5 -139q-20 -84 7 -138t100 -54q76 0 129.5 53.5t74.5 138.5zM508 235q-28 -111 -103 -179t-183 -68q-111 0 -155.5 72t-16.5 183q27 111 102 179.5t184 68.5q111 0 155.5 -72.5
t16.5 -183.5z" />
    <glyph glyph-name="upsilontonos" unicode="&#x3cd;" horiz-adv-x="553" 
d="M207 478l-68 -272q-14 -48 -13 -82t20 -53q22 -23 82 -23q73 0 115 42q33 33 48 95l74 293h70l-77 -303q-46 -187 -241 -187q-202 0 -152 201l72 289h70zM318 551l50 141h79l-70 -141h-59z" />
    <glyph glyph-name="omegatonos" unicode="&#x3ce;" horiz-adv-x="828" 
d="M401 329h70l-33 -133q-7 -35 -6.5 -68.5t23.5 -57t65 -23.5q64 0 112.5 49t71.5 142q45 176 -106 202l32 56q95 -9 135.5 -79t11.5 -187q-29 -116 -99.5 -179t-159.5 -63q-56 0 -96.5 28t-44.5 73h-2q-25 -47 -75.5 -74t-106.5 -27q-94 0 -133.5 69.5t-9.5 187.5
q29 117 100 179.5t175 71.5l4 -60q-81 -11 -131.5 -55.5t-75.5 -142.5q-23 -92 1 -141.5t86 -49.5q65 0 104.5 44.5t54.5 104.5zM460 511l64 181h79l-89 -181h-54z" />
    <glyph glyph-name="uni0400" unicode="&#x400;" horiz-adv-x="645" 
d="M50 0l170 682h453l-16 -63h-377l-61 -240h331l-14 -60h-332l-63 -255h395l-17 -64h-469zM469 881l59 -132h-69l-93 132h103z" />
    <glyph glyph-name="uni0401" unicode="&#x401;" horiz-adv-x="645" 
d="M50 0l170 682h453l-16 -63h-377l-61 -240h331l-14 -60h-332l-63 -255h395l-17 -64h-469zM393 761h-75l28 112h76zM616 761h-75l28 112h76z" />
    <glyph glyph-name="uni0402" unicode="&#x402;" horiz-adv-x="734" 
d="M169 0l154 619h-237l16 63h548l-16 -63h-236l-53 -216q102 2 146 2q127 0 182 -52.5t30 -154.5q-26 -102 -95 -155t-166 -53q-48 0 -77 9l16 64q36 -8 70 -8q63 0 108.5 35.5t63.5 107.5q20 77 -18 110t-131 33q-51 0 -145 -2l-85 -339h-75z" />
    <glyph glyph-name="uni0403" unicode="&#x403;" horiz-adv-x="525" 
d="M50 0l170 682h410l-16 -63h-335l-154 -619h-75zM368 749l127 132h111l-161 -132h-77z" />
    <glyph glyph-name="uni0404" unicode="&#x404;" horiz-adv-x="689" 
d="M503 314h-339q-24 -121 21.5 -192.5t150.5 -71.5q154 0 244 144l50 -39q-110 -169 -307 -169q-141 0 -206 100.5t-24 261.5q22 88 65 156.5t97.5 109.5t114 61.5t119.5 20.5q90 0 150.5 -45t76.5 -124l-71 -23q-29 129 -169 129q-93 0 -175 -67.5t-121 -188.5h339z" />
    <glyph glyph-name="uni0405" unicode="&#x405;" horiz-adv-x="655" 
d="M31 117l55 49q78 -117 223 -117q69 0 119 30t62 83q10 42 -6 71.5t-49.5 45.5t-75.5 32t-83 30t-72.5 41t-44.5 64t2 99q18 69 85 110t157 41q80 0 142.5 -26.5t97.5 -73.5l-53 -51q-65 88 -194 88q-136 0 -160 -99q-10 -41 6.5 -69.5t50 -43.5t75 -31t82.5 -30t72.5 -41
t44 -65t-2.5 -101q-19 -77 -92.5 -122t-169.5 -45q-176 0 -271 131z" />
    <glyph glyph-name="uni0406" unicode="&#x406;" horiz-adv-x="295" 
d="M50 0l170 682h75l-170 -682h-75z" />
    <glyph glyph-name="uni0407" unicode="&#x407;" horiz-adv-x="295" 
d="M50 0l170 682h75l-170 -682h-75zM203 761h-75l28 112h76zM426 761h-75l28 112h76z" />
    <glyph glyph-name="uni0408" unicode="&#x408;" horiz-adv-x="530" 
d="M461 682h75l-120 -483q-26 -105 -91 -159t-158 -54q-88 0 -134.5 52t-28.5 165l79 15q-15 -88 7 -127t88 -39q126 0 165 156z" />
    <glyph glyph-name="uni0409" unicode="&#x409;" horiz-adv-x="1070" 
d="M484 0l154 619h-279l-45 -163q-77 -274 -139 -370.5t-170 -96.5q-31 0 -49 7l16 61h44q43 0 75 32.5t68 120.5t84 255l61 217h425l-67 -265q57 1 164 1q130 0 185 -55.5t30 -158.5q-52 -205 -315 -205q-110 0 -242 1zM646 353l-71 -290q55 -1 165 -1q100 0 151.5 36.5
t69.5 108.5q19 74 -14 111t-132 37q-113 0 -169 -2z" />
    <glyph glyph-name="uni040A" unicode="&#x40a;" horiz-adv-x="1084" 
d="M499 0l80 321h-374l-80 -321h-75l170 682h75l-74 -296h374l74 296h75l-66 -264q57 1 163 1q131 0 185.5 -54.5t28.5 -158.5q-52 -207 -314 -207q-100 0 -242 1zM662 354l-72 -291q56 -1 165 -1q99 0 151 37.5t70 109.5q19 74 -14.5 110t-131.5 36q-113 0 -168 -1z" />
    <glyph glyph-name="uni040B" unicode="&#x40b;" horiz-adv-x="779" 
d="M169 0l154 619h-237l16 63h548l-16 -63h-236l-57 -228h172q240 0 188 -209l-45 -182h-75l40 162q22 90 -8 127.5t-118 37.5h-170l-81 -327h-75z" />
    <glyph glyph-name="uni040C" unicode="&#x40c;" horiz-adv-x="668" 
d="M603 0h-91l-209 321h-98l-80 -321h-75l170 682h75l-74 -298h88l353 298h101l-393 -326zM420 749l127 132h111l-161 -132h-77z" />
    <glyph glyph-name="uni040D" unicode="&#x40d;" horiz-adv-x="760" 
d="M591 0h-75l143 573l-529 -573h-80l170 682h75l-143 -571l527 571h82zM498 881l59 -132h-69l-93 132h103z" />
    <glyph glyph-name="uni040E" unicode="&#x40e;" horiz-adv-x="610" 
d="M22 -7l15 62h66q45 0 84.5 26.5t89.5 94.5l-153 506h80l130 -429l300 429h86l-370 -513q-70 -98 -128.5 -139.5t-130.5 -41.5q-37 0 -69 5zM571 884h70q-17 -62 -63 -100t-121 -38q-70 0 -105 40t-24 98h68q-4 -35 11.5 -63t56.5 -28q42 0 69 27.5t38 63.5z" />
    <glyph glyph-name="uni040F" unicode="&#x40f;" horiz-adv-x="737" 
d="M301 -156h-65l40 156h-226l170 682h75l-154 -619h367l154 619h75l-170 -682h-226z" />
    <glyph glyph-name="uni0410" unicode="&#x410;" horiz-adv-x="643" 
d="M392 682h79l94 -682h-81l-24 190h-300l-117 -190h-86zM289 400l-93 -151h257l-17 146q-18 147 -21 215h-1q-50 -91 -125 -210z" />
    <glyph glyph-name="uni0411" unicode="&#x411;" horiz-adv-x="675" 
d="M209 340l-68 -276q106 -2 160 -2q102 0 162 31t79 110q20 80 -22.5 109.5t-149.5 29.5q-105 0 -161 -2zM674 619h-395l-53 -215q56 2 161 2q64 0 111 -10t82 -34t44 -63.5t-3 -98.5q-28 -110 -114 -155.5t-219 -45.5q-43 0 -122 0.5t-116 0.5l170 682h470z" />
    <glyph glyph-name="uni0412" unicode="&#x412;" horiz-adv-x="706" 
d="M204 316l-63 -252q106 -2 165 -2q50 0 83.5 3.5t70.5 15.5t60.5 38t33.5 67q5 21 5 38t-3.5 29.5t-13 22.5t-19 16.5t-25.5 11t-28.5 7t-33 3.5t-34 1.5t-34.5 0.5h-164zM279 618l-60 -242h167q64 0 102.5 8t72.5 35q39 30 52 85q12 45 -10 75q-20 25 -55.5 33t-119.5 8
q-65 0 -149 -2zM50 0l171 682q15 0 90 0.5t131 0.5q95 0 149.5 -14t83.5 -53q33 -44 16 -112q-27 -112 -155 -156q64 -15 87.5 -60t7.5 -108q-10 -39 -28 -68.5t-43.5 -49t-54 -32.5t-65.5 -19.5t-71.5 -9t-77.5 -2.5q-171 0 -241 1z" />
    <glyph glyph-name="uni0413" unicode="&#x413;" horiz-adv-x="525" 
d="M50 0l170 682h410l-16 -63h-335l-154 -619h-75z" />
    <glyph glyph-name="uni0414" unicode="&#x414;" horiz-adv-x="755" 
d="M640 -156h-65l40 156h-600l-39 -156h-65l55 219h79q69 79 108.5 165t79.5 236l58 218h438l-154 -619h121zM500 63l138 556h-291l-43 -162q-38 -144 -77 -235.5t-95 -158.5h368z" />
    <glyph glyph-name="uni0415" unicode="&#x415;" horiz-adv-x="645" 
d="M50 0l170 682h453l-16 -63h-377l-61 -240h331l-14 -60h-332l-63 -255h395l-17 -64h-469z" />
    <glyph glyph-name="uni0416" unicode="&#x416;" horiz-adv-x="943" 
d="M880 0h-86l-166 321h-98l-80 -321h-75l80 321h-92l-326 -321h-95l368 360l-184 322h86l162 -298h97l74 298h75l-74 -298h87l310 298h94l-345 -326z" />
    <glyph glyph-name="uni0417" unicode="&#x417;" horiz-adv-x="639" 
d="M4 109l63 45q52 -104 198 -104q91 0 148.5 35.5t72.5 97.5q17 68 -29 100.5t-146 32.5h-105l16 61h102q189 0 221 127q15 61 -22.5 94.5t-123.5 33.5q-135 0 -231 -98l-34 49q119 113 277 113q123 0 178.5 -53t33.5 -138q-31 -127 -164 -155v-2q67 -12 95 -56.5
t11 -110.5q-22 -90 -102.5 -142.5t-207.5 -52.5q-181 0 -251 123z" />
    <glyph glyph-name="uni0418" unicode="&#x418;" horiz-adv-x="760" 
d="M591 0h-75l143 573l-529 -573h-80l170 682h75l-143 -571l527 571h82z" />
    <glyph glyph-name="uni0419" unicode="&#x419;" horiz-adv-x="760" 
d="M591 0h-75l143 573l-529 -573h-80l170 682h75l-143 -571l527 571h82zM623 884h70q-17 -62 -63 -100t-121 -38q-70 0 -105 40t-24 98h68q-4 -35 11.5 -63t56.5 -28q42 0 69 27.5t38 63.5z" />
    <glyph glyph-name="uni041A" unicode="&#x41a;" horiz-adv-x="668" 
d="M603 0h-91l-209 321h-98l-80 -321h-75l170 682h75l-74 -298h88l353 298h101l-393 -326z" />
    <glyph glyph-name="uni041B" unicode="&#x41b;" horiz-adv-x="739" 
d="M569 0h-75l154 619h-289l-45 -163q-77 -274 -139 -370.5t-170 -96.5q-31 0 -49 7l16 61h44q43 0 75 32.5t68 120.5t84 255l61 217h435z" />
    <glyph glyph-name="uni041C" unicode="&#x41c;" horiz-adv-x="942" 
d="M50 0l170 682h117l60 -344q29 -167 36 -234h1q24 42 151 234l232 344h125l-170 -682h-75l60 240q40 163 97 379h-2q-6 -9 -50 -76t-96 -144l-267 -399h-60l-69 400q-32 182 -36 219h-2q-28 -123 -92 -379l-60 -240h-70z" />
    <glyph glyph-name="uni041D" unicode="&#x41d;" horiz-adv-x="754" 
d="M50 0l170 682h75l-74 -296h384l74 296h75l-170 -682h-75l80 321h-384l-80 -321h-75z" />
    <glyph glyph-name="uni041E" unicode="&#x41e;" horiz-adv-x="778" 
d="M657 341q33 131 -12 210.5t-159 79.5q-113 0 -198 -79.5t-118 -210.5t12.5 -210.5t158.5 -79.5t198 79.5t118 210.5zM736 337q-40 -160 -151.5 -255.5t-254.5 -95.5q-145 0 -211.5 98.5t-26.5 260.5q40 161 151 256t255 95t211 -99t27 -260z" />
    <glyph glyph-name="uni041F" unicode="&#x41f;" horiz-adv-x="752" 
d="M50 0l170 682h532l-170 -682h-75l154 619h-382l-154 -619h-75z" />
    <glyph glyph-name="uni0420" unicode="&#x420;" horiz-adv-x="637" 
d="M605 478q17 70 -16.5 105.5t-132.5 35.5q-122 0 -176 -1l-71 -279q56 -1 175 -1q186 0 221 140zM50 0l170 682q35 0 120 0.5t128 0.5q130 0 185 -56t30 -155q-50 -198 -312 -198q-113 0 -178 1l-68 -275h-75z" />
    <glyph glyph-name="uni0421" unicode="&#x421;" horiz-adv-x="690" 
d="M578 198l55 -35q-108 -177 -310 -177q-141 0 -206 100.5t-24 261.5q22 88 65.5 156.5t98.5 109.5t113.5 61.5t117.5 20.5q91 0 152.5 -47t74.5 -128l-72 -21q-26 133 -167 133q-99 0 -185 -77.5t-121 -214.5q-32 -132 12 -211t154 -79q153 0 242 147z" />
    <glyph glyph-name="uni0422" unicode="&#x422;" horiz-adv-x="533" 
d="M169 0l154 619h-237l16 63h548l-16 -63h-236l-154 -619h-75z" />
    <glyph glyph-name="uni0423" unicode="&#x423;" horiz-adv-x="610" 
d="M22 -7l15 62h66q45 0 84.5 26.5t89.5 94.5l-153 506h80l130 -429l300 429h86l-370 -513q-70 -98 -128.5 -139.5t-130.5 -41.5q-37 0 -69 5z" />
    <glyph glyph-name="uni0424" unicode="&#x424;" horiz-adv-x="984" 
d="M462 -30h-75l27 112l-76 1q-155 2 -225 78t-36 210q33 130 137 203t267 76l76 1l21 89h76l-22 -89l75 -1q160 -3 227 -81.5t35 -208.5q-31 -126 -135.5 -200.5t-268.5 -76.5l-76 -1zM430 141l111 450l-75 -1q-120 -2 -202 -59t-109 -165q-26 -107 27.5 -164.5
t171.5 -59.5zM617 591l-112 -450l76 1q120 2 202.5 60.5t108.5 163.5q25 106 -27 164t-173 60z" />
    <glyph glyph-name="uni0425" unicode="&#x425;" horiz-adv-x="591" 
d="M526 0h-85l-128 307l-278 -307h-90l337 365l-138 317h85l108 -267l238 267h89l-296 -325z" />
    <glyph glyph-name="uni0426" unicode="&#x426;" horiz-adv-x="763" 
d="M648 -156h-65l40 156h-573l170 682h75l-154 -619h367l154 619h75l-154 -619h121z" />
    <glyph glyph-name="uni0427" unicode="&#x427;" horiz-adv-x="680" 
d="M510 0h-75l66 268h-191q-240 0 -188 211l51 203h75l-45 -184q-23 -91 6.5 -128.5t118.5 -37.5h189l88 350h75z" />
    <glyph glyph-name="uni0428" unicode="&#x428;" horiz-adv-x="1107" 
d="M937 0h-887l170 682h75l-154 -619h331l154 619h75l-154 -619h331l154 619h75z" />
    <glyph glyph-name="uni0429" unicode="&#x429;" horiz-adv-x="1134" 
d="M1019 -156h-65l39 156h-943l170 682h75l-154 -619h331l154 619h75l-154 -619h331l154 619h75l-154 -619h122z" />
    <glyph glyph-name="uni042A" unicode="&#x42a;" horiz-adv-x="745" 
d="M311 353l-71 -290q56 -1 175 -1q99 0 151 37.5t70 109.5q19 74 -14.5 110t-132.5 36q-122 0 -178 -2zM149 0l154 619h-217l16 63h292l-66 -265q57 1 173 1q131 0 185.5 -54t29.5 -158q-53 -207 -315 -207q-120 0 -252 1z" />
    <glyph glyph-name="uni042B" unicode="&#x42b;" horiz-adv-x="918" 
d="M212 353l-71 -290q55 -1 165 -1q99 0 151 36.5t70 108.5q19 74 -14.5 111t-131.5 37q-113 0 -169 -2zM50 0l170 682h75l-67 -265q57 1 164 1q131 0 185.5 -55t29.5 -158q-53 -206 -315 -206q-115 0 -242 1zM674 0l170 682h75l-170 -682h-75z" />
    <glyph glyph-name="uni042C" unicode="&#x42c;" horiz-adv-x="646" 
d="M212 353l-71 -290q55 -1 175 -1q100 0 151.5 35.5t69.5 107.5q19 74 -14 112t-133 38q-122 0 -178 -2zM50 0l170 682h75l-66 -265q57 1 173 1q133 0 186.5 -55.5t28.5 -160.5q-27 -106 -105.5 -154.5t-208.5 -48.5q-121 0 -253 1z" />
    <glyph glyph-name="uni042D" unicode="&#x42d;" horiz-adv-x="686" 
d="M219 314l16 63h339q22 120 -19.5 187.5t-144.5 67.5q-146 0 -243 -131l-49 40q125 155 304 155q143 0 204 -94t16 -270q-42 -169 -146 -257.5t-233 -88.5q-201 0 -247 181l73 20q35 -136 178 -136q98 0 176 67.5t116 195.5h-340z" />
    <glyph glyph-name="uni042E" unicode="&#x42e;" horiz-adv-x="1047" 
d="M1005 337q-40 -161 -146.5 -256t-242.5 -95q-133 0 -195.5 92t-31.5 244h-184l-80 -322h-75l170 682h75l-74 -297h185q47 143 149 227t229 84q138 0 199.5 -98.5t21.5 -260.5zM927 341q33 131 -8 211t-146 80t-185.5 -80t-113.5 -211q-33 -132 7.5 -211t146.5 -79
q105 0 185.5 79t113.5 211z" />
    <glyph glyph-name="uni042F" unicode="&#x42f;" horiz-adv-x="691" 
d="M522 0h-75l69 281h-148l-293 -281h-100l305 287q-92 11 -129.5 64.5t-16.5 140.5q21 91 98 141t204 50q46 0 142 -0.5t114 -0.5zM532 345l69 274q-25 0 -80.5 0.5t-95.5 0.5q-180 0 -214 -135q-17 -67 17 -104.5t136 -37.5q116 0 168 2z" />
    <glyph glyph-name="uni0430" unicode="&#x430;" horiz-adv-x="516" 
d="M460 322l-22 -86q-32 -124 -57 -236h-69l19 71h-1q-69 -83 -176 -83q-74 0 -110.5 41t-20.5 105q19 76 100 114t257 38l9 37q28 110 -85 110q-83 0 -170 -87l-39 45q102 100 221 100q90 0 127 -47t17 -122zM358 197l8 35q-140 0 -198 -24t-71 -77q-11 -40 9 -63t71 -23
q64 0 115.5 47.5t65.5 104.5z" />
    <glyph glyph-name="uni0431" unicode="&#x431;" horiz-adv-x="567" 
d="M613 725l-18 -67q-106 -5 -187 -16q-54 -7 -91.5 -23.5t-66.5 -50t-50 -74t-48 -110.5h2q37 51 90.5 77t105.5 26q105 0 149.5 -71.5t16.5 -182.5q-29 -111 -107.5 -178t-180.5 -67q-112 0 -154 78.5t-6 221.5q55 221 127.5 310t222.5 109q117 14 195 18zM239 47
q70 0 126 53t77 137q21 82 -8.5 136.5t-100.5 54.5q-68 0 -124.5 -49t-79.5 -141l-1 -6q-21 -84 10.5 -134.5t100.5 -50.5z" />
    <glyph glyph-name="uni0432" unicode="&#x432;" horiz-adv-x="547" 
d="M25 4l117 471q90 10 170 10q126 0 166 -42q37 -39 23 -98q-10 -38 -40.5 -64t-74.5 -35v-2q101 -22 76 -119q-33 -132 -256 -132q-110 0 -181 11zM147 216l-39 -158q53 -8 108 -8q151 0 172 83q12 45 -24.5 64t-113.5 19h-103zM199 422l-38 -152h105q101 0 135 34
q18 18 26 45q9 33 -11 53q-26 26 -112 26q-63 0 -105 -6z" />
    <glyph glyph-name="uni0433" unicode="&#x433;" horiz-adv-x="404" 
d="M24 0l119 478h311l-14 -56h-241l-105 -422h-70z" />
    <glyph glyph-name="uni0434" unicode="&#x434;" horiz-adv-x="608" 
d="M497 -143h-63l36 143h-462l-36 -143h-62l49 199h66q55 58 89 121t60 154l43 147h337l-105 -422h98zM379 56l90 366h-201l-27 -95q-48 -171 -136 -271h274z" />
    <glyph glyph-name="uni0435" unicode="&#x435;" horiz-adv-x="529" 
d="M402 129l43 -40q-87 -101 -224 -101q-107 0 -152.5 73t-17.5 186q27 112 99.5 178t173.5 66q57 0 96.5 -22.5t54.5 -55.5t20.5 -71.5t-5.5 -70.5q-9 -36 -15 -46h-355q-19 -82 13 -130.5t99 -48.5q99 0 170 83zM318 433q-61 0 -109 -39.5t-74 -112.5h282q16 62 -10 107
t-89 45z" />
    <glyph glyph-name="uni0436" unicode="&#x436;" horiz-adv-x="752" 
d="M685 0h-82l-126 220h-72l-54 -220h-70l54 220h-65l-236 -220h-88l275 256l-139 222h82l116 -203h69l51 203h70l-51 -203h64l216 203h89l-251 -227z" />
    <glyph glyph-name="uni0437" unicode="&#x437;" horiz-adv-x="500" 
d="M-8 78l51 43q21 -36 60.5 -56t87.5 -20q126 0 148 84q23 89 -120 89h-87l14 54h88q61 0 99.5 22t48.5 62q9 36 -17 56.5t-83 20.5q-99 0 -169 -68l-34 42q89 84 215 84q94 0 136 -38.5t26 -100.5q-20 -82 -117 -105v-2q50 -10 68 -42.5t6 -79.5q-15 -64 -75 -99.5
t-152 -35.5q-64 0 -115.5 23.5t-78.5 66.5z" />
    <glyph glyph-name="uni0438" unicode="&#x438;" horiz-adv-x="590" 
d="M447 0h-70l99 399l-375 -399h-77l119 478h70l-95 -381l360 381h88z" />
    <glyph glyph-name="uni0439" unicode="&#x439;" horiz-adv-x="590" 
d="M447 0h-70l99 399l-375 -399h-77l119 478h70l-95 -381l360 381h88zM480 689h66q-48 -135 -170 -135q-68 0 -97.5 36.5t-21.5 98.5h66q-5 -88 57 -88q70 0 100 88z" />
    <glyph glyph-name="uni043A" unicode="&#x43a;" horiz-adv-x="509" 
d="M443 0h-83l-137 220h-75l-54 -220h-70l119 478h70l-51 -203h62l237 203h93l-270 -226z" />
    <glyph glyph-name="uni043B" unicode="&#x43b;" horiz-adv-x="575" 
d="M431 0h-70l105 422h-208l-26 -93q-55 -196 -108 -268t-142 -72q-6 0 -36 3l14 58h25q57 0 95 59t89 234l38 135h343z" />
    <glyph glyph-name="uni043C" unicode="&#x43c;" horiz-adv-x="770" 
d="M580 0l23 212q1 9 24 206h-3l-271 -418h-61l-60 418h-2q-52 -136 -79 -205l-83 -213h-67l185 478h103l39 -268q12 -76 14 -126h3q39 69 76 127l172 267h110l-53 -478h-70z" />
    <glyph glyph-name="uni043D" unicode="&#x43d;" horiz-adv-x="571" 
d="M357 0l54 220h-263l-54 -220h-70l119 478h70l-50 -202h263l51 202h70l-120 -478h-70z" />
    <glyph glyph-name="uni043E" unicode="&#x43e;" horiz-adv-x="559" 
d="M434 239q22 84 -6 138.5t-101 54.5q-76 0 -129.5 -54t-74.5 -139q-20 -84 7 -138t100 -54q76 0 129.5 53.5t74.5 138.5zM508 235q-28 -111 -103 -179t-183 -68q-111 0 -155.5 72t-16.5 183q27 111 102 179.5t184 68.5q111 0 155.5 -72.5t16.5 -183.5z" />
    <glyph glyph-name="uni043F" unicode="&#x43f;" horiz-adv-x="569" 
d="M425 0h-70l105 422h-261l-105 -422h-70l119 478h402z" />
    <glyph glyph-name="uni0440" unicode="&#x440;" horiz-adv-x="569" 
d="M154 250l-5 -21q-20 -83 5.5 -133t93.5 -50q69 0 122 53.5t74 140.5q22 84 -3 138t-95 54q-64 0 -118 -49.5t-74 -132.5zM42 -207h-70l112 448q29 115 55 237h69l-16 -71h1q69 84 171 84q100 0 141 -72t14 -182q-29 -118 -103 -183.5t-170 -65.5q-50 0 -86 21.5t-51 57.5
h-1q-5 -27 -21 -89z" />
    <glyph glyph-name="uni0441" unicode="&#x441;" horiz-adv-x="515" 
d="M389 150l53 -31q-88 -131 -232 -131q-99 0 -144 70.5t-15 187.5q29 119 102.5 182t170.5 63q71 0 115.5 -34t57.5 -97l-69 -22q-14 52 -40.5 73t-74.5 21q-64 0 -115.5 -51t-74.5 -142q-21 -86 3.5 -139.5t93.5 -53.5q51 0 91 26t78 78z" />
    <glyph glyph-name="uni0442" unicode="&#x442;" horiz-adv-x="431" 
d="M190 0h-70l105 422h-161l15 56h392l-15 -56h-161z" />
    <glyph glyph-name="uni0443" unicode="&#x443;" horiz-adv-x="488" 
d="M78 -207h-79l152 209l-78 476h78l30 -202q14 -91 22 -195h1q46 83 119 195l132 202h79z" />
    <glyph glyph-name="uni0444" unicode="&#x444;" horiz-adv-x="738" 
d="M292 -207h-70l50 199q-135 10 -193 77t-30 177q27 109 115 171t231 69l57 225h70l-57 -225q134 -9 192 -77t31 -178q-27 -109 -115.5 -170t-230.5 -69zM286 48l95 382q-91 -4 -162.5 -49.5t-95.5 -139.5q-24 -95 23 -141t140 -52zM451 430l-96 -382q91 4 163 49.5
t96 139.5q23 95 -23.5 141t-139.5 52z" />
    <glyph glyph-name="uni0445" unicode="&#x445;" horiz-adv-x="465" 
d="M84 478h80l80 -177l158 177h84l-211 -227l117 -251h-80l-91 206l-182 -206h-87l238 256z" />
    <glyph glyph-name="uni0446" unicode="&#x446;" horiz-adv-x="588" 
d="M477 -143h-62l35 143h-426l119 478h70l-105 -422h251l105 422h70l-105 -422h98z" />
    <glyph glyph-name="uni0447" unicode="&#x447;" horiz-adv-x="520" 
d="M376 0h-70l53 215q-26 -35 -68 -54.5t-88 -19.5q-87 0 -119.5 50t-7.5 147l36 140h70l-34 -134q-37 -144 76 -144q61 0 107.5 46t65.5 122l28 110h70z" />
    <glyph glyph-name="uni0448" unicode="&#x448;" horiz-adv-x="831" 
d="M687 0h-663l119 478h70l-105 -422h226l106 422h70l-106 -422h227l105 422h70z" />
    <glyph glyph-name="uni0449" unicode="&#x449;" horiz-adv-x="860" 
d="M749 -143h-63l37 143h-699l119 478h70l-105 -422h226l106 422h70l-106 -422h227l105 422h70l-105 -422h98z" />
    <glyph glyph-name="uni044A" unicode="&#x44a;" horiz-adv-x="577" 
d="M100 4l105 418h-141l15 56h210l-39 -154q39 1 89 1q115 0 158 -48.5t22 -131.5q-18 -73 -80 -112.5t-163 -39.5q-94 0 -176 11zM235 266l-51 -207q43 -8 94 -8q144 0 169 102q13 57 -13.5 85.5t-100.5 28.5q-61 0 -98 -1z" />
    <glyph glyph-name="uni044B" unicode="&#x44b;" horiz-adv-x="702" 
d="M25 4l118 474h70l-39 -154q31 1 84 1q115 0 157 -48.5t21 -131.5q-38 -152 -241 -152q-88 0 -170 11zM159 266l-51 -207q45 -8 89 -8q141 0 167 102q13 57 -12 85.5t-99 28.5q-59 0 -94 -1zM558 0h-70l119 478h70z" />
    <glyph glyph-name="uni044C" unicode="&#x44c;" horiz-adv-x="502" 
d="M25 4l118 474h70l-39 -154q36 1 89 1q115 0 158.5 -48.5t22.5 -131.5q-19 -73 -81 -112.5t-163 -39.5q-93 0 -175 11zM159 266l-51 -207q43 -8 94 -8q145 0 169 102q13 57 -13 85.5t-100 28.5q-61 0 -99 -1z" />
    <glyph glyph-name="uni044D" unicode="&#x44d;" horiz-adv-x="516" 
d="M168 217l14 55h216q12 73 -16.5 117t-97.5 44q-92 0 -162 -81l-40 39q86 100 214 100q110 0 153 -72.5t15 -185.5q-29 -114 -103.5 -179.5t-182.5 -65.5q-65 0 -109.5 29t-62.5 85l66 23q27 -79 116 -79q65 0 118 41.5t80 129.5h-218z" />
    <glyph glyph-name="uni044E" unicode="&#x44e;" horiz-adv-x="767" 
d="M716 236q-27 -111 -100 -179.5t-178 -68.5q-102 0 -144.5 64.5t-22.5 167.5h-123l-54 -220h-70l119 478h70l-50 -202h122q33 98 103 156.5t167 58.5q107 0 148 -71.5t13 -183.5zM642 239q22 83 -3.5 138t-93.5 55q-70 0 -122 -54.5t-73 -138.5q-21 -83 4.5 -137.5
t94.5 -54.5t121 54t72 138z" />
    <glyph glyph-name="uni044F" unicode="&#x44f;" horiz-adv-x="542" 
d="M399 0h-70l47 190h-106l-203 -190h-92l216 198q-56 13 -81.5 52.5t-10.5 99.5q33 135 239 135q96 0 179 -10zM390 246l43 174q-51 8 -102 8q-73 0 -110.5 -19t-49.5 -66q-12 -49 15.5 -73.5t102.5 -24.5q70 0 101 1z" />
    <glyph glyph-name="uni0450" unicode="&#x450;" horiz-adv-x="529" 
d="M402 129l43 -40q-87 -101 -224 -101q-107 0 -152.5 73t-17.5 186q27 112 99.5 178t173.5 66q57 0 96.5 -22.5t54.5 -55.5t20.5 -71.5t-5.5 -70.5q-9 -36 -15 -46h-355q-19 -82 13 -130.5t99 -48.5q99 0 170 83zM318 433q-61 0 -109 -39.5t-74 -112.5h282q16 62 -10 107
t-89 45zM333 692l50 -141h-64l-80 141h94z" />
    <glyph glyph-name="uni0451" unicode="&#x451;" horiz-adv-x="529" 
d="M402 129l43 -40q-87 -101 -224 -101q-107 0 -152.5 73t-17.5 186q27 112 99.5 178t173.5 66q57 0 96.5 -22.5t54.5 -55.5t20.5 -71.5t-5.5 -70.5q-9 -36 -15 -46h-355q-19 -82 13 -130.5t99 -48.5q99 0 170 83zM318 433q-61 0 -109 -39.5t-74 -112.5h282q16 62 -10 107
t-89 45zM292 567h-71l28 113h71zM476 567h-71l28 113h71z" />
    <glyph glyph-name="uni0452" unicode="&#x452;" horiz-adv-x="560" 
d="M94 0h-70l140 562h-98l13 56h98l25 95h70l-24 -95h141l-14 -56h-141l-15 -61q-14 -54 -27 -95h1q70 85 172 85q84 0 119.5 -51t11.5 -147l-84 -330q-25 -101 -62 -139.5t-106 -38.5q-32 0 -50 5l13 54h45q35 0 55 29t37 95l76 304q17 76 10 105q-14 55 -87 55
q-58 0 -101 -34q-35 -28 -55.5 -68.5t-36.5 -101.5z" />
    <glyph glyph-name="uni0453" unicode="&#x453;" horiz-adv-x="404" 
d="M24 0l119 478h311l-14 -56h-241l-105 -422h-70zM268 551l120 141h102l-151 -141h-71z" />
    <glyph glyph-name="uni0454" unicode="&#x454;" horiz-adv-x="513" 
d="M335 216h-218q-14 -77 12 -123.5t91 -46.5q107 0 173 85l42 -39q-85 -104 -220 -104q-102 0 -148.5 69.5t-16.5 187.5q30 119 104 182.5t172 63.5q139 0 171 -121l-66 -24q-15 48 -42 67.5t-75 19.5q-59 0 -107.5 -42.5t-75.5 -119.5h218z" />
    <glyph glyph-name="uni0455" unicode="&#x455;" horiz-adv-x="487" 
d="M8 74l47 47q54 -76 151 -76q105 0 122 68q9 36 -15.5 59t-64 37.5t-78.5 31.5t-60.5 52t-9.5 88q13 53 62.5 81.5t121.5 28.5q52 0 99 -18t74 -50l-46 -48q-48 58 -133 58q-94 0 -108 -59q-7 -30 9 -51t46 -32t64 -26t62.5 -31t42.5 -49t3 -79q-13 -57 -66.5 -87.5
t-130.5 -30.5q-62 0 -113.5 23.5t-78.5 62.5z" />
    <glyph glyph-name="uni0456" unicode="&#x456;" horiz-adv-x="238" 
d="M94 0h-70l119 478h70zM236 563h-73l30 121h72z" />
    <glyph glyph-name="uni0457" unicode="&#x457;" horiz-adv-x="238" 
d="M94 0h-70l119 478h70zM154 567h-70l28 113h70zM316 567h-70l28 113h70z" />
    <glyph glyph-name="uni0458" unicode="&#x458;" horiz-adv-x="248" 
d="M246 563h-72l30 121h72zM154 478h70l-129 -515q-25 -101 -62 -139.5t-106 -38.5q-33 0 -50 5l13 54h45q35 0 54.5 29t36.5 95z" />
    <glyph glyph-name="uni0459" unicode="&#x459;" horiz-adv-x="833" 
d="M356 4l105 418h-203l-26 -93q-55 -196 -108 -268t-142 -72q-6 0 -36 3l14 58h25q57 0 95 59t89 234l38 135h338l-39 -154q38 1 89 1q114 0 157.5 -49t22.5 -131q-19 -73 -81 -112.5t-163 -39.5q-93 0 -175 11zM491 266l-51 -207q41 -8 94 -8q144 0 168 102
q14 57 -12.5 85.5t-100.5 28.5q-61 0 -98 -1z" />
    <glyph glyph-name="uni045A" unicode="&#x45a;" horiz-adv-x="825" 
d="M348 4l53 216h-253l-54 -220h-70l119 478h70l-50 -201h253l51 201h70l-40 -154q39 1 89 1q115 0 158.5 -48.5t22.5 -131.5q-19 -73 -81 -112.5t-163 -39.5q-93 0 -175 11zM483 266l-51 -207q41 -8 94 -8q144 0 168 102q14 57 -12.5 85.5t-100.5 28.5q-61 0 -98 -1z" />
    <glyph glyph-name="uni045B" unicode="&#x45b;" horiz-adv-x="560" 
d="M24 0l140 562h-98l13 56h99l24 95h70l-24 -95h141l-14 -56h-141l-15 -61q-14 -54 -27 -95h1q70 85 171 85q84 0 119.5 -51.5t11.5 -147.5l-73 -292h-70l68 272q10 44 12 57.5t-2 47.5q-12 55 -86 55q-56 0 -99 -34q-65 -52 -95 -170l-56 -228h-70z" />
    <glyph glyph-name="uni045C" unicode="&#x45c;" horiz-adv-x="509" 
d="M443 0h-83l-137 220h-75l-54 -220h-70l119 478h70l-51 -203h62l237 203h93l-270 -226zM295 551l120 141h102l-151 -141h-71z" />
    <glyph glyph-name="uni045D" unicode="&#x45d;" horiz-adv-x="590" 
d="M447 0h-70l99 399l-375 -399h-77l119 478h70l-95 -381l360 381h88zM365 692l50 -141h-64l-80 141h94z" />
    <glyph glyph-name="uni045E" unicode="&#x45e;" horiz-adv-x="488" 
d="M78 -207h-79l152 209l-78 476h78l30 -202q14 -91 22 -195h1q46 83 119 195l132 202h79zM437 689h66q-48 -135 -170 -135q-68 0 -97.5 36.5t-21.5 98.5h66q-5 -88 57 -88q70 0 100 88z" />
    <glyph glyph-name="uni045F" unicode="&#x45f;" horiz-adv-x="559" 
d="M215 -143h-63l36 143h-164l119 478h70l-105 -422h251l105 422h70l-119 -478h-164z" />
    <glyph glyph-name="uni0472" unicode="&#x472;" horiz-adv-x="778" 
d="M736 337q-40 -160 -151.5 -255.5t-254.5 -95.5q-145 0 -211.5 98.5t-26.5 260.5q40 161 151 256t255 95t211 -99t27 -260zM341 51q109 0 192 73t119 197h-487q-26 -124 20.5 -197t155.5 -73zM487 632q-104 0 -185 -67.5t-120 -181.5h484q18 114 -29 181.5t-150 67.5z" />
    <glyph glyph-name="uni0473" unicode="&#x473;" horiz-adv-x="559" 
d="M508 235q-28 -111 -103 -179t-183 -68q-111 0 -155.5 72t-16.5 183q27 111 102 179.5t184 68.5q111 0 155.5 -72.5t16.5 -183.5zM230 46q71 0 122.5 47t75.5 123h-311q-13 -76 15.5 -123t97.5 -47zM327 433q-69 0 -119.5 -44.5t-76.5 -117.5h310q11 72 -18.5 117
t-95.5 45z" />
    <glyph glyph-name="uni0490" unicode="&#x490;" horiz-adv-x="525" 
d="M50 0l170 682h344l39 155h66l-55 -218h-335l-154 -619h-75z" />
    <glyph glyph-name="uni0491" unicode="&#x491;" horiz-adv-x="404" 
d="M24 0l119 478h249l35 143h62l-49 -199h-241l-105 -422h-70z" />
    <glyph glyph-name="uni0492" unicode="&#x492;" horiz-adv-x="535" 
d="M60 0l78 316h-110l15 57h110l77 309h410l-16 -64h-335l-61 -245h165l-15 -57h-165l-78 -316h-75z" />
    <glyph glyph-name="uni0493" unicode="&#x493;" horiz-adv-x="404" 
d="M24 0l52 210h-84l14 53h83l54 215h311l-14 -56h-241l-40 -159h126l-14 -53h-125l-52 -210h-70z" />
    <glyph glyph-name="uni0494" unicode="&#x494;" horiz-adv-x="643" 
d="M50 0l170 682h410l-16 -63h-335l-53 -216q102 2 142 2q131 0 182.5 -67t19.5 -194q-32 -126 -107 -192t-173 -66q-52 0 -81 9l16 64q36 -8 69 -8q65 0 118.5 48.5t78.5 146.5q26 103 -9 149t-127 46q-50 0 -146 -2l-84 -339h-75z" />
    <glyph glyph-name="uni0495" unicode="&#x495;" horiz-adv-x="546" 
d="M94 0h-70l119 478h365l-15 -56h-294l-30 -120q-14 -56 -27 -95h1q69 76 163 76q105 0 144.5 -67.5t9.5 -187.5q-27 -109 -98.5 -176.5t-174.5 -67.5q-26 0 -49 5l16 61q14 -8 43 -8q67 0 118 53.5t72 138.5q23 92 -1.5 141.5t-93.5 49.5q-70 0 -119.5 -55.5t-70.5 -135.5
z" />
    <glyph glyph-name="uni0496" unicode="&#x496;" horiz-adv-x="980" 
d="M450 0h-75l80 321h-92l-326 -321h-95l368 361l-184 321h86l162 -298h97l74 298h75l-74 -298h87l310 298h94l-345 -325l155 -294h89l-56 -219h-65l39 156h-60l-166 321h-98z" />
    <glyph glyph-name="uni0497" unicode="&#x497;" horiz-adv-x="767" 
d="M671 -143h-62l36 143h-42l-126 220h-72l-54 -220h-70l54 220h-65l-236 -220h-88l275 256l-139 222h82l116 -203h69l51 203h70l-51 -203h64l216 203h89l-251 -227l115 -195h69z" />
    <glyph glyph-name="uni0498" unicode="&#x498;" horiz-adv-x="639" 
d="M244 -156h-65l36 144q-150 13 -211 121l63 45q52 -104 198 -104q91 0 148.5 35.5t72.5 97.5q17 68 -29 100.5t-146 32.5h-105l16 61h102q189 0 221 127q15 61 -22.5 94.5t-123.5 33.5q-135 0 -231 -98l-34 49q119 113 277 113q123 0 178.5 -53t33.5 -138
q-31 -127 -164 -155v-2q67 -11 95 -56t11 -111q-21 -85 -95 -137t-190 -57z" />
    <glyph glyph-name="uni0499" unicode="&#x499;" horiz-adv-x="500" 
d="M173 -143h-63l34 134q-107 13 -152 87l51 43q21 -36 60.5 -56t87.5 -20q126 0 148 84q23 89 -120 89h-87l14 54h88q61 0 99.5 22t48.5 62q9 36 -17 56.5t-83 20.5q-99 0 -169 -68l-34 42q89 84 215 84q94 0 136 -38.5t26 -100.5q-20 -82 -117 -105v-2q50 -10 68 -42.5
t6 -79.5q-14 -60 -68.5 -95t-138.5 -39z" />
    <glyph glyph-name="uni049A" unicode="&#x49a;" horiz-adv-x="690" 
d="M590 -156h-65l40 156h-53l-209 321h-98l-80 -321h-75l170 682h75l-74 -298h88l353 298h101l-393 -326l192 -293h84z" />
    <glyph glyph-name="uni049B" unicode="&#x49b;" horiz-adv-x="518" 
d="M94 0h-70l119 478h70l-51 -203h62l237 203h93l-270 -226l123 -196h65l-50 -199h-62l36 143h-36l-137 220h-75z" />
    <glyph glyph-name="uni049C" unicode="&#x49c;" horiz-adv-x="680" 
d="M286 153h-64l42 168h-59l-80 -321h-75l170 682h75l-74 -298h59l43 169h64l-43 -169h39l293 298h98l-335 -328l176 -354h-92l-152 321h-43z" />
    <glyph glyph-name="uni049D" unicode="&#x49d;" horiz-adv-x="529" 
d="M243 108h-60l28 112h-63l-54 -220h-70l119 478h70l-51 -203h62l29 113h60l-29 -113h40l168 203h82l-196 -228l84 -250h-75l-70 220h-46z" />
    <glyph glyph-name="uni04A0" unicode="&#x4a0;" horiz-adv-x="767" 
d="M702 0h-91l-209 321h-98l-80 -321h-75l154 619h-216l15 63h292l-74 -298h88l353 298h101l-393 -326z" />
    <glyph glyph-name="uni04A1" unicode="&#x4a1;" horiz-adv-x="585" 
d="M519 0h-84l-137 220h-74l-55 -220h-70l106 422h-141l15 56h210l-51 -203h62l236 203h93l-269 -226z" />
    <glyph glyph-name="uni04A2" unicode="&#x4a2;" horiz-adv-x="780" 
d="M665 -156h-65l40 156h-131l80 321h-384l-80 -321h-75l170 682h75l-74 -296h384l74 296h75l-154 -619h121z" />
    <glyph glyph-name="uni04A3" unicode="&#x4a3;" horiz-adv-x="600" 
d="M489 -143h-62l36 143h-106l54 221h-263l-54 -221h-70l119 478h70l-50 -201h263l51 201h70l-106 -422h98z" />
    <glyph glyph-name="uni04A4" unicode="&#x4a4;" horiz-adv-x="955" 
d="M575 0h-75l80 321h-375l-80 -321h-75l170 682h75l-74 -296h375l74 296h390l-16 -63h-315z" />
    <glyph glyph-name="uni04A5" unicode="&#x4a5;" horiz-adv-x="719" 
d="M418 0h-70l54 221h-254l-54 -221h-70l119 478h70l-50 -201h254l51 201h302l-15 -56h-232z" />
    <glyph glyph-name="uni04AA" unicode="&#x4aa;" horiz-adv-x="690" 
d="M311 -156h-65l37 145q-121 14 -174.5 112t-15.5 247q22 88 65.5 156.5t98.5 109.5t113.5 61.5t117.5 20.5q91 0 152.5 -47t74.5 -128l-72 -21q-26 133 -167 133q-99 0 -185 -77.5t-121 -214.5q-32 -132 12 -211t154 -79q153 0 242 147l55 -35q-102 -166 -286 -176z" />
    <glyph glyph-name="uni04AB" unicode="&#x4ab;" horiz-adv-x="515" 
d="M201 -143h-65l35 135q-80 14 -113.5 82t-6.5 172q29 119 102.5 182t170.5 63q71 0 115.5 -34t57.5 -97l-69 -22q-14 52 -40.5 73t-74.5 21q-64 0 -115.5 -51t-74.5 -142q-21 -86 3.5 -139.5t93.5 -53.5q51 0 91 26t78 78l53 -31q-81 -119 -207 -130z" />
    <glyph glyph-name="uni04AE" unicode="&#x4ae;" horiz-adv-x="604" 
d="M279 0h-75l73 292l-167 390h86l134 -320l292 320h92l-362 -390z" />
    <glyph glyph-name="uni04AF" unicode="&#x4af;" horiz-adv-x="487" 
d="M167 -207h-72l52 208l-74 477h76l29 -209q16 -120 22 -196h1q51 91 119 196l132 209h81l-313 -477z" />
    <glyph glyph-name="uni04B0" unicode="&#x4b0;" horiz-adv-x="604" 
d="M279 0h-75l56 226h-160l16 60h159l2 6l-167 390h86l134 -320l292 320h92l-362 -390l-2 -6h161l-16 -60h-160z" />
    <glyph glyph-name="uni04B1" unicode="&#x4b1;" horiz-adv-x="487" 
d="M167 -207h-72l51 207h-159l13 56h138l-65 422h76l29 -209q15 -119 22 -197h1q54 98 119 197l133 209h80l-277 -422h138l-14 -56h-161z" />
    <glyph glyph-name="uni04B2" unicode="&#x4b2;" horiz-adv-x="642" 
d="M542 -156h-65l39 156h-75l-128 307l-278 -307h-90l337 365l-138 317h85l108 -267l238 267h89l-296 -325l130 -294h100z" />
    <glyph glyph-name="uni04B3" unicode="&#x4b3;" horiz-adv-x="505" 
d="M312 0l-91 206l-182 -206h-87l238 256l-105 222h80l79 -177l158 177h84l-211 -227l91 -195h93l-50 -199h-62l36 143h-71z" />
    <glyph glyph-name="uni04B6" unicode="&#x4b6;" horiz-adv-x="706" 
d="M591 -156h-65l40 156h-131l66 268h-191q-241 0 -188 211l51 203h75l-45 -184q-23 -91 6.5 -128.5t118.5 -37.5h189l88 350h75l-154 -619h121z" />
    <glyph glyph-name="uni04B7" unicode="&#x4b7;" horiz-adv-x="549" 
d="M438 -143h-63l36 143h-105l52 213q-27 -34 -68.5 -53t-87.5 -19q-84 0 -117 50.5t-9 146.5l36 140h70l-34 -134q-37 -144 75 -144q62 0 108.5 46t65.5 122l28 110h70l-105 -422h98z" />
    <glyph glyph-name="uni04B8" unicode="&#x4b8;" horiz-adv-x="683" 
d="M324 110h-65l39 158q-227 5 -176 211l51 203h75l-45 -184q-22 -87 4.5 -125.5t106.5 -40.5l45 177h64l-44 -177h141l88 350h75l-170 -682h-75l66 268h-141z" />
    <glyph glyph-name="uni04B9" unicode="&#x4b9;" horiz-adv-x="534" 
d="M225 49h-59l23 93q-76 7 -106 56.5t-7 139.5l36 140h70l-34 -134q-17 -53 -5.5 -93.5t61.5 -48.5l32 128h60l-32 -127q53 11 92 55t56 110l28 110h70l-120 -478h-70l53 214q-51 -57 -124 -70z" />
    <glyph glyph-name="uni04BA" unicode="&#x4ba;" horiz-adv-x="680" 
d="M557 0h-75l45 184q23 90 -7 128t-118 38h-190l-87 -350h-75l170 682h75l-67 -268h192q240 0 187 -209z" />
    <glyph glyph-name="uni04BB" unicode="&#x4bb;" horiz-adv-x="560" 
d="M24 0l178 711h70l-54 -211q-17 -66 -26 -94h1q70 85 171 85q84 0 119.5 -51.5t11.5 -147.5l-73 -292h-70l68 272q10 44 12 57.5t-2 47.5q-12 55 -86 55q-56 0 -99 -34q-65 -52 -95 -170l-56 -228h-70z" />
    <glyph glyph-name="uni04C0" unicode="&#x4c0;" horiz-adv-x="295" 
d="M50 0l170 682h75l-170 -682h-75z" />
    <glyph glyph-name="uni04C1" unicode="&#x4c1;" horiz-adv-x="943" 
d="M880 0h-86l-166 321h-98l-80 -321h-75l80 321h-92l-326 -321h-95l368 360l-184 322h86l162 -298h97l74 298h75l-74 -298h87l310 298h94l-345 -326zM716 884h70q-17 -62 -63 -100t-121 -38q-70 0 -105 40t-24 98h68q-4 -35 11.5 -63t56.5 -28q42 0 69 27.5t38 63.5z" />
    <glyph glyph-name="uni04C2" unicode="&#x4c2;" horiz-adv-x="752" 
d="M685 0h-82l-126 220h-72l-54 -220h-70l54 220h-65l-236 -220h-88l275 256l-139 222h82l116 -203h69l51 203h70l-51 -203h64l216 203h89l-251 -227zM565 689h66q-48 -135 -170 -135q-68 0 -97.5 36.5t-21.5 98.5h66q-5 -88 57 -88q70 0 100 88z" />
    <glyph glyph-name="uni04CF" unicode="&#x4cf;" horiz-adv-x="238" 
d="M24 0l178 711h70l-178 -711h-70z" />
    <glyph glyph-name="uni04D0" unicode="&#x4d0;" horiz-adv-x="643" 
d="M392 682h79l94 -682h-81l-24 190h-300l-117 -190h-86zM289 400l-93 -151h257l-17 146q-18 147 -21 215h-1q-50 -91 -125 -210zM565 884h70q-17 -62 -63 -100t-121 -38q-70 0 -105 40t-24 98h68q-4 -35 11.5 -63t56.5 -28q42 0 69 27.5t38 63.5z" />
    <glyph glyph-name="uni04D1" unicode="&#x4d1;" horiz-adv-x="516" 
d="M460 322l-22 -86q-32 -124 -57 -236h-69l19 71h-1q-69 -83 -176 -83q-74 0 -110.5 41t-20.5 105q19 76 100 114t257 38l9 37q28 110 -85 110q-83 0 -170 -87l-39 45q102 100 221 100q90 0 127 -47t17 -122zM358 197l8 35q-140 0 -198 -24t-71 -77q-11 -40 9 -63t71 -23
q64 0 115.5 47.5t65.5 104.5zM444 689h66q-48 -135 -170 -135q-68 0 -97.5 36.5t-21.5 98.5h66q-5 -88 57 -88q70 0 100 88z" />
    <glyph glyph-name="uni04D2" unicode="&#x4d2;" horiz-adv-x="643" 
d="M392 682h79l94 -682h-81l-24 190h-300l-117 -190h-86zM289 400l-93 -151h257l-17 146q-18 147 -21 215h-1q-50 -91 -125 -210zM376 761h-75l28 112h76zM599 761h-75l28 112h76z" />
    <glyph glyph-name="uni04D3" unicode="&#x4d3;" horiz-adv-x="516" 
d="M460 322l-22 -86q-32 -124 -57 -236h-69l19 71h-1q-69 -83 -176 -83q-74 0 -110.5 41t-20.5 105q19 76 100 114t257 38l9 37q28 110 -85 110q-83 0 -170 -87l-39 45q102 100 221 100q90 0 127 -47t17 -122zM358 197l8 35q-140 0 -198 -24t-71 -77q-11 -40 9 -63t71 -23
q64 0 115.5 47.5t65.5 104.5zM282 567h-71l28 113h71zM466 567h-71l28 113h71z" />
    <glyph glyph-name="uni04D4" unicode="&#x4d4;" horiz-adv-x="969" 
d="M441 682h556l-16 -63h-356l-59 -240h308l-15 -60h-309l-63 -254h373l-16 -65h-448l47 188h-290l-141 -188h-89zM475 619l-278 -371h261l92 371h-75z" />
    <glyph glyph-name="uni04D5" unicode="&#x4d5;" horiz-adv-x="844" 
d="M717 129l43 -40q-87 -101 -224 -101q-136 0 -166 114q-85 -114 -216 -114q-74 0 -110.5 41t-20.5 105q19 76 100 114t257 38l9 37q27 110 -85 110q-83 0 -170 -87l-39 45q102 100 221 100q123 0 138 -84q70 84 185 84q57 0 96.5 -22.5t54.5 -55.5t20.5 -71.5t-5.5 -70.5
q-9 -36 -15 -46h-355q-19 -82 13 -130.5t100 -48.5q98 0 169 83zM358 197l8 35q-140 0 -198 -24t-71 -77q-11 -40 9 -63t71 -23q65 0 115.5 46t65.5 106zM633 433q-60 0 -108 -39.5t-74 -112.5h281q16 62 -9.5 107t-89.5 45z" />
    <glyph glyph-name="uni04D6" unicode="&#x4d6;" horiz-adv-x="645" 
d="M50 0l170 682h453l-16 -63h-377l-61 -240h331l-14 -60h-332l-63 -255h395l-17 -64h-469zM569 884h70q-17 -62 -63 -100t-121 -38q-70 0 -105 40t-24 98h68q-4 -35 11.5 -63t56.5 -28q42 0 69 27.5t38 63.5z" />
    <glyph glyph-name="uni04D7" unicode="&#x4d7;" horiz-adv-x="529" 
d="M402 129l43 -40q-87 -101 -224 -101q-107 0 -152.5 73t-17.5 186q27 112 99.5 178t173.5 66q57 0 96.5 -22.5t54.5 -55.5t20.5 -71.5t-5.5 -70.5q-9 -36 -15 -46h-355q-19 -82 13 -130.5t99 -48.5q99 0 170 83zM318 433q-61 0 -109 -39.5t-74 -112.5h282q16 62 -10 107
t-89 45zM453 689h66q-48 -135 -170 -135q-68 0 -97.5 36.5t-21.5 98.5h66q-5 -88 57 -88q70 0 100 88z" />
    <glyph glyph-name="uni04D8" unicode="&#x4d8;" horiz-adv-x="728" 
d="M194 512l-42 42q123 142 305 142q138 0 202.5 -101.5t24.5 -262.5q-39 -156 -143 -251t-239 -95q-147 0 -203 100t-14 265q1 10 7 25h523q21 117 -25 186t-144 69q-76 0 -136.5 -27.5t-115.5 -91.5zM312 51q97 0 173.5 70.5t114.5 192.5h-445q-25 -120 12 -191.5
t145 -71.5z" />
    <glyph glyph-name="uni04D9" unicode="&#x4d9;" horiz-adv-x="529" 
d="M121 349l-36 46q90 96 220 96q108 0 154.5 -73t18.5 -186q-27 -112 -99.5 -178t-173.5 -66q-46 0 -81 14.5t-53 38t-29 52.5t-9.5 58.5t6.5 55.5q9 34 15 46h355q18 82 -14.5 130.5t-100.5 48.5q-102 0 -173 -83zM211 45q60 0 108.5 40.5t74.5 113.5h-282
q-16 -63 10 -108.5t89 -45.5z" />
    <glyph glyph-name="uni04DC" unicode="&#x4dc;" horiz-adv-x="943" 
d="M880 0h-86l-166 321h-98l-80 -321h-75l80 321h-92l-326 -321h-95l368 360l-184 322h86l162 -298h97l74 298h75l-74 -298h87l310 298h94l-345 -326zM527 761h-75l28 112h76zM750 761h-75l28 112h76z" />
    <glyph glyph-name="uni04DD" unicode="&#x4dd;" horiz-adv-x="752" 
d="M685 0h-82l-126 220h-72l-54 -220h-70l54 220h-65l-236 -220h-88l275 256l-139 222h82l116 -203h69l51 203h70l-51 -203h64l216 203h89l-251 -227zM400 567h-71l28 113h71zM584 567h-71l28 113h71z" />
    <glyph glyph-name="uni04DE" unicode="&#x4de;" horiz-adv-x="639" 
d="M4 109l63 45q52 -104 198 -104q91 0 148.5 35.5t72.5 97.5q17 68 -29 100.5t-146 32.5h-105l16 61h102q189 0 221 127q15 61 -22.5 94.5t-123.5 33.5q-135 0 -231 -98l-34 49q119 113 277 113q123 0 178.5 -53t33.5 -138q-31 -127 -164 -155v-2q67 -12 95 -56.5
t11 -110.5q-22 -90 -102.5 -142.5t-207.5 -52.5q-181 0 -251 123zM357 761h-75l28 112h76zM580 761h-75l28 112h76z" />
    <glyph glyph-name="uni04DF" unicode="&#x4df;" horiz-adv-x="500" 
d="M-8 78l51 43q21 -36 60.5 -56t87.5 -20q126 0 148 84q23 89 -120 89h-87l14 54h88q61 0 99.5 22t48.5 62q9 36 -17 56.5t-83 20.5q-99 0 -169 -68l-34 42q89 84 215 84q94 0 136 -38.5t26 -100.5q-20 -82 -117 -105v-2q50 -10 68 -42.5t6 -79.5q-15 -64 -75 -99.5
t-152 -35.5q-64 0 -115.5 23.5t-78.5 66.5zM264 567h-71l28 113h71zM448 567h-71l28 113h71z" />
    <glyph glyph-name="uni04E2" unicode="&#x4e2;" horiz-adv-x="760" 
d="M591 0h-75l143 573l-529 -573h-80l170 682h75l-143 -571l527 571h82zM674 843l-16 -62h-297l16 62h297z" />
    <glyph glyph-name="uni04E3" unicode="&#x4e3;" horiz-adv-x="590" 
d="M447 0h-70l99 399l-375 -399h-77l119 478h70l-95 -381l360 381h88zM528 647l-15 -58h-269l15 58h269z" />
    <glyph glyph-name="uni04E4" unicode="&#x4e4;" horiz-adv-x="760" 
d="M591 0h-75l143 573l-529 -573h-80l170 682h75l-143 -571l527 571h82zM433 761h-75l28 112h76zM656 761h-75l28 112h76z" />
    <glyph glyph-name="uni04E5" unicode="&#x4e5;" horiz-adv-x="590" 
d="M447 0h-70l99 399l-375 -399h-77l119 478h70l-95 -381l360 381h88zM317 567h-71l28 113h71zM501 567h-71l28 113h71z" />
    <glyph glyph-name="uni04E6" unicode="&#x4e6;" horiz-adv-x="778" 
d="M657 341q33 131 -12 210.5t-159 79.5q-113 0 -198 -79.5t-118 -210.5t12.5 -210.5t158.5 -79.5t198 79.5t118 210.5zM736 337q-40 -160 -151.5 -255.5t-254.5 -95.5q-145 0 -211.5 98.5t-26.5 260.5q40 161 151 256t255 95t211 -99t27 -260zM445 761h-75l28 112h76z
M668 761h-75l28 112h76z" />
    <glyph glyph-name="uni04E7" unicode="&#x4e7;" horiz-adv-x="559" 
d="M434 239q22 84 -6 138.5t-101 54.5q-76 0 -129.5 -54t-74.5 -139q-20 -84 7 -138t100 -54q76 0 129.5 53.5t74.5 138.5zM508 235q-28 -111 -103 -179t-183 -68q-111 0 -155.5 72t-16.5 183q27 111 102 179.5t184 68.5q111 0 155.5 -72.5t16.5 -183.5zM304 567h-71l28 113
h71zM488 567h-71l28 113h71z" />
    <glyph glyph-name="uni04E8" unicode="&#x4e8;" horiz-adv-x="778" 
d="M736 337q-40 -160 -151.5 -255.5t-254.5 -95.5q-145 0 -211.5 98.5t-26.5 260.5q40 161 151 256t255 95t211 -99t27 -260zM341 51q109 0 192 73t119 197h-487q-26 -124 20.5 -197t155.5 -73zM487 632q-104 0 -185 -67.5t-120 -181.5h484q18 114 -29 181.5t-150 67.5z" />
    <glyph glyph-name="uni04E9" unicode="&#x4e9;" horiz-adv-x="559" 
d="M508 235q-28 -111 -103 -179t-183 -68q-111 0 -155.5 72t-16.5 183q27 111 102 179.5t184 68.5q111 0 155.5 -72.5t16.5 -183.5zM230 46q71 0 122.5 47t75.5 123h-311q-13 -76 15.5 -123t97.5 -47zM327 433q-69 0 -119.5 -44.5t-76.5 -117.5h310q11 72 -18.5 117
t-95.5 45z" />
    <glyph glyph-name="uni04EE" unicode="&#x4ee;" horiz-adv-x="610" 
d="M22 -7l15 62h66q45 0 84.5 26.5t89.5 94.5l-153 506h80l130 -429l300 429h86l-370 -513q-70 -98 -128.5 -139.5t-130.5 -41.5q-37 0 -69 5zM618 843l-16 -62h-297l16 62h297z" />
    <glyph glyph-name="uni04EF" unicode="&#x4ef;" horiz-adv-x="488" 
d="M78 -207h-79l152 209l-78 476h78l30 -202q14 -91 22 -195h1q46 83 119 195l132 202h79zM477 647l-15 -58h-269l15 58h269z" />
    <glyph glyph-name="uni04F0" unicode="&#x4f0;" horiz-adv-x="610" 
d="M22 -7l15 62h66q45 0 84.5 26.5t89.5 94.5l-153 506h80l130 -429l300 429h86l-370 -513q-70 -98 -128.5 -139.5t-130.5 -41.5q-37 0 -69 5zM388 761h-75l28 112h76zM611 761h-75l28 112h76z" />
    <glyph glyph-name="uni04F1" unicode="&#x4f1;" horiz-adv-x="488" 
d="M78 -207h-79l152 209l-78 476h78l30 -202q14 -91 22 -195h1q46 83 119 195l132 202h79zM268 567h-71l28 113h71zM452 567h-71l28 113h71z" />
    <glyph glyph-name="uni04F2" unicode="&#x4f2;" horiz-adv-x="610" 
d="M22 -7l15 62h66q45 0 84.5 26.5t89.5 94.5l-153 506h80l130 -429l300 429h86l-370 -513q-70 -98 -128.5 -139.5t-130.5 -41.5q-37 0 -69 5zM292 749l109 132h105l-142 -132h-72zM495 749l126 132h110l-160 -132h-76z" />
    <glyph glyph-name="uni04F3" unicode="&#x4f3;" horiz-adv-x="488" 
d="M78 -207h-79l152 209l-78 476h78l30 -202q14 -91 22 -195h1q46 83 119 195l132 202h79zM187 551l103 141h96l-130 -141h-69zM361 551l120 141h102l-152 -141h-70z" />
    <glyph glyph-name="uni04F4" unicode="&#x4f4;" horiz-adv-x="680" 
d="M510 0h-75l66 268h-191q-240 0 -188 211l51 203h75l-45 -184q-23 -91 6.5 -128.5t118.5 -37.5h189l88 350h75zM375 761h-75l28 112h76zM598 761h-75l28 112h76z" />
    <glyph glyph-name="uni04F5" unicode="&#x4f5;" horiz-adv-x="520" 
d="M376 0h-70l53 215q-26 -35 -68 -54.5t-88 -19.5q-87 0 -119.5 50t-7.5 147l36 140h70l-34 -134q-37 -144 76 -144q61 0 107.5 46t65.5 122l28 110h70zM268 567h-71l28 113h71zM452 567h-71l28 113h71z" />
    <glyph glyph-name="uni04F8" unicode="&#x4f8;" horiz-adv-x="918" 
d="M212 353l-71 -290q55 -1 165 -1q99 0 151 36.5t70 108.5q19 74 -14.5 111t-131.5 37q-113 0 -169 -2zM50 0l170 682h75l-67 -265q57 1 164 1q131 0 185.5 -55t29.5 -158q-53 -206 -315 -206q-115 0 -242 1zM674 0l170 682h75l-170 -682h-75zM515 761h-75l28 112h76z
M738 761h-75l28 112h76z" />
    <glyph glyph-name="uni04F9" unicode="&#x4f9;" horiz-adv-x="702" 
d="M25 4l118 474h70l-39 -154q31 1 84 1q115 0 157 -48.5t21 -131.5q-38 -152 -241 -152q-88 0 -170 11zM159 266l-51 -207q45 -8 89 -8q141 0 167 102q13 57 -12 85.5t-99 28.5q-59 0 -94 -1zM558 0h-70l119 478h70zM375 567h-71l28 113h71zM559 567h-71l28 113h71z" />
    <glyph glyph-name="uni0E3F" unicode="&#xe3f;" 
d="M262 -110h-67l27 109q-34 0 -92 0.5t-90 0.5l170 682q36 0 96 0.5t81 0.5h6l27 105h67l-28 -108q112 -8 153 -60q36 -46 18 -116q-31 -118 -152 -153q60 -15 84 -61t8 -109q-13 -52 -40.5 -88.5t-67 -55.5t-80.5 -27.5t-93 -9.5zM193 316l-62 -254q52 -1 139 -1
q40 0 72 4.5t64.5 17t55 38.5t32.5 65q5 20 5 37t-3.5 29.5t-12 22.5t-18 16.5t-23.5 11t-26.5 7t-29.5 4t-30 2t-30 0.5h-133zM269 620l-60 -244h137q102 0 155 43q40 31 51 80q13 48 -9 79q-18 24 -55.5 33.5t-109.5 9.5q-67 0 -109 -1z" />
    <glyph glyph-name="uni1E02" unicode="&#x1e02;" horiz-adv-x="706" 
d="M204 316l-63 -252q106 -2 165 -2q50 0 83.5 3.5t70.5 15.5t60.5 38t33.5 67q5 21 5 38t-3.5 29.5t-13 22.5t-19 16.5t-25.5 11t-28.5 7t-33 3.5t-34 1.5t-34.5 0.5h-164zM279 618l-60 -242h167q64 0 102.5 8t72.5 35q39 30 52 85q12 45 -10 75q-20 25 -55.5 33t-119.5 8
q-65 0 -149 -2zM50 0l171 682q15 0 90 0.5t131 0.5q95 0 149.5 -14t83.5 -53q33 -44 16 -112q-27 -112 -155 -156q64 -15 87.5 -60t7.5 -108q-10 -39 -28 -68.5t-43.5 -49t-54 -32.5t-65.5 -19.5t-71.5 -9t-77.5 -2.5q-171 0 -241 1zM522 761h-77l28 112h77z" />
    <glyph glyph-name="uni1E03" unicode="&#x1e03;" horiz-adv-x="569" 
d="M83 238l119 473h70l-53 -210q-18 -70 -27 -94h1q70 84 171 84q100 0 141 -72t14 -182q-29 -118 -103 -183.5t-170 -65.5q-50 0 -86.5 22t-52.5 59h-1l-21 -69h-70q35 105 68 238zM154 250l-5 -21q-20 -83 6 -133t93 -50q69 0 122 53.5t74 140.5q22 84 -3 138t-95 54
q-64 0 -118 -49.5t-74 -132.5zM420 567h-72l28 113h72z" />
    <glyph glyph-name="uni1E0A" unicode="&#x1e0a;" horiz-adv-x="726" 
d="M279 618l-138 -554q80 -2 120 -2q76 0 132 16.5t108 67.5q59 58 87 139.5t29 144.5q3 93 -46 143q-46 47 -175 47q-49 0 -117 -2zM50 0l170 682q14 0 82 0.5t108 0.5q161 0 227 -69q65 -68 60 -183q-2 -74 -35.5 -165t-105.5 -162q-64 -63 -137.5 -84t-168.5 -21
q-45 0 -114 0.5t-86 0.5zM511 761h-77l28 112h77z" />
    <glyph glyph-name="uni1E0B" unicode="&#x1e0b;" horiz-adv-x="569" 
d="M413 229l5 19q21 82 -5 133t-94 51q-69 0 -122 -53t-74 -141q-21 -84 3.5 -138t94.5 -54q64 0 117.5 49.5t74.5 133.5zM428 0h-68l15 72q-69 -84 -172 -84q-100 0 -141 72t-13 181q29 118 103 184t170 66q50 0 85.5 -21.5t50.5 -57.5h1q5 30 21 89l53 210h70l-118 -470
q-37 -150 -57 -241zM381 567h-72l28 113h72z" />
    <glyph glyph-name="uni1E1E" unicode="&#x1e1e;" horiz-adv-x="598" 
d="M50 0l170 682h440l-16 -63h-365l-60 -242h319l-16 -61h-319l-78 -316h-75zM496 761h-77l28 112h77z" />
    <glyph glyph-name="uni1E1F" unicode="&#x1e1f;" horiz-adv-x="312" 
d="M121 0h-70l105 422h-103l15 56h102l26 103q31 135 158 135q49 0 86 -16l-19 -59q-35 16 -73 16q-34 0 -53.5 -19.5t-29.5 -60.5l-25 -99h129l-15 -56h-128zM409 800h-72l28 113h72z" />
    <glyph glyph-name="uni1E40" unicode="&#x1e40;" horiz-adv-x="942" 
d="M50 0l170 682h117l60 -344q29 -167 36 -234h1q24 42 151 234l232 344h125l-170 -682h-75l60 240q40 163 97 379h-2q-6 -9 -50 -76t-96 -144l-267 -399h-60l-69 400q-32 182 -36 219h-2q-28 -123 -92 -379l-60 -240h-70zM639 761h-77l28 112h77z" />
    <glyph glyph-name="uni1E41" unicode="&#x1e41;" horiz-adv-x="881" 
d="M742 0h-70l69 273q18 70 10 104q-14 55 -86 55q-51 0 -96 -34q-66 -54 -94 -170l-57 -228h-70l68 273q17 71 10 104q-12 55 -85 55q-53 0 -96 -34q-66 -54 -95 -170l-56 -228h-70l60 240q31 126 55 238h68l-15 -71h1q68 84 167 84q58 0 93 -25.5t41 -72.5q83 98 191 98
q84 0 119 -51t11 -148zM561 567h-72l28 113h72z" />
    <glyph glyph-name="uni1E56" unicode="&#x1e56;" horiz-adv-x="637" 
d="M605 478q17 70 -16.5 105.5t-132.5 35.5q-122 0 -176 -1l-71 -279q56 -1 175 -1q186 0 221 140zM50 0l170 682q35 0 120 0.5t128 0.5q130 0 185 -56t30 -155q-50 -198 -312 -198q-113 0 -178 1l-68 -275h-75zM520 761h-77l28 112h77z" />
    <glyph glyph-name="uni1E57" unicode="&#x1e57;" horiz-adv-x="569" 
d="M154 250l-5 -21q-20 -83 5.5 -133t93.5 -50q69 0 122 53.5t74 140.5q22 84 -3 138t-95 54q-64 0 -118 -49.5t-74 -132.5zM42 -207h-70l112 448q29 115 55 237h69l-16 -71h1q69 84 171 84q100 0 141 -72t14 -182q-29 -118 -103 -183.5t-170 -65.5q-50 0 -86 21.5t-51 57.5
h-1q-5 -27 -21 -89zM415 567h-72l28 113h72z" />
    <glyph glyph-name="uni1E60" unicode="&#x1e60;" horiz-adv-x="655" 
d="M31 117l55 49q78 -117 223 -117q69 0 119 30t62 83q10 42 -6 71.5t-49.5 45.5t-75.5 32t-83 30t-72.5 41t-44.5 64t2 99q18 69 85 110t157 41q80 0 142.5 -26.5t97.5 -73.5l-53 -51q-65 88 -194 88q-136 0 -160 -99q-10 -41 6.5 -69.5t50 -43.5t75 -31t82.5 -30t72.5 -41
t44 -65t-2.5 -101q-19 -77 -92.5 -122t-169.5 -45q-176 0 -271 131zM485 761h-77l28 112h77z" />
    <glyph glyph-name="uni1E61" unicode="&#x1e61;" horiz-adv-x="487" 
d="M8 74l47 47q54 -76 151 -76q105 0 122 68q9 36 -15.5 59t-64 37.5t-78.5 31.5t-60.5 52t-9.5 88q13 53 62.5 81.5t121.5 28.5q52 0 99 -18t74 -50l-46 -48q-48 58 -133 58q-94 0 -108 -59q-7 -30 9 -51t46 -32t64 -26t62.5 -31t42.5 -49t3 -79q-13 -57 -66.5 -87.5
t-130.5 -30.5q-62 0 -113.5 23.5t-78.5 62.5zM350 567h-72l28 113h72z" />
    <glyph glyph-name="uni1E6A" unicode="&#x1e6a;" horiz-adv-x="533" 
d="M169 0l154 619h-237l16 63h548l-16 -63h-236l-154 -619h-75zM435 761h-77l28 112h77z" />
    <glyph glyph-name="uni1E6B" unicode="&#x1e6b;" horiz-adv-x="346" 
d="M123 299l31 122h-100l15 57h98l43 167l77 20l-50 -187h144l-14 -57h-143l-59 -233q-18 -71 -20 -93.5t10 -35.5q12 -12 37 -12q43 0 85 18l-14 -60q-42 -17 -88 -17q-66 0 -89.5 35.5t-4.5 113.5q5 18 13 49.5t15 58.5zM301 723h-72l28 113h72z" />
    <glyph glyph-name="Wgrave" unicode="&#x1e80;" horiz-adv-x="1032" 
d="M723 0h-85l-37 448q-3 54 -3 122h-1q-14 -28 -67 -122l-256 -448h-86l-43 682h81l14 -317q9 -176 13 -281h1q56 105 157 282l179 316h67l24 -317q6 -70 20 -281h1q18 35 45 85.5t58.5 109.5t45.5 85l173 318h83zM620 881l59 -132h-69l-93 132h103z" />
    <glyph glyph-name="wgrave" unicode="&#x1e81;" horiz-adv-x="818" 
d="M551 0h-63l-38 290q-4 31 -10 93h-2q-24 -48 -53 -93l-175 -290h-66l-61 478h75l25 -240q12 -104 14 -151h1q36 67 89 153l145 238h61l28 -229q14 -105 19 -162h1q37 67 92 160l137 231h82zM467 692l50 -141h-64l-80 141h94z" />
    <glyph glyph-name="Wacute" unicode="&#x1e82;" horiz-adv-x="1032" 
d="M723 0h-85l-37 448q-3 54 -3 122h-1q-14 -28 -67 -122l-256 -448h-86l-43 682h81l14 -317q9 -176 13 -281h1q56 105 157 282l179 316h67l24 -317q6 -70 20 -281h1q18 35 45 85.5t58.5 109.5t45.5 85l173 318h83zM596 749l127 132h111l-161 -132h-77z" />
    <glyph glyph-name="wacute" unicode="&#x1e83;" horiz-adv-x="818" 
d="M551 0h-63l-38 290q-4 31 -10 93h-2q-24 -48 -53 -93l-175 -290h-66l-61 478h75l25 -240q12 -104 14 -151h1q36 67 89 153l145 238h61l28 -229q14 -105 19 -162h1q37 67 92 160l137 231h82zM434 551l120 141h102l-151 -141h-71z" />
    <glyph glyph-name="Wdieresis" unicode="&#x1e84;" horiz-adv-x="1032" 
d="M723 0h-85l-37 448q-3 54 -3 122h-1q-14 -28 -67 -122l-256 -448h-86l-43 682h81l14 -317q9 -176 13 -281h1q56 105 157 282l179 316h67l24 -317q6 -70 20 -281h1q18 35 45 85.5t58.5 109.5t45.5 85l173 318h83zM571 761h-75l28 112h76zM794 761h-75l28 112h76z" />
    <glyph glyph-name="wdieresis" unicode="&#x1e85;" horiz-adv-x="818" 
d="M551 0h-63l-38 290q-4 31 -10 93h-2q-24 -48 -53 -93l-175 -290h-66l-61 478h75l25 -240q12 -104 14 -151h1q36 67 89 153l145 238h61l28 -229q14 -105 19 -162h1q37 67 92 160l137 231h82zM432 567h-71l28 113h71zM616 567h-71l28 113h71z" />
    <glyph glyph-name="uni1E9E" unicode="&#x1e9e;" horiz-adv-x="739" 
d="M43 0l112 450q59 245 346 245q131 0 242 -31l-14 -54l-255 -223q111 -2 167.5 -55t31.5 -153q-23 -90 -98 -141.5t-185 -51.5q-76 0 -134 22l24 65q57 -24 122 -24q77 0 127.5 37.5t66.5 98.5q17 67 -21.5 103.5t-137.5 36.5h-68l15 63l259 228q-69 15 -151 15
q-113 0 -176 -43.5t-88 -143.5l-110 -444h-75z" />
    <glyph glyph-name="Ygrave" unicode="&#x1ef2;" horiz-adv-x="604" 
d="M279 0h-75l73 292l-167 390h86l134 -320l292 320h92l-362 -390zM414 881l59 -132h-69l-93 132h103z" />
    <glyph glyph-name="ygrave" unicode="&#x1ef3;" horiz-adv-x="487" 
d="M79 -207h-80l150 208l-76 477h77l30 -202q16 -111 21 -197h1q51 90 120 197l131 202h80zM308 692l50 -141h-64l-80 141h94z" />
    <glyph glyph-name="endash" unicode="&#x2013;" 
d="M601 304l-15 -61h-524l16 61h523z" />
    <glyph glyph-name="emdash" unicode="&#x2014;" horiz-adv-x="968" 
d="M936 304l-15 -61h-873l15 61h873z" />
    <glyph glyph-name="emdash" unicode="&#x2015;" horiz-adv-x="968" 
d="M936 304l-15 -61h-873l15 61h873z" />
    <glyph glyph-name="quotesinglbase" unicode="&#x201a;" horiz-adv-x="256" 
d="M53 136h99l-29 -111q-24 -94 -50.5 -134.5t-95.5 -77.5l-23 40q49 27 69.5 57t34.5 90h-39z" />
    <glyph glyph-name="quotedblleft" unicode="&#x201c;" horiz-adv-x="438" 
d="M418 475h-94l28 111q25 97 51 135t89 74l22 -40q-46 -27 -65 -54.5t-33 -89.5h36zM231 475h-94l28 111q25 97 51 135t89 74l22 -40q-46 -27 -65 -54.5t-33 -89.5h36z" />
    <glyph glyph-name="quotedblright" unicode="&#x201d;" horiz-adv-x="438" 
d="M213 780h94l-29 -115q-22 -90 -51.5 -133t-88.5 -76l-23 41q42 23 63.5 53.5t37.5 93.5h-37zM400 780h93l-29 -115q-22 -90 -51 -133t-88 -76l-23 41q42 23 63.5 53.5t37.5 93.5h-38z" />
    <glyph glyph-name="quotedblbase" unicode="&#x201e;" horiz-adv-x="438" 
d="M52 136h94l-29 -115q-22 -90 -51.5 -133t-88.5 -76l-23 41q42 23 63.5 53.5t37.5 93.5h-37zM239 136h93l-29 -115q-22 -90 -51 -133t-88 -76l-23 41q42 23 63.5 53.5t37.5 93.5h-38z" />
    <glyph glyph-name="dagger" unicode="&#x2020;" horiz-adv-x="489" 
d="M244 96h-71l106 425h-164l16 59h163l44 177h70l-44 -177h165l-15 -59h-165z" />
    <glyph glyph-name="daggerdbl" unicode="&#x2021;" horiz-adv-x="489" 
d="M466 327l-15 -59h-165l-46 -186h-71l47 186h-164l15 59h164l48 194h-164l16 59h163l44 177h70l-44 -177h165l-15 -59h-165l-48 -194h165z" />
    <glyph glyph-name="bullet" unicode="&#x2022;" horiz-adv-x="418" 
d="M357 334q0 -60 -41.5 -100.5t-96.5 -40.5q-53 0 -86.5 34t-33.5 83q0 61 41.5 101t97.5 40q53 0 86 -34t33 -83z" />
    <glyph glyph-name="ellipsis" unicode="&#x2026;" horiz-adv-x="833" 
d="M117 0h-99l36 142h99zM405 0h-99l36 142h99zM693 0h-99l36 142h99z" />
    <glyph glyph-name="perthousand" unicode="&#x2030;" horiz-adv-x="1582" 
d="M918 778h78l-763 -874h-78zM925 124q21 83 3 128t-74 45q-112 0 -156 -173q-43 -173 70 -173q114 0 157 173zM992 121q-26 -106 -86.5 -165.5t-147.5 -59.5q-89 0 -122 62.5t-6 168.5q27 107 87 166t147 59q89 0 122 -62.5t6 -168.5zM1406 124q21 83 3 128t-74 45
q-112 0 -156 -173q-43 -173 70 -173q114 0 157 173zM1473 121q-26 -106 -86.5 -165.5t-147.5 -59.5q-89 0 -122 62.5t-6 168.5q27 107 87 166t147 59q89 0 122 -62.5t6 -168.5zM453 558q21 83 3 128t-74 45q-112 0 -156 -173q-43 -173 70 -173q114 0 157 173zM520 555
q-26 -106 -86.5 -165.5t-147.5 -59.5q-89 0 -122 62.5t-6 168.5q27 107 87 166t147 59q89 0 122 -62.5t6 -168.5z" />
    <glyph glyph-name="guilsinglleft" unicode="&#x2039;" horiz-adv-x="400" 
d="M270 72l-59 -29l-125 234l233 226l51 -33l-191 -200z" />
    <glyph glyph-name="guilsinglright" unicode="&#x203a;" horiz-adv-x="400" 
d="M145 473l60 29l124 -233l-233 -226l-50 32l190 201z" />
    <glyph glyph-name="fraction" unicode="&#x2044;" horiz-adv-x="391" 
d="M564 778h78l-763 -874h-78z" />
    <glyph glyph-name="zero.superior" unicode="&#x2070;" horiz-adv-x="521" 
d="M453 558q21 83 3 128t-74 45q-112 0 -156 -173q-43 -173 70 -173q114 0 157 173zM520 555q-26 -106 -86.5 -165.5t-147.5 -59.5q-89 0 -122 62.5t-6 168.5q27 107 87 166t147 59q89 0 122 -62.5t6 -168.5z" />
    <glyph glyph-name="four.superior" unicode="&#x2074;" horiz-adv-x="484" 
d="M375 338h-66l23 96h-230l14 61l269 283h100l-72 -288h80l-14 -56h-80zM181 487q89 3 165 3l30 119q12 48 30 115h-1z" />
    <glyph glyph-name="uni2081" unicode="&#x2081;" horiz-adv-x="354" 
d="M172 -96h-68l85 340q-47 -33 -140 -33l15 57q125 0 158 78h60z" />
    <glyph glyph-name="uni2082" unicode="&#x2082;" horiz-adv-x="502" 
d="M357 -39l-15 -57h-342l16 65q180 97 242.5 144.5t75.5 99.5q10 40 -8.5 63t-63.5 23q-92 0 -111 -79q-6 -23 -6 -51h-67q-4 23 4 54q16 64 66 96.5t125 32.5q78 0 112 -40.5t20 -100.5q-17 -66 -82 -118.5t-218 -131.5v-1q28 0 81.5 0.5t77.5 0.5h93z" />
    <glyph glyph-name="uni2083" unicode="&#x2083;" horiz-adv-x="499" 
d="M14 28l69 6q0 -46 21.5 -65.5t75.5 -19.5q48 0 80 21t41 59q10 38 -11.5 55.5t-72.5 17.5h-65l12 52h49q63 0 92 23q23 19 32 53q8 32 -11 51t-62 19q-87 0 -124 -72l-58 21q50 103 192 103q73 0 110 -34t24 -89q-18 -72 -96 -97v-1q82 -21 60 -109q-13 -54 -67 -90
t-133 -36q-81 0 -121.5 33.5t-36.5 98.5z" />
    <glyph glyph-name="uni2084" unicode="&#x2084;" horiz-adv-x="484" 
d="M266 -96h-66l23 96h-230l14 61l269 283h100l-72 -288h80l-14 -56h-80zM72 53q89 3 165 3l30 119q12 48 30 115h-1z" />
    <glyph glyph-name="Euro" unicode="&#x20ac;" horiz-adv-x="720" 
d="M452 293l-13 -56h-230q-3 -89 38.5 -138.5t124.5 -49.5q106 0 209 102l36 -49q-107 -116 -258 -116q-109 0 -169 67t-57 184h-100l14 56h91q3 24 11 55q5 21 12 42h-90l14 56h96q54 125 147.5 187.5t200.5 62.5q73 0 126 -31t76 -84l-65 -36q-42 89 -148 89
q-80 0 -147 -48.5t-109 -139.5h229l-14 -56h-238q-10 -32 -14 -49q-8 -35 -10 -48h237z" />
    <glyph glyph-name="uni20AE" unicode="&#x20ae;" 
d="M141 372l190 43l50 203h-248l16 64h572l-16 -64h-249l-46 -185l191 44l-16 -60l-190 -44l-26 -102l190 44l-14 -60l-191 -44l-52 -211h-74l47 193l-189 -44l14 60l190 44l26 102l-190 -43z" />
    <glyph glyph-name="uni20B4" unicode="&#x20b4;" 
d="M115 454h360q43 40 54 82q11 46 -17 72t-87 26q-97 0 -176 -79l-31 53q98 88 220 88q95 0 140 -45.5t28 -113.5q-12 -45 -45 -83h82l-15 -56h-129q-18 -14 -41.5 -28.5t-41.5 -24.5t-46 -25.5t-42 -23.5h275l-15 -56h-346q-52 -41 -63 -83q-13 -54 11.5 -81.5t84.5 -27.5
q117 0 211 93l35 -53q-109 -102 -262 -102q-94 0 -134.5 47t-21.5 125q10 42 46 82h-89l15 56h143q31 20 94.5 55t83.5 47h-296z" />
    <glyph glyph-name="uni20B8" unicode="&#x20b8;" 
d="M671 520l-16 -63h-239l-114 -457h-74l113 457h-239l15 63h554zM158 682h554l-16 -63h-554z" />
    <glyph glyph-name="uni20BA" unicode="&#x20ba;" 
d="M99 409l118 28l61 245h75l-57 -225l239 58l-14 -56l-239 -59l-24 -98l239 58l-15 -57l-238 -58l-46 -185q18 -1 29 -1q100 0 171 16.5t143 55.5l-19 -73q-127 -62 -317 -62q-37 0 -97 4l56 226l-119 -29l15 57l118 29l25 98l-118 -29z" />
    <glyph glyph-name="uni20BD" unicode="&#x20bd;" 
d="M165 0h-75l30 123h-93l14 58h94l25 100h-94l16 60h94l84 341q37 0 104.5 0.5t99.5 0.5q115 0 169 -54t29 -153q-24 -96 -101.5 -145.5t-193.5 -49.5q-87 0 -132 1l-25 -101h229l-14 -58h-230zM585 480q34 141 -133 141q-88 0 -132 -1l-69 -278q46 -1 130 -1
q167 0 204 139z" />
    <glyph glyph-name="afii61289" unicode="&#x2113;" horiz-adv-x="452" 
d="M305 86l20 -47q-63 -51 -126 -51q-65 0 -92.5 43t-22.5 127l-59 -28l-15 58l81 38q9 61 27 130q36 142 74 222.5t76 109t90 28.5q66 0 85 -60t-5 -142q-29 -115 -100.5 -192t-182.5 -130q-10 -72 2 -107.5t54 -35.5q43 0 94 37zM189 352l-21 -90q154 80 198 257
q18 70 13 104t-36 34q-24 0 -45 -21.5t-49.5 -91.5t-59.5 -192z" />
    <glyph glyph-name="uni2116" unicode="&#x2116;" horiz-adv-x="1141" 
d="M952 353q-78 0 -111.5 50t-14.5 126q17 72 71 119.5t132 47.5q77 0 111 -49.5t15 -125.5q-17 -72 -71 -120t-132 -48zM961 407q46 0 80 32t48 87q13 52 -5 84.5t-65 32.5q-46 0 -79.5 -32t-47.5 -86q-13 -53 4.5 -85.5t64.5 -32.5zM1069 237h-302l14 55h302zM584 0h-85
l-154 394q-34 87 -78 205h-1q-10 -43 -87 -362l-59 -237h-70l170 682h92l152 -382q20 -51 77 -206h1q35 163 86 362l56 226h71z" />
    <glyph glyph-name="trademark" unicode="&#x2122;" horiz-adv-x="895" 
d="M171 314l79 318h-124l13 50h306l-13 -50h-123l-79 -318h-59zM416 314l93 368h86l36 -218q5 -30 7 -76h1q21 37 46 75l147 219h91l-91 -368h-58l32 129q29 123 51 192h-1q-14 -27 -46 -74l-166 -247h-44l-43 247q-6 39 -8 74h-1q-17 -73 -46 -192l-32 -129h-54z" />
    <glyph glyph-name="estimated" unicode="&#x212e;" horiz-adv-x="930" 
d="M256 372h483l41 166q8 31 -9 48q-68 64 -204 64q-140 0 -238 -65q-24 -16 -33 -53zM402 -14q-180 0 -265.5 96t-45.5 258q40 160 176.5 258t313.5 98q186 0 268.5 -102.5t35.5 -264.5h-640l-44 -177q-10 -37 14 -59q66 -61 201 -61q87 0 171.5 28.5t143.5 79.5h78
q-70 -71 -178.5 -112.5t-228.5 -41.5z" />
    <glyph glyph-name="partialdiff" unicode="&#x2202;" horiz-adv-x="562" 
d="M224 47q71 0 126.5 54.5t76.5 138.5q21 85 -6.5 138t-97.5 53q-72 0 -125 -54t-74 -138q-21 -83 5 -137.5t95 -54.5zM221 618l8 61q69 19 141 19q255 0 164 -370q-86 -340 -324 -340q-103 0 -145 72.5t-15 181.5q28 110 102 179t179 69q62 0 102.5 -32t48.5 -77h1
q0 8 4 43t5 59t-5.5 57t-23.5 56q-32 43 -104 43q-68 0 -138 -21z" />
    <glyph glyph-name="product" unicode="&#x220f;" horiz-adv-x="803" 
d="M549 -207h-75l230 920h-370l-230 -920h-74l229 920h-130l16 65h781l-16 -65h-131z" />
    <glyph glyph-name="summation" unicode="&#x2211;" horiz-adv-x="654" 
d="M-72 -207l17 67l418 443l-188 411l16 64h543l-15 -66h-221q-158 0 -235 1l188 -413l-418 -442q45 0 133 0.5t132 0.5h221l-16 -66h-575z" />
    <glyph glyph-name="minus" unicode="&#x2212;" 
d="M615 351l-15 -58h-524l15 58h524z" />
    <glyph glyph-name="radical" unicode="&#x221a;" horiz-adv-x="702" 
d="M251 -96h-71l-52 381h-104l15 59h158l21 -172q18 -156 19 -186h2q29 57 160 267l326 525h83z" />
    <glyph glyph-name="infinity" unicode="&#x221e;" horiz-adv-x="973" 
d="M225 120q-89 0 -135.5 57.5t-24.5 145.5q23 93 93 147t163 54q70 0 114 -39.5t83 -111.5q73 72 137 111.5t134 39.5q89 0 135 -57.5t24 -145.5q-23 -93 -93 -147t-163 -54q-70 0 -114.5 39.5t-82.5 110.5q-74 -71 -137.5 -110.5t-132.5 -39.5zM777 465q-54 0 -106 -36.5
t-125 -108.5q36 -70 70 -105.5t87 -35.5q62 0 109 40t62 103q16 63 -9 103t-88 40zM236 179q38 0 80.5 23t71.5 48.5t79 73.5q-18 34 -31 54.5t-32.5 43t-42.5 33t-51 10.5q-62 0 -108.5 -40t-62.5 -103t9 -103t88 -40z" />
    <glyph glyph-name="integral" unicode="&#x222b;" horiz-adv-x="338" 
d="M-110 -202l16 65q34 -21 69 -21q57 0 76 74l185 740q33 130 154 130q49 0 80 -17l-16 -63q-35 20 -70 20q-58 0 -76 -74l-185 -739q-17 -67 -54.5 -98.5t-99.5 -31.5q-42 0 -79 15z" />
    <glyph glyph-name="approxequal" unicode="&#x2248;" 
d="M89 177l-33 43q82 75 161 75q46 0 81.5 -18t66.5 -36t67 -18q50 0 122 57l33 -43q-81 -76 -162 -76q-37 0 -67.5 11.5t-48 25t-43.5 25t-55 11.5q-52 0 -122 -57zM135 364l-33 43q81 76 162 76q37 0 67.5 -11.5t48 -25t43.5 -25t55 -11.5q51 0 122 58l33 -44
q-82 -76 -162 -76q-37 0 -67.5 11.5t-48 25t-43.5 25t-55 11.5q-52 0 -122 -57z" />
    <glyph glyph-name="notequal" unicode="&#x2260;" 
d="M163 27h-76l129 173h-153l16 59h181l94 126h-245l15 59h274l123 166h75l-123 -166h155l-16 -59h-183l-95 -126h249l-16 -59h-278z" />
    <glyph glyph-name="lessequal" unicode="&#x2264;" 
d="M532 59l-14 -59h-504l14 59h504zM585 267l-18 -68l-454 198l18 72l553 198l-18 -75l-297 -106q-117 -40 -168 -55l-1 -2q96 -36 166 -67z" />
    <glyph glyph-name="greaterequal" unicode="&#x2265;" 
d="M532 59l-15 -59h-504l15 59h504zM162 598l18 69l454 -199l-18 -72l-553 -198l17 75l298 106q82 30 167 55l1 2q-117 45 -165 66z" />
    <glyph glyph-name="lozenge" unicode="&#x25ca;" horiz-adv-x="648" 
d="M302 0h-76l-133 340l302 342h76l134 -341zM274 61h2q31 40 248 286q-90 231 -101 274h-2q-21 -29 -247 -286q93 -242 100 -274z" />
    <glyph glyph-name="uniF8FF" unicode="&#xf8ff;" horiz-adv-x="821" 
d="M144 608v-532h532v532h-532zM68 0v684h684v-684h-684zM220 152v380h76v-304h152v-76h-228zM524 152v152h-152v76h152v76h-152v76h228v-380h-76z" />
    <glyph glyph-name="fi" unicode="&#xfb01;" horiz-adv-x="567" 
d="M121 0h-70l105 422h-103l15 56h102l26 103q31 135 158 135q49 0 86 -16l-19 -59q-35 16 -73 16q-34 0 -53.5 -19.5t-29.5 -60.5l-25 -99h129l-15 -56h-128zM423 0h-70l119 478h70zM565 563h-73l30 121h72z" />
    <glyph glyph-name="fl" unicode="&#xfb02;" horiz-adv-x="567" 
d="M121 0h-70l105 422h-103l15 56h102l26 103q31 135 158 135q49 0 86 -16l-19 -59q-35 16 -73 16q-34 0 -53.5 -19.5t-29.5 -60.5l-25 -99h129l-15 -56h-128zM353 0l178 711h70l-178 -711h-70z" />
    <glyph glyph-name="a.2" horiz-adv-x="569" 
d="M482 478h70q-39 -124 -67 -237q-37 -150 -57 -241h-68l15 72q-69 -84 -172 -84q-100 0 -141 72t-13 181q29 118 103 184t170 66q50 0 86 -22t52 -60h1zM413 229l5 20q20 82 -6 132.5t-93 50.5q-69 0 -122 -53t-74 -141q-21 -84 3.5 -138t94.5 -54q64 0 118 50t74 133z
" />
    <glyph glyph-name="agrave.2" horiz-adv-x="569" 
d="M482 478h70q-39 -124 -67 -237q-37 -150 -57 -241h-68l15 72q-69 -84 -172 -84q-100 0 -141 72t-13 181q29 118 103 184t170 66q50 0 86 -22t52 -60h1zM413 229l5 20q20 82 -6 132.5t-93 50.5q-69 0 -122 -53t-74 -141q-21 -84 3.5 -138t94.5 -54q64 0 118 50t74 133z
M363 692l50 -141h-64l-80 141h94z" />
    <glyph glyph-name="aacute.2" horiz-adv-x="569" 
d="M482 478h70q-39 -124 -67 -237q-37 -150 -57 -241h-68l15 72q-69 -84 -172 -84q-100 0 -141 72t-13 181q29 118 103 184t170 66q50 0 86 -22t52 -60h1zM413 229l5 20q20 82 -6 132.5t-93 50.5q-69 0 -122 -53t-74 -141q-21 -84 3.5 -138t94.5 -54q64 0 118 50t74 133z
M326 551l120 141h102l-151 -141h-71z" />
    <glyph glyph-name="acircumflex.2" horiz-adv-x="569" 
d="M482 478h70q-39 -124 -67 -237q-37 -150 -57 -241h-68l15 72q-69 -84 -172 -84q-100 0 -141 72t-13 181q29 118 103 184t170 66q50 0 86 -22t52 -60h1zM413 229l5 20q20 82 -6 132.5t-93 50.5q-69 0 -122 -53t-74 -141q-21 -84 3.5 -138t94.5 -54q64 0 118 50t74 133z
M230 551l134 141h87l64 -141h-65l-52 90l-98 -90h-70z" />
    <glyph glyph-name="atilde.2" horiz-adv-x="569" 
d="M482 478h70q-39 -124 -67 -237q-37 -150 -57 -241h-68l15 72q-69 -84 -172 -84q-100 0 -141 72t-13 181q29 118 103 184t170 66q50 0 86 -22t52 -60h1zM413 229l5 20q20 82 -6 132.5t-93 50.5q-69 0 -122 -53t-74 -141q-21 -84 3.5 -138t94.5 -54q64 0 118 50t74 133z
M274 563h-56q27 118 121 118q28 0 48 -16.5t34 -33t27 -16.5q19 0 30.5 13.5t24.5 48.5h56q-27 -118 -120 -118q-22 0 -40 10.5t-27 22.5t-20.5 22.5t-21.5 10.5q-19 0 -31 -13.5t-25 -48.5z" />
    <glyph glyph-name="adieresis.2" horiz-adv-x="569" 
d="M482 478h70q-39 -124 -67 -237q-37 -150 -57 -241h-68l15 72q-69 -84 -172 -84q-100 0 -141 72t-13 181q29 118 103 184t170 66q50 0 86 -22t52 -60h1zM413 229l5 20q20 82 -6 132.5t-93 50.5q-69 0 -122 -53t-74 -141q-21 -84 3.5 -138t94.5 -54q64 0 118 50t74 133z
M319 567h-71l28 113h71zM503 567h-71l28 113h71z" />
    <glyph glyph-name="amacron.2" horiz-adv-x="569" 
d="M482 478h70q-39 -124 -67 -237q-37 -150 -57 -241h-68l15 72q-69 -84 -172 -84q-100 0 -141 72t-13 181q29 118 103 184t170 66q50 0 86 -22t52 -60h1zM413 229l5 20q20 82 -6 132.5t-93 50.5q-69 0 -122 -53t-74 -141q-21 -84 3.5 -138t94.5 -54q64 0 118 50t74 133z
M529 647l-15 -58h-269l15 58h269z" />
    <glyph glyph-name="abreve.2" horiz-adv-x="569" 
d="M482 478h70q-39 -124 -67 -237q-37 -150 -57 -241h-68l15 72q-69 -84 -172 -84q-100 0 -141 72t-13 181q29 118 103 184t170 66q50 0 86 -22t52 -60h1zM413 229l5 20q20 82 -6 132.5t-93 50.5q-69 0 -122 -53t-74 -141q-21 -84 3.5 -138t94.5 -54q64 0 118 50t74 133z
M486 688h55q-10 -63 -52.5 -98.5t-111.5 -35.5q-64 0 -94.5 34t-11.5 100h55q-6 -39 6 -58t52 -19q78 0 102 77z" />
    <glyph glyph-name="aring.2" horiz-adv-x="569" 
d="M482 478h70q-39 -124 -67 -237q-37 -150 -57 -241h-68l15 72q-69 -84 -172 -84q-100 0 -141 72t-13 181q29 118 103 184t170 66q50 0 86 -22t52 -60h1zM413 229l5 20q20 82 -6 132.5t-93 50.5q-69 0 -122 -53t-74 -141q-21 -84 3.5 -138t94.5 -54q64 0 118 50t74 133z
M496 638q-10 -40 -42 -65t-79 -25q-49 0 -71 28t-12 70q11 40 42.5 65t78.5 25q49 0 71.5 -28t11.5 -70zM439 641q6 21 -2 34.5t-30 13.5t-38 -13.5t-21 -34.5q-4 -20 4.5 -33.5t29.5 -13.5q22 0 37 13.5t20 33.5z" />
    <glyph glyph-name="aringacute.2" horiz-adv-x="569" 
d="M482 478h70q-39 -124 -67 -237q-37 -150 -57 -241h-68l15 72q-69 -84 -172 -84q-100 0 -141 72t-13 181q29 118 103 184t170 66q50 0 86 -22t52 -60h1zM413 229l5 20q20 82 -6 132.5t-93 50.5q-69 0 -122 -53t-74 -141q-21 -84 3.5 -138t94.5 -54q64 0 118 50t74 133z
M492 624q-9 -39 -40.5 -64t-78.5 -25q-49 0 -70.5 28t-11.5 69q9 39 40.5 64t79.5 25t70 -27.5t11 -69.5zM437 628q5 20 -3.5 33.5t-30.5 13.5q-44 0 -57 -47q-5 -21 3.5 -34t30.5 -13q44 0 57 47zM391 767l113 117h103l-145 -117h-71z" />
    <glyph glyph-name="aogonek.2" horiz-adv-x="569" 
d="M413 229l5 20q21 81 -5 132t-94 51q-69 0 -122 -53t-74 -141q-21 -84 3.5 -138t94.5 -54q64 0 118 49.5t74 133.5zM396 -161l-13 -45q-16 -8 -53 -8q-89 0 -89 58q0 33 27 70t95 92l12 66q-69 -84 -172 -84q-100 0 -141 72t-13 181q29 118 103 184t170 66q50 0 86 -22
t52 -60h1l21 69h70q-39 -124 -67 -237q-37 -150 -57 -241q-116 -100 -116 -142q0 -19 33 -19h51z" />
    <glyph glyph-name="ae.2" horiz-adv-x="842" 
d="M718 129l41 -40q-83 -101 -223 -101q-136 0 -166 114q-85 -114 -216 -114q-74 0 -110.5 41t-20.5 105q19 75 99 110t256 35l11 44q27 110 -85 110q-84 0 -171 -87l-37 44q100 101 220 101q123 0 138 -84q70 84 185 84q90 0 132 -38.5t42 -88.5q0 -74 -65.5 -107.5
t-220.5 -33.5h-93q-18 -81 14 -129t100 -48q97 0 170 83zM177 45q65 0 115.5 46t65.5 106l6 26q-141 0 -198 -20.5t-69 -71.5q-11 -40 9 -63t71 -23zM633 433q-61 0 -109.5 -40.5t-74.5 -114.5h87q117 0 160 18.5t43 64.5q0 33 -27 52.5t-79 19.5z" />
    <glyph glyph-name="aeacute.2" horiz-adv-x="842" 
d="M718 129l41 -40q-83 -101 -223 -101q-136 0 -166 114q-85 -114 -216 -114q-74 0 -110.5 41t-20.5 105q19 75 99 110t256 35l11 44q27 110 -85 110q-84 0 -171 -87l-37 44q100 101 220 101q123 0 138 -84q70 84 185 84q90 0 132 -38.5t42 -88.5q0 -74 -65.5 -107.5
t-220.5 -33.5h-93q-18 -81 14 -129t100 -48q97 0 170 83zM177 45q65 0 115.5 46t65.5 106l6 26q-141 0 -198 -20.5t-69 -71.5q-11 -40 9 -63t71 -23zM633 433q-61 0 -109.5 -40.5t-74.5 -114.5h87q117 0 160 18.5t43 64.5q0 33 -27 52.5t-79 19.5zM466 551l120 141h102
l-151 -141h-71z" />
    <glyph glyph-name="e.2" horiz-adv-x="527" 
d="M403 129l41 -40q-83 -101 -223 -101q-107 0 -152.5 73t-17.5 186q27 112 99.5 178t173.5 66q90 0 132 -38.5t42 -88.5q0 -74 -68 -110t-223 -36h-89q-16 -79 16 -125.5t98 -46.5q97 0 171 83zM318 433q-63 0 -111.5 -42t-73.5 -118h83q117 0 162.5 20.5t45.5 67.5
q0 33 -27 52.5t-79 19.5z" />
    <glyph glyph-name="egrave.2" horiz-adv-x="527" 
d="M403 129l41 -40q-83 -101 -223 -101q-107 0 -152.5 73t-17.5 186q27 112 99.5 178t173.5 66q90 0 132 -38.5t42 -88.5q0 -74 -68 -110t-223 -36h-89q-16 -79 16 -125.5t98 -46.5q97 0 171 83zM318 433q-63 0 -111.5 -42t-73.5 -118h83q117 0 162.5 20.5t45.5 67.5
q0 33 -27 52.5t-79 19.5zM333 692l50 -141h-64l-80 141h94z" />
    <glyph glyph-name="eacute.2" horiz-adv-x="527" 
d="M403 129l41 -40q-83 -101 -223 -101q-107 0 -152.5 73t-17.5 186q27 112 99.5 178t173.5 66q90 0 132 -38.5t42 -88.5q0 -74 -68 -110t-223 -36h-89q-16 -79 16 -125.5t98 -46.5q97 0 171 83zM318 433q-63 0 -111.5 -42t-73.5 -118h83q117 0 162.5 20.5t45.5 67.5
q0 33 -27 52.5t-79 19.5zM296 551l120 141h102l-151 -141h-71z" />
    <glyph glyph-name="ecircumflex.2" horiz-adv-x="527" 
d="M403 129l41 -40q-83 -101 -223 -101q-107 0 -152.5 73t-17.5 186q27 112 99.5 178t173.5 66q90 0 132 -38.5t42 -88.5q0 -74 -68 -110t-223 -36h-89q-16 -79 16 -125.5t98 -46.5q97 0 171 83zM318 433q-63 0 -111.5 -42t-73.5 -118h83q117 0 162.5 20.5t45.5 67.5
q0 33 -27 52.5t-79 19.5zM200 551l134 141h87l64 -141h-65l-52 90l-98 -90h-70z" />
    <glyph glyph-name="ecaron.2" horiz-adv-x="527" 
d="M403 129l41 -40q-83 -101 -223 -101q-107 0 -152.5 73t-17.5 186q27 112 99.5 178t173.5 66q90 0 132 -38.5t42 -88.5q0 -74 -68 -110t-223 -36h-89q-16 -79 16 -125.5t98 -46.5q97 0 171 83zM318 433q-63 0 -111.5 -42t-73.5 -118h83q117 0 162.5 20.5t45.5 67.5
q0 33 -27 52.5t-79 19.5zM520 692l-136 -141h-85l-65 141h65l52 -91l98 91h71z" />
    <glyph glyph-name="edieresis.2" horiz-adv-x="527" 
d="M403 129l41 -40q-83 -101 -223 -101q-107 0 -152.5 73t-17.5 186q27 112 99.5 178t173.5 66q90 0 132 -38.5t42 -88.5q0 -74 -68 -110t-223 -36h-89q-16 -79 16 -125.5t98 -46.5q97 0 171 83zM318 433q-63 0 -111.5 -42t-73.5 -118h83q117 0 162.5 20.5t45.5 67.5
q0 33 -27 52.5t-79 19.5zM289 567h-71l28 113h71zM473 567h-71l28 113h71z" />
    <glyph glyph-name="emacron.2" horiz-adv-x="527" 
d="M403 129l41 -40q-83 -101 -223 -101q-107 0 -152.5 73t-17.5 186q27 112 99.5 178t173.5 66q90 0 132 -38.5t42 -88.5q0 -74 -68 -110t-223 -36h-89q-16 -79 16 -125.5t98 -46.5q97 0 171 83zM318 433q-63 0 -111.5 -42t-73.5 -118h83q117 0 162.5 20.5t45.5 67.5
q0 33 -27 52.5t-79 19.5zM500 647l-15 -58h-269l15 58h269z" />
    <glyph glyph-name="edotaccent.2" horiz-adv-x="527" 
d="M403 129l41 -40q-83 -101 -223 -101q-107 0 -152.5 73t-17.5 186q27 112 99.5 178t173.5 66q90 0 132 -38.5t42 -88.5q0 -74 -68 -110t-223 -36h-89q-16 -79 16 -125.5t98 -46.5q97 0 171 83zM318 433q-63 0 -111.5 -42t-73.5 -118h83q117 0 162.5 20.5t45.5 67.5
q0 33 -27 52.5t-79 19.5zM382 567h-72l28 113h72z" />
    <glyph glyph-name="ebreve.2" horiz-adv-x="527" 
d="M403 129l41 -40q-83 -101 -223 -101q-107 0 -152.5 73t-17.5 186q27 112 99.5 178t173.5 66q90 0 132 -38.5t42 -88.5q0 -74 -68 -110t-223 -36h-89q-16 -79 16 -125.5t98 -46.5q97 0 171 83zM318 433q-63 0 -111.5 -42t-73.5 -118h83q117 0 162.5 20.5t45.5 67.5
q0 33 -27 52.5t-79 19.5zM456 688h55q-10 -63 -52.5 -98.5t-111.5 -35.5q-64 0 -94.5 34t-11.5 100h55q-6 -39 6 -58t52 -19q78 0 102 77z" />
    <glyph glyph-name="eogonek.2" horiz-adv-x="527" 
d="M335 -161l-12 -45q-18 -8 -54 -8q-88 0 -88 58q0 28 19.5 59.5t74.5 88.5q-20 -4 -54 -4q-107 0 -152.5 73t-17.5 186q27 112 99.5 178t173.5 66q90 0 132 -38.5t42 -88.5q0 -74 -68 -110t-223 -36h-89q-16 -78 16 -125t98 -47q97 0 171 83l41 -39q-16 -19 -55 -56.5
t-69 -71.5q-68 -76 -68 -104q0 -19 32 -19h51zM133 273h83q117 0 162.5 20.5t45.5 67.5q0 33 -27 52.5t-79 19.5q-63 0 -112 -42t-73 -118z" />
    <glyph glyph-name="uni0259.001" horiz-adv-x="529" 
d="M126 349l-41 40q84 102 223 102q107 0 152.5 -73t17.5 -186q-27 -112 -99.5 -178t-173.5 -66q-90 0 -132 38.5t-42 90.5q0 77 69 116.5t222 39.5h91q11 73 -21.5 116.5t-94.5 43.5q-97 0 -171 -84zM211 45q64 0 114.5 46t74.5 128h-87q-116 0 -162 -24t-46 -74
q0 -76 106 -76z" />
    <glyph glyph-name="f.2" horiz-adv-x="312" 
d="M226 422l-114 -459q-24 -101 -61.5 -139.5t-106.5 -38.5q-32 0 -50 5l13 53h43q36 0 56 29t37 96l113 454h-103l15 56h102l26 103q31 135 158 135q49 0 86 -16l-19 -59q-35 16 -73 16q-34 0 -53.5 -19.5t-29.5 -60.5l-25 -99h129l-15 -56h-128z" />
    <glyph glyph-name="uni1E1F.2" horiz-adv-x="311" 
d="M226 422l-114 -459q-24 -101 -61.5 -139.5t-106.5 -38.5q-32 0 -50 5l13 53h43q36 0 56 29t37 96l113 454h-103l15 56h102l26 103q31 135 158 135q49 0 86 -16l-19 -59q-35 16 -73 16q-34 0 -53.5 -19.5t-29.5 -60.5l-25 -99h129l-15 -56h-128zM409 800h-72l28 113h72z
" />
    <glyph glyph-name="fi.2" horiz-adv-x="567" 
d="M226 422l-114 -459q-24 -101 -61.5 -139.5t-106.5 -38.5q-32 0 -50 5l13 53h43q36 0 56 29t37 96l113 454h-103l15 56h102l26 103q31 135 158 135q49 0 86 -16l-19 -59q-35 16 -73 16q-34 0 -53.5 -19.5t-29.5 -60.5l-25 -99h129l-15 -56h-128zM423 0h-70l119 478h70z
M565 563h-73l30 121h72z" />
    <glyph glyph-name="fl.2" horiz-adv-x="567" 
d="M226 422l-114 -459q-24 -101 -61.5 -139.5t-106.5 -38.5q-32 0 -50 5l13 53h43q36 0 56 29t37 96l113 454h-103l15 56h102l26 103q31 135 158 135q49 0 86 -16l-19 -59q-35 16 -73 16q-34 0 -53.5 -19.5t-29.5 -60.5l-25 -99h129l-15 -56h-128zM353 0l178 711h70
l-178 -711h-70z" />
    <glyph glyph-name="oe.2" horiz-adv-x="909" 
d="M786 129l41 -40q-83 -101 -223 -101q-69 0 -110 31.5t-52 89.5q-85 -121 -220 -121q-111 0 -155.5 72t-16.5 183q27 111 102 179.5t184 68.5q69 0 110.5 -32t52.5 -88q82 120 208 120q90 0 132 -38.5t42 -88.5q0 -74 -68 -110t-223 -36h-89q-15 -81 17 -126.5t97 -45.5
q97 0 171 83zM434 239q22 84 -6 138.5t-101 54.5q-76 0 -129.5 -54t-74.5 -139q-20 -84 7 -138t100 -54q76 0 129.5 53.5t74.5 138.5zM700 433q-62 0 -111 -42t-74 -118h83q117 0 163 20.5t46 67.5q0 33 -27.5 52.5t-79.5 19.5z" />
    <glyph glyph-name="germandbls.2" horiz-adv-x="569" 
d="M221 508l-136 -545q-24 -101 -61.5 -139.5t-106.5 -38.5q-27 0 -50 5l12 53h44q36 0 56 29t37 96l136 545q50 203 252 203q99 0 137 -48t22 -110q-11 -44 -42 -73t-62 -40.5t-58.5 -30t-34.5 -44.5q-6 -25 9 -47.5t39 -38.5t47.5 -41t34.5 -55.5t-1 -82.5
q-14 -57 -61.5 -87t-112.5 -30q-83 0 -123 36l31 54q42 -33 97 -33q82 0 100 70q8 31 -6 55.5t-38 43t-48 38.5t-36.5 51t-2.5 70q10 40 40 66t60.5 37.5t59.5 33t37 52.5q10 39 -13 67.5t-87 28.5q-134 0 -171 -150z" />
    <glyph glyph-name="longs.2" horiz-adv-x="257" 
d="M238 577l-153 -614q-25 -101 -62 -139.5t-106 -38.5q-27 0 -50 5l12 53h44q36 0 57 29t37 96l150 609q33 139 161 139q45 0 84 -15l-19 -60q-34 16 -72 16q-34 0 -53.5 -19.5t-29.5 -60.5z" />
    <glyph glyph-name="uni0430.2" horiz-adv-x="569" 
d="M482 478h70q-39 -124 -67 -237q-37 -150 -57 -241h-68l15 72q-69 -84 -172 -84q-100 0 -141 72t-13 181q29 118 103 184t170 66q50 0 86 -22t52 -60h1zM413 229l5 20q20 82 -6 132.5t-93 50.5q-69 0 -122 -53t-74 -141q-21 -84 3.5 -138t94.5 -54q64 0 118 50t74 133z
" />
    <glyph glyph-name="uni04D3.2" horiz-adv-x="569" 
d="M482 478h70q-39 -124 -67 -237q-37 -150 -57 -241h-68l15 72q-69 -84 -172 -84q-100 0 -141 72t-13 181q29 118 103 184t170 66q50 0 86 -22t52 -60h1zM413 229l5 20q20 82 -6 132.5t-93 50.5q-69 0 -122 -53t-74 -141q-21 -84 3.5 -138t94.5 -54q64 0 118 50t74 133z
M285 567h-71l28 113h71zM469 567h-71l28 113h71z" />
    <glyph glyph-name="uni04D1.2" horiz-adv-x="569" 
d="M482 478h70q-39 -124 -67 -237q-37 -150 -57 -241h-68l15 72q-69 -84 -172 -84q-100 0 -141 72t-13 181q29 118 103 184t170 66q50 0 86 -22t52 -60h1zM413 229l5 20q20 82 -6 132.5t-93 50.5q-69 0 -122 -53t-74 -141q-21 -84 3.5 -138t94.5 -54q64 0 118 50t74 133z
M464 689h66q-48 -135 -170 -135q-68 0 -97.5 36.5t-21.5 98.5h66q-5 -88 57 -88q70 0 100 88z" />
    <glyph glyph-name="uni04D5.2" horiz-adv-x="842" 
d="M718 129l41 -40q-83 -101 -223 -101q-136 0 -166 114q-85 -114 -216 -114q-74 0 -110.5 41t-20.5 105q19 75 99 110t256 35l11 44q27 110 -85 110q-84 0 -171 -87l-37 44q100 101 220 101q123 0 138 -84q70 84 185 84q90 0 132 -38.5t42 -88.5q0 -74 -65.5 -107.5
t-220.5 -33.5h-93q-18 -81 14 -129t100 -48q97 0 170 83zM177 45q65 0 115.5 46t65.5 106l6 26q-141 0 -198 -20.5t-69 -71.5q-11 -40 9 -63t71 -23zM633 433q-61 0 -109.5 -40.5t-74.5 -114.5h87q117 0 160 18.5t43 64.5q0 33 -27 52.5t-79 19.5z" />
    <glyph glyph-name="uni0431.SRB" horiz-adv-x="559" 
d="M587 711l-16 -63h-204q-88 0 -96 -42q-8 -31 23.5 -55t88 -52t82.5 -54q76 -75 41 -213q-26 -109 -102 -176.5t-185 -67.5q-111 0 -154 73t-15 184q23 94 81 156t142 81q-98 48 -75 133q24 96 185 96h204zM326 431q-74 0 -128.5 -54.5t-75.5 -137.5q-20 -83 8.5 -137.5
t100.5 -54.5q73 0 127.5 54.5t75.5 137.5t-7 137.5t-101 54.5z" />
    <glyph glyph-name="uni0432.bul" horiz-adv-x="544" 
d="M67 199l78 313q26 106 83.5 159.5t156.5 53.5q88 0 127.5 -50t19.5 -131q-29 -117 -142 -157q62 -19 85.5 -70t5.5 -126q-24 -92 -88 -147.5t-165 -55.5q-106 0 -146 56.5t-15 154.5zM175 353l-40 -160q-17 -66 8.5 -106.5t91.5 -40.5q68 0 112 42.5t62 111.5
q16 69 -12 111t-112 42h-110zM215 509l-25 -100h95q66 0 112.5 40t62.5 102q13 53 -8.5 84.5t-77.5 31.5q-60 0 -99 -38t-60 -120z" />
    <glyph glyph-name="uni0433.bul" horiz-adv-x="460" 
d="M357 122l31 -51q-99 -83 -221 -83q-82 0 -123.5 37.5t-24.5 103.5q12 47 48.5 77.5t81.5 45t89.5 26.5t78.5 32.5t42 52.5t-11.5 51t-67.5 19q-81 0 -152 -61l-30 49q92 70 194 70q79 0 117 -37t24 -96q-12 -47 -48.5 -77.5t-81.5 -44.5t-89.5 -26t-79 -32.5t-42.5 -53.5
q-9 -37 13.5 -58t75.5 -21q92 0 176 77z" />
    <glyph glyph-name="uni0433.MKD" horiz-adv-x="238" 
d="M94 0h-70l119 478h70zM354 647l-15 -58h-269l15 58h269z" />
    <glyph glyph-name="uni0453.2" horiz-adv-x="460" 
d="M357 122l31 -51q-99 -83 -221 -83q-82 0 -123.5 37.5t-24.5 103.5q12 47 48.5 77.5t81.5 45t89.5 26.5t78.5 32.5t42 52.5t-11.5 51t-67.5 19q-81 0 -152 -61l-30 49q92 70 194 70q79 0 117 -37t24 -96q-12 -47 -48.5 -77.5t-81.5 -44.5t-89.5 -26t-79 -32.5t-42.5 -53.5
q-9 -37 13.5 -58t75.5 -21q92 0 176 77zM266 551l120 141h102l-151 -141h-71z" />
    <glyph glyph-name="uni0453.MKD" horiz-adv-x="238" 
d="M94 0h-70l119 478h70zM162 551l120 141h102l-151 -141h-71z" />
    <glyph glyph-name="uni0491.2" horiz-adv-x="404" 
d="M24 0l86 345q20 80 58 106.5t122 26.5h102l35 143h62l-49 -199h-164q-42 0 -64 -18t-34 -65l-84 -339h-70z" />
    <glyph glyph-name="uni0493.2" horiz-adv-x="460" 
d="M363 101l21 -51q-101 -62 -215 -62q-82 0 -124 37.5t-25 103.5q19 80 125 120l-89 38l21 47l144 -62q31 10 48 16t38.5 17t33.5 25t17 33q8 32 -11.5 51t-67.5 19q-78 0 -155 -39l-19 50q88 47 186 47q79 0 117 -37t24 -96q-20 -81 -129 -121l100 -42l-21 -47l-155 66
q-39 -12 -62 -21t-44.5 -27t-27.5 -42q-9 -37 13.5 -58t75.5 -21q96 0 181 56z" />
    <glyph glyph-name="uni0434.bul" horiz-adv-x="571" 
d="M484 478h69q0 -1 -4 -12.5t-10 -32t-14 -46.5t-18.5 -65t-20.5 -81q-9 -35 -30.5 -126.5t-31.5 -133.5q-25 -98 -83.5 -148t-166.5 -50q-146 0 -192 117l60 39q35 -98 140 -98q136 0 170 138q2 6 11 40t14 53h-1q-71 -83 -172 -83q-100 0 -141 71.5t-13 181.5
q29 117 102.5 183t169.5 66q51 0 87 -22t52 -60h1zM415 230l4 18q20 82 -5.5 133t-93.5 51q-69 0 -122 -53t-74 -140q-21 -84 3.5 -138t94.5 -54q64 0 118 49.5t75 133.5z" />
    <glyph glyph-name="uni0435.2" horiz-adv-x="527" 
d="M403 129l41 -40q-83 -101 -223 -101q-107 0 -152.5 73t-17.5 186q27 112 99.5 178t173.5 66q90 0 132 -38.5t42 -88.5q0 -74 -68 -110t-223 -36h-89q-16 -79 16 -125.5t98 -46.5q97 0 171 83zM318 433q-63 0 -111.5 -42t-73.5 -118h83q117 0 162.5 20.5t45.5 67.5
q0 33 -27 52.5t-79 19.5z" />
    <glyph glyph-name="uni0450.2" horiz-adv-x="527" 
d="M403 129l41 -40q-83 -101 -223 -101q-107 0 -152.5 73t-17.5 186q27 112 99.5 178t173.5 66q90 0 132 -38.5t42 -88.5q0 -74 -68 -110t-223 -36h-89q-16 -79 16 -125.5t98 -46.5q97 0 171 83zM318 433q-63 0 -111.5 -42t-73.5 -118h83q117 0 162.5 20.5t45.5 67.5
q0 33 -27 52.5t-79 19.5zM331 692l50 -141h-64l-80 141h94z" />
    <glyph glyph-name="uni0451.2" horiz-adv-x="527" 
d="M403 129l41 -40q-83 -101 -223 -101q-107 0 -152.5 73t-17.5 186q27 112 99.5 178t173.5 66q90 0 132 -38.5t42 -88.5q0 -74 -68 -110t-223 -36h-89q-16 -79 16 -125.5t98 -46.5q97 0 171 83zM318 433q-63 0 -111.5 -42t-73.5 -118h83q117 0 162.5 20.5t45.5 67.5
q0 33 -27 52.5t-79 19.5zM292 567h-71l28 113h71zM476 567h-71l28 113h71z" />
    <glyph glyph-name="uni04D7.2" horiz-adv-x="527" 
d="M403 129l41 -40q-83 -101 -223 -101q-107 0 -152.5 73t-17.5 186q27 112 99.5 178t173.5 66q90 0 132 -38.5t42 -88.5q0 -74 -68 -110t-223 -36h-89q-16 -79 16 -125.5t98 -46.5q97 0 171 83zM318 433q-63 0 -111.5 -42t-73.5 -118h83q117 0 162.5 20.5t45.5 67.5
q0 33 -27 52.5t-79 19.5zM449 689h66q-48 -135 -170 -135q-68 0 -97.5 36.5t-21.5 98.5h66q-5 -88 57 -88q70 0 100 88z" />
    <glyph glyph-name="uni04D9.2" horiz-adv-x="529" 
d="M126 349l-41 40q84 102 223 102q107 0 152.5 -73t17.5 -186q-27 -112 -99.5 -178t-173.5 -66q-90 0 -132 38.5t-42 90.5q0 77 69 116.5t222 39.5h91q11 73 -21.5 116.5t-94.5 43.5q-97 0 -171 -84zM211 45q64 0 114.5 46t74.5 128h-87q-116 0 -162 -24t-46 -74
q0 -76 106 -76z" />
    <glyph glyph-name="uni0436.bul" horiz-adv-x="752" 
d="M686 0h-80l-126 228h-73l-56 -228h-70l56 228h-64l-238 -228h-90l278 262l-141 216h83l119 -195h67l107 428h70l-107 -428h63l214 195h91l-250 -219z" />
    <glyph glyph-name="uni0438.bul" horiz-adv-x="554" 
d="M413 0h-69l17 72h-1q-69 -84 -166 -84q-84 0 -119.5 51.5t-11.5 147.5l75 291h69l-68 -273q-19 -69 -10 -104q14 -55 81 -55q56 0 100 35q64 51 93 173l57 224h70l-60 -240q-27 -106 -57 -238z" />
    <glyph glyph-name="uni0419.bul" horiz-adv-x="760" 
d="M591 0h-75l143 573l-529 -573h-80l170 682h75l-143 -571l527 571h82zM659 840l12 -52q-65 -38 -163 -38q-103 0 -157 41l36 49q54 -31 130 -31q81 0 142 31z" />
    <glyph glyph-name="uni0439.bul" horiz-adv-x="554" 
d="M413 0h-69l17 72h-1q-69 -84 -166 -84q-84 0 -119.5 51.5t-11.5 147.5l75 291h69l-68 -273q-19 -69 -10 -104q14 -55 81 -55q56 0 100 35q64 51 93 173l57 224h70l-60 -240q-27 -106 -57 -238zM505 664l11 -49q-63 -37 -150 -37q-97 0 -149 40l35 46q52 -29 125 -29
q69 0 128 29z" />
    <glyph glyph-name="uni0439.2" horiz-adv-x="554" 
d="M413 0h-69l17 72h-1q-69 -84 -166 -84q-84 0 -119.5 51.5t-11.5 147.5l75 291h69l-68 -273q-19 -69 -10 -104q14 -55 81 -55q56 0 100 35q64 51 93 173l57 224h70l-60 -240q-27 -106 -57 -238zM459 689h66q-48 -135 -170 -135q-68 0 -97.5 36.5t-21.5 98.5h66
q-5 -88 57 -88q70 0 100 88z" />
    <glyph glyph-name="uni04E3.2" horiz-adv-x="554" 
d="M413 0h-69l17 72h-1q-69 -84 -166 -84q-84 0 -119.5 51.5t-11.5 147.5l75 291h69l-68 -273q-19 -69 -10 -104q14 -55 81 -55q56 0 100 35q64 51 93 173l57 224h70l-60 -240q-27 -106 -57 -238zM506 647l-15 -58h-269l15 58h269z" />
    </font>
</defs>
</svg>
