<?xml version="1.0" standalone="no"?>
<!DOCTYPE svg PUBLIC "-//W3C//DTD SVG 1.1//EN" "http://www.w3.org/Graphics/SVG/1.1/DTD/svg11.dtd" >
<svg xmlns="http://www.w3.org/2000/svg" xmlns:xlink="http://www.w3.org/1999/xlink" version="1.1">
<metadata>
Created by FontForge 20170731 at Wed Jun 12 15:44:12 2019
 By Aleksey,,,
Volvo Novum is created exclusively for Volvo Trademark Holding Aktiebolag. Copyright 2019 Volvo Trademark Holding Aktiebolag. All rights reserved.
</metadata>
<defs>
<font id="VolvoNovum-Regular" horiz-adv-x="650" >
  <font-face 
    font-family="Volvo Novum"
    font-weight="400"
    font-stretch="normal"
    units-per-em="1000"
    panose-1="2 11 5 3 4 5 2 6 2 4"
    ascent="780"
    descent="-220"
    x-height="481"
    cap-height="682"
    bbox="-118 -215 1515 980"
    underline-thickness="70"
    underline-position="-321"
    unicode-range="U+000D-FB02"
  />
<missing-glyph horiz-adv-x="1081" 
d="M988 -207h-895q-12 0 -12 11v36t0.5 90.5t0.5 120.5v139.5v134.5v140.5v156.5t-0.5 141.5t-0.5 108.5v43q0 11 12 11h895q12 0 12 -11v-43v-108.5t-0.5 -141.5t-0.5 -156.5v-140.5v-134.5t0.5 -139.5t0.5 -120.5v-90.5v-36q0 -11 -12 -11zM162 853v-987h757v987h-757z
M589 0h-100v133h100v-133zM499 210l-1 66q-1 37 17 65t43.5 47t51.5 38t44.5 48t18.5 66q0 46 -39 79t-104 33q-64 0 -106 -34t-42 -94q0 -36 5 -55h-83q-7 20 -7 52q0 93 65 148t171 55q103 0 167 -50.5t64 -130.5q0 -48 -19 -84.5t-45.5 -58t-53.5 -40t-46 -41t-20 -49.5
l-2 -60h-79z" />
    <glyph glyph-name=".notdef" horiz-adv-x="1081" 
d="M988 -207h-895q-12 0 -12 11v36t0.5 90.5t0.5 120.5v139.5v134.5v140.5v156.5t-0.5 141.5t-0.5 108.5v43q0 11 12 11h895q12 0 12 -11v-43v-108.5t-0.5 -141.5t-0.5 -156.5v-140.5v-134.5t0.5 -139.5t0.5 -120.5v-90.5v-36q0 -11 -12 -11zM162 853v-987h757v987h-757z
M589 0h-100v133h100v-133zM499 210l-1 66q-1 37 17 65t43.5 47t51.5 38t44.5 48t18.5 66q0 46 -39 79t-104 33q-64 0 -106 -34t-42 -94q0 -36 5 -55h-83q-7 20 -7 52q0 93 65 148t171 55q103 0 167 -50.5t64 -130.5q0 -48 -19 -84.5t-45.5 -58t-53.5 -40t-46 -41t-20 -49.5
l-2 -60h-79z" />
    <glyph glyph-name=".null" horiz-adv-x="0" 
 />
    <glyph glyph-name=".null" horiz-adv-x="0" 
 />
    <glyph glyph-name="nonmarkingreturn" horiz-adv-x="333" 
 />
    <glyph glyph-name="CR" unicode="&#xd;" horiz-adv-x="256" 
 />
    <glyph glyph-name="space" unicode=" " horiz-adv-x="254" 
 />
    <glyph glyph-name="space" unicode="&#xa0;" horiz-adv-x="254" 
 />
    <glyph glyph-name="exclam" unicode="!" horiz-adv-x="353" 
d="M226 0h-100v133h100v-133zM216 210h-79l-12 500h102z" />
    <glyph glyph-name="quotedbl" unicode="&#x22;" horiz-adv-x="444" 
d="M159 449h-70l-10 281h89zM356 449h-71l-9 281h89z" />
    <glyph glyph-name="numbersign" unicode="#" horiz-adv-x="700" 
d="M185 0h-76l34 171h-110v68h123l40 204h-110v68h123l34 171h75l-33 -171h196l34 171h75l-33 -171h110v-68h-123l-41 -204h111v-68h-124l-33 -171h-75l33 171h-197zM231 239h198l39 204h-197z" />
    <glyph glyph-name="dollar" unicode="$" horiz-adv-x="667" 
d="M367 -101h-77v114q-130 18 -218 115l49 62q96 -108 223 -108q67 0 107.5 30t40.5 79q0 41 -29.5 67t-73.5 35.5t-95.5 23.5t-95.5 30.5t-73.5 56.5t-29.5 100q0 74 53.5 119.5t141.5 52.5v113h77v-115q55 -9 97 -28t85 -59l-46 -66q-84 84 -189 84q-62 0 -96.5 -26
t-34.5 -70q0 -35 22 -58t57 -34.5t77.5 -20.5t84.5 -21.5t77 -31.5t57 -56.5t22 -90.5q0 -78 -61 -129t-152 -57v-111z" />
    <glyph glyph-name="percent" unicode="%" horiz-adv-x="1104" 
d="M370 558q0 164 -108 164q-109 0 -109 -164t109 -164q108 0 108 164zM449 559q0 -106 -49.5 -168t-139.5 -62q-91 0 -138 60.5t-47 167.5q0 106 49.5 168t138.5 62q91 0 138.5 -60.5t47.5 -167.5zM781 778h86l-544 -874h-87zM951 124q0 164 -108 164q-109 0 -109 -164
t109 -164q108 0 108 164zM1030 125q0 -106 -49.5 -168t-139.5 -62q-91 0 -138 60.5t-47 167.5q0 106 49.5 168t138.5 62q91 0 138.5 -60.5t47.5 -167.5z" />
    <glyph glyph-name="ampersand" unicode="&#x26;" horiz-adv-x="769" 
d="M758 43l-49 -63q-77 53 -149 106q-106 -101 -260 -101q-113 0 -182.5 54t-69.5 145q0 72 38.5 118t106.5 81q-86 91 -86 168q0 82 55 127.5t149 45.5q95 0 147 -46t52 -112q0 -38 -14.5 -68.5t-46 -54.5t-56.5 -38t-70 -35q75 -65 226 -177q51 91 51 217h83
q0 -152 -72 -262zM304 55q119 0 196 74q-161 119 -255 203q-52 -28 -80.5 -61t-28.5 -81q0 -62 45 -98.5t123 -36.5zM193 556q0 -31 16 -61.5t61 -75.5q39 17 60 27.5t46 28t36.5 38.5t11.5 47q0 43 -33 69t-83 26q-55 0 -85 -26.5t-30 -72.5z" />
    <glyph glyph-name="quotesingle" unicode="'" horiz-adv-x="249" 
d="M160 449h-71l-10 281h90z" />
    <glyph glyph-name="parenleft" unicode="(" horiz-adv-x="318" 
d="M302 -172h-82q-141 221 -141 494t141 494h83q-140 -227 -140 -493q0 -262 139 -495z" />
    <glyph glyph-name="parenright" unicode=")" horiz-adv-x="318" 
d="M15 816h82q142 -220 142 -494q0 -272 -142 -494h-83q141 226 141 493q0 263 -140 495z" />
    <glyph glyph-name="asterisk" unicode="*" horiz-adv-x="500" 
d="M287 734l-10 -172l160 63l24 -73l-166 -43l109 -133l-61 -44l-93 144l-93 -144l-61 44l109 133l-166 43l24 73l158 -63l-9 172h75z" />
    <glyph glyph-name="plus" unicode="+" 
d="M364 58h-78v230h-225v68h225v228h78v-228h225v-68h-225v-230z" />
    <glyph glyph-name="comma" unicode="," horiz-adv-x="263" 
d="M77 146h109v-122q0 -109 -19.5 -151.5t-86.5 -78.5l-28 47q43 29 55.5 56.5t12.5 102.5h-43v146z" />
    <glyph glyph-name="hyphen" unicode="-" horiz-adv-x="362" 
d="M322 234h-283v81h283v-81z" />
    <glyph glyph-name="hyphen" unicode="&#x2010;" horiz-adv-x="362" 
d="M322 234h-283v81h283v-81z" />
    <glyph glyph-name="hyphen" unicode="&#xad;" horiz-adv-x="362" 
d="M322 234h-283v81h283v-81z" />
    <glyph glyph-name="period" unicode="." horiz-adv-x="263" 
d="M186 0h-109v146h109v-146z" />
    <glyph glyph-name="slash" unicode="/" horiz-adv-x="400" 
d="M37 -161h-83l384 939h83z" />
    <glyph glyph-name="zero" unicode="0" horiz-adv-x="682" 
d="M517 341q0 282 -176 282t-176 -282q0 -281 176 -281t176 281zM607 342q0 -166 -70 -261.5t-198 -95.5q-130 0 -197 93t-67 262q0 167 69.5 262t198.5 95q130 0 197 -93t67 -262z" />
    <glyph glyph-name="one" unicode="1" horiz-adv-x="440" 
d="M237 0v556q-60 -55 -182 -55v72q87 0 132 27.5t60 84.5h78v-685h-88z" />
    <glyph glyph-name="two" unicode="2" horiz-adv-x="621" 
d="M557 78v-78h-497v77q253 203 317.5 271.5t64.5 143.5q0 59 -36.5 95.5t-104.5 36.5q-65 0 -101 -37t-36 -89q0 -46 12 -79h-87q-14 30 -14 76q0 89 65.5 145.5t163.5 56.5q109 0 169 -56t60 -145q0 -40 -9.5 -71.5t-28.5 -62.5t-65 -73.5t-101 -88t-154 -122.5v-2
q79 2 213 2h169z" />
    <glyph glyph-name="three" unicode="3" horiz-adv-x="640" 
d="M47 188l85 23q27 -154 182 -154q73 0 113 36t40 94q0 62 -43 94.5t-119 32.5h-95v68h67q101 0 145 44q28 28 28 82q0 53 -39 85.5t-102 32.5q-126 0 -155 -137l-83 17q42 191 240 191q104 0 166 -50.5t62 -132.5q0 -118 -122 -160v-1q69 -12 105 -55t36 -107
q0 -88 -66.5 -147t-180.5 -59t-180 52.5t-84 150.5z" />
    <glyph glyph-name="four" unicode="4" horiz-adv-x="636" 
d="M127 241q177 3 254 3v194q0 91 4 173h-2zM466 0h-85v172h-339v68l304 442h120v-438h121v-72h-121v-172z" />
    <glyph glyph-name="five" unicode="5" horiz-adv-x="615" 
d="M512 682v-73h-320l-18 -213h1q22 29 63.5 45t88.5 16q106 0 168 -64t62 -168t-68 -172t-183 -68q-177 0 -253 155l77 38q57 -121 178 -121q73 0 115.5 45t42.5 120q0 73 -42 118.5t-112 45.5q-54 0 -91.5 -23.5t-51.5 -60.5h-77l32 380h388z" />
    <glyph glyph-name="six" unicode="6" horiz-adv-x="639" 
d="M562 558l-78 -35q-45 102 -149 102q-89 0 -130 -76t-42 -238q21 55 71.5 85.5t117.5 30.5q108 0 165.5 -57.5t57.5 -153.5q0 -97 -65.5 -164t-174.5 -67q-124 0 -192 87.5t-68 251.5q0 179 68 276t195 97q81 0 134.5 -33t89.5 -106zM341 357q-72 0 -112.5 -40.5
t-40.5 -106.5q0 -67 40.5 -110t107.5 -43q71 0 110 44t39 114q0 67 -38 104.5t-106 37.5z" />
    <glyph glyph-name="seven" unicode="7" horiz-adv-x="590" 
d="M270 0h-92q13 159 76 306t186 302h-386v74h482v-67q-242 -300 -266 -615z" />
    <glyph glyph-name="eight" unicode="8" horiz-adv-x="657" 
d="M594 190q0 -90 -71 -147.5t-196 -57.5q-124 0 -193.5 55.5t-69.5 143.5q0 61 35 105.5t99 66.5v1q-52 18 -82 57t-30 93q0 82 66.5 136t178.5 54t176.5 -52.5t64.5 -134.5q0 -53 -30 -92.5t-82 -59.5v-1q134 -41 134 -167zM504 188q0 61 -47 95.5t-129 34.5
q-81 0 -127.5 -34.5t-46.5 -95.5t47 -96t128 -35t128 35t47 96zM483 507q0 55 -41.5 87t-112.5 32t-112.5 -32t-41.5 -87q0 -56 41.5 -88t112.5 -32t112.5 32t41.5 88z" />
    <glyph glyph-name="nine" unicode="9" horiz-adv-x="639" 
d="M68 128l78 35q46 -106 158 -106q89 0 130 76t42 238q-21 -55 -71.5 -85.5t-117.5 -30.5q-109 0 -166 57.5t-57 153.5q0 97 65.5 164t174.5 67q124 0 192 -87.5t68 -251.5q0 -179 -68 -276t-195 -97q-84 0 -141 33.5t-92 109.5zM298 325q72 0 112.5 40.5t40.5 106.5
q0 67 -40.5 110t-107.5 43q-71 0 -110 -44t-39 -114q0 -68 37.5 -105t106.5 -37z" />
    <glyph glyph-name="colon" unicode=":" horiz-adv-x="300" 
d="M202 0h-105v139h105v-139zM202 342h-105v139h105v-139z" />
    <glyph glyph-name="semicolon" unicode=";" horiz-adv-x="300" 
d="M97 139h105v-115q0 -106 -19 -150t-86 -80l-28 47q43 29 55.5 56.5t12.5 102.5h-40v139zM202 342h-105v139h105v-139z" />
    <glyph glyph-name="less" unicode="&#x3c;" 
d="M579 167v-86l-508 200v82l508 200v-84q-337 -131 -417 -155v-2q80 -24 417 -155z" />
    <glyph glyph-name="equal" unicode="=" 
d="M579 262v-69h-508v69h508zM579 451v-69h-508v69h508z" />
    <glyph glyph-name="greater" unicode="&#x3e;" 
d="M71 477v86l508 -200v-82l-508 -200v84q337 131 417 155v2q-80 24 -417 155z" />
    <glyph glyph-name="question" unicode="?" horiz-adv-x="616" 
d="M367 0h-100v133h100v-133zM277 210l-1 66q-1 37 17 65t43.5 47t51.5 38t44.5 48t18.5 66q0 46 -39 79t-104 33q-64 0 -106 -34t-42 -94q0 -36 5 -55h-83q-7 20 -7 52q0 93 65 148t171 55q103 0 167 -50.5t64 -130.5q0 -48 -19 -84.5t-45.5 -58t-53.5 -40t-46 -41
t-20 -49.5l-2 -60h-79z" />
    <glyph glyph-name="at" unicode="@" horiz-adv-x="1035" 
d="M972 334q0 -126 -60 -209.5t-172 -83.5q-108 0 -121 82h-1q-56 -82 -162 -82q-84 0 -129 48t-45 136q0 66 23 123.5t77 98.5t130 41q93 0 133 -62h1l10 51h79l-42 -227q-14 -86 -2 -115t55 -29q75 0 112 64.5t37 159.5q0 142 -91.5 234t-256.5 92q-122 0 -217 -58.5
t-143 -151t-48 -199.5q0 -166 100.5 -269.5t269.5 -103.5q125 0 237 38l12 -63q-122 -39 -253 -39q-197 0 -319.5 120.5t-122.5 311.5q0 200 139 338.5t350 138.5q185 0 302.5 -109t117.5 -276zM619 303q0 61 -25.5 91t-80.5 30q-52 0 -87.5 -33t-48 -75t-12.5 -87
q0 -123 102 -123q42 0 73.5 19.5t47.5 50.5t23.5 63t7.5 64z" />
    <glyph glyph-name="A" unicode="A" horiz-adv-x="651" 
d="M278 682h94l262 -682h-98l-66 182h-295l-64 -182h-94zM260 420l-61 -170h246l-62 173q-48 131 -61 179h-1q-17 -63 -61 -182z" />
    <glyph glyph-name="B" unicode="B" horiz-adv-x="709" 
d="M192 312v-240q53 -1 167 -1q46 0 77.5 4t62 15.5t46 36t15.5 62.5q0 34 -13 58t-31 36.5t-49 19.5t-54 8t-60 1h-161zM192 610v-229h160q62 0 98 7.5t61 32.5q29 29 29 80q0 43 -28 71q-23 23 -63.5 31t-122.5 8q-93 0 -134 -1zM106 0v682q30 0 104 0.5t123 0.5
q99 0 157 -12.5t95 -49.5q44 -44 44 -109q0 -116 -115 -158q67 -15 102 -58t35 -106q0 -58 -23.5 -97.5t-68 -59t-93.5 -27t-115 -7.5q-43 0 -125 0.5t-120 0.5z" />
    <glyph glyph-name="C" unicode="C" horiz-adv-x="693" 
d="M581 199l77 -24q-32 -92 -104 -141t-174 -49q-141 0 -229 96.5t-88 258.5q0 88 27.5 158t73.5 112.5t101.5 64.5t114.5 22q93 0 164 -47t105 -131l-78 -31q-25 63 -76 98t-117 35q-96 0 -160 -74t-64 -206q0 -127 61.5 -203t166.5 -76q151 0 199 137z" />
    <glyph glyph-name="D" unicode="D" horiz-adv-x="729" 
d="M191 608v-530q57 -3 120 -3q72 0 115 10t79 46q71 71 71 209q0 135 -73 208q-38 38 -82 49.5t-115 11.5q-82 0 -115 -1zM106 1v680q67 1 203 1q93 0 155.5 -19t111.5 -68q91 -91 91 -252q0 -165 -92 -257q-49 -49 -112.5 -67.5t-153.5 -18.5q-40 0 -111.5 0.5t-91.5 0.5z
" />
    <glyph glyph-name="E" unicode="E" horiz-adv-x="646" 
d="M106 0v682h460v-72h-374v-227h327v-69h-327v-241h391v-73h-477z" />
    <glyph glyph-name="F" unicode="F" horiz-adv-x="599" 
d="M106 0v682h447v-73h-361v-231h315v-69h-315v-309h-86z" />
    <glyph glyph-name="G" unicode="G" horiz-adv-x="758" 
d="M663 0h-77v104h-1q-29 -54 -83.5 -86.5t-128.5 -32.5q-136 0 -223 96t-87 259q0 159 90.5 258t229.5 99q186 0 274 -154l-69 -49q-69 127 -211 127q-102 0 -162.5 -78t-60.5 -202q0 -129 62 -204.5t164 -75.5q88 0 142 63t54 154v19h-192v70h279v-367z" />
    <glyph glyph-name="H" unicode="H" horiz-adv-x="756" 
d="M106 0v682h86v-291h372v291h86v-682h-86v315h-372v-315h-86z" />
    <glyph glyph-name="I" unicode="I" horiz-adv-x="297" 
d="M106 0v682h86v-682h-86z" />
    <glyph glyph-name="J" unicode="J" horiz-adv-x="535" 
d="M350 682h86v-472q0 -106 -55.5 -165.5t-152.5 -59.5q-90 0 -148 52t-67 170l85 16q7 -86 37.5 -124t94.5 -38q120 0 120 150v471z" />
    <glyph glyph-name="K" unicode="K" horiz-adv-x="678" 
d="M545 682h114l-263 -257l281 -425h-104l-238 365l-143 -139v-226h-86v682h86v-352z" />
    <glyph glyph-name="L" unicode="L" horiz-adv-x="551" 
d="M106 0v682h86v-607h347v-75h-433z" />
    <glyph glyph-name="M" unicode="M" horiz-adv-x="946" 
d="M106 0v682h140l140 -337q69 -165 87 -224h2q22 71 87 224l139 337h139v-682h-86v240q0 274 3 371h-3q-18 -49 -86 -215l-162 -396h-71l-163 397q-66 159 -86 214h-3q3 -97 3 -371v-240h-80z" />
    <glyph glyph-name="N" unicode="N" horiz-adv-x="764" 
d="M658 0h-106l-246 387q-64 101 -123 197h-1q4 -115 4 -352v-232h-80v682h114l239 -374q64 -99 121 -197h2q-5 143 -5 352v219h81v-682z" />
    <glyph glyph-name="O" unicode="O" horiz-adv-x="780" 
d="M626 341q0 127 -63.5 203.5t-172.5 76.5q-110 0 -173 -76.5t-63 -203.5t63 -203t173 -76q109 0 172.5 76t63.5 203zM717 342q0 -160 -91.5 -258.5t-236.5 -98.5q-147 0 -236.5 96.5t-89.5 258.5q0 160 91 258.5t237 98.5q147 0 236.5 -96.5t89.5 -258.5z" />
    <glyph glyph-name="P" unicode="P" horiz-adv-x="643" 
d="M539 474q0 67 -41 101t-137 34q-117 0 -169 -1v-268q53 -1 167 -1q96 0 138 34.5t42 100.5zM106 0v682q37 0 125 0.5t132 0.5q267 0 267 -207q0 -105 -71.5 -157.5t-202.5 -52.5q-103 0 -164 1v-267h-86z" />
    <glyph glyph-name="Q" unicode="Q" horiz-adv-x="780" 
d="M717 342q0 -148 -79 -244l74 -74l-52 -53l-76 75q-83 -61 -195 -61q-147 0 -236.5 96.5t-89.5 258.5q0 160 91 258.5t237 98.5q147 0 236.5 -96.5t89.5 -258.5zM430 200l53 53l95 -95q48 73 48 183q0 127 -63.5 203.5t-172.5 76.5q-110 0 -173 -76.5t-63 -203.5t63 -203
t173 -76q80 0 136 42z" />
    <glyph glyph-name="R" unicode="R" horiz-adv-x="694" 
d="M659 0h-109l-213 274h-145v-274h-86v682q22 0 117.5 0.5t140.5 0.5q128 0 194.5 -52.5t66.5 -149.5q0 -81 -49 -132t-139 -66zM192 608v-259q50 -2 163 -2q98 0 138.5 34t40.5 98q0 59 -37.5 94.5t-136.5 35.5q-116 0 -168 -1z" />
    <glyph glyph-name="S" unicode="S" horiz-adv-x="658" 
d="M57 109l49 63q105 -114 239 -114q74 0 117 32t43 86q0 39 -23.5 64.5t-60.5 39t-82 24t-90.5 24t-82.5 34t-60.5 59.5t-23.5 94q0 82 65 132t169 50q136 0 245 -94l-47 -65q-87 86 -200 86q-70 0 -107 -28t-37 -76q0 -38 23.5 -63t60.5 -38t82 -23t90.5 -24t82.5 -34.5
t60.5 -60.5t23.5 -96q0 -87 -71.5 -141.5t-178.5 -54.5q-165 0 -286 124z" />
    <glyph glyph-name="T" unicode="T" horiz-adv-x="534" 
d="M224 0v608h-231v74h548v-74h-231v-608h-86z" />
    <glyph glyph-name="U" unicode="U" horiz-adv-x="732" 
d="M185 682v-421q0 -95 45.5 -147t137.5 -52q91 0 137 52t46 147v421h81v-424q0 -126 -68.5 -199.5t-197.5 -73.5q-139 0 -203 75t-64 191v431h86z" />
    <glyph glyph-name="V" unicode="V" horiz-adv-x="634" 
d="M362 0h-90l-259 682h97l130 -360q59 -163 79 -227h2q35 108 78 227l128 360h94z" />
    <glyph glyph-name="W" unicode="W" horiz-adv-x="1037" 
d="M344 0h-100l-211 682h96l92 -320q56 -189 77 -266h2q24 86 81 267l99 319h80l102 -320q58 -174 84 -266h1q42 150 75 267l91 319h91l-211 -682h-100l-139 426q-17 53 -36 130h-1q-7 -34 -37 -130z" />
    <glyph glyph-name="X" unicode="X" horiz-adv-x="597" 
d="M2 0l244 358l-216 324h104l166 -255l170 255h97l-216 -319l244 -363h-105l-193 295l-196 -295h-99z" />
    <glyph glyph-name="Y" unicode="Y" horiz-adv-x="610" 
d="M348 0h-86v289l-262 393h104l204 -311l202 311h100l-262 -393v-289z" />
    <glyph glyph-name="Z" unicode="Z" horiz-adv-x="628" 
d="M584 77v-77h-540v77l421 530q-81 -1 -249 -1h-157v76h510v-76l-421 -530q85 1 238 1h198z" />
    <glyph glyph-name="bracketleft" unicode="[" horiz-adv-x="371" 
d="M339 -104v-68h-233v988h233v-68h-154v-852h154z" />
    <glyph glyph-name="backslash" unicode="\" horiz-adv-x="400" 
d="M447 -161h-83l-385 939h83z" />
    <glyph glyph-name="bracketright" unicode="]" horiz-adv-x="371" 
d="M265 -172h-233v68h154v852h-154v68h233v-988z" />
    <glyph glyph-name="asciicircum" unicode="^" 
d="M573 350h-101q-88 146 -147 267h-1q-63 -125 -148 -267h-99l203 332h90z" />
    <glyph glyph-name="underscore" unicode="_" 
d="M650 -146v-69h-650v69h650z" />
    <glyph glyph-name="grave" unicode="`" horiz-adv-x="331" 
d="M178 693l85 -142h-76l-119 142h110z" />
    <glyph glyph-name="a" unicode="a" horiz-adv-x="521" 
d="M366 198v31q-135 0 -185 -23t-50 -72q0 -38 25 -59.5t73 -21.5q61 0 99 43.5t38 101.5zM105 346l-49 47q79 101 205 101q94 0 139.5 -44.5t45.5 -123.5v-90q0 -113 3 -236h-77l-2 69h-1q-59 -82 -158 -82q-75 0 -119.5 39.5t-44.5 104.5q0 38 15.5 66t51.5 50t99 33
t153 11v33q0 104 -111 104q-91 0 -150 -82z" />
    <glyph glyph-name="b" unicode="b" horiz-adv-x="584" 
d="M82 239v471h80v-205q0 -49 -4 -93h1q49 82 160 82q103 0 160.5 -70t57.5 -181q0 -118 -61.5 -187t-160.5 -69q-105 0 -158 81h-1l-4 -68h-77q7 186 7 239zM160 250v-19q0 -78 40 -127.5t107 -49.5q69 0 107 50.5t38 136.5q0 82 -39 133.5t-110 51.5q-65 0 -104 -46.5
t-39 -129.5z" />
    <glyph glyph-name="c" unicode="c" horiz-adv-x="519" 
d="M411 153l70 -29q-33 -69 -83 -103t-126 -34q-102 0 -163.5 67t-61.5 185q0 119 62.5 187t161.5 68q143 0 203 -130l-73 -35q-41 97 -132 97q-61 0 -99 -49t-38 -136q0 -82 37.5 -134t104.5 -52q95 0 137 98z" />
    <glyph glyph-name="d" unicode="d" horiz-adv-x="584" 
d="M425 230v20q0 78 -40 127t-107 49q-70 0 -108 -50.5t-38 -135.5q0 -82 39 -134t110 -52q65 0 104.5 47t39.5 129zM505 0h-77l-2 70h-1q-47 -83 -160 -83q-103 0 -160.5 70t-57.5 181q0 118 61.5 187t160.5 69q102 0 155 -77h1q-3 54 -3 88v205h80v-471q0 -101 3 -239z
" />
    <glyph glyph-name="e" unicode="e" horiz-adv-x="536" 
d="M441 132l49 -46q-75 -99 -207 -99q-111 0 -173.5 68.5t-62.5 183.5t61.5 185t167.5 70q56 0 99 -20.5t67.5 -54t36.5 -71t12 -75.5q0 -31 -4 -51h-354q2 -78 44.5 -123t109.5 -45q99 0 154 78zM135 283h270q0 61 -35.5 103t-96.5 42q-59 0 -95 -38t-43 -107z" />
    <glyph glyph-name="f" unicode="f" horiz-adv-x="315" 
d="M107 0v416h-98v65h98v94q0 69 34 105t99 36q52 0 85 -14v-69q-37 15 -80 15q-31 0 -44.5 -18t-13.5 -57v-92h124v-65h-124v-416h-80z" />
    <glyph glyph-name="g" unicode="g" horiz-adv-x="586" 
d="M433 481h78q-7 -75 -7 -239v-255q0 -94 -52.5 -147.5t-162.5 -53.5q-140 0 -222 108l53 51q63 -93 171 -93q67 0 100.5 34.5t33.5 95.5q0 13 0.5 43.5t0.5 44.5h-1q-50 -80 -159 -80q-103 0 -160.5 69t-57.5 180q0 117 61.5 186t160.5 69q104 0 158 -81h1zM425 232v18
q0 78 -40 127t-107 49q-69 0 -107 -50.5t-38 -134.5q0 -81 39.5 -133t109.5 -52q65 0 104 47t39 129z" />
    <glyph glyph-name="h" unicode="h" horiz-adv-x="566" 
d="M82 0v710h80v-205q0 -36 -3 -93h1q49 82 155 82q84 0 130 -48t46 -145v-301h-80v270q0 72 -16 103q-27 53 -97 53q-56 0 -89 -33q-47 -47 -47 -162v-231h-80z" />
    <glyph glyph-name="i" unicode="i" horiz-adv-x="244" 
d="M162 0h-80v481h80v-481zM81 562v124h82v-124h-82z" />
    <glyph glyph-name="j" unicode="j" horiz-adv-x="253" 
d="M91 481h80v-507q0 -102 -30 -144t-101 -42q-33 0 -51 5v63h44q35 0 46.5 27t11.5 94v504zM172 562h-82v124h82v-124z" />
    <glyph glyph-name="k" unicode="k" horiz-adv-x="524" 
d="M521 0h-100l-164 258l-95 -86v-172h-80v710h80v-448l232 219h109l-187 -169z" />
    <glyph glyph-name="l" unicode="l" horiz-adv-x="244" 
d="M82 0v710h80v-710h-80z" />
    <glyph glyph-name="m" unicode="m" horiz-adv-x="887" 
d="M812 0h-80v270q0 72 -16 103q-25 53 -95 53q-54 0 -87 -33q-47 -47 -47 -162v-231h-80v270q0 72 -16 103q-27 53 -95 53q-54 0 -87 -33q-47 -47 -47 -162v-231h-80v241q0 117 -3 240h77l2 -71h1q49 84 154 84q119 0 157 -96q59 96 168 96q83 0 128.5 -48t45.5 -145v-301z
" />
    <glyph glyph-name="n" unicode="n" horiz-adv-x="566" 
d="M491 0h-80v270q0 72 -16 103q-27 53 -97 53q-56 0 -89 -33q-47 -47 -47 -162v-231h-80v241q0 117 -3 240h77l2 -71h1q49 84 156 84q84 0 130 -48t46 -145v-301z" />
    <glyph glyph-name="o" unicode="o" horiz-adv-x="564" 
d="M432 240q0 81 -40 133t-110 52t-110 -52t-40 -133q0 -80 40.5 -132.5t109.5 -52.5q70 0 110 52t40 133zM517 241q0 -112 -63 -183t-173 -71q-112 0 -173 69.5t-61 182.5q0 112 63 183.5t173 71.5q112 0 173 -69.5t61 -183.5z" />
    <glyph glyph-name="p" unicode="p" horiz-adv-x="584" 
d="M160 250v-19q0 -78 40 -127.5t107 -49.5q69 0 107 50.5t38 136.5q0 82 -39 133.5t-110 51.5q-65 0 -104 -46.5t-39 -129.5zM162 -204h-80v446q0 118 -3 239h77l2 -71h1q48 84 160 84q103 0 160.5 -70t57.5 -181q0 -118 -61.5 -187t-160.5 -69q-102 0 -155 77h-1
q3 -27 3 -89v-179z" />
    <glyph glyph-name="q" unicode="q" horiz-adv-x="586" 
d="M503 -204h-80v179q0 48 4 94h-1q-51 -82 -160 -82q-103 0 -160.5 70t-57.5 181q0 118 61.5 187t160.5 69q104 0 158 -81h1l3 68h78q-7 -138 -7 -236v-449zM425 230v20q0 78 -40 127t-107 49q-69 0 -107 -50.5t-38 -135.5q0 -82 39 -134t110 -52q65 0 104 47t39 129z" />
    <glyph glyph-name="r" unicode="r" horiz-adv-x="350" 
d="M162 0h-80v241q0 117 -3 240h77l2 -95h1q30 54 72 80.5t87 26.5q13 0 17 -1v-87q-6 1 -19 1q-61 0 -101 -40q-34 -34 -43.5 -79t-9.5 -116v-171z" />
    <glyph glyph-name="s" unicode="s" horiz-adv-x="491" 
d="M45 69l42 59q77 -75 169 -75q48 0 75.5 19.5t27.5 53.5t-30.5 52.5t-74 27.5t-87 21.5t-74 45t-30.5 87.5q0 62 48.5 98t125.5 36q104 0 184 -65l-42 -56q-62 56 -143 56q-44 0 -67.5 -17.5t-23.5 -47.5q0 -33 30.5 -51t73.5 -27t86.5 -21.5t74 -45.5t30.5 -88
q0 -66 -52.5 -105t-132.5 -39q-119 0 -210 82z" />
    <glyph glyph-name="t" unicode="t" horiz-adv-x="350" 
d="M105 415h-95v66h95v164l80 20v-184h140v-66h-140v-225q0 -64 3.5 -86t15.5 -34q14 -14 44 -14q47 0 77 16v-68q-35 -16 -92 -16q-67 0 -97.5 35t-30.5 115v277z" />
    <glyph glyph-name="u" unicode="u" horiz-adv-x="560" 
d="M482 0h-77l-2 70h-1q-48 -83 -154 -83q-82 0 -127.5 48t-45.5 145v301h80v-270q0 -72 16 -104q27 -53 93 -53q55 0 87 34q48 48 48 162v231h80v-244q0 -123 3 -237z" />
    <glyph glyph-name="v" unicode="v" horiz-adv-x="492" 
d="M287 0h-81l-195 481h92l78 -202q42 -106 68 -193h1q29 97 67 193l76 202h88z" />
    <glyph glyph-name="w" unicode="w" horiz-adv-x="820" 
d="M619 0h-77l-82 219q-45 126 -53 154h-2q-17 -62 -50 -154l-78 -219h-77l-180 481h91l83 -235q40 -121 48 -150h2q22 80 48 151l81 234h71l83 -226q44 -125 55 -159h2q21 70 50 157l76 228h89z" />
    <glyph glyph-name="x" unicode="x" horiz-adv-x="474" 
d="M102 0h-94l180 254l-161 227h99l114 -170l113 170h93l-161 -227l181 -254h-100l-133 196z" />
    <glyph glyph-name="y" unicode="y" horiz-adv-x="492" 
d="M204 -204h-88l96 204h-7l-194 481h92l78 -202q42 -106 68 -193h1q27 90 67 193l76 202h88z" />
    <glyph glyph-name="z" unicode="z" horiz-adv-x="494" 
d="M448 68v-68h-402v68l291 347q-48 -1 -147 -1h-133v67h376v-67l-290 -347q54 1 168 1h137z" />
    <glyph glyph-name="braceleft" unicode="{" horiz-adv-x="407" 
d="M36 288v68h30q46 0 61 23.5t15 98.5v156q0 100 41 141t123 41h69v-68h-70q-49 0 -66.5 -24.5t-17.5 -90.5v-152q0 -78 -15 -110.5t-51 -47.5v-1q36 -13 51 -45.5t15 -109.5v-154q0 -67 18.5 -92t67.5 -25h68v-68h-71q-82 0 -122 40.5t-40 140.5v155q0 76 -15.5 100
t-60.5 24h-30z" />
    <glyph glyph-name="bar" unicode="|" horiz-adv-x="317" 
d="M198 -172h-79v988h79v-988z" />
    <glyph glyph-name="braceright" unicode="}" horiz-adv-x="407" 
d="M101 -172h-69v68h70q49 0 66.5 24.5t17.5 90.5v152q0 78 15 110.5t51 47.5v1q-36 13 -51 45.5t-15 109.5v154q0 67 -18.5 92t-67.5 25h-68v68h71q82 0 122 -40t40 -140v-156q0 -76 15.5 -100t60.5 -24h30v-68h-30q-46 0 -61 -23.5t-15 -98.5v-156q0 -100 -41 -141
t-123 -41z" />
    <glyph glyph-name="asciitilde" unicode="~" 
d="M140 233h-74q0 193 140 193q35 0 65.5 -14t51.5 -34.5t40 -41t40.5 -34.5t42.5 -14q33 0 48.5 27t15.5 96h74q0 -193 -140 -193q-35 0 -65.5 14t-51.5 34.5t-40 41t-40.5 34.5t-42.5 14q-33 0 -48.5 -27t-15.5 -96z" />
    <glyph glyph-name="exclamdown" unicode="&#xa1;" horiz-adv-x="353" 
d="M126 614h100v-133h-100v133zM138 404h77l12 -500h-102z" />
    <glyph glyph-name="cent" unicode="&#xa2;" horiz-adv-x="566" 
d="M258 692h74v-112q109 -18 160 -121l-71 -36q-46 92 -131 92q-62 0 -99 -45.5t-37 -127.5q0 -77 37 -125.5t104 -48.5q51 0 83.5 23t53.5 73l66 -32q-45 -109 -166 -128v-114h-74v112q-87 11 -138 73t-51 165t52 166t137 74v112z" />
    <glyph glyph-name="sterling" unicode="&#xa3;" 
d="M579 78v-78h-502v62q65 47 88.5 80.5t23.5 75.5q0 33 -11 72h-109v66h91q-29 94 -29 144q0 87 60 142t154 55q157 0 219 -150l-73 -39q-44 115 -148 115q-56 0 -89.5 -33.5t-33.5 -88.5q0 -44 31 -145h184v-66h-167q10 -46 10 -69q0 -84 -79 -144v-1q136 2 219 2h161z
" />
    <glyph glyph-name="currency" unicode="&#xa4;" horiz-adv-x="655" 
d="M527 325q0 -70 -33 -119l102 -97l-53 -52l-98 102q-49 -36 -120 -36t-118 34l-95 -100l-53 52l100 95q-31 46 -31 115t32 119l-101 97l53 53l97 -103q52 36 120 36q71 0 118 -34l96 101l52 -53l-101 -95q33 -47 33 -115zM450 322q0 60 -31.5 99t-91.5 39q-59 0 -90.5 -39
t-31.5 -99t31.5 -99t90.5 -39q60 0 91.5 39t31.5 99z" />
    <glyph glyph-name="yen" unicode="&#xa5;" 
d="M367 0h-84v89h-167v64h167v85h-167v63h167v35l-258 346h108l105 -147q6 -9 91 -125q26 34 90 124l103 148h103l-258 -346v-35h167v-63h-167v-85h167v-64h-167v-89z" />
    <glyph glyph-name="brokenbar" unicode="&#xa6;" horiz-adv-x="317" 
d="M198 423h-79v393h79v-393zM198 -172h-79v393h79v-393z" />
    <glyph glyph-name="section" unicode="&#xa7;" horiz-adv-x="615" 
d="M68 294q0 45 26 83.5t69 64.5q-54 44 -54 115q0 72 54 115.5t143 43.5q117 0 200 -71l-45 -63q-66 63 -157 63q-52 0 -81.5 -21.5t-29.5 -59.5q0 -35 27.5 -59.5t68 -35.5t88.5 -27t88.5 -33t68 -54t27.5 -90q0 -45 -26 -83.5t-68 -64.5q56 -42 56 -116q0 -69 -55 -113.5
t-147 -44.5q-127 0 -221 86l46 66q75 -80 177 -80q56 0 85.5 21t29.5 59q0 35 -27.5 59.5t-68.5 35.5t-89 27t-89 33t-68.5 54t-27.5 90zM479 257q0 29 -14.5 50.5t-44 36t-57.5 23.5t-71 21t-69 21q-72 -41 -72 -107q0 -29 14.5 -51t44 -36t57 -23t71 -21t68.5 -21
q73 41 73 107z" />
    <glyph glyph-name="dieresis" unicode="&#xa8;" horiz-adv-x="425" 
d="M158 566h-79v116h79v-116zM346 566h-79v116h79v-116z" />
    <glyph glyph-name="copyright" unicode="&#xa9;" horiz-adv-x="890" 
d="M828 344q0 -168 -107.5 -278.5t-277.5 -110.5q-169 0 -274.5 108t-105.5 275q0 168 107.5 278.5t276.5 110.5q170 0 275.5 -108t105.5 -275zM751 341q0 138 -82.5 229t-222.5 91q-141 0 -224 -90t-83 -230q0 -138 82.5 -229t222.5 -91q142 0 224.5 90t82.5 230zM573 274
l62 -30q-26 -57 -75.5 -88.5t-110.5 -31.5q-91 0 -147 57.5t-56 158.5q0 102 56.5 160.5t146.5 58.5q130 0 181 -109l-61 -34q-35 77 -122 77q-55 0 -88 -39.5t-33 -111.5q0 -67 32.5 -109.5t92.5 -42.5q86 0 122 84z" />
    <glyph glyph-name="ordfeminine" unicode="&#xaa;" horiz-adv-x="501" 
d="M416 635v-178q0 -1 3 -115h-70l-1 61q-54 -73 -144 -73q-68 0 -108 34.5t-40 93.5q0 71 65.5 108t223.5 37v30q-2 95 -100 95q-80 0 -136 -76l-46 43q77 92 186 92q85 0 126 -40.5t41 -111.5zM345 519v29q-122 0 -168 -21t-46 -66q0 -34 22.5 -53t66.5 -19q56 0 90.5 39
t34.5 91zM408 177h-332v62h332v-62z" />
    <glyph glyph-name="guillemotleft" unicode="&#xab;" horiz-adv-x="649" 
d="M315 76l-64 -35l-176 233l177 232l63 -33l-134 -198zM562 92l-63 -34l-168 216l168 216l63 -33l-125 -182z" />
    <glyph glyph-name="logicalnot" unicode="&#xac;" 
d="M568 87h-78v201h-429v68h507v-269z" />
    <glyph glyph-name="registered" unicode="&#xae;" horiz-adv-x="712" 
d="M635 528q0 -117 -79.5 -198.5t-200.5 -81.5t-199.5 80.5t-78.5 197.5t79.5 198.5t200.5 81.5t199.5 -80.5t78.5 -197.5zM575 527q0 96 -61 161.5t-158 65.5t-158 -65.5t-61 -161.5t61 -161.5t158 -65.5t158 65.5t61 161.5zM495 388h-72l-68 107h-54v-107h-59v287
q19 0 64 0.5t62 0.5q117 0 117 -86q0 -65 -70 -86zM301 628v-84q20 -1 61 -1q34 0 48 11t14 34q0 21 -13.5 30.5t-47.5 9.5h-62z" />
    <glyph glyph-name="macron" unicode="&#xaf;" horiz-adv-x="435" 
d="M356 652v-67h-277v67h277z" />
    <glyph glyph-name="macron" unicode="&#x2c9;" horiz-adv-x="435" 
d="M356 652v-67h-277v67h277z" />
    <glyph glyph-name="degree" unicode="&#xb0;" horiz-adv-x="417" 
d="M292 602q0 37 -22 61.5t-61 24.5q-40 0 -62 -23.5t-22 -62.5q0 -37 22 -61t62 -24q39 0 61 23.5t22 61.5zM365 603q0 -64 -43.5 -105.5t-113.5 -41.5t-112.5 40.5t-42.5 104.5t43.5 106t113.5 42q69 0 112 -41t43 -105z" />
    <glyph glyph-name="plusminus" unicode="&#xb1;" 
d="M364 184h-78v216h-215v68h215v214h78v-214h215v-68h-215v-216zM579 68v-68h-508v68h508z" />
    <glyph glyph-name="twosuperior" unicode="&#xb2;" horiz-adv-x="506" 
d="M433 403v-65h-351v71q156 95 205.5 140.5t49.5 96.5q0 37 -22.5 58.5t-64.5 21.5q-87 0 -87 -74q0 -24 8 -50h-77q-9 20 -9 49q0 65 46 100.5t123 35.5q81 0 123.5 -39t42.5 -100q0 -65 -52.5 -118.5t-181.5 -125.5v-2q43 1 121 1h126z" />
    <glyph glyph-name="threesuperior" unicode="&#xb3;" horiz-adv-x="504" 
d="M67 458l75 16q16 -85 114 -85q45 0 70 19.5t25 54.5q0 71 -99 71h-64v56h48q61 0 83 22q18 18 18 51q0 29 -23 47t-63 18q-83 0 -96 -77l-75 15q26 121 175 121q75 0 119.5 -32.5t44.5 -87.5q0 -75 -72 -99v-1q87 -21 87 -107q0 -55 -48 -93t-130 -38q-164 0 -189 129z
" />
    <glyph glyph-name="acute" unicode="&#xb4;" horiz-adv-x="339" 
d="M72 551l85 142h109l-118 -142h-76z" />
    <glyph glyph-name="mu" unicode="&#xb5;" horiz-adv-x="567" 
d="M488 0h-77l-2 70h-1q-23 -40 -62.5 -61t-86.5 -21q-72 0 -101 41h-1q0 -14 0.5 -28.5t1 -22.5t0.5 -15l4 -167h-81v685h80v-270q0 -72 16 -104q26 -53 93 -53q55 0 87 34q47 47 47 162v231h80v-244q0 -123 3 -237z" />
    <glyph glyph-name="mu" unicode="&#x3bc;" horiz-adv-x="567" 
d="M488 0h-77l-2 70h-1q-23 -40 -62.5 -61t-86.5 -21q-72 0 -101 41h-1q0 -14 0.5 -28.5t1 -22.5t0.5 -15l4 -167h-81v685h80v-270q0 -72 16 -104q26 -53 93 -53q55 0 87 34q47 47 47 162v231h80v-244q0 -123 3 -237z" />
    <glyph glyph-name="paragraph" unicode="&#xb6;" horiz-adv-x="711" 
d="M605 -204h-77v815h-109v-815h-77v438h-34q-119 0 -187.5 59.5t-68.5 166.5q0 108 73 165.5t194 57.5q4 0 54.5 -0.5t82.5 -0.5h149v-886z" />
    <glyph glyph-name="periodcentered" unicode="&#xb7;" horiz-adv-x="262" 
d="M184 260h-105v124h105v-124z" />
    <glyph glyph-name="periodcentered" unicode="&#x22c5;" horiz-adv-x="262" 
d="M184 260h-105v124h105v-124z" />
    <glyph glyph-name="periodcentered" unicode="&#x2219;" horiz-adv-x="262" 
d="M184 260h-105v124h105v-124z" />
    <glyph glyph-name="cedilla" unicode="&#xb8;" horiz-adv-x="290" 
d="M161 -204h-83q53 44 53 76q0 15 -12 26t-37 25l46 79h70l-30 -52q43 -31 43 -72q0 -43 -50 -82z" />
    <glyph glyph-name="onesuperior" unicode="&#xb9;" horiz-adv-x="358" 
d="M263 338h-78v333q-39 -33 -130 -33v65q124 0 140 77h68v-442z" />
    <glyph glyph-name="ordmasculine" unicode="&#xba;" horiz-adv-x="535" 
d="M403 558q0 73 -36 120t-100 47q-63 0 -99 -46.5t-36 -120.5q0 -73 36 -120t99 -47q64 0 100 46.5t36 120.5zM479 559q0 -101 -57 -165.5t-156 -64.5q-101 0 -155.5 63t-54.5 165q0 101 57 165.5t156 64.5q101 0 155.5 -62.5t54.5 -165.5zM459 177h-383v62h383v-62z" />
    <glyph glyph-name="guillemotright" unicode="&#xbb;" horiz-adv-x="649" 
d="M334 472l63 35l177 -233l-177 -232l-63 33l134 198zM87 456l63 34l168 -216l-168 -216l-63 33l125 182z" />
    <glyph glyph-name="onequarter" unicode="&#xbc;" horiz-adv-x="942" 
d="M263 338h-78v333q-39 -33 -130 -33v65q124 0 140 77h68v-442zM665 778h86l-544 -874h-87zM813 -96h-78v94h-232v67l196 279h114v-282h78v-64h-78v-94zM578 59q84 3 157 3v113q0 81 2 109h-1z" />
    <glyph glyph-name="onehalf" unicode="&#xbd;" horiz-adv-x="985" 
d="M263 338h-78v333q-39 -33 -130 -33v65q124 0 140 77h68v-442zM665 778h86l-544 -874h-87zM912 -31v-65h-351v71q156 95 205.5 140.5t49.5 96.5q0 37 -22.5 58.5t-64.5 21.5q-87 0 -87 -74q0 -24 8 -50h-77q-9 20 -9 49q0 65 46 100.5t123 35.5q81 0 123.5 -39t42.5 -100
q0 -65 -52.5 -118.5t-181.5 -125.5v-2q43 1 121 1h126z" />
    <glyph glyph-name="threequarters" unicode="&#xbe;" horiz-adv-x="1068" 
d="M67 458l75 16q16 -85 114 -85q45 0 70 19.5t25 54.5q0 71 -99 71h-64v56h48q61 0 83 22q18 18 18 51q0 29 -23 47t-63 18q-83 0 -96 -77l-75 15q26 121 175 121q75 0 119.5 -32.5t44.5 -87.5q0 -75 -72 -99v-1q87 -21 87 -107q0 -55 -48 -93t-130 -38q-164 0 -189 129z
M791 778h86l-544 -874h-87zM938 -96h-78v94h-232v67l196 279h114v-282h78v-64h-78v-94zM703 59q84 3 157 3v113q0 81 2 109h-1z" />
    <glyph glyph-name="questiondown" unicode="&#xbf;" horiz-adv-x="616" 
d="M249 614h100v-133h-100v133zM339 404l1 -66q1 -37 -17 -65t-44 -47l-52 -38t-44.5 -48t-18.5 -66q0 -46 39.5 -79t104.5 -33q63 0 105.5 34.5t42.5 93.5q0 36 -5 55h83q7 -20 7 -52q0 -93 -65.5 -148t-170.5 -55q-103 0 -167 50.5t-64 130.5q0 40 13.5 72.5t33.5 52.5
t44 38.5t44 32.5t34 34t15 43l1 60h80z" />
    <glyph glyph-name="Agrave" unicode="&#xc0;" horiz-adv-x="651" 
d="M278 682h94l262 -682h-98l-66 182h-295l-64 -182h-94zM260 420l-61 -170h246l-62 173q-48 131 -61 179h-1q-17 -63 -61 -182zM288 882l92 -134h-82l-129 134h119z" />
    <glyph glyph-name="Aacute" unicode="&#xc1;" horiz-adv-x="651" 
d="M278 682h94l262 -682h-98l-66 182h-295l-64 -182h-94zM260 420l-61 -170h246l-62 173q-48 131 -61 179h-1q-17 -63 -61 -182zM270 748l91 134h119l-129 -134h-81z" />
    <glyph glyph-name="Acircumflex" unicode="&#xc2;" horiz-adv-x="651" 
d="M278 682h94l262 -682h-98l-66 182h-295l-64 -182h-94zM260 420l-61 -170h246l-62 173q-48 131 -61 179h-1q-17 -63 -61 -182zM164 748l116 134h89l117 -134h-84l-78 74l-77 -74h-83z" />
    <glyph glyph-name="Atilde" unicode="&#xc3;" horiz-adv-x="651" 
d="M278 682h94l262 -682h-98l-66 182h-295l-64 -182h-94zM260 420l-61 -170h246l-62 173q-48 131 -61 179h-1q-17 -63 -61 -182zM254 811q-38 0 -38 -59h-66q0 55 26 91t80 36q31 0 59 -16t48 -32t33 -16q18 0 27.5 17t9.5 42h67q0 -56 -26.5 -91.5t-80.5 -35.5
q-31 0 -58.5 16t-47.5 32t-33 16z" />
    <glyph glyph-name="Adieresis" unicode="&#xc4;" horiz-adv-x="651" 
d="M278 682h94l262 -682h-98l-66 182h-295l-64 -182h-94zM260 420l-61 -170h246l-62 173q-48 131 -61 179h-1q-17 -63 -61 -182zM255 758h-85v116h85v-116zM481 758h-85v116h85v-116z" />
    <glyph glyph-name="Aring" unicode="&#xc5;" horiz-adv-x="651" 
d="M278 682h94l262 -682h-98l-66 182h-295l-64 -182h-94zM260 420l-61 -170h246l-62 173q-48 131 -61 179h-1q-17 -63 -61 -182zM433 835q0 -41 -29 -69t-80 -28q-52 0 -80 26.5t-28 69.5q0 41 29.5 69t80.5 28q52 0 79.5 -26.5t27.5 -69.5zM369 834q0 20 -11.5 33.5
t-32.5 13.5q-22 0 -33 -13t-11 -34q0 -20 11.5 -33t32.5 -13t32.5 13t11.5 33z" />
    <glyph glyph-name="AE" unicode="&#xc6;" horiz-adv-x="972" 
d="M325 682h567v-72h-351v-227h304v-69h-304v-241h368v-73h-454v177h-288l-87 -177h-96zM378 610l-179 -364h256v364h-77z" />
    <glyph glyph-name="Ccedilla" unicode="&#xc7;" horiz-adv-x="693" 
d="M378 -204h-87l7.5 7.5l8.5 8.5t8 7.5t8.5 8.5t7 8.5t6.5 9t4.5 8.5t3.5 9.5t1 8.5q0 27 -50 50l38 67q-123 15 -197 109t-74 242q0 88 27.5 158t73.5 112.5t101.5 64.5t114.5 22q93 0 164 -47t105 -131l-78 -31q-24 62 -75.5 97.5t-117.5 35.5q-96 0 -160 -74t-64 -206
q0 -127 61.5 -203t166.5 -76q73 0 125 35.5t74 101.5l77 -24q-29 -85 -95 -134t-155 -54l-22 -37q44 -33 44 -72q0 -21 -16 -44.5t-36 -37.5z" />
    <glyph glyph-name="Egrave" unicode="&#xc8;" horiz-adv-x="646" 
d="M106 0v682h460v-72h-374v-227h327v-69h-327v-241h391v-73h-477zM300 882l92 -134h-82l-129 134h119z" />
    <glyph glyph-name="Eacute" unicode="&#xc9;" horiz-adv-x="646" 
d="M106 0v682h460v-72h-374v-227h327v-69h-327v-241h391v-73h-477zM278 748l91 134h119l-129 -134h-81z" />
    <glyph glyph-name="Ecircumflex" unicode="&#xca;" horiz-adv-x="646" 
d="M106 0v682h460v-72h-374v-227h327v-69h-327v-241h391v-73h-477zM176 748l116 134h89l117 -134h-84l-78 74l-77 -74h-83z" />
    <glyph glyph-name="Edieresis" unicode="&#xcb;" horiz-adv-x="646" 
d="M106 0v682h460v-72h-374v-227h327v-69h-327v-241h391v-73h-477zM268 758h-85v116h85v-116zM494 758h-85v116h85v-116z" />
    <glyph glyph-name="Igrave" unicode="&#xcc;" horiz-adv-x="297" 
d="M106 0v682h86v-682h-86zM112 882l92 -134h-82l-129 134h119z" />
    <glyph glyph-name="Iacute" unicode="&#xcd;" horiz-adv-x="297" 
d="M106 0v682h86v-682h-86zM95 748l91 134h119l-129 -134h-81z" />
    <glyph glyph-name="Icircumflex" unicode="&#xce;" horiz-adv-x="297" 
d="M106 0v682h86v-682h-86zM-12 748l116 134h89l117 -134h-84l-78 74l-77 -74h-83z" />
    <glyph glyph-name="Idieresis" unicode="&#xcf;" horiz-adv-x="297" 
d="M106 0v682h86v-682h-86zM78 758h-85v116h85v-116zM304 758h-85v116h85v-116z" />
    <glyph glyph-name="Eth" unicode="&#xd0;" horiz-adv-x="743" 
d="M205 315v-238q57 -3 120 -3q71 0 114.5 10.5t79.5 46.5q71 71 71 209q0 135 -73 208q-38 38 -82 49.5t-115 11.5q-82 0 -115 -1v-225h200v-68h-200zM120 1v314h-110v68h110v298q67 1 203 1q93 0 155.5 -19t111.5 -68q91 -91 91 -252q0 -165 -92 -257
q-49 -49 -112.5 -67.5t-153.5 -18.5q-40 0 -112 0.5t-91 0.5z" />
    <glyph glyph-name="Ntilde" unicode="&#xd1;" horiz-adv-x="764" 
d="M658 0h-106l-246 387q-64 101 -123 197h-1q4 -115 4 -352v-232h-80v682h114l239 -374q64 -99 121 -197h2q-5 143 -5 352v219h81v-682zM312 811q-38 0 -38 -59h-66q0 55 26 91t80 36q31 0 59 -16t48 -32t33 -16q18 0 27.5 17t9.5 42h67q0 -56 -26.5 -91.5t-80.5 -35.5
q-31 0 -58.5 16t-47.5 32t-33 16z" />
    <glyph glyph-name="Ograve" unicode="&#xd2;" horiz-adv-x="780" 
d="M626 341q0 127 -63.5 203.5t-172.5 76.5q-110 0 -173 -76.5t-63 -203.5t63 -203t173 -76q109 0 172.5 76t63.5 203zM717 342q0 -160 -91.5 -258.5t-236.5 -98.5q-147 0 -236.5 96.5t-89.5 258.5q0 160 91 258.5t237 98.5q147 0 236.5 -96.5t89.5 -258.5zM353 882l92 -134
h-82l-129 134h119z" />
    <glyph glyph-name="Oacute" unicode="&#xd3;" horiz-adv-x="780" 
d="M626 341q0 127 -63.5 203.5t-172.5 76.5q-110 0 -173 -76.5t-63 -203.5t63 -203t173 -76q109 0 172.5 76t63.5 203zM717 342q0 -160 -91.5 -258.5t-236.5 -98.5q-147 0 -236.5 96.5t-89.5 258.5q0 160 91 258.5t237 98.5q147 0 236.5 -96.5t89.5 -258.5zM335 748l91 134
h119l-129 -134h-81z" />
    <glyph glyph-name="Ocircumflex" unicode="&#xd4;" horiz-adv-x="780" 
d="M626 341q0 127 -63.5 203.5t-172.5 76.5q-110 0 -173 -76.5t-63 -203.5t63 -203t173 -76q109 0 172.5 76t63.5 203zM717 342q0 -160 -91.5 -258.5t-236.5 -98.5q-147 0 -236.5 96.5t-89.5 258.5q0 160 91 258.5t237 98.5q147 0 236.5 -96.5t89.5 -258.5zM229 748l116 134
h89l117 -134h-84l-78 74l-77 -74h-83z" />
    <glyph glyph-name="Otilde" unicode="&#xd5;" horiz-adv-x="780" 
d="M626 341q0 127 -63.5 203.5t-172.5 76.5q-110 0 -173 -76.5t-63 -203.5t63 -203t173 -76q109 0 172.5 76t63.5 203zM717 342q0 -160 -91.5 -258.5t-236.5 -98.5q-147 0 -236.5 96.5t-89.5 258.5q0 160 91 258.5t237 98.5q147 0 236.5 -96.5t89.5 -258.5zM319 811
q-38 0 -38 -59h-66q0 55 26 91t80 36q31 0 59 -16t48 -32t33 -16q18 0 27.5 17t9.5 42h67q0 -56 -26.5 -91.5t-80.5 -35.5q-31 0 -58.5 16t-47.5 32t-33 16z" />
    <glyph glyph-name="Odieresis" unicode="&#xd6;" horiz-adv-x="780" 
d="M626 341q0 127 -63.5 203.5t-172.5 76.5q-110 0 -173 -76.5t-63 -203.5t63 -203t173 -76q109 0 172.5 76t63.5 203zM717 342q0 -160 -91.5 -258.5t-236.5 -98.5q-147 0 -236.5 96.5t-89.5 258.5q0 160 91 258.5t237 98.5q147 0 236.5 -96.5t89.5 -258.5zM320 758h-85v116
h85v-116zM546 758h-85v116h85v-116z" />
    <glyph glyph-name="multiply" unicode="&#xd7;" 
d="M562 138l-53 -53l-184 186l-185 -186l-52 53l186 184l-186 185l52 52l185 -186l184 186l53 -52l-186 -185z" />
    <glyph glyph-name="Oslash" unicode="&#xd8;" horiz-adv-x="780" 
d="M114 -20l-55 49l72 79q-68 91 -68 232q0 160 91 258.5t237 98.5q121 0 206 -71l69 76l54 -49l-72 -80q69 -91 69 -231q0 -160 -91.5 -258.5t-236.5 -98.5q-124 0 -207 71zM588 507l-351 -389q59 -57 153 -57q110 0 173.5 76.5t63.5 203.5q0 97 -39 166zM192 175l351 389
q-60 58 -153 58q-110 0 -173.5 -77t-63.5 -204q0 -99 39 -166z" />
    <glyph glyph-name="Ugrave" unicode="&#xd9;" horiz-adv-x="732" 
d="M185 682v-421q0 -95 45.5 -147t137.5 -52q91 0 137 52t46 147v421h81v-424q0 -126 -68.5 -199.5t-197.5 -73.5q-139 0 -203 75t-64 191v431h86zM329 882l92 -134h-82l-129 134h119z" />
    <glyph glyph-name="Uacute" unicode="&#xda;" horiz-adv-x="732" 
d="M185 682v-421q0 -95 45.5 -147t137.5 -52q91 0 137 52t46 147v421h81v-424q0 -126 -68.5 -199.5t-197.5 -73.5q-139 0 -203 75t-64 191v431h86zM311 748l91 134h119l-129 -134h-81z" />
    <glyph glyph-name="Ucircumflex" unicode="&#xdb;" horiz-adv-x="732" 
d="M185 682v-421q0 -95 45.5 -147t137.5 -52q91 0 137 52t46 147v421h81v-424q0 -126 -68.5 -199.5t-197.5 -73.5q-139 0 -203 75t-64 191v431h86zM205 748l116 134h89l117 -134h-84l-78 74l-77 -74h-83z" />
    <glyph glyph-name="Udieresis" unicode="&#xdc;" horiz-adv-x="732" 
d="M185 682v-421q0 -95 45.5 -147t137.5 -52q91 0 137 52t46 147v421h81v-424q0 -126 -68.5 -199.5t-197.5 -73.5q-139 0 -203 75t-64 191v431h86zM296 758h-85v116h85v-116zM522 758h-85v116h85v-116z" />
    <glyph glyph-name="Yacute" unicode="&#xdd;" horiz-adv-x="610" 
d="M348 0h-86v289l-262 393h104l204 -311l202 311h100l-262 -393v-289zM250 748l91 134h119l-129 -134h-81z" />
    <glyph glyph-name="Thorn" unicode="&#xde;" horiz-adv-x="643" 
d="M192 0h-86v682h86v-114q3 0 65 0.5t106 0.5q267 0 267 -207q0 -105 -71.5 -157.5t-202.5 -52.5q-103 0 -164 1v-153zM192 494v-268q53 -1 167 -1q96 0 138 34.5t42 100.5q0 67 -41 101t-137 34q-116 0 -169 -1z" />
    <glyph glyph-name="germandbls" unicode="&#xdf;" horiz-adv-x="581" 
d="M82 0v505q0 105 55.5 158t158.5 53q107 0 155 -44t48 -106q0 -37 -15.5 -64t-38 -42t-45 -27.5t-38 -29t-15.5 -38.5t20 -40t49 -32.5t58 -32.5t49 -50.5t20 -76.5q0 -68 -46 -107t-117 -39q-67 0 -129 35l29 64q48 -33 102 -33q78 0 78 75q0 27 -20 48t-49 36t-58 32.5
t-49 47t-20 69.5q0 43 24 72.5t52 42.5t52 35.5t24 52.5q0 36 -29.5 61t-92.5 25q-67 0 -99.5 -35.5t-32.5 -110.5v-504h-80z" />
    <glyph glyph-name="agrave" unicode="&#xe0;" horiz-adv-x="521" 
d="M366 198v31q-135 0 -185 -23t-50 -72q0 -38 25 -59.5t73 -21.5q61 0 99 43.5t38 101.5zM105 346l-49 47q79 101 205 101q94 0 139.5 -44.5t45.5 -123.5v-90q0 -113 3 -236h-77l-2 69h-1q-59 -82 -158 -82q-75 0 -119.5 39.5t-44.5 104.5q0 38 15.5 66t51.5 50t99 33
t153 11v33q0 104 -111 104q-91 0 -150 -82zM228 694l85 -142h-76l-119 142h110z" />
    <glyph glyph-name="aacute" unicode="&#xe1;" horiz-adv-x="521" 
d="M366 198v31q-135 0 -185 -23t-50 -72q0 -38 25 -59.5t73 -21.5q61 0 99 43.5t38 101.5zM105 346l-49 47q79 101 205 101q94 0 139.5 -44.5t45.5 -123.5v-90q0 -113 3 -236h-77l-2 69h-1q-59 -82 -158 -82q-75 0 -119.5 39.5t-44.5 104.5q0 38 15.5 66t51.5 50t99 33
t153 11v33q0 104 -111 104q-91 0 -150 -82zM213 552l85 142h109l-118 -142h-76z" />
    <glyph glyph-name="acircumflex" unicode="&#xe2;" horiz-adv-x="521" 
d="M366 198v31q-135 0 -185 -23t-50 -72q0 -38 25 -59.5t73 -21.5q61 0 99 43.5t38 101.5zM105 346l-49 47q79 101 205 101q94 0 139.5 -44.5t45.5 -123.5v-90q0 -113 3 -236h-77l-2 69h-1q-59 -82 -158 -82q-75 0 -119.5 39.5t-44.5 104.5q0 38 15.5 66t51.5 50t99 33
t153 11v33q0 104 -111 104q-91 0 -150 -82zM113 552l101 142h99l100 -142h-78l-73 88l-73 -88h-76z" />
    <glyph glyph-name="atilde" unicode="&#xe3;" horiz-adv-x="521" 
d="M366 198v31q-135 0 -185 -23t-50 -72q0 -38 25 -59.5t73 -21.5q61 0 99 43.5t38 101.5zM105 346l-49 47q79 101 205 101q94 0 139.5 -44.5t45.5 -123.5v-90q0 -113 3 -236h-77l-2 69h-1q-59 -82 -158 -82q-75 0 -119.5 39.5t-44.5 104.5q0 38 15.5 66t51.5 50t99 33
t153 11v33q0 104 -111 104q-91 0 -150 -82zM199 622q-35 0 -35 -59h-63q0 56 25 90t76 34q23 0 43.5 -10t32.5 -21.5t25 -21.5t23 -10q36 0 36 58h63q0 -55 -25.5 -89t-76.5 -34q-22 0 -42.5 10t-32.5 21.5t-25.5 21.5t-23.5 10z" />
    <glyph glyph-name="adieresis" unicode="&#xe4;" horiz-adv-x="521" 
d="M366 198v31q-135 0 -185 -23t-50 -72q0 -38 25 -59.5t73 -21.5q61 0 99 43.5t38 101.5zM105 346l-49 47q79 101 205 101q94 0 139.5 -44.5t45.5 -123.5v-90q0 -113 3 -236h-77l-2 69h-1q-59 -82 -158 -82q-75 0 -119.5 39.5t-44.5 104.5q0 38 15.5 66t51.5 50t99 33
t153 11v33q0 104 -111 104q-91 0 -150 -82zM209 567h-79v116h79v-116zM397 567h-79v116h79v-116z" />
    <glyph glyph-name="aring" unicode="&#xe5;" horiz-adv-x="521" 
d="M366 198v31q-135 0 -185 -23t-50 -72q0 -38 25 -59.5t73 -21.5q61 0 99 43.5t38 101.5zM105 346l-49 47q79 101 205 101q94 0 139.5 -44.5t45.5 -123.5v-90q0 -113 3 -236h-77l-2 69h-1q-59 -82 -158 -82q-75 0 -119.5 39.5t-44.5 104.5q0 38 15.5 66t51.5 50t99 33
t153 11v33q0 104 -111 104q-91 0 -150 -82zM372 646q0 -41 -29 -69t-80 -28q-52 0 -80 26.5t-28 68.5q0 41 29.5 69t80.5 28t79 -26.5t28 -68.5zM308 645q0 20 -11.5 33t-32.5 13t-32.5 -13t-11.5 -33t11.5 -33t32.5 -13t32.5 13t11.5 33z" />
    <glyph glyph-name="ae" unicode="&#xe6;" horiz-adv-x="849" 
d="M105 346l-49 47q79 101 205 101q121 0 160 -80q56 80 168 80q56 0 99.5 -20.5t67.5 -54t36 -71t12 -75.5q0 -31 -4 -51h-354q2 -78 44.5 -123t109.5 -45q100 0 155 78l48 -46q-75 -99 -207 -99q-136 0 -196 113q-56 -113 -188 -113q-76 0 -120.5 39.5t-44.5 104.5
q0 38 15.5 66t51.5 50t99 33t153 11v33q-2 104 -111 104q-91 0 -150 -82zM448 283h271q-1 61 -36.5 103t-96.5 42q-58 0 -94 -38t-44 -107zM229 53q61 0 99 43.5t38 101.5v31q-135 0 -185 -23t-50 -72q0 -38 25 -59.5t73 -21.5z" />
    <glyph glyph-name="ccedilla" unicode="&#xe7;" horiz-adv-x="519" 
d="M273 -204h-83q53 44 53 76q0 15 -12 26t-37 25l39 68q-85 11 -135.5 76t-50.5 172q0 119 62.5 187t161.5 68q143 0 203 -130l-73 -35q-40 97 -132 97q-62 0 -99.5 -49t-37.5 -137q0 -82 37.5 -133.5t104.5 -51.5q95 0 137 98l70 -29q-59 -123 -178 -135l-23 -39
q43 -31 43 -72q0 -43 -50 -82z" />
    <glyph glyph-name="egrave" unicode="&#xe8;" horiz-adv-x="536" 
d="M441 132l49 -46q-75 -99 -207 -99q-111 0 -173.5 68.5t-62.5 183.5t61.5 185t167.5 70q56 0 99 -20.5t67.5 -54t36.5 -71t12 -75.5q0 -31 -4 -51h-354q2 -78 44.5 -123t109.5 -45q99 0 154 78zM135 283h270q0 61 -35.5 103t-96.5 42q-59 0 -95 -38t-43 -107zM233 694
l85 -142h-76l-119 142h110z" />
    <glyph glyph-name="eacute" unicode="&#xe9;" horiz-adv-x="536" 
d="M441 132l49 -46q-75 -99 -207 -99q-111 0 -173.5 68.5t-62.5 183.5t61.5 185t167.5 70q56 0 99 -20.5t67.5 -54t36.5 -71t12 -75.5q0 -31 -4 -51h-354q2 -78 44.5 -123t109.5 -45q99 0 154 78zM135 283h270q0 61 -35.5 103t-96.5 42q-59 0 -95 -38t-43 -107zM218 552
l85 142h109l-118 -142h-76z" />
    <glyph glyph-name="ecircumflex" unicode="&#xea;" horiz-adv-x="536" 
d="M441 132l49 -46q-75 -99 -207 -99q-111 0 -173.5 68.5t-62.5 183.5t61.5 185t167.5 70q56 0 99 -20.5t67.5 -54t36.5 -71t12 -75.5q0 -31 -4 -51h-354q2 -78 44.5 -123t109.5 -45q99 0 154 78zM135 283h270q0 61 -35.5 103t-96.5 42q-59 0 -95 -38t-43 -107zM118 552
l101 142h99l100 -142h-78l-73 88l-73 -88h-76z" />
    <glyph glyph-name="edieresis" unicode="&#xeb;" horiz-adv-x="536" 
d="M441 132l49 -46q-75 -99 -207 -99q-111 0 -173.5 68.5t-62.5 183.5t61.5 185t167.5 70q56 0 99 -20.5t67.5 -54t36.5 -71t12 -75.5q0 -31 -4 -51h-354q2 -78 44.5 -123t109.5 -45q99 0 154 78zM135 283h270q0 61 -35.5 103t-96.5 42q-59 0 -95 -38t-43 -107zM213 567h-79
v116h79v-116zM401 567h-79v116h79v-116z" />
    <glyph glyph-name="igrave" unicode="&#xec;" horiz-adv-x="244" 
d="M162 0h-80v481h80v-481zM87 693l85 -142h-76l-119 142h110z" />
    <glyph glyph-name="iacute" unicode="&#xed;" horiz-adv-x="244" 
d="M162 0h-80v481h80v-481zM72 551l85 142h109l-118 -142h-76z" />
    <glyph glyph-name="icircumflex" unicode="&#xee;" horiz-adv-x="244" 
d="M162 0h-80v481h80v-481zM-28 551l101 142h99l100 -142h-78l-73 88l-73 -88h-76z" />
    <glyph glyph-name="idieresis" unicode="&#xef;" horiz-adv-x="244" 
d="M162 0h-80v481h80v-481zM78 566h-77v116h77v-116zM242 566h-77v116h77v-116z" />
    <glyph glyph-name="eth" unicode="&#xf0;" horiz-adv-x="568" 
d="M151 691l83 35q50 -30 90 -64l121 58l26 -52l-101 -48q148 -148 148 -350q0 -131 -62.5 -207t-174.5 -76t-173 69t-61 182q0 111 60.5 181.5t161.5 70.5q99 0 149 -74l1 1q-36 86 -122 168l-128 -60l-26 52l106 50q-45 35 -98 64zM431 239q0 80 -40 131.5t-109 51.5
q-71 0 -110.5 -51t-39.5 -132q0 -80 40.5 -132t109.5 -52q70 0 109.5 51.5t39.5 132.5z" />
    <glyph glyph-name="ntilde" unicode="&#xf1;" horiz-adv-x="566" 
d="M491 0h-80v270q0 72 -16 103q-27 53 -97 53q-56 0 -89 -33q-47 -47 -47 -162v-231h-80v241q0 117 -3 240h77l2 -71h1q49 84 156 84q84 0 130 -48t46 -145v-301zM219 622q-35 0 -35 -59h-63q0 56 25 90t76 34q23 0 43.5 -10t32.5 -21.5t25 -21.5t23 -10q36 0 36 58h63
q0 -55 -25.5 -89t-76.5 -34q-22 0 -42.5 10t-32.5 21.5t-25.5 21.5t-23.5 10z" />
    <glyph glyph-name="ograve" unicode="&#xf2;" horiz-adv-x="564" 
d="M432 240q0 81 -40 133t-110 52t-110 -52t-40 -133q0 -80 40.5 -132.5t109.5 -52.5q70 0 110 52t40 133zM517 241q0 -112 -63 -183t-173 -71q-112 0 -173 69.5t-61 182.5q0 112 63 183.5t173 71.5q112 0 173 -69.5t61 -183.5zM247 694l85 -142h-76l-119 142h110z" />
    <glyph glyph-name="oacute" unicode="&#xf3;" horiz-adv-x="564" 
d="M432 240q0 81 -40 133t-110 52t-110 -52t-40 -133q0 -80 40.5 -132.5t109.5 -52.5q70 0 110 52t40 133zM517 241q0 -112 -63 -183t-173 -71q-112 0 -173 69.5t-61 182.5q0 112 63 183.5t173 71.5q112 0 173 -69.5t61 -183.5zM232 552l85 142h109l-118 -142h-76z" />
    <glyph glyph-name="ocircumflex" unicode="&#xf4;" horiz-adv-x="564" 
d="M432 240q0 81 -40 133t-110 52t-110 -52t-40 -133q0 -80 40.5 -132.5t109.5 -52.5q70 0 110 52t40 133zM517 241q0 -112 -63 -183t-173 -71q-112 0 -173 69.5t-61 182.5q0 112 63 183.5t173 71.5q112 0 173 -69.5t61 -183.5zM132 552l101 142h99l100 -142h-78l-73 88
l-73 -88h-76z" />
    <glyph glyph-name="otilde" unicode="&#xf5;" horiz-adv-x="564" 
d="M432 240q0 81 -40 133t-110 52t-110 -52t-40 -133q0 -80 40.5 -132.5t109.5 -52.5q70 0 110 52t40 133zM517 241q0 -112 -63 -183t-173 -71q-112 0 -173 69.5t-61 182.5q0 112 63 183.5t173 71.5q112 0 173 -69.5t61 -183.5zM218 622q-35 0 -35 -59h-63q0 56 25 90t76 34
q29 0 53 -15.5t41.5 -31.5t29.5 -16q36 0 36 58h63q0 -55 -25.5 -89t-76.5 -34q-22 0 -42.5 10t-32.5 21.5t-25.5 21.5t-23.5 10z" />
    <glyph glyph-name="odieresis" unicode="&#xf6;" horiz-adv-x="564" 
d="M432 240q0 81 -40 133t-110 52t-110 -52t-40 -133q0 -80 40.5 -132.5t109.5 -52.5q70 0 110 52t40 133zM517 241q0 -112 -63 -183t-173 -71q-112 0 -173 69.5t-61 182.5q0 112 63 183.5t173 71.5q112 0 173 -69.5t61 -183.5zM227 567h-79v116h79v-116zM415 567h-79v116
h79v-116z" />
    <glyph glyph-name="divide" unicode="&#xf7;" 
d="M374 53h-98v129h98v-129zM589 356v-68h-528v68h528zM374 462h-98v129h98v-129z" />
    <glyph glyph-name="oslash" unicode="&#xf8;" horiz-adv-x="564" 
d="M77 -35l-48 43l62 69q-44 65 -44 162q0 112 63 183.5t173 71.5q85 0 144 -45l60 67l48 -43l-63 -69q45 -66 45 -163q0 -112 -63 -183t-173 -71q-87 0 -145 44zM150 141l226 250q-39 36 -94 36q-71 0 -111 -52.5t-40 -134.5q0 -55 19 -99zM413 339l-225 -250
q37 -35 94 -35q71 0 111 52.5t40 133.5q0 56 -20 99z" />
    <glyph glyph-name="ugrave" unicode="&#xf9;" horiz-adv-x="560" 
d="M482 0h-77l-2 70h-1q-48 -83 -154 -83q-82 0 -127.5 48t-45.5 145v301h80v-270q0 -72 16 -104q27 -53 93 -53q55 0 87 34q48 48 48 162v231h80v-244q0 -123 3 -237zM245 693l85 -142h-76l-119 142h110z" />
    <glyph glyph-name="uacute" unicode="&#xfa;" horiz-adv-x="560" 
d="M482 0h-77l-2 70h-1q-48 -83 -154 -83q-82 0 -127.5 48t-45.5 145v301h80v-270q0 -72 16 -104q27 -53 93 -53q55 0 87 34q48 48 48 162v231h80v-244q0 -123 3 -237zM230 551l85 142h109l-118 -142h-76z" />
    <glyph glyph-name="ucircumflex" unicode="&#xfb;" horiz-adv-x="560" 
d="M482 0h-77l-2 70h-1q-48 -83 -154 -83q-82 0 -127.5 48t-45.5 145v301h80v-270q0 -72 16 -104q27 -53 93 -53q55 0 87 34q48 48 48 162v231h80v-244q0 -123 3 -237zM130 551l101 142h99l100 -142h-78l-73 88l-73 -88h-76z" />
    <glyph glyph-name="udieresis" unicode="&#xfc;" horiz-adv-x="560" 
d="M482 0h-77l-2 70h-1q-48 -83 -154 -83q-82 0 -127.5 48t-45.5 145v301h80v-270q0 -72 16 -104q27 -53 93 -53q55 0 87 34q48 48 48 162v231h80v-244q0 -123 3 -237zM226 566h-79v116h79v-116zM414 566h-79v116h79v-116z" />
    <glyph glyph-name="yacute" unicode="&#xfd;" horiz-adv-x="492" 
d="M204 -204h-88l96 204h-7l-194 481h92l78 -202q42 -106 68 -193h1q27 90 67 193l76 202h88zM197 551l85 142h109l-118 -142h-76z" />
    <glyph glyph-name="thorn" unicode="&#xfe;" horiz-adv-x="584" 
d="M160 250v-19q0 -78 40 -127.5t107 -49.5q69 0 107 50.5t38 136.5q0 82 -39 133.5t-110 51.5q-65 0 -104 -46.5t-39 -129.5zM82 -204v914h80v-205q0 -49 -4 -93h1q49 82 160 82q103 0 160.5 -70t57.5 -181q0 -118 -61.5 -187t-160.5 -69q-102 0 -155 77h-1q3 -27 3 -89
v-179h-80z" />
    <glyph glyph-name="ydieresis" unicode="&#xff;" horiz-adv-x="492" 
d="M204 -204h-88l96 204h-7l-194 481h92l78 -202q42 -106 68 -193h1q27 90 67 193l76 202h88zM191 566h-79v116h79v-116zM379 566h-79v116h79v-116z" />
    <glyph glyph-name="Amacron" unicode="&#x100;" horiz-adv-x="651" 
d="M278 682h94l262 -682h-98l-66 182h-295l-64 -182h-94zM260 420l-61 -170h246l-62 173q-48 131 -61 179h-1q-17 -63 -61 -182zM477 847v-71h-305v71h305z" />
    <glyph glyph-name="amacron" unicode="&#x101;" horiz-adv-x="521" 
d="M366 198v31q-135 0 -185 -23t-50 -72q0 -38 25 -59.5t73 -21.5q61 0 99 43.5t38 101.5zM105 346l-49 47q79 101 205 101q94 0 139.5 -44.5t45.5 -123.5v-90q0 -113 3 -236h-77l-2 69h-1q-59 -82 -158 -82q-75 0 -119.5 39.5t-44.5 104.5q0 38 15.5 66t51.5 50t99 33
t153 11v33q0 104 -111 104q-91 0 -150 -82zM402 653v-67h-277v67h277z" />
    <glyph glyph-name="Abreve" unicode="&#x102;" horiz-adv-x="651" 
d="M278 682h94l262 -682h-98l-66 182h-295l-64 -182h-94zM260 420l-61 -170h246l-62 173q-48 131 -61 179h-1q-17 -63 -61 -182zM406 886h70q0 -68 -38.5 -105t-113.5 -37t-112.5 37t-37.5 105h70q0 -75 81 -75t81 75z" />
    <glyph glyph-name="abreve" unicode="&#x103;" horiz-adv-x="521" 
d="M366 198v31q-135 0 -185 -23t-50 -72q0 -38 25 -59.5t73 -21.5q61 0 99 43.5t38 101.5zM105 346l-49 47q79 101 205 101q94 0 139.5 -44.5t45.5 -123.5v-90q0 -113 3 -236h-77l-2 69h-1q-59 -82 -158 -82q-75 0 -119.5 39.5t-44.5 104.5q0 38 15.5 66t51.5 50t99 33
t153 11v33q0 104 -111 104q-91 0 -150 -82zM340 694h65q0 -140 -142 -140q-140 0 -140 140h65q0 -76 76 -76t76 76z" />
    <glyph glyph-name="Aogonek" unicode="&#x104;" horiz-adv-x="651" 
d="M637 -150v-54q-27 -8 -65 -8q-106 0 -106 75q0 66 81 137h-11l-67 182h-292l-66 -182h-94l261 682h94l262 -682q-84 -75 -84 -125q0 -25 36 -25h51zM260 420l-61 -170h247l-63 173q-48 131 -61 179h-1q-17 -63 -61 -182z" />
    <glyph glyph-name="aogonek" unicode="&#x105;" horiz-adv-x="521" 
d="M366 198v31q-135 0 -185 -23t-50 -72q0 -38 25 -59.5t73 -21.5q61 0 99 43.5t38 101.5zM105 346l-49 47q79 101 205 101q94 0 139.5 -44.5t45.5 -123.5v-90q0 -199 2 -236q-47 -50 -61.5 -77.5t-14.5 -50.5q0 -25 36 -25h49v-52q-35 -7 -59 -7q-60 0 -82.5 19.5
t-22.5 55.5q0 58 79 140l-2 66h-1q-57 -82 -158 -82q-75 0 -119.5 39.5t-44.5 104.5q0 38 15.5 66t51.5 50t99 33t153 11v33q0 104 -111 104q-91 0 -150 -82z" />
    <glyph glyph-name="Cacute" unicode="&#x106;" horiz-adv-x="693" 
d="M581 199l77 -24q-32 -92 -104 -141t-174 -49q-141 0 -229 96.5t-88 258.5q0 88 27.5 158t73.5 112.5t101.5 64.5t114.5 22q93 0 164 -47t105 -131l-78 -31q-25 63 -76 98t-117 35q-96 0 -160 -74t-64 -206q0 -127 61.5 -203t166.5 -76q151 0 199 137zM326 748l91 134h119
l-129 -134h-81z" />
    <glyph glyph-name="cacute" unicode="&#x107;" horiz-adv-x="519" 
d="M411 153l70 -29q-33 -69 -83 -103t-126 -34q-102 0 -163.5 67t-61.5 185q0 119 62.5 187t161.5 68q143 0 203 -130l-73 -35q-41 97 -132 97q-61 0 -99 -49t-38 -136q0 -82 37.5 -134t104.5 -52q95 0 137 98zM221 552l85 142h109l-118 -142h-76z" />
    <glyph glyph-name="Ccircumflex" unicode="&#x108;" horiz-adv-x="693" 
d="M581 199l77 -24q-32 -92 -104 -141t-174 -49q-141 0 -229 96.5t-88 258.5q0 88 27.5 158t73.5 112.5t101.5 64.5t114.5 22q93 0 164 -47t105 -131l-78 -31q-25 63 -76 98t-117 35q-96 0 -160 -74t-64 -206q0 -127 61.5 -203t166.5 -76q151 0 199 137zM220 748l116 134h89
l117 -134h-84l-78 74l-77 -74h-83z" />
    <glyph glyph-name="ccircumflex" unicode="&#x109;" horiz-adv-x="519" 
d="M411 153l70 -29q-33 -69 -83 -103t-126 -34q-102 0 -163.5 67t-61.5 185q0 119 62.5 187t161.5 68q143 0 203 -130l-73 -35q-41 97 -132 97q-61 0 -99 -49t-38 -136q0 -82 37.5 -134t104.5 -52q95 0 137 98zM121 552l101 142h99l100 -142h-78l-73 88l-73 -88h-76z" />
    <glyph glyph-name="Cdotaccent" unicode="&#x10a;" horiz-adv-x="693" 
d="M581 199l77 -24q-32 -92 -104 -141t-174 -49q-141 0 -229 96.5t-88 258.5q0 88 27.5 158t73.5 112.5t101.5 64.5t114.5 22q93 0 164 -47t105 -131l-78 -31q-25 63 -76 98t-117 35q-96 0 -160 -74t-64 -206q0 -127 61.5 -203t166.5 -76q151 0 199 137zM425 758h-87v116h87
v-116z" />
    <glyph glyph-name="cdotaccent" unicode="&#x10b;" horiz-adv-x="519" 
d="M411 153l70 -29q-33 -69 -83 -103t-126 -34q-102 0 -163.5 67t-61.5 185q0 119 62.5 187t161.5 68q143 0 203 -130l-73 -35q-41 97 -132 97q-61 0 -99 -49t-38 -136q0 -82 37.5 -134t104.5 -52q95 0 137 98zM311 567h-82v116h82v-116z" />
    <glyph glyph-name="Ccaron" unicode="&#x10c;" horiz-adv-x="693" 
d="M581 199l77 -24q-32 -92 -104 -141t-174 -49q-141 0 -229 96.5t-88 258.5q0 88 27.5 158t73.5 112.5t101.5 64.5t114.5 22q93 0 164 -47t105 -131l-78 -31q-25 63 -76 98t-117 35q-96 0 -160 -74t-64 -206q0 -127 61.5 -203t166.5 -76q151 0 199 137zM542 882l-116 -134
h-90l-116 134h83l78 -74l79 74h82z" />
    <glyph glyph-name="ccaron" unicode="&#x10d;" horiz-adv-x="519" 
d="M411 153l70 -29q-33 -69 -83 -103t-126 -34q-102 0 -163.5 67t-61.5 185q0 119 62.5 187t161.5 68q143 0 203 -130l-73 -35q-41 97 -132 97q-61 0 -99 -49t-38 -136q0 -82 37.5 -134t104.5 -52q95 0 137 98zM420 694l-101 -142h-99l-100 142h78l73 -87l73 87h76z" />
    <glyph glyph-name="Dcaron" unicode="&#x10e;" horiz-adv-x="729" 
d="M191 608v-530q57 -3 120 -3q72 0 115 10t79 46q71 71 71 209q0 135 -73 208q-38 38 -82 49.5t-115 11.5q-82 0 -115 -1zM106 1v680q67 1 203 1q93 0 155.5 -19t111.5 -68q91 -91 91 -252q0 -165 -92 -257q-49 -49 -112.5 -67.5t-153.5 -18.5q-40 0 -111.5 0.5t-91.5 0.5z
M505 882l-116 -134h-90l-116 134h83l78 -74l79 74h82z" />
    <glyph glyph-name="dcaron" unicode="&#x10f;" horiz-adv-x="609" 
d="M425 230v20q0 78 -40 127t-107 49q-70 0 -108 -50.5t-38 -135.5q0 -82 39 -134t110 -52q65 0 104.5 47t39.5 129zM505 0h-77l-2 70h-1q-47 -83 -160 -83q-103 0 -160.5 70t-57.5 181q0 118 61.5 187t160.5 69q102 0 155 -77h1q-3 54 -3 88v205h80v-471q0 -101 3 -239z
M552 568l33 189h86l-54 -189h-65z" />
    <glyph glyph-name="Dcroat" unicode="&#x110;" horiz-adv-x="743" 
d="M205 315v-238q57 -3 120 -3q71 0 114.5 10.5t79.5 46.5q71 71 71 209q0 135 -73 208q-38 38 -82 49.5t-115 11.5q-82 0 -115 -1v-225h200v-68h-200zM120 1v314h-110v68h110v298q67 1 203 1q93 0 155.5 -19t111.5 -68q91 -91 91 -252q0 -165 -92 -257
q-49 -49 -112.5 -67.5t-153.5 -18.5q-40 0 -112 0.5t-91 0.5z" />
    <glyph glyph-name="dcroat" unicode="&#x111;" horiz-adv-x="584" 
d="M505 0h-77l-2 70h-1q-47 -83 -160 -83q-103 0 -160.5 70t-57.5 181q0 118 61.5 187t160.5 69q102 0 155 -77h1q-3 54 -3 88v56h-136v64h136v88h80v-88h95v-64h-95v-322q0 -101 3 -239zM425 230v20q0 78 -40 127t-107 49q-70 0 -108 -50.5t-38 -135.5q0 -82 39 -134
t110 -52q65 0 104.5 47t39.5 129z" />
    <glyph glyph-name="Emacron" unicode="&#x112;" horiz-adv-x="646" 
d="M106 0v682h460v-72h-374v-227h327v-69h-327v-241h391v-73h-477zM489 847v-71h-305v71h305z" />
    <glyph glyph-name="emacron" unicode="&#x113;" horiz-adv-x="536" 
d="M441 132l49 -46q-75 -99 -207 -99q-111 0 -173.5 68.5t-62.5 183.5t61.5 185t167.5 70q56 0 99 -20.5t67.5 -54t36.5 -71t12 -75.5q0 -31 -4 -51h-354q2 -78 44.5 -123t109.5 -45q99 0 154 78zM135 283h270q0 61 -35.5 103t-96.5 42q-59 0 -95 -38t-43 -107zM406 653v-67
h-277v67h277z" />
    <glyph glyph-name="Ebreve" unicode="&#x114;" horiz-adv-x="646" 
d="M106 0v682h460v-72h-374v-227h327v-69h-327v-241h391v-73h-477zM419 886h70q0 -68 -38.5 -105t-113.5 -37t-112.5 37t-37.5 105h70q0 -75 81 -75t81 75z" />
    <glyph glyph-name="ebreve" unicode="&#x115;" horiz-adv-x="536" 
d="M441 132l49 -46q-75 -99 -207 -99q-111 0 -173.5 68.5t-62.5 183.5t61.5 185t167.5 70q56 0 99 -20.5t67.5 -54t36.5 -71t12 -75.5q0 -31 -4 -51h-354q2 -78 44.5 -123t109.5 -45q99 0 154 78zM135 283h270q0 61 -35.5 103t-96.5 42q-59 0 -95 -38t-43 -107zM344 694h65
q0 -140 -142 -140q-140 0 -140 140h65q0 -76 76 -76t76 76z" />
    <glyph glyph-name="Edotaccent" unicode="&#x116;" horiz-adv-x="646" 
d="M106 0v682h460v-72h-374v-227h327v-69h-327v-241h391v-73h-477zM380 758h-87v116h87v-116z" />
    <glyph glyph-name="edotaccent" unicode="&#x117;" horiz-adv-x="536" 
d="M441 132l49 -46q-75 -99 -207 -99q-111 0 -173.5 68.5t-62.5 183.5t61.5 185t167.5 70q56 0 99 -20.5t67.5 -54t36.5 -71t12 -75.5q0 -31 -4 -51h-354q2 -78 44.5 -123t109.5 -45q99 0 154 78zM135 283h270q0 61 -35.5 103t-96.5 42q-59 0 -95 -38t-43 -107zM309 567h-82
v116h82v-116z" />
    <glyph glyph-name="Eogonek" unicode="&#x118;" horiz-adv-x="646" 
d="M583 -150v-54q-27 -8 -65 -8q-105 0 -105 75q0 66 82 137h-389v682h460v-72h-374v-227h327v-69h-327v-241h391v-70q-87 -85 -87 -128q0 -25 36 -25h51z" />
    <glyph glyph-name="eogonek" unicode="&#x119;" horiz-adv-x="536" 
d="M458 -153v-51q-32 -8 -59 -8q-60 0 -82.5 19.5t-22.5 55.5q0 67 62 134q-33 -10 -73 -10q-110 0 -173 68.5t-63 183.5t61.5 185t167.5 70q56 0 99 -20.5t67.5 -54t36.5 -71t12 -75.5q0 -31 -4 -51h-354q2 -78 45 -123t109 -45q99 0 154 78l49 -46l-18 -25
q-18 -25 -26 -36.5t-24.5 -38t-25 -43t-16 -36.5t-7.5 -34q0 -26 36 -26h49zM135 283h270q0 61 -35.5 103t-96.5 42q-58 0 -94.5 -37.5t-43.5 -107.5z" />
    <glyph glyph-name="Ecaron" unicode="&#x11a;" horiz-adv-x="646" 
d="M106 0v682h460v-72h-374v-227h327v-69h-327v-241h391v-73h-477zM499 882l-116 -134h-90l-116 134h83l78 -74l79 74h82z" />
    <glyph glyph-name="ecaron" unicode="&#x11b;" horiz-adv-x="536" 
d="M441 132l49 -46q-75 -99 -207 -99q-111 0 -173.5 68.5t-62.5 183.5t61.5 185t167.5 70q56 0 99 -20.5t67.5 -54t36.5 -71t12 -75.5q0 -31 -4 -51h-354q2 -78 44.5 -123t109.5 -45q99 0 154 78zM135 283h270q0 61 -35.5 103t-96.5 42q-59 0 -95 -38t-43 -107zM418 694
l-101 -142h-99l-100 142h78l73 -87l73 87h76z" />
    <glyph glyph-name="Gcircumflex" unicode="&#x11c;" horiz-adv-x="758" 
d="M663 0h-77v104h-1q-29 -54 -83.5 -86.5t-128.5 -32.5q-136 0 -223 96t-87 259q0 159 90.5 258t229.5 99q186 0 274 -154l-69 -49q-69 127 -211 127q-102 0 -162.5 -78t-60.5 -202q0 -129 62 -204.5t164 -75.5q88 0 142 63t54 154v19h-192v70h279v-367zM222 748l116 134
h89l117 -134h-84l-78 74l-77 -74h-83z" />
    <glyph glyph-name="gcircumflex" unicode="&#x11d;" horiz-adv-x="586" 
d="M433 481h78q-7 -75 -7 -239v-255q0 -94 -52.5 -147.5t-162.5 -53.5q-140 0 -222 108l53 51q63 -93 171 -93q67 0 100.5 34.5t33.5 95.5q0 13 0.5 43.5t0.5 44.5h-1q-50 -80 -159 -80q-103 0 -160.5 69t-57.5 180q0 117 61.5 186t160.5 69q104 0 158 -81h1zM425 232v18
q0 78 -40 127t-107 49q-69 0 -107 -50.5t-38 -134.5q0 -81 39.5 -133t109.5 -52q65 0 104 47t39 129zM129 552l101 142h99l100 -142h-78l-73 88l-73 -88h-76z" />
    <glyph glyph-name="Gbreve" unicode="&#x11e;" horiz-adv-x="758" 
d="M663 0h-77v104h-1q-29 -54 -83.5 -86.5t-128.5 -32.5q-136 0 -223 96t-87 259q0 159 90.5 258t229.5 99q186 0 274 -154l-69 -49q-69 127 -211 127q-102 0 -162.5 -78t-60.5 -202q0 -129 62 -204.5t164 -75.5q88 0 142 63t54 154v19h-192v70h279v-367zM464 886h70
q0 -68 -38.5 -105t-113.5 -37t-112.5 37t-37.5 105h70q0 -75 81 -75t81 75z" />
    <glyph glyph-name="gbreve" unicode="&#x11f;" horiz-adv-x="586" 
d="M433 481h78q-7 -75 -7 -239v-255q0 -94 -52.5 -147.5t-162.5 -53.5q-140 0 -222 108l53 51q63 -93 171 -93q67 0 100.5 34.5t33.5 95.5q0 13 0.5 43.5t0.5 44.5h-1q-50 -80 -159 -80q-103 0 -160.5 69t-57.5 180q0 117 61.5 186t160.5 69q104 0 158 -81h1zM425 232v18
q0 78 -40 127t-107 49q-69 0 -107 -50.5t-38 -134.5q0 -81 39.5 -133t109.5 -52q65 0 104 47t39 129zM356 694h65q0 -140 -142 -140q-140 0 -140 140h65q0 -76 76 -76t76 76z" />
    <glyph glyph-name="Gdotaccent" unicode="&#x120;" horiz-adv-x="758" 
d="M663 0h-77v104h-1q-29 -54 -83.5 -86.5t-128.5 -32.5q-136 0 -223 96t-87 259q0 159 90.5 258t229.5 99q186 0 274 -154l-69 -49q-69 127 -211 127q-102 0 -162.5 -78t-60.5 -202q0 -129 62 -204.5t164 -75.5q88 0 142 63t54 154v19h-192v70h279v-367zM426 758h-87v116
h87v-116z" />
    <glyph glyph-name="gdotaccent" unicode="&#x121;" horiz-adv-x="586" 
d="M433 481h78q-7 -75 -7 -239v-255q0 -94 -52.5 -147.5t-162.5 -53.5q-140 0 -222 108l53 51q63 -93 171 -93q67 0 100.5 34.5t33.5 95.5q0 13 0.5 43.5t0.5 44.5h-1q-50 -80 -159 -80q-103 0 -160.5 69t-57.5 180q0 117 61.5 186t160.5 69q104 0 158 -81h1zM425 232v18
q0 78 -40 127t-107 49q-69 0 -107 -50.5t-38 -134.5q0 -81 39.5 -133t109.5 -52q65 0 104 47t39 129zM320 567h-82v116h82v-116z" />
    <glyph glyph-name="Gcommaaccent" unicode="&#x122;" horiz-adv-x="758" 
d="M663 0h-77v104h-1q-29 -54 -83.5 -86.5t-128.5 -32.5q-136 0 -223 96t-87 259q0 159 90.5 258t229.5 99q186 0 274 -154l-69 -49q-69 127 -211 127q-102 0 -162.5 -78t-60.5 -202q0 -129 62 -204.5t164 -75.5q88 0 142 63t54 154v19h-192v70h279v-367zM336 -52h86v-73
q0 -36 -22.5 -59.5t-73.5 -23.5h-19v39h17q34 0 34 37h-22v80z" />
    <glyph glyph-name="gcommaaccent" unicode="&#x123;" horiz-adv-x="586" 
d="M433 481h78q-7 -75 -7 -239v-255q0 -94 -52.5 -147.5t-162.5 -53.5q-140 0 -222 108l53 51q63 -93 171 -93q67 0 100.5 34.5t33.5 95.5q0 13 0.5 43.5t0.5 44.5h-1q-50 -80 -159 -80q-103 0 -160.5 69t-57.5 180q0 117 61.5 186t160.5 69q104 0 158 -81h1zM425 232v18
q0 78 -40 127t-107 49q-69 0 -107 -50.5t-38 -134.5q0 -81 39.5 -133t109.5 -52q65 0 104 47t39 129zM313 567h-81v77q0 84 92 84h19v-40h-19q-33 0 -33 -39h22v-82z" />
    <glyph glyph-name="Hcircumflex" unicode="&#x124;" horiz-adv-x="756" 
d="M106 0v682h86v-291h372v291h86v-682h-86v315h-372v-315h-86zM217 748l116 134h89l117 -134h-84l-78 74l-77 -74h-83z" />
    <glyph glyph-name="hcircumflex" unicode="&#x125;" horiz-adv-x="566" 
d="M82 0v710h80v-205q0 -36 -3 -93h1q49 82 155 82q84 0 130 -48t46 -145v-301h-80v270q0 72 -16 103q-27 53 -97 53q-56 0 -89 -33q-47 -47 -47 -162v-231h-80zM131 780l101 142h99l100 -142h-78l-73 88l-73 -88h-76z" />
    <glyph glyph-name="Hbar" unicode="&#x126;" horiz-adv-x="776" 
d="M116 0v499h-106v70h106v113h86v-113h372v113h86v-113h106v-70h-106v-499h-86v302h-372v-302h-86zM202 376h372v123h-372v-123z" />
    <glyph glyph-name="hbar" unicode="&#x127;" horiz-adv-x="566" 
d="M82 0v561h-95v64h95v88h80v-88h137v-64h-137v-56q0 -36 -3 -93h1q49 82 155 82q84 0 130 -48t46 -145v-301h-80v270q0 72 -16 103q-27 53 -97 53q-56 0 -89 -33q-47 -47 -47 -162v-231h-80z" />
    <glyph glyph-name="Itilde" unicode="&#x128;" horiz-adv-x="297" 
d="M106 0v682h86v-682h-86zM78 811q-38 0 -38 -59h-66q0 55 26 91t80 36q31 0 59 -16t48 -32t33 -16q18 0 27.5 17t9.5 42h67q0 -56 -26.5 -91.5t-80.5 -35.5q-31 0 -58.5 16t-47.5 32t-33 16z" />
    <glyph glyph-name="itilde" unicode="&#x129;" horiz-adv-x="244" 
d="M162 0h-80v481h80v-481zM66 621q-26 0 -26 -59h-60q0 124 88 124q28 0 49 -16t35.5 -32t25.5 -16q26 0 26 59h61q0 -124 -89 -124q-28 0 -49 16t-35.5 32t-25.5 16z" />
    <glyph glyph-name="Imacron" unicode="&#x12a;" horiz-adv-x="297" 
d="M106 0v682h86v-682h-86zM301 847v-71h-305v71h305z" />
    <glyph glyph-name="imacron" unicode="&#x12b;" horiz-adv-x="244" 
d="M162 0h-80v481h80v-481zM260 652v-67h-277v67h277z" />
    <glyph glyph-name="Ibreve" unicode="&#x12c;" horiz-adv-x="297" 
d="M106 0v682h86v-682h-86zM230 886h70q0 -68 -38.5 -105t-113.5 -37t-112.5 37t-37.5 105h70q0 -75 81 -75t81 75z" />
    <glyph glyph-name="ibreve" unicode="&#x12d;" horiz-adv-x="244" 
d="M162 0h-80v481h80v-481zM198 693h65q0 -140 -142 -140q-140 0 -140 140h65q0 -76 76 -76t76 76z" />
    <glyph glyph-name="Iogonek" unicode="&#x12e;" horiz-adv-x="297" 
d="M214 -150v-54q-34 -8 -64 -8q-60 0 -83.5 20t-23.5 55q0 49 68 137h-5v682h86v-682q-40 -58 -52.5 -83t-12.5 -42q0 -14 8 -19.5t27 -5.5h52z" />
    <glyph glyph-name="iogonek" unicode="&#x12f;" horiz-adv-x="244" 
d="M163 562h-82v124h82v-124zM185 -153v-51q-32 -8 -60 -8q-59 0 -82 20t-23 55q0 48 67 137h-5v481h80v-480q-62 -95 -62 -129q0 -25 36 -25h49z" />
    <glyph glyph-name="Idotaccent" unicode="&#x130;" horiz-adv-x="297" 
d="M106 0v682h86v-682h-86zM192 758h-87v116h87v-116z" />
    <glyph glyph-name="dotlessi" unicode="&#x131;" horiz-adv-x="244" 
d="M162 0h-80v481h80v-481z" />
    <glyph glyph-name="IJ" unicode="&#x132;" horiz-adv-x="833" 
d="M106 0v682h86v-682h-86zM647 682h86v-472q0 -106 -55.5 -165.5t-152.5 -59.5q-90 0 -148 52t-67 170l85 16q7 -86 37.5 -124t94.5 -38q120 0 120 150v471z" />
    <glyph glyph-name="ij" unicode="&#x133;" horiz-adv-x="513" 
d="M162 0h-80v481h80v-481zM81 562v124h82v-124h-82zM351 481h80v-507q0 -102 -30 -144t-101 -42q-33 0 -51 5v63h44q35 0 46.5 27t11.5 94v504zM432 562h-82v124h82v-124z" />
    <glyph glyph-name="Jcircumflex" unicode="&#x134;" horiz-adv-x="535" 
d="M350 682h86v-472q0 -106 -55.5 -165.5t-152.5 -59.5q-90 0 -148 52t-67 170l85 16q7 -86 37.5 -124t94.5 -38q120 0 120 150v471zM225 748l116 134h89l117 -134h-84l-78 74l-77 -74h-83z" />
    <glyph glyph-name="jcircumflex" unicode="&#x135;" horiz-adv-x="253" 
d="M91 481h80v-507q0 -102 -30 -144t-101 -42q-33 0 -51 5v63h44q35 0 46.5 27t11.5 94v504zM-19 551l101 142h99l100 -142h-78l-73 88l-73 -88h-76z" />
    <glyph glyph-name="Kcommaaccent" unicode="&#x136;" horiz-adv-x="678" 
d="M545 682h114l-263 -257l281 -425h-104l-238 365l-143 -139v-226h-86v682h86v-352zM320 -52h86v-73q0 -36 -22.5 -59.5t-73.5 -23.5h-19v39h17q34 0 34 37h-22v80z" />
    <glyph glyph-name="kcommaaccent" unicode="&#x137;" horiz-adv-x="524" 
d="M521 0h-100l-164 258l-95 -86v-172h-80v710h80v-448l232 219h109l-187 -169zM238 -52h81v-73q0 -83 -92 -83h-19v39h19q33 0 33 39h-22v78z" />
    <glyph glyph-name="kgreenlandic" unicode="&#x138;" horiz-adv-x="523" 
d="M520 0h-99l-164 245l-95 -91v-154h-80v481h80v-238l239 238h102l-188 -181z" />
    <glyph glyph-name="Lacute" unicode="&#x139;" horiz-adv-x="551" 
d="M106 0v682h86v-607h347v-75h-433zM99 748l91 134h119l-129 -134h-81z" />
    <glyph glyph-name="lacute" unicode="&#x13a;" horiz-adv-x="244" 
d="M82 0v710h80v-710h-80zM72 780l85 142h109l-118 -142h-76z" />
    <glyph glyph-name="Lcommaaccent" unicode="&#x13b;" horiz-adv-x="551" 
d="M106 0v682h86v-607h347v-75h-433zM275 -52h86v-73q0 -36 -22.5 -59.5t-73.5 -23.5h-19v39h17q34 0 34 37h-22v80z" />
    <glyph glyph-name="lcommaaccent" unicode="&#x13c;" horiz-adv-x="244" 
d="M82 0v710h80v-710h-80zM81 -52h81v-73q0 -83 -92 -83h-19v39h19q33 0 33 39h-22v78z" />
    <glyph glyph-name="Lcaron" unicode="&#x13d;" horiz-adv-x="551" 
d="M106 0v682h86v-607h347v-75h-433zM268 568l33 189h86l-54 -189h-65z" />
    <glyph glyph-name="lcaron" unicode="&#x13e;" horiz-adv-x="269" 
d="M82 0v710h80v-710h-80zM211 568l33 189h86l-54 -189h-65z" />
    <glyph glyph-name="Ldot" unicode="&#x13f;" horiz-adv-x="551" 
d="M106 0v682h86v-607h347v-75h-433zM474 310h-105v124h105v-124z" />
    <glyph glyph-name="ldot" unicode="&#x140;" horiz-adv-x="352" 
d="M82 0v710h80v-710h-80zM351 260h-105v124h105v-124z" />
    <glyph glyph-name="Lslash" unicode="&#x141;" horiz-adv-x="561" 
d="M395 455v-73l-193 -86v-221h347v-75h-433v260l-106 -47v73l106 47v349h86v-312z" />
    <glyph glyph-name="lslash" unicode="&#x142;" horiz-adv-x="264" 
d="M172 0h-80v303l-81 -52v76l81 51v332h80v-282l81 52v-77l-81 -51v-352z" />
    <glyph glyph-name="Nacute" unicode="&#x143;" horiz-adv-x="764" 
d="M658 0h-106l-246 387q-64 101 -123 197h-1q4 -115 4 -352v-232h-80v682h114l239 -374q64 -99 121 -197h2q-5 143 -5 352v219h81v-682zM327 748l91 134h119l-129 -134h-81z" />
    <glyph glyph-name="nacute" unicode="&#x144;" horiz-adv-x="566" 
d="M491 0h-80v270q0 72 -16 103q-27 53 -97 53q-56 0 -89 -33q-47 -47 -47 -162v-231h-80v241q0 117 -3 240h77l2 -71h1q49 84 156 84q84 0 130 -48t46 -145v-301zM233 552l85 142h109l-118 -142h-76z" />
    <glyph glyph-name="Ncommaaccent" unicode="&#x145;" horiz-adv-x="764" 
d="M658 0h-106l-246 387q-64 101 -123 197h-1q4 -115 4 -352v-232h-80v682h114l239 -374q64 -99 121 -197h2q-5 143 -5 352v219h81v-682zM331 -52h86v-73q0 -36 -22.5 -59.5t-73.5 -23.5h-19v39h17q34 0 34 37h-22v80z" />
    <glyph glyph-name="ncommaaccent" unicode="&#x146;" horiz-adv-x="566" 
d="M491 0h-80v270q0 72 -16 103q-27 53 -97 53q-56 0 -89 -33q-47 -47 -47 -162v-231h-80v241q0 117 -3 240h77l2 -71h1q49 84 156 84q84 0 130 -48t46 -145v-301zM245 -52h81v-73q0 -83 -92 -83h-19v39h19q33 0 33 39h-22v78z" />
    <glyph glyph-name="Ncaron" unicode="&#x147;" horiz-adv-x="764" 
d="M658 0h-106l-246 387q-64 101 -123 197h-1q4 -115 4 -352v-232h-80v682h114l239 -374q64 -99 121 -197h2q-5 143 -5 352v219h81v-682zM543 882l-116 -134h-90l-116 134h83l78 -74l79 74h82z" />
    <glyph glyph-name="ncaron" unicode="&#x148;" horiz-adv-x="566" 
d="M491 0h-80v270q0 72 -16 103q-27 53 -97 53q-56 0 -89 -33q-47 -47 -47 -162v-231h-80v241q0 117 -3 240h77l2 -71h1q49 84 156 84q84 0 130 -48t46 -145v-301zM442 694l-101 -142h-99l-100 142h78l73 -87l73 87h76z" />
    <glyph glyph-name="Eng" unicode="&#x14a;" horiz-adv-x="764" 
d="M472 -90h40q37 0 50.5 23.5t13.5 66.5v2l-261 384q-70 103 -132 198h-1q4 -115 4 -352v-232h-80v682h110l234 -341q61 -90 131 -201h1q-5 178 -5 322v220h81v-683q0 -81 -33 -121t-111 -40q-28 0 -42 5v67z" />
    <glyph glyph-name="eng" unicode="&#x14b;" horiz-adv-x="566" 
d="M411 -21v291q0 72 -16 103q-27 53 -97 53q-56 0 -89 -33q-47 -47 -47 -162v-231h-80v241q0 117 -3 240h77l2 -71h1q49 84 156 84q84 0 130 -48t46 -145v-322q0 -30 -2 -53t-10.5 -50.5t-23.5 -45.5t-42.5 -30t-65.5 -12q-25 0 -39 6v62h33q43 0 56.5 31t13.5 92z" />
    <glyph glyph-name="Omacron" unicode="&#x14c;" horiz-adv-x="780" 
d="M626 341q0 127 -63.5 203.5t-172.5 76.5q-110 0 -173 -76.5t-63 -203.5t63 -203t173 -76q109 0 172.5 76t63.5 203zM717 342q0 -160 -91.5 -258.5t-236.5 -98.5q-147 0 -236.5 96.5t-89.5 258.5q0 160 91 258.5t237 98.5q147 0 236.5 -96.5t89.5 -258.5zM542 847v-71
h-305v71h305z" />
    <glyph glyph-name="omacron" unicode="&#x14d;" horiz-adv-x="564" 
d="M432 240q0 81 -40 133t-110 52t-110 -52t-40 -133q0 -80 40.5 -132.5t109.5 -52.5q70 0 110 52t40 133zM517 241q0 -112 -63 -183t-173 -71q-112 0 -173 69.5t-61 182.5q0 112 63 183.5t173 71.5q112 0 173 -69.5t61 -183.5zM421 653v-67h-277v67h277z" />
    <glyph glyph-name="Obreve" unicode="&#x14e;" horiz-adv-x="780" 
d="M626 341q0 127 -63.5 203.5t-172.5 76.5q-110 0 -173 -76.5t-63 -203.5t63 -203t173 -76q109 0 172.5 76t63.5 203zM717 342q0 -160 -91.5 -258.5t-236.5 -98.5q-147 0 -236.5 96.5t-89.5 258.5q0 160 91 258.5t237 98.5q147 0 236.5 -96.5t89.5 -258.5zM471 886h70
q0 -68 -38.5 -105t-113.5 -37t-112.5 37t-37.5 105h70q0 -75 81 -75t81 75z" />
    <glyph glyph-name="obreve" unicode="&#x14f;" horiz-adv-x="564" 
d="M432 240q0 81 -40 133t-110 52t-110 -52t-40 -133q0 -80 40.5 -132.5t109.5 -52.5q70 0 110 52t40 133zM517 241q0 -112 -63 -183t-173 -71q-112 0 -173 69.5t-61 182.5q0 112 63 183.5t173 71.5q112 0 173 -69.5t61 -183.5zM358 694h65q0 -140 -142 -140
q-140 0 -140 140h65q0 -76 76 -76t76 76z" />
    <glyph glyph-name="Ohungarumlaut" unicode="&#x150;" horiz-adv-x="780" 
d="M626 341q0 127 -63.5 203.5t-172.5 76.5q-110 0 -173 -76.5t-63 -203.5t63 -203t173 -76q109 0 172.5 76t63.5 203zM717 342q0 -160 -91.5 -258.5t-236.5 -98.5q-147 0 -236.5 96.5t-89.5 258.5q0 160 91 258.5t237 98.5q147 0 236.5 -96.5t89.5 -258.5zM237 748l73 134
h112l-107 -134h-78zM444 748l92 134h118l-128 -134h-82z" />
    <glyph glyph-name="ohungarumlaut" unicode="&#x151;" horiz-adv-x="564" 
d="M432 240q0 81 -40 133t-110 52t-110 -52t-40 -133q0 -80 40.5 -132.5t109.5 -52.5q70 0 110 52t40 133zM517 241q0 -112 -63 -183t-173 -71q-112 0 -173 69.5t-61 182.5q0 112 63 183.5t173 71.5q112 0 173 -69.5t61 -183.5zM147 552l66 142h103l-96 -142h-73zM326 552
l85 142h110l-120 -142h-75z" />
    <glyph glyph-name="OE" unicode="&#x152;" horiz-adv-x="1129" 
d="M1066 0h-456v109h-1q-33 -57 -92 -90t-138 -33q-142 0 -229 96t-87 258q0 160 88.5 258t229.5 98q78 0 136.5 -31t91.5 -83h1v100h439v-73h-353v-226h306v-69h-306v-240h370v-74zM610 341q0 127 -61 203.5t-167 76.5t-167 -76.5t-61 -203.5t61 -203t167 -76t167 76
t61 203z" />
    <glyph glyph-name="oe" unicode="&#x153;" horiz-adv-x="916" 
d="M822 132l48 -46q-75 -99 -207 -99q-137 0 -192 116q-25 -54 -74 -85t-116 -31q-112 0 -173 69.5t-61 182.5q0 112 63 183.5t173 71.5q136 0 189 -115q25 54 72.5 84.5t111.5 30.5q56 0 99.5 -20.5t67.5 -54t36 -71t12 -75.5q0 -31 -4 -51h-354q2 -78 44.5 -123t109.5 -45
q100 0 155 78zM282 55q70 0 109.5 52t39.5 133t-40 133t-109 52q-71 0 -110.5 -52t-39.5 -133q0 -80 40.5 -132.5t109.5 -52.5zM515 283h271q-1 61 -36.5 103t-96.5 42q-58 0 -94 -38t-44 -107z" />
    <glyph glyph-name="Racute" unicode="&#x154;" horiz-adv-x="694" 
d="M659 0h-109l-213 274h-145v-274h-86v682q22 0 117.5 0.5t140.5 0.5q128 0 194.5 -52.5t66.5 -149.5q0 -81 -49 -132t-139 -66zM192 608v-259q50 -2 163 -2q98 0 138.5 34t40.5 98q0 59 -37.5 94.5t-136.5 35.5q-116 0 -168 -1zM294 748l91 134h119l-129 -134h-81z" />
    <glyph glyph-name="racute" unicode="&#x155;" horiz-adv-x="350" 
d="M162 0h-80v241q0 117 -3 240h77l2 -95h1q30 54 72 80.5t87 26.5q13 0 17 -1v-87q-6 1 -19 1q-61 0 -101 -40q-34 -34 -43.5 -79t-9.5 -116v-171zM154 551l85 142h109l-118 -142h-76z" />
    <glyph glyph-name="Rcommaaccent" unicode="&#x156;" horiz-adv-x="694" 
d="M659 0h-109l-213 274h-145v-274h-86v682q22 0 117.5 0.5t140.5 0.5q128 0 194.5 -52.5t66.5 -149.5q0 -81 -49 -132t-139 -66zM192 608v-259q50 -2 163 -2q98 0 138.5 34t40.5 98q0 59 -37.5 94.5t-136.5 35.5q-116 0 -168 -1zM320 -52h86v-73q0 -36 -22.5 -59.5
t-73.5 -23.5h-19v39h17q34 0 34 37h-22v80z" />
    <glyph glyph-name="rcommaaccent" unicode="&#x157;" horiz-adv-x="350" 
d="M162 0h-80v241q0 117 -3 240h77l2 -95h1q30 54 72 80.5t87 26.5q13 0 17 -1v-87q-6 1 -19 1q-61 0 -101 -40q-34 -34 -43.5 -79t-9.5 -116v-171zM81 -52h81v-73q0 -83 -92 -83h-19v39h19q33 0 33 39h-22v78z" />
    <glyph glyph-name="Rcaron" unicode="&#x158;" horiz-adv-x="694" 
d="M659 0h-109l-213 274h-145v-274h-86v682q22 0 117.5 0.5t140.5 0.5q128 0 194.5 -52.5t66.5 -149.5q0 -81 -49 -132t-139 -66zM192 608v-259q50 -2 163 -2q98 0 138.5 34t40.5 98q0 59 -37.5 94.5t-136.5 35.5q-116 0 -168 -1zM509 882l-116 -134h-90l-116 134h83l78 -74
l79 74h82z" />
    <glyph glyph-name="rcaron" unicode="&#x159;" horiz-adv-x="350" 
d="M162 0h-80v241q0 117 -3 240h77l2 -95h1q30 54 72 80.5t87 26.5q13 0 17 -1v-87q-6 1 -19 1q-61 0 -101 -40q-34 -34 -43.5 -79t-9.5 -116v-171zM354 693l-101 -142h-99l-100 142h78l73 -87l73 87h76z" />
    <glyph glyph-name="Sacute" unicode="&#x15a;" horiz-adv-x="658" 
d="M57 109l49 63q105 -114 239 -114q74 0 117 32t43 86q0 39 -23.5 64.5t-60.5 39t-82 24t-90.5 24t-82.5 34t-60.5 59.5t-23.5 94q0 82 65 132t169 50q136 0 245 -94l-47 -65q-87 86 -200 86q-70 0 -107 -28t-37 -76q0 -38 23.5 -63t60.5 -38t82 -23t90.5 -24t82.5 -34.5
t60.5 -60.5t23.5 -96q0 -87 -71.5 -141.5t-178.5 -54.5q-165 0 -286 124zM266 748l91 134h119l-129 -134h-81z" />
    <glyph glyph-name="sacute" unicode="&#x15b;" horiz-adv-x="491" 
d="M45 69l42 59q77 -75 169 -75q48 0 75.5 19.5t27.5 53.5t-30.5 52.5t-74 27.5t-87 21.5t-74 45t-30.5 87.5q0 62 48.5 98t125.5 36q104 0 184 -65l-42 -56q-62 56 -143 56q-44 0 -67.5 -17.5t-23.5 -47.5q0 -33 30.5 -51t73.5 -27t86.5 -21.5t74 -45.5t30.5 -88
q0 -66 -52.5 -105t-132.5 -39q-119 0 -210 82zM189 552l85 142h109l-118 -142h-76z" />
    <glyph glyph-name="Scircumflex" unicode="&#x15c;" horiz-adv-x="658" 
d="M57 109l49 63q105 -114 239 -114q74 0 117 32t43 86q0 39 -23.5 64.5t-60.5 39t-82 24t-90.5 24t-82.5 34t-60.5 59.5t-23.5 94q0 82 65 132t169 50q136 0 245 -94l-47 -65q-87 86 -200 86q-70 0 -107 -28t-37 -76q0 -38 23.5 -63t60.5 -38t82 -23t90.5 -24t82.5 -34.5
t60.5 -60.5t23.5 -96q0 -87 -71.5 -141.5t-178.5 -54.5q-165 0 -286 124zM158 748l116 134h89l117 -134h-84l-78 74l-77 -74h-83z" />
    <glyph glyph-name="scircumflex" unicode="&#x15d;" horiz-adv-x="491" 
d="M45 69l42 59q77 -75 169 -75q48 0 75.5 19.5t27.5 53.5t-30.5 52.5t-74 27.5t-87 21.5t-74 45t-30.5 87.5q0 62 48.5 98t125.5 36q104 0 184 -65l-42 -56q-62 56 -143 56q-44 0 -67.5 -17.5t-23.5 -47.5q0 -33 30.5 -51t73.5 -27t86.5 -21.5t74 -45.5t30.5 -88
q0 -66 -52.5 -105t-132.5 -39q-119 0 -210 82zM89 552l101 142h99l100 -142h-78l-73 88l-73 -88h-76z" />
    <glyph glyph-name="Scedilla" unicode="&#x15e;" horiz-adv-x="658" 
d="M345 -204h-87l11.5 11.5l12.5 12.5t11.5 12t10.5 13.5t6 13t3 13.5q0 27 -50 50l38 66q-73 7 -129.5 35.5t-114.5 85.5l49 63q104 -114 239 -114q74 0 117 32t43 86q0 39 -23.5 64.5t-60.5 39t-82 24t-90.5 24t-82.5 34t-60.5 59.5t-23.5 94q0 82 65 132t169 50
q136 0 245 -94l-47 -65q-87 86 -200 86q-70 0 -107 -28t-37 -76q0 -38 23.5 -63t60.5 -38t82 -23t90.5 -24t82.5 -34.5t60.5 -60.5t23.5 -96q0 -80 -61.5 -133t-157.5 -61l-21 -37q44 -33 44 -72q0 -21 -16 -44.5t-36 -37.5z" />
    <glyph glyph-name="scedilla" unicode="&#x15f;" horiz-adv-x="491" 
d="M257 -204h-83q53 44 53 76q0 15 -11.5 26.5t-36.5 24.5l38 67q-97 10 -172 79l42 59q77 -75 169 -75q48 0 75.5 19.5t27.5 53.5t-30.5 52.5t-74 27.5t-87 21.5t-74 45t-30.5 87.5q0 62 48.5 98t125.5 36q102 0 184 -65l-42 -56q-65 56 -143 56q-44 0 -67.5 -17.5
t-23.5 -47.5q0 -33 30.5 -51t73.5 -27t86.5 -21.5t74 -45.5t30.5 -88q0 -60 -42.5 -97t-110.5 -44l-23 -40q43 -32 43 -72q0 -43 -50 -82z" />
    <glyph glyph-name="Scaron" unicode="&#x160;" horiz-adv-x="658" 
d="M57 109l49 63q105 -114 239 -114q74 0 117 32t43 86q0 39 -23.5 64.5t-60.5 39t-82 24t-90.5 24t-82.5 34t-60.5 59.5t-23.5 94q0 82 65 132t169 50q136 0 245 -94l-47 -65q-87 86 -200 86q-70 0 -107 -28t-37 -76q0 -38 23.5 -63t60.5 -38t82 -23t90.5 -24t82.5 -34.5
t60.5 -60.5t23.5 -96q0 -87 -71.5 -141.5t-178.5 -54.5q-165 0 -286 124zM480 882l-116 -134h-90l-116 134h83l78 -74l79 74h82z" />
    <glyph glyph-name="scaron" unicode="&#x161;" horiz-adv-x="491" 
d="M45 69l42 59q77 -75 169 -75q48 0 75.5 19.5t27.5 53.5t-30.5 52.5t-74 27.5t-87 21.5t-74 45t-30.5 87.5q0 62 48.5 98t125.5 36q104 0 184 -65l-42 -56q-62 56 -143 56q-44 0 -67.5 -17.5t-23.5 -47.5q0 -33 30.5 -51t73.5 -27t86.5 -21.5t74 -45.5t30.5 -88
q0 -66 -52.5 -105t-132.5 -39q-119 0 -210 82zM387 694l-101 -142h-99l-100 142h78l73 -87l73 87h76z" />
    <glyph glyph-name="Tcommaaccent" unicode="&#x162;" horiz-adv-x="534" 
d="M224 0v608h-231v74h548v-74h-231v-608h-86zM220 -52h86v-73q0 -36 -22.5 -59.5t-73.5 -23.5h-19v39h17q34 0 34 37h-22v80z" />
    <glyph glyph-name="tcommaaccent" unicode="&#x163;" horiz-adv-x="350" 
d="M105 415h-95v66h95v164l80 20v-184h140v-66h-140v-225q0 -64 3.5 -86t15.5 -34q14 -14 44 -14q47 0 77 16v-68q-35 -16 -92 -16q-67 0 -97.5 35t-30.5 115v277zM174 -52h81v-73q0 -83 -92 -83h-19v39h19q33 0 33 39h-22v78z" />
    <glyph glyph-name="Tcaron" unicode="&#x164;" horiz-adv-x="534" 
d="M224 0v608h-231v74h548v-74h-231v-608h-86zM424 882l-116 -134h-90l-116 134h83l78 -74l79 74h82z" />
    <glyph glyph-name="tcaron" unicode="&#x165;" horiz-adv-x="350" 
d="M105 415h-95v66h95v164l80 20v-184h140v-66h-140v-225q0 -64 3.5 -86t15.5 -34q14 -14 44 -14q47 0 77 16v-68q-35 -16 -92 -16q-67 0 -97.5 35t-30.5 115v277zM243 568l33 189h86l-54 -189h-65z" />
    <glyph glyph-name="Tbar" unicode="&#x166;" horiz-adv-x="534" 
d="M310 0h-86v309h-185v69h185v230h-231v74h548v-74h-231v-230h185v-69h-185v-309z" />
    <glyph glyph-name="tbar" unicode="&#x167;" horiz-adv-x="350" 
d="M105 276v139h-95v66h95v164l80 20v-184h140v-66h-140v-139h113v-63h-113v-27q0 -61 3.5 -82.5t15.5 -33.5q14 -14 44 -14q47 0 77 16v-68q-35 -16 -92 -16q-67 0 -97.5 35t-30.5 115v75h-85v63h85z" />
    <glyph glyph-name="Utilde" unicode="&#x168;" horiz-adv-x="732" 
d="M185 682v-421q0 -95 45.5 -147t137.5 -52q91 0 137 52t46 147v421h81v-424q0 -126 -68.5 -199.5t-197.5 -73.5q-139 0 -203 75t-64 191v431h86zM295 811q-38 0 -38 -59h-66q0 55 26 91t80 36q31 0 59 -16t48 -32t33 -16q18 0 27.5 17t9.5 42h67q0 -56 -26.5 -91.5
t-80.5 -35.5q-31 0 -58.5 16t-47.5 32t-33 16z" />
    <glyph glyph-name="utilde" unicode="&#x169;" horiz-adv-x="560" 
d="M482 0h-77l-2 70h-1q-48 -83 -154 -83q-82 0 -127.5 48t-45.5 145v301h80v-270q0 -72 16 -104q27 -53 93 -53q55 0 87 34q48 48 48 162v231h80v-244q0 -123 3 -237zM216 621q-35 0 -35 -59h-63q0 56 25 90t76 34q29 0 53 -16t41.5 -31.5t29.5 -15.5q36 0 36 58h63
q0 -55 -25.5 -89t-76.5 -34q-28 0 -52.5 16t-42 31.5t-29.5 15.5z" />
    <glyph glyph-name="Umacron" unicode="&#x16a;" horiz-adv-x="732" 
d="M185 682v-421q0 -95 45.5 -147t137.5 -52q91 0 137 52t46 147v421h81v-424q0 -126 -68.5 -199.5t-197.5 -73.5q-139 0 -203 75t-64 191v431h86zM518 847v-71h-305v71h305z" />
    <glyph glyph-name="umacron" unicode="&#x16b;" horiz-adv-x="560" 
d="M482 0h-77l-2 70h-1q-48 -83 -154 -83q-82 0 -127.5 48t-45.5 145v301h80v-270q0 -72 16 -104q27 -53 93 -53q55 0 87 34q48 48 48 162v231h80v-244q0 -123 3 -237zM419 652v-67h-277v67h277z" />
    <glyph glyph-name="Ubreve" unicode="&#x16c;" horiz-adv-x="732" 
d="M185 682v-421q0 -95 45.5 -147t137.5 -52q91 0 137 52t46 147v421h81v-424q0 -126 -68.5 -199.5t-197.5 -73.5q-139 0 -203 75t-64 191v431h86zM447 886h70q0 -68 -38.5 -105t-113.5 -37t-112.5 37t-37.5 105h70q0 -75 81 -75t81 75z" />
    <glyph glyph-name="ubreve" unicode="&#x16d;" horiz-adv-x="560" 
d="M482 0h-77l-2 70h-1q-48 -83 -154 -83q-82 0 -127.5 48t-45.5 145v301h80v-270q0 -72 16 -104q27 -53 93 -53q55 0 87 34q48 48 48 162v231h80v-244q0 -123 3 -237zM356 693h65q0 -140 -142 -140q-140 0 -140 140h65q0 -76 76 -76t76 76z" />
    <glyph glyph-name="Uring" unicode="&#x16e;" horiz-adv-x="732" 
d="M185 682v-421q0 -95 45.5 -147t137.5 -52q91 0 137 52t46 147v421h81v-424q0 -126 -68.5 -199.5t-197.5 -73.5q-139 0 -203 75t-64 191v431h86zM474 835q0 -41 -29 -69t-80 -28q-52 0 -80 26.5t-28 69.5q0 41 29.5 69t80.5 28q52 0 79.5 -26.5t27.5 -69.5zM410 834
q0 20 -11.5 33.5t-32.5 13.5q-22 0 -33 -13t-11 -34q0 -20 11.5 -33t32.5 -13t32.5 13t11.5 33z" />
    <glyph glyph-name="uring" unicode="&#x16f;" horiz-adv-x="560" 
d="M482 0h-77l-2 70h-1q-48 -83 -154 -83q-82 0 -127.5 48t-45.5 145v301h80v-270q0 -72 16 -104q27 -53 93 -53q55 0 87 34q48 48 48 162v231h80v-244q0 -123 3 -237zM389 645q0 -41 -29 -69t-80 -28q-52 0 -80 26.5t-28 68.5q0 41 29.5 69t80.5 28t79 -26.5t28 -68.5z
M325 644q0 20 -11.5 33t-32.5 13t-32.5 -13t-11.5 -33t11.5 -33t32.5 -13t32.5 13t11.5 33z" />
    <glyph glyph-name="Uhungarumlaut" unicode="&#x170;" horiz-adv-x="732" 
d="M185 682v-421q0 -95 45.5 -147t137.5 -52q91 0 137 52t46 147v421h81v-424q0 -126 -68.5 -199.5t-197.5 -73.5q-139 0 -203 75t-64 191v431h86zM211 748l73 134h112l-107 -134h-78zM418 748l92 134h118l-128 -134h-82z" />
    <glyph glyph-name="uhungarumlaut" unicode="&#x171;" horiz-adv-x="560" 
d="M482 0h-77l-2 70h-1q-48 -83 -154 -83q-82 0 -127.5 48t-45.5 145v301h80v-270q0 -72 16 -104q27 -53 93 -53q55 0 87 34q48 48 48 162v231h80v-244q0 -123 3 -237zM138 551l66 142h103l-96 -142h-73zM317 551l85 142h110l-120 -142h-75z" />
    <glyph glyph-name="Uogonek" unicode="&#x172;" horiz-adv-x="732" 
d="M523 -150v-54q-30 -8 -64 -8q-61 0 -84 20t-23 55q0 58 66 129q-25 -7 -52 -7q-139 0 -203 75t-64 191v431h86v-421q0 -95 45.5 -147t137.5 -52q91 0 137 52t46 147v421h81v-424q0 -132 -70 -202q-7 -7 -24.5 -23t-27.5 -27q-74 -73 -74 -131q0 -25 36 -25h51z" />
    <glyph glyph-name="uogonek" unicode="&#x173;" horiz-adv-x="560" 
d="M406 2l-3 68h-1q-48 -83 -154 -83q-82 0 -127.5 48t-45.5 145v301h80v-270q0 -72 16 -104q27 -53 93 -53q55 0 87 34q48 48 48 162v231h80v-240q0 -173 3 -241q-77 -79 -77 -128q0 -25 36 -25h49v-52q-35 -7 -60 -7q-59 0 -82 20t-23 55q0 55 81 139z" />
    <glyph glyph-name="Wcircumflex" unicode="&#x174;" horiz-adv-x="1037" 
d="M344 0h-100l-211 682h96l92 -320q56 -189 77 -266h2q24 86 81 267l99 319h80l102 -320q58 -174 84 -266h1q42 150 75 267l91 319h91l-211 -682h-100l-139 426q-17 53 -36 130h-1q-7 -34 -37 -130zM357 748l116 134h89l117 -134h-84l-78 74l-77 -74h-83z" />
    <glyph glyph-name="wcircumflex" unicode="&#x175;" horiz-adv-x="820" 
d="M619 0h-77l-82 219q-45 126 -53 154h-2q-17 -62 -50 -154l-78 -219h-77l-180 481h91l83 -235q40 -121 48 -150h2q22 80 48 151l81 234h71l83 -226q44 -125 55 -159h2q21 70 50 157l76 228h89zM259 551l101 142h99l100 -142h-78l-73 88l-73 -88h-76z" />
    <glyph glyph-name="Ycircumflex" unicode="&#x176;" horiz-adv-x="610" 
d="M348 0h-86v289l-262 393h104l204 -311l202 311h100l-262 -393v-289zM144 748l116 134h89l117 -134h-84l-78 74l-77 -74h-83z" />
    <glyph glyph-name="ycircumflex" unicode="&#x177;" horiz-adv-x="492" 
d="M204 -204h-88l96 204h-7l-194 481h92l78 -202q42 -106 68 -193h1q27 90 67 193l76 202h88zM97 551l101 142h99l100 -142h-78l-73 88l-73 -88h-76z" />
    <glyph glyph-name="Ydieresis" unicode="&#x178;" horiz-adv-x="610" 
d="M348 0h-86v289l-262 393h104l204 -311l202 311h100l-262 -393v-289zM235 758h-85v116h85v-116zM461 758h-85v116h85v-116z" />
    <glyph glyph-name="Zacute" unicode="&#x179;" horiz-adv-x="628" 
d="M584 77v-77h-540v77l421 530q-81 -1 -249 -1h-157v76h510v-76l-421 -530q85 1 238 1h198zM248 748l91 134h119l-129 -134h-81z" />
    <glyph glyph-name="zacute" unicode="&#x17a;" horiz-adv-x="494" 
d="M448 68v-68h-402v68l291 347q-48 -1 -147 -1h-133v67h376v-67l-290 -347q54 1 168 1h137zM191 551l85 142h109l-118 -142h-76z" />
    <glyph glyph-name="Zdotaccent" unicode="&#x17b;" horiz-adv-x="628" 
d="M584 77v-77h-540v77l421 530q-81 -1 -249 -1h-157v76h510v-76l-421 -530q85 1 238 1h198zM359 758h-87v116h87v-116z" />
    <glyph glyph-name="zdotaccent" unicode="&#x17c;" horiz-adv-x="494" 
d="M448 68v-68h-402v68l291 347q-48 -1 -147 -1h-133v67h376v-67l-290 -347q54 1 168 1h137zM281 566h-82v116h82v-116z" />
    <glyph glyph-name="Zcaron" unicode="&#x17d;" horiz-adv-x="628" 
d="M584 77v-77h-540v77l421 530q-81 -1 -249 -1h-157v76h510v-76l-421 -530q85 1 238 1h198zM477 882l-116 -134h-90l-116 134h83l78 -74l79 74h82z" />
    <glyph glyph-name="zcaron" unicode="&#x17e;" horiz-adv-x="494" 
d="M448 68v-68h-402v68l291 347q-48 -1 -147 -1h-133v67h376v-67l-290 -347q54 1 168 1h137zM397 693l-101 -142h-99l-100 142h78l73 -87l73 87h76z" />
    <glyph glyph-name="longs" unicode="&#x17f;" horiz-adv-x="260" 
d="M162 0h-80v570q0 146 140 146q42 0 75 -12v-69q-37 13 -72 13t-49 -19t-14 -65v-564z" />
    <glyph glyph-name="uni018F" unicode="&#x18f;" horiz-adv-x="728" 
d="M140 506l-66 40q99 151 278 151q137 0 225.5 -97t88.5 -258q0 -156 -86.5 -256.5t-222.5 -100.5q-149 0 -226 95.5t-77 259.5q0 17 2 39h516q-9 113 -69 177t-154 64q-137 0 -209 -114zM359 62q93 0 149.5 66t64.5 182h-428q5 -114 57.5 -181t156.5 -67z" />
    <glyph glyph-name="florin" unicode="&#x192;" horiz-adv-x="526" 
d="M447 388v-67h-169l-27 -213q-6 -49 -11.5 -78.5t-18 -64t-31 -53t-49 -31t-73.5 -12.5q-49 0 -92 18l20 68q42 -16 76 -16q45 0 63.5 37t31.5 132l26 213h-139v67h147l13 96q6 50 12 79t18.5 63.5t30.5 53t49 31t73 12.5q51 0 92 -18l-20 -68q-39 16 -76 16
q-45 0 -63.5 -37t-30.5 -132l-13 -96h161z" />
    <glyph glyph-name="Gcaron" unicode="&#x1e6;" horiz-adv-x="758" 
d="M663 0h-77v104h-1q-29 -54 -83.5 -86.5t-128.5 -32.5q-136 0 -223 96t-87 259q0 159 90.5 258t229.5 99q186 0 274 -154l-69 -49q-69 127 -211 127q-102 0 -162.5 -78t-60.5 -202q0 -129 62 -204.5t164 -75.5q88 0 142 63t54 154v19h-192v70h279v-367zM544 882l-116 -134
h-90l-116 134h83l78 -74l79 74h82z" />
    <glyph glyph-name="gcaron" unicode="&#x1e7;" horiz-adv-x="586" 
d="M433 481h78q-7 -75 -7 -239v-255q0 -94 -52.5 -147.5t-162.5 -53.5q-140 0 -222 108l53 51q63 -93 171 -93q67 0 100.5 34.5t33.5 95.5q0 13 0.5 43.5t0.5 44.5h-1q-50 -80 -159 -80q-103 0 -160.5 69t-57.5 180q0 117 61.5 186t160.5 69q104 0 158 -81h1zM425 232v18
q0 78 -40 127t-107 49q-69 0 -107 -50.5t-38 -134.5q0 -81 39.5 -133t109.5 -52q65 0 104 47t39 129zM430 694l-101 -142h-99l-100 142h78l73 -87l73 87h76z" />
    <glyph glyph-name="Aringacute" unicode="&#x1fa;" horiz-adv-x="651" 
d="M432 742q0 -58 -51 -83l253 -659h-98l-66 182h-295l-64 -182h-94l251 657q-51 24 -51 84q0 40 29 67t80 27q52 0 79 -25.5t27 -67.5zM260 420l-61 -170h246l-62 173q-48 131 -61 179h-1q-17 -63 -61 -182zM278 874l81 106h117l-118 -106h-80zM367 741q0 45 -42 45
q-21 0 -32 -12.5t-11 -31.5q0 -20 11 -32.5t32 -12.5t31.5 12.5t10.5 31.5z" />
    <glyph glyph-name="aringacute" unicode="&#x1fb;" horiz-adv-x="521" 
d="M366 198v31q-135 0 -185 -23t-50 -72q0 -38 25 -59.5t73 -21.5q61 0 99 43.5t38 101.5zM105 346l-49 47q79 101 205 101q94 0 139.5 -44.5t45.5 -123.5v-90q0 -113 3 -236h-77l-2 69h-1q-59 -82 -158 -82q-75 0 -119.5 39.5t-44.5 104.5q0 38 15.5 66t51.5 50t99 33
t153 11v33q0 104 -111 104q-91 0 -150 -82zM371 633q0 -40 -29 -68t-79 -28q-51 0 -78.5 26.5t-27.5 67.5q0 40 29 68t79 28q51 0 78.5 -26.5t27.5 -67.5zM308 632q0 20 -11.5 33t-32.5 13t-32.5 -13t-11.5 -33t11.5 -33t32.5 -13t32.5 13t11.5 33zM227 771l81 118h109
l-117 -118h-73z" />
    <glyph glyph-name="AEacute" unicode="&#x1fc;" horiz-adv-x="972" 
d="M325 682h567v-72h-351v-227h304v-69h-304v-241h368v-73h-454v177h-288l-87 -177h-96zM378 610l-179 -364h256v364h-77zM550 748l91 134h119l-129 -134h-81z" />
    <glyph glyph-name="aeacute" unicode="&#x1fd;" horiz-adv-x="849" 
d="M105 346l-49 47q79 101 205 101q121 0 160 -80q56 80 168 80q56 0 99.5 -20.5t67.5 -54t36 -71t12 -75.5q0 -31 -4 -51h-354q2 -78 44.5 -123t109.5 -45q100 0 155 78l48 -46q-75 -99 -207 -99q-136 0 -196 113q-56 -113 -188 -113q-76 0 -120.5 39.5t-44.5 104.5
q0 38 15.5 66t51.5 50t99 33t153 11v33q-2 104 -111 104q-91 0 -150 -82zM448 283h271q-1 61 -36.5 103t-96.5 42q-58 0 -94 -38t-44 -107zM229 53q61 0 99 43.5t38 101.5v31q-135 0 -185 -23t-50 -72q0 -38 25 -59.5t73 -21.5zM387 551l85 142h109l-118 -142h-76z" />
    <glyph glyph-name="Oslashacute" unicode="&#x1fe;" horiz-adv-x="780" 
d="M114 -20l-55 49l72 79q-68 91 -68 232q0 160 91 258.5t237 98.5q121 0 206 -71l69 76l54 -49l-72 -80q69 -91 69 -231q0 -160 -91.5 -258.5t-236.5 -98.5q-124 0 -207 71zM588 507l-351 -389q59 -57 153 -57q110 0 173.5 76.5t63.5 203.5q0 97 -39 166zM192 175l351 389
q-60 58 -153 58q-110 0 -173.5 -77t-63.5 -204q0 -99 39 -166zM335 748l91 134h119l-129 -134h-81z" />
    <glyph glyph-name="oslashacute" unicode="&#x1ff;" horiz-adv-x="564" 
d="M77 -35l-48 43l62 69q-44 65 -44 162q0 112 63 183.5t173 71.5q85 0 144 -45l60 67l48 -43l-63 -69q45 -66 45 -163q0 -112 -63 -183t-173 -71q-87 0 -145 44zM150 141l226 250q-39 36 -94 36q-71 0 -111 -52.5t-40 -134.5q0 -55 19 -99zM413 339l-225 -250
q37 -35 94 -35q71 0 111 52.5t40 133.5q0 56 -20 99zM232 552l85 142h109l-118 -142h-76z" />
    <glyph glyph-name="Scommaaccent" unicode="&#x218;" horiz-adv-x="658" 
d="M57 109l49 63q105 -114 239 -114q74 0 117 32t43 86q0 39 -23.5 64.5t-60.5 39t-82 24t-90.5 24t-82.5 34t-60.5 59.5t-23.5 94q0 82 65 132t169 50q136 0 245 -94l-47 -65q-87 86 -200 86q-70 0 -107 -28t-37 -76q0 -38 23.5 -63t60.5 -38t82 -23t90.5 -24t82.5 -34.5
t60.5 -60.5t23.5 -96q0 -87 -71.5 -141.5t-178.5 -54.5q-165 0 -286 124zM300 -52h86v-73q0 -36 -22.5 -59.5t-73.5 -23.5h-19v39h17q34 0 34 37h-22v80z" />
    <glyph glyph-name="scommaaccent" unicode="&#x219;" horiz-adv-x="491" 
d="M45 69l42 59q77 -75 169 -75q48 0 75.5 19.5t27.5 53.5t-30.5 52.5t-74 27.5t-87 21.5t-74 45t-30.5 87.5q0 62 48.5 98t125.5 36q104 0 184 -65l-42 -56q-62 56 -143 56q-44 0 -67.5 -17.5t-23.5 -47.5q0 -33 30.5 -51t73.5 -27t86.5 -21.5t74 -45.5t30.5 -88
q0 -66 -52.5 -105t-132.5 -39q-119 0 -210 82zM216 -52h81v-73q0 -83 -92 -83h-19v39h19q33 0 33 39h-22v78z" />
    <glyph glyph-name="uni021A" unicode="&#x21a;" horiz-adv-x="534" 
d="M224 0v608h-231v74h548v-74h-231v-608h-86zM220 -52h86v-73q0 -36 -22.5 -59.5t-73.5 -23.5h-19v39h17q34 0 34 37h-22v80z" />
    <glyph glyph-name="uni021B" unicode="&#x21b;" horiz-adv-x="350" 
d="M105 415h-95v66h95v164l80 20v-184h140v-66h-140v-225q0 -64 3.5 -86t15.5 -34q14 -14 44 -14q47 0 77 16v-68q-35 -16 -92 -16q-67 0 -97.5 35t-30.5 115v277zM174 -52h81v-73q0 -83 -92 -83h-19v39h19q33 0 33 39h-22v78z" />
    <glyph glyph-name="dotlessj" unicode="&#x237;" horiz-adv-x="253" 
d="M91 481h80v-507q0 -102 -30 -144t-101 -42q-33 0 -51 5v63h44q35 0 46.5 27t11.5 94v504z" />
    <glyph glyph-name="uni0259" unicode="&#x259;" horiz-adv-x="536" 
d="M94 349l-48 46q78 99 207 99q111 0 173.5 -69t62.5 -184q0 -114 -62 -184t-167 -70q-56 0 -99 20.5t-67.5 54t-36.5 70.5t-12 75q0 32 4 52h354q-2 78 -44.5 123t-109.5 45q-95 0 -155 -78zM401 197h-270q0 -61 35.5 -103t96.5 -42q58 0 94 38t44 107z" />
    <glyph glyph-name="quoteleft" unicode="&#x2bb;" horiz-adv-x="263" 
d="M186 476h-109v117q0 93 20 134.5t84 78.5l28 -48q-41 -28 -53.5 -55.5t-12.5 -85.5h43v-141z" />
    <glyph glyph-name="quoteleft" unicode="&#x2018;" horiz-adv-x="263" 
d="M186 476h-109v117q0 93 20 134.5t84 78.5l28 -48q-41 -28 -53.5 -55.5t-12.5 -85.5h43v-141z" />
    <glyph glyph-name="quoteright" unicode="&#x2bc;" horiz-adv-x="263" 
d="M77 785h109v-117q0 -94 -21 -136t-84 -76l-28 47q41 28 54 54.5t13 86.5h-43v141z" />
    <glyph glyph-name="quoteright" unicode="&#x2019;" horiz-adv-x="263" 
d="M77 785h109v-117q0 -94 -21 -136t-84 -76l-28 47q41 28 54 54.5t13 86.5h-43v141z" />
    <glyph glyph-name="circumflex" unicode="&#x2c6;" horiz-adv-x="440" 
d="M70 551l101 142h99l100 -142h-78l-73 88l-73 -88h-76z" />
    <glyph glyph-name="caron" unicode="&#x2c7;" horiz-adv-x="440" 
d="M370 693l-101 -142h-99l-100 142h78l73 -87l73 87h76z" />
    <glyph glyph-name="breve" unicode="&#x2d8;" horiz-adv-x="438" 
d="M295 693h65q0 -140 -142 -140q-140 0 -140 140h65q0 -76 76 -76t76 76z" />
    <glyph glyph-name="dotaccent" unicode="&#x2d9;" horiz-adv-x="240" 
d="M161 566h-82v116h82v-116z" />
    <glyph glyph-name="ring" unicode="&#x2da;" horiz-adv-x="397" 
d="M307 645q0 -41 -29 -69t-80 -28q-52 0 -80 26.5t-28 68.5q0 41 29.5 69t80.5 28t79 -26.5t28 -68.5zM243 644q0 20 -11.5 33t-32.5 13t-32.5 -13t-11.5 -33t11.5 -33t32.5 -13t32.5 13t11.5 33z" />
    <glyph glyph-name="ogonek" unicode="&#x2db;" horiz-adv-x="322" 
d="M146 0h76q-64 -96 -64 -128q0 -25 37 -25h49v-51q-34 -8 -60 -8q-60 0 -82.5 19.5t-22.5 55.5q0 46 67 137z" />
    <glyph glyph-name="tilde" unicode="&#x2dc;" horiz-adv-x="482" 
d="M177 621q-35 0 -35 -59h-63q0 56 25 90t76 34q29 0 53.5 -16t41.5 -31.5t29 -15.5q36 0 36 58h63q0 -55 -25.5 -89t-76.5 -34q-28 0 -52.5 16t-42 31.5t-29.5 15.5z" />
    <glyph glyph-name="hungarumlaut" unicode="&#x2dd;" horiz-adv-x="523" 
d="M75 551l66 142h103l-96 -142h-73zM254 551l85 142h110l-120 -142h-75z" />
    <glyph glyph-name="uni0312" unicode="&#x312;" horiz-adv-x="257" 
d="M160 566h-81v77q0 84 92 84h19v-40h-19q-33 0 -33 -39h22v-82z" />
    <glyph glyph-name="uni0315" unicode="&#x315;" horiz-adv-x="274" 
d="M78 568l33 189h86l-54 -189h-65z" />
    <glyph glyph-name="uni0326" unicode="&#x326;" horiz-adv-x="269" 
d="M109 -52h81v-73q0 -83 -92 -83h-19v39h19q33 0 33 39h-22v78z" />
    <glyph glyph-name="uni037E" unicode="&#x37e;" horiz-adv-x="300" 
d="M97 139h105v-115q0 -106 -19 -150t-86 -80l-28 47q43 29 55.5 56.5t12.5 102.5h-40v139zM202 342h-105v139h105v-139z" />
    <glyph glyph-name="tonos" unicode="&#x384;" horiz-adv-x="263" 
d="M79 551l16 142h89l-37 -142h-68z" />
    <glyph glyph-name="dieresistonos" unicode="&#x385;" horiz-adv-x="474" 
d="M154 566h-75v116h75v-116zM396 566h-76v116h76v-116zM192 566l15 148h85l-36 -148h-64z" />
    <glyph glyph-name="Alphatonos" unicode="&#x386;" horiz-adv-x="651" 
d="M278 682h94l262 -682h-98l-66 182h-295l-64 -182h-94zM260 420l-61 -170h246l-62 173q-48 131 -61 179h-1q-17 -63 -61 -182zM56 535l31 192h88l-52 -192h-67z" />
    <glyph glyph-name="anoteleia" unicode="&#x387;" horiz-adv-x="262" 
d="M184 356h-105v124h105v-124z" />
    <glyph glyph-name="Epsilontonos" unicode="&#x388;" horiz-adv-x="671" 
d="M131 0v682h460v-72h-374v-227h327v-69h-327v-241h391v-73h-477zM-40 535l31 192h88l-52 -192h-67z" />
    <glyph glyph-name="Etatonos" unicode="&#x389;" horiz-adv-x="781" 
d="M131 0v682h86v-291h372v291h86v-682h-86v315h-372v-315h-86zM-40 535l31 192h88l-52 -192h-67z" />
    <glyph glyph-name="Iotatonos" unicode="&#x38a;" horiz-adv-x="322" 
d="M131 0v682h86v-682h-86zM-40 535l31 192h88l-52 -192h-67z" />
    <glyph glyph-name="Omicrontonos" unicode="&#x38c;" horiz-adv-x="796" 
d="M642 341q0 127 -63.5 203.5t-172.5 76.5q-110 0 -173 -76.5t-63 -203.5t63 -203t173 -76q109 0 172.5 76t63.5 203zM733 342q0 -160 -91.5 -258.5t-236.5 -98.5q-147 0 -236.5 96.5t-89.5 258.5q0 160 91 258.5t237 98.5q147 0 236.5 -96.5t89.5 -258.5zM-25 535l31 192
h88l-52 -192h-67z" />
    <glyph glyph-name="Upsilontonos" unicode="&#x38e;" horiz-adv-x="716" 
d="M454 0h-86v289l-262 393h104l204 -311l202 311h100l-262 -393v-289zM-37 535l31 192h88l-52 -192h-67z" />
    <glyph glyph-name="Omegatonos" unicode="&#x38f;" horiz-adv-x="799" 
d="M344 0h-262v74h185v1q-180 103 -180 306q0 135 90.5 225.5t232.5 90.5q144 0 231.5 -88.5t87.5 -227.5q0 -197 -179 -306v-1h185v-74h-262v98q86 52 125.5 117.5t39.5 157.5q0 111 -62 179.5t-168 68.5t-167.5 -67.5t-61.5 -180.5q0 -93 39 -157.5t126 -117.5v-98z
M-25 535l31 192h88l-52 -192h-67z" />
    <glyph glyph-name="iotadieresistonos" unicode="&#x390;" horiz-adv-x="253" 
d="M247 69v-68q-34 -13 -67 -13q-55 0 -79.5 30.5t-24.5 98.5v364h80v-352q0 -42 9 -57.5t33 -15.5q27 0 49 13zM46 566h-75v116h75v-116zM288 566h-76v116h76v-116zM84 566l15 148h85l-36 -148h-64z" />
    <glyph glyph-name="Alpha" unicode="&#x391;" horiz-adv-x="651" 
d="M278 682h94l262 -682h-98l-66 182h-295l-64 -182h-94zM260 420l-61 -170h246l-62 173q-48 131 -61 179h-1q-17 -63 -61 -182z" />
    <glyph glyph-name="Beta" unicode="&#x392;" horiz-adv-x="709" 
d="M192 312v-240q53 -1 167 -1q46 0 77.5 4t62 15.5t46 36t15.5 62.5q0 34 -13 58t-31 36.5t-49 19.5t-54 8t-60 1h-161zM192 610v-229h160q62 0 98 7.5t61 32.5q29 29 29 80q0 43 -28 71q-23 23 -63.5 31t-122.5 8q-93 0 -134 -1zM106 0v682q30 0 104 0.5t123 0.5
q99 0 157 -12.5t95 -49.5q44 -44 44 -109q0 -116 -115 -158q67 -15 102 -58t35 -106q0 -58 -23.5 -97.5t-68 -59t-93.5 -27t-115 -7.5q-43 0 -125 0.5t-120 0.5z" />
    <glyph glyph-name="Gamma" unicode="&#x393;" horiz-adv-x="525" 
d="M106 0v682h413v-74h-327v-608h-86z" />
    <glyph glyph-name="Delta" unicode="&#x394;" horiz-adv-x="649" 
d="M612 68v-68h-575v65l241 617h94zM232 349l-102 -276h385l-102 274q-79 211 -91 255h-2q-14 -52 -88 -253z" />
    <glyph glyph-name="Delta" unicode="&#x2206;" horiz-adv-x="649" 
d="M612 68v-68h-575v65l241 617h94zM232 349l-102 -276h385l-102 274q-79 211 -91 255h-2q-14 -52 -88 -253z" />
    <glyph glyph-name="Epsilon" unicode="&#x395;" horiz-adv-x="646" 
d="M106 0v682h460v-72h-374v-227h327v-69h-327v-241h391v-73h-477z" />
    <glyph glyph-name="Zeta" unicode="&#x396;" horiz-adv-x="628" 
d="M584 77v-77h-540v77l421 530q-81 -1 -249 -1h-157v76h510v-76l-421 -530q85 1 238 1h198z" />
    <glyph glyph-name="Eta" unicode="&#x397;" horiz-adv-x="756" 
d="M106 0v682h86v-291h372v291h86v-682h-86v315h-372v-315h-86z" />
    <glyph glyph-name="Theta" unicode="&#x398;" horiz-adv-x="780" 
d="M521 312h-263v72h263v-72zM626 341q0 127 -63.5 203.5t-172.5 76.5q-110 0 -173 -76.5t-63 -203.5t63 -203t173 -76q109 0 172.5 76t63.5 203zM717 342q0 -160 -91.5 -258.5t-236.5 -98.5q-147 0 -236.5 96.5t-89.5 258.5q0 160 91 258.5t237 98.5q147 0 236.5 -96.5
t89.5 -258.5z" />
    <glyph glyph-name="Iota" unicode="&#x399;" horiz-adv-x="297" 
d="M106 0v682h86v-682h-86z" />
    <glyph glyph-name="Kappa" unicode="&#x39a;" horiz-adv-x="678" 
d="M545 682h114l-263 -257l281 -425h-104l-238 365l-143 -139v-226h-86v682h86v-352z" />
    <glyph glyph-name="Lambda" unicode="&#x39b;" horiz-adv-x="640" 
d="M275 682h90l258 -682h-96l-135 372q-57 155 -74 215h-2q-15 -55 -74 -216l-132 -371h-94z" />
    <glyph glyph-name="Mu" unicode="&#x39c;" horiz-adv-x="946" 
d="M106 0v682h140l140 -337q69 -165 87 -224h2q22 71 87 224l139 337h139v-682h-86v240q0 274 3 371h-3q-18 -49 -86 -215l-162 -396h-71l-163 397q-66 159 -86 214h-3q3 -97 3 -371v-240h-80z" />
    <glyph glyph-name="Nu" unicode="&#x39d;" horiz-adv-x="764" 
d="M658 0h-106l-246 387q-64 101 -123 197h-1q4 -115 4 -352v-232h-80v682h114l239 -374q64 -99 121 -197h2q-5 143 -5 352v219h81v-682z" />
    <glyph glyph-name="Xi" unicode="&#x39e;" horiz-adv-x="543" 
d="M460 392v-84h-377v84h377zM485 599h-427v83h427v-83zM43 83h457v-83h-457v83z" />
    <glyph glyph-name="Omicron" unicode="&#x39f;" horiz-adv-x="780" 
d="M626 341q0 127 -63.5 203.5t-172.5 76.5q-110 0 -173 -76.5t-63 -203.5t63 -203t173 -76q109 0 172.5 76t63.5 203zM717 342q0 -160 -91.5 -258.5t-236.5 -98.5q-147 0 -236.5 96.5t-89.5 258.5q0 160 91 258.5t237 98.5q147 0 236.5 -96.5t89.5 -258.5z" />
    <glyph glyph-name="Pi" unicode="&#x3a0;" horiz-adv-x="753" 
d="M647 0h-86v609h-369v-609h-86v682h541v-682z" />
    <glyph glyph-name="Rho" unicode="&#x3a1;" horiz-adv-x="643" 
d="M539 474q0 67 -41 101t-137 34q-117 0 -169 -1v-268q53 -1 167 -1q96 0 138 34.5t42 100.5zM106 0v682q37 0 125 0.5t132 0.5q267 0 267 -207q0 -105 -71.5 -157.5t-202.5 -52.5q-103 0 -164 1v-267h-86z" />
    <glyph glyph-name="Sigma" unicode="&#x3a3;" horiz-adv-x="603" 
d="M559 77v-77h-501v77l226 265l-225 264v76h483v-76h-181q-128 0 -199 1l229 -265l-228 -266q68 1 186 1h210z" />
    <glyph glyph-name="Tau" unicode="&#x3a4;" horiz-adv-x="534" 
d="M224 0v608h-231v74h548v-74h-231v-608h-86z" />
    <glyph glyph-name="Upsilon" unicode="&#x3a5;" horiz-adv-x="610" 
d="M348 0h-86v289l-262 393h104l204 -311l202 311h100l-262 -393v-289z" />
    <glyph glyph-name="Phi" unicode="&#x3a6;" horiz-adv-x="952" 
d="M519 -52h-86v75q-180 8 -276 87t-96 230q0 149 97 229t275 88v77h86v-76q180 -8 276.5 -86.5t96.5 -229.5q0 -149 -97.5 -229t-275.5 -89v-76zM801 341q0 230 -283 245v-489q283 14 283 244zM152 341q0 -117 70 -176.5t212 -67.5v488q-282 -15 -282 -244z" />
    <glyph glyph-name="Chi" unicode="&#x3a7;" horiz-adv-x="597" 
d="M2 0l244 358l-216 324h104l166 -255l170 255h97l-216 -319l244 -363h-105l-193 295l-196 -295h-99z" />
    <glyph glyph-name="Psi" unicode="&#x3a8;" horiz-adv-x="923" 
d="M419 0v162q-89 4 -153 28t-99.5 62.5t-51.5 83.5t-16 100v246h86v-236q0 -196 234 -212v448h86v-448q235 16 235 208v240h84v-249q0 -53 -16 -97.5t-51.5 -83t-99.5 -62t-152 -28.5v-162h-86z" />
    <glyph glyph-name="Omega" unicode="&#x3a9;" horiz-adv-x="783" 
d="M327 0h-262v74h185v1q-180 103 -180 306q0 135 90.5 225.5t232.5 90.5q144 0 231.5 -88.5t87.5 -227.5q0 -197 -179 -306v-1h185v-74h-262v98q86 52 125.5 117.5t39.5 157.5q0 111 -62 179.5t-168 68.5t-167.5 -67.5t-61.5 -180.5q0 -93 39 -157.5t126 -117.5v-98z" />
    <glyph glyph-name="Omega" unicode="&#x2126;" horiz-adv-x="783" 
d="M327 0h-262v74h185v1q-180 103 -180 306q0 135 90.5 225.5t232.5 90.5q144 0 231.5 -88.5t87.5 -227.5q0 -197 -179 -306v-1h185v-74h-262v98q86 52 125.5 117.5t39.5 157.5q0 111 -62 179.5t-168 68.5t-167.5 -67.5t-61.5 -180.5q0 -93 39 -157.5t126 -117.5v-98z" />
    <glyph glyph-name="Iotadieresis" unicode="&#x3aa;" horiz-adv-x="297" 
d="M106 0v682h86v-682h-86zM78 758h-85v116h85v-116zM304 758h-85v116h85v-116z" />
    <glyph glyph-name="Upsilondieresis" unicode="&#x3ab;" horiz-adv-x="610" 
d="M348 0h-86v289l-262 393h104l204 -311l202 311h100l-262 -393v-289zM235 758h-85v116h85v-116zM461 758h-85v116h85v-116z" />
    <glyph glyph-name="alphatonos" unicode="&#x3ac;" horiz-adv-x="599" 
d="M593 69v-68q-34 -13 -67 -13q-89 0 -99 84h-1q-47 -85 -161 -85q-103 0 -160.5 70t-57.5 181q0 118 61.5 187t160.5 69q104 0 158 -81h1l3 68h78q-7 -138 -7 -236v-116q0 -42 9 -57.5t33 -15.5q27 0 49 13zM425 230v20q0 78 -40 127t-107 49q-70 0 -108 -50.5t-38 -135.5
q0 -82 39 -134t110 -52q65 0 104.5 47t39.5 129zM248 552l16 142h89l-37 -142h-68z" />
    <glyph glyph-name="epsilontonos" unicode="&#x3ad;" horiz-adv-x="486" 
d="M352 277v-61h-89q-128 0 -128 -79q0 -84 128 -84q104 0 157 74l58 -48q-71 -92 -221 -92q-102 0 -156 39.5t-54 108.5q0 38 25.5 69.5t74.5 42.5v1q-35 10 -57 38t-22 69q0 62 49.5 100.5t143.5 38.5q138 0 211 -88l-59 -46q-54 68 -151 68q-109 0 -109 -74
q0 -33 26.5 -55t83.5 -22h89zM222 552l16 142h89l-37 -142h-68z" />
    <glyph glyph-name="etatonos" unicode="&#x3ae;" horiz-adv-x="566" 
d="M491 -204h-80v474q0 72 -16 103q-27 53 -97 53q-56 0 -89 -33q-47 -47 -47 -162v-231h-80v241q0 117 -3 240h77l2 -71h1q49 84 156 84q84 0 130 -48t46 -145v-505zM251 552l16 142h89l-37 -142h-68z" />
    <glyph glyph-name="iotatonos" unicode="&#x3af;" horiz-adv-x="253" 
d="M247 69v-68q-34 -13 -67 -13q-55 0 -79.5 30.5t-24.5 98.5v364h80v-352q0 -42 9 -57.5t33 -15.5q27 0 49 13zM79 551l16 142h89l-37 -142h-68z" />
    <glyph glyph-name="upsilondieresistonos" unicode="&#x3b0;" horiz-adv-x="557" 
d="M155 481v-269q0 -73 16 -103q27 -54 108 -54q68 0 99 41q24 31 24 97v288h80v-294q0 -200 -204 -200q-107 0 -155 50t-48 149v295h80zM195 566h-75v116h75v-116zM437 566h-76v116h76v-116zM233 566l15 148h85l-36 -148h-64z" />
    <glyph glyph-name="alpha" unicode="&#x3b1;" horiz-adv-x="599" 
d="M593 69v-68q-34 -13 -67 -13q-89 0 -99 84h-1q-47 -85 -161 -85q-103 0 -160.5 70t-57.5 181q0 118 61.5 187t160.5 69q104 0 158 -81h1l3 68h78q-7 -138 -7 -236v-116q0 -42 9 -57.5t33 -15.5q27 0 49 13zM425 230v20q0 78 -40 127t-107 49q-70 0 -108 -50.5t-38 -135.5
q0 -82 39 -134t110 -52q65 0 104.5 47t39.5 129z" />
    <glyph glyph-name="beta" unicode="&#x3b2;" horiz-adv-x="565" 
d="M162 -204h-80v713q0 95 52 151t146 56q90 0 145 -48t55 -133q0 -108 -100 -149v-1q134 -35 134 -186q0 -92 -58 -152t-153 -60q-96 0 -142 66h-1q2 -30 2 -88v-169zM162 512v-302q0 -72 36.5 -114t100.5 -42q61 0 95.5 40t34.5 104q0 149 -154 149h-34v64h33q57 0 89 34
t32 86q0 55 -32.5 86.5t-83.5 31.5q-54 0 -85.5 -34t-31.5 -103z" />
    <glyph glyph-name="gamma" unicode="&#x3b3;" horiz-adv-x="497" 
d="M284 -204h-80v215l-193 470h93l78 -200q45 -111 71 -190h1q121 215 122 390h85q-4 -119 -48 -228t-129 -244v-213z" />
    <glyph glyph-name="delta" unicode="&#x3b4;" horiz-adv-x="564" 
d="M461 669l-36 -66q-68 47 -141 47q-86 0 -86 -59q0 -28 18 -46q21 -21 109 -51.5t123 -65.5q69 -69 69 -188q0 -111 -63 -182t-173 -71q-112 0 -173 69t-61 182q0 82 35.5 142.5t98.5 88.5q-16 10 -27 22q-41 41 -41 98q0 61 46.5 94t122.5 33q101 0 179 -47zM384 376
q-33 32 -123 60q-129 -46 -129 -197q0 -80 40.5 -132t109.5 -52q70 0 110 52t40 132q0 89 -48 137z" />
    <glyph glyph-name="epsilon" unicode="&#x3b5;" horiz-adv-x="486" 
d="M352 277v-61h-89q-128 0 -128 -79q0 -84 128 -84q104 0 157 74l58 -48q-71 -92 -221 -92q-102 0 -156 39.5t-54 108.5q0 38 25.5 69.5t74.5 42.5v1q-35 10 -57 38t-22 69q0 62 49.5 100.5t143.5 38.5q138 0 211 -88l-59 -46q-54 68 -151 68q-109 0 -109 -74
q0 -33 26.5 -55t83.5 -22h89z" />
    <glyph glyph-name="zeta" unicode="&#x3b6;" horiz-adv-x="426" 
d="M77 640v70h331v-67q-114 -91 -195 -201t-81 -202q0 -74 35 -109q21 -21 62 -33.5t85.5 -27.5t72.5 -42q35 -37 35 -90q0 -56 -38 -150l-77 16q30 85 30 128q0 27 -18 45q-16 16 -56.5 27t-85.5 27t-74 45q-56 56 -56 146q0 200 261 420q-92 -2 -132 -2h-99z" />
    <glyph glyph-name="eta" unicode="&#x3b7;" horiz-adv-x="566" 
d="M491 -204h-80v474q0 72 -16 103q-27 53 -97 53q-56 0 -89 -33q-47 -47 -47 -162v-231h-80v241q0 117 -3 240h77l2 -71h1q49 84 156 84q84 0 130 -48t46 -145v-505z" />
    <glyph glyph-name="theta" unicode="&#x3b8;" horiz-adv-x="567" 
d="M516 361q0 -180 -59.5 -277t-174.5 -97q-116 0 -173.5 94t-57.5 270q0 174 60.5 269.5t174.5 95.5t172 -92.5t58 -262.5zM284 55q141 0 149 274h-300q3 -134 41 -204t110 -70zM284 649q-68 0 -106.5 -65.5t-43.5 -188.5h299q-5 122 -42.5 188t-106.5 66z" />
    <glyph glyph-name="iota" unicode="&#x3b9;" horiz-adv-x="253" 
d="M247 69v-68q-34 -13 -67 -13q-55 0 -79.5 30.5t-24.5 98.5v364h80v-352q0 -42 9 -57.5t33 -15.5q27 0 49 13z" />
    <glyph glyph-name="kappa" unicode="&#x3ba;" horiz-adv-x="523" 
d="M520 0h-99l-164 245l-95 -91v-154h-80v481h80v-238l239 238h102l-188 -181z" />
    <glyph glyph-name="lambda" unicode="&#x3bb;" horiz-adv-x="493" 
d="M250 571l231 -571h-92l-78 201q-61 161 -68 185h-1q-13 -48 -66 -185l-77 -201h-87l189 472l-33 79q-24 60 -42 78.5t-49 18.5q-23 0 -44 -7v67q26 8 50 8q62 0 97.5 -31t69.5 -114z" />
    <glyph glyph-name="nu" unicode="&#x3bd;" horiz-adv-x="497" 
d="M104 481l78 -200q45 -111 71 -190h1q121 215 122 390h85q-4 -119 -48.5 -229t-133.5 -252h-70l-198 481h93z" />
    <glyph glyph-name="xi" unicode="&#x3be;" horiz-adv-x="463" 
d="M367 414v-67h-86q-71 0 -108 -37.5t-37 -88.5q0 -56 34 -90q28 -28 120.5 -50.5t123.5 -52.5q35 -37 35 -90q0 -56 -38 -150l-77 16q30 85 30 128q0 27 -18 45q-13 13 -58.5 23.5t-98 28t-83.5 47.5q-55 55 -55 140q0 61 35 107.5t95 58.5v2q-45 16 -71 55.5t-26 90.5
q0 83 54.5 134.5t146.5 51.5q93 0 160 -60l-46 -59q-47 52 -115 52q-53 0 -84.5 -33t-31.5 -84q0 -53 35 -85.5t95 -32.5h69z" />
    <glyph glyph-name="omicron" unicode="&#x3bf;" horiz-adv-x="564" 
d="M432 240q0 81 -40 133t-110 52t-110 -52t-40 -133q0 -80 40.5 -132.5t109.5 -52.5q70 0 110 52t40 133zM517 241q0 -112 -63 -183t-173 -71q-112 0 -173 69.5t-61 182.5q0 112 63 183.5t173 71.5q112 0 173 -69.5t61 -183.5z" />
    <glyph glyph-name="pi" unicode="&#x3c0;" horiz-adv-x="598" 
d="M566 63v-67q-24 -6 -46 -6q-76 0 -100.5 42t-30.5 159l-11 217h-170l-45 -408h-82l47 408h-92v73h520v-73h-101l15 -202q7 -95 19.5 -121t46.5 -26q17 0 30 4z" />
    <glyph glyph-name="rho" unicode="&#x3c1;" horiz-adv-x="576" 
d="M149 240q0 -83 40.5 -134t106.5 -51q71 0 109.5 49t38.5 136q0 84 -40.5 135t-108.5 51q-69 0 -107.5 -49.5t-38.5 -136.5zM150 -204h-80v454q0 119 65.5 181.5t163.5 62.5q107 0 168.5 -70.5t61.5 -182.5q0 -111 -62.5 -182.5t-163.5 -71.5q-103 0 -155 79h-1
q3 -26 3 -88v-182z" />
    <glyph glyph-name="sigma1" unicode="&#x3c2;" horiz-adv-x="477" 
d="M410 -212l-78 16q30 81 30 128q0 28 -17 45q-16 16 -59 23.5t-92.5 21t-80.5 44.5q-66 66 -66 184q0 114 59.5 179t153.5 65q132 0 191 -127l-70 -37q-39 96 -123 96q-57 0 -91.5 -45.5t-34.5 -127.5q0 -88 43 -131q27 -28 115 -44t122 -50q36 -36 36 -90q0 -56 -38 -150
z" />
    <glyph glyph-name="sigma" unicode="&#x3c3;" horiz-adv-x="585" 
d="M562 481v-73h-57q-21 0 -50 3l-1 -2q63 -63 63 -168q0 -110 -62 -182t-174 -72t-173 69.5t-61 182.5q0 112 63 183.5t173 71.5q24 0 66 -6.5t89 -6.5h124zM432 240q0 81 -40 133t-110 52t-110 -52t-40 -133q0 -80 40.5 -132.5t109.5 -52.5q70 0 110 52t40 133z" />
    <glyph glyph-name="tau" unicode="&#x3c4;" horiz-adv-x="413" 
d="M398 408h-176v-223q0 -78 11 -103.5t57 -25.5q42 0 71 16v-68q-35 -16 -88 -16q-71 0 -102 35.5t-31 116.5q0 48 5 268h-130v73h383v-73z" />
    <glyph glyph-name="upsilon" unicode="&#x3c5;" horiz-adv-x="557" 
d="M155 481v-269q0 -73 16 -103q27 -54 108 -54q68 0 99 41q24 31 24 97v288h80v-294q0 -200 -204 -200q-107 0 -155 50t-48 149v295h80z" />
    <glyph glyph-name="phi" unicode="&#x3c6;" horiz-adv-x="748" 
d="M414 -204h-80v196q-142 7 -214.5 70.5t-72.5 175.5q0 111 73.5 177.5t213.5 73.5v221h80v-221q141 -7 214 -71t73 -175t-74 -177.5t-213 -73.5v-196zM334 57v367q-91 -4 -146.5 -47.5t-55.5 -136.5q0 -92 55.5 -135.5t146.5 -47.5zM413 424v-367q92 4 147 47.5t55 135.5
q0 93 -55 136.5t-147 47.5z" />
    <glyph glyph-name="chi" unicode="&#x3c7;" horiz-adv-x="470" 
d="M455 481l-172 -339l178 -346h-94l-137 275l-124 -275h-94l177 349l-171 336h92l132 -266l121 266h92z" />
    <glyph glyph-name="psi" unicode="&#x3c8;" horiz-adv-x="787" 
d="M440 710v-655q208 16 208 215q0 117 -25 211h86q24 -99 24 -209q0 -267 -293 -284v-192h-80v192q-285 16 -285 269v224h80v-216q0 -192 205 -210v655h80z" />
    <glyph glyph-name="omega" unicode="&#x3c9;" horiz-adv-x="832" 
d="M376 330h80v-132q0 -58 28.5 -100.5t86.5 -42.5q61 0 95 47t34 136q0 170 -151 194l22 66q100 -8 157.5 -75t57.5 -185q0 -117 -57.5 -184t-148.5 -67q-55 0 -103 28.5t-61 74.5h-2q-13 -46 -60 -74.5t-102 -28.5q-96 0 -150.5 66t-54.5 185q0 118 57.5 185t157.5 75
l21 -66q-75 -11 -113 -55.5t-38 -138.5q0 -88 35 -135.5t94 -47.5q60 0 87.5 42.5t27.5 100.5v132z" />
    <glyph glyph-name="iotadieresis" unicode="&#x3ca;" horiz-adv-x="253" 
d="M247 69v-68q-34 -13 -67 -13q-55 0 -79.5 30.5t-24.5 98.5v364h80v-352q0 -42 9 -57.5t33 -15.5q27 0 49 13zM72 566h-77v116h77v-116zM236 566h-77v116h77v-116z" />
    <glyph glyph-name="upsilondieresis" unicode="&#x3cb;" horiz-adv-x="557" 
d="M155 481v-269q0 -73 16 -103q27 -54 108 -54q68 0 99 41q24 31 24 97v288h80v-294q0 -200 -204 -200q-107 0 -155 50t-48 149v295h80zM224 566h-79v116h79v-116zM412 566h-79v116h79v-116z" />
    <glyph glyph-name="omicrontonos" unicode="&#x3cc;" horiz-adv-x="564" 
d="M248 551l16 142h89l-37 -142h-68zM432 240q0 81 -40 133t-110 52t-110 -52t-40 -133q0 -80 40.5 -132.5t109.5 -52.5q70 0 110 52t40 133zM517 241q0 -112 -63 -183t-173 -71q-112 0 -173 69.5t-61 182.5q0 112 63 183.5t173 71.5q112 0 173 -69.5t61 -183.5z" />
    <glyph glyph-name="upsilontonos" unicode="&#x3cd;" horiz-adv-x="557" 
d="M155 481v-269q0 -73 16 -103q27 -54 108 -54q68 0 99 41q24 31 24 97v288h80v-294q0 -200 -204 -200q-107 0 -155 50t-48 149v295h80zM239 551l16 142h89l-37 -142h-68z" />
    <glyph glyph-name="omegatonos" unicode="&#x3ce;" horiz-adv-x="832" 
d="M376 330h80v-132q0 -58 28.5 -100.5t86.5 -42.5q61 0 95 47t34 136q0 170 -151 194l22 66q100 -8 157.5 -75t57.5 -185q0 -117 -57.5 -184t-148.5 -67q-55 0 -103 28.5t-61 74.5h-2q-13 -46 -60 -74.5t-102 -28.5q-96 0 -150.5 66t-54.5 185q0 118 57.5 185t157.5 75
l21 -66q-75 -11 -113 -55.5t-38 -138.5q0 -88 35 -135.5t94 -47.5q60 0 87.5 42.5t27.5 100.5v132zM390 511l21 182h89l-48 -182h-62z" />
    <glyph glyph-name="uni0400" unicode="&#x400;" horiz-adv-x="646" 
d="M106 0v682h460v-72h-374v-227h327v-69h-327v-241h391v-73h-477zM317 882l92 -134h-82l-129 134h119z" />
    <glyph glyph-name="uni0401" unicode="&#x401;" horiz-adv-x="646" 
d="M106 0v682h460v-72h-374v-227h327v-69h-327v-241h391v-73h-477zM267 758h-85v116h85v-116zM493 758h-85v116h85v-116z" />
    <glyph glyph-name="uni0402" unicode="&#x402;" horiz-adv-x="740" 
d="M224 0v608h-231v74h548v-74h-231v-201q100 2 147 2q262 0 262 -206q0 -102 -59 -157.5t-158 -55.5q-48 0 -75 8v73q42 -7 69 -7q61 0 96.5 33.5t35.5 101.5q0 74 -44.5 105t-133.5 31q-50 0 -140 -2v-333h-86z" />
    <glyph glyph-name="uni0403" unicode="&#x403;" horiz-adv-x="525" 
d="M106 0v682h413v-74h-327v-608h-86zM239 748l91 134h119l-129 -134h-81z" />
    <glyph glyph-name="uni0404" unicode="&#x404;" horiz-adv-x="690" 
d="M483 310h-329q8 -114 69 -181t160 -67q150 0 202 131l71 -33q-77 -175 -275 -175q-142 0 -230 96.5t-88 258.5q0 88 27.5 158t73.5 112.5t101.5 64.5t115.5 22q90 0 158.5 -42t106.5 -119l-70 -43q-27 60 -79.5 94t-117.5 34q-89 0 -151.5 -62.5t-73.5 -175.5h329v-73z
" />
    <glyph glyph-name="uni0405" unicode="&#x405;" horiz-adv-x="658" 
d="M57 109l49 63q105 -114 239 -114q74 0 117 32t43 86q0 39 -23.5 64.5t-60.5 39t-82 24t-90.5 24t-82.5 34t-60.5 59.5t-23.5 94q0 82 65 132t169 50q136 0 245 -94l-47 -65q-87 86 -200 86q-70 0 -107 -28t-37 -76q0 -38 23.5 -63t60.5 -38t82 -23t90.5 -24t82.5 -34.5
t60.5 -60.5t23.5 -96q0 -87 -71.5 -141.5t-178.5 -54.5q-165 0 -286 124z" />
    <glyph glyph-name="uni0406" unicode="&#x406;" horiz-adv-x="297" 
d="M106 0v682h86v-682h-86z" />
    <glyph glyph-name="uni0407" unicode="&#x407;" horiz-adv-x="297" 
d="M106 0v682h86v-682h-86zM78 758h-85v116h85v-116zM304 758h-85v116h85v-116z" />
    <glyph glyph-name="uni0408" unicode="&#x408;" horiz-adv-x="535" 
d="M350 682h86v-472q0 -106 -55.5 -165.5t-152.5 -59.5q-90 0 -148 52t-67 170l85 16q7 -86 37.5 -124t94.5 -38q120 0 120 150v471z" />
    <glyph glyph-name="uni0409" unicode="&#x409;" horiz-adv-x="1074" 
d="M539 0v609h-268l-6 -158q-9 -262 -48.5 -362t-147.5 -100q-29 0 -52 6v72h44q42 0 65.5 30t37.5 116t19 251l7 218h435v-257q53 1 161 1q267 0 267 -211q0 -109 -71.5 -162.5t-202.5 -53.5q-107 0 -240 1zM625 352v-279q53 -1 157 -1q97 0 138.5 36t41.5 105
q0 71 -41 105.5t-137 34.5q-107 0 -159 -1z" />
    <glyph glyph-name="uni040A" unicode="&#x40a;" horiz-adv-x="1088" 
d="M554 0v315h-362v-315h-86v682h86v-291h362v291h86v-257q54 1 161 1q267 0 267 -211q0 -109 -71.5 -162.5t-202.5 -53.5q-97 0 -240 1zM640 352v-279q53 -1 157 -1q96 0 137.5 35.5t41.5 105.5q0 71 -40.5 105.5t-136.5 34.5q-107 0 -159 -1z" />
    <glyph glyph-name="uni040B" unicode="&#x40b;" horiz-adv-x="780" 
d="M719 0h-86v159q0 88 -38.5 124.5t-126.5 36.5h-158v-320h-86v608h-231v74h548v-74h-231v-215h169q117 0 178.5 -47.5t61.5 -162.5v-183z" />
    <glyph glyph-name="uni040C" unicode="&#x40c;" horiz-adv-x="674" 
d="M674 0h-113l-277 317h-92v-317h-86v682h86v-292h92l271 292h106l-304 -322zM295 748l91 134h119l-129 -134h-81z" />
    <glyph glyph-name="uni040D" unicode="&#x40d;" horiz-adv-x="756" 
d="M650 0h-86v556l-372 -556h-86v682h86v-556l372 556h86v-682zM346 882l92 -134h-82l-129 134h119z" />
    <glyph glyph-name="uni040E" unicode="&#x40e;" horiz-adv-x="616" 
d="M616 682l-240 -510q-49 -105 -101 -144.5t-128 -39.5q-26 0 -64 6v71h63q50 0 83 22t64 88l-279 507h99l225 -414l187 414h91zM423 886h77q-6 -66 -48 -104t-116 -38t-114 37.5t-46 104.5h76q12 -87 86 -87q42 0 61.5 26t23.5 61z" />
    <glyph glyph-name="uni040F" unicode="&#x40f;" horiz-adv-x="737" 
d="M406 -155h-75v155h-225v682h86v-609h354v609h86v-682h-226v-155z" />
    <glyph glyph-name="uni0410" unicode="&#x410;" horiz-adv-x="651" 
d="M278 682h94l262 -682h-98l-66 182h-295l-64 -182h-94zM260 420l-61 -170h246l-62 173q-48 131 -61 179h-1q-17 -63 -61 -182z" />
    <glyph glyph-name="uni0411" unicode="&#x411;" horiz-adv-x="678" 
d="M192 333v-260q53 -1 152 -1q98 0 149 29t51 104q0 74 -50.5 102t-149.5 28t-152 -2zM106 0v682h477v-73h-391v-202q108 2 158 2q136 0 210.5 -45.5t74.5 -156.5q0 -208 -295 -208q-45 0 -121 0.5t-113 0.5z" />
    <glyph glyph-name="uni0412" unicode="&#x412;" horiz-adv-x="709" 
d="M192 312v-240q53 -1 167 -1q46 0 77.5 4t62 15.5t46 36t15.5 62.5q0 34 -13 58t-31 36.5t-49 19.5t-54 8t-60 1h-161zM192 610v-229h160q62 0 98 7.5t61 32.5q29 29 29 80q0 43 -28 71q-23 23 -63.5 31t-122.5 8q-93 0 -134 -1zM106 0v682q30 0 104 0.5t123 0.5
q99 0 157 -12.5t95 -49.5q44 -44 44 -109q0 -116 -115 -158q67 -15 102 -58t35 -106q0 -58 -23.5 -97.5t-68 -59t-93.5 -27t-115 -7.5q-43 0 -125 0.5t-120 0.5z" />
    <glyph glyph-name="uni0413" unicode="&#x413;" horiz-adv-x="525" 
d="M106 0v682h413v-74h-327v-608h-86z" />
    <glyph glyph-name="uni0414" unicode="&#x414;" horiz-adv-x="760" 
d="M745 -155h-74v155h-586v-155h-75v228h83q44 76 62 163.5t20 224.5l4 221h447v-609h119v-228zM540 73v536h-279l-3 -152q-3 -138 -19 -224.5t-53 -159.5h354z" />
    <glyph glyph-name="uni0415" unicode="&#x415;" horiz-adv-x="646" 
d="M106 0v682h460v-72h-374v-227h327v-69h-327v-241h391v-73h-477z" />
    <glyph glyph-name="uni0416" unicode="&#x416;" horiz-adv-x="959" 
d="M958 0h-105l-240 317h-89v-317h-86v317h-93l-240 -317h-104l275 359l-262 323h103l230 -292h91v292h86v-292h90l231 292h100l-259 -320z" />
    <glyph glyph-name="uni0417" unicode="&#x417;" horiz-adv-x="640" 
d="M31 111l66 51q34 -49 90.5 -75.5t124.5 -26.5q83 0 131.5 31.5t48.5 93.5q0 126 -194 126h-111v71h109q174 0 174 120q0 57 -42.5 88.5t-120.5 31.5q-129 0 -205 -93l-55 53q101 115 263 115q119 0 184.5 -50.5t65.5 -136.5q0 -57 -32.5 -98.5t-89.5 -57.5
q69 -15 106.5 -57.5t37.5 -107.5q0 -93 -73 -148.5t-198 -55.5q-87 0 -161.5 32t-118.5 94z" />
    <glyph glyph-name="uni0418" unicode="&#x418;" horiz-adv-x="756" 
d="M650 0h-86v556l-372 -556h-86v682h86v-556l372 556h86v-682z" />
    <glyph glyph-name="uni0419" unicode="&#x419;" horiz-adv-x="756" 
d="M650 0h-86v556l-372 -556h-86v682h86v-556l372 556h86v-682zM463 886h77q-6 -66 -48 -104t-116 -38t-114 37.5t-46 104.5h76q12 -87 86 -87q42 0 61.5 26t23.5 61z" />
    <glyph glyph-name="uni041A" unicode="&#x41a;" horiz-adv-x="674" 
d="M674 0h-113l-277 317h-92v-317h-86v682h86v-292h92l271 292h106l-304 -322z" />
    <glyph glyph-name="uni041B" unicode="&#x41b;" horiz-adv-x="740" 
d="M635 0h-86v609h-278l-6 -158q-9 -262 -48.5 -362t-147.5 -100q-29 0 -52 6v72h44q42 0 65 30.5t37.5 116.5t19.5 250l7 218h445v-682z" />
    <glyph glyph-name="uni041C" unicode="&#x41c;" horiz-adv-x="946" 
d="M106 0v682h140l140 -337q69 -165 87 -224h2q22 71 87 224l139 337h139v-682h-86v240q0 274 3 371h-3q-18 -49 -86 -215l-162 -396h-71l-163 397q-66 159 -86 214h-3q3 -97 3 -371v-240h-80z" />
    <glyph glyph-name="uni041D" unicode="&#x41d;" horiz-adv-x="756" 
d="M106 0v682h86v-291h372v291h86v-682h-86v315h-372v-315h-86z" />
    <glyph glyph-name="uni041E" unicode="&#x41e;" horiz-adv-x="780" 
d="M626 341q0 127 -63.5 203.5t-172.5 76.5q-110 0 -173 -76.5t-63 -203.5t63 -203t173 -76q109 0 172.5 76t63.5 203zM717 342q0 -160 -91.5 -258.5t-236.5 -98.5q-147 0 -236.5 96.5t-89.5 258.5q0 160 91 258.5t237 98.5q147 0 236.5 -96.5t89.5 -258.5z" />
    <glyph glyph-name="uni041F" unicode="&#x41f;" horiz-adv-x="753" 
d="M647 0h-86v609h-369v-609h-86v682h541v-682z" />
    <glyph glyph-name="uni0420" unicode="&#x420;" horiz-adv-x="643" 
d="M539 474q0 67 -41 101t-137 34q-117 0 -169 -1v-268q53 -1 167 -1q96 0 138 34.5t42 100.5zM106 0v682q37 0 125 0.5t132 0.5q267 0 267 -207q0 -105 -71.5 -157.5t-202.5 -52.5q-103 0 -164 1v-267h-86z" />
    <glyph glyph-name="uni0421" unicode="&#x421;" horiz-adv-x="693" 
d="M581 199l77 -24q-32 -92 -104 -141t-174 -49q-141 0 -229 96.5t-88 258.5q0 88 27.5 158t73.5 112.5t101.5 64.5t114.5 22q93 0 164 -47t105 -131l-78 -31q-25 63 -76 98t-117 35q-96 0 -160 -74t-64 -206q0 -127 61.5 -203t166.5 -76q151 0 199 137z" />
    <glyph glyph-name="uni0422" unicode="&#x422;" horiz-adv-x="534" 
d="M224 0v608h-231v74h548v-74h-231v-608h-86z" />
    <glyph glyph-name="uni0423" unicode="&#x423;" horiz-adv-x="616" 
d="M616 682l-240 -510q-49 -105 -101 -144.5t-128 -39.5q-26 0 -64 6v71h63q50 0 83 22t64 88l-279 507h99l225 -414l187 414h91z" />
    <glyph glyph-name="uni0424" unicode="&#x424;" horiz-adv-x="988" 
d="M538 -32h-87v110l-72 1q-159 2 -247.5 75t-88.5 209q0 131 93 208t243 79l72 1v89h87v-89l71 -1q160 -3 248.5 -75.5t88.5 -207.5q0 -131 -93.5 -208.5t-243.5 -79.5l-71 -1v-110zM451 148v432l-72 -1q-114 -2 -179.5 -56.5t-65.5 -157.5t65 -158.5t180 -57.5zM538 580
v-432l71 1q114 2 179.5 57.5t65.5 158.5q0 104 -65 158t-180 56z" />
    <glyph glyph-name="uni0425" unicode="&#x425;" horiz-adv-x="597" 
d="M2 0l244 358l-216 324h104l166 -255l170 255h97l-216 -319l244 -363h-105l-193 295l-196 -295h-99z" />
    <glyph glyph-name="uni0426" unicode="&#x426;" horiz-adv-x="766" 
d="M751 -155h-74v155h-571v682h86v-609h354v609h86v-609h119v-228z" />
    <glyph glyph-name="uni0427" unicode="&#x427;" horiz-adv-x="681" 
d="M576 0h-86v264h-189q-117 0 -178.5 48.5t-61.5 163.5v206h86v-182q0 -89 38 -126t126 -37h179v345h86v-682z" />
    <glyph glyph-name="uni0428" unicode="&#x428;" horiz-adv-x="1104" 
d="M999 0h-893v682h86v-609h317v609h86v-609h318v609h86v-682z" />
    <glyph glyph-name="uni0429" unicode="&#x429;" horiz-adv-x="1133" 
d="M1118 -155h-74v155h-938v682h86v-609h317v609h86v-609h318v609h86v-609h119v-228z" />
    <glyph glyph-name="uni042A" unicode="&#x42a;" horiz-adv-x="749" 
d="M290 352v-279q53 -1 167 -1q97 0 138.5 36t41.5 105q0 71 -41 105.5t-137 34.5q-117 0 -169 -1zM204 0v610h-211v72h297v-257q53 1 171 1q267 0 267 -211q0 -109 -71.5 -162.5t-202.5 -53.5q-117 0 -250 1z" />
    <glyph glyph-name="uni042B" unicode="&#x42b;" horiz-adv-x="926" 
d="M192 352v-279q53 -1 157 -1q97 0 138.5 36t41.5 105q0 71 -41 105.5t-137 34.5q-107 0 -159 -1zM106 0v682h86v-257q53 1 161 1q267 0 267 -211q0 -109 -71.5 -162.5t-202.5 -53.5q-111 0 -240 1zM820 0h-86v682h86v-682z" />
    <glyph glyph-name="uni042C" unicode="&#x42c;" horiz-adv-x="651" 
d="M192 352v-279q53 -1 167 -1q97 0 138.5 36t41.5 105q0 71 -41 105.5t-137 34.5q-117 0 -169 -1zM106 0v682h86v-257q53 1 171 1q267 0 267 -211q0 -109 -71.5 -162.5t-202.5 -53.5q-117 0 -250 1z" />
    <glyph glyph-name="uni042D" unicode="&#x42d;" horiz-adv-x="687" 
d="M205 310v73h327q-9 117 -66.5 177.5t-152.5 60.5q-141 0 -196 -126l-73 35q41 80 111.5 123.5t161.5 43.5q136 0 222 -90.5t86 -264.5q0 -171 -90 -264t-222 -93q-97 0 -169 45.5t-110 128.5l76 38q29 -65 82 -100t123 -35q93 0 152 64t66 184h-328z" />
    <glyph glyph-name="uni042E" unicode="&#x42e;" horiz-adv-x="1051" 
d="M989 342q0 -160 -87 -258.5t-225 -98.5q-134 0 -217.5 89.5t-90.5 242.5h-177v-317h-86v682h86v-291h179q14 139 98.5 222.5t210.5 83.5q139 0 224 -96.5t85 -258.5zM897 341q0 127 -58 203.5t-160 76.5t-160.5 -76t-58.5 -204q0 -127 58.5 -203t160.5 -76t160 76t58 203
z" />
    <glyph glyph-name="uni042F" unicode="&#x42f;" horiz-adv-x="694" 
d="M588 0h-86v274h-146l-215 -274h-106l225 282q-192 27 -192 195q0 96 67.5 151t199.5 55q44 0 137.5 -0.5t115.5 -0.5v-682zM502 349v260q-53 1 -169 1q-173 0 -173 -132q0 -131 181 -131q111 0 161 2z" />
    <glyph glyph-name="uni0430" unicode="&#x430;" horiz-adv-x="521" 
d="M366 198v31q-135 0 -185 -23t-50 -72q0 -38 25 -59.5t73 -21.5q61 0 99 43.5t38 101.5zM105 346l-49 47q79 101 205 101q94 0 139.5 -44.5t45.5 -123.5v-90q0 -113 3 -236h-77l-2 69h-1q-59 -82 -158 -82q-75 0 -119.5 39.5t-44.5 104.5q0 38 15.5 66t51.5 50t99 33
t153 11v33q0 104 -111 104q-91 0 -150 -82z" />
    <glyph glyph-name="uni0431" unicode="&#x431;" horiz-adv-x="570" 
d="M496 724v-76q-105 -5 -180 -16q-93 -12 -132 -61t-58 -180h2q50 95 172 95q104 0 163.5 -67.5t59.5 -179.5q0 -113 -65 -182.5t-171 -69.5q-114 0 -174 78t-60 232q0 207 58.5 299.5t198.5 110.5q81 10 186 17zM138 243v-11q0 -81 41.5 -129t108.5 -48q68 0 109 51.5
t41 130.5t-41 130t-109 51q-64 0 -107 -44.5t-43 -130.5z" />
    <glyph glyph-name="uni0432" unicode="&#x432;" horiz-adv-x="555" 
d="M162 214v-149q53 -8 105 -8q147 0 147 78q0 79 -147 79h-105zM162 418v-144h102q67 0 100.5 17t33.5 58q0 75 -136 75q-58 0 -100 -6zM82 4v473q94 12 182 12q112 0 166.5 -32.5t54.5 -101.5q0 -40 -24 -67.5t-64 -37.5v-2q47 -8 75.5 -37.5t28.5 -74.5q0 -144 -235 -144
q-86 0 -184 12z" />
    <glyph glyph-name="uni0433" unicode="&#x433;" horiz-adv-x="408" 
d="M82 0v481h317v-66h-237v-415h-80z" />
    <glyph glyph-name="uni0434" unicode="&#x434;" horiz-adv-x="614" 
d="M600 -143h-71v143h-453v-143h-71v208h67q39 55 56.5 116.5t20.5 151.5l6 148h348v-416h97v-208zM423 65v350h-193l-4 -89q-7 -171 -67 -261h264z" />
    <glyph glyph-name="uni0435" unicode="&#x435;" horiz-adv-x="536" 
d="M441 132l49 -46q-75 -99 -207 -99q-111 0 -173.5 68.5t-62.5 183.5t61.5 185t167.5 70q56 0 99 -20.5t67.5 -54t36.5 -71t12 -75.5q0 -31 -4 -51h-354q2 -78 44.5 -123t109.5 -45q99 0 154 78zM135 283h270q0 61 -35.5 103t-96.5 42q-59 0 -95 -38t-43 -107z" />
    <glyph glyph-name="uni0436" unicode="&#x436;" horiz-adv-x="761" 
d="M757 0h-96l-173 217h-67v-217h-80v217h-67l-173 -217h-97l206 255l-191 226h99l159 -200h64v200h80v-200h65l159 200h96l-189 -223z" />
    <glyph glyph-name="uni0437" unicode="&#x437;" horiz-adv-x="505" 
d="M140 215v61h82q127 0 127 79q0 35 -29.5 54t-84.5 19q-93 0 -147 -69l-52 44q76 91 204 91q96 0 145.5 -35.5t49.5 -98.5q0 -83 -90 -109v-1q106 -22 106 -116q0 -66 -56.5 -106.5t-154.5 -40.5q-144 0 -214 91l55 47q54 -72 161 -72q122 0 122 80q0 82 -143 82h-81z" />
    <glyph glyph-name="uni0438" unicode="&#x438;" horiz-adv-x="590" 
d="M509 0h-80v387l-265 -387h-82v481h80v-372l254 372h93v-481z" />
    <glyph glyph-name="uni0439" unicode="&#x439;" horiz-adv-x="590" 
d="M509 0h-80v387l-265 -387h-82v481h80v-372l254 372h93v-481zM371 693h73q-15 -140 -150 -140q-70 0 -105.5 34.5t-43.5 105.5h74q8 -41 24.5 -63.5t51.5 -22.5q67 0 76 86z" />
    <glyph glyph-name="uni043A" unicode="&#x43a;" horiz-adv-x="518" 
d="M513 0h-100l-183 217h-68v-217h-80v481h80v-200h65l179 200h98l-207 -226z" />
    <glyph glyph-name="uni043B" unicode="&#x43b;" horiz-adv-x="582" 
d="M500 0h-80v415h-199l-4 -91q-6 -186 -42.5 -260.5t-125.5 -74.5q-24 0 -40 4v65h26q55 0 78.5 59.5t27.5 222.5l5 141h354v-481z" />
    <glyph glyph-name="uni043C" unicode="&#x43c;" horiz-adv-x="780" 
d="M642 0l-28 211q-23 175 -26 202h-3l-162 -413h-71l-159 413h-2q-8 -67 -26 -201l-28 -212h-78l65 481h122l101 -262q32 -83 44 -123h2q20 68 43 124l100 261h120l65 -481h-79z" />
    <glyph glyph-name="uni043D" unicode="&#x43d;" horiz-adv-x="578" 
d="M416 0v217h-254v-217h-80v481h80v-199h254v199h80v-481h-80z" />
    <glyph glyph-name="uni043E" unicode="&#x43e;" horiz-adv-x="564" 
d="M432 240q0 81 -40 133t-110 52t-110 -52t-40 -133q0 -80 40.5 -132.5t109.5 -52.5q70 0 110 52t40 133zM517 241q0 -112 -63 -183t-173 -71q-112 0 -173 69.5t-61 182.5q0 112 63 183.5t173 71.5q112 0 173 -69.5t61 -183.5z" />
    <glyph glyph-name="uni043F" unicode="&#x43f;" horiz-adv-x="576" 
d="M494 0h-80v415h-252v-415h-80v481h412v-481z" />
    <glyph glyph-name="uni0440" unicode="&#x440;" horiz-adv-x="584" 
d="M160 250v-19q0 -78 40 -127.5t107 -49.5q69 0 107 50.5t38 136.5q0 82 -39 133.5t-110 51.5q-65 0 -104 -46.5t-39 -129.5zM162 -204h-80v446q0 118 -3 239h77l2 -71h1q48 84 160 84q103 0 160.5 -70t57.5 -181q0 -118 -61.5 -187t-160.5 -69q-102 0 -155 77h-1
q3 -27 3 -89v-179z" />
    <glyph glyph-name="uni0441" unicode="&#x441;" horiz-adv-x="519" 
d="M411 153l70 -29q-33 -69 -83 -103t-126 -34q-102 0 -163.5 67t-61.5 185q0 119 62.5 187t161.5 68q143 0 203 -130l-73 -35q-41 97 -132 97q-61 0 -99 -49t-38 -136q0 -82 37.5 -134t104.5 -52q95 0 137 98z" />
    <glyph glyph-name="uni0442" unicode="&#x442;" horiz-adv-x="438" 
d="M259 0h-80v415h-160v66h400v-66h-160v-415z" />
    <glyph glyph-name="uni0443" unicode="&#x443;" horiz-adv-x="494" 
d="M200 -204h-86l97 200l-200 485h93l78 -202q39 -97 68 -187h1q24 79 67 187l78 202h87z" />
    <glyph glyph-name="uni0444" unicode="&#x444;" horiz-adv-x="748" 
d="M414 -204h-80v196q-142 7 -214.5 70.5t-72.5 175.5q0 111 73.5 177.5t213.5 73.5v221h80v-221q141 -7 214 -71t73 -175t-74 -177.5t-213 -73.5v-196zM334 57v367q-91 -4 -146.5 -47.5t-55.5 -136.5q0 -92 55.5 -135.5t146.5 -47.5zM413 424v-367q92 4 147 47.5t55 135.5
q0 93 -55 136.5t-147 47.5z" />
    <glyph glyph-name="uni0445" unicode="&#x445;" horiz-adv-x="474" 
d="M102 0h-94l180 254l-161 227h99l114 -170l113 170h93l-161 -227l181 -254h-100l-133 196z" />
    <glyph glyph-name="uni0446" unicode="&#x446;" horiz-adv-x="595" 
d="M580 -143h-71v143h-427v481h80v-416h242v416h80v-416h96v-208z" />
    <glyph glyph-name="uni0447" unicode="&#x447;" horiz-adv-x="526" 
d="M444 0h-80v208q-21 -30 -59 -48.5t-80 -18.5q-176 0 -176 193v147h80v-133q0 -64 23.5 -102t84.5 -38q59 0 93 44.5t34 116.5v112h80v-481z" />
    <glyph glyph-name="uni0448" unicode="&#x448;" horiz-adv-x="840" 
d="M758 0h-676v481h80v-416h218v416h80v-416h218v416h80v-481z" />
    <glyph glyph-name="uni0449" unicode="&#x449;" horiz-adv-x="869" 
d="M854 -143h-71v143h-701v481h80v-416h218v416h80v-416h218v416h80v-416h96v-208z" />
    <glyph glyph-name="uni044A" unicode="&#x44a;" horiz-adv-x="584" 
d="M157 4v411h-138v66h218v-152q34 1 95 1q110 0 165 -43.5t55 -121.5q0 -79 -57 -126t-167 -47q-88 0 -171 12zM237 264v-199q43 -7 93 -7q137 0 137 106q0 101 -136 101q-61 0 -94 -1z" />
    <glyph glyph-name="uni044B" unicode="&#x44b;" horiz-adv-x="714" 
d="M82 4v477h80v-152q33 1 94 1q214 0 214 -165q0 -79 -55 -126t-163 -47q-88 0 -170 12zM162 264v-199q43 -7 92 -7q131 0 131 106q0 52 -31.5 76.5t-99.5 24.5q-59 0 -92 -1zM632 0h-80v481h80v-481z" />
    <glyph glyph-name="uni044C" unicode="&#x44c;" horiz-adv-x="509" 
d="M82 4v477h80v-152q33 1 95 1q110 0 165 -43.5t55 -121.5q0 -79 -57.5 -126t-166.5 -47q-89 0 -171 12zM162 264v-199q43 -7 92 -7q138 0 138 106q0 101 -137 101q-60 0 -93 -1z" />
    <glyph glyph-name="uni044D" unicode="&#x44d;" horiz-adv-x="519" 
d="M174 215v61h212q-8 69 -47.5 110.5t-102.5 41.5q-89 0 -131 -80l-63 37q28 51 79 80t117 29q112 0 173 -69.5t61 -183.5q0 -112 -63 -183t-173 -71q-138 0 -199 111l67 36q43 -81 133 -81q65 0 104.5 44.5t45.5 117.5h-213z" />
    <glyph glyph-name="uni044E" unicode="&#x44e;" horiz-adv-x="779" 
d="M732 241q0 -112 -60.5 -183t-166.5 -71q-103 0 -161 62.5t-64 167.5h-118v-217h-80v481h80v-199h120q12 96 70.5 154t154.5 58q109 0 167 -69.5t58 -183.5zM646 240q0 81 -37 133t-103 52q-67 0 -104 -51.5t-37 -132.5q0 -82 37.5 -134t103.5 -52q67 0 103.5 52t36.5 133
z" />
    <glyph glyph-name="uni044F" unicode="&#x44f;" horiz-adv-x="549" 
d="M467 0h-80v187h-106l-149 -187h-98l162 195q-128 25 -128 141q0 70 55.5 111.5t164.5 41.5q80 0 179 -12v-477zM387 250v167q-48 7 -101 7q-68 0 -100 -21t-32 -66q0 -46 32 -67.5t100 -21.5q71 0 101 2z" />
    <glyph glyph-name="uni0450" unicode="&#x450;" horiz-adv-x="536" 
d="M441 132l49 -46q-75 -99 -207 -99q-111 0 -173.5 68.5t-62.5 183.5t61.5 185t167.5 70q56 0 99 -20.5t67.5 -54t36.5 -71t12 -75.5q0 -31 -4 -51h-354q2 -78 44.5 -123t109.5 -45q99 0 154 78zM135 283h270q0 61 -35.5 103t-96.5 42q-59 0 -95 -38t-43 -107zM231 693
l85 -142h-76l-119 142h110z" />
    <glyph glyph-name="uni0451" unicode="&#x451;" horiz-adv-x="536" 
d="M441 132l49 -46q-75 -99 -207 -99q-111 0 -173.5 68.5t-62.5 183.5t61.5 185t167.5 70q56 0 99 -20.5t67.5 -54t36.5 -71t12 -75.5q0 -31 -4 -51h-354q2 -78 44.5 -123t109.5 -45q99 0 154 78zM135 283h270q0 61 -35.5 103t-96.5 42q-59 0 -95 -38t-43 -107zM216 566h-79
v116h79v-116zM404 566h-79v116h79v-116z" />
    <glyph glyph-name="uni0452" unicode="&#x452;" horiz-adv-x="566" 
d="M162 0h-80v561h-95v64h95v88h80v-88h137v-64h-137v-56q0 -36 -3 -93h1q49 82 155 82q84 0 130 -48t46 -145v-327q0 -102 -30 -144t-102 -42q-31 0 -51 5v63h45q35 0 46.5 27t11.5 94v293q0 72 -16 103q-27 53 -97 53q-56 0 -89 -33q-47 -47 -47 -162v-231z" />
    <glyph glyph-name="uni0453" unicode="&#x453;" horiz-adv-x="408" 
d="M82 0v481h317v-66h-237v-415h-80zM187 551l85 142h109l-118 -142h-76z" />
    <glyph glyph-name="uni0454" unicode="&#x454;" horiz-adv-x="515" 
d="M345 215h-214q5 -74 43 -118t101 -44q94 0 144 81l58 -38q-68 -109 -204 -109q-102 0 -164 66.5t-62 184.5q0 120 62.5 188t163.5 68q135 0 198 -111l-59 -41q-44 86 -141 86q-57 0 -94.5 -39.5t-45.5 -112.5h214v-61z" />
    <glyph glyph-name="uni0455" unicode="&#x455;" horiz-adv-x="491" 
d="M45 69l42 59q77 -75 169 -75q48 0 75.5 19.5t27.5 53.5t-30.5 52.5t-74 27.5t-87 21.5t-74 45t-30.5 87.5q0 62 48.5 98t125.5 36q104 0 184 -65l-42 -56q-62 56 -143 56q-44 0 -67.5 -17.5t-23.5 -47.5q0 -33 30.5 -51t73.5 -27t86.5 -21.5t74 -45.5t30.5 -88
q0 -66 -52.5 -105t-132.5 -39q-119 0 -210 82z" />
    <glyph glyph-name="uni0456" unicode="&#x456;" horiz-adv-x="244" 
d="M162 0h-80v481h80v-481zM81 562v124h82v-124h-82z" />
    <glyph glyph-name="uni0457" unicode="&#x457;" horiz-adv-x="244" 
d="M162 0h-80v481h80v-481zM78 566h-77v116h77v-116zM242 566h-77v116h77v-116z" />
    <glyph glyph-name="uni0458" unicode="&#x458;" horiz-adv-x="253" 
d="M91 481h80v-507q0 -102 -30 -144t-101 -42q-33 0 -51 5v63h44q35 0 46.5 27t11.5 94v504zM172 562h-82v124h82v-124z" />
    <glyph glyph-name="uni0459" unicode="&#x459;" horiz-adv-x="841" 
d="M414 4v411h-194l-3 -90q-6 -186 -43 -261t-125 -75q-25 0 -40 4v65h26q55 0 78 59t28 223l5 141h348v-152q33 1 95 1q110 0 165 -43.5t55 -121.5q0 -79 -57.5 -126t-166.5 -47q-89 0 -171 12zM494 264v-199q43 -7 92 -7q138 0 138 106q0 101 -137 101q-60 0 -93 -1z" />
    <glyph glyph-name="uni045A" unicode="&#x45a;" horiz-adv-x="834" 
d="M406 4v213h-244v-217h-80v481h80v-199h244v199h80v-152q34 1 95 1q111 0 165.5 -43.5t54.5 -121.5q0 -79 -57 -126t-166 -47q-88 0 -172 12zM486 264v-199q43 -7 93 -7q137 0 137 106q0 101 -136 101q-61 0 -94 -1z" />
    <glyph glyph-name="uni045B" unicode="&#x45b;" horiz-adv-x="566" 
d="M82 0v561h-95v64h95v88h80v-88h137v-64h-137v-56q0 -36 -3 -93h1q49 82 155 82q84 0 130 -48t46 -145v-301h-80v270q0 72 -16 103q-27 53 -97 53q-56 0 -89 -33q-47 -47 -47 -162v-231h-80z" />
    <glyph glyph-name="uni045C" unicode="&#x45c;" horiz-adv-x="518" 
d="M513 0h-100l-183 217h-68v-217h-80v481h80v-200h65l179 200h98l-207 -226zM219 551l85 142h109l-118 -142h-76z" />
    <glyph glyph-name="uni045D" unicode="&#x45d;" horiz-adv-x="590" 
d="M509 0h-80v387l-265 -387h-82v481h80v-372l254 372h93v-481zM263 693l85 -142h-76l-119 142h110z" />
    <glyph glyph-name="uni045E" unicode="&#x45e;" horiz-adv-x="494" 
d="M200 -204h-86l97 200l-200 485h93l78 -202q39 -97 68 -187h1q24 79 67 187l78 202h87zM328 693h73q-15 -140 -150 -140q-70 0 -105.5 34.5t-43.5 105.5h74q8 -41 24.5 -63.5t51.5 -22.5q67 0 76 86z" />
    <glyph glyph-name="uni045F" unicode="&#x45f;" horiz-adv-x="566" 
d="M318 -143h-71v143h-165v481h80v-416h242v416h80v-481h-166v-143z" />
    <glyph glyph-name="uni0472" unicode="&#x472;" horiz-adv-x="780" 
d="M717 342q0 -160 -91.5 -258.5t-236.5 -98.5q-147 0 -236.5 96.5t-89.5 258.5q0 160 91 258.5t237 98.5q147 0 236.5 -96.5t89.5 -258.5zM390 61q104 0 167 69t69 186h-473q7 -117 69.5 -186t167.5 -69zM390 622q-100 0 -162 -63.5t-73 -171.5h469q-11 108 -73 171.5
t-161 63.5z" />
    <glyph glyph-name="uni0473" unicode="&#x473;" horiz-adv-x="564" 
d="M517 241q0 -112 -63 -183t-173 -71q-112 0 -173 69.5t-61 182.5q0 112 63 183.5t173 71.5q112 0 173 -69.5t61 -183.5zM282 53q66 0 105 44.5t45 116.5h-300q6 -72 45.5 -116.5t104.5 -44.5zM282 427q-64 0 -102.5 -41.5t-46.5 -110.5h298q-9 69 -47.5 110.5t-101.5 41.5
z" />
    <glyph glyph-name="uni0490" unicode="&#x490;" horiz-adv-x="525" 
d="M106 0v682h339v154h74v-228h-327v-608h-86z" />
    <glyph glyph-name="uni0491" unicode="&#x491;" horiz-adv-x="408" 
d="M82 0v481h246v142h71v-208h-237v-415h-80z" />
    <glyph glyph-name="uni0492" unicode="&#x492;" horiz-adv-x="535" 
d="M202 0h-86v310h-107v65h107v307h413v-74h-327v-233h161v-65h-161v-310z" />
    <glyph glyph-name="uni0493" unicode="&#x493;" horiz-adv-x="408" 
d="M162 0h-80v205h-82v61h82v215h317v-66h-237v-149h124v-61h-124v-205z" />
    <glyph glyph-name="uni0494" unicode="&#x494;" horiz-adv-x="646" 
d="M192 0h-86v682h415v-73h-329v-202q98 2 146 2q129 0 196 -65.5t67 -194.5q0 -127 -64 -197t-164 -70q-47 0 -75 8v73q44 -7 70 -7q63 0 102.5 46.5t39.5 142.5q0 100 -45 145t-134 45q-49 0 -139 -2v-333z" />
    <glyph glyph-name="uni0495" unicode="&#x495;" horiz-adv-x="551" 
d="M162 0h-80v481h373v-65h-293v-110q0 -55 -4 -93h1q50 73 148 73q103 0 158 -64.5t55 -183.5q0 -110 -57.5 -180.5t-161.5 -70.5q-28 0 -48 4v71q19 -8 45 -8q63 0 99.5 50t36.5 133q0 88 -35 135t-101 47q-67 0 -101.5 -53t-34.5 -130v-36z" />
    <glyph glyph-name="uni0496" unicode="&#x496;" horiz-adv-x="994" 
d="M994 -155h-74v155h-67l-240 317h-89v-317h-86v317h-93l-240 -317h-104l275 359l-262 323h103l230 -292h91v292h86v-292h90l231 292h100l-259 -320l217 -289h91v-228z" />
    <glyph glyph-name="uni0497" unicode="&#x497;" horiz-adv-x="778" 
d="M778 -143h-72v143h-45l-173 217h-67v-217h-80v217h-67l-173 -217h-97l206 255l-191 226h99l159 -200h64v200h80v-200h65l159 200h96l-189 -223l153 -193h73v-208z" />
    <glyph glyph-name="uni0498" unicode="&#x498;" horiz-adv-x="640" 
d="M349 -155h-74v142q-77 6 -141 37.5t-103 86.5l67 49q69 -100 214 -100q83 0 131.5 31.5t48.5 93.5q0 126 -194 126h-111v71h109q174 0 174 120q0 57 -43.5 88.5t-125.5 31.5q-123 0 -199 -93l-55 51q98 117 258 117q123 0 189 -50.5t66 -136.5q0 -57 -32.5 -99t-89.5 -58
v-2q69 -11 106.5 -53.5t37.5 -108.5q0 -86 -62 -140t-171 -62v-142z" />
    <glyph glyph-name="uni0499" unicode="&#x499;" horiz-adv-x="505" 
d="M276 -143h-71v132q-120 11 -179 89l55 47q54 -72 161 -72q122 0 122 80q0 82 -143 82h-81v61h82q127 0 127 79q0 35 -29.5 54t-84.5 19q-93 0 -147 -69l-52 44q76 91 204 91q96 0 145.5 -35.5t49.5 -98.5q0 -83 -90 -109v-1q106 -22 106 -116q0 -60 -46 -99t-129 -46
v-132z" />
    <glyph glyph-name="uni049A" unicode="&#x49a;" horiz-adv-x="695" 
d="M695 -155h-75v155h-59l-277 317h-92v-317h-86v682h86v-292h92l271 292h106l-304 -322l252 -287h86v-228z" />
    <glyph glyph-name="uni049B" unicode="&#x49b;" horiz-adv-x="528" 
d="M528 -143h-72v143h-43l-183 217h-68v-217h-80v481h80v-199h65l179 199h98l-207 -226l161 -190h70v-208z" />
    <glyph glyph-name="uni049C" unicode="&#x49c;" horiz-adv-x="698" 
d="M250 554h72v-164h38l217 292h106l-250 -321l263 -361h-113l-223 317h-38v-164h-72v164h-58v-317h-86v682h86v-292h58v164z" />
    <glyph glyph-name="uni049D" unicode="&#x49d;" horiz-adv-x="545" 
d="M222 392h65v-110h39l115 199h90l-138 -224l148 -257h-93l-119 217h-42v-111h-65v111h-60v-217h-80v481h80v-199h60v110z" />
    <glyph glyph-name="uni04A0" unicode="&#x4a0;" horiz-adv-x="772" 
d="M772 0h-113l-277 317h-92v-317h-86v610h-211v72h297v-292h92l271 292h106l-304 -322z" />
    <glyph glyph-name="uni04A1" unicode="&#x4a1;" horiz-adv-x="593" 
d="M588 0h-100l-183 217h-68v-217h-80v415h-138v66h218v-199h65l179 199h98l-207 -226z" />
    <glyph glyph-name="uni04A2" unicode="&#x4a2;" horiz-adv-x="784" 
d="M769 -155h-74v155h-131v315h-372v-315h-86v682h86v-291h372v291h86v-609h119v-228z" />
    <glyph glyph-name="uni04A3" unicode="&#x4a3;" horiz-adv-x="607" 
d="M593 -143h-72v143h-105v217h-254v-217h-80v481h80v-199h254v199h80v-416h97v-208z" />
    <glyph glyph-name="uni04A4" unicode="&#x4a4;" horiz-adv-x="955" 
d="M642 0h-86v315h-364v-315h-86v682h86v-291h364v291h394v-73h-308v-609z" />
    <glyph glyph-name="uni04A5" unicode="&#x4a5;" horiz-adv-x="726" 
d="M488 0h-80v217h-246v-217h-80v481h80v-199h246v199h309v-66h-229v-415z" />
    <glyph glyph-name="uni04AA" unicode="&#x4aa;" horiz-adv-x="693" 
d="M415 -155h-75v143q-125 14 -201 108t-76 244q0 88 27.5 158t73.5 112.5t101.5 64.5t114.5 22q93 0 164 -47t105 -131l-78 -31q-25 63 -76 98t-117 35q-96 0 -160 -74t-64 -206q0 -127 61.5 -203t166.5 -76q151 0 199 137l77 -24q-29 -84 -91.5 -132t-151.5 -56v-142z" />
    <glyph glyph-name="uni04AB" unicode="&#x4ab;" horiz-adv-x="519" 
d="M305 -143h-74v133q-85 13 -134.5 78.5t-49.5 170.5q0 119 62.5 187t161.5 68q143 0 203 -130l-73 -35q-41 97 -132 97q-61 0 -99 -49t-38 -136q0 -82 37.5 -134t104.5 -52q95 0 137 98l70 -29q-59 -122 -176 -135v-132z" />
    <glyph glyph-name="uni04AE" unicode="&#x4ae;" horiz-adv-x="610" 
d="M348 0h-86v289l-262 393h104l204 -311l202 311h100l-262 -393v-289z" />
    <glyph glyph-name="uni04AF" unicode="&#x4af;" horiz-adv-x="492" 
d="M287 -204h-82v205l-194 480h92l78 -205q31 -81 68 -190h1q26 86 67 190l76 205h88l-194 -480v-205z" />
    <glyph glyph-name="uni04B0" unicode="&#x4b0;" horiz-adv-x="610" 
d="M348 0h-86v215h-156v68h156v6l-262 393h104l204 -311l202 311h100l-262 -393v-6h156v-68h-156v-215z" />
    <glyph glyph-name="uni04B1" unicode="&#x4b1;" horiz-adv-x="492" 
d="M287 -204h-82v204h-158v63h133l-169 418h92l78 -205q31 -81 68 -190h1q26 86 67 190l76 205h88l-169 -418h133v-63h-158v-204z" />
    <glyph glyph-name="uni04B2" unicode="&#x4b2;" horiz-adv-x="647" 
d="M647 -155h-74v155h-83l-193 295l-196 -295h-99l244 358l-216 324h104l166 -255l170 255h97l-216 -319l195 -290h101v-228z" />
    <glyph glyph-name="uni04B3" unicode="&#x4b3;" horiz-adv-x="513" 
d="M513 -143h-72v143h-75l-133 196l-131 -196h-94l180 254l-161 227h99l114 -170l113 170h93l-161 -227l134 -189h94v-208z" />
    <glyph glyph-name="uni04B6" unicode="&#x4b6;" horiz-adv-x="710" 
d="M695 -155h-74v155h-131v264h-189q-117 0 -178.5 48.5t-61.5 163.5v206h86v-182q0 -89 38 -126t126 -37h179v345h86v-609h119v-228z" />
    <glyph glyph-name="uni04B7" unicode="&#x4b7;" horiz-adv-x="555" 
d="M540 -143h-71v143h-105v208q-21 -30 -59 -48.5t-80 -18.5q-176 0 -176 193v147h80v-133q0 -64 23.5 -102t84.5 -38q59 0 93 44.5t34 116.5v112h80v-416h96v-208z" />
    <glyph glyph-name="uni04B8" unicode="&#x4b8;" horiz-adv-x="687" 
d="M291 512h73v-175h132v345h86v-682h-86v264h-132v-153h-73v153q-112 2 -171 51t-59 161v206h86v-182q0 -84 33.5 -121t110.5 -42v175z" />
    <glyph glyph-name="uni04B9" unicode="&#x4b9;" horiz-adv-x="544" 
d="M216 336h66v-124q48 12 74.5 54t26.5 103v112h80v-481h-80v208q-35 -47 -101 -62v-96h-66v91q-167 11 -167 193v147h80v-133q0 -123 87 -138v126z" />
    <glyph glyph-name="uni04BA" unicode="&#x4ba;" horiz-adv-x="681" 
d="M620 0h-86v182q0 89 -38 126t-126 37h-178v-345h-86v682h86v-264h188q117 0 178.5 -48t61.5 -164v-206z" />
    <glyph glyph-name="uni04BB" unicode="&#x4bb;" horiz-adv-x="566" 
d="M82 0v710h80v-205q0 -36 -3 -93h1q49 82 155 82q84 0 130 -48t46 -145v-301h-80v270q0 72 -16 103q-27 53 -97 53q-56 0 -89 -33q-47 -47 -47 -162v-231h-80z" />
    <glyph glyph-name="uni04C0" unicode="&#x4c0;" horiz-adv-x="297" 
d="M106 0v682h86v-682h-86z" />
    <glyph glyph-name="uni04C1" unicode="&#x4c1;" horiz-adv-x="959" 
d="M958 0h-105l-240 317h-89v-317h-86v317h-93l-240 -317h-104l275 359l-262 323h103l230 -292h91v292h86v-292h90l231 292h100l-259 -320zM565 886h77q-6 -66 -48 -104t-116 -38t-114 37.5t-46 104.5h76q12 -87 86 -87q42 0 61.5 26t23.5 61z" />
    <glyph glyph-name="uni04C2" unicode="&#x4c2;" horiz-adv-x="761" 
d="M757 0h-96l-173 217h-67v-217h-80v217h-67l-173 -217h-97l206 255l-191 226h99l159 -200h64v200h80v-200h65l159 200h96l-189 -223zM457 693h73q-15 -140 -150 -140q-70 0 -105.5 34.5t-43.5 105.5h74q8 -41 24.5 -63.5t51.5 -22.5q67 0 76 86z" />
    <glyph glyph-name="uni04CF" unicode="&#x4cf;" horiz-adv-x="244" 
d="M82 0v710h80v-710h-80z" />
    <glyph glyph-name="uni04D0" unicode="&#x4d0;" horiz-adv-x="651" 
d="M278 682h94l262 -682h-98l-66 182h-295l-64 -182h-94zM260 420l-61 -170h246l-62 173q-48 131 -61 179h-1q-17 -63 -61 -182zM406 886h77q-6 -66 -48 -104t-116 -38t-114 37.5t-46 104.5h76q12 -87 86 -87q42 0 61.5 26t23.5 61z" />
    <glyph glyph-name="uni04D1" unicode="&#x4d1;" horiz-adv-x="521" 
d="M366 198v31q-135 0 -185 -23t-50 -72q0 -38 25 -59.5t73 -21.5q61 0 99 43.5t38 101.5zM105 346l-49 47q79 101 205 101q94 0 139.5 -44.5t45.5 -123.5v-90q0 -113 3 -236h-77l-2 69h-1q-59 -82 -158 -82q-75 0 -119.5 39.5t-44.5 104.5q0 38 15.5 66t51.5 50t99 33
t153 11v33q0 104 -111 104q-91 0 -150 -82zM332 693h73q-15 -140 -150 -140q-70 0 -105.5 34.5t-43.5 105.5h74q8 -41 24.5 -63.5t51.5 -22.5q67 0 76 86z" />
    <glyph glyph-name="uni04D2" unicode="&#x4d2;" horiz-adv-x="651" 
d="M278 682h94l262 -682h-98l-66 182h-295l-64 -182h-94zM260 420l-61 -170h246l-62 173q-48 131 -61 179h-1q-17 -63 -61 -182zM253 758h-85v116h85v-116zM479 758h-85v116h85v-116z" />
    <glyph glyph-name="uni04D3" unicode="&#x4d3;" horiz-adv-x="521" 
d="M366 198v31q-135 0 -185 -23t-50 -72q0 -38 25 -59.5t73 -21.5q61 0 99 43.5t38 101.5zM105 346l-49 47q79 101 205 101q94 0 139.5 -44.5t45.5 -123.5v-90q0 -113 3 -236h-77l-2 69h-1q-59 -82 -158 -82q-75 0 -119.5 39.5t-44.5 104.5q0 38 15.5 66t51.5 50t99 33
t153 11v33q0 104 -111 104q-91 0 -150 -82zM204 566h-79v116h79v-116zM392 566h-79v116h79v-116z" />
    <glyph glyph-name="uni04D4" unicode="&#x4d4;" horiz-adv-x="972" 
d="M325 682h567v-72h-351v-227h304v-69h-304v-241h368v-73h-454v177h-288l-87 -177h-96zM378 610l-179 -364h256v364h-77z" />
    <glyph glyph-name="uni04D5" unicode="&#x4d5;" horiz-adv-x="849" 
d="M105 346l-49 47q79 101 205 101q121 0 160 -80q56 80 168 80q56 0 99.5 -20.5t67.5 -54t36 -71t12 -75.5q0 -31 -4 -51h-354q2 -78 44.5 -123t109.5 -45q100 0 155 78l48 -46q-75 -99 -207 -99q-136 0 -196 113q-56 -113 -188 -113q-76 0 -120.5 39.5t-44.5 104.5
q0 38 15.5 66t51.5 50t99 33t153 11v33q-2 104 -111 104q-91 0 -150 -82zM448 283h271q-1 61 -36.5 103t-96.5 42q-58 0 -94 -38t-44 -107zM229 53q61 0 99 43.5t38 101.5v31q-135 0 -185 -23t-50 -72q0 -38 25 -59.5t73 -21.5z" />
    <glyph glyph-name="uni04D6" unicode="&#x4d6;" horiz-adv-x="646" 
d="M106 0v682h460v-72h-374v-227h327v-69h-327v-241h391v-73h-477zM410 886h77q-6 -66 -48 -104t-116 -38t-114 37.5t-46 104.5h76q12 -87 86 -87q42 0 61.5 26t23.5 61z" />
    <glyph glyph-name="uni04D7" unicode="&#x4d7;" horiz-adv-x="536" 
d="M441 132l49 -46q-75 -99 -207 -99q-111 0 -173.5 68.5t-62.5 183.5t61.5 185t167.5 70q56 0 99 -20.5t67.5 -54t36.5 -71t12 -75.5q0 -31 -4 -51h-354q2 -78 44.5 -123t109.5 -45q99 0 154 78zM135 283h270q0 61 -35.5 103t-96.5 42q-59 0 -95 -38t-43 -107zM344 693h73
q-15 -140 -150 -140q-70 0 -105.5 34.5t-43.5 105.5h74q8 -41 24.5 -63.5t51.5 -22.5q67 0 76 86z" />
    <glyph glyph-name="uni04D8" unicode="&#x4d8;" horiz-adv-x="728" 
d="M140 506l-66 40q99 151 278 151q137 0 225.5 -97t88.5 -258q0 -156 -86.5 -256.5t-222.5 -100.5q-149 0 -226 95.5t-77 259.5q0 17 2 39h516q-9 113 -69 177t-154 64q-137 0 -209 -114zM359 62q93 0 149.5 66t64.5 182h-428q5 -114 57.5 -181t156.5 -67z" />
    <glyph glyph-name="uni04D9" unicode="&#x4d9;" horiz-adv-x="536" 
d="M94 349l-48 46q78 99 207 99q111 0 173.5 -69t62.5 -184q0 -114 -62 -184t-167 -70q-56 0 -99 20.5t-67.5 54t-36.5 70.5t-12 75q0 32 4 52h354q-2 78 -44.5 123t-109.5 45q-95 0 -155 -78zM401 197h-270q0 -61 35.5 -103t96.5 -42q58 0 94 38t44 107z" />
    <glyph glyph-name="uni04DC" unicode="&#x4dc;" horiz-adv-x="959" 
d="M958 0h-105l-240 317h-89v-317h-86v317h-93l-240 -317h-104l275 359l-262 323h103l230 -292h91v292h86v-292h90l231 292h100l-259 -320zM409 758h-85v116h85v-116zM635 758h-85v116h85v-116z" />
    <glyph glyph-name="uni04DD" unicode="&#x4dd;" horiz-adv-x="761" 
d="M757 0h-96l-173 217h-67v-217h-80v217h-67l-173 -217h-97l206 255l-191 226h99l159 -200h64v200h80v-200h65l159 200h96l-189 -223zM326 566h-79v116h79v-116zM514 566h-79v116h79v-116z" />
    <glyph glyph-name="uni04DE" unicode="&#x4de;" horiz-adv-x="640" 
d="M31 111l66 51q34 -49 90.5 -75.5t124.5 -26.5q83 0 131.5 31.5t48.5 93.5q0 126 -194 126h-111v71h109q174 0 174 120q0 57 -42.5 88.5t-120.5 31.5q-129 0 -205 -93l-55 53q101 115 263 115q119 0 184.5 -50.5t65.5 -136.5q0 -57 -32.5 -98.5t-89.5 -57.5
q69 -15 106.5 -57.5t37.5 -107.5q0 -93 -73 -148.5t-198 -55.5q-87 0 -161.5 32t-118.5 94zM231 758h-85v116h85v-116zM457 758h-85v116h85v-116z" />
    <glyph glyph-name="uni04DF" unicode="&#x4df;" horiz-adv-x="505" 
d="M140 215v61h82q127 0 127 79q0 35 -29.5 54t-84.5 19q-93 0 -147 -69l-52 44q76 91 204 91q96 0 145.5 -35.5t49.5 -98.5q0 -83 -90 -109v-1q106 -22 106 -116q0 -66 -56.5 -106.5t-154.5 -40.5q-144 0 -214 91l55 47q54 -72 161 -72q122 0 122 80q0 82 -143 82h-81z
M187 566h-79v116h79v-116zM375 566h-79v116h79v-116z" />
    <glyph glyph-name="uni04E2" unicode="&#x4e2;" horiz-adv-x="756" 
d="M650 0h-86v556l-372 -556h-86v682h86v-556l372 556h86v-682zM529 847v-71h-305v71h305z" />
    <glyph glyph-name="uni04E3" unicode="&#x4e3;" horiz-adv-x="590" 
d="M509 0h-80v387l-265 -387h-82v481h80v-372l254 372h93v-481zM433 652v-67h-277v67h277z" />
    <glyph glyph-name="uni04E4" unicode="&#x4e4;" horiz-adv-x="756" 
d="M650 0h-86v556l-372 -556h-86v682h86v-556l372 556h86v-682zM308 758h-85v116h85v-116zM534 758h-85v116h85v-116z" />
    <glyph glyph-name="uni04E5" unicode="&#x4e5;" horiz-adv-x="590" 
d="M509 0h-80v387l-265 -387h-82v481h80v-372l254 372h93v-481zM240 566h-79v116h79v-116zM428 566h-79v116h79v-116z" />
    <glyph glyph-name="uni04E6" unicode="&#x4e6;" horiz-adv-x="780" 
d="M626 341q0 127 -63.5 203.5t-172.5 76.5q-110 0 -173 -76.5t-63 -203.5t63 -203t173 -76q109 0 172.5 76t63.5 203zM717 342q0 -160 -91.5 -258.5t-236.5 -98.5q-147 0 -236.5 96.5t-89.5 258.5q0 160 91 258.5t237 98.5q147 0 236.5 -96.5t89.5 -258.5zM320 758h-85v116
h85v-116zM546 758h-85v116h85v-116z" />
    <glyph glyph-name="uni04E7" unicode="&#x4e7;" horiz-adv-x="564" 
d="M432 240q0 81 -40 133t-110 52t-110 -52t-40 -133q0 -80 40.5 -132.5t109.5 -52.5q70 0 110 52t40 133zM517 241q0 -112 -63 -183t-173 -71q-112 0 -173 69.5t-61 182.5q0 112 63 183.5t173 71.5q112 0 173 -69.5t61 -183.5zM227 566h-79v116h79v-116zM415 566h-79v116
h79v-116z" />
    <glyph glyph-name="uni04E8" unicode="&#x4e8;" horiz-adv-x="780" 
d="M717 342q0 -160 -91.5 -258.5t-236.5 -98.5q-147 0 -236.5 96.5t-89.5 258.5q0 160 91 258.5t237 98.5q147 0 236.5 -96.5t89.5 -258.5zM390 61q104 0 167 69t69 186h-473q7 -117 69.5 -186t167.5 -69zM390 622q-100 0 -162 -63.5t-73 -171.5h469q-11 108 -73 171.5
t-161 63.5z" />
    <glyph glyph-name="uni04E9" unicode="&#x4e9;" horiz-adv-x="564" 
d="M517 241q0 -112 -63 -183t-173 -71q-112 0 -173 69.5t-61 182.5q0 112 63 183.5t173 71.5q112 0 173 -69.5t61 -183.5zM282 53q66 0 105 44.5t45 116.5h-300q6 -72 45.5 -116.5t104.5 -44.5zM282 427q-64 0 -102.5 -41.5t-46.5 -110.5h298q-9 69 -47.5 110.5t-101.5 41.5
z" />
    <glyph glyph-name="uni04EE" unicode="&#x4ee;" horiz-adv-x="616" 
d="M616 682l-240 -510q-49 -105 -101 -144.5t-128 -39.5q-26 0 -64 6v71h63q50 0 83 22t64 88l-279 507h99l225 -414l187 414h91zM478 847v-71h-305v71h305z" />
    <glyph glyph-name="uni04EF" unicode="&#x4ef;" horiz-adv-x="494" 
d="M200 -204h-86l97 200l-200 485h93l78 -202q39 -97 68 -187h1q24 79 67 187l78 202h87zM389 652v-67h-277v67h277z" />
    <glyph glyph-name="uni04F0" unicode="&#x4f0;" horiz-adv-x="616" 
d="M616 682l-240 -510q-49 -105 -101 -144.5t-128 -39.5q-26 0 -64 6v71h63q50 0 83 22t64 88l-279 507h99l225 -414l187 414h91zM268 758h-85v116h85v-116zM494 758h-85v116h85v-116z" />
    <glyph glyph-name="uni04F1" unicode="&#x4f1;" horiz-adv-x="494" 
d="M200 -204h-86l97 200l-200 485h93l78 -202q39 -97 68 -187h1q24 79 67 187l78 202h87zM196 566h-79v116h79v-116zM384 566h-79v116h79v-116z" />
    <glyph glyph-name="uni04F2" unicode="&#x4f2;" horiz-adv-x="616" 
d="M616 682l-240 -510q-49 -105 -101 -144.5t-128 -39.5q-26 0 -64 6v71h63q50 0 83 22t64 88l-279 507h99l225 -414l187 414h91zM171 748l73 134h112l-107 -134h-78zM378 748l92 134h118l-128 -134h-82z" />
    <glyph glyph-name="uni04F3" unicode="&#x4f3;" horiz-adv-x="494" 
d="M200 -204h-86l97 200l-200 485h93l78 -202q39 -97 68 -187h1q24 79 67 187l78 202h87zM113 551l66 142h103l-96 -142h-73zM292 551l85 142h110l-120 -142h-75z" />
    <glyph glyph-name="uni04F4" unicode="&#x4f4;" horiz-adv-x="681" 
d="M576 0h-86v264h-189q-117 0 -178.5 48.5t-61.5 163.5v206h86v-182q0 -89 38 -126t126 -37h179v345h86v-682zM251 758h-85v116h85v-116zM477 758h-85v116h85v-116z" />
    <glyph glyph-name="uni04F5" unicode="&#x4f5;" horiz-adv-x="526" 
d="M444 0h-80v208q-21 -30 -59 -48.5t-80 -18.5q-176 0 -176 193v147h80v-133q0 -64 23.5 -102t84.5 -38q59 0 93 44.5t34 116.5v112h80v-481zM191 566h-79v116h79v-116zM379 566h-79v116h79v-116z" />
    <glyph glyph-name="uni04F8" unicode="&#x4f8;" horiz-adv-x="926" 
d="M192 352v-279q53 -1 157 -1q97 0 138.5 36t41.5 105q0 71 -41 105.5t-137 34.5q-107 0 -159 -1zM106 0v682h86v-257q53 1 161 1q267 0 267 -211q0 -109 -71.5 -162.5t-202.5 -53.5q-111 0 -240 1zM820 0h-86v682h86v-682zM392 758h-85v116h85v-116zM618 758h-85v116h85
v-116z" />
    <glyph glyph-name="uni04F9" unicode="&#x4f9;" horiz-adv-x="714" 
d="M82 4v477h80v-152q33 1 94 1q214 0 214 -165q0 -79 -55 -126t-163 -47q-88 0 -170 12zM162 264v-199q43 -7 92 -7q131 0 131 106q0 52 -31.5 76.5t-99.5 24.5q-59 0 -92 -1zM632 0h-80v481h80v-481zM302 566h-79v116h79v-116zM490 566h-79v116h79v-116z" />
    <glyph glyph-name="uni0E3F" unicode="&#xe3f;" 
d="M278 789h77v-108q114 -6 169 -60q44 -44 44 -109q0 -117 -114 -158q67 -16 101.5 -58.5t34.5 -105.5q0 -52 -18.5 -89.5t-53 -58t-73.5 -30.5t-90 -12v-109h-77v108q-33 0 -91 0.5t-91 0.5v682q29 0 84.5 0.5t97.5 0.5v106zM182 312v-240q51 -1 135 -1q39 0 67.5 4
t57 15.5t43.5 36.5t15 62q0 34 -12.5 58t-29.5 36t-45.5 19t-49.5 8.5t-52 1.5h-129zM182 610v-229h130q49 0 82 7.5t57 32.5q29 29 29 80q0 44 -28 71q-22 22 -60 30.5t-106 8.5q-65 0 -104 -1z" />
    <glyph glyph-name="uni1E02" unicode="&#x1e02;" horiz-adv-x="709" 
d="M192 312v-240q53 -1 167 -1q46 0 77.5 4t62 15.5t46 36t15.5 62.5q0 34 -13 58t-31 36.5t-49 19.5t-54 8t-60 1h-161zM192 610v-229h160q62 0 98 7.5t61 32.5q29 29 29 80q0 43 -28 71q-23 23 -63.5 31t-122.5 8q-93 0 -134 -1zM106 0v682q30 0 104 0.5t123 0.5
q99 0 157 -12.5t95 -49.5q44 -44 44 -109q0 -116 -115 -158q67 -15 102 -58t35 -106q0 -58 -23.5 -97.5t-68 -59t-93.5 -27t-115 -7.5q-43 0 -125 0.5t-120 0.5zM398 758h-87v116h87v-116z" />
    <glyph glyph-name="uni1E03" unicode="&#x1e03;" horiz-adv-x="584" 
d="M82 239v471h80v-205q0 -49 -4 -93h1q49 82 160 82q103 0 160.5 -70t57.5 -181q0 -118 -61.5 -187t-160.5 -69q-105 0 -158 81h-1l-4 -68h-77q7 186 7 239zM160 250v-19q0 -78 40 -127.5t107 -49.5q69 0 107 50.5t38 136.5q0 82 -39 133.5t-110 51.5q-65 0 -104 -46.5
t-39 -129.5zM355 567h-82v116h82v-116z" />
    <glyph glyph-name="uni1E0A" unicode="&#x1e0a;" horiz-adv-x="729" 
d="M191 608v-530q57 -3 120 -3q72 0 115 10t79 46q71 71 71 209q0 135 -73 208q-38 38 -82 49.5t-115 11.5q-82 0 -115 -1zM106 1v680q67 1 203 1q93 0 155.5 -19t111.5 -68q91 -91 91 -252q0 -165 -92 -257q-49 -49 -112.5 -67.5t-153.5 -18.5q-40 0 -111.5 0.5t-91.5 0.5z
M388 758h-87v116h87v-116z" />
    <glyph glyph-name="uni1E0B" unicode="&#x1e0b;" horiz-adv-x="584" 
d="M425 230v20q0 78 -40 127t-107 49q-70 0 -108 -50.5t-38 -135.5q0 -82 39 -134t110 -52q65 0 104.5 47t39.5 129zM505 0h-77l-2 70h-1q-47 -83 -160 -83q-103 0 -160.5 70t-57.5 181q0 118 61.5 187t160.5 69q102 0 155 -77h1q-3 54 -3 88v205h80v-471q0 -101 3 -239z
M309 567h-82v116h82v-116z" />
    <glyph glyph-name="uni1E1E" unicode="&#x1e1e;" horiz-adv-x="599" 
d="M106 0v682h447v-73h-361v-231h315v-69h-315v-309h-86zM369 758h-87v116h87v-116z" />
    <glyph glyph-name="uni1E1F" unicode="&#x1e1f;" horiz-adv-x="315" 
d="M107 0v416h-98v65h98v94q0 69 34 105t99 36q52 0 85 -14v-69q-37 15 -80 15q-31 0 -44.5 -18t-13.5 -57v-92h124v-65h-124v-416h-80zM275 795h-82v116h82v-116z" />
    <glyph glyph-name="uni1E40" unicode="&#x1e40;" horiz-adv-x="946" 
d="M106 0v682h140l140 -337q69 -165 87 -224h2q22 71 87 224l139 337h139v-682h-86v240q0 274 3 371h-3q-18 -49 -86 -215l-162 -396h-71l-163 397q-66 159 -86 214h-3q3 -97 3 -371v-240h-80zM516 758h-87v116h87v-116z" />
    <glyph glyph-name="uni1E41" unicode="&#x1e41;" horiz-adv-x="887" 
d="M812 0h-80v270q0 72 -16 103q-25 53 -95 53q-54 0 -87 -33q-47 -47 -47 -162v-231h-80v270q0 72 -16 103q-27 53 -95 53q-54 0 -87 -33q-47 -47 -47 -162v-231h-80v241q0 117 -3 240h77l2 -71h1q49 84 154 84q119 0 157 -96q59 96 168 96q83 0 128.5 -48t45.5 -145v-301z
M488 566h-82v116h82v-116z" />
    <glyph glyph-name="uni1E56" unicode="&#x1e56;" horiz-adv-x="643" 
d="M539 474q0 67 -41 101t-137 34q-117 0 -169 -1v-268q53 -1 167 -1q96 0 138 34.5t42 100.5zM106 0v682q37 0 125 0.5t132 0.5q267 0 267 -207q0 -105 -71.5 -157.5t-202.5 -52.5q-103 0 -164 1v-267h-86zM395 758h-87v116h87v-116z" />
    <glyph glyph-name="uni1E57" unicode="&#x1e57;" horiz-adv-x="584" 
d="M160 250v-19q0 -78 40 -127.5t107 -49.5q69 0 107 50.5t38 136.5q0 82 -39 133.5t-110 51.5q-65 0 -104 -46.5t-39 -129.5zM162 -204h-80v446q0 118 -3 239h77l2 -71h1q48 84 160 84q103 0 160.5 -70t57.5 -181q0 -118 -61.5 -187t-160.5 -69q-102 0 -155 77h-1
q3 -27 3 -89v-179zM347 567h-82v116h82v-116z" />
    <glyph glyph-name="uni1E60" unicode="&#x1e60;" horiz-adv-x="658" 
d="M57 109l49 63q105 -114 239 -114q74 0 117 32t43 86q0 39 -23.5 64.5t-60.5 39t-82 24t-90.5 24t-82.5 34t-60.5 59.5t-23.5 94q0 82 65 132t169 50q136 0 245 -94l-47 -65q-87 86 -200 86q-70 0 -107 -28t-37 -76q0 -38 23.5 -63t60.5 -38t82 -23t90.5 -24t82.5 -34.5
t60.5 -60.5t23.5 -96q0 -87 -71.5 -141.5t-178.5 -54.5q-165 0 -286 124zM363 758h-87v116h87v-116z" />
    <glyph glyph-name="uni1E61" unicode="&#x1e61;" horiz-adv-x="491" 
d="M45 69l42 59q77 -75 169 -75q48 0 75.5 19.5t27.5 53.5t-30.5 52.5t-74 27.5t-87 21.5t-74 45t-30.5 87.5q0 62 48.5 98t125.5 36q104 0 184 -65l-42 -56q-62 56 -143 56q-44 0 -67.5 -17.5t-23.5 -47.5q0 -33 30.5 -51t73.5 -27t86.5 -21.5t74 -45.5t30.5 -88
q0 -66 -52.5 -105t-132.5 -39q-119 0 -210 82zM277 567h-82v116h82v-116z" />
    <glyph glyph-name="uni1E6A" unicode="&#x1e6a;" horiz-adv-x="534" 
d="M224 0v608h-231v74h548v-74h-231v-608h-86zM311 758h-87v116h87v-116z" />
    <glyph glyph-name="uni1E6B" unicode="&#x1e6b;" horiz-adv-x="350" 
d="M105 415h-95v66h95v164l80 20v-184h140v-66h-140v-225q0 -64 3.5 -86t15.5 -34q14 -14 44 -14q47 0 77 16v-68q-35 -16 -92 -16q-67 0 -97.5 35t-30.5 115v277zM188 722h-82v116h82v-116z" />
    <glyph glyph-name="Wgrave" unicode="&#x1e80;" horiz-adv-x="1037" 
d="M344 0h-100l-211 682h96l92 -320q56 -189 77 -266h2q24 86 81 267l99 319h80l102 -320q58 -174 84 -266h1q42 150 75 267l91 319h91l-211 -682h-100l-139 426q-17 53 -36 130h-1q-7 -34 -37 -130zM474 882l92 -134h-82l-129 134h119z" />
    <glyph glyph-name="wgrave" unicode="&#x1e81;" horiz-adv-x="820" 
d="M619 0h-77l-82 219q-45 126 -53 154h-2q-17 -62 -50 -154l-78 -219h-77l-180 481h91l83 -235q40 -121 48 -150h2q22 80 48 151l81 234h71l83 -226q44 -125 55 -159h2q21 70 50 157l76 228h89zM368 693l85 -142h-76l-119 142h110z" />
    <glyph glyph-name="Wacute" unicode="&#x1e82;" horiz-adv-x="1037" 
d="M344 0h-100l-211 682h96l92 -320q56 -189 77 -266h2q24 86 81 267l99 319h80l102 -320q58 -174 84 -266h1q42 150 75 267l91 319h91l-211 -682h-100l-139 426q-17 53 -36 130h-1q-7 -34 -37 -130zM471 748l91 134h119l-129 -134h-81z" />
    <glyph glyph-name="wacute" unicode="&#x1e83;" horiz-adv-x="820" 
d="M619 0h-77l-82 219q-45 126 -53 154h-2q-17 -62 -50 -154l-78 -219h-77l-180 481h91l83 -235q40 -121 48 -150h2q22 80 48 151l81 234h71l83 -226q44 -125 55 -159h2q21 70 50 157l76 228h89zM358 551l85 142h109l-118 -142h-76z" />
    <glyph glyph-name="Wdieresis" unicode="&#x1e84;" horiz-adv-x="1037" 
d="M344 0h-100l-211 682h96l92 -320q56 -189 77 -266h2q24 86 81 267l99 319h80l102 -320q58 -174 84 -266h1q42 150 75 267l91 319h91l-211 -682h-100l-139 426q-17 53 -36 130h-1q-7 -34 -37 -130zM448 758h-85v116h85v-116zM674 758h-85v116h85v-116z" />
    <glyph glyph-name="wdieresis" unicode="&#x1e85;" horiz-adv-x="820" 
d="M619 0h-77l-82 219q-45 126 -53 154h-2q-17 -62 -50 -154l-78 -219h-77l-180 481h91l83 -235q40 -121 48 -150h2q22 80 48 151l81 234h71l83 -226q44 -125 55 -159h2q21 70 50 157l76 228h89zM353 566h-79v116h79v-116zM541 566h-79v116h79v-116z" />
    <glyph glyph-name="uni1E9E" unicode="&#x1e9e;" horiz-adv-x="747" 
d="M99 0v441q0 254 294 254q128 0 246 -31v-64l-196 -212q117 -3 185.5 -52t68.5 -147q0 -91 -65.5 -147.5t-179.5 -56.5q-71 0 -142 23l18 73q64 -23 127 -23q75 0 113.5 35.5t38.5 91.5q0 132 -196 132h-68v71l203 218q-70 16 -156 16q-107 0 -156 -42t-49 -137v-443h-86z
" />
    <glyph glyph-name="Ygrave" unicode="&#x1ef2;" horiz-adv-x="610" 
d="M348 0h-86v289l-262 393h104l204 -311l202 311h100l-262 -393v-289zM267 882l92 -134h-82l-129 134h119z" />
    <glyph glyph-name="ygrave" unicode="&#x1ef3;" horiz-adv-x="492" 
d="M204 -204h-88l96 204h-7l-194 481h92l78 -202q42 -106 68 -193h1q27 90 67 193l76 202h88zM211 693l85 -142h-76l-119 142h110z" />
    <glyph glyph-name="endash" unicode="&#x2013;" 
d="M589 310v-72h-528v72h528z" />
    <glyph glyph-name="emdash" unicode="&#x2014;" horiz-adv-x="970" 
d="M924 310v-72h-878v72h878z" />
    <glyph glyph-name="emdash" unicode="&#x2015;" horiz-adv-x="970" 
d="M924 310v-72h-878v72h878z" />
    <glyph glyph-name="quotesinglbase" unicode="&#x201a;" horiz-adv-x="263" 
d="M77 141h109v-117q0 -94 -21 -136t-84 -76l-28 47q41 28 54 54.5t13 86.5h-43v141z" />
    <glyph glyph-name="quotedblleft" unicode="&#x201c;" horiz-adv-x="451" 
d="M373 476h-102v117q0 93 19.5 136t79.5 77l27 -47q-39 -28 -51.5 -55t-12.5 -87h40v-141zM180 476h-103v117q0 93 19.5 136t79.5 77l27 -47q-39 -28 -51 -55t-12 -87h40v-141z" />
    <glyph glyph-name="quotedblright" unicode="&#x201d;" horiz-adv-x="451" 
d="M77 785h103v-117q0 -93 -19.5 -135.5t-78.5 -77.5l-29 47q39 28 51.5 55.5t12.5 86.5h-40v141zM271 785h102v-117q0 -93 -19.5 -135.5t-78.5 -77.5l-28 47q39 28 51.5 55.5t12.5 86.5h-40v141z" />
    <glyph glyph-name="quotedblbase" unicode="&#x201e;" horiz-adv-x="451" 
d="M77 141h103v-117q0 -93 -19.5 -135.5t-78.5 -77.5l-29 47q39 28 51.5 55.5t12.5 86.5h-40v141zM271 141h102v-117q0 -93 -19.5 -135.5t-78.5 -77.5l-28 47q39 28 51.5 55.5t12.5 86.5h-40v141z" />
    <glyph glyph-name="dagger" unicode="&#x2020;" horiz-adv-x="497" 
d="M288 97h-80v423h-164v68h164v175h80v-175h164v-68h-164v-423z" />
    <glyph glyph-name="daggerdbl" unicode="&#x2021;" horiz-adv-x="497" 
d="M452 330v-68h-164v-183h-80v183h-164v68h164v190h-164v68h164v175h80v-175h164v-68h-164v-190h164z" />
    <glyph glyph-name="bullet" unicode="&#x2022;" horiz-adv-x="420" 
d="M343 323q0 -55 -39.5 -94.5t-94.5 -39.5t-93.5 38.5t-38.5 93.5t39.5 94.5t94.5 39.5t93.5 -38.5t38.5 -93.5z" />
    <glyph glyph-name="ellipsis" unicode="&#x2026;" horiz-adv-x="850" 
d="M186 0h-109v146h109v-146zM480 0h-109v146h109v-146zM773 0h-109v146h109v-146z" />
    <glyph glyph-name="perthousand" unicode="&#x2030;" horiz-adv-x="1590" 
d="M370 558q0 164 -108 164q-109 0 -109 -164t109 -164q108 0 108 164zM449 559q0 -106 -49.5 -168t-139.5 -62q-91 0 -138 60.5t-47 167.5q0 106 49.5 168t138.5 62q91 0 138.5 -60.5t47.5 -167.5zM781 778h86l-544 -874h-87zM951 124q0 164 -108 164q-109 0 -109 -164
t109 -164q108 0 108 164zM1030 125q0 -106 -49.5 -168t-139.5 -62q-91 0 -138 60.5t-47 167.5q0 106 49.5 168t138.5 62q91 0 138.5 -60.5t47.5 -167.5zM1436 124q0 164 -108 164q-109 0 -109 -164t109 -164q108 0 108 164zM1515 125q0 -106 -49.5 -168t-139.5 -62
q-91 0 -138 60.5t-47 167.5q0 106 49.5 168t138.5 62q91 0 138.5 -60.5t47.5 -167.5z" />
    <glyph glyph-name="guilsinglleft" unicode="&#x2039;" horiz-adv-x="402" 
d="M315 76l-64 -35l-176 233l177 232l63 -33l-134 -198z" />
    <glyph glyph-name="guilsinglright" unicode="&#x203a;" horiz-adv-x="402" 
d="M87 471l63 36l177 -233l-177 -232l-64 33l135 197z" />
    <glyph glyph-name="fraction" unicode="&#x2044;" horiz-adv-x="394" 
d="M427 778h86l-544 -874h-87z" />
    <glyph glyph-name="zero.superior" unicode="&#x2070;" horiz-adv-x="523" 
d="M370 558q0 164 -108 164q-109 0 -109 -164t109 -164q108 0 108 164zM449 559q0 -106 -49.5 -168t-139.5 -62q-91 0 -138 60.5t-47 167.5q0 106 49.5 168t138.5 62q91 0 138.5 -60.5t47.5 -167.5z" />
    <glyph glyph-name="four.superior" unicode="&#x2074;" horiz-adv-x="491" 
d="M361 338h-78v94h-232v67l196 279h114v-282h78v-64h-78v-94zM126 493q84 3 157 3v113q0 81 2 109h-1z" />
    <glyph glyph-name="uni2081" unicode="&#x2081;" horiz-adv-x="358" 
d="M263 -96h-78v333q-39 -33 -130 -33v65q124 0 140 77h68v-442z" />
    <glyph glyph-name="uni2082" unicode="&#x2082;" horiz-adv-x="506" 
d="M433 -31v-65h-351v71q156 95 205.5 140.5t49.5 96.5q0 37 -22.5 58.5t-64.5 21.5q-87 0 -87 -74q0 -24 8 -50h-77q-9 20 -9 49q0 65 46 100.5t123 35.5q81 0 123.5 -39t42.5 -100q0 -65 -52.5 -118.5t-181.5 -125.5v-2q43 1 121 1h126z" />
    <glyph glyph-name="uni2083" unicode="&#x2083;" horiz-adv-x="504" 
d="M67 24l75 16q16 -85 114 -85q45 0 70 19.5t25 54.5q0 71 -99 71h-64v56h48q61 0 83 22q18 18 18 51q0 29 -23 47t-63 18q-83 0 -96 -77l-75 15q26 121 175 121q75 0 119.5 -32.5t44.5 -87.5q0 -75 -72 -99v-1q87 -21 87 -107q0 -55 -48 -93t-130 -38q-164 0 -189 129z
" />
    <glyph glyph-name="uni2084" unicode="&#x2084;" horiz-adv-x="491" 
d="M361 -96h-78v94h-232v67l196 279h114v-282h78v-64h-78v-94zM126 59q84 3 157 3v113q0 81 2 109h-1z" />
    <glyph glyph-name="Euro" unicode="&#x20ac;" horiz-adv-x="720" 
d="M443 295v-63h-223q21 -83 72 -128t129 -45q110 0 178 93l55 -48q-89 -119 -235 -119q-112 0 -188.5 65t-101.5 182h-96v63h87q-2 28 -2 45q0 32 2 48h-87v63h96q27 120 108 183t185 63q139 0 226 -109l-60 -52q-65 89 -167 89q-75 0 -127.5 -45t-73.5 -129h223v-63h-233
q-2 -15 -2 -47q0 -31 2 -46h233z" />
    <glyph glyph-name="uni20AE" unicode="&#x20ae;" 
d="M105 371l177 42v195h-245v74h576v-74h-245v-174l177 43v-66l-177 -43v-97l177 43v-65l-177 -43v-206h-86v185l-177 -42v66l177 42v97l-177 -42v65z" />
    <glyph glyph-name="uni20B4" unicode="&#x20b4;" 
d="M57 459h366q23 33 23 70q0 44 -32.5 70.5t-88.5 26.5q-93 0 -155 -74l-44 60q37 39 91.5 62t114.5 23q93 0 147.5 -47t54.5 -119q0 -37 -15 -72h74v-63h-123q-20 -18 -44.5 -34t-61.5 -36t-50 -28h279v-63h-357q-27 -35 -27 -77q0 -48 34.5 -75t93.5 -27q104 0 174 88
l46 -57q-88 -102 -228 -102q-95 0 -152 47.5t-57 122.5q0 44 19 80h-82v63h134q28 23 90 58t70 40h-294v63z" />
    <glyph glyph-name="uni20B8" unicode="&#x20b8;" 
d="M604 518v-72h-236v-446h-86v446h-236v72h558zM46 682h558v-72h-558v72z" />
    <glyph glyph-name="uni20BA" unicode="&#x20ba;" 
d="M55 415l109 28v239h86v-216l220 57v-64l-220 -57v-93l220 57v-64l-220 -57v-175q18 -1 29 -1q96 0 162.5 16.5t128.5 54.5v-83q-113 -62 -298 -62q-23 0 -108 5v223l-109 -28v64l109 28v92l-109 -28v64z" />
    <glyph glyph-name="uni20BD" unicode="&#x20bd;" 
d="M458 120h-226v-120h-86v120h-92v64h92v95h-92v67h92v336q39 0 109 0.5t104 0.5q115 0 182 -51t67 -150q0 -98 -69 -150.5t-187 -52.5h-120v-95h226v-64zM517 480q0 134 -160 134q-83 0 -125 -1v-267h123q162 0 162 134z" />
    <glyph glyph-name="afii61289" unicode="&#x2113;" horiz-adv-x="461" 
d="M257 -12q-67 0 -103.5 41.5t-52.5 122.5l-49 -24l-31 62l70 35q-4 52 -4 127q0 141 21 223.5t55 111.5t87 29q132 0 132 -196q0 -217 -206 -330q8 -67 29 -100t61 -33q44 0 86 38l33 -54q-56 -53 -128 -53zM169 354q0 -61 1 -88q129 79 129 251q0 68 -13 99.5t-42 31.5
q-23 0 -38.5 -20.5t-26 -88t-10.5 -185.5z" />
    <glyph glyph-name="uni2116" unicode="&#x2116;" horiz-adv-x="1159" 
d="M931 349q-80 0 -125.5 48t-45.5 125q0 73 47 124t126 51t125 -47.5t46 -124.5q0 -74 -46.5 -125t-126.5 -51zM932 409q45 0 70 30.5t25 84.5q0 51 -25 81.5t-70 30.5t-70 -30t-25 -83q0 -52 25 -83t70 -31zM1087 228h-311v63h311v-63zM658 0h-106l-246 387
q-64 101 -123 197h-1q4 -115 4 -352v-232h-80v682h114l239 -374q64 -99 121 -197h2q-5 143 -5 352v219h81v-682z" />
    <glyph glyph-name="trademark" unicode="&#x2122;" horiz-adv-x="912" 
d="M149 314v311h-122v57h310v-57h-120v-311h-68zM400 314v368h103l87 -210q11 -28 25 -78h2q14 48 26 77l87 211h102v-368h-65v129q0 122 3 185h-2q-14 -47 -28 -79l-99 -235h-55l-98 236q-17 37 -29 78h-1q2 -42 2 -185v-129h-60z" />
    <glyph glyph-name="estimated" unicode="&#x212e;" horiz-adv-x="932" 
d="M231 378h468v153q0 31 -19 44q-82 63 -214 63q-134 0 -216 -64q-19 -17 -19 -49v-147zM467 -15q-182 0 -293 96.5t-111 258.5q0 160 112.5 258.5t292.5 98.5t290.5 -96t110.5 -256q0 -15 -2 -22h-636v-164q0 -34 27 -54q79 -60 212 -60q83 0 156 26.5t122 75.5h94
q-56 -76 -155 -119t-220 -43z" />
    <glyph glyph-name="partialdiff" unicode="&#x2202;" horiz-adv-x="570" 
d="M276 55q69 0 109 52t40 133q0 83 -39.5 133.5t-106.5 50.5q-69 0 -107.5 -50t-38.5 -135q0 -81 38 -132.5t105 -51.5zM273 -13q-105 0 -165 69.5t-60 181.5q0 118 62 186t164 68q59 0 104.5 -29t66.5 -73h1q0 1 -8 51t-22.5 85t-42.5 63q-45 43 -114 43q-74 0 -133 -22
v72q62 18 136 18q134 0 196 -91.5t62 -272.5t-65.5 -265t-181.5 -84z" />
    <glyph glyph-name="product" unicode="&#x220f;" horiz-adv-x="811" 
d="M671 -204h-86v906h-359v-906h-86v906h-130v76h791v-76h-130v-906z" />
    <glyph glyph-name="summation" unicode="&#x2211;" horiz-adv-x="660" 
d="M41 -204v75l300 427l-285 406v74h548v-76q-189 0 -439 2l281 -400l-305 -433q258 2 479 2v-77h-579z" />
    <glyph glyph-name="minus" unicode="&#x2212;" 
d="M589 356v-68h-528v68h528z" />
    <glyph glyph-name="radical" unicode="&#x221a;" horiz-adv-x="704" 
d="M348 -96h-88l-142 371h-104v69h170l60 -161q51 -141 62 -185h2q14 55 89 255l190 525h93z" />
    <glyph glyph-name="infinity" unicode="&#x221e;" horiz-adv-x="980" 
d="M252 117q-91 0 -149.5 56.5t-58.5 145.5q0 94 60.5 151t155.5 57q70 0 123.5 -39t109.5 -109q58 70 112 109t124 39q91 0 149 -56.5t58 -145.5q0 -94 -60.5 -151t-155.5 -57q-71 0 -124.5 39t-108.5 108q-58 -70 -112 -108.5t-123 -38.5zM723 458q-51 0 -93 -34t-94 -99
q52 -69 93.5 -104t93.5 -35q60 0 94 37.5t34 98.5t-34 98.5t-94 37.5zM257 186q51 0 93 33.5t95 99.5q-52 68 -94 103.5t-94 35.5q-59 0 -93 -38t-34 -98q0 -61 33.5 -98.5t93.5 -37.5z" />
    <glyph glyph-name="integral" unicode="&#x222b;" horiz-adv-x="344" 
d="M85 -214q-52 0 -90 18l9 68q36 -17 71 -17q55 0 55 70v724q0 67 33 102.5t96 35.5q46 0 90 -18l-9 -69q-38 18 -72 18q-55 0 -55 -70v-725q1 -67 -32 -102t-96 -35z" />
    <glyph glyph-name="approxequal" unicode="&#x2248;" 
d="M433 347q-57 0 -118 35.5t-101 35.5q-51 0 -114 -57l-43 50q76 78 160 78q57 0 118 -35.5t101 -35.5q51 0 114 57l42 -49q-76 -79 -159 -79zM433 155q-57 0 -118 35.5t-101 35.5q-51 0 -114 -57l-43 49q76 79 160 79q57 0 118 -35.5t101 -35.5q51 0 114 57l42 -50
q-76 -78 -159 -78z" />
    <glyph glyph-name="notequal" unicode="&#x2260;" 
d="M219 27h-81l83 166h-150v69h184l59 120h-243v69h277l78 160h82l-81 -160h152v-69h-186l-60 -120h246v-69h-279z" />
    <glyph glyph-name="lessequal" unicode="&#x2264;" 
d="M579 68v-68h-508v68h508zM579 277v-85l-508 199v83l508 200v-84q-337 -131 -417 -155v-2q81 -24 417 -156z" />
    <glyph glyph-name="greaterequal" unicode="&#x2265;" 
d="M579 68v-68h-508v68h508zM71 589v85l508 -200v-83l-508 -199v84q337 131 417 155v2q-81 24 -417 156z" />
    <glyph glyph-name="lozenge" unicode="&#x25ca;" 
d="M370 0h-90l-218 341l217 341h91l217 -341zM325 73h2q17 35 165 267q-145 224 -168 269h-2q-16 -35 -164 -267q151 -235 167 -269z" />
    <glyph glyph-name="uniF8FF" unicode="&#xf8ff;" horiz-adv-x="822" 
d="M145 608v-532h532v532h-532zM69 0v684h684v-684h-684zM221 152v380h76v-304h152v-76h-228zM525 152v152h-152v76h152v76h-152v76h228v-380h-76z" />
    <glyph glyph-name="fi" unicode="&#xfb01;" horiz-adv-x="574" 
d="M107 0v416h-98v65h98v94q0 69 34 105t99 36q52 0 85 -14v-69q-37 15 -80 15q-31 0 -44.5 -18t-13.5 -57v-92h124v-65h-124v-416h-80zM493 0h-80v481h80v-481zM412 562v124h82v-124h-82z" />
    <glyph glyph-name="fl" unicode="&#xfb02;" horiz-adv-x="574" 
d="M413 0v710h80v-710h-80zM107 0v416h-98v65h98v94q0 69 34 105t99 36q52 0 85 -14v-69q-37 15 -80 15q-31 0 -44.5 -18t-13.5 -57v-92h124v-65h-124v-416h-80z" />
    <glyph glyph-name="uni0431.SRB" horiz-adv-x="564" 
d="M475 710v-72h-203q-45 0 -64 -11t-19 -34q0 -21 30 -40.5t70 -34t88 -40t75 -53.5q65 -67 65 -185q0 -111 -63 -182t-173 -71q-112 0 -173 69t-61 182q0 89 39 151t112 87q-93 41 -93 117q0 117 169 117h201zM282 423q-71 0 -110.5 -52t-39.5 -132t40.5 -132t109.5 -52
q70 0 110 52t40 132t-40 132t-110 52z" />
    <glyph glyph-name="uni0432.bul" horiz-adv-x="550" 
d="M464 552q0 -117 -104 -163q141 -34 141 -186q0 -93 -57.5 -154.5t-160.5 -61.5q-106 0 -157 56.5t-51 159.5v298q0 112 50.5 167.5t144.5 55.5q92 0 143 -45.5t51 -126.5zM155 348v-141q0 -71 32.5 -112t97.5 -41t98 41t33 107q0 67 -38.5 106.5t-119.5 39.5h-103z
M155 504v-92h94q61 2 96 41t35 96q0 50 -29 79.5t-83 29.5q-57 0 -85 -37t-28 -117z" />
    <glyph glyph-name="uni0433.bul" horiz-adv-x="465" 
d="M390 126l45 -55q-82 -84 -209 -84q-83 0 -132 35.5t-49 101.5q0 48 29 79.5t70 47t82.5 28.5t70.5 33.5t29 51.5q0 30 -23.5 47t-67.5 17q-80 0 -139 -59l-44 53q78 72 187 72q81 0 127 -34.5t46 -93.5q0 -41 -21 -70t-52 -43.5t-68 -28.5t-68 -24t-52 -29t-21 -45
q0 -73 102 -73q94 0 158 73z" />
    <glyph glyph-name="uni0434.bul" horiz-adv-x="586" 
d="M433 481h78q-7 -75 -7 -239v-255q0 -94 -52.5 -147.5t-162.5 -53.5q-140 0 -222 108l53 51q63 -93 171 -93q67 0 100.5 34.5t33.5 95.5q0 13 0.5 43.5t0.5 44.5h-1q-50 -80 -159 -80q-103 0 -160.5 69t-57.5 180q0 117 61.5 186t160.5 69q104 0 158 -81h1zM425 232v18
q0 78 -40 127t-107 49q-69 0 -107 -50.5t-38 -134.5q0 -81 39.5 -133t109.5 -52q65 0 104 47t39 129z" />
    <glyph glyph-name="uni0436.bul" horiz-adv-x="761" 
d="M757 0h-96l-173 225h-67v-225h-80v225h-67l-173 -225h-97l206 262l-191 219h99l159 -192h64v421h80v-421h65l159 192h96l-189 -216z" />
    <glyph glyph-name="uni0438.bul" horiz-adv-x="560" 
d="M482 0h-77l-2 70h-1q-48 -83 -154 -83q-82 0 -127.5 48t-45.5 145v301h80v-270q0 -72 16 -104q27 -53 93 -53q55 0 87 34q48 48 48 162v231h80v-244q0 -123 3 -237z" />
    <glyph glyph-name="uni0419.bul" horiz-adv-x="756" 
d="M650 0h-86v556l-372 -556h-86v682h86v-556l372 556h86v-682zM518 846l26 -57q-62 -40 -167 -40q-102 0 -164 40l27 57q62 -30 139 -30q82 0 139 30z" />
    <glyph glyph-name="uni0439.bul" horiz-adv-x="560" 
d="M482 0h-77l-2 70h-1q-48 -83 -154 -83q-82 0 -127.5 48t-45.5 145v301h80v-270q0 -72 16 -104q27 -53 93 -53q55 0 87 34q48 48 48 162v231h80v-244q0 -123 3 -237zM410 670l25 -55q-64 -39 -155 -39q-94 0 -155 39l25 55q59 -28 132 -28q70 0 128 28z" />
    <glyph glyph-name="uni045D.bul" horiz-adv-x="560" 
d="M482 0h-77l-2 70h-1q-48 -83 -154 -83q-82 0 -127.5 48t-45.5 145v301h80v-270q0 -72 16 -104q27 -53 93 -53q55 0 87 34q48 48 48 162v231h80v-244q0 -123 3 -237zM237 693l85 -142h-76l-119 142h110z" />
    <glyph glyph-name="uni043A.bul" horiz-adv-x="518" 
d="M513 0h-100l-186 225h-65v-225h-80v710h80v-421h65l179 192h98l-207 -218z" />
    <glyph glyph-name="uni041B.alt" horiz-adv-x="640" 
d="M623 0h-96l-135 372q-63 176 -74 215h-2q-13 -47 -74 -216l-132 -371h-94l259 682h90z" />
    <glyph glyph-name="uni043B.alt" horiz-adv-x="492" 
d="M481 0h-92l-78 201q-37 94 -67 193h-2q-19 -68 -66 -193l-77 -201h-88l195 481h81z" />
    <glyph glyph-name="uni043F.bul" horiz-adv-x="566" 
d="M491 0h-80v270q0 72 -16 103q-27 53 -97 53q-56 0 -89 -33q-47 -47 -47 -162v-231h-80v241q0 117 -3 240h77l2 -71h1q49 84 156 84q84 0 130 -48t46 -145v-301z" />
    <glyph glyph-name="uni0442.bul" horiz-adv-x="887" 
d="M812 0h-80v270q0 72 -16 103q-25 53 -95 53q-54 0 -87 -33q-47 -47 -47 -162v-231h-80v270q0 72 -16 103q-27 53 -95 53q-54 0 -87 -33q-47 -47 -47 -162v-231h-80v241q0 117 -3 240h77l2 -71h1q49 84 154 84q119 0 157 -96q59 96 168 96q83 0 128.5 -48t45.5 -145v-301z
" />
    <glyph glyph-name="uni0446.bul" horiz-adv-x="590" 
d="M576 -143h-71v143q-87 0 -102 70h-1q-48 -83 -154 -83q-82 0 -127.5 48t-45.5 145v301h80v-270q0 -72 16 -104q27 -53 93 -53q55 0 87 34q48 48 48 162v231h80v-350q0 -39 14 -52.5t49 -13.5h34v-208z" />
    <glyph glyph-name="uni0448.bul" horiz-adv-x="887" 
d="M805 481v-241q0 -117 3 -240h-76l-3 70h-1q-48 -83 -154 -83q-118 0 -157 95q-59 -95 -168 -95q-83 0 -128.5 48t-45.5 145v301h80v-270q0 -72 16 -104q27 -53 95 -53q53 0 87 34q47 47 47 162v231h80v-270q0 -72 16 -104q27 -53 96 -53q54 0 86 34q47 47 47 162v231h80z
" />
    <glyph glyph-name="uni0449.bul" horiz-adv-x="917" 
d="M903 -143h-72v143q-87 0 -102 70h-1q-48 -83 -154 -83q-118 0 -157 95q-59 -95 -168 -95q-83 0 -128.5 48t-45.5 145v301h80v-270q0 -72 16 -104q27 -53 95 -53q53 0 87 34q47 47 47 162v231h80v-270q0 -72 16 -104q27 -53 96 -53q54 0 86 34q47 47 47 162v231h80v-350
q0 -39 14 -52.5t49 -13.5h35v-208z" />
    <glyph glyph-name="uni044A.bul" horiz-adv-x="592" 
d="M19 415v66h218v-159q53 10 109 10q111 0 162.5 -47t51.5 -124q0 -75 -53.5 -124.5t-152.5 -49.5q-94 0 -145.5 44.5t-51.5 126.5v257h-138zM237 256v-93q0 -52 31.5 -81.5t86.5 -29.5q58 0 89 29.5t31 77.5q0 49 -33.5 78.5t-99.5 29.5q-46 0 -105 -11z" />
    <glyph glyph-name="uni044B.bul" horiz-adv-x="709" 
d="M75 158v323h80v-159q50 10 104 10q106 0 156 -47t50 -124q0 -75 -52 -124.5t-147 -49.5q-92 0 -141.5 44.5t-49.5 126.5zM155 256v-93q0 -52 30 -81.5t82 -29.5q54 0 83 29.5t29 77.5q0 50 -31 79t-94 29q-44 0 -99 -11zM627 0h-80v481h80v-481z" />
    <glyph glyph-name="uni044C.bul" horiz-adv-x="510" 
d="M75 158v323h80v-159q53 10 109 10q111 0 162.5 -47t51.5 -124q0 -75 -53.5 -124.5t-152.5 -49.5q-94 0 -145.5 44.5t-51.5 126.5zM155 256v-93q0 -52 31.5 -81.5t86.5 -29.5q58 0 89 29.5t31 77.5q0 49 -33.5 78.5t-99.5 29.5q-46 0 -105 -11z" />
    <glyph glyph-name="uni044E.bul" horiz-adv-x="779" 
d="M732 241q0 -112 -60.5 -183t-166.5 -71t-164 65.5t-61 174.5h-118v-227h-80v710h80v-418h122q13 91 71.5 146.5t151.5 55.5q109 0 167 -69.5t58 -183.5zM646 240q0 81 -37 133t-103 52q-67 0 -104 -51.5t-37 -132.5q0 -82 37.5 -134t103.5 -52q67 0 103.5 52t36.5 133z
" />
    <glyph glyph-name="grave.cap" horiz-adv-x="343" 
d="M185 882l92 -134h-82l-129 134h119z" />
    <glyph glyph-name="acute.cap" horiz-adv-x="354" 
d="M72 748l91 134h119l-129 -134h-81z" />
    <glyph glyph-name="circumflex.cap" horiz-adv-x="462" 
d="M70 748l116 134h89l117 -134h-84l-78 74l-77 -74h-83z" />
    <glyph glyph-name="caron.cap" horiz-adv-x="462" 
d="M392 882l-116 -134h-90l-116 134h83l78 -74l79 74h82z" />
    <glyph glyph-name="tilde.narrow" horiz-adv-x="442" 
d="M165 621q-26 0 -26 -59h-60q0 124 88 124q28 0 49 -16t35.5 -32t25.5 -16q26 0 26 59h61q0 -124 -89 -124q-28 0 -49.5 16t-35.5 32t-25 16z" />
    <glyph glyph-name="tilde.cap" horiz-adv-x="508" 
d="M183 811q-38 0 -38 -59h-66q0 55 26 91t80 36q31 0 59 -16t48 -32t33 -16q18 0 27.5 17t9.5 42h67q0 -56 -26.5 -91.5t-80.5 -35.5q-31 0 -58.5 16t-47.5 32t-33 16z" />
    <glyph glyph-name="dieresis.narrow" horiz-adv-x="399" 
d="M156 566h-77v116h77v-116zM320 566h-77v116h77v-116z" />
    <glyph glyph-name="dieresis.cap" horiz-adv-x="468" 
d="M164 758h-85v116h85v-116zM390 758h-85v116h85v-116z" />
    <glyph glyph-name="macron.cap" horiz-adv-x="463" 
d="M384 847v-71h-305v71h305z" />
    <glyph glyph-name="breve.cap" horiz-adv-x="456" 
d="M309 886h70q0 -68 -38.5 -105t-113.5 -37t-112.5 37t-37.5 105h70q0 -75 81 -75t81 75z" />
    <glyph glyph-name="ring.cap" horiz-adv-x="405" 
d="M311 835q0 -41 -29 -69t-80 -28q-52 0 -80 26.5t-28 69.5q0 41 29.5 69t80.5 28q52 0 79.5 -26.5t27.5 -69.5zM247 834q0 20 -11.5 33.5t-32.5 13.5q-22 0 -33 -13t-11 -34q0 -20 11.5 -33t32.5 -13t32.5 13t11.5 33z" />
    <glyph glyph-name="ringacute" horiz-adv-x="425" 
d="M300 632q0 -40 -29 -68t-79 -28q-51 0 -78.5 26.5t-27.5 67.5q0 40 29 68t79 28q51 0 78.5 -26.5t27.5 -67.5zM237 631q0 20 -11.5 33t-32.5 13t-32.5 -13t-11.5 -33t11.5 -33t32.5 -13t32.5 13t11.5 33zM156 770l81 118h109l-117 -118h-73z" />
    <glyph glyph-name="ringacute.cap" horiz-adv-x="436" 
d="M310 742q0 -40 -28.5 -67.5t-79.5 -27.5q-52 0 -79.5 26t-27.5 68q0 40 29 67t80 27q52 0 79 -25.5t27 -67.5zM245 741q0 45 -42 45q-21 0 -32 -12.5t-11 -31.5q0 -20 11 -32.5t32 -12.5t31.5 12.5t10.5 31.5zM156 874l81 106h117l-118 -106h-80z" />
    <glyph glyph-name="hungarumlaut.cap" horiz-adv-x="565" 
d="M74 748l73 134h112l-107 -134h-78zM281 748l92 134h118l-128 -134h-82z" />
    <glyph glyph-name="dotaccent.cap" horiz-adv-x="245" 
d="M166 758h-87v116h87v-116z" />
    <glyph glyph-name="uni0326.cap" horiz-adv-x="273" 
d="M108 -52h86v-73q0 -36 -22.5 -59.5t-73.5 -23.5h-19v39h17q34 0 34 37h-22v80z" />
    <glyph glyph-name="cedilla.cap" horiz-adv-x="297" 
d="M165 -204h-87l11.5 11.5l12.5 12.5t11.5 12t10.5 13.5t6 13t3 13.5q0 27 -50 50l46 80h74l-30 -52q44 -33 44 -72q0 -21 -16 -44.5t-36 -37.5z" />
    <glyph glyph-name="ogonek.cap" horiz-adv-x="328" 
d="M146 0h82q-40 -59 -52.5 -83.5t-12.5 -41.5q0 -25 36 -25h51v-54q-27 -8 -65 -8q-105 0 -105 75q0 48 66 137z" />
    <glyph glyph-name="tonos.cap" horiz-adv-x="263" 
d="M79 539l31 192h88l-52 -192h-67z" />
    <glyph glyph-name="tonos.long" horiz-adv-x="263" 
d="M79 511l21 182h89l-48 -182h-62z" />
    <glyph glyph-name="anoteleia.cap" horiz-adv-x="282" 
d="M194 290h-105v124h105v-124z" />
    <glyph glyph-name="breve.cyr" horiz-adv-x="457" 
d="M305 693h73q-15 -140 -150 -140q-70 0 -105.5 34.5t-43.5 105.5h74q8 -41 24.5 -63.5t51.5 -22.5q67 0 76 86z" />
    <glyph glyph-name="breve.cyr.cap" horiz-adv-x="482" 
d="M326 886h77q-6 -66 -48 -104t-116 -38t-114 37.5t-46 104.5h76q12 -87 86 -87q42 0 61.5 26t23.5 61z" />
    <glyph glyph-name="breve.bul" horiz-adv-x="468" 
d="M364 670l25 -55q-64 -39 -155 -39q-94 0 -155 39l25 55q59 -28 132 -28q70 0 128 28z" />
    <glyph glyph-name="breve.bul.cap" horiz-adv-x="488" 
d="M384 846l26 -57q-62 -40 -167 -40q-102 0 -164 40l27 57q62 -30 139 -30q82 0 139 30z" />
    <glyph glyph-name="guilsinglleft.cap" horiz-adv-x="422" 
d="M325 143l-64 -35l-176 233l177 232l63 -33l-134 -198z" />
    <glyph glyph-name="guilsinglright.cap" horiz-adv-x="422" 
d="M97 538l63 36l177 -233l-177 -232l-64 33l135 197z" />
    <glyph glyph-name="guillemotleft.cap" horiz-adv-x="669" 
d="M325 143l-64 -35l-176 233l177 232l63 -33l-134 -198zM572 159l-63 -34l-168 216l168 216l63 -33l-125 -182z" />
    <glyph glyph-name="guillemotright.cap" horiz-adv-x="669" 
d="M344 539l63 35l177 -233l-177 -232l-63 33l134 198zM97 523l63 34l168 -216l-168 -216l-63 33l125 182z" />
    <glyph glyph-name="slash.cap" horiz-adv-x="420" 
d="M107 -15h-83l291 712h82z" />
    <glyph glyph-name="backslash.cap" horiz-adv-x="420" 
d="M397 -15h-83l-291 712h83z" />
    <glyph glyph-name="hyphen.cap" horiz-adv-x="382" 
d="M332 301h-283v81h283v-81z" />
    <glyph glyph-name="endash.cap" horiz-adv-x="670" 
d="M599 377v-72h-528v72h528z" />
    <glyph glyph-name="emdash.cap" horiz-adv-x="990" 
d="M934 377v-72h-878v72h878z" />
    <glyph glyph-name="bullet.cap" horiz-adv-x="440" 
d="M353 353q0 -55 -39.5 -94.5t-94.5 -39.5t-93.5 38.5t-38.5 93.5t39.5 94.5t94.5 39.5t93.5 -38.5t38.5 -93.5z" />
    <glyph glyph-name="periodcentered.cap" horiz-adv-x="282" 
d="M194 290h-105v124h105v-124z" />
    <glyph glyph-name="zero.oldstyle" horiz-adv-x="654" 
d="M492 274q0 106 -43.5 161.5t-121.5 55.5t-121.5 -55t-43.5 -161t43.5 -161.5t121.5 -55.5t121.5 55t43.5 161zM581 276q0 -136 -68.5 -213.5t-187.5 -77.5q-120 0 -186.5 75.5t-66.5 212.5q0 136 68.5 213.5t188.5 77.5q119 0 185.5 -75.5t66.5 -212.5z" />
    <glyph glyph-name="one.oldstyle" horiz-adv-x="440" 
d="M237 0v423q-60 -54 -182 -54v71q81 0 129 26t62 86h79v-552h-88z" />
    <glyph glyph-name="two.oldstyle" horiz-adv-x="616" 
d="M546 76v-76h-473v88q121 70 196 120t109.5 85t45 57t10.5 49q0 42 -32.5 68.5t-99.5 26.5q-65 0 -95.5 -28t-30.5 -71q0 -32 13 -61h-88q-13 24 -13 64q0 75 59.5 120.5t158.5 45.5q107 0 163.5 -45.5t56.5 -114.5q0 -36 -11.5 -65.5t-46 -69t-106 -88t-183.5 -110.5v-1
q183 6 367 6z" />
    <glyph glyph-name="three.oldstyle" horiz-adv-x="640" 
d="M47 55l85 23q27 -154 182 -154q73 0 113 36t40 94q0 62 -43 94.5t-119 32.5h-95v68h67q101 0 145 44q28 28 28 82q0 53 -39 85.5t-102 32.5q-126 0 -155 -137l-83 17q42 191 240 191q104 0 166 -50.5t62 -132.5q0 -118 -122 -160v-1q69 -12 105 -55t36 -107
q0 -88 -66.5 -147t-180.5 -59t-180 52.5t-84 150.5z" />
    <glyph glyph-name="four.oldstyle" horiz-adv-x="634" 
d="M126 108q177 3 254 3v194q0 91 4 173h-2zM465 -133h-85v172h-339v68l304 442h120v-438h121v-72h-121v-172z" />
    <glyph glyph-name="five.oldstyle" horiz-adv-x="615" 
d="M512 549v-73h-320l-18 -213h1q22 29 63.5 45t88.5 16q106 0 168 -64t62 -168t-68 -172t-183 -68q-177 0 -253 155l77 38q57 -121 178 -121q73 0 115.5 45t42.5 120q0 73 -42 118.5t-112 45.5q-54 0 -91.5 -23.5t-51.5 -60.5h-77l32 380h388z" />
    <glyph glyph-name="six.oldstyle" horiz-adv-x="639" 
d="M562 558l-78 -35q-45 102 -149 102q-89 0 -130 -76t-42 -238q21 55 71.5 85.5t117.5 30.5q108 0 165.5 -57.5t57.5 -153.5q0 -97 -65.5 -164t-174.5 -67q-124 0 -192 87.5t-68 251.5q0 179 68 276t195 97q81 0 134.5 -33t89.5 -106zM341 357q-72 0 -112.5 -40.5
t-40.5 -106.5q0 -67 40.5 -110t107.5 -43q71 0 110 44t39 114q0 67 -38 104.5t-106 37.5z" />
    <glyph glyph-name="seven.oldstyle" horiz-adv-x="590" 
d="M270 -133h-92q13 159 76 306t186 302h-386v74h482v-67q-242 -300 -266 -615z" />
    <glyph glyph-name="eight.oldstyle" horiz-adv-x="657" 
d="M594 190q0 -90 -71 -147.5t-196 -57.5q-124 0 -193.5 55.5t-69.5 143.5q0 61 35 105.5t99 66.5v1q-52 18 -82 57t-30 93q0 82 66.5 136t178.5 54t176.5 -52.5t64.5 -134.5q0 -53 -30 -92.5t-82 -59.5v-1q134 -41 134 -167zM504 188q0 61 -47 95.5t-129 34.5
q-81 0 -127.5 -34.5t-46.5 -95.5t47 -96t128 -35t128 35t47 96zM483 507q0 55 -41.5 87t-112.5 32t-112.5 -32t-41.5 -87q0 -56 41.5 -88t112.5 -32t112.5 32t41.5 88z" />
    <glyph glyph-name="nine.oldstyle" horiz-adv-x="639" 
d="M68 -5l78 35q46 -106 158 -106q89 0 130 76t42 238q-21 -55 -71.5 -85.5t-117.5 -30.5q-109 0 -166 57.5t-57 153.5q0 97 65.5 164t174.5 67q124 0 192 -87.5t68 -251.5q0 -179 -68 -276t-195 -97q-84 0 -141 33.5t-92 109.5zM298 192q72 0 112.5 40.5t40.5 106.5
q0 67 -40.5 110t-107.5 43q-71 0 -110 -44t-39 -114q0 -68 37.5 -105t106.5 -37z" />
    <glyph glyph-name="zero.LinTab" 
d="M489 341q0 141 -38.5 212t-125.5 71t-125.5 -71t-38.5 -212q0 -140 38.5 -211t125.5 -71t125.5 70.5t38.5 211.5zM580 342q0 -168 -65 -262.5t-192 -94.5q-128 0 -190.5 92.5t-62.5 262.5q0 168 65 262.5t192 94.5q128 0 190.5 -92.5t62.5 -262.5z" />
    <glyph glyph-name="one.LinTab" 
d="M407 0h-88v547q-68 -59 -206 -59v73q185 0 215 123h79v-684z" />
    <glyph glyph-name="one.LinTab.001" 
d="M578 0h-485v75h206v472q-68 -59 -206 -59v73q185 0 215 123h79v-609h191v-75z" />
    <glyph glyph-name="two.LinTab" 
d="M581 78v-78h-511v77q249 198 300 246q82 76 96 132q4 18 4 37q0 60 -38 96t-112 36q-71 0 -108.5 -36.5t-37.5 -89.5q0 -41 10 -79h-85q-14 28 -14 76q0 90 67 146t171 56q115 0 176.5 -55.5t61.5 -145.5t-64 -158t-302 -252q-6 -5 -9 -7v-2q70 1 199 1h196z" />
    <glyph glyph-name="three.LinTab" 
d="M63 189l86 22q17 -80 61 -117t123 -37q73 0 113.5 36t40.5 94q0 62 -43.5 94.5t-119.5 32.5h-96v68h67q103 0 147 44q29 29 29 82t-40.5 85.5t-103.5 32.5q-125 0 -155 -137l-84 17q45 191 242 191q104 0 167 -50.5t63 -132.5q0 -116 -121 -160v-1q68 -12 104 -55.5
t36 -106.5q0 -88 -67.5 -147t-181.5 -59q-116 0 -180 49.5t-87 154.5z" />
    <glyph glyph-name="four.LinTab" 
d="M132 241q177 3 254 3v194q0 91 4 173h-2zM471 0h-85v172h-339v68l304 442h120v-438h121v-72h-121v-172z" />
    <glyph glyph-name="five.LinTab" 
d="M530 682v-73h-320l-18 -213h1q22 29 63.5 45t88.5 16q106 0 168 -64t62 -168t-68 -172t-183 -68q-177 0 -253 155l77 38q57 -121 178 -121q73 0 115.5 45t42.5 120q0 73 -42 118.5t-112 45.5q-54 0 -91.5 -23.5t-51.5 -60.5h-77l32 380h388z" />
    <glyph glyph-name="six.LinTab" 
d="M564 558l-78 -35q-45 102 -149 102q-89 0 -130 -76t-42 -238q21 55 71.5 85.5t117.5 30.5q108 0 165.5 -57.5t57.5 -153.5q0 -97 -65.5 -164t-174.5 -67q-124 0 -192 87.5t-68 251.5q0 179 68 276t195 97q81 0 134.5 -33t89.5 -106zM343 357q-72 0 -112.5 -40.5
t-40.5 -106.5q0 -67 40.5 -110t107.5 -43q71 0 110 44t39 114q0 67 -38 104.5t-106 37.5z" />
    <glyph glyph-name="seven.LinTab" 
d="M283 0h-92q15 158 85.5 303t204.5 305h-406v74h500v-67q-139 -168 -209 -314.5t-83 -300.5z" />
    <glyph glyph-name="eight.LinTab" 
d="M590 190q0 -90 -71 -147.5t-196 -57.5q-124 0 -193.5 55.5t-69.5 143.5q0 61 35 105.5t99 66.5v1q-52 18 -82 57t-30 93q0 82 66.5 136t178.5 54t176.5 -52.5t64.5 -134.5q0 -53 -30 -92.5t-82 -59.5v-1q134 -41 134 -167zM500 188q0 61 -47 95.5t-129 34.5
q-81 0 -127.5 -34.5t-46.5 -95.5t47 -96t128 -35t128 35t47 96zM479 507q0 55 -41.5 87t-112.5 32t-112.5 -32t-41.5 -87q0 -56 41.5 -88t112.5 -32t112.5 32t41.5 88z" />
    <glyph glyph-name="nine.LinTab" 
d="M77 128l78 35q46 -106 158 -106q89 0 130 76t42 238q-21 -55 -71.5 -85.5t-117.5 -30.5q-109 0 -166 57.5t-57 153.5q0 97 65.5 164t174.5 67q124 0 192 -87.5t68 -251.5q0 -179 -68 -276t-195 -97q-84 0 -141 33.5t-92 109.5zM307 325q72 0 112.5 40.5t40.5 106.5
q0 67 -40.5 110t-107.5 43q-71 0 -110 -44t-39 -114q0 -68 37.5 -105t106.5 -37z" />
    <glyph glyph-name="zero.OnumTab" 
d="M490 274q0 106 -43.5 161.5t-121.5 55.5t-121.5 -55t-43.5 -161t43.5 -161.5t121.5 -55.5t121.5 55t43.5 161zM579 276q0 -136 -68.5 -213.5t-187.5 -77.5q-120 0 -186.5 75.5t-66.5 212.5q0 136 68.5 213.5t188.5 77.5q119 0 185.5 -75.5t66.5 -212.5z" />
    <glyph glyph-name="one.OnumTab" 
d="M402 0h-88v422q-66 -57 -194 -57v71q90 0 138 27t68 89h76v-552z" />
    <glyph glyph-name="one.OnumTab.001" 
d="M566 0h-461v73h194v349q-66 -57 -194 -57v71q90 0 138 27t68 89h76v-479h179v-73z" />
    <glyph glyph-name="two.OnumTab" 
d="M572 76v-76h-492v88q174 98 256.5 155t103 87t20.5 69q0 42 -34 68.5t-107 26.5q-70 0 -103 -28t-33 -71q0 -32 11 -61h-86q-13 26 -13 64q0 75 62.5 120.5t165.5 45.5q113 0 171 -44.5t58 -115.5q0 -40 -11.5 -69t-48.5 -67t-109 -83.5t-191 -108.5v-2q142 2 218 2h162z
" />
    <glyph glyph-name="three.OnumTab" 
d="M63 56l86 22q17 -80 61 -117t123 -37q73 0 113.5 36t40.5 94q0 62 -43.5 94.5t-119.5 32.5h-96v68h67q103 0 147 44q29 29 29 82t-40.5 85.5t-103.5 32.5q-125 0 -155 -137l-84 17q45 191 242 191q104 0 167 -50.5t63 -132.5q0 -116 -121 -160v-1q68 -12 104 -55.5
t36 -106.5q0 -88 -67.5 -147t-181.5 -59q-116 0 -180 49.5t-87 154.5z" />
    <glyph glyph-name="four.OnumTab" 
d="M132 108q177 3 254 3v194q0 91 4 173h-2zM471 -133h-85v172h-339v68l304 442h120v-438h121v-72h-121v-172z" />
    <glyph glyph-name="five.OnumTab" 
d="M530 549v-73h-320l-18 -213h1q22 29 63.5 45t88.5 16q106 0 168 -64t62 -168t-68 -172t-183 -68q-177 0 -253 155l77 38q57 -121 178 -121q73 0 115.5 45t42.5 120q0 73 -42 118.5t-112 45.5q-54 0 -91.5 -23.5t-51.5 -60.5h-77l32 380h388z" />
    <glyph glyph-name="six.OnumTab" 
d="M564 558l-78 -35q-45 102 -149 102q-89 0 -130 -76t-42 -238q21 55 71.5 85.5t117.5 30.5q108 0 165.5 -57.5t57.5 -153.5q0 -97 -65.5 -164t-174.5 -67q-124 0 -192 87.5t-68 251.5q0 179 68 276t195 97q81 0 134.5 -33t89.5 -106zM343 357q-72 0 -112.5 -40.5
t-40.5 -106.5q0 -67 40.5 -110t107.5 -43q71 0 110 44t39 114q0 67 -38 104.5t-106 37.5z" />
    <glyph glyph-name="seven.OnumTab" 
d="M283 -133h-92q15 158 85.5 303t204.5 305h-406v74h500v-67q-139 -168 -209 -314.5t-83 -300.5z" />
    <glyph glyph-name="eight.OnumTab" 
d="M590 190q0 -90 -71 -147.5t-196 -57.5q-124 0 -193.5 55.5t-69.5 143.5q0 61 35 105.5t99 66.5v1q-52 18 -82 57t-30 93q0 82 66.5 136t178.5 54t176.5 -52.5t64.5 -134.5q0 -53 -30 -92.5t-82 -59.5v-1q134 -41 134 -167zM500 188q0 61 -47 95.5t-129 34.5
q-81 0 -127.5 -34.5t-46.5 -95.5t47 -96t128 -35t128 35t47 96zM479 507q0 55 -41.5 87t-112.5 32t-112.5 -32t-41.5 -87q0 -56 41.5 -88t112.5 -32t112.5 32t41.5 88z" />
    <glyph glyph-name="nine.OnumTab" 
d="M77 -5l78 35q46 -106 158 -106q89 0 130 76t42 238q-21 -55 -71.5 -85.5t-117.5 -30.5q-109 0 -166 57.5t-57 153.5q0 97 65.5 164t174.5 67q124 0 192 -87.5t68 -251.5q0 -179 -68 -276t-195 -97q-84 0 -141 33.5t-92 109.5zM307 192q72 0 112.5 40.5t40.5 106.5
q0 67 -40.5 110t-107.5 43q-71 0 -110 -44t-39 -114q0 -68 37.5 -105t106.5 -37z" />
    <glyph glyph-name="percent.cap" horiz-adv-x="1005" 
d="M332 499q0 64 -26.5 99.5t-76.5 35.5q-49 0 -75.5 -35.5t-26.5 -99.5t26.5 -99.5t76.5 -35.5q49 0 75.5 35.5t26.5 99.5zM411 501q0 -93 -48 -146.5t-135 -53.5t-133.5 51.5t-46.5 144.5t48 146.5t135 53.5t133.5 -51.5t46.5 -144.5zM878 183q0 64 -26.5 99.5t-76.5 35.5
t-76 -35.5t-26 -99.5t26 -99.5t76 -35.5t76.5 35.5t26.5 99.5zM957 185q0 -92 -48.5 -146t-134.5 -54q-87 0 -133.5 51.5t-46.5 144.5t48 146.5t134 53.5q88 0 134.5 -51.5t46.5 -144.5zM299 0h-84l491 682h84z" />
    <glyph glyph-name="perthousand.cap" horiz-adv-x="1457" 
d="M332 499q0 64 -26.5 99.5t-76.5 35.5q-49 0 -75.5 -35.5t-26.5 -99.5t26.5 -99.5t76.5 -35.5q49 0 75.5 35.5t26.5 99.5zM411 501q0 -93 -48 -146.5t-135 -53.5t-133.5 51.5t-46.5 144.5t48 146.5t135 53.5t133.5 -51.5t46.5 -144.5zM878 183q0 64 -26.5 99.5t-76.5 35.5
t-76 -35.5t-26 -99.5t26 -99.5t76 -35.5t76.5 35.5t26.5 99.5zM957 185q0 -92 -48.5 -146t-134.5 -54q-87 0 -133.5 51.5t-46.5 144.5t48 146.5t134 53.5q88 0 134.5 -51.5t46.5 -144.5zM1330 183q0 64 -26.5 99.5t-76.5 35.5q-49 0 -75.5 -35.5t-26.5 -99.5t26.5 -99.5
t76.5 -35.5q49 0 75.5 35.5t26.5 99.5zM1409 185q0 -93 -48 -146.5t-135 -53.5t-133.5 51.5t-46.5 144.5t48 146.5t135 53.5t133.5 -51.5t46.5 -144.5zM299 0h-84l491 682h84z" />
    </font>
</defs>
</svg>
