<?xml version="1.0" encoding="utf-8"?><svg width="54" height="39" fill="none" xmlns="http://www.w3.org/2000/svg" viewBox="0 0 54 39"><path fill-rule="evenodd" clip-rule="evenodd" d="M27.427 19.127c-.495-.002-.576-.002 0 0z" fill="#fff"/><path d="M27.427 19.127c-.495-.002-.576-.002 0-.002v.002z" fill="#fff"/><path fill-rule="evenodd" clip-rule="evenodd" d="M45.908 6.345l7.677 1.13v4.053l-8.09 1.216-.174-1.156.587-.088V6.344zm1.169 4.979l5.339-.803V8.484l-5.34-.785v3.625zM8.092 6.348v5.15l.588.089-.173 1.156L.416 11.53V7.478l7.676-1.13zm-1.169 4.976V7.702l-5.338.786v2.036l5.338.8z" fill="#fff"/><path fill-rule="evenodd" clip-rule="evenodd" d="M44.401 38.063h3.155c1.126 0 2.037-.933 2.037-2.082V21c0-2.2-.848-5.577-1.883-7.504l-5.363-9.981C40.967.966 38.01.008 35.86.008H18.596c-2.152 0-4.875.803-6.489 3.506l-5.363 9.98C5.71 15.423 4.863 18.8 4.863 21v14.982c0 1.15.91 2.082 2.036 2.082h3.154a2.04 2.04 0 001.957-1.51l.037-.152v-.002l.9-3.802h28.561l.898 3.796.002.008.037.151.003.018c.249.86 1.03 1.493 1.953 1.493zm3.68-2.082c0 .323-.235.585-.525.585h-3.155c-.216 0-.415-.155-.491-.38l-.047-.191v-.004l-1.157-4.89H11.749l-1.184 5.005-.016.066a.535.535 0 01-.496.394H6.899c-.29 0-.526-.262-.526-.585V21c0-1.965.781-5.08 1.705-6.802l5.346-9.95c1.441-2.385 3.857-2.742 5.172-2.742H35.86c1.834 0 4.14.84 5.155 2.716l5.36 9.977c.926 1.72 1.707 4.835 1.707 6.801v14.982z" fill="#fff"/><path fill-rule="evenodd" clip-rule="evenodd" d="M27.495 17.758c-2.395.007-10.015.036-10.722.155-.145.024-.294.04-.441.054-.793.081-1.542.157-1.505 1.586.046 1.694.353 4.054.353 4.054s.178 2.413 2.083 2.567c.435.035.963.084 1.56.14 2.179.201 5.261.486 7.998.486.286 0 .567-.003.844-.01.276.007.558.01.844.01 2.736 0 5.82-.285 8-.486.597-.056 1.126-.105 1.562-.14 1.903-.154 2.08-2.567 2.08-2.567s.31-2.36.354-4.054c.035-1.428-.714-1.505-1.505-1.586-.147-.015-.295-.03-.44-.054-.709-.12-8.326-.148-10.725-.155h-.34zM17 19.495c.43-.051 3.433-.117 10.5-.137h.335c7.067.02 10.07.086 10.5.137.189.03.364.049.52.064l.011.002.119.012c-.048 1.578-.335 3.793-.338 3.816l-.009.064v.024c-.013.116-.071.44-.207.715-.18.363-.351.377-.477.387-.443.036-.969.085-1.577.141h-.001c-2.194.203-5.198.48-7.866.48-.28 0-.552-.002-.81-.009h-.069c-.258.007-.53.01-.81.01-2.67 0-5.672-.278-7.865-.481h-.002c-.607-.056-1.131-.105-1.575-.14-.125-.01-.297-.025-.477-.388a2.404 2.404 0 01-.206-.716l-.003-.057-.006-.029c-.003-.023-.289-2.235-.338-3.817l.13-.014a8.55 8.55 0 00.52-.064z" fill="#fff"/><path fill-rule="evenodd" clip-rule="evenodd" d="M40.571 19.785a17.747 17.747 0 003.671-.772l.36 1.112c-1.271.412-2.58.687-3.906.822-1.589.2-3.186.313-4.787.338l-.018-1.169a42.745 42.745 0 004.666-.33h.014z" fill="#fff"/><path fill-rule="evenodd" clip-rule="evenodd" d="M43.96 21.518l-.376-3.48 1.163-.126.375 3.481-1.162.125zM13.011 20.943a18.909 18.909 0 01-3.908-.818l.359-1.113a17.74 17.74 0 003.673.769h.008l.007.001a42.77 42.77 0 004.667.33L17.8 21.28a43.97 43.97 0 01-4.788-.338z" fill="#fff"/><path fill-rule="evenodd" clip-rule="evenodd" d="M8.582 21.393l.376-3.481 1.162.125-.375 3.481-1.163-.125z" fill="#fff"/></svg>