<?xml version="1.0" encoding="utf-8"?><svg width="37" height="37" fill="none" xmlns="http://www.w3.org/2000/svg" viewBox="0 0 37 37"><path fill-rule="evenodd" clip-rule="evenodd" d="M18.5 36C28.165 36 36 28.165 36 18.5S28.165 1 18.5 1 1 8.835 1 18.5 8.835 36 18.5 36zm0 1C28.717 37 37 28.717 37 18.5S28.717 0 18.5 0 0 8.283 0 18.5 8.283 37 18.5 37z" fill="#000"/><path d="M25.787 25.306l-2.727-3.373a1.053 1.053 0 00-1.415-.202l-1.406.977a.45.45 0 01-.586-.056l-.158-.165c-.525-.543-1.178-1.218-2.269-3.3-1.09-2.083-1.275-3.005-1.422-3.744l-.045-.224a.45.45 0 01.286-.516l1.602-.6c.514-.195.792-.751.64-1.279l-1.221-4.162a1.048 1.048 0 00-1.254-.725l-1.71.415a2.129 2.129 0 00-1.303.913c-1.109 1.728-1.738 5.112 1.566 11.42 2.628 5.015 5.153 6.932 7.109 7.543.45.142.916.224 1.387.242a2.127 2.127 0 001.492-.55l1.316-1.17c.419-.372.47-1.008.118-1.444zm-.516 1l-1.314 1.171c-.293.267-.678.41-1.075.4-1.894-.066-4.818-1.415-7.99-7.469-3.172-6.054-2.617-9.226-1.592-10.822.217-.332.554-.567.941-.656l1.71-.414a.455.455 0 01.545.314l1.219 4.162a.457.457 0 01-.277.554l-1.603.6a1.04 1.04 0 00-.661 1.193l.044.218c.155.778.347 1.745 1.479 3.905 1.131 2.159 1.817 2.867 2.368 3.438l.154.16a1.04 1.04 0 001.357.135l1.406-.976a.458.458 0 01.613.088l2.727 3.373a.454.454 0 01-.051.626z" fill="#000" stroke="#000" stroke-width=".5"/></svg>