<?xml version="1.0" encoding="utf-8"?><svg width="46" height="46" fill="none" xmlns="http://www.w3.org/2000/svg" viewBox="0 0 46 46"><path d="M43.845 34.944l-8.905-5.939a2.6 2.6 0 00-3.481.565l-2.594 3.336c-.333.44-.94.567-1.422.3l-.493-.273c-1.636-.892-3.671-2.002-7.773-6.104-4.1-4.103-5.213-6.14-6.104-7.773l-.27-.494a1.11 1.11 0 01.292-1.427l3.333-2.593a2.601 2.601 0 00.567-3.481l-5.94-8.906A2.586 2.586 0 007.57 1.37L3.846 3.607a5.253 5.253 0 00-2.396 3.11c-1.34 4.886-.332 13.32 12.09 25.744C23.422 42.343 30.78 45 35.836 45a12.987 12.987 0 003.446-.45 5.248 5.248 0 003.109-2.396l2.24-3.722a2.586 2.586 0 00-.785-3.488z" stroke="#fff" stroke-width="1.4"/></svg>