<?xml version="1.0" encoding="utf-8"?><svg width="97" height="15" fill="none" xmlns="http://www.w3.org/2000/svg" viewBox="0 0 97 15"><path fill-rule="evenodd" clip-rule="evenodd" d="M22.711 11.478h-1.82V2.714h3.94v1.614H22.71l.002 7.15zm6.255-8.764h4.243v1.614H30.86v1.69h1.82v1.614h-1.82v2.235h2.5v1.614h-4.394V2.714zM40.94 7.632h-1.742v3.843h-1.895V2.714h1.895v3.305h1.742V2.714h1.82v8.764h-1.82V7.632zm5.929-4.918h4.243v1.614h-2.35v1.69h1.82v1.614h-1.82v2.235h2.501v1.614H46.87V2.714zm11.745 2.535c0-.398-.266-.921-.681-.921h-.847v2.844h.858c.418 0 .681-.744.681-1.076l-.011-.847zm-.229 3.473h-1.299v2.767h-1.894V2.714h3.107a2.166 2.166 0 012.12 2.229v1.385c.012.964-.532 2.394-2.034 2.394zm7.84-3.688l-.607 3.228h1.213l-.606-3.228zm.91 4.69h-1.82l-.303 1.768h-1.895l1.895-8.778h2.426l1.894 8.764h-1.894l-.303-1.754zm10.111 1.768h-4.71V2.714h1.895v7.153h1.668V2.714h1.894v7.153h.758v3.147h-1.516l.011-1.522zm8.672-4.69l-1.894 3.766v.921H82.13V2.714h1.894v4.69l1.894-3.766v-.924h1.895v8.764h-1.895V6.803zm9.188-2.46h-.91c-.329 0-.607.435-.607.692v.999c0 .286.24.921.53.921h.984l.003-2.612zm0 7.153V8.402h-.607l-1.213 3.076H91.24l1.668-3.46s-1.144-.512-1.144-2.074V4.8c0-1.193.833-2.075 2.197-2.075H97v8.764l-1.894.006z" fill="#fff"/><path d="M1.931 12.523a7.508 7.508 0 01-.017-10.036L5.06 5.634v3.757L1.93 12.523zM9.946 14.6V9.127H5.878v-3.26h8.95c.676 3.02-.572 7.133-4.882 8.733zm0-9.537V.413a7.463 7.463 0 014.651 4.65h-4.65zm-4.324 0L2.478 1.916A7.494 7.494 0 017.545.001a5.8 5.8 0 011.596.19v4.872H5.622zm-3.142 8.01L5.625 9.95H9.14v4.873a7.537 7.537 0 01-6.66-1.75z" fill="#fff"/></svg>